mtllib Food_Salad.mtl
v 0.0000 0.0000 0.0000
v 0.0000 0.0000 0.0000
v 0.0000 0.0000 0.0000
v 0.0000 0.0000 0.0000
v 0.0000 0.0000 0.0000
v 0.0000 0.0000 0.0000
v 0.0000 0.0000 0.0000
v 0.0000 0.0000 0.0000
v 0.0000 0.0000 0.0000
v 0.0000 0.0000 0.0000
v 0.0000 0.0000 0.0000
v 0.0000 0.0000 0.0000
v 0.4200 0.0000 0.0000
v 0.3637 0.0000 0.2100
v 0.2100 0.0000 0.3637
v 0.0000 0.0000 0.4200
v -0.2100 0.0000 0.3637
v -0.3637 0.0000 0.2100
v -0.4200 0.0000 0.0000
v -0.3637 0.0000 -0.2100
v -0.2100 0.0000 -0.3637
v -0.0000 0.0000 -0.4200
v 0.2100 0.0000 -0.3637
v 0.3637 0.0000 -0.2100
v 0.5000 0.0500 0.0000
v 0.4330 0.0500 0.2500
v 0.2500 0.0500 0.4330
v 0.0000 0.0500 0.5000
v -0.2500 0.0500 0.4330
v -0.4330 0.0500 0.2500
v -0.5000 0.0500 0.0000
v -0.4330 0.0500 -0.2500
v -0.2500 0.0500 -0.4330
v -0.0000 0.0500 -0.5000
v 0.2500 0.0500 -0.4330
v 0.4330 0.0500 -0.2500
v 0.8000 0.3000 0.0000
v 0.6928 0.3000 0.4000
v 0.4000 0.3000 0.6928
v 0.0000 0.3000 0.8000
v -0.4000 0.3000 0.6928
v -0.6928 0.3000 0.4000
v -0.8000 0.3000 0.0000
v -0.6928 0.3000 -0.4000
v -0.4000 0.3000 -0.6928
v -0.0000 0.3000 -0.8000
v 0.4000 0.3000 -0.6928
v 0.6928 0.3000 -0.4000
v 1.0000 0.7500 0.0000
v 0.8660 0.7500 0.5000
v 0.5000 0.7500 0.8660
v 0.0000 0.7500 1.0000
v -0.5000 0.7500 0.8660
v -0.8660 0.7500 0.5000
v -1.0000 0.7500 0.0000
v -0.8660 0.7500 -0.5000
v -0.5000 0.7500 -0.8660
v -0.0000 0.7500 -1.0000
v 0.5000 0.7500 -0.8660
v 0.8660 0.7500 -0.5000
v 0.9300 0.7300 0.0000
v 0.8054 0.7300 0.4650
v 0.4650 0.7300 0.8054
v 0.0000 0.7300 0.9300
v -0.4650 0.7300 0.8054
v -0.8054 0.7300 0.4650
v -0.9300 0.7300 0.0000
v -0.8054 0.7300 -0.4650
v -0.4650 0.7300 -0.8054
v -0.0000 0.7300 -0.9300
v 0.4650 0.7300 -0.8054
v 0.8054 0.7300 -0.4650
v 1.0200 0.7300 0.0000
v 0.8833 0.7300 0.5100
v 0.5100 0.7300 0.8833
v 0.0000 0.7300 1.0200
v -0.5100 0.7300 0.8833
v -0.8833 0.7300 0.5100
v -1.0200 0.7300 0.0000
v -0.8833 0.7300 -0.5100
v -0.5100 0.7300 -0.8833
v -0.0000 0.7300 -1.0200
v 0.5100 0.7300 -0.8833
v 0.8833 0.7300 -0.5100
v 1.0200 0.8000 0.0000
v 0.8833 0.8000 0.5100
v 0.5100 0.8000 0.8833
v 0.0000 0.8000 1.0200
v -0.5100 0.8000 0.8833
v -0.8833 0.8000 0.5100
v -1.0200 0.8000 0.0000
v -0.8833 0.8000 -0.5100
v -0.5100 0.8000 -0.8833
v -0.0000 0.8000 -1.0200
v 0.5100 0.8000 -0.8833
v 0.8833 0.8000 -0.5100
v 0.9300 0.8000 0.0000
v 0.8054 0.8000 0.4650
v 0.4650 0.8000 0.8054
v 0.0000 0.8000 0.9300
v -0.4650 0.8000 0.8054
v -0.8054 0.8000 0.4650
v -0.9300 0.8000 0.0000
v -0.8054 0.8000 -0.4650
v -0.4650 0.8000 -0.8054
v -0.0000 0.8000 -0.9300
v 0.4650 0.8000 -0.8054
v 0.8054 0.8000 -0.4650
v 0.9400 0.7500 0.0000
v 0.8141 0.7500 0.4700
v 0.4700 0.7500 0.8141
v 0.0000 0.7500 0.9400
v -0.4700 0.7500 0.8141
v -0.8141 0.7500 0.4700
v -0.9400 0.7500 0.0000
v -0.8141 0.7500 -0.4700
v -0.4700 0.7500 -0.8141
v -0.0000 0.7500 -0.9400
v 0.4700 0.7500 -0.8141
v 0.8141 0.7500 -0.4700
v 0.7000 0.2950 0.0000
v 0.6062 0.2950 0.3500
v 0.3500 0.2950 0.6062
v 0.0000 0.2950 0.7000
v -0.3500 0.2950 0.6062
v -0.6062 0.2950 0.3500
v -0.7000 0.2950 0.0000
v -0.6062 0.2950 -0.3500
v -0.3500 0.2950 -0.6062
v -0.0000 0.2950 -0.7000
v 0.3500 0.2950 -0.6062
v 0.6062 0.2950 -0.3500
v 0.0000 0.2250 0.0000
v 0.0000 0.2250 0.0000
v 0.0000 0.2250 0.0000
v 0.0000 0.2250 0.0000
v 0.0000 0.2250 0.0000
v 0.0000 0.2250 0.0000
v 0.0000 0.2250 0.0000
v 0.0000 0.2250 0.0000
v 0.0000 0.2250 0.0000
v 0.0000 0.2250 0.0000
v 0.0000 0.2250 0.0000
v 0.0000 0.2250 0.0000
v 0.2901 0.5556 0.0000
v 0.2901 0.5556 0.0000
v 0.2901 0.5556 0.0000
v 0.2901 0.5556 0.0000
v 0.2901 0.5556 0.0000
v 0.2901 0.5556 0.0000
v 0.7248 0.5419 0.0000
v 0.5099 0.5686 0.2250
v 0.0802 0.6220 0.2250
v -0.1346 0.6487 0.0000
v 0.0802 0.6220 -0.2250
v 0.5099 0.5686 -0.2250
v 0.7346 0.6213 0.0000
v 0.5198 0.6480 0.2250
v 0.0901 0.7014 0.2250
v -0.1248 0.7281 0.0000
v 0.0901 0.7014 -0.2250
v 0.5198 0.6480 -0.2250
v 0.3099 0.7144 0.0000
v 0.3099 0.7144 0.0000
v 0.3099 0.7144 0.0000
v 0.3099 0.7144 0.0000
v 0.3099 0.7144 -0.0000
v 0.3099 0.7144 -0.0000
v 0.4161 0.6152 0.3535
v 0.4161 0.6152 0.3535
v 0.4161 0.6152 0.3535
v 0.4161 0.6152 0.3535
v 0.4161 0.6152 0.3535
v 0.4161 0.6152 0.3535
v 0.7497 0.6334 0.6319
v 0.4399 0.6537 0.6651
v 0.1089 0.6753 0.3867
v 0.0877 0.6767 0.0752
v 0.3975 0.6565 0.0420
v 0.7285 0.6348 0.3203
v 0.7549 0.7133 0.6319
v 0.4451 0.7335 0.6651
v 0.1141 0.7552 0.3867
v 0.0929 0.7566 0.0752
v 0.4028 0.7363 0.0420
v 0.7338 0.7147 0.3203
v 0.4265 0.7748 0.3535
v 0.4265 0.7748 0.3535
v 0.4265 0.7748 0.3535
v 0.4265 0.7748 0.3535
v 0.4265 0.7748 0.3535
v 0.4265 0.7748 0.3535
v 0.0317 0.6776 0.2954
v 0.0317 0.6776 0.2954
v 0.0317 0.6776 0.2954
v 0.0317 0.6776 0.2954
v 0.0317 0.6776 0.2954
v 0.0317 0.6776 0.2954
v 0.1146 0.6972 0.7219
v -0.1360 0.7632 0.5477
v -0.2087 0.7823 0.1213
v -0.0308 0.7355 -0.1310
v 0.2198 0.6695 0.0432
v 0.2925 0.6503 0.4696
v 0.1350 0.7745 0.7219
v -0.1156 0.8405 0.5477
v -0.1883 0.8597 0.1213
v -0.0104 0.8128 -0.1310
v 0.2402 0.7468 0.0432
v 0.3129 0.7277 0.4696
v 0.0725 0.8324 0.2954
v 0.0725 0.8324 0.2954
v 0.0725 0.8324 0.2954
v 0.0725 0.8324 0.2954
v 0.0725 0.8324 0.2954
v 0.0725 0.8324 0.2954
v -0.2799 0.5552 0.4763
v -0.2799 0.5552 0.4763
v -0.2799 0.5552 0.4763
v -0.2799 0.5552 0.4763
v -0.2799 0.5552 0.4763
v -0.2799 0.5552 0.4763
v -0.4936 0.6085 0.8513
v -0.5800 0.6138 0.5513
v -0.3639 0.6004 0.1763
v -0.0614 0.5817 0.1013
v 0.0251 0.5763 0.4013
v -0.1910 0.5897 0.7763
v -0.4886 0.6883 0.8513
v -0.5751 0.6937 0.5513
v -0.3590 0.6803 0.1763
v -0.0564 0.6615 0.1013
v 0.0300 0.6562 0.4013
v -0.1861 0.6696 0.7763
v -0.2701 0.7148 0.4763
v -0.2701 0.7148 0.4763
v -0.2701 0.7148 0.4763
v -0.2701 0.7148 0.4763
v -0.2701 0.7148 0.4763
v -0.2701 0.7148 0.4763
v -0.2669 0.6164 0.1026
v -0.2669 0.6164 0.1026
v -0.2669 0.6164 0.1026
v -0.2669 0.6164 0.1026
v -0.2669 0.6164 0.1026
v -0.2669 0.6164 0.1026
v -0.6741 0.5794 0.2507
v -0.5498 0.6031 -0.0348
v -0.1502 0.6794 -0.1829
v 0.1253 0.7321 -0.0455
v 0.0010 0.7083 0.2400
v -0.3986 0.6320 0.3881
v -0.6891 0.6579 0.2507
v -0.5648 0.6817 -0.0348
v -0.1652 0.7580 -0.1829
v 0.1103 0.8106 -0.0455
v -0.0140 0.7869 0.2400
v -0.4137 0.7106 0.3881
v -0.2969 0.7736 0.1026
v -0.2969 0.7736 0.1026
v -0.2969 0.7736 0.1026
v -0.2969 0.7736 0.1026
v -0.2969 0.7736 0.1026
v -0.2969 0.7736 0.1026
v -0.5307 0.6762 -0.1881
v -0.5307 0.6762 -0.1881
v -0.5307 0.6762 -0.1881
v -0.5307 0.6762 -0.1881
v -0.5307 0.6762 -0.1881
v -0.5307 0.6762 -0.1881
v -0.9245 0.7863 -0.3362
v -0.6484 0.7376 -0.4736
v -0.2476 0.6669 -0.3255
v -0.1231 0.6449 -0.0400
v -0.3992 0.6936 0.0974
v -0.7999 0.7644 -0.0507
v -0.9106 0.8651 -0.3362
v -0.6344 0.8164 -0.4736
v -0.2337 0.7456 -0.3255
v -0.1092 0.7237 -0.0400
v -0.3853 0.7724 0.0974
v -0.7860 0.8431 -0.0507
v -0.5029 0.8338 -0.1881
v -0.5029 0.8338 -0.1881
v -0.5029 0.8338 -0.1881
v -0.5029 0.8338 -0.1881
v -0.5029 0.8338 -0.1881
v -0.5029 0.8338 -0.1881
v -0.1570 0.5553 -0.2598
v -0.1570 0.5553 -0.2598
v -0.1570 0.5553 -0.2598
v -0.1570 0.5553 -0.2598
v -0.1570 0.5553 -0.2598
v -0.1570 0.5553 -0.2598
v -0.3692 0.6141 -0.6348
v -0.0672 0.5876 -0.5598
v 0.1484 0.5686 -0.1848
v 0.0622 0.5762 0.1152
v -0.2398 0.6027 0.0402
v -0.4554 0.6217 -0.3348
v -0.3622 0.6938 -0.6348
v -0.0602 0.6673 -0.5598
v 0.1554 0.6483 -0.1848
v 0.0692 0.6559 0.1152
v -0.2328 0.6824 0.0402
v -0.4484 0.7014 -0.3348
v -0.1430 0.7147 -0.2598
v -0.1430 0.7147 -0.2598
v -0.1430 0.7147 -0.2598
v -0.1430 0.7147 -0.2598
v -0.1430 0.7147 -0.2598
v -0.1430 0.7147 -0.2598
v 0.1118 0.6167 -0.5416
v 0.1118 0.6167 -0.5416
v 0.1118 0.6167 -0.5416
v 0.1118 0.6167 -0.5416
v 0.1118 0.6167 -0.5416
v 0.1118 0.6167 -0.5416
v 0.1773 0.6712 -0.9681
v 0.3574 0.7087 -0.7158
v 0.2838 0.6934 -0.2894
v 0.0301 0.6405 -0.1152
v -0.1501 0.6030 -0.3675
v -0.0765 0.6183 -0.7939
v 0.1610 0.7495 -0.9681
v 0.3411 0.7870 -0.7158
v 0.2675 0.7717 -0.2894
v 0.0137 0.7188 -0.1152
v -0.1664 0.6813 -0.3675
v -0.0928 0.6966 -0.7939
v 0.0792 0.7733 -0.5416
v 0.0792 0.7733 -0.5416
v 0.0792 0.7733 -0.5416
v 0.0792 0.7733 -0.5416
v 0.0792 0.7733 -0.5416
v 0.0792 0.7733 -0.5416
v 0.2155 0.6763 -0.1928
v 0.2155 0.6763 -0.1928
v 0.2155 0.6763 -0.1928
v 0.2155 0.6763 -0.1928
v 0.2155 0.6763 -0.1928
v 0.2155 0.6763 -0.1928
v 0.5491 0.6564 -0.4712
v 0.5282 0.6602 -0.1596
v 0.2018 0.7194 0.1187
v -0.1037 0.7748 0.0855
v -0.0828 0.7711 -0.2260
v 0.2436 0.7119 -0.5044
v 0.5633 0.7352 -0.4712
v 0.5424 0.7389 -0.1596
v 0.2161 0.7981 0.1187
v -0.0894 0.8536 0.0855
v -0.0685 0.8498 -0.2260
v 0.2578 0.7906 -0.5044
v 0.2441 0.8337 -0.1928
v 0.2441 0.8337 -0.1928
v 0.2441 0.8337 -0.1928
v 0.2441 0.8337 -0.1928
v 0.2441 0.8337 -0.1928
v 0.2441 0.8337 -0.1928
v -0.1000 0.5950 0.1000
v -0.1000 0.5950 0.1000
v -0.1000 0.5950 0.1000
v -0.1000 0.5950 0.1000
v -0.1000 0.5950 0.1000
v -0.1000 0.5950 0.1000
v -0.1000 0.5950 0.1000
v 0.0344 0.6506 0.1000
v -0.0162 0.6506 0.2050
v -0.1299 0.6506 0.2310
v -0.2210 0.6506 0.1583
v -0.2210 0.6506 0.0417
v -0.1299 0.6506 -0.0310
v -0.0162 0.6506 -0.0050
v 0.0900 0.7850 0.1000
v 0.0185 0.7850 0.2485
v -0.1423 0.7850 0.2852
v -0.2712 0.7850 0.1824
v -0.2712 0.7850 0.0176
v -0.1423 0.7850 -0.0852
v 0.0185 0.7850 -0.0485
v 0.0344 0.9194 0.1000
v -0.0162 0.9194 0.2050
v -0.1299 0.9194 0.2310
v -0.2210 0.9194 0.1583
v -0.2210 0.9194 0.0417
v -0.1299 0.9194 -0.0310
v -0.0162 0.9194 -0.0050
v -0.1000 0.9750 0.1000
v -0.1000 0.9750 0.1000
v -0.1000 0.9750 0.1000
v -0.1000 0.9750 0.1000
v -0.1000 0.9750 0.1000
v -0.1000 0.9750 0.1000
v -0.1000 0.9750 0.1000
v 0.3500 0.5950 0.2000
v 0.3500 0.5950 0.2000
v 0.3500 0.5950 0.2000
v 0.3500 0.5950 0.2000
v 0.3500 0.5950 0.2000
v 0.3500 0.5950 0.2000
v 0.3500 0.5950 0.2000
v 0.4844 0.6506 0.2000
v 0.4338 0.6506 0.3050
v 0.3201 0.6506 0.3310
v 0.2290 0.6506 0.2583
v 0.2290 0.6506 0.1417
v 0.3201 0.6506 0.0690
v 0.4338 0.6506 0.0950
v 0.5400 0.7850 0.2000
v 0.4685 0.7850 0.3485
v 0.3077 0.7850 0.3852
v 0.1788 0.7850 0.2824
v 0.1788 0.7850 0.1176
v 0.3077 0.7850 0.0148
v 0.4685 0.7850 0.0515
v 0.4844 0.9194 0.2000
v 0.4338 0.9194 0.3050
v 0.3201 0.9194 0.3310
v 0.2290 0.9194 0.2583
v 0.2290 0.9194 0.1417
v 0.3201 0.9194 0.0690
v 0.4338 0.9194 0.0950
v 0.3500 0.9750 0.2000
v 0.3500 0.9750 0.2000
v 0.3500 0.9750 0.2000
v 0.3500 0.9750 0.2000
v 0.3500 0.9750 0.2000
v 0.3500 0.9750 0.2000
v 0.3500 0.9750 0.2000
v -0.3000 0.5950 -0.3000
v -0.3000 0.5950 -0.3000
v -0.3000 0.5950 -0.3000
v -0.3000 0.5950 -0.3000
v -0.3000 0.5950 -0.3000
v -0.3000 0.5950 -0.3000
v -0.3000 0.5950 -0.3000
v -0.1656 0.6506 -0.3000
v -0.2162 0.6506 -0.1950
v -0.3299 0.6506 -0.1690
v -0.4210 0.6506 -0.2417
v -0.4210 0.6506 -0.3583
v -0.3299 0.6506 -0.4310
v -0.2162 0.6506 -0.4050
v -0.1100 0.7850 -0.3000
v -0.1815 0.7850 -0.1515
v -0.3423 0.7850 -0.1148
v -0.4712 0.7850 -0.2176
v -0.4712 0.7850 -0.3824
v -0.3423 0.7850 -0.4852
v -0.1815 0.7850 -0.4485
v -0.1656 0.9194 -0.3000
v -0.2162 0.9194 -0.1950
v -0.3299 0.9194 -0.1690
v -0.4210 0.9194 -0.2417
v -0.4210 0.9194 -0.3583
v -0.3299 0.9194 -0.4310
v -0.2162 0.9194 -0.4050
v -0.3000 0.9750 -0.3000
v -0.3000 0.9750 -0.3000
v -0.3000 0.9750 -0.3000
v -0.3000 0.9750 -0.3000
v -0.3000 0.9750 -0.3000
v -0.3000 0.9750 -0.3000
v -0.3000 0.9750 -0.3000
v 0.4000 0.7350 -0.3000
v 0.3414 0.6866 -0.1671
v 0.2000 0.6666 -0.1121
v 0.0586 0.6866 -0.1671
v 0.0000 0.7350 -0.3000
v 0.0586 0.7834 -0.4329
v 0.2000 0.8034 -0.4879
v 0.3414 0.7834 -0.4329
v 0.4000 0.7914 -0.2795
v 0.3414 0.7430 -0.1466
v 0.2000 0.7230 -0.0915
v 0.0586 0.7430 -0.1466
v 0.0000 0.7914 -0.2795
v 0.0586 0.8398 -0.4124
v 0.2000 0.8598 -0.4674
v 0.3414 0.8398 -0.4124
v 0.2000 0.7350 -0.3000
v 0.2000 0.7914 -0.2795
v -0.2000 0.7350 0.3000
v -0.2586 0.6866 0.4329
v -0.4000 0.6666 0.4879
v -0.5414 0.6866 0.4329
v -0.6000 0.7350 0.3000
v -0.5414 0.7834 0.1671
v -0.4000 0.8034 0.1121
v -0.2586 0.7834 0.1671
v -0.2000 0.7914 0.3205
v -0.2586 0.7430 0.4534
v -0.4000 0.7230 0.5085
v -0.5414 0.7430 0.4534
v -0.6000 0.7914 0.3205
v -0.5414 0.8398 0.1876
v -0.4000 0.8598 0.1326
v -0.2586 0.8398 0.1876
v -0.4000 0.7350 0.3000
v -0.4000 0.7914 0.3205
v 0.2933 0.8350 0.3220
v 0.2933 0.8350 0.3220
v 0.2933 0.8350 0.3220
v 0.2933 0.8350 0.3220
v 0.3433 0.8850 0.3220
v 0.2933 0.8850 0.3720
v 0.2433 0.8850 0.3220
v 0.2933 0.8850 0.2720
v 0.2933 0.9350 0.3220
v 0.2933 0.9350 0.3220
v 0.2933 0.9350 0.3220
v 0.2933 0.9350 0.3220
v -0.0150 0.8350 -0.2384
v -0.0150 0.8350 -0.2384
v -0.0150 0.8350 -0.2384
v -0.0150 0.8350 -0.2384
v 0.0350 0.8850 -0.2384
v -0.0150 0.8850 -0.1884
v -0.0650 0.8850 -0.2384
v -0.0150 0.8850 -0.2884
v -0.0150 0.9350 -0.2384
v -0.0150 0.9350 -0.2384
v -0.0150 0.9350 -0.2384
v -0.0150 0.9350 -0.2384
v -0.4995 0.8350 0.1628
v -0.4995 0.8350 0.1628
v -0.4995 0.8350 0.1628
v -0.4995 0.8350 0.1628
v -0.4495 0.8850 0.1628
v -0.4995 0.8850 0.2128
v -0.5495 0.8850 0.1628
v -0.4995 0.8850 0.1128
v -0.4995 0.9350 0.1628
v -0.4995 0.9350 0.1628
v -0.4995 0.9350 0.1628
v -0.4995 0.9350 0.1628
v -0.0297 0.8350 0.2597
v -0.0297 0.8350 0.2597
v -0.0297 0.8350 0.2597
v -0.0297 0.8350 0.2597
v 0.0203 0.8850 0.2597
v -0.0297 0.8850 0.3097
v -0.0797 0.8850 0.2597
v -0.0297 0.8850 0.2097
v -0.0297 0.9350 0.2597
v -0.0297 0.9350 0.2597
v -0.0297 0.9350 0.2597
v -0.0297 0.9350 0.2597
v -0.1268 0.8350 0.2701
v -0.1268 0.8350 0.2701
v -0.1268 0.8350 0.2701
v -0.1268 0.8350 0.2701
v -0.0768 0.8850 0.2701
v -0.1268 0.8850 0.3201
v -0.1768 0.8850 0.2701
v -0.1268 0.8850 0.2201
v -0.1268 0.9350 0.2701
v -0.1268 0.9350 0.2701
v -0.1268 0.9350 0.2701
v -0.1268 0.9350 0.2701
vn 0.0000 1.0000 0.0000
vn 0.0000 1.0000 0.0000
vn 0.0000 1.0000 0.0000
vn 0.0000 1.0000 -0.0000
vn 0.0000 1.0000 0.0000
vn 0.0000 1.0000 0.0000
vn 0.0000 1.0000 0.0000
vn 0.0000 1.0000 0.0000
vn 0.0000 1.0000 0.0000
vn 0.0000 1.0000 0.0000
vn 0.0000 1.0000 0.0000
vn -0.0000 1.0000 0.0000
vn -0.5247 0.8396 -0.1406
vn -0.5247 0.8396 -0.1406
vn -0.3841 0.8396 -0.3841
vn -0.3841 0.8396 -0.3841
vn -0.1406 0.8396 -0.5247
vn -0.1406 0.8396 -0.5247
vn 0.1406 0.8396 -0.5247
vn 0.1406 0.8396 -0.5247
vn 0.3841 0.8396 -0.3841
vn 0.3841 0.8396 -0.3841
vn 0.5247 0.8396 -0.1406
vn 0.5247 0.8396 -0.1406
vn 0.5247 0.8396 0.1406
vn 0.5247 0.8396 0.1406
vn 0.3841 0.8396 0.3841
vn 0.3841 0.8396 0.3841
vn 0.1406 0.8396 0.5247
vn 0.1406 0.8396 0.5247
vn -0.1406 0.8396 0.5247
vn -0.1406 0.8396 0.5247
vn -0.3841 0.8396 0.3841
vn -0.3841 0.8396 0.3841
vn -0.5247 0.8396 0.1406
vn -0.5247 0.8396 0.1406
vn -0.6310 0.7572 -0.1691
vn -0.6310 0.7572 -0.1691
vn -0.4619 0.7572 -0.4619
vn -0.4619 0.7572 -0.4619
vn -0.1691 0.7572 -0.6310
vn -0.1691 0.7572 -0.6310
vn 0.1691 0.7572 -0.6310
vn 0.1691 0.7572 -0.6310
vn 0.4619 0.7572 -0.4619
vn 0.4619 0.7572 -0.4619
vn 0.6310 0.7572 -0.1691
vn 0.6310 0.7572 -0.1691
vn 0.6310 0.7572 0.1691
vn 0.6310 0.7572 0.1691
vn 0.4619 0.7572 0.4619
vn 0.4619 0.7572 0.4619
vn 0.1691 0.7572 0.6310
vn 0.1691 0.7572 0.6310
vn -0.1691 0.7572 0.6310
vn -0.1691 0.7572 0.6310
vn -0.4619 0.7572 0.4619
vn -0.4619 0.7572 0.4619
vn -0.6310 0.7572 0.1691
vn -0.6310 0.7572 0.1691
vn -0.8876 0.3945 -0.2378
vn -0.8876 0.3945 -0.2378
vn -0.6498 0.3945 -0.6498
vn -0.6498 0.3945 -0.6498
vn -0.2378 0.3945 -0.8876
vn -0.2378 0.3945 -0.8876
vn 0.2378 0.3945 -0.8876
vn 0.2378 0.3945 -0.8876
vn 0.6498 0.3945 -0.6498
vn 0.6498 0.3945 -0.6498
vn 0.8876 0.3945 -0.2378
vn 0.8876 0.3945 -0.2378
vn 0.8876 0.3945 0.2378
vn 0.8876 0.3945 0.2378
vn 0.6498 0.3945 0.6498
vn 0.6498 0.3945 0.6498
vn 0.2378 0.3945 0.8876
vn 0.2378 0.3945 0.8876
vn -0.2378 0.3945 0.8876
vn -0.2378 0.3945 0.8876
vn -0.6498 0.3945 0.6498
vn -0.6498 0.3945 0.6498
vn -0.8876 0.3945 0.2378
vn -0.8876 0.3945 0.2378
vn 0.0000 1.0000 0.0000
vn 0.0000 1.0000 -0.0000
vn 0.0000 1.0000 0.0000
vn 0.0000 1.0000 -0.0000
vn 0.0000 1.0000 0.0000
vn 0.0000 1.0000 -0.0000
vn 0.0000 1.0000 0.0000
vn 0.0000 1.0000 -0.0000
vn 0.0000 1.0000 0.0000
vn 0.0000 1.0000 0.0000
vn 0.0000 1.0000 0.0000
vn 0.0000 1.0000 0.0000
vn 0.0000 1.0000 0.0000
vn 0.0000 1.0000 0.0000
vn 0.0000 1.0000 0.0000
vn 0.0000 1.0000 0.0000
vn 0.0000 1.0000 0.0000
vn 0.0000 1.0000 0.0000
vn 0.0000 1.0000 0.0000
vn -0.0000 1.0000 0.0000
vn 0.0000 1.0000 0.0000
vn -0.0000 1.0000 0.0000
vn 0.0000 1.0000 0.0000
vn -0.0000 1.0000 0.0000
vn -0.9659 0.0000 -0.2588
vn -0.9659 0.0000 -0.2588
vn -0.7071 0.0000 -0.7071
vn -0.7071 0.0000 -0.7071
vn -0.2588 0.0000 -0.9659
vn -0.2588 0.0000 -0.9659
vn 0.2588 0.0000 -0.9659
vn 0.2588 0.0000 -0.9659
vn 0.7071 0.0000 -0.7071
vn 0.7071 0.0000 -0.7071
vn 0.9659 0.0000 -0.2588
vn 0.9659 0.0000 -0.2588
vn 0.9659 0.0000 0.2588
vn 0.9659 -0.0000 0.2588
vn 0.7071 0.0000 0.7071
vn 0.7071 -0.0000 0.7071
vn 0.2588 0.0000 0.9659
vn 0.2588 -0.0000 0.9659
vn -0.2588 0.0000 0.9659
vn -0.2588 0.0000 0.9659
vn -0.7071 0.0000 0.7071
vn -0.7071 0.0000 0.7071
vn -0.9659 0.0000 0.2588
vn -0.9659 0.0000 0.2588
vn 0.0000 -1.0000 0.0000
vn 0.0000 -1.0000 0.0000
vn 0.0000 -1.0000 0.0000
vn -0.0000 -1.0000 0.0000
vn 0.0000 -1.0000 0.0000
vn -0.0000 -1.0000 0.0000
vn 0.0000 -1.0000 0.0000
vn 0.0000 -1.0000 0.0000
vn 0.0000 -1.0000 0.0000
vn 0.0000 -1.0000 -0.0000
vn 0.0000 -1.0000 0.0000
vn 0.0000 -1.0000 -0.0000
vn 0.0000 -1.0000 0.0000
vn 0.0000 -1.0000 0.0000
vn 0.0000 -1.0000 0.0000
vn 0.0000 -1.0000 0.0000
vn 0.0000 -1.0000 0.0000
vn 0.0000 -1.0000 0.0000
vn 0.0000 -1.0000 0.0000
vn 0.0000 -1.0000 0.0000
vn 0.0000 -1.0000 0.0000
vn 0.0000 -1.0000 0.0000
vn 0.0000 -1.0000 0.0000
vn 0.0000 -1.0000 0.0000
vn 0.9659 0.0000 0.2588
vn 0.9659 0.0000 0.2588
vn 0.7071 0.0000 0.7071
vn 0.7071 0.0000 0.7071
vn 0.2588 0.0000 0.9659
vn 0.2588 0.0000 0.9659
vn -0.2588 0.0000 0.9659
vn -0.2588 0.0000 0.9659
vn -0.7071 0.0000 0.7071
vn -0.7071 0.0000 0.7071
vn -0.9659 0.0000 0.2588
vn -0.9659 0.0000 0.2588
vn -0.9659 0.0000 -0.2588
vn -0.9659 -0.0000 -0.2588
vn -0.7071 0.0000 -0.7071
vn -0.7071 -0.0000 -0.7071
vn -0.2588 0.0000 -0.9659
vn -0.2588 -0.0000 -0.9659
vn 0.2588 0.0000 -0.9659
vn 0.2588 0.0000 -0.9659
vn 0.7071 0.0000 -0.7071
vn 0.7071 0.0000 -0.7071
vn 0.9659 0.0000 -0.2588
vn 0.9659 0.0000 -0.2588
vn 0.8607 -0.4540 0.2306
vn 0.8607 -0.4540 0.2306
vn 0.6300 -0.4540 0.6300
vn 0.6300 -0.4540 0.6300
vn 0.2306 -0.4540 0.8607
vn 0.2306 -0.4540 0.8607
vn -0.2306 -0.4540 0.8607
vn -0.2306 -0.4540 0.8607
vn -0.6300 -0.4540 0.6300
vn -0.6300 -0.4540 0.6300
vn -0.8607 -0.4540 0.2306
vn -0.8607 -0.4540 0.2306
vn -0.8607 -0.4540 -0.2306
vn -0.8607 -0.4540 -0.2306
vn -0.6300 -0.4540 -0.6300
vn -0.6300 -0.4540 -0.6300
vn -0.2306 -0.4540 -0.8607
vn -0.2306 -0.4540 -0.8607
vn 0.2306 -0.4540 -0.8607
vn 0.2306 -0.4540 -0.8607
vn 0.6300 -0.4540 -0.6300
vn 0.6300 -0.4540 -0.6300
vn 0.8607 -0.4540 -0.2306
vn 0.8607 -0.4540 -0.2306
vn 0.0995 -0.9947 0.0267
vn 0.0728 -0.9947 0.0728
vn 0.0267 -0.9947 0.0995
vn -0.0267 -0.9947 0.0995
vn -0.0728 -0.9947 0.0728
vn -0.0995 -0.9947 0.0267
vn -0.0995 -0.9947 -0.0267
vn -0.0728 -0.9947 -0.0728
vn -0.0267 -0.9947 -0.0995
vn 0.0267 -0.9947 -0.0995
vn 0.0728 -0.9947 -0.0728
vn 0.0995 -0.9947 -0.0267
vn 0.0313 0.9956 -0.0882
vn 0.1214 0.9771 -0.1750
vn 0.2132 0.9730 -0.0882
vn 0.2132 0.9730 0.0882
vn 0.1214 0.9771 0.1750
vn 0.0313 0.9956 0.0882
vn -0.7151 0.0888 -0.6934
vn -0.7151 0.0888 -0.6934
vn 0.0000 0.0000 -1.0000
vn -0.0000 0.0000 -1.0000
vn 0.7151 -0.0888 -0.6934
vn 0.7151 -0.0888 -0.6934
vn 0.7151 -0.0888 0.6934
vn 0.7151 -0.0888 0.6934
vn 0.0000 0.0000 1.0000
vn 0.0000 0.0000 1.0000
vn -0.7151 0.0888 0.6934
vn -0.7151 0.0888 0.6934
vn -0.2132 -0.9730 -0.0882
vn -0.1214 -0.9771 -0.1750
vn -0.0313 -0.9956 -0.0882
vn -0.0313 -0.9956 0.0882
vn -0.1214 -0.9771 0.1750
vn -0.2132 -0.9730 0.0882
vn 0.0512 0.9907 -0.1264
vn 0.1765 0.9751 -0.1341
vn 0.1913 0.9815 -0.0086
vn 0.0782 0.9889 0.1264
vn -0.0480 0.9898 0.1341
vn -0.0619 0.9980 0.0086
vn -0.1061 0.0069 -0.9943
vn -0.1061 0.0069 -0.9943
vn 0.6414 -0.0419 -0.7660
vn 0.6414 -0.0419 -0.7660
vn 0.9956 -0.0651 -0.0680
vn 0.9956 -0.0651 -0.0680
vn 0.1061 -0.0069 0.9943
vn 0.1061 -0.0069 0.9943
vn -0.6414 0.0419 0.7660
vn -0.6414 0.0419 0.7660
vn -0.9956 0.0651 0.0680
vn -0.9956 0.0651 0.0680
vn -0.0782 -0.9889 -0.1264
vn 0.0480 -0.9898 -0.1341
vn 0.0619 -0.9980 -0.0086
vn -0.0512 -0.9907 0.1264
vn -0.1765 -0.9751 0.1341
vn -0.1913 -0.9815 0.0086
vn 0.3212 0.9411 -0.1055
vn 0.4175 0.9082 -0.0304
vn 0.3520 0.9330 0.0749
vn 0.1841 0.9772 0.1055
vn 0.0841 0.9960 0.0304
vn 0.1533 0.9853 -0.0749
vn 0.5393 -0.1421 -0.8300
vn 0.5393 -0.1421 -0.8300
vn 0.9523 -0.2508 -0.1736
vn 0.9523 -0.2508 -0.1736
vn 0.7813 -0.2058 0.5892
vn 0.7813 -0.2058 0.5892
vn -0.5393 0.1421 0.8300
vn -0.5393 0.1421 0.8300
vn -0.9523 0.2508 0.1736
vn -0.9523 0.2508 0.1736
vn -0.7813 0.2058 -0.5892
vn -0.7813 0.2058 -0.5892
vn -0.1841 -0.9772 -0.1055
vn -0.0841 -0.9960 -0.0304
vn -0.1533 -0.9853 0.0749
vn -0.3212 -0.9411 0.1055
vn -0.4175 -0.9082 0.0304
vn -0.3520 -0.9330 -0.0749
vn 0.1832 0.9824 -0.0353
vn 0.2121 0.9733 0.0875
vn 0.0918 0.9881 0.1234
vn -0.0606 0.9975 0.0353
vn -0.0905 0.9920 -0.0875
vn 0.0308 0.9919 -0.1234
vn 0.9589 -0.0594 -0.2774
vn 0.9589 -0.0594 -0.2774
vn 0.8644 -0.0535 0.5000
vn 0.8644 -0.0535 0.5000
vn 0.2397 -0.0148 0.9707
vn 0.2397 -0.0148 0.9707
vn -0.9589 0.0594 0.2774
vn -0.9589 0.0594 0.2774
vn -0.8644 0.0535 -0.5000
vn -0.8644 0.0535 -0.5000
vn -0.2397 0.0148 -0.9707
vn -0.2397 0.0148 -0.9707
vn 0.0606 -0.9975 -0.0353
vn 0.0905 -0.9920 0.0875
vn -0.0308 -0.9919 0.1234
vn -0.1832 -0.9824 0.0353
vn -0.2121 -0.9733 -0.0875
vn -0.0918 -0.9881 -0.1234
vn -0.0719 0.9961 0.0515
vn -0.1260 0.9783 0.1645
vn -0.2411 0.9638 0.1142
vn -0.3003 0.9524 -0.0515
vn -0.2436 0.9558 -0.1645
vn -0.1312 0.9848 -0.1142
vn 0.8980 0.1716 0.4051
vn 0.8980 0.1716 0.4051
vn 0.3359 0.0642 0.9397
vn 0.3359 0.0642 0.9397
vn -0.4322 -0.0826 0.8980
vn -0.4322 -0.0826 0.8980
vn -0.8980 -0.1716 -0.4051
vn -0.8980 -0.1716 -0.4051
vn -0.3359 -0.0642 -0.9397
vn -0.3359 -0.0642 -0.9397
vn 0.4322 0.0826 -0.8980
vn 0.4322 0.0826 -0.8980
vn 0.3003 -0.9524 0.0515
vn 0.2436 -0.9558 0.1645
vn 0.1312 -0.9848 0.1142
vn 0.0719 -0.9961 -0.0515
vn 0.1260 -0.9783 -0.1645
vn 0.2411 -0.9638 -0.1142
vn 0.2275 0.9671 0.1142
vn 0.1122 0.9800 0.1645
vn 0.0579 0.9970 0.0515
vn 0.1173 0.9865 -0.1142
vn 0.2301 0.9592 -0.1645
vn 0.2869 0.9566 -0.0515
vn 0.4333 -0.0765 0.8980
vn 0.4333 -0.0765 0.8980
vn -0.3368 0.0595 0.9397
vn -0.3368 0.0595 0.9397
vn -0.9003 0.1589 0.4051
vn -0.9003 0.1589 0.4051
vn -0.4333 0.0765 -0.8980
vn -0.4333 0.0765 -0.8980
vn 0.3368 -0.0595 -0.9397
vn 0.3368 -0.0595 -0.9397
vn 0.9003 -0.1589 -0.4051
vn 0.9003 -0.1589 -0.4051
vn -0.1173 -0.9865 0.1142
vn -0.2301 -0.9592 0.1645
vn -0.2869 -0.9566 0.0515
vn -0.2275 -0.9671 -0.1142
vn -0.1122 -0.9800 -0.1645
vn -0.0579 -0.9970 -0.0515
vn 0.0566 0.9907 0.1234
vn -0.0647 0.9941 0.0875
vn -0.0347 0.9988 -0.0353
vn 0.1174 0.9854 -0.1234
vn 0.2373 0.9675 -0.0875
vn 0.2087 0.9773 0.0353
vn -0.2393 0.0211 0.9707
vn -0.2393 0.0211 0.9707
vn -0.8627 0.0759 0.5000
vn -0.8627 0.0759 0.5000
vn -0.9571 0.0843 -0.2774
vn -0.9571 0.0843 -0.2774
vn 0.2393 -0.0211 -0.9707
vn 0.2393 -0.0211 -0.9707
vn 0.8627 -0.0759 -0.5000
vn 0.8627 -0.0759 -0.5000
vn 0.9571 -0.0843 0.2774
vn 0.9571 -0.0843 0.2774
vn -0.1174 -0.9854 0.1234
vn -0.2373 -0.9675 0.0875
vn -0.2087 -0.9773 -0.0353
vn -0.0566 -0.9907 -0.1234
vn 0.0647 -0.9941 -0.0875
vn 0.0347 -0.9988 0.0353
vn -0.3029 0.9501 0.0749
vn -0.3695 0.9287 -0.0304
vn -0.2717 0.9566 -0.1055
vn -0.1017 0.9920 -0.0749
vn -0.0320 0.9990 0.0304
vn -0.1329 0.9855 0.1055
vn -0.7910 -0.1648 0.5892
vn -0.7910 -0.1648 0.5892
vn -0.9641 -0.2008 -0.1736
vn -0.9641 -0.2008 -0.1736
vn -0.5460 -0.1137 -0.8300
vn -0.5460 -0.1137 -0.8300
vn 0.7910 0.1648 -0.5892
vn 0.7910 0.1648 -0.5892
vn 0.9641 0.2008 0.1736
vn 0.9641 0.2008 0.1736
vn 0.5460 0.1137 0.8300
vn 0.5460 0.1137 0.8300
vn 0.1017 -0.9920 0.0749
vn 0.0320 -0.9990 -0.0304
vn 0.1329 -0.9855 -0.1055
vn 0.3029 -0.9501 -0.0749
vn 0.3695 -0.9287 0.0304
vn 0.2717 -0.9566 0.1055
vn 0.0522 0.9986 -0.0086
vn 0.0650 0.9888 -0.1341
vn 0.1903 0.9735 -0.1264
vn 0.3019 0.9533 0.0086
vn 0.2864 0.9487 0.1341
vn 0.1637 0.9784 0.1264
vn -0.9817 0.1781 -0.0680
vn -0.9817 0.1781 -0.0680
vn -0.6325 0.1147 -0.7660
vn -0.6325 0.1147 -0.7660
vn 0.1046 -0.0190 -0.9943
vn 0.1046 -0.0190 -0.9943
vn 0.9817 -0.1781 0.0680
vn 0.9817 -0.1781 0.0680
vn 0.6325 -0.1147 0.7660
vn 0.6325 -0.1147 0.7660
vn -0.1046 0.0190 0.9943
vn -0.1046 0.0190 0.9943
vn -0.3019 -0.9533 -0.0086
vn -0.2864 -0.9487 -0.1341
vn -0.1637 -0.9784 -0.1264
vn -0.0522 -0.9986 0.0086
vn -0.0650 -0.9888 0.1341
vn -0.1903 -0.9735 0.1264
vn -0.3763 0.9086 -0.1812
vn -0.0929 0.9086 -0.4072
vn 0.2604 0.9086 -0.3266
vn 0.4177 0.9086 -0.0000
vn 0.2604 0.9086 0.3266
vn -0.0929 0.9086 0.4072
vn -0.3763 0.9086 0.1812
vn -0.8441 0.3496 -0.4065
vn -0.8441 0.3496 -0.4065
vn -0.2085 0.3496 -0.9134
vn -0.2085 0.3496 -0.9134
vn 0.5841 0.3496 -0.7325
vn 0.5841 0.3496 -0.7325
vn 0.9369 0.3496 -0.0000
vn 0.9369 0.3496 0.0000
vn 0.5841 0.3496 0.7325
vn 0.5841 0.3496 0.7325
vn -0.2085 0.3496 0.9134
vn -0.2085 0.3496 0.9134
vn -0.8441 0.3496 0.4065
vn -0.8441 0.3496 0.4065
vn -0.8441 -0.3496 -0.4065
vn -0.8441 -0.3496 -0.4065
vn -0.2085 -0.3496 -0.9134
vn -0.2085 -0.3496 -0.9134
vn 0.5841 -0.3496 -0.7325
vn 0.5841 -0.3496 -0.7325
vn 0.9369 -0.3496 0.0000
vn 0.9369 -0.3496 -0.0000
vn 0.5841 -0.3496 0.7325
vn 0.5841 -0.3496 0.7325
vn -0.2085 -0.3496 0.9134
vn -0.2085 -0.3496 0.9134
vn -0.8441 -0.3496 0.4065
vn -0.8441 -0.3496 0.4065
vn -0.3763 -0.9086 -0.1812
vn -0.0929 -0.9086 -0.4072
vn 0.2604 -0.9086 -0.3266
vn 0.4177 -0.9086 -0.0000
vn 0.2604 -0.9086 0.3266
vn -0.0929 -0.9086 0.4072
vn -0.3763 -0.9086 0.1812
vn -0.3763 0.9086 -0.1812
vn -0.0929 0.9086 -0.4072
vn 0.2604 0.9086 -0.3266
vn 0.4177 0.9086 -0.0000
vn 0.2604 0.9086 0.3266
vn -0.0929 0.9086 0.4072
vn -0.3763 0.9086 0.1812
vn -0.8441 0.3496 -0.4065
vn -0.8441 0.3496 -0.4065
vn -0.2085 0.3496 -0.9134
vn -0.2085 0.3496 -0.9134
vn 0.5841 0.3496 -0.7325
vn 0.5841 0.3496 -0.7325
vn 0.9369 0.3496 -0.0000
vn 0.9369 0.3496 -0.0000
vn 0.5841 0.3496 0.7325
vn 0.5841 0.3496 0.7325
vn -0.2085 0.3496 0.9134
vn -0.2085 0.3496 0.9134
vn -0.8441 0.3496 0.4065
vn -0.8441 0.3496 0.4065
vn -0.8441 -0.3496 -0.4065
vn -0.8441 -0.3496 -0.4065
vn -0.2085 -0.3496 -0.9134
vn -0.2085 -0.3496 -0.9134
vn 0.5841 -0.3496 -0.7325
vn 0.5841 -0.3496 -0.7325
vn 0.9369 -0.3496 -0.0000
vn 0.9369 -0.3496 -0.0000
vn 0.5841 -0.3496 0.7325
vn 0.5841 -0.3496 0.7325
vn -0.2085 -0.3496 0.9134
vn -0.2085 -0.3496 0.9134
vn -0.8441 -0.3496 0.4065
vn -0.8441 -0.3496 0.4065
vn -0.3763 -0.9086 -0.1812
vn -0.0929 -0.9086 -0.4072
vn 0.2604 -0.9086 -0.3266
vn 0.4177 -0.9086 -0.0000
vn 0.2604 -0.9086 0.3266
vn -0.0929 -0.9086 0.4072
vn -0.3763 -0.9086 0.1812
vn -0.3763 0.9086 -0.1812
vn -0.0929 0.9086 -0.4072
vn 0.2604 0.9086 -0.3266
vn 0.4177 0.9086 0.0000
vn 0.2604 0.9086 0.3266
vn -0.0929 0.9086 0.4072
vn -0.3763 0.9086 0.1812
vn -0.8441 0.3496 -0.4065
vn -0.8441 0.3496 -0.4065
vn -0.2085 0.3496 -0.9134
vn -0.2085 0.3496 -0.9134
vn 0.5841 0.3496 -0.7325
vn 0.5841 0.3496 -0.7325
vn 0.9369 0.3496 0.0000
vn 0.9369 0.3496 -0.0000
vn 0.5841 0.3496 0.7325
vn 0.5841 0.3496 0.7325
vn -0.2085 0.3496 0.9134
vn -0.2085 0.3496 0.9134
vn -0.8441 0.3496 0.4065
vn -0.8441 0.3496 0.4065
vn -0.8441 -0.3496 -0.4065
vn -0.8441 -0.3496 -0.4065
vn -0.2085 -0.3496 -0.9134
vn -0.2085 -0.3496 -0.9134
vn 0.5841 -0.3496 -0.7325
vn 0.5841 -0.3496 -0.7325
vn 0.9369 -0.3496 -0.0000
vn 0.9369 -0.3496 0.0000
vn 0.5841 -0.3496 0.7325
vn 0.5841 -0.3496 0.7325
vn -0.2085 -0.3496 0.9134
vn -0.2085 -0.3496 0.9134
vn -0.8441 -0.3496 0.4065
vn -0.8441 -0.3496 0.4065
vn -0.3763 -0.9086 -0.1812
vn -0.0929 -0.9086 -0.4072
vn 0.2604 -0.9086 -0.3266
vn 0.4177 -0.9086 0.0000
vn 0.2604 -0.9086 0.3266
vn -0.0929 -0.9086 0.4072
vn -0.3763 -0.9086 0.1812
vn -0.9239 0.1309 -0.3596
vn -0.9239 0.1309 -0.3596
vn -0.3827 0.3160 -0.8682
vn -0.3827 0.3160 -0.8682
vn 0.3827 0.3160 -0.8682
vn 0.3827 0.3160 -0.8682
vn 0.9239 0.1309 -0.3596
vn 0.9239 0.1309 -0.3596
vn 0.9239 -0.1309 0.3596
vn 0.9239 -0.1309 0.3596
vn 0.3827 -0.3160 0.8682
vn 0.3827 -0.3160 0.8682
vn -0.3827 -0.3160 0.8682
vn -0.3827 -0.3160 0.8682
vn -0.9239 -0.1309 0.3596
vn -0.9239 -0.1309 0.3596
vn 0.0000 -0.9397 -0.3420
vn -0.0000 -0.9397 -0.3420
vn 0.0000 -0.9397 -0.3420
vn -0.0000 -0.9397 -0.3420
vn -0.0000 -0.9397 -0.3420
vn -0.0000 -0.9397 -0.3420
vn 0.0000 -0.9397 -0.3420
vn 0.0000 -0.9397 -0.3420
vn 0.0000 -0.9397 -0.3420
vn 0.0000 -0.9397 -0.3420
vn -0.0000 -0.9397 -0.3420
vn -0.0000 -0.9397 -0.3420
vn -0.0000 -0.9397 -0.3420
vn -0.0000 -0.9397 -0.3420
vn -0.0000 -0.9397 -0.3420
vn 0.0000 -0.9397 -0.3420
vn -0.9239 0.1309 -0.3596
vn -0.9239 0.1309 -0.3596
vn -0.3827 0.3160 -0.8682
vn -0.3827 0.3160 -0.8682
vn 0.3827 0.3160 -0.8682
vn 0.3827 0.3160 -0.8682
vn 0.9239 0.1309 -0.3596
vn 0.9239 0.1309 -0.3596
vn 0.9239 -0.1309 0.3596
vn 0.9239 -0.1309 0.3596
vn 0.3827 -0.3160 0.8682
vn 0.3827 -0.3160 0.8682
vn -0.3827 -0.3160 0.8682
vn -0.3827 -0.3160 0.8682
vn -0.9239 -0.1309 0.3596
vn -0.9239 -0.1309 0.3596
vn 0.0000 -0.9397 -0.3420
vn -0.0000 -0.9397 -0.3420
vn 0.0000 -0.9397 -0.3420
vn -0.0000 -0.9397 -0.3420
vn -0.0000 -0.9397 -0.3420
vn -0.0000 -0.9397 -0.3420
vn 0.0000 -0.9397 -0.3420
vn 0.0000 -0.9397 -0.3420
vn 0.0000 -0.9397 -0.3420
vn 0.0000 -0.9397 -0.3420
vn -0.0000 -0.9397 -0.3420
vn -0.0000 -0.9397 -0.3420
vn -0.0000 -0.9397 -0.3420
vn -0.0000 -0.9397 -0.3420
vn 0.0000 -0.9397 -0.3420
vn 0.0000 -0.9397 -0.3420
vn -0.5774 0.5774 -0.5774
vn 0.5774 0.5774 -0.5774
vn 0.5774 0.5774 0.5774
vn -0.5774 0.5774 0.5774
vn -0.5774 -0.5774 -0.5774
vn 0.5774 -0.5774 -0.5774
vn 0.5774 -0.5774 0.5774
vn -0.5774 -0.5774 0.5774
vn -0.5774 0.5774 -0.5774
vn 0.5774 0.5774 -0.5774
vn 0.5774 0.5774 0.5774
vn -0.5774 0.5774 0.5774
vn -0.5774 -0.5774 -0.5774
vn 0.5774 -0.5774 -0.5774
vn 0.5774 -0.5774 0.5774
vn -0.5774 -0.5774 0.5774
vn -0.5774 0.5774 -0.5774
vn 0.5774 0.5774 -0.5774
vn 0.5774 0.5774 0.5774
vn -0.5774 0.5774 0.5774
vn -0.5774 -0.5774 -0.5774
vn 0.5774 -0.5774 -0.5774
vn 0.5774 -0.5774 0.5774
vn -0.5774 -0.5774 0.5774
vn -0.5774 0.5774 -0.5774
vn 0.5774 0.5774 -0.5774
vn 0.5774 0.5774 0.5774
vn -0.5774 0.5774 0.5774
vn -0.5774 -0.5774 -0.5774
vn 0.5774 -0.5774 -0.5774
vn 0.5774 -0.5774 0.5774
vn -0.5774 -0.5774 0.5774
vn -0.5774 0.5774 -0.5774
vn 0.5774 0.5774 -0.5774
vn 0.5774 0.5774 0.5774
vn -0.5774 0.5774 0.5774
vn -0.5774 -0.5774 -0.5774
vn 0.5774 -0.5774 -0.5774
vn 0.5774 -0.5774 0.5774
vn -0.5774 -0.5774 0.5774
usemtl c0
f 1//1 14//1 13//1
f 2//2 15//2 14//2
f 3//3 16//3 15//3
f 4//4 17//4 16//4
f 5//5 18//5 17//5
f 6//6 19//6 18//6
f 7//7 20//7 19//7
f 8//8 21//8 20//8
f 9//9 22//9 21//9
f 10//10 23//10 22//10
f 11//11 24//11 23//11
f 12//12 13//12 24//12
f 13//13 14//13 26//13
f 13//14 26//14 25//14
f 14//15 15//15 27//15
f 14//16 27//16 26//16
f 15//17 16//17 28//17
f 15//18 28//18 27//18
f 16//19 17//19 29//19
f 16//20 29//20 28//20
f 17//21 18//21 30//21
f 17//22 30//22 29//22
f 18//23 19//23 31//23
f 18//24 31//24 30//24
f 19//25 20//25 32//25
f 19//26 32//26 31//26
f 20//27 21//27 33//27
f 20//28 33//28 32//28
f 21//29 22//29 34//29
f 21//30 34//30 33//30
f 22//31 23//31 35//31
f 22//32 35//32 34//32
f 23//33 24//33 36//33
f 23//34 36//34 35//34
f 24//35 13//35 25//35
f 24//36 25//36 36//36
f 25//37 26//37 38//37
f 25//38 38//38 37//38
f 26//39 27//39 39//39
f 26//40 39//40 38//40
f 27//41 28//41 40//41
f 27//42 40//42 39//42
f 28//43 29//43 41//43
f 28//44 41//44 40//44
f 29//45 30//45 42//45
f 29//46 42//46 41//46
f 30//47 31//47 43//47
f 30//48 43//48 42//48
f 31//49 32//49 44//49
f 31//50 44//50 43//50
f 32//51 33//51 45//51
f 32//52 45//52 44//52
f 33//53 34//53 46//53
f 33//54 46//54 45//54
f 34//55 35//55 47//55
f 34//56 47//56 46//56
f 35//57 36//57 48//57
f 35//58 48//58 47//58
f 36//59 25//59 37//59
f 36//60 37//60 48//60
f 37//61 38//61 50//61
f 37//62 50//62 49//62
f 38//63 39//63 51//63
f 38//64 51//64 50//64
f 39//65 40//65 52//65
f 39//66 52//66 51//66
f 40//67 41//67 53//67
f 40//68 53//68 52//68
f 41//69 42//69 54//69
f 41//70 54//70 53//70
f 42//71 43//71 55//71
f 42//72 55//72 54//72
f 43//73 44//73 56//73
f 43//74 56//74 55//74
f 44//75 45//75 57//75
f 44//76 57//76 56//76
f 45//77 46//77 58//77
f 45//78 58//78 57//78
f 46//79 47//79 59//79
f 46//80 59//80 58//80
f 47//81 48//81 60//81
f 47//82 60//82 59//82
f 48//83 37//83 49//83
f 48//84 49//84 60//84
usemtl c1
f 61//85 62//85 74//85
f 61//86 74//86 73//86
f 62//87 63//87 75//87
f 62//88 75//88 74//88
f 63//89 64//89 76//89
f 63//90 76//90 75//90
f 64//91 65//91 77//91
f 64//92 77//92 76//92
f 65//93 66//93 78//93
f 65//94 78//94 77//94
f 66//95 67//95 79//95
f 66//96 79//96 78//96
f 67//97 68//97 80//97
f 67//98 80//98 79//98
f 68//99 69//99 81//99
f 68//100 81//100 80//100
f 69//101 70//101 82//101
f 69//102 82//102 81//102
f 70//103 71//103 83//103
f 70//104 83//104 82//104
f 71//105 72//105 84//105
f 71//106 84//106 83//106
f 72//107 61//107 73//107
f 72//108 73//108 84//108
f 73//109 74//109 86//109
f 73//110 86//110 85//110
f 74//111 75//111 87//111
f 74//112 87//112 86//112
f 75//113 76//113 88//113
f 75//114 88//114 87//114
f 76//115 77//115 89//115
f 76//116 89//116 88//116
f 77//117 78//117 90//117
f 77//118 90//118 89//118
f 78//119 79//119 91//119
f 78//120 91//120 90//120
f 79//121 80//121 92//121
f 79//122 92//122 91//122
f 80//123 81//123 93//123
f 80//124 93//124 92//124
f 81//125 82//125 94//125
f 81//126 94//126 93//126
f 82//127 83//127 95//127
f 82//128 95//128 94//128
f 83//129 84//129 96//129
f 83//130 96//130 95//130
f 84//131 73//131 85//131
f 84//132 85//132 96//132
f 85//133 86//133 98//133
f 85//134 98//134 97//134
f 86//135 87//135 99//135
f 86//136 99//136 98//136
f 87//137 88//137 100//137
f 87//138 100//138 99//138
f 88//139 89//139 101//139
f 88//140 101//140 100//140
f 89//141 90//141 102//141
f 89//142 102//142 101//142
f 90//143 91//143 103//143
f 90//144 103//144 102//144
f 91//145 92//145 104//145
f 91//146 104//146 103//146
f 92//147 93//147 105//147
f 92//148 105//148 104//148
f 93//149 94//149 106//149
f 93//150 106//150 105//150
f 94//151 95//151 107//151
f 94//152 107//152 106//152
f 95//153 96//153 108//153
f 95//154 108//154 107//154
f 96//155 85//155 97//155
f 96//156 97//156 108//156
f 97//157 98//157 62//157
f 97//158 62//158 61//158
f 98//159 99//159 63//159
f 98//160 63//160 62//160
f 99//161 100//161 64//161
f 99//162 64//162 63//162
f 100//163 101//163 65//163
f 100//164 65//164 64//164
f 101//165 102//165 66//165
f 101//166 66//166 65//166
f 102//167 103//167 67//167
f 102//168 67//168 66//168
f 103//169 104//169 68//169
f 103//170 68//170 67//170
f 104//171 105//171 69//171
f 104//172 69//172 68//172
f 105//173 106//173 70//173
f 105//174 70//174 69//174
f 106//175 107//175 71//175
f 106//176 71//176 70//176
f 107//177 108//177 72//177
f 107//178 72//178 71//178
f 108//179 97//179 61//179
f 108//180 61//180 72//180
usemtl c2
f 109//181 110//181 122//181
f 109//182 122//182 121//182
f 110//183 111//183 123//183
f 110//184 123//184 122//184
f 111//185 112//185 124//185
f 111//186 124//186 123//186
f 112//187 113//187 125//187
f 112//188 125//188 124//188
f 113//189 114//189 126//189
f 113//190 126//190 125//190
f 114//191 115//191 127//191
f 114//192 127//192 126//192
f 115//193 116//193 128//193
f 115//194 128//194 127//194
f 116//195 117//195 129//195
f 116//196 129//196 128//196
f 117//197 118//197 130//197
f 117//198 130//198 129//198
f 118//199 119//199 131//199
f 118//200 131//200 130//200
f 119//201 120//201 132//201
f 119//202 132//202 131//202
f 120//203 109//203 121//203
f 120//204 121//204 132//204
f 121//205 122//205 134//205
f 122//206 123//206 135//206
f 123//207 124//207 136//207
f 124//208 125//208 137//208
f 125//209 126//209 138//209
f 126//210 127//210 139//210
f 127//211 128//211 140//211
f 128//212 129//212 141//212
f 129//213 130//213 142//213
f 130//214 131//214 143//214
f 131//215 132//215 144//215
f 132//216 121//216 133//216
usemtl c3
f 145//217 152//217 151//217
f 146//218 153//218 152//218
f 147//219 154//219 153//219
f 148//220 155//220 154//220
f 149//221 156//221 155//221
f 150//222 151//222 156//222
f 151//223 152//223 158//223
f 151//224 158//224 157//224
f 152//225 153//225 159//225
f 152//226 159//226 158//226
f 153//227 154//227 160//227
f 153//228 160//228 159//228
f 154//229 155//229 161//229
f 154//230 161//230 160//230
f 155//231 156//231 162//231
f 155//232 162//232 161//232
f 156//233 151//233 157//233
f 156//234 157//234 162//234
f 157//235 158//235 164//235
f 158//236 159//236 165//236
f 159//237 160//237 166//237
f 160//238 161//238 167//238
f 161//239 162//239 168//239
f 162//240 157//240 163//240
usemtl c4
f 169//241 176//241 175//241
f 170//242 177//242 176//242
f 171//243 178//243 177//243
f 172//244 179//244 178//244
f 173//245 180//245 179//245
f 174//246 175//246 180//246
f 175//247 176//247 182//247
f 175//248 182//248 181//248
f 176//249 177//249 183//249
f 176//250 183//250 182//250
f 177//251 178//251 184//251
f 177//252 184//252 183//252
f 178//253 179//253 185//253
f 178//254 185//254 184//254
f 179//255 180//255 186//255
f 179//256 186//256 185//256
f 180//257 175//257 181//257
f 180//258 181//258 186//258
f 181//259 182//259 188//259
f 182//260 183//260 189//260
f 183//261 184//261 190//261
f 184//262 185//262 191//262
f 185//263 186//263 192//263
f 186//264 181//264 187//264
usemtl c3
f 193//265 200//265 199//265
f 194//266 201//266 200//266
f 195//267 202//267 201//267
f 196//268 203//268 202//268
f 197//269 204//269 203//269
f 198//270 199//270 204//270
f 199//271 200//271 206//271
f 199//272 206//272 205//272
f 200//273 201//273 207//273
f 200//274 207//274 206//274
f 201//275 202//275 208//275
f 201//276 208//276 207//276
f 202//277 203//277 209//277
f 202//278 209//278 208//278
f 203//279 204//279 210//279
f 203//280 210//280 209//280
f 204//281 199//281 205//281
f 204//282 205//282 210//282
f 205//283 206//283 212//283
f 206//284 207//284 213//284
f 207//285 208//285 214//285
f 208//286 209//286 215//286
f 209//287 210//287 216//287
f 210//288 205//288 211//288
f 217//289 224//289 223//289
f 218//290 225//290 224//290
f 219//291 226//291 225//291
f 220//292 227//292 226//292
f 221//293 228//293 227//293
f 222//294 223//294 228//294
f 223//295 224//295 230//295
f 223//296 230//296 229//296
f 224//297 225//297 231//297
f 224//298 231//298 230//298
f 225//299 226//299 232//299
f 225//300 232//300 231//300
f 226//301 227//301 233//301
f 226//302 233//302 232//302
f 227//303 228//303 234//303
f 227//304 234//304 233//304
f 228//305 223//305 229//305
f 228//306 229//306 234//306
f 229//307 230//307 236//307
f 230//308 231//308 237//308
f 231//309 232//309 238//309
f 232//310 233//310 239//310
f 233//311 234//311 240//311
f 234//312 229//312 235//312
usemtl c5
f 241//313 248//313 247//313
f 242//314 249//314 248//314
f 243//315 250//315 249//315
f 244//316 251//316 250//316
f 245//317 252//317 251//317
f 246//318 247//318 252//318
f 247//319 248//319 254//319
f 247//320 254//320 253//320
f 248//321 249//321 255//321
f 248//322 255//322 254//322
f 249//323 250//323 256//323
f 249//324 256//324 255//324
f 250//325 251//325 257//325
f 250//326 257//326 256//326
f 251//327 252//327 258//327
f 251//328 258//328 257//328
f 252//329 247//329 253//329
f 252//330 253//330 258//330
f 253//331 254//331 260//331
f 254//332 255//332 261//332
f 255//333 256//333 262//333
f 256//334 257//334 263//334
f 257//335 258//335 264//335
f 258//336 253//336 259//336
usemtl c3
f 265//337 272//337 271//337
f 266//338 273//338 272//338
f 267//339 274//339 273//339
f 268//340 275//340 274//340
f 269//341 276//341 275//341
f 270//342 271//342 276//342
f 271//343 272//343 278//343
f 271//344 278//344 277//344
f 272//345 273//345 279//345
f 272//346 279//346 278//346
f 273//347 274//347 280//347
f 273//348 280//348 279//348
f 274//349 275//349 281//349
f 274//350 281//350 280//350
f 275//351 276//351 282//351
f 275//352 282//352 281//352
f 276//353 271//353 277//353
f 276//354 277//354 282//354
f 277//355 278//355 284//355
f 278//356 279//356 285//356
f 279//357 280//357 286//357
f 280//358 281//358 287//358
f 281//359 282//359 288//359
f 282//360 277//360 283//360
usemtl c4
f 289//361 296//361 295//361
f 290//362 297//362 296//362
f 291//363 298//363 297//363
f 292//364 299//364 298//364
f 293//365 300//365 299//365
f 294//366 295//366 300//366
f 295//367 296//367 302//367
f 295//368 302//368 301//368
f 296//369 297//369 303//369
f 296//370 303//370 302//370
f 297//371 298//371 304//371
f 297//372 304//372 303//372
f 298//373 299//373 305//373
f 298//374 305//374 304//374
f 299//375 300//375 306//375
f 299//376 306//376 305//376
f 300//377 295//377 301//377
f 300//378 301//378 306//378
f 301//379 302//379 308//379
f 302//380 303//380 309//380
f 303//381 304//381 310//381
f 304//382 305//382 311//382
f 305//383 306//383 312//383
f 306//384 301//384 307//384
usemtl c3
f 313//385 320//385 319//385
f 314//386 321//386 320//386
f 315//387 322//387 321//387
f 316//388 323//388 322//388
f 317//389 324//389 323//389
f 318//390 319//390 324//390
f 319//391 320//391 326//391
f 319//392 326//392 325//392
f 320//393 321//393 327//393
f 320//394 327//394 326//394
f 321//395 322//395 328//395
f 321//396 328//396 327//396
f 322//397 323//397 329//397
f 322//398 329//398 328//398
f 323//399 324//399 330//399
f 323//400 330//400 329//400
f 324//401 319//401 325//401
f 324//402 325//402 330//402
f 325//403 326//403 332//403
f 326//404 327//404 333//404
f 327//405 328//405 334//405
f 328//406 329//406 335//406
f 329//407 330//407 336//407
f 330//408 325//408 331//408
usemtl c5
f 337//409 344//409 343//409
f 338//410 345//410 344//410
f 339//411 346//411 345//411
f 340//412 347//412 346//412
f 341//413 348//413 347//413
f 342//414 343//414 348//414
f 343//415 344//415 350//415
f 343//416 350//416 349//416
f 344//417 345//417 351//417
f 344//418 351//418 350//418
f 345//419 346//419 352//419
f 345//420 352//420 351//420
f 346//421 347//421 353//421
f 346//422 353//422 352//422
f 347//423 348//423 354//423
f 347//424 354//424 353//424
f 348//425 343//425 349//425
f 348//426 349//426 354//426
f 349//427 350//427 356//427
f 350//428 351//428 357//428
f 351//429 352//429 358//429
f 352//430 353//430 359//430
f 353//431 354//431 360//431
f 354//432 349//432 355//432
usemtl c6
f 361//433 369//433 368//433
f 362//434 370//434 369//434
f 363//435 371//435 370//435
f 364//436 372//436 371//436
f 365//437 373//437 372//437
f 366//438 374//438 373//438
f 367//439 368//439 374//439
f 368//440 369//440 376//440
f 368//441 376//441 375//441
f 369//442 370//442 377//442
f 369//443 377//443 376//443
f 370//444 371//444 378//444
f 370//445 378//445 377//445
f 371//446 372//446 379//446
f 371//447 379//447 378//447
f 372//448 373//448 380//448
f 372//449 380//449 379//449
f 373//450 374//450 381//450
f 373//451 381//451 380//451
f 374//452 368//452 375//452
f 374//453 375//453 381//453
f 375//454 376//454 383//454
f 375//455 383//455 382//455
f 376//456 377//456 384//456
f 376//457 384//457 383//457
f 377//458 378//458 385//458
f 377//459 385//459 384//459
f 378//460 379//460 386//460
f 378//461 386//461 385//461
f 379//462 380//462 387//462
f 379//463 387//463 386//463
f 380//464 381//464 388//464
f 380//465 388//465 387//465
f 381//466 375//466 382//466
f 381//467 382//467 388//467
f 382//468 383//468 390//468
f 383//469 384//469 391//469
f 384//470 385//470 392//470
f 385//471 386//471 393//471
f 386//472 387//472 394//472
f 387//473 388//473 395//473
f 388//474 382//474 389//474
f 396//475 404//475 403//475
f 397//476 405//476 404//476
f 398//477 406//477 405//477
f 399//478 407//478 406//478
f 400//479 408//479 407//479
f 401//480 409//480 408//480
f 402//481 403//481 409//481
f 403//482 404//482 411//482
f 403//483 411//483 410//483
f 404//484 405//484 412//484
f 404//485 412//485 411//485
f 405//486 406//486 413//486
f 405//487 413//487 412//487
f 406//488 407//488 414//488
f 406//489 414//489 413//489
f 407//490 408//490 415//490
f 407//491 415//491 414//491
f 408//492 409//492 416//492
f 408//493 416//493 415//493
f 409//494 403//494 410//494
f 409//495 410//495 416//495
f 410//496 411//496 418//496
f 410//497 418//497 417//497
f 411//498 412//498 419//498
f 411//499 419//499 418//499
f 412//500 413//500 420//500
f 412//501 420//501 419//501
f 413//502 414//502 421//502
f 413//503 421//503 420//503
f 414//504 415//504 422//504
f 414//505 422//505 421//505
f 415//506 416//506 423//506
f 415//507 423//507 422//507
f 416//508 410//508 417//508
f 416//509 417//509 423//509
f 417//510 418//510 425//510
f 418//511 419//511 426//511
f 419//512 420//512 427//512
f 420//513 421//513 428//513
f 421//514 422//514 429//514
f 422//515 423//515 430//515
f 423//516 417//516 424//516
f 431//517 439//517 438//517
f 432//518 440//518 439//518
f 433//519 441//519 440//519
f 434//520 442//520 441//520
f 435//521 443//521 442//521
f 436//522 444//522 443//522
f 437//523 438//523 444//523
f 438//524 439//524 446//524
f 438//525 446//525 445//525
f 439//526 440//526 447//526
f 439//527 447//527 446//527
f 440//528 441//528 448//528
f 440//529 448//529 447//529
f 441//530 442//530 449//530
f 441//531 449//531 448//531
f 442//532 443//532 450//532
f 442//533 450//533 449//533
f 443//534 444//534 451//534
f 443//535 451//535 450//535
f 444//536 438//536 445//536
f 444//537 445//537 451//537
f 445//538 446//538 453//538
f 445//539 453//539 452//539
f 446//540 447//540 454//540
f 446//541 454//541 453//541
f 447//542 448//542 455//542
f 447//543 455//543 454//543
f 448//544 449//544 456//544
f 448//545 456//545 455//545
f 449//546 450//546 457//546
f 449//547 457//547 456//547
f 450//548 451//548 458//548
f 450//549 458//549 457//549
f 451//550 445//550 452//550
f 451//551 452//551 458//551
f 452//552 453//552 460//552
f 453//553 454//553 461//553
f 454//554 455//554 462//554
f 455//555 456//555 463//555
f 456//556 457//556 464//556
f 457//557 458//557 465//557
f 458//558 452//558 459//558
usemtl c7
f 466//559 467//559 475//559
f 466//560 475//560 474//560
f 467//561 468//561 476//561
f 467//562 476//562 475//562
f 468//563 469//563 477//563
f 468//564 477//564 476//564
f 469//565 470//565 478//565
f 469//566 478//566 477//566
f 470//567 471//567 479//567
f 470//568 479//568 478//568
f 471//569 472//569 480//569
f 471//570 480//570 479//570
f 472//571 473//571 481//571
f 472//572 481//572 480//572
f 473//573 466//573 474//573
f 473//574 474//574 481//574
f 482//575 466//575 467//575
f 482//576 467//576 468//576
f 482//577 468//577 469//577
f 482//578 469//578 470//578
f 482//579 470//579 471//579
f 482//580 471//580 472//580
f 482//581 472//581 473//581
f 482//582 473//582 466//582
f 483//583 474//583 475//583
f 483//584 475//584 476//584
f 483//585 476//585 477//585
f 483//586 477//586 478//586
f 483//587 478//587 479//587
f 483//588 479//588 480//588
f 483//589 480//589 481//589
f 483//590 481//590 474//590
f 484//591 485//591 493//591
f 484//592 493//592 492//592
f 485//593 486//593 494//593
f 485//594 494//594 493//594
f 486//595 487//595 495//595
f 486//596 495//596 494//596
f 487//597 488//597 496//597
f 487//598 496//598 495//598
f 488//599 489//599 497//599
f 488//600 497//600 496//600
f 489//601 490//601 498//601
f 489//602 498//602 497//602
f 490//603 491//603 499//603
f 490//604 499//604 498//604
f 491//605 484//605 492//605
f 491//606 492//606 499//606
f 500//607 484//607 485//607
f 500//608 485//608 486//608
f 500//609 486//609 487//609
f 500//610 487//610 488//610
f 500//611 488//611 489//611
f 500//612 489//612 490//612
f 500//613 490//613 491//613
f 500//614 491//614 484//614
f 501//615 492//615 493//615
f 501//616 493//616 494//616
f 501//617 494//617 495//617
f 501//618 495//618 496//618
f 501//619 496//619 497//619
f 501//620 497//620 498//620
f 501//621 498//621 499//621
f 501//622 499//622 492//622
usemtl c8
f 502//623 507//623 506//623
f 503//624 508//624 507//624
f 504//625 509//625 508//625
f 505//626 506//626 509//626
f 506//627 507//627 511//627
f 507//628 508//628 512//628
f 508//629 509//629 513//629
f 509//630 506//630 510//630
f 514//631 519//631 518//631
f 515//632 520//632 519//632
f 516//633 521//633 520//633
f 517//634 518//634 521//634
f 518//635 519//635 523//635
f 519//636 520//636 524//636
f 520//637 521//637 525//637
f 521//638 518//638 522//638
f 526//639 531//639 530//639
f 527//640 532//640 531//640
f 528//641 533//641 532//641
f 529//642 530//642 533//642
f 530//643 531//643 535//643
f 531//644 532//644 536//644
f 532//645 533//645 537//645
f 533//646 530//646 534//646
f 538//647 543//647 542//647
f 539//648 544//648 543//648
f 540//649 545//649 544//649
f 541//650 542//650 545//650
f 542//651 543//651 547//651
f 543//652 544//652 548//652
f 544//653 545//653 549//653
f 545//654 542//654 546//654
f 550//655 555//655 554//655
f 551//656 556//656 555//656
f 552//657 557//657 556//657
f 553//658 554//658 557//658
f 554//659 555//659 559//659
f 555//660 556//660 560//660
f 556//661 557//661 561//661
f 557//662 554//662 558//662
