mtllib Food_CookingOil.mtl
v 0.0000 0.0000 0.0000
v 0.0000 0.0000 0.0000
v 0.0000 0.0000 0.0000
v 0.0000 0.0000 0.0000
v 0.0000 0.0000 0.0000
v 0.0000 0.0000 0.0000
v 0.0000 0.0000 0.0000
v 0.0000 0.0000 0.0000
v 0.0000 0.0000 0.0000
v 0.5000 0.0000 0.0000
v 0.3830 0.0000 0.3214
v 0.0868 0.0000 0.4924
v -0.2500 0.0000 0.4330
v -0.4698 0.0000 0.1710
v -0.4698 0.0000 -0.1710
v -0.2500 0.0000 -0.4330
v 0.0868 0.0000 -0.4924
v 0.3830 0.0000 -0.3214
v 0.5600 0.1000 0.0000
v 0.4290 0.1000 0.3600
v 0.0972 0.1000 0.5515
v -0.2800 0.1000 0.4850
v -0.5262 0.1000 0.1915
v -0.5262 0.1000 -0.1915
v -0.2800 0.1000 -0.4850
v 0.0972 0.1000 -0.5515
v 0.4290 0.1000 -0.3600
v 0.5600 1.0500 0.0000
v 0.4290 1.0500 0.3600
v 0.0972 1.0500 0.5515
v -0.2800 1.0500 0.4850
v -0.5262 1.0500 0.1915
v -0.5262 1.0500 -0.1915
v -0.2800 1.0500 -0.4850
v 0.0972 1.0500 -0.5515
v 0.4290 1.0500 -0.3600
v 0.4200 1.3000 0.0000
v 0.3217 1.3000 0.2700
v 0.0729 1.3000 0.4136
v -0.2100 1.3000 0.3637
v -0.3947 1.3000 0.1436
v -0.3947 1.3000 -0.1436
v -0.2100 1.3000 -0.3637
v 0.0729 1.3000 -0.4136
v 0.3217 1.3000 -0.2700
v 0.2400 1.5000 0.0000
v 0.1839 1.5000 0.1543
v 0.0417 1.5000 0.2364
v -0.1200 1.5000 0.2078
v -0.2255 1.5000 0.0821
v -0.2255 1.5000 -0.0821
v -0.1200 1.5000 -0.2078
v 0.0417 1.5000 -0.2364
v 0.1839 1.5000 -0.1543
v 0.2400 1.7500 0.0000
v 0.1839 1.7500 0.1543
v 0.0417 1.7500 0.2364
v -0.1200 1.7500 0.2078
v -0.2255 1.7500 0.0821
v -0.2255 1.7500 -0.0821
v -0.1200 1.7500 -0.2078
v 0.0417 1.7500 -0.2364
v 0.1839 1.7500 -0.1543
v 0.0000 1.7500 0.0000
v 0.2700 1.7200 0.0000
v 0.2068 1.7200 0.1736
v 0.0469 1.7200 0.2659
v -0.1350 1.7200 0.2338
v -0.2537 1.7200 0.0923
v -0.2537 1.7200 -0.0923
v -0.1350 1.7200 -0.2338
v 0.0469 1.7200 -0.2659
v 0.2068 1.7200 -0.1736
v 0.2700 1.9800 0.0000
v 0.2068 1.9800 0.1736
v 0.0469 1.9800 0.2659
v -0.1350 1.9800 0.2338
v -0.2537 1.9800 0.0923
v -0.2537 1.9800 -0.0923
v -0.1350 1.9800 -0.2338
v 0.0469 1.9800 -0.2659
v 0.2068 1.9800 -0.1736
v 0.0000 1.7200 0.0000
v 0.0000 1.9800 0.0000
v 0.5800 0.3000 0.0000
v 0.4443 0.3000 0.3728
v 0.1007 0.3000 0.5712
v -0.2900 0.3000 0.5023
v -0.5450 0.3000 0.1984
v -0.5450 0.3000 -0.1984
v -0.2900 0.3000 -0.5023
v 0.1007 0.3000 -0.5712
v 0.4443 0.3000 -0.3728
v 0.5800 0.9500 0.0000
v 0.4443 0.9500 0.3728
v 0.1007 0.9500 0.5712
v -0.2900 0.9500 0.5023
v -0.5450 0.9500 0.1984
v -0.5450 0.9500 -0.1984
v -0.2900 0.9500 -0.5023
v 0.1007 0.9500 -0.5712
v 0.4443 0.9500 -0.3728
v 0.0000 0.3400 0.6000
v 0.0000 0.3400 0.6000
v 0.0000 0.3400 0.6000
v 0.0000 0.3400 0.6000
v 0.0000 0.3400 0.6000
v 0.0000 0.3400 0.6000
v 0.1556 0.4220 0.6000
v 0.0778 0.4220 0.6306
v -0.0778 0.4220 0.6306
v -0.1556 0.4220 0.6000
v -0.0778 0.4220 0.5694
v 0.0778 0.4220 0.5694
v 0.2200 0.6200 0.6000
v 0.1100 0.6200 0.6433
v -0.1100 0.6200 0.6433
v -0.2200 0.6200 0.6000
v -0.1100 0.6200 0.5567
v 0.1100 0.6200 0.5567
v 0.1556 0.8180 0.6000
v 0.0778 0.8180 0.6306
v -0.0778 0.8180 0.6306
v -0.1556 0.8180 0.6000
v -0.0778 0.8180 0.5694
v 0.0778 0.8180 0.5694
v 0.0000 0.9000 0.6000
v 0.0000 0.9000 0.6000
v -0.0000 0.9000 0.6000
v -0.0000 0.9000 0.6000
v -0.0000 0.9000 0.6000
v 0.0000 0.9000 0.6000
vn 0.0000 1.0000 0.0000
vn 0.0000 1.0000 0.0000
vn 0.0000 1.0000 -0.0000
vn 0.0000 1.0000 0.0000
vn 0.0000 1.0000 0.0000
vn 0.0000 1.0000 0.0000
vn 0.0000 1.0000 0.0000
vn 0.0000 1.0000 0.0000
vn -0.0000 1.0000 0.0000
vn -0.8186 0.4911 -0.2979
vn -0.8186 0.4911 -0.2979
vn -0.4355 0.4911 -0.7544
vn -0.4355 0.4911 -0.7544
vn 0.1513 0.4911 -0.8579
vn 0.1513 0.4911 -0.8579
vn 0.6673 0.4911 -0.5599
vn 0.6673 0.4911 -0.5599
vn 0.8711 0.4911 -0.0000
vn 0.8711 0.4911 0.0000
vn 0.6673 0.4911 0.5599
vn 0.6673 0.4911 0.5599
vn 0.1513 0.4911 0.8579
vn 0.1513 0.4911 0.8579
vn -0.4355 0.4911 0.7544
vn -0.4355 0.4911 0.7544
vn -0.8186 0.4911 0.2979
vn -0.8186 0.4911 0.2979
vn -0.9397 0.0000 -0.3420
vn -0.9397 0.0000 -0.3420
vn -0.5000 0.0000 -0.8660
vn -0.5000 0.0000 -0.8660
vn 0.1736 0.0000 -0.9848
vn 0.1736 0.0000 -0.9848
vn 0.7660 0.0000 -0.6428
vn 0.7660 0.0000 -0.6428
vn 1.0000 0.0000 0.0000
vn 1.0000 -0.0000 0.0000
vn 0.7660 0.0000 0.6428
vn 0.7660 -0.0000 0.6428
vn 0.1736 0.0000 0.9848
vn 0.1736 -0.0000 0.9848
vn -0.5000 0.0000 0.8660
vn -0.5000 0.0000 0.8660
vn -0.9397 0.0000 0.3420
vn -0.9397 0.0000 0.3420
vn -0.8316 -0.4657 -0.3027
vn -0.8316 -0.4657 -0.3027
vn -0.4425 -0.4657 -0.7664
vn -0.4425 -0.4657 -0.7664
vn 0.1537 -0.4657 -0.8715
vn 0.1537 -0.4657 -0.8715
vn 0.6779 -0.4657 -0.5688
vn 0.6779 -0.4657 -0.5688
vn 0.8850 -0.4657 0.0000
vn 0.8850 -0.4657 -0.0000
vn 0.6779 -0.4657 0.5688
vn 0.6779 -0.4657 0.5688
vn 0.1537 -0.4657 0.8715
vn 0.1537 -0.4657 0.8715
vn -0.4425 -0.4657 0.7664
vn -0.4425 -0.4657 0.7664
vn -0.8316 -0.4657 0.3027
vn -0.8316 -0.4657 0.3027
vn -0.7175 -0.6458 -0.2611
vn -0.7175 -0.6458 -0.2611
vn -0.3818 -0.6458 -0.6613
vn -0.3818 -0.6458 -0.6613
vn 0.1326 -0.6458 -0.7519
vn 0.1326 -0.6458 -0.7519
vn 0.5849 -0.6458 -0.4908
vn 0.5849 -0.6458 -0.4908
vn 0.7635 -0.6458 -0.0000
vn 0.7635 -0.6458 -0.0000
vn 0.5849 -0.6458 0.4908
vn 0.5849 -0.6458 0.4908
vn 0.1326 -0.6458 0.7519
vn 0.1326 -0.6458 0.7519
vn -0.3818 -0.6458 0.6613
vn -0.3818 -0.6458 0.6613
vn -0.7175 -0.6458 0.2611
vn -0.7175 -0.6458 0.2611
vn -0.9397 0.0000 -0.3420
vn -0.9397 0.0000 -0.3420
vn -0.5000 0.0000 -0.8660
vn -0.5000 0.0000 -0.8660
vn 0.1736 0.0000 -0.9848
vn 0.1736 0.0000 -0.9848
vn 0.7660 0.0000 -0.6428
vn 0.7660 0.0000 -0.6428
vn 1.0000 0.0000 -0.0000
vn 1.0000 0.0000 -0.0000
vn 0.7660 0.0000 0.6428
vn 0.7660 -0.0000 0.6428
vn 0.1736 0.0000 0.9848
vn 0.1736 -0.0000 0.9848
vn -0.5000 0.0000 0.8660
vn -0.5000 0.0000 0.8660
vn -0.9397 0.0000 0.3420
vn -0.9397 0.0000 0.3420
vn 0.0000 -1.0000 0.0000
vn 0.0000 -1.0000 0.0000
vn 0.0000 -1.0000 0.0000
vn 0.0000 -1.0000 0.0000
vn -0.0000 -1.0000 0.0000
vn 0.0000 -1.0000 0.0000
vn 0.0000 -1.0000 -0.0000
vn 0.0000 -1.0000 0.0000
vn 0.0000 -1.0000 0.0000
vn -0.9397 0.0000 -0.3420
vn -0.9397 0.0000 -0.3420
vn -0.5000 0.0000 -0.8660
vn -0.5000 0.0000 -0.8660
vn 0.1736 0.0000 -0.9848
vn 0.1736 0.0000 -0.9848
vn 0.7660 0.0000 -0.6428
vn 0.7660 0.0000 -0.6428
vn 1.0000 0.0000 0.0000
vn 1.0000 -0.0000 0.0000
vn 0.7660 0.0000 0.6428
vn 0.7660 -0.0000 0.6428
vn 0.1736 0.0000 0.9848
vn 0.1736 -0.0000 0.9848
vn -0.5000 0.0000 0.8660
vn -0.5000 0.0000 0.8660
vn -0.9397 0.0000 0.3420
vn -0.9397 0.0000 0.3420
vn 0.0000 -1.0000 0.0000
vn 0.0000 -1.0000 0.0000
vn 0.0000 -1.0000 0.0000
vn 0.0000 -1.0000 0.0000
vn -0.0000 -1.0000 0.0000
vn 0.0000 -1.0000 0.0000
vn 0.0000 -1.0000 -0.0000
vn 0.0000 -1.0000 0.0000
vn 0.0000 -1.0000 0.0000
vn 0.0000 -1.0000 0.0000
vn 0.0000 -1.0000 0.0000
vn 0.0000 -1.0000 0.0000
vn 0.0000 -1.0000 0.0000
vn -0.0000 -1.0000 0.0000
vn 0.0000 -1.0000 0.0000
vn 0.0000 -1.0000 -0.0000
vn 0.0000 -1.0000 0.0000
vn 0.0000 -1.0000 0.0000
vn -0.9397 0.0000 -0.3420
vn -0.9397 0.0000 -0.3420
vn -0.5000 0.0000 -0.8660
vn -0.5000 0.0000 -0.8660
vn 0.1736 0.0000 -0.9848
vn 0.1736 0.0000 -0.9848
vn 0.7660 0.0000 -0.6428
vn 0.7660 0.0000 -0.6428
vn 1.0000 0.0000 0.0000
vn 1.0000 -0.0000 0.0000
vn 0.7660 0.0000 0.6428
vn 0.7660 -0.0000 0.6428
vn 0.1736 0.0000 0.9848
vn 0.1736 -0.0000 0.9848
vn -0.5000 0.0000 0.8660
vn -0.5000 0.0000 0.8660
vn -0.9397 0.0000 0.3420
vn -0.9397 0.0000 0.3420
vn -0.3008 0.5706 -0.7642
vn 0.0000 0.3498 -0.9368
vn 0.3008 0.5706 -0.7642
vn 0.3008 0.5706 0.7642
vn 0.0000 0.3498 0.9368
vn -0.3008 0.5706 0.7642
vn -0.3637 0.1184 -0.9240
vn -0.3637 0.1184 -0.9240
vn 0.0000 0.0639 -0.9980
vn 0.0000 0.0639 -0.9980
vn 0.3637 0.1184 -0.9240
vn 0.3637 0.1184 -0.9240
vn 0.3637 0.1184 0.9240
vn 0.3637 0.1184 0.9240
vn -0.0000 0.0639 0.9980
vn 0.0000 0.0639 0.9980
vn -0.3637 0.1184 0.9240
vn -0.3637 0.1184 0.9240
vn -0.3637 -0.1184 -0.9240
vn -0.3637 -0.1184 -0.9240
vn -0.0000 -0.0639 -0.9980
vn 0.0000 -0.0639 -0.9980
vn 0.3637 -0.1184 -0.9240
vn 0.3637 -0.1184 -0.9240
vn 0.3637 -0.1184 0.9240
vn 0.3637 -0.1184 0.9240
vn 0.0000 -0.0639 0.9980
vn 0.0000 -0.0639 0.9980
vn -0.3637 -0.1184 0.9240
vn -0.3637 -0.1184 0.9240
vn -0.3008 -0.5706 -0.7642
vn -0.0000 -0.3498 -0.9368
vn 0.3008 -0.5706 -0.7642
vn 0.3008 -0.5706 0.7642
vn 0.0000 -0.3498 0.9368
vn -0.3008 -0.5706 0.7642
usemtl c0
f 1//1 11//1 10//1
f 2//2 12//2 11//2
f 3//3 13//3 12//3
f 4//4 14//4 13//4
f 5//5 15//5 14//5
f 6//6 16//6 15//6
f 7//7 17//7 16//7
f 8//8 18//8 17//8
f 9//9 10//9 18//9
f 10//10 11//10 20//10
f 10//11 20//11 19//11
f 11//12 12//12 21//12
f 11//13 21//13 20//13
f 12//14 13//14 22//14
f 12//15 22//15 21//15
f 13//16 14//16 23//16
f 13//17 23//17 22//17
f 14//18 15//18 24//18
f 14//19 24//19 23//19
f 15//20 16//20 25//20
f 15//21 25//21 24//21
f 16//22 17//22 26//22
f 16//23 26//23 25//23
f 17//24 18//24 27//24
f 17//25 27//25 26//25
f 18//26 10//26 19//26
f 18//27 19//27 27//27
f 19//28 20//28 29//28
f 19//29 29//29 28//29
f 20//30 21//30 30//30
f 20//31 30//31 29//31
f 21//32 22//32 31//32
f 21//33 31//33 30//33
f 22//34 23//34 32//34
f 22//35 32//35 31//35
f 23//36 24//36 33//36
f 23//37 33//37 32//37
f 24//38 25//38 34//38
f 24//39 34//39 33//39
f 25//40 26//40 35//40
f 25//41 35//41 34//41
f 26//42 27//42 36//42
f 26//43 36//43 35//43
f 27//44 19//44 28//44
f 27//45 28//45 36//45
f 28//46 29//46 38//46
f 28//47 38//47 37//47
f 29//48 30//48 39//48
f 29//49 39//49 38//49
f 30//50 31//50 40//50
f 30//51 40//51 39//51
f 31//52 32//52 41//52
f 31//53 41//53 40//53
f 32//54 33//54 42//54
f 32//55 42//55 41//55
f 33//56 34//56 43//56
f 33//57 43//57 42//57
f 34//58 35//58 44//58
f 34//59 44//59 43//59
f 35//60 36//60 45//60
f 35//61 45//61 44//61
f 36//62 28//62 37//62
f 36//63 37//63 45//63
f 37//64 38//64 47//64
f 37//65 47//65 46//65
f 38//66 39//66 48//66
f 38//67 48//67 47//67
f 39//68 40//68 49//68
f 39//69 49//69 48//69
f 40//70 41//70 50//70
f 40//71 50//71 49//71
f 41//72 42//72 51//72
f 41//73 51//73 50//73
f 42//74 43//74 52//74
f 42//75 52//75 51//75
f 43//76 44//76 53//76
f 43//77 53//77 52//77
f 44//78 45//78 54//78
f 44//79 54//79 53//79
f 45//80 37//80 46//80
f 45//81 46//81 54//81
f 46//82 47//82 56//82
f 46//83 56//83 55//83
f 47//84 48//84 57//84
f 47//85 57//85 56//85
f 48//86 49//86 58//86
f 48//87 58//87 57//87
f 49//88 50//88 59//88
f 49//89 59//89 58//89
f 50//90 51//90 60//90
f 50//91 60//91 59//91
f 51//92 52//92 61//92
f 51//93 61//93 60//93
f 52//94 53//94 62//94
f 52//95 62//95 61//95
f 53//96 54//96 63//96
f 53//97 63//97 62//97
f 54//98 46//98 55//98
f 54//99 55//99 63//99
f 64//100 55//100 56//100
f 64//101 56//101 57//101
f 64//102 57//102 58//102
f 64//103 58//103 59//103
f 64//104 59//104 60//104
f 64//105 60//105 61//105
f 64//106 61//106 62//106
f 64//107 62//107 63//107
f 64//108 63//108 55//108
usemtl c1
f 65//109 66//109 75//109
f 65//110 75//110 74//110
f 66//111 67//111 76//111
f 66//112 76//112 75//112
f 67//113 68//113 77//113
f 67//114 77//114 76//114
f 68//115 69//115 78//115
f 68//116 78//116 77//116
f 69//117 70//117 79//117
f 69//118 79//118 78//118
f 70//119 71//119 80//119
f 70//120 80//120 79//120
f 71//121 72//121 81//121
f 71//122 81//122 80//122
f 72//123 73//123 82//123
f 72//124 82//124 81//124
f 73//125 65//125 74//125
f 73//126 74//126 82//126
f 83//127 65//127 66//127
f 83//128 66//128 67//128
f 83//129 67//129 68//129
f 83//130 68//130 69//130
f 83//131 69//131 70//131
f 83//132 70//132 71//132
f 83//133 71//133 72//133
f 83//134 72//134 73//134
f 83//135 73//135 65//135
f 84//136 74//136 75//136
f 84//137 75//137 76//137
f 84//138 76//138 77//138
f 84//139 77//139 78//139
f 84//140 78//140 79//140
f 84//141 79//141 80//141
f 84//142 80//142 81//142
f 84//143 81//143 82//143
f 84//144 82//144 74//144
usemtl c2
f 85//145 86//145 95//145
f 85//146 95//146 94//146
f 86//147 87//147 96//147
f 86//148 96//148 95//148
f 87//149 88//149 97//149
f 87//150 97//150 96//150
f 88//151 89//151 98//151
f 88//152 98//152 97//152
f 89//153 90//153 99//153
f 89//154 99//154 98//154
f 90//155 91//155 100//155
f 90//156 100//156 99//156
f 91//157 92//157 101//157
f 91//158 101//158 100//158
f 92//159 93//159 102//159
f 92//160 102//160 101//160
f 93//161 85//161 94//161
f 93//162 94//162 102//162
usemtl c1
f 103//163 110//163 109//163
f 104//164 111//164 110//164
f 105//165 112//165 111//165
f 106//166 113//166 112//166
f 107//167 114//167 113//167
f 108//168 109//168 114//168
f 109//169 110//169 116//169
f 109//170 116//170 115//170
f 110//171 111//171 117//171
f 110//172 117//172 116//172
f 111//173 112//173 118//173
f 111//174 118//174 117//174
f 112//175 113//175 119//175
f 112//176 119//176 118//176
f 113//177 114//177 120//177
f 113//178 120//178 119//178
f 114//179 109//179 115//179
f 114//180 115//180 120//180
f 115//181 116//181 122//181
f 115//182 122//182 121//182
f 116//183 117//183 123//183
f 116//184 123//184 122//184
f 117//185 118//185 124//185
f 117//186 124//186 123//186
f 118//187 119//187 125//187
f 118//188 125//188 124//188
f 119//189 120//189 126//189
f 119//190 126//190 125//190
f 120//191 115//191 121//191
f 120//192 121//192 126//192
f 121//193 122//193 128//193
f 122//194 123//194 129//194
f 123//195 124//195 130//195
f 124//196 125//196 131//196
f 125//197 126//197 132//197
f 126//198 121//198 127//198
