mtllib Food_SoboroBun.mtl
v 0.0000 0.0000 0.0000
v 0.0000 0.0000 0.0000
v 0.0000 0.0000 0.0000
v 0.0000 0.0000 0.0000
v 0.0000 0.0000 0.0000
v 0.0000 0.0000 0.0000
v 0.0000 0.0000 0.0000
v 0.0000 0.0000 0.0000
v 0.0000 0.0000 0.0000
v 0.0000 0.0000 0.0000
v 0.9500 0.0000 0.0000
v 0.7686 0.0000 0.5584
v 0.2936 0.0000 0.9035
v -0.2936 0.0000 0.9035
v -0.7686 0.0000 0.5584
v -0.9500 0.0000 0.0000
v -0.7686 0.0000 -0.5584
v -0.2936 0.0000 -0.9035
v 0.2936 0.0000 -0.9035
v 0.7686 0.0000 -0.5584
v 1.0200 0.1500 0.0000
v 0.8252 0.1500 0.5995
v 0.3152 0.1500 0.9701
v -0.3152 0.1500 0.9701
v -0.8252 0.1500 0.5995
v -1.0200 0.1500 0.0000
v -0.8252 0.1500 -0.5995
v -0.3152 0.1500 -0.9701
v 0.3152 0.1500 -0.9701
v 0.8252 0.1500 -0.5995
v 0.9000 0.5000 0.0000
v 0.7281 0.5000 0.5290
v 0.2781 0.5000 0.8560
v -0.2781 0.5000 0.8560
v -0.7281 0.5000 0.5290
v -0.9000 0.5000 0.0000
v -0.7281 0.5000 -0.5290
v -0.2781 0.5000 -0.8560
v 0.2781 0.5000 -0.8560
v 0.7281 0.5000 -0.5290
v 0.5500 0.7200 0.0000
v 0.4450 0.7200 0.3233
v 0.1700 0.7200 0.5231
v -0.1700 0.7200 0.5231
v -0.4450 0.7200 0.3233
v -0.5500 0.7200 0.0000
v -0.4450 0.7200 -0.3233
v -0.1700 0.7200 -0.5231
v 0.1700 0.7200 -0.5231
v 0.4450 0.7200 -0.3233
v 0.0000 0.7800 0.0000
v 0.0000 0.7800 0.0000
v 0.0000 0.7800 0.0000
v 0.0000 0.7800 0.0000
v 0.0000 0.7800 0.0000
v 0.0000 0.7800 0.0000
v 0.0000 0.7800 0.0000
v 0.0000 0.7800 0.0000
v 0.0000 0.7800 0.0000
v 0.0000 0.7800 0.0000
v -0.0607 0.7128 0.1214
v -0.0607 0.7128 0.1214
v -0.0607 0.7128 0.1214
v -0.0607 0.7128 0.1214
v 0.0193 0.7928 0.1214
v -0.0607 0.7928 0.2014
v -0.1407 0.7928 0.1214
v -0.0607 0.7928 0.0414
v -0.0607 0.8728 0.1214
v -0.0607 0.8728 0.1214
v -0.0607 0.8728 0.1214
v -0.0607 0.8728 0.1214
v 0.4332 0.6233 0.2120
v 0.4332 0.6233 0.2120
v 0.4332 0.6233 0.2120
v 0.4332 0.6233 0.2120
v 0.5132 0.7033 0.2120
v 0.4332 0.7033 0.2920
v 0.3532 0.7033 0.2120
v 0.4332 0.7033 0.1320
v 0.4332 0.7833 0.2120
v 0.4332 0.7833 0.2120
v 0.4332 0.7833 0.2120
v 0.4332 0.7833 0.2120
v -0.7104 0.3879 -0.4069
v -0.7104 0.3879 -0.4069
v -0.7104 0.3879 -0.4069
v -0.7104 0.3879 -0.4069
v -0.6304 0.4679 -0.4069
v -0.7104 0.4679 -0.3269
v -0.7904 0.4679 -0.4069
v -0.7104 0.4679 -0.4869
v -0.7104 0.5479 -0.4069
v -0.7104 0.5479 -0.4069
v -0.7104 0.5479 -0.4069
v -0.7104 0.5479 -0.4069
v 0.3795 0.6581 0.0911
v 0.3795 0.6581 0.0911
v 0.3795 0.6581 0.0911
v 0.3795 0.6581 0.0911
v 0.4595 0.7381 0.0911
v 0.3795 0.7381 0.1711
v 0.2995 0.7381 0.0911
v 0.3795 0.7381 0.0111
v 0.3795 0.8181 0.0911
v 0.3795 0.8181 0.0911
v 0.3795 0.8181 0.0911
v 0.3795 0.8181 0.0911
v 0.0291 0.6173 0.4951
v 0.0291 0.6173 0.4951
v 0.0291 0.6173 0.4951
v 0.0291 0.6173 0.4951
v 0.1091 0.6973 0.4951
v 0.0291 0.6973 0.5751
v -0.0509 0.6973 0.4951
v 0.0291 0.6973 0.4151
v 0.0291 0.7773 0.4951
v 0.0291 0.7773 0.4951
v 0.0291 0.7773 0.4951
v 0.0291 0.7773 0.4951
v 0.0517 0.7151 -0.0987
v 0.0517 0.7151 -0.0987
v 0.0517 0.7151 -0.0987
v 0.0517 0.7151 -0.0987
v 0.1317 0.7951 -0.0987
v 0.0517 0.7951 -0.0187
v -0.0283 0.7951 -0.0987
v 0.0517 0.7951 -0.1787
v 0.0517 0.8751 -0.0987
v 0.0517 0.8751 -0.0987
v 0.0517 0.8751 -0.0987
v 0.0517 0.8751 -0.0987
v -0.3577 0.6040 -0.3839
v -0.3577 0.6040 -0.3839
v -0.3577 0.6040 -0.3839
v -0.3577 0.6040 -0.3839
v -0.2777 0.6840 -0.3839
v -0.3577 0.6840 -0.3039
v -0.4377 0.6840 -0.3839
v -0.3577 0.6840 -0.4639
v -0.3577 0.7640 -0.3839
v -0.3577 0.7640 -0.3839
v -0.3577 0.7640 -0.3839
v -0.3577 0.7640 -0.3839
v -0.3159 0.6686 -0.1663
v -0.3159 0.6686 -0.1663
v -0.3159 0.6686 -0.1663
v -0.3159 0.6686 -0.1663
v -0.2359 0.7486 -0.1663
v -0.3159 0.7486 -0.0863
v -0.3959 0.7486 -0.1663
v -0.3159 0.7486 -0.2463
v -0.3159 0.8286 -0.1663
v -0.3159 0.8286 -0.1663
v -0.3159 0.8286 -0.1663
v -0.3159 0.8286 -0.1663
v 0.7398 0.4352 0.2229
v 0.7398 0.4352 0.2229
v 0.7398 0.4352 0.2229
v 0.7398 0.4352 0.2229
v 0.8198 0.5152 0.2229
v 0.7398 0.5152 0.3029
v 0.6598 0.5152 0.2229
v 0.7398 0.5152 0.1429
v 0.7398 0.5952 0.2229
v 0.7398 0.5952 0.2229
v 0.7398 0.5952 0.2229
v 0.7398 0.5952 0.2229
v -0.4252 0.6214 0.2367
v -0.4252 0.6214 0.2367
v -0.4252 0.6214 0.2367
v -0.4252 0.6214 0.2367
v -0.3452 0.7014 0.2367
v -0.4252 0.7014 0.3167
v -0.5052 0.7014 0.2367
v -0.4252 0.7014 0.1567
v -0.4252 0.7814 0.2367
v -0.4252 0.7814 0.2367
v -0.4252 0.7814 0.2367
v -0.4252 0.7814 0.2367
v -0.5703 0.5558 -0.2269
v -0.5703 0.5558 -0.2269
v -0.5703 0.5558 -0.2269
v -0.5703 0.5558 -0.2269
v -0.4903 0.6358 -0.2269
v -0.5703 0.6358 -0.1469
v -0.6503 0.6358 -0.2269
v -0.5703 0.6358 -0.3069
v -0.5703 0.7158 -0.2269
v -0.5703 0.7158 -0.2269
v -0.5703 0.7158 -0.2269
v -0.5703 0.7158 -0.2269
v -0.5011 0.5781 -0.2821
v -0.5011 0.5781 -0.2821
v -0.5011 0.5781 -0.2821
v -0.5011 0.5781 -0.2821
v -0.4211 0.6581 -0.2821
v -0.5011 0.6581 -0.2021
v -0.5811 0.6581 -0.2821
v -0.5011 0.6581 -0.3621
v -0.5011 0.7381 -0.2821
v -0.5011 0.7381 -0.2821
v -0.5011 0.7381 -0.2821
v -0.5011 0.7381 -0.2821
v 0.5245 0.5387 0.3683
v 0.5245 0.5387 0.3683
v 0.5245 0.5387 0.3683
v 0.5245 0.5387 0.3683
v 0.6045 0.6187 0.3683
v 0.5245 0.6187 0.4483
v 0.4445 0.6187 0.3683
v 0.5245 0.6187 0.2883
v 0.5245 0.6987 0.3683
v 0.5245 0.6987 0.3683
v 0.5245 0.6987 0.3683
v 0.5245 0.6987 0.3683
v -0.3276 0.6378 -0.3038
v -0.3276 0.6378 -0.3038
v -0.3276 0.6378 -0.3038
v -0.3276 0.6378 -0.3038
v -0.2476 0.7178 -0.3038
v -0.3276 0.7178 -0.2238
v -0.4076 0.7178 -0.3038
v -0.3276 0.7178 -0.3838
v -0.3276 0.7978 -0.3038
v -0.3276 0.7978 -0.3038
v -0.3276 0.7978 -0.3038
v -0.3276 0.7978 -0.3038
v 0.0713 0.6482 -0.4129
v 0.0713 0.6482 -0.4129
v 0.0713 0.6482 -0.4129
v 0.0713 0.6482 -0.4129
v 0.1513 0.7282 -0.4129
v 0.0713 0.7282 -0.3329
v -0.0087 0.7282 -0.4129
v 0.0713 0.7282 -0.4929
v 0.0713 0.8082 -0.4129
v 0.0713 0.8082 -0.4129
v 0.0713 0.8082 -0.4129
v 0.0713 0.8082 -0.4129
v -0.1442 0.7003 0.1708
v -0.1442 0.7003 0.1708
v -0.1442 0.7003 0.1708
v -0.1442 0.7003 0.1708
v -0.0642 0.7803 0.1708
v -0.1442 0.7803 0.2508
v -0.2242 0.7803 0.1708
v -0.1442 0.7803 0.0908
v -0.1442 0.8603 0.1708
v -0.1442 0.8603 0.1708
v -0.1442 0.8603 0.1708
v -0.1442 0.8603 0.1708
v -0.0692 0.7009 -0.2085
v -0.0692 0.7009 -0.2085
v -0.0692 0.7009 -0.2085
v -0.0692 0.7009 -0.2085
v 0.0108 0.7809 -0.2085
v -0.0692 0.7809 -0.1285
v -0.1492 0.7809 -0.2085
v -0.0692 0.7809 -0.2885
v -0.0692 0.8609 -0.2085
v -0.0692 0.8609 -0.2085
v -0.0692 0.8609 -0.2085
v -0.0692 0.8609 -0.2085
v -0.7778 0.4206 -0.1242
v -0.7778 0.4206 -0.1242
v -0.7778 0.4206 -0.1242
v -0.7778 0.4206 -0.1242
v -0.6978 0.5006 -0.1242
v -0.7778 0.5006 -0.0442
v -0.8578 0.5006 -0.1242
v -0.7778 0.5006 -0.2042
v -0.7778 0.5806 -0.1242
v -0.7778 0.5806 -0.1242
v -0.7778 0.5806 -0.1242
v -0.7778 0.5806 -0.1242
v -0.2083 0.3073 0.8572
v -0.2083 0.3073 0.8572
v -0.2083 0.3073 0.8572
v -0.2083 0.3073 0.8572
v -0.1283 0.3873 0.8572
v -0.2083 0.3873 0.9372
v -0.2883 0.3873 0.8572
v -0.2083 0.3873 0.7772
v -0.2083 0.4673 0.8572
v -0.2083 0.4673 0.8572
v -0.2083 0.4673 0.8572
v -0.2083 0.4673 0.8572
v -0.1480 0.7114 -0.0111
v -0.1480 0.7114 -0.0111
v -0.1480 0.7114 -0.0111
v -0.1480 0.7114 -0.0111
v -0.0680 0.7914 -0.0111
v -0.1480 0.7914 0.0689
v -0.2280 0.7914 -0.0111
v -0.1480 0.7914 -0.0911
v -0.1480 0.8714 -0.0111
v -0.1480 0.8714 -0.0111
v -0.1480 0.8714 -0.0111
v -0.1480 0.8714 -0.0111
v 0.2542 0.6404 0.3592
v 0.2542 0.6404 0.3592
v 0.2542 0.6404 0.3592
v 0.2542 0.6404 0.3592
v 0.3342 0.7204 0.3592
v 0.2542 0.7204 0.4392
v 0.1742 0.7204 0.3592
v 0.2542 0.7204 0.2792
v 0.2542 0.8004 0.3592
v 0.2542 0.8004 0.3592
v 0.2542 0.8004 0.3592
v 0.2542 0.8004 0.3592
v 0.0679 0.7181 -0.0165
v 0.0679 0.7181 -0.0165
v 0.0679 0.7181 -0.0165
v 0.0679 0.7181 -0.0165
v 0.1479 0.7981 -0.0165
v 0.0679 0.7981 0.0635
v -0.0121 0.7981 -0.0165
v 0.0679 0.7981 -0.0965
v 0.0679 0.8781 -0.0165
v 0.0679 0.8781 -0.0165
v 0.0679 0.8781 -0.0165
v 0.0679 0.8781 -0.0165
v -0.1691 0.6802 0.2660
v -0.1691 0.6802 0.2660
v -0.1691 0.6802 0.2660
v -0.1691 0.6802 0.2660
v -0.0891 0.7602 0.2660
v -0.1691 0.7602 0.3460
v -0.2491 0.7602 0.2660
v -0.1691 0.7602 0.1860
v -0.1691 0.8402 0.2660
v -0.1691 0.8402 0.2660
v -0.1691 0.8402 0.2660
v -0.1691 0.8402 0.2660
v -0.3599 0.6512 -0.1976
v -0.3599 0.6512 -0.1976
v -0.3599 0.6512 -0.1976
v -0.3599 0.6512 -0.1976
v -0.2799 0.7312 -0.1976
v -0.3599 0.7312 -0.1176
v -0.4399 0.7312 -0.1976
v -0.3599 0.7312 -0.2776
v -0.3599 0.8112 -0.1976
v -0.3599 0.8112 -0.1976
v -0.3599 0.8112 -0.1976
v -0.3599 0.8112 -0.1976
v 0.4012 0.6454 -0.1453
v 0.4012 0.6454 -0.1453
v 0.4012 0.6454 -0.1453
v 0.4012 0.6454 -0.1453
v 0.4812 0.7254 -0.1453
v 0.4012 0.7254 -0.0653
v 0.3212 0.7254 -0.1453
v 0.4012 0.7254 -0.2253
v 0.4012 0.8054 -0.1453
v 0.4012 0.8054 -0.1453
v 0.4012 0.8054 -0.1453
v 0.4012 0.8054 -0.1453
v 0.5860 0.5449 0.2349
v 0.5860 0.5449 0.2349
v 0.5860 0.5449 0.2349
v 0.5860 0.5449 0.2349
v 0.6660 0.6249 0.2349
v 0.5860 0.6249 0.3149
v 0.5060 0.6249 0.2349
v 0.5860 0.6249 0.1549
v 0.5860 0.7049 0.2349
v 0.5860 0.7049 0.2349
v 0.5860 0.7049 0.2349
v 0.5860 0.7049 0.2349
vn 0.0000 1.0000 0.0000
vn 0.0000 1.0000 0.0000
vn 0.0000 1.0000 -0.0000
vn 0.0000 1.0000 0.0000
vn 0.0000 1.0000 0.0000
vn 0.0000 1.0000 0.0000
vn 0.0000 1.0000 0.0000
vn 0.0000 1.0000 0.0000
vn 0.0000 1.0000 0.0000
vn -0.0000 1.0000 0.0000
vn -0.8693 0.4057 -0.2824
vn -0.8693 0.4057 -0.2824
vn -0.5372 0.4057 -0.7395
vn -0.5372 0.4057 -0.7395
vn -0.0000 0.4057 -0.9140
vn -0.0000 0.4057 -0.9140
vn 0.5372 0.4057 -0.7395
vn 0.5372 0.4057 -0.7395
vn 0.8693 0.4057 -0.2824
vn 0.8693 0.4057 -0.2824
vn 0.8693 0.4057 0.2824
vn 0.8693 0.4057 0.2824
vn 0.5372 0.4057 0.7395
vn 0.5372 0.4057 0.7395
vn 0.0000 0.4057 0.9140
vn 0.0000 0.4057 0.9140
vn -0.5372 0.4057 0.7395
vn -0.5372 0.4057 0.7395
vn -0.8693 0.4057 0.2824
vn -0.8693 0.4057 0.2824
vn -0.9042 -0.3100 -0.2938
vn -0.9042 -0.3100 -0.2938
vn -0.5588 -0.3100 -0.7692
vn -0.5588 -0.3100 -0.7692
vn -0.0000 -0.3100 -0.9507
vn -0.0000 -0.3100 -0.9507
vn 0.5588 -0.3100 -0.7692
vn 0.5588 -0.3100 -0.7692
vn 0.9042 -0.3100 -0.2938
vn 0.9042 -0.3100 -0.2938
vn 0.9042 -0.3100 0.2938
vn 0.9042 -0.3100 0.2938
vn 0.5588 -0.3100 0.7692
vn 0.5588 -0.3100 0.7692
vn 0.0000 -0.3100 0.9507
vn 0.0000 -0.3100 0.9507
vn -0.5588 -0.3100 0.7692
vn -0.5588 -0.3100 0.7692
vn -0.9042 -0.3100 0.2938
vn -0.9042 -0.3100 0.2938
vn -0.5244 -0.8343 -0.1704
vn -0.5244 -0.8343 -0.1704
vn -0.3241 -0.8343 -0.4461
vn -0.3241 -0.8343 -0.4461
vn -0.0000 -0.8343 -0.5514
vn -0.0000 -0.8343 -0.5514
vn 0.3241 -0.8343 -0.4461
vn 0.3241 -0.8343 -0.4461
vn 0.5244 -0.8343 -0.1704
vn 0.5244 -0.8343 -0.1704
vn 0.5244 -0.8343 0.1704
vn 0.5244 -0.8343 0.1704
vn 0.3241 -0.8343 0.4461
vn 0.3241 -0.8343 0.4461
vn 0.0000 -0.8343 0.5514
vn 0.0000 -0.8343 0.5514
vn -0.3241 -0.8343 0.4461
vn -0.3241 -0.8343 0.4461
vn -0.5244 -0.8343 0.1704
vn -0.5244 -0.8343 0.1704
vn -0.1084 -0.9935 -0.0352
vn -0.0670 -0.9935 -0.0922
vn -0.0000 -0.9935 -0.1140
vn 0.0670 -0.9935 -0.0922
vn 0.1084 -0.9935 -0.0352
vn 0.1084 -0.9935 0.0352
vn 0.0670 -0.9935 0.0922
vn 0.0000 -0.9935 0.1140
vn -0.0670 -0.9935 0.0922
vn -0.1084 -0.9935 0.0352
vn -0.5774 0.5774 -0.5774
vn 0.5774 0.5774 -0.5774
vn 0.5774 0.5774 0.5774
vn -0.5774 0.5774 0.5774
vn -0.5774 -0.5774 -0.5774
vn 0.5774 -0.5774 -0.5774
vn 0.5774 -0.5774 0.5774
vn -0.5774 -0.5774 0.5774
vn -0.5774 0.5774 -0.5774
vn 0.5774 0.5774 -0.5774
vn 0.5774 0.5774 0.5774
vn -0.5774 0.5774 0.5774
vn -0.5774 -0.5774 -0.5774
vn 0.5774 -0.5774 -0.5774
vn 0.5774 -0.5774 0.5774
vn -0.5774 -0.5774 0.5774
vn -0.5774 0.5774 -0.5774
vn 0.5774 0.5774 -0.5774
vn 0.5774 0.5774 0.5774
vn -0.5774 0.5774 0.5774
vn -0.5774 -0.5774 -0.5774
vn 0.5774 -0.5774 -0.5774
vn 0.5774 -0.5774 0.5774
vn -0.5774 -0.5774 0.5774
vn -0.5774 0.5774 -0.5774
vn 0.5774 0.5774 -0.5774
vn 0.5774 0.5774 0.5774
vn -0.5774 0.5774 0.5774
vn -0.5774 -0.5774 -0.5774
vn 0.5774 -0.5774 -0.5774
vn 0.5774 -0.5774 0.5774
vn -0.5774 -0.5774 0.5774
vn -0.5774 0.5774 -0.5774
vn 0.5774 0.5774 -0.5774
vn 0.5774 0.5774 0.5774
vn -0.5774 0.5774 0.5774
vn -0.5774 -0.5774 -0.5774
vn 0.5774 -0.5774 -0.5774
vn 0.5774 -0.5774 0.5774
vn -0.5774 -0.5774 0.5774
vn -0.5774 0.5774 -0.5774
vn 0.5774 0.5774 -0.5774
vn 0.5774 0.5774 0.5774
vn -0.5774 0.5774 0.5774
vn -0.5774 -0.5774 -0.5774
vn 0.5774 -0.5774 -0.5774
vn 0.5774 -0.5774 0.5774
vn -0.5774 -0.5774 0.5774
vn -0.5774 0.5774 -0.5774
vn 0.5774 0.5774 -0.5774
vn 0.5774 0.5774 0.5774
vn -0.5774 0.5774 0.5774
vn -0.5774 -0.5774 -0.5774
vn 0.5774 -0.5774 -0.5774
vn 0.5774 -0.5774 0.5774
vn -0.5774 -0.5774 0.5774
vn -0.5774 0.5774 -0.5774
vn 0.5774 0.5774 -0.5774
vn 0.5774 0.5774 0.5774
vn -0.5774 0.5774 0.5774
vn -0.5774 -0.5774 -0.5774
vn 0.5774 -0.5774 -0.5774
vn 0.5774 -0.5774 0.5774
vn -0.5774 -0.5774 0.5774
vn -0.5774 0.5774 -0.5774
vn 0.5774 0.5774 -0.5774
vn 0.5774 0.5774 0.5774
vn -0.5774 0.5774 0.5774
vn -0.5774 -0.5774 -0.5774
vn 0.5774 -0.5774 -0.5774
vn 0.5774 -0.5774 0.5774
vn -0.5774 -0.5774 0.5774
vn -0.5774 0.5774 -0.5774
vn 0.5774 0.5774 -0.5774
vn 0.5774 0.5774 0.5774
vn -0.5774 0.5774 0.5774
vn -0.5774 -0.5774 -0.5774
vn 0.5774 -0.5774 -0.5774
vn 0.5774 -0.5774 0.5774
vn -0.5774 -0.5774 0.5774
vn -0.5774 0.5774 -0.5774
vn 0.5774 0.5774 -0.5774
vn 0.5774 0.5774 0.5774
vn -0.5774 0.5774 0.5774
vn -0.5774 -0.5774 -0.5774
vn 0.5774 -0.5774 -0.5774
vn 0.5774 -0.5774 0.5774
vn -0.5774 -0.5774 0.5774
vn -0.5774 0.5774 -0.5774
vn 0.5774 0.5774 -0.5774
vn 0.5774 0.5774 0.5774
vn -0.5774 0.5774 0.5774
vn -0.5774 -0.5774 -0.5774
vn 0.5774 -0.5774 -0.5774
vn 0.5774 -0.5774 0.5774
vn -0.5774 -0.5774 0.5774
vn -0.5774 0.5774 -0.5774
vn 0.5774 0.5774 -0.5774
vn 0.5774 0.5774 0.5774
vn -0.5774 0.5774 0.5774
vn -0.5774 -0.5774 -0.5774
vn 0.5774 -0.5774 -0.5774
vn 0.5774 -0.5774 0.5774
vn -0.5774 -0.5774 0.5774
vn -0.5774 0.5774 -0.5774
vn 0.5774 0.5774 -0.5774
vn 0.5774 0.5774 0.5774
vn -0.5774 0.5774 0.5774
vn -0.5774 -0.5774 -0.5774
vn 0.5774 -0.5774 -0.5774
vn 0.5774 -0.5774 0.5774
vn -0.5774 -0.5774 0.5774
vn -0.5774 0.5774 -0.5774
vn 0.5774 0.5774 -0.5774
vn 0.5774 0.5774 0.5774
vn -0.5774 0.5774 0.5774
vn -0.5774 -0.5774 -0.5774
vn 0.5774 -0.5774 -0.5774
vn 0.5774 -0.5774 0.5774
vn -0.5774 -0.5774 0.5774
vn -0.5774 0.5774 -0.5774
vn 0.5774 0.5774 -0.5774
vn 0.5774 0.5774 0.5774
vn -0.5774 0.5774 0.5774
vn -0.5774 -0.5774 -0.5774
vn 0.5774 -0.5774 -0.5774
vn 0.5774 -0.5774 0.5774
vn -0.5774 -0.5774 0.5774
vn -0.5774 0.5774 -0.5774
vn 0.5774 0.5774 -0.5774
vn 0.5774 0.5774 0.5774
vn -0.5774 0.5774 0.5774
vn -0.5774 -0.5774 -0.5774
vn 0.5774 -0.5774 -0.5774
vn 0.5774 -0.5774 0.5774
vn -0.5774 -0.5774 0.5774
vn -0.5774 0.5774 -0.5774
vn 0.5774 0.5774 -0.5774
vn 0.5774 0.5774 0.5774
vn -0.5774 0.5774 0.5774
vn -0.5774 -0.5774 -0.5774
vn 0.5774 -0.5774 -0.5774
vn 0.5774 -0.5774 0.5774
vn -0.5774 -0.5774 0.5774
vn -0.5774 0.5774 -0.5774
vn 0.5774 0.5774 -0.5774
vn 0.5774 0.5774 0.5774
vn -0.5774 0.5774 0.5774
vn -0.5774 -0.5774 -0.5774
vn 0.5774 -0.5774 -0.5774
vn 0.5774 -0.5774 0.5774
vn -0.5774 -0.5774 0.5774
vn -0.5774 0.5774 -0.5774
vn 0.5774 0.5774 -0.5774
vn 0.5774 0.5774 0.5774
vn -0.5774 0.5774 0.5774
vn -0.5774 -0.5774 -0.5774
vn 0.5774 -0.5774 -0.5774
vn 0.5774 -0.5774 0.5774
vn -0.5774 -0.5774 0.5774
vn -0.5774 0.5774 -0.5774
vn 0.5774 0.5774 -0.5774
vn 0.5774 0.5774 0.5774
vn -0.5774 0.5774 0.5774
vn -0.5774 -0.5774 -0.5774
vn 0.5774 -0.5774 -0.5774
vn 0.5774 -0.5774 0.5774
vn -0.5774 -0.5774 0.5774
vn -0.5774 0.5774 -0.5774
vn 0.5774 0.5774 -0.5774
vn 0.5774 0.5774 0.5774
vn -0.5774 0.5774 0.5774
vn -0.5774 -0.5774 -0.5774
vn 0.5774 -0.5774 -0.5774
vn 0.5774 -0.5774 0.5774
vn -0.5774 -0.5774 0.5774
vn -0.5774 0.5774 -0.5774
vn 0.5774 0.5774 -0.5774
vn 0.5774 0.5774 0.5774
vn -0.5774 0.5774 0.5774
vn -0.5774 -0.5774 -0.5774
vn 0.5774 -0.5774 -0.5774
vn 0.5774 -0.5774 0.5774
vn -0.5774 -0.5774 0.5774
vn -0.5774 0.5774 -0.5774
vn 0.5774 0.5774 -0.5774
vn 0.5774 0.5774 0.5774
vn -0.5774 0.5774 0.5774
vn -0.5774 -0.5774 -0.5774
vn 0.5774 -0.5774 -0.5774
vn 0.5774 -0.5774 0.5774
vn -0.5774 -0.5774 0.5774
vn -0.5774 0.5774 -0.5774
vn 0.5774 0.5774 -0.5774
vn 0.5774 0.5774 0.5774
vn -0.5774 0.5774 0.5774
vn -0.5774 -0.5774 -0.5774
vn 0.5774 -0.5774 -0.5774
vn 0.5774 -0.5774 0.5774
vn -0.5774 -0.5774 0.5774
vn -0.5774 0.5774 -0.5774
vn 0.5774 0.5774 -0.5774
vn 0.5774 0.5774 0.5774
vn -0.5774 0.5774 0.5774
vn -0.5774 -0.5774 -0.5774
vn 0.5774 -0.5774 -0.5774
vn 0.5774 -0.5774 0.5774
vn -0.5774 -0.5774 0.5774
usemtl c0
f 1//1 12//1 11//1
f 2//2 13//2 12//2
f 3//3 14//3 13//3
f 4//4 15//4 14//4
f 5//5 16//5 15//5
f 6//6 17//6 16//6
f 7//7 18//7 17//7
f 8//8 19//8 18//8
f 9//9 20//9 19//9
f 10//10 11//10 20//10
f 11//11 12//11 22//11
f 11//12 22//12 21//12
f 12//13 13//13 23//13
f 12//14 23//14 22//14
f 13//15 14//15 24//15
f 13//16 24//16 23//16
f 14//17 15//17 25//17
f 14//18 25//18 24//18
f 15//19 16//19 26//19
f 15//20 26//20 25//20
f 16//21 17//21 27//21
f 16//22 27//22 26//22
f 17//23 18//23 28//23
f 17//24 28//24 27//24
f 18//25 19//25 29//25
f 18//26 29//26 28//26
f 19//27 20//27 30//27
f 19//28 30//28 29//28
f 20//29 11//29 21//29
f 20//30 21//30 30//30
f 21//31 22//31 32//31
f 21//32 32//32 31//32
f 22//33 23//33 33//33
f 22//34 33//34 32//34
f 23//35 24//35 34//35
f 23//36 34//36 33//36
f 24//37 25//37 35//37
f 24//38 35//38 34//38
f 25//39 26//39 36//39
f 25//40 36//40 35//40
f 26//41 27//41 37//41
f 26//42 37//42 36//42
f 27//43 28//43 38//43
f 27//44 38//44 37//44
f 28//45 29//45 39//45
f 28//46 39//46 38//46
f 29//47 30//47 40//47
f 29//48 40//48 39//48
f 30//49 21//49 31//49
f 30//50 31//50 40//50
f 31//51 32//51 42//51
f 31//52 42//52 41//52
f 32//53 33//53 43//53
f 32//54 43//54 42//54
f 33//55 34//55 44//55
f 33//56 44//56 43//56
f 34//57 35//57 45//57
f 34//58 45//58 44//58
f 35//59 36//59 46//59
f 35//60 46//60 45//60
f 36//61 37//61 47//61
f 36//62 47//62 46//62
f 37//63 38//63 48//63
f 37//64 48//64 47//64
f 38//65 39//65 49//65
f 38//66 49//66 48//66
f 39//67 40//67 50//67
f 39//68 50//68 49//68
f 40//69 31//69 41//69
f 40//70 41//70 50//70
f 41//71 42//71 52//71
f 42//72 43//72 53//72
f 43//73 44//73 54//73
f 44//74 45//74 55//74
f 45//75 46//75 56//75
f 46//76 47//76 57//76
f 47//77 48//77 58//77
f 48//78 49//78 59//78
f 49//79 50//79 60//79
f 50//80 41//80 51//80
usemtl c1
f 61//81 66//81 65//81
f 62//82 67//82 66//82
f 63//83 68//83 67//83
f 64//84 65//84 68//84
f 65//85 66//85 70//85
f 66//86 67//86 71//86
f 67//87 68//87 72//87
f 68//88 65//88 69//88
usemtl c2
f 73//89 78//89 77//89
f 74//90 79//90 78//90
f 75//91 80//91 79//91
f 76//92 77//92 80//92
f 77//93 78//93 82//93
f 78//94 79//94 83//94
f 79//95 80//95 84//95
f 80//96 77//96 81//96
usemtl c1
f 85//97 90//97 89//97
f 86//98 91//98 90//98
f 87//99 92//99 91//99
f 88//100 89//100 92//100
f 89//101 90//101 94//101
f 90//102 91//102 95//102
f 91//103 92//103 96//103
f 92//104 89//104 93//104
f 97//105 102//105 101//105
f 98//106 103//106 102//106
f 99//107 104//107 103//107
f 100//108 101//108 104//108
f 101//109 102//109 106//109
f 102//110 103//110 107//110
f 103//111 104//111 108//111
f 104//112 101//112 105//112
f 109//113 114//113 113//113
f 110//114 115//114 114//114
f 111//115 116//115 115//115
f 112//116 113//116 116//116
f 113//117 114//117 118//117
f 114//118 115//118 119//118
f 115//119 116//119 120//119
f 116//120 113//120 117//120
f 121//121 126//121 125//121
f 122//122 127//122 126//122
f 123//123 128//123 127//123
f 124//124 125//124 128//124
f 125//125 126//125 130//125
f 126//126 127//126 131//126
f 127//127 128//127 132//127
f 128//128 125//128 129//128
f 133//129 138//129 137//129
f 134//130 139//130 138//130
f 135//131 140//131 139//131
f 136//132 137//132 140//132
f 137//133 138//133 142//133
f 138//134 139//134 143//134
f 139//135 140//135 144//135
f 140//136 137//136 141//136
f 145//137 150//137 149//137
f 146//138 151//138 150//138
f 147//139 152//139 151//139
f 148//140 149//140 152//140
f 149//141 150//141 154//141
f 150//142 151//142 155//142
f 151//143 152//143 156//143
f 152//144 149//144 153//144
usemtl c2
f 157//145 162//145 161//145
f 158//146 163//146 162//146
f 159//147 164//147 163//147
f 160//148 161//148 164//148
f 161//149 162//149 166//149
f 162//150 163//150 167//150
f 163//151 164//151 168//151
f 164//152 161//152 165//152
f 169//153 174//153 173//153
f 170//154 175//154 174//154
f 171//155 176//155 175//155
f 172//156 173//156 176//156
f 173//157 174//157 178//157
f 174//158 175//158 179//158
f 175//159 176//159 180//159
f 176//160 173//160 177//160
usemtl c1
f 181//161 186//161 185//161
f 182//162 187//162 186//162
f 183//163 188//163 187//163
f 184//164 185//164 188//164
f 185//165 186//165 190//165
f 186//166 187//166 191//166
f 187//167 188//167 192//167
f 188//168 185//168 189//168
usemtl c2
f 193//169 198//169 197//169
f 194//170 199//170 198//170
f 195//171 200//171 199//171
f 196//172 197//172 200//172
f 197//173 198//173 202//173
f 198//174 199//174 203//174
f 199//175 200//175 204//175
f 200//176 197//176 201//176
usemtl c1
f 205//177 210//177 209//177
f 206//178 211//178 210//178
f 207//179 212//179 211//179
f 208//180 209//180 212//180
f 209//181 210//181 214//181
f 210//182 211//182 215//182
f 211//183 212//183 216//183
f 212//184 209//184 213//184
usemtl c2
f 217//185 222//185 221//185
f 218//186 223//186 222//186
f 219//187 224//187 223//187
f 220//188 221//188 224//188
f 221//189 222//189 226//189
f 222//190 223//190 227//190
f 223//191 224//191 228//191
f 224//192 221//192 225//192
f 229//193 234//193 233//193
f 230//194 235//194 234//194
f 231//195 236//195 235//195
f 232//196 233//196 236//196
f 233//197 234//197 238//197
f 234//198 235//198 239//198
f 235//199 236//199 240//199
f 236//200 233//200 237//200
usemtl c1
f 241//201 246//201 245//201
f 242//202 247//202 246//202
f 243//203 248//203 247//203
f 244//204 245//204 248//204
f 245//205 246//205 250//205
f 246//206 247//206 251//206
f 247//207 248//207 252//207
f 248//208 245//208 249//208
usemtl c2
f 253//209 258//209 257//209
f 254//210 259//210 258//210
f 255//211 260//211 259//211
f 256//212 257//212 260//212
f 257//213 258//213 262//213
f 258//214 259//214 263//214
f 259//215 260//215 264//215
f 260//216 257//216 261//216
f 265//217 270//217 269//217
f 266//218 271//218 270//218
f 267//219 272//219 271//219
f 268//220 269//220 272//220
f 269//221 270//221 274//221
f 270//222 271//222 275//222
f 271//223 272//223 276//223
f 272//224 269//224 273//224
usemtl c1
f 277//225 282//225 281//225
f 278//226 283//226 282//226
f 279//227 284//227 283//227
f 280//228 281//228 284//228
f 281//229 282//229 286//229
f 282//230 283//230 287//230
f 283//231 284//231 288//231
f 284//232 281//232 285//232
usemtl c2
f 289//233 294//233 293//233
f 290//234 295//234 294//234
f 291//235 296//235 295//235
f 292//236 293//236 296//236
f 293//237 294//237 298//237
f 294//238 295//238 299//238
f 295//239 296//239 300//239
f 296//240 293//240 297//240
usemtl c1
f 301//241 306//241 305//241
f 302//242 307//242 306//242
f 303//243 308//243 307//243
f 304//244 305//244 308//244
f 305//245 306//245 310//245
f 306//246 307//246 311//246
f 307//247 308//247 312//247
f 308//248 305//248 309//248
usemtl c2
f 313//249 318//249 317//249
f 314//250 319//250 318//250
f 315//251 320//251 319//251
f 316//252 317//252 320//252
f 317//253 318//253 322//253
f 318//254 319//254 323//254
f 319//255 320//255 324//255
f 320//256 317//256 321//256
f 325//257 330//257 329//257
f 326//258 331//258 330//258
f 327//259 332//259 331//259
f 328//260 329//260 332//260
f 329//261 330//261 334//261
f 330//262 331//262 335//262
f 331//263 332//263 336//263
f 332//264 329//264 333//264
usemtl c1
f 337//265 342//265 341//265
f 338//266 343//266 342//266
f 339//267 344//267 343//267
f 340//268 341//268 344//268
f 341//269 342//269 346//269
f 342//270 343//270 347//270
f 343//271 344//271 348//271
f 344//272 341//272 345//272
f 349//273 354//273 353//273
f 350//274 355//274 354//274
f 351//275 356//275 355//275
f 352//276 353//276 356//276
f 353//277 354//277 358//277
f 354//278 355//278 359//278
f 355//279 356//279 360//279
f 356//280 353//280 357//280
usemtl c2
f 361//281 366//281 365//281
f 362//282 367//282 366//282
f 363//283 368//283 367//283
f 364//284 365//284 368//284
f 365//285 366//285 370//285
f 366//286 367//286 371//286
f 367//287 368//287 372//287
f 368//288 365//288 369//288
