mtllib Food_Potato.mtl
v 0.0974 -0.6932 0.0000
v 0.0974 -0.6932 0.0000
v 0.0974 -0.6932 0.0000
v 0.0974 -0.6932 0.0000
v 0.0974 -0.6932 0.0000
v 0.0974 -0.6932 0.0000
v 0.0974 -0.6932 0.0000
v 0.7269 -0.3977 -0.2418
v 0.6252 -0.4120 0.2544
v 0.1046 -0.4851 0.5591
v -0.4429 -0.5621 0.4428
v -0.6050 -0.5849 -0.0070
v -0.2597 -0.5363 -0.4515
v 0.3331 -0.4530 -0.5560
v 0.9305 0.1308 -0.3420
v 0.7867 0.1106 0.3598
v 0.0505 0.0071 0.7907
v -0.7238 -0.1017 0.6262
v -0.9530 -0.1339 -0.0099
v -0.4646 -0.0653 -0.6385
v 0.3736 0.0525 -0.7863
v 0.5891 0.5826 -0.2418
v 0.4874 0.5683 0.2544
v -0.0332 0.4952 0.5591
v -0.5807 0.4182 0.4428
v -0.7428 0.3954 -0.0070
v -0.3974 0.4440 -0.4515
v 0.1953 0.5273 -0.5560
v -0.0974 0.6932 -0.0000
v -0.0974 0.6932 0.0000
v -0.0974 0.6932 0.0000
v -0.0974 0.6932 0.0000
v -0.0974 0.6932 -0.0000
v -0.0974 0.6932 -0.0000
v -0.0974 0.6932 -0.0000
v -0.4000 0.4300 0.4000
v -0.4000 0.4300 0.4000
v -0.4000 0.4300 0.4000
v -0.4000 0.4300 0.4000
v -0.3300 0.5000 0.4000
v -0.4000 0.5000 0.4700
v -0.4700 0.5000 0.4000
v -0.4000 0.5000 0.3300
v -0.4000 0.5700 0.4000
v -0.4000 0.5700 0.4000
v -0.4000 0.5700 0.4000
v -0.4000 0.5700 0.4000
v 0.3500 0.4800 -0.3000
v 0.3500 0.4800 -0.3000
v 0.3500 0.4800 -0.3000
v 0.3500 0.4800 -0.3000
v 0.4200 0.5500 -0.3000
v 0.3500 0.5500 -0.2300
v 0.2800 0.5500 -0.3000
v 0.3500 0.5500 -0.3700
v 0.3500 0.6200 -0.3000
v 0.3500 0.6200 -0.3000
v 0.3500 0.6200 -0.3000
v 0.3500 0.6200 -0.3000
v 0.1000 0.0300 0.6000
v 0.1000 0.0300 0.6000
v 0.1000 0.0300 0.6000
v 0.1000 0.0300 0.6000
v 0.1700 0.1000 0.6000
v 0.1000 0.1000 0.6700
v 0.0300 0.1000 0.6000
v 0.1000 0.1000 0.5300
v 0.1000 0.1700 0.6000
v 0.1000 0.1700 0.6000
v 0.1000 0.1700 0.6000
v 0.1000 0.1700 0.6000
vn -0.4445 0.8934 -0.0654
vn -0.3166 0.8903 -0.3272
vn -0.0577 0.9359 -0.3475
vn 0.1526 0.9827 -0.1048
vn 0.1466 0.9646 0.2192
vn -0.0644 0.9258 0.3726
vn -0.3297 0.9095 0.2531
vn -0.9287 0.3236 -0.1810
vn -0.9287 0.3236 -0.1810
vn -0.5117 0.3191 -0.7977
vn -0.5117 0.3191 -0.7977
vn 0.1285 0.4337 -0.8918
vn 0.1285 0.4337 -0.8918
vn 0.7557 0.5813 -0.3018
vn 0.7557 0.5813 -0.3018
vn 0.6528 0.5074 0.5626
vn 0.6528 0.5074 0.5626
vn 0.1032 0.4055 0.9083
vn 0.1032 0.4055 0.9083
vn -0.6109 0.3683 0.7009
vn -0.6109 0.3683 0.7009
vn -0.8035 -0.5671 -0.1810
vn -0.8035 -0.5671 -0.1810
vn -0.4039 -0.4478 -0.7977
vn -0.4039 -0.4478 -0.7977
vn 0.2431 -0.3815 -0.8918
vn 0.2431 -0.3815 -0.8918
vn 0.8866 -0.3505 -0.3018
vn 0.8866 -0.3505 -0.3018
vn 0.7673 -0.3078 0.5626
vn 0.7673 -0.3078 0.5626
vn 0.2109 -0.3613 0.9083
vn 0.2109 -0.3613 0.9083
vn -0.4857 -0.5224 0.7009
vn -0.4857 -0.5224 0.7009
vn -0.1810 -0.9813 -0.0654
vn -0.0590 -0.9431 -0.3272
vn 0.2025 -0.9155 -0.3475
vn 0.4176 -0.9026 -0.1048
vn 0.4068 -0.8868 0.2192
vn 0.1933 -0.9077 0.3726
vn -0.0663 -0.9652 0.2531
vn -0.5774 0.5774 -0.5774
vn 0.5774 0.5774 -0.5774
vn 0.5774 0.5774 0.5774
vn -0.5774 0.5774 0.5774
vn -0.5774 -0.5774 -0.5774
vn 0.5774 -0.5774 -0.5774
vn 0.5774 -0.5774 0.5774
vn -0.5774 -0.5774 0.5774
vn -0.5774 0.5774 -0.5774
vn 0.5774 0.5774 -0.5774
vn 0.5774 0.5774 0.5774
vn -0.5774 0.5774 0.5774
vn -0.5774 -0.5774 -0.5774
vn 0.5774 -0.5774 -0.5774
vn 0.5774 -0.5774 0.5774
vn -0.5774 -0.5774 0.5774
vn -0.5774 0.5774 -0.5774
vn 0.5774 0.5774 -0.5774
vn 0.5774 0.5774 0.5774
vn -0.5774 0.5774 0.5774
vn -0.5774 -0.5774 -0.5774
vn 0.5774 -0.5774 -0.5774
vn 0.5774 -0.5774 0.5774
vn -0.5774 -0.5774 0.5774
usemtl c0
f 1//1 9//1 8//1
f 2//2 10//2 9//2
f 3//3 11//3 10//3
f 4//4 12//4 11//4
f 5//5 13//5 12//5
f 6//6 14//6 13//6
f 7//7 8//7 14//7
f 8//8 9//8 16//8
f 8//9 16//9 15//9
f 9//10 10//10 17//10
f 9//11 17//11 16//11
f 10//12 11//12 18//12
f 10//13 18//13 17//13
f 11//14 12//14 19//14
f 11//15 19//15 18//15
f 12//16 13//16 20//16
f 12//17 20//17 19//17
f 13//18 14//18 21//18
f 13//19 21//19 20//19
f 14//20 8//20 15//20
f 14//21 15//21 21//21
f 15//22 16//22 23//22
f 15//23 23//23 22//23
f 16//24 17//24 24//24
f 16//25 24//25 23//25
f 17//26 18//26 25//26
f 17//27 25//27 24//27
f 18//28 19//28 26//28
f 18//29 26//29 25//29
f 19//30 20//30 27//30
f 19//31 27//31 26//31
f 20//32 21//32 28//32
f 20//33 28//33 27//33
f 21//34 15//34 22//34
f 21//35 22//35 28//35
f 22//36 23//36 30//36
f 23//37 24//37 31//37
f 24//38 25//38 32//38
f 25//39 26//39 33//39
f 26//40 27//40 34//40
f 27//41 28//41 35//41
f 28//42 22//42 29//42
usemtl c1
f 36//43 41//43 40//43
f 37//44 42//44 41//44
f 38//45 43//45 42//45
f 39//46 40//46 43//46
f 40//47 41//47 45//47
f 41//48 42//48 46//48
f 42//49 43//49 47//49
f 43//50 40//50 44//50
f 48//51 53//51 52//51
f 49//52 54//52 53//52
f 50//53 55//53 54//53
f 51//54 52//54 55//54
f 52//55 53//55 57//55
f 53//56 54//56 58//56
f 54//57 55//57 59//57
f 55//58 52//58 56//58
f 60//59 65//59 64//59
f 61//60 66//60 65//60
f 62//61 67//61 66//61
f 63//62 64//62 67//62
f 64//63 65//63 69//63
f 65//64 66//64 70//64
f 66//65 67//65 71//65
f 67//66 64//66 68//66
