mtllib Food_Gyeranppang.mtl
v 1.0000 0.0000 0.2500
v 0.9531 0.0000 0.4250
v 0.8250 0.0000 0.5531
v 0.6500 0.0000 0.6000
v -0.6500 0.0000 0.6000
v -0.8250 0.0000 0.5531
v -0.9531 0.0000 0.4250
v -1.0000 0.0000 0.2500
v -1.0000 0.0000 -0.2500
v -0.9531 0.0000 -0.4250
v -0.8250 0.0000 -0.5531
v -0.6500 0.0000 -0.6000
v 0.6500 0.0000 -0.6000
v 0.8250 0.0000 -0.5531
v 0.9531 0.0000 -0.4250
v 1.0000 0.0000 -0.2500
v 1.0000 0.7000 0.2500
v 0.9531 0.7000 0.4250
v 0.8250 0.7000 0.5531
v 0.6500 0.7000 0.6000
v -0.6500 0.7000 0.6000
v -0.8250 0.7000 0.5531
v -0.9531 0.7000 0.4250
v -1.0000 0.7000 0.2500
v -1.0000 0.7000 -0.2500
v -0.9531 0.7000 -0.4250
v -0.8250 0.7000 -0.5531
v -0.6500 0.7000 -0.6000
v 0.6500 0.7000 -0.6000
v 0.8250 0.7000 -0.5531
v 0.9531 0.7000 -0.4250
v 1.0000 0.7000 -0.2500
v -0.0000 0.0000 -0.0000
v -0.0000 0.7000 -0.0000
v 0.9000 0.0000 0.2000
v 0.8598 0.0000 0.3500
v 0.7500 0.0000 0.4598
v 0.6000 0.0000 0.5000
v -0.6000 0.0000 0.5000
v -0.7500 0.0000 0.4598
v -0.8598 0.0000 0.3500
v -0.9000 0.0000 0.2000
v -0.9000 0.0000 -0.2000
v -0.8598 0.0000 -0.3500
v -0.7500 0.0000 -0.4598
v -0.6000 0.0000 -0.5000
v 0.6000 0.0000 -0.5000
v 0.7500 0.0000 -0.4598
v 0.8598 0.0000 -0.3500
v 0.9000 0.0000 -0.2000
v 0.9000 0.7600 0.2000
v 0.8598 0.7600 0.3500
v 0.7500 0.7600 0.4598
v 0.6000 0.7600 0.5000
v -0.6000 0.7600 0.5000
v -0.7500 0.7600 0.4598
v -0.8598 0.7600 0.3500
v -0.9000 0.7600 0.2000
v -0.9000 0.7600 -0.2000
v -0.8598 0.7600 -0.3500
v -0.7500 0.7600 -0.4598
v -0.6000 0.7600 -0.5000
v 0.6000 0.7600 -0.5000
v 0.7500 0.7600 -0.4598
v 0.8598 0.7600 -0.3500
v 0.9000 0.7600 -0.2000
v 0.0000 0.0000 -0.0000
v 0.0000 0.7600 -0.0000
v 0.4600 0.7400 0.0000
v 0.3610 0.7400 0.2623
v 0.1336 0.7400 0.4112
v -0.1294 0.7400 0.3981
v -0.3275 0.7400 0.2379
v -0.5152 0.7400 0.0000
v -0.4056 0.7400 -0.2947
v -0.1507 0.7400 -0.4637
v 0.1464 0.7400 -0.4506
v 0.3721 0.7400 -0.2704
v 0.4600 0.8400 0.0000
v 0.3610 0.8400 0.2623
v 0.1336 0.8400 0.4112
v -0.1294 0.8400 0.3981
v -0.3275 0.8400 0.2379
v -0.5152 0.8400 0.0000
v -0.4056 0.8400 -0.2947
v -0.1507 0.8400 -0.4637
v 0.1464 0.8400 -0.4506
v 0.3721 0.8400 -0.2704
v -0.0055 0.7400 -0.0170
v -0.0055 0.8400 -0.0170
v 0.0000 0.6800 0.0000
v 0.0000 0.6800 0.0000
v 0.0000 0.6800 0.0000
v 0.0000 0.6800 0.0000
v 0.0000 0.6800 0.0000
v 0.0000 0.6800 0.0000
v 0.0000 0.6800 0.0000
v 0.2078 0.7800 0.0000
v 0.1296 0.7800 0.1625
v -0.0463 0.7800 0.2026
v -0.1873 0.7800 0.0902
v -0.1873 0.7800 -0.0902
v -0.0463 0.7800 -0.2026
v 0.1296 0.7800 -0.1625
v 0.2078 0.9800 0.0000
v 0.1296 0.9800 0.1625
v -0.0463 0.9800 0.2026
v -0.1873 0.9800 0.0902
v -0.1873 0.9800 -0.0902
v -0.0463 0.9800 -0.2026
v 0.1296 0.9800 -0.1625
v 0.0000 1.0800 0.0000
v 0.0000 1.0800 0.0000
v -0.0000 1.0800 0.0000
v -0.0000 1.0800 0.0000
v -0.0000 1.0800 -0.0000
v -0.0000 1.0800 -0.0000
v 0.0000 1.0800 -0.0000
vn -0.9659 0.0000 -0.2588
vn -0.9659 0.0000 -0.2588
vn 0.0000 1.0000 0.0000
vn 0.0000 -1.0000 0.0000
vn -0.7071 0.0000 -0.7071
vn -0.7071 0.0000 -0.7071
vn 0.0000 1.0000 0.0000
vn 0.0000 -1.0000 0.0000
vn -0.2588 0.0000 -0.9659
vn -0.2588 0.0000 -0.9659
vn 0.0000 1.0000 0.0000
vn 0.0000 -1.0000 0.0000
vn 0.0000 0.0000 -1.0000
vn 0.0000 0.0000 -1.0000
vn 0.0000 1.0000 -0.0000
vn 0.0000 -1.0000 0.0000
vn 0.2588 0.0000 -0.9659
vn 0.2588 0.0000 -0.9659
vn 0.0000 1.0000 0.0000
vn 0.0000 -1.0000 0.0000
vn 0.7071 0.0000 -0.7071
vn 0.7071 0.0000 -0.7071
vn 0.0000 1.0000 0.0000
vn 0.0000 -1.0000 0.0000
vn 0.9659 0.0000 -0.2588
vn 0.9659 0.0000 -0.2588
vn 0.0000 1.0000 0.0000
vn 0.0000 -1.0000 0.0000
vn 1.0000 0.0000 0.0000
vn 1.0000 -0.0000 0.0000
vn 0.0000 1.0000 0.0000
vn -0.0000 -1.0000 0.0000
vn 0.9659 0.0000 0.2588
vn 0.9659 -0.0000 0.2588
vn 0.0000 1.0000 0.0000
vn 0.0000 -1.0000 0.0000
vn 0.7071 0.0000 0.7071
vn 0.7071 -0.0000 0.7071
vn 0.0000 1.0000 0.0000
vn 0.0000 -1.0000 0.0000
vn 0.2588 0.0000 0.9659
vn 0.2588 -0.0000 0.9659
vn 0.0000 1.0000 0.0000
vn 0.0000 -1.0000 0.0000
vn 0.0000 0.0000 1.0000
vn 0.0000 0.0000 1.0000
vn 0.0000 1.0000 0.0000
vn 0.0000 -1.0000 -0.0000
vn -0.2588 0.0000 0.9659
vn -0.2588 0.0000 0.9659
vn 0.0000 1.0000 0.0000
vn 0.0000 -1.0000 0.0000
vn -0.7071 0.0000 0.7071
vn -0.7071 0.0000 0.7071
vn 0.0000 1.0000 0.0000
vn 0.0000 -1.0000 0.0000
vn -0.9659 0.0000 0.2588
vn -0.9659 0.0000 0.2588
vn 0.0000 1.0000 0.0000
vn 0.0000 -1.0000 0.0000
vn -1.0000 0.0000 0.0000
vn -1.0000 0.0000 0.0000
vn -0.0000 1.0000 0.0000
vn 0.0000 -1.0000 0.0000
vn -0.9659 0.0000 -0.2588
vn -0.9659 0.0000 -0.2588
vn 0.0000 1.0000 0.0000
vn 0.0000 -1.0000 0.0000
vn -0.7071 0.0000 -0.7071
vn -0.7071 0.0000 -0.7071
vn 0.0000 1.0000 0.0000
vn 0.0000 -1.0000 0.0000
vn -0.2588 0.0000 -0.9659
vn -0.2588 0.0000 -0.9659
vn 0.0000 1.0000 0.0000
vn 0.0000 -1.0000 0.0000
vn 0.0000 0.0000 -1.0000
vn 0.0000 0.0000 -1.0000
vn 0.0000 1.0000 -0.0000
vn 0.0000 -1.0000 0.0000
vn 0.2588 0.0000 -0.9659
vn 0.2588 0.0000 -0.9659
vn 0.0000 1.0000 0.0000
vn 0.0000 -1.0000 0.0000
vn 0.7071 0.0000 -0.7071
vn 0.7071 0.0000 -0.7071
vn 0.0000 1.0000 0.0000
vn 0.0000 -1.0000 0.0000
vn 0.9659 0.0000 -0.2588
vn 0.9659 0.0000 -0.2588
vn 0.0000 1.0000 0.0000
vn 0.0000 -1.0000 0.0000
vn 1.0000 0.0000 0.0000
vn 1.0000 -0.0000 0.0000
vn 0.0000 1.0000 0.0000
vn -0.0000 -1.0000 0.0000
vn 0.9659 0.0000 0.2588
vn 0.9659 -0.0000 0.2588
vn 0.0000 1.0000 0.0000
vn 0.0000 -1.0000 0.0000
vn 0.7071 0.0000 0.7071
vn 0.7071 -0.0000 0.7071
vn 0.0000 1.0000 0.0000
vn 0.0000 -1.0000 0.0000
vn 0.2588 0.0000 0.9659
vn 0.2588 -0.0000 0.9659
vn 0.0000 1.0000 0.0000
vn 0.0000 -1.0000 0.0000
vn 0.0000 0.0000 1.0000
vn 0.0000 0.0000 1.0000
vn 0.0000 1.0000 0.0000
vn 0.0000 -1.0000 -0.0000
vn -0.2588 0.0000 0.9659
vn -0.2588 0.0000 0.9659
vn 0.0000 1.0000 0.0000
vn 0.0000 -1.0000 0.0000
vn -0.7071 0.0000 0.7071
vn -0.7071 0.0000 0.7071
vn 0.0000 1.0000 0.0000
vn 0.0000 -1.0000 0.0000
vn -0.9659 0.0000 0.2588
vn -0.9659 0.0000 0.2588
vn 0.0000 1.0000 0.0000
vn 0.0000 -1.0000 0.0000
vn -1.0000 0.0000 0.0000
vn -1.0000 0.0000 0.0000
vn -0.0000 1.0000 0.0000
vn 0.0000 -1.0000 0.0000
vn -0.9355 0.0000 -0.3532
vn -0.9355 0.0000 -0.3532
vn 0.0000 1.0000 0.0000
vn 0.0000 -1.0000 0.0000
vn -0.5480 0.0000 -0.8365
vn -0.5480 0.0000 -0.8365
vn 0.0000 1.0000 0.0000
vn 0.0000 -1.0000 0.0000
vn 0.0498 0.0000 -0.9988
vn 0.0498 0.0000 -0.9988
vn 0.0000 1.0000 -0.0000
vn 0.0000 -1.0000 0.0000
vn 0.6287 0.0000 -0.7777
vn 0.6287 0.0000 -0.7777
vn 0.0000 1.0000 0.0000
vn 0.0000 -1.0000 0.0000
vn 0.7851 0.0000 -0.6194
vn 0.7851 0.0000 -0.6194
vn 0.0000 1.0000 0.0000
vn 0.0000 -1.0000 0.0000
vn 0.9373 0.0000 0.3484
vn 0.9373 -0.0000 0.3484
vn 0.0000 1.0000 0.0000
vn -0.0000 -1.0000 0.0000
vn 0.5525 0.0000 0.8335
vn 0.5525 -0.0000 0.8335
vn 0.0000 1.0000 0.0000
vn 0.0000 -1.0000 0.0000
vn -0.0441 0.0000 0.9990
vn -0.0441 0.0000 0.9990
vn 0.0000 1.0000 0.0000
vn 0.0000 -1.0000 -0.0000
vn -0.6239 0.0000 0.7815
vn -0.6239 0.0000 0.7815
vn 0.0000 1.0000 0.0000
vn 0.0000 -1.0000 0.0000
vn -0.9511 0.0000 0.3090
vn -0.9511 0.0000 0.3090
vn -0.0000 1.0000 0.0000
vn 0.0000 -1.0000 0.0000
vn -0.4244 0.8821 -0.2044
vn -0.1048 0.8821 -0.4592
vn 0.2937 0.8821 -0.3683
vn 0.4711 0.8821 -0.0000
vn 0.2937 0.8821 0.3683
vn -0.1048 0.8821 0.4592
vn -0.4244 0.8821 0.2044
vn -0.9010 0.0000 -0.4339
vn -0.9010 0.0000 -0.4339
vn -0.2225 0.0000 -0.9749
vn -0.2225 0.0000 -0.9749
vn 0.6235 0.0000 -0.7818
vn 0.6235 0.0000 -0.7818
vn 1.0000 0.0000 -0.0000
vn 1.0000 0.0000 -0.0000
vn 0.6235 0.0000 0.7818
vn 0.6235 0.0000 0.7818
vn -0.2225 0.0000 0.9749
vn -0.2225 0.0000 0.9749
vn -0.9010 0.0000 0.4339
vn -0.9010 0.0000 0.4339
vn -0.4244 -0.8821 -0.2044
vn -0.1048 -0.8821 -0.4592
vn 0.2937 -0.8821 -0.3683
vn 0.4711 -0.8821 -0.0000
vn 0.2937 -0.8821 0.3683
vn -0.1048 -0.8821 0.4592
vn -0.4244 -0.8821 0.2044
usemtl c0
f 1//1 2//1 18//1
f 1//2 18//2 17//2
f 33//3 2//3 1//3
f 34//4 17//4 18//4
f 2//5 3//5 19//5
f 2//6 19//6 18//6
f 33//7 3//7 2//7
f 34//8 18//8 19//8
f 3//9 4//9 20//9
f 3//10 20//10 19//10
f 33//11 4//11 3//11
f 34//12 19//12 20//12
f 4//13 5//13 21//13
f 4//14 21//14 20//14
f 33//15 5//15 4//15
f 34//16 20//16 21//16
f 5//17 6//17 22//17
f 5//18 22//18 21//18
f 33//19 6//19 5//19
f 34//20 21//20 22//20
f 6//21 7//21 23//21
f 6//22 23//22 22//22
f 33//23 7//23 6//23
f 34//24 22//24 23//24
f 7//25 8//25 24//25
f 7//26 24//26 23//26
f 33//27 8//27 7//27
f 34//28 23//28 24//28
f 8//29 9//29 25//29
f 8//30 25//30 24//30
f 33//31 9//31 8//31
f 34//32 24//32 25//32
f 9//33 10//33 26//33
f 9//34 26//34 25//34
f 33//35 10//35 9//35
f 34//36 25//36 26//36
f 10//37 11//37 27//37
f 10//38 27//38 26//38
f 33//39 11//39 10//39
f 34//40 26//40 27//40
f 11//41 12//41 28//41
f 11//42 28//42 27//42
f 33//43 12//43 11//43
f 34//44 27//44 28//44
f 12//45 13//45 29//45
f 12//46 29//46 28//46
f 33//47 13//47 12//47
f 34//48 28//48 29//48
f 13//49 14//49 30//49
f 13//50 30//50 29//50
f 33//51 14//51 13//51
f 34//52 29//52 30//52
f 14//53 15//53 31//53
f 14//54 31//54 30//54
f 33//55 15//55 14//55
f 34//56 30//56 31//56
f 15//57 16//57 32//57
f 15//58 32//58 31//58
f 33//59 16//59 15//59
f 34//60 31//60 32//60
f 16//61 1//61 17//61
f 16//62 17//62 32//62
f 33//63 1//63 16//63
f 34//64 32//64 17//64
usemtl c1
f 35//65 36//65 52//65
f 35//66 52//66 51//66
f 67//67 36//67 35//67
f 68//68 51//68 52//68
f 36//69 37//69 53//69
f 36//70 53//70 52//70
f 67//71 37//71 36//71
f 68//72 52//72 53//72
f 37//73 38//73 54//73
f 37//74 54//74 53//74
f 67//75 38//75 37//75
f 68//76 53//76 54//76
f 38//77 39//77 55//77
f 38//78 55//78 54//78
f 67//79 39//79 38//79
f 68//80 54//80 55//80
f 39//81 40//81 56//81
f 39//82 56//82 55//82
f 67//83 40//83 39//83
f 68//84 55//84 56//84
f 40//85 41//85 57//85
f 40//86 57//86 56//86
f 67//87 41//87 40//87
f 68//88 56//88 57//88
f 41//89 42//89 58//89
f 41//90 58//90 57//90
f 67//91 42//91 41//91
f 68//92 57//92 58//92
f 42//93 43//93 59//93
f 42//94 59//94 58//94
f 67//95 43//95 42//95
f 68//96 58//96 59//96
f 43//97 44//97 60//97
f 43//98 60//98 59//98
f 67//99 44//99 43//99
f 68//100 59//100 60//100
f 44//101 45//101 61//101
f 44//102 61//102 60//102
f 67//103 45//103 44//103
f 68//104 60//104 61//104
f 45//105 46//105 62//105
f 45//106 62//106 61//106
f 67//107 46//107 45//107
f 68//108 61//108 62//108
f 46//109 47//109 63//109
f 46//110 63//110 62//110
f 67//111 47//111 46//111
f 68//112 62//112 63//112
f 47//113 48//113 64//113
f 47//114 64//114 63//114
f 67//115 48//115 47//115
f 68//116 63//116 64//116
f 48//117 49//117 65//117
f 48//118 65//118 64//118
f 67//119 49//119 48//119
f 68//120 64//120 65//120
f 49//121 50//121 66//121
f 49//122 66//122 65//122
f 67//123 50//123 49//123
f 68//124 65//124 66//124
f 50//125 35//125 51//125
f 50//126 51//126 66//126
f 67//127 35//127 50//127
f 68//128 66//128 51//128
usemtl c2
f 69//129 70//129 80//129
f 69//130 80//130 79//130
f 89//131 70//131 69//131
f 90//132 79//132 80//132
f 70//133 71//133 81//133
f 70//134 81//134 80//134
f 89//135 71//135 70//135
f 90//136 80//136 81//136
f 71//137 72//137 82//137
f 71//138 82//138 81//138
f 89//139 72//139 71//139
f 90//140 81//140 82//140
f 72//141 73//141 83//141
f 72//142 83//142 82//142
f 89//143 73//143 72//143
f 90//144 82//144 83//144
f 73//145 74//145 84//145
f 73//146 84//146 83//146
f 89//147 74//147 73//147
f 90//148 83//148 84//148
f 74//149 75//149 85//149
f 74//150 85//150 84//150
f 89//151 75//151 74//151
f 90//152 84//152 85//152
f 75//153 76//153 86//153
f 75//154 86//154 85//154
f 89//155 76//155 75//155
f 90//156 85//156 86//156
f 76//157 77//157 87//157
f 76//158 87//158 86//158
f 89//159 77//159 76//159
f 90//160 86//160 87//160
f 77//161 78//161 88//161
f 77//162 88//162 87//162
f 89//163 78//163 77//163
f 90//164 87//164 88//164
f 78//165 69//165 79//165
f 78//166 79//166 88//166
f 89//167 69//167 78//167
f 90//168 88//168 79//168
usemtl c3
f 91//169 99//169 98//169
f 92//170 100//170 99//170
f 93//171 101//171 100//171
f 94//172 102//172 101//172
f 95//173 103//173 102//173
f 96//174 104//174 103//174
f 97//175 98//175 104//175
f 98//176 99//176 106//176
f 98//177 106//177 105//177
f 99//178 100//178 107//178
f 99//179 107//179 106//179
f 100//180 101//180 108//180
f 100//181 108//181 107//181
f 101//182 102//182 109//182
f 101//183 109//183 108//183
f 102//184 103//184 110//184
f 102//185 110//185 109//185
f 103//186 104//186 111//186
f 103//187 111//187 110//187
f 104//188 98//188 105//188
f 104//189 105//189 111//189
f 105//190 106//190 113//190
f 106//191 107//191 114//191
f 107//192 108//192 115//192
f 108//193 109//193 116//193
f 109//194 110//194 117//194
f 110//195 111//195 118//195
f 111//196 105//196 112//196
