mtllib Food_SeaweedSoup.mtl
v 0.0000 0.0000 0.0000
v 0.0000 0.0000 0.0000
v 0.0000 0.0000 0.0000
v 0.0000 0.0000 0.0000
v 0.0000 0.0000 0.0000
v 0.0000 0.0000 0.0000
v 0.0000 0.0000 0.0000
v 0.0000 0.0000 0.0000
v 0.0000 0.0000 0.0000
v 0.0000 0.0000 0.0000
v 0.0000 0.0000 0.0000
v 0.0000 0.0000 0.0000
v 0.4200 0.0000 0.0000
v 0.3637 0.0000 0.2100
v 0.2100 0.0000 0.3637
v 0.0000 0.0000 0.4200
v -0.2100 0.0000 0.3637
v -0.3637 0.0000 0.2100
v -0.4200 0.0000 0.0000
v -0.3637 0.0000 -0.2100
v -0.2100 0.0000 -0.3637
v -0.0000 0.0000 -0.4200
v 0.2100 0.0000 -0.3637
v 0.3637 0.0000 -0.2100
v 0.5000 0.0500 0.0000
v 0.4330 0.0500 0.2500
v 0.2500 0.0500 0.4330
v 0.0000 0.0500 0.5000
v -0.2500 0.0500 0.4330
v -0.4330 0.0500 0.2500
v -0.5000 0.0500 0.0000
v -0.4330 0.0500 -0.2500
v -0.2500 0.0500 -0.4330
v -0.0000 0.0500 -0.5000
v 0.2500 0.0500 -0.4330
v 0.4330 0.0500 -0.2500
v 0.8000 0.2800 0.0000
v 0.6928 0.2800 0.4000
v 0.4000 0.2800 0.6928
v 0.0000 0.2800 0.8000
v -0.4000 0.2800 0.6928
v -0.6928 0.2800 0.4000
v -0.8000 0.2800 0.0000
v -0.6928 0.2800 -0.4000
v -0.4000 0.2800 -0.6928
v -0.0000 0.2800 -0.8000
v 0.4000 0.2800 -0.6928
v 0.6928 0.2800 -0.4000
v 1.0000 0.7000 0.0000
v 0.8660 0.7000 0.5000
v 0.5000 0.7000 0.8660
v 0.0000 0.7000 1.0000
v -0.5000 0.7000 0.8660
v -0.8660 0.7000 0.5000
v -1.0000 0.7000 0.0000
v -0.8660 0.7000 -0.5000
v -0.5000 0.7000 -0.8660
v -0.0000 0.7000 -1.0000
v 0.5000 0.7000 -0.8660
v 0.8660 0.7000 -0.5000
v 0.9300 0.6800 0.0000
v 0.8054 0.6800 0.4650
v 0.4650 0.6800 0.8054
v 0.0000 0.6800 0.9300
v -0.4650 0.6800 0.8054
v -0.8054 0.6800 0.4650
v -0.9300 0.6800 0.0000
v -0.8054 0.6800 -0.4650
v -0.4650 0.6800 -0.8054
v -0.0000 0.6800 -0.9300
v 0.4650 0.6800 -0.8054
v 0.8054 0.6800 -0.4650
v 1.0200 0.6800 0.0000
v 0.8833 0.6800 0.5100
v 0.5100 0.6800 0.8833
v 0.0000 0.6800 1.0200
v -0.5100 0.6800 0.8833
v -0.8833 0.6800 0.5100
v -1.0200 0.6800 0.0000
v -0.8833 0.6800 -0.5100
v -0.5100 0.6800 -0.8833
v -0.0000 0.6800 -1.0200
v 0.5100 0.6800 -0.8833
v 0.8833 0.6800 -0.5100
v 1.0200 0.7500 0.0000
v 0.8833 0.7500 0.5100
v 0.5100 0.7500 0.8833
v 0.0000 0.7500 1.0200
v -0.5100 0.7500 0.8833
v -0.8833 0.7500 0.5100
v -1.0200 0.7500 0.0000
v -0.8833 0.7500 -0.5100
v -0.5100 0.7500 -0.8833
v -0.0000 0.7500 -1.0200
v 0.5100 0.7500 -0.8833
v 0.8833 0.7500 -0.5100
v 0.9300 0.7500 0.0000
v 0.8054 0.7500 0.4650
v 0.4650 0.7500 0.8054
v 0.0000 0.7500 0.9300
v -0.4650 0.7500 0.8054
v -0.8054 0.7500 0.4650
v -0.9300 0.7500 0.0000
v -0.8054 0.7500 -0.4650
v -0.4650 0.7500 -0.8054
v -0.0000 0.7500 -0.9300
v 0.4650 0.7500 -0.8054
v 0.8054 0.7500 -0.4650
v 0.9400 0.7000 0.0000
v 0.8141 0.7000 0.4700
v 0.4700 0.7000 0.8141
v 0.0000 0.7000 0.9400
v -0.4700 0.7000 0.8141
v -0.8141 0.7000 0.4700
v -0.9400 0.7000 0.0000
v -0.8141 0.7000 -0.4700
v -0.4700 0.7000 -0.8141
v -0.0000 0.7000 -0.9400
v 0.4700 0.7000 -0.8141
v 0.8141 0.7000 -0.4700
v 0.7000 0.2780 0.0000
v 0.6062 0.2780 0.3500
v 0.3500 0.2780 0.6062
v 0.0000 0.2780 0.7000
v -0.3500 0.2780 0.6062
v -0.6062 0.2780 0.3500
v -0.7000 0.2780 0.0000
v -0.6062 0.2780 -0.3500
v -0.3500 0.2780 -0.6062
v -0.0000 0.2780 -0.7000
v 0.3500 0.2780 -0.6062
v 0.6062 0.2780 -0.3500
v 0.0000 0.2100 0.0000
v 0.0000 0.2100 0.0000
v 0.0000 0.2100 0.0000
v 0.0000 0.2100 0.0000
v 0.0000 0.2100 0.0000
v 0.0000 0.2100 0.0000
v 0.0000 0.2100 0.0000
v 0.0000 0.2100 0.0000
v 0.0000 0.2100 0.0000
v 0.0000 0.2100 0.0000
v 0.0000 0.2100 0.0000
v 0.0000 0.2100 0.0000
v 0.8600 0.4860 0.0000
v 0.7448 0.4860 0.4300
v 0.4300 0.4860 0.7448
v 0.0000 0.4860 0.8600
v -0.4300 0.4860 0.7448
v -0.7448 0.4860 0.4300
v -0.8600 0.4860 0.0000
v -0.7448 0.4860 -0.4300
v -0.4300 0.4860 -0.7448
v -0.0000 0.4860 -0.8600
v 0.4300 0.4860 -0.7448
v 0.7448 0.4860 -0.4300
v 0.8600 0.5360 0.0000
v 0.7448 0.5360 0.4300
v 0.4300 0.5360 0.7448
v 0.0000 0.5360 0.8600
v -0.4300 0.5360 0.7448
v -0.7448 0.5360 0.4300
v -0.8600 0.5360 0.0000
v -0.7448 0.5360 -0.4300
v -0.4300 0.5360 -0.7448
v -0.0000 0.5360 -0.8600
v 0.4300 0.5360 -0.7448
v 0.7448 0.5360 -0.4300
v 0.0000 0.4860 0.0000
v 0.0000 0.5360 0.0000
v -0.0407 0.4960 -0.1394
v -0.0407 0.4960 -0.1394
v -0.0407 0.4960 -0.1394
v -0.0407 0.4960 -0.1394
v -0.0407 0.4960 -0.1394
v 0.1994 0.5210 -0.1050
v 0.0148 0.5210 0.0017
v -0.2464 0.5210 -0.0865
v -0.2234 0.5210 -0.2478
v 0.0521 0.5210 -0.2592
v 0.1994 0.5710 -0.1050
v 0.0148 0.5710 0.0017
v -0.2464 0.5710 -0.0865
v -0.2234 0.5710 -0.2478
v 0.0521 0.5710 -0.2592
v -0.0407 0.5960 -0.1394
v -0.0407 0.5960 -0.1394
v -0.0407 0.5960 -0.1394
v -0.0407 0.5960 -0.1394
v -0.0407 0.5960 -0.1394
v -0.3976 0.4960 0.4032
v -0.3976 0.4960 0.4032
v -0.3976 0.4960 0.4032
v -0.3976 0.4960 0.4032
v -0.3976 0.4960 0.4032
v -0.3535 0.5210 0.6417
v -0.5136 0.5210 0.5009
v -0.5134 0.5210 0.2251
v -0.3532 0.5210 0.1955
v -0.2544 0.5210 0.4529
v -0.3535 0.5710 0.6417
v -0.5136 0.5710 0.5009
v -0.5134 0.5710 0.2251
v -0.3532 0.5710 0.1955
v -0.2544 0.5710 0.4529
v -0.3976 0.5960 0.4032
v -0.3976 0.5960 0.4032
v -0.3976 0.5960 0.4032
v -0.3976 0.5960 0.4032
v -0.3976 0.5960 0.4032
v -0.5429 0.4960 0.0031
v -0.5429 0.4960 0.0031
v -0.5429 0.4960 0.0031
v -0.5429 0.4960 0.0031
v -0.5429 0.4960 0.0031
v -0.6202 0.5210 0.2329
v -0.6917 0.5210 0.0321
v -0.5576 0.5210 -0.2088
v -0.4032 0.5210 -0.1569
v -0.4419 0.5210 0.1161
v -0.6202 0.5710 0.2329
v -0.6917 0.5710 0.0321
v -0.5576 0.5710 -0.2088
v -0.4032 0.5710 -0.1569
v -0.4419 0.5710 0.1161
v -0.5429 0.5960 0.0031
v -0.5429 0.5960 0.0031
v -0.5429 0.5960 0.0031
v -0.5429 0.5960 0.0031
v -0.5429 0.5960 0.0031
v 0.4381 0.4960 -0.4611
v 0.4381 0.4960 -0.4611
v 0.4381 0.4960 -0.4611
v 0.4381 0.4960 -0.4611
v 0.4381 0.4960 -0.4611
v 0.4482 0.5210 -0.7034
v 0.5729 0.5210 -0.5305
v 0.5114 0.5210 -0.2617
v 0.3486 0.5210 -0.2685
v 0.3096 0.5210 -0.5414
v 0.4482 0.5710 -0.7034
v 0.5729 0.5710 -0.5305
v 0.5114 0.5710 -0.2617
v 0.3486 0.5710 -0.2685
v 0.3096 0.5710 -0.5414
v 0.4381 0.5960 -0.4611
v 0.4381 0.5960 -0.4611
v 0.4381 0.5960 -0.4611
v 0.4381 0.5960 -0.4611
v 0.4381 0.5960 -0.4611
v 0.0597 0.4960 0.1283
v 0.0597 0.4960 0.1283
v 0.0597 0.4960 0.1283
v 0.0597 0.4960 0.1283
v 0.0597 0.4960 0.1283
v 0.2969 0.5210 0.0781
v 0.1603 0.5210 0.2417
v -0.1154 0.5210 0.2486
v -0.1491 0.5210 0.0892
v 0.1057 0.5210 -0.0161
v 0.2969 0.5710 0.0781
v 0.1603 0.5710 0.2417
v -0.1154 0.5710 0.2486
v -0.1491 0.5710 0.0892
v 0.1057 0.5710 -0.0161
v 0.0597 0.5960 0.1283
v 0.0597 0.5960 0.1283
v 0.0597 0.5960 0.1283
v 0.0597 0.5960 0.1283
v 0.0597 0.5960 0.1283
v -0.5050 0.4960 -0.1331
v -0.5050 0.4960 -0.1331
v -0.5050 0.4960 -0.1331
v -0.5050 0.4960 -0.1331
v -0.5050 0.4960 -0.1331
v -0.5513 0.5210 0.1050
v -0.6487 0.5210 -0.0847
v -0.5475 0.5210 -0.3412
v -0.3876 0.5210 -0.3101
v -0.3900 0.5210 -0.0344
v -0.5513 0.5710 0.1050
v -0.6487 0.5710 -0.0847
v -0.5475 0.5710 -0.3412
v -0.3876 0.5710 -0.3101
v -0.3900 0.5710 -0.0344
v -0.5050 0.5960 -0.1331
v -0.5050 0.5960 -0.1331
v -0.5050 0.5960 -0.1331
v -0.5050 0.5960 -0.1331
v -0.5050 0.5960 -0.1331
v 0.2238 0.4960 -0.0528
v 0.2238 0.4960 -0.0528
v 0.2238 0.4960 -0.0528
v 0.2238 0.4960 -0.0528
v 0.2238 0.4960 -0.0528
v 0.3960 0.5210 -0.2235
v 0.3698 0.5210 -0.0120
v 0.1419 0.5210 0.1432
v 0.0272 0.5210 0.0275
v 0.1842 0.5210 -0.1991
v 0.3960 0.5710 -0.2235
v 0.3698 0.5710 -0.0120
v 0.1419 0.5710 0.1432
v 0.0272 0.5710 0.0275
v 0.1842 0.5710 -0.1991
v 0.2238 0.5960 -0.0528
v 0.2238 0.5960 -0.0528
v 0.2238 0.5960 -0.0528
v 0.2238 0.5960 -0.0528
v 0.2238 0.5960 -0.0528
v 0.3500 0.5260 -0.3000
v 0.3155 0.5260 -0.2524
v 0.2595 0.5260 -0.2706
v 0.2595 0.5260 -0.3294
v 0.3155 0.5260 -0.3476
v 0.3500 0.6060 -0.3000
v 0.3155 0.6060 -0.2524
v 0.2595 0.6060 -0.2706
v 0.2595 0.6060 -0.3294
v 0.3155 0.6060 -0.3476
v 0.3000 0.5260 -0.3000
v 0.3000 0.6060 -0.3000
v -0.3500 0.5260 0.2000
v -0.3845 0.5260 0.2476
v -0.4405 0.5260 0.2294
v -0.4405 0.5260 0.1706
v -0.3845 0.5260 0.1524
v -0.3500 0.6060 0.2000
v -0.3845 0.6060 0.2476
v -0.4405 0.6060 0.2294
v -0.4405 0.6060 0.1706
v -0.3845 0.6060 0.1524
v -0.4000 0.5260 0.2000
v -0.4000 0.6060 0.2000
vn 0.0000 1.0000 0.0000
vn 0.0000 1.0000 0.0000
vn 0.0000 1.0000 0.0000
vn 0.0000 1.0000 -0.0000
vn 0.0000 1.0000 0.0000
vn 0.0000 1.0000 0.0000
vn 0.0000 1.0000 0.0000
vn 0.0000 1.0000 0.0000
vn 0.0000 1.0000 0.0000
vn 0.0000 1.0000 0.0000
vn 0.0000 1.0000 0.0000
vn -0.0000 1.0000 0.0000
vn -0.5247 0.8396 -0.1406
vn -0.5247 0.8396 -0.1406
vn -0.3841 0.8396 -0.3841
vn -0.3841 0.8396 -0.3841
vn -0.1406 0.8396 -0.5247
vn -0.1406 0.8396 -0.5247
vn 0.1406 0.8396 -0.5247
vn 0.1406 0.8396 -0.5247
vn 0.3841 0.8396 -0.3841
vn 0.3841 0.8396 -0.3841
vn 0.5247 0.8396 -0.1406
vn 0.5247 0.8396 -0.1406
vn 0.5247 0.8396 0.1406
vn 0.5247 0.8396 0.1406
vn 0.3841 0.8396 0.3841
vn 0.3841 0.8396 0.3841
vn 0.1406 0.8396 0.5247
vn 0.1406 0.8396 0.5247
vn -0.1406 0.8396 0.5247
vn -0.1406 0.8396 0.5247
vn -0.3841 0.8396 0.3841
vn -0.3841 0.8396 0.3841
vn -0.5247 0.8396 0.1406
vn -0.5247 0.8396 0.1406
vn -0.6005 0.7833 -0.1609
vn -0.6005 0.7833 -0.1609
vn -0.4396 0.7833 -0.4396
vn -0.4396 0.7833 -0.4396
vn -0.1609 0.7833 -0.6005
vn -0.1609 0.7833 -0.6005
vn 0.1609 0.7833 -0.6005
vn 0.1609 0.7833 -0.6005
vn 0.4396 0.7833 -0.4396
vn 0.4396 0.7833 -0.4396
vn 0.6005 0.7833 -0.1609
vn 0.6005 0.7833 -0.1609
vn 0.6005 0.7833 0.1609
vn 0.6005 0.7833 0.1609
vn 0.4396 0.7833 0.4396
vn 0.4396 0.7833 0.4396
vn 0.1609 0.7833 0.6005
vn 0.1609 0.7833 0.6005
vn -0.1609 0.7833 0.6005
vn -0.1609 0.7833 0.6005
vn -0.4396 0.7833 0.4396
vn -0.4396 0.7833 0.4396
vn -0.6005 0.7833 0.1609
vn -0.6005 0.7833 0.1609
vn -0.8775 0.4179 -0.2351
vn -0.8775 0.4179 -0.2351
vn -0.6424 0.4179 -0.6424
vn -0.6424 0.4179 -0.6424
vn -0.2351 0.4179 -0.8775
vn -0.2351 0.4179 -0.8775
vn 0.2351 0.4179 -0.8775
vn 0.2351 0.4179 -0.8775
vn 0.6424 0.4179 -0.6424
vn 0.6424 0.4179 -0.6424
vn 0.8775 0.4179 -0.2351
vn 0.8775 0.4179 -0.2351
vn 0.8775 0.4179 0.2351
vn 0.8775 0.4179 0.2351
vn 0.6424 0.4179 0.6424
vn 0.6424 0.4179 0.6424
vn 0.2351 0.4179 0.8775
vn 0.2351 0.4179 0.8775
vn -0.2351 0.4179 0.8775
vn -0.2351 0.4179 0.8775
vn -0.6424 0.4179 0.6424
vn -0.6424 0.4179 0.6424
vn -0.8775 0.4179 0.2351
vn -0.8775 0.4179 0.2351
vn 0.0000 1.0000 0.0000
vn 0.0000 1.0000 -0.0000
vn 0.0000 1.0000 0.0000
vn 0.0000 1.0000 -0.0000
vn 0.0000 1.0000 0.0000
vn 0.0000 1.0000 -0.0000
vn 0.0000 1.0000 0.0000
vn 0.0000 1.0000 -0.0000
vn 0.0000 1.0000 0.0000
vn 0.0000 1.0000 0.0000
vn 0.0000 1.0000 0.0000
vn 0.0000 1.0000 0.0000
vn 0.0000 1.0000 0.0000
vn 0.0000 1.0000 0.0000
vn 0.0000 1.0000 0.0000
vn 0.0000 1.0000 0.0000
vn 0.0000 1.0000 0.0000
vn 0.0000 1.0000 0.0000
vn 0.0000 1.0000 0.0000
vn -0.0000 1.0000 0.0000
vn 0.0000 1.0000 0.0000
vn -0.0000 1.0000 0.0000
vn 0.0000 1.0000 0.0000
vn -0.0000 1.0000 0.0000
vn -0.9659 0.0000 -0.2588
vn -0.9659 0.0000 -0.2588
vn -0.7071 0.0000 -0.7071
vn -0.7071 0.0000 -0.7071
vn -0.2588 0.0000 -0.9659
vn -0.2588 0.0000 -0.9659
vn 0.2588 0.0000 -0.9659
vn 0.2588 0.0000 -0.9659
vn 0.7071 0.0000 -0.7071
vn 0.7071 0.0000 -0.7071
vn 0.9659 0.0000 -0.2588
vn 0.9659 0.0000 -0.2588
vn 0.9659 0.0000 0.2588
vn 0.9659 -0.0000 0.2588
vn 0.7071 0.0000 0.7071
vn 0.7071 -0.0000 0.7071
vn 0.2588 0.0000 0.9659
vn 0.2588 -0.0000 0.9659
vn -0.2588 0.0000 0.9659
vn -0.2588 0.0000 0.9659
vn -0.7071 0.0000 0.7071
vn -0.7071 0.0000 0.7071
vn -0.9659 0.0000 0.2588
vn -0.9659 0.0000 0.2588
vn 0.0000 -1.0000 0.0000
vn 0.0000 -1.0000 0.0000
vn 0.0000 -1.0000 0.0000
vn -0.0000 -1.0000 0.0000
vn 0.0000 -1.0000 0.0000
vn -0.0000 -1.0000 0.0000
vn 0.0000 -1.0000 0.0000
vn 0.0000 -1.0000 0.0000
vn 0.0000 -1.0000 0.0000
vn 0.0000 -1.0000 -0.0000
vn 0.0000 -1.0000 0.0000
vn 0.0000 -1.0000 -0.0000
vn 0.0000 -1.0000 0.0000
vn 0.0000 -1.0000 0.0000
vn 0.0000 -1.0000 0.0000
vn 0.0000 -1.0000 0.0000
vn 0.0000 -1.0000 0.0000
vn 0.0000 -1.0000 0.0000
vn 0.0000 -1.0000 0.0000
vn 0.0000 -1.0000 0.0000
vn 0.0000 -1.0000 0.0000
vn 0.0000 -1.0000 0.0000
vn 0.0000 -1.0000 0.0000
vn 0.0000 -1.0000 0.0000
vn 0.9659 0.0000 0.2588
vn 0.9659 0.0000 0.2588
vn 0.7071 0.0000 0.7071
vn 0.7071 0.0000 0.7071
vn 0.2588 0.0000 0.9659
vn 0.2588 0.0000 0.9659
vn -0.2588 0.0000 0.9659
vn -0.2588 0.0000 0.9659
vn -0.7071 0.0000 0.7071
vn -0.7071 0.0000 0.7071
vn -0.9659 0.0000 0.2588
vn -0.9659 0.0000 0.2588
vn -0.9659 0.0000 -0.2588
vn -0.9659 -0.0000 -0.2588
vn -0.7071 0.0000 -0.7071
vn -0.7071 -0.0000 -0.7071
vn -0.2588 0.0000 -0.9659
vn -0.2588 -0.0000 -0.9659
vn 0.2588 0.0000 -0.9659
vn 0.2588 0.0000 -0.9659
vn 0.7071 0.0000 -0.7071
vn 0.7071 0.0000 -0.7071
vn 0.9659 0.0000 -0.2588
vn 0.9659 0.0000 -0.2588
vn 0.8466 -0.4815 0.2268
vn 0.8466 -0.4815 0.2268
vn 0.6198 -0.4815 0.6198
vn 0.6198 -0.4815 0.6198
vn 0.2268 -0.4815 0.8466
vn 0.2268 -0.4815 0.8466
vn -0.2268 -0.4815 0.8466
vn -0.2268 -0.4815 0.8466
vn -0.6198 -0.4815 0.6198
vn -0.6198 -0.4815 0.6198
vn -0.8466 -0.4815 0.2268
vn -0.8466 -0.4815 0.2268
vn -0.8466 -0.4815 -0.2268
vn -0.8466 -0.4815 -0.2268
vn -0.6198 -0.4815 -0.6198
vn -0.6198 -0.4815 -0.6198
vn -0.2268 -0.4815 -0.8466
vn -0.2268 -0.4815 -0.8466
vn 0.2268 -0.4815 -0.8466
vn 0.2268 -0.4815 -0.8466
vn 0.6198 -0.4815 -0.6198
vn 0.6198 -0.4815 -0.6198
vn 0.8466 -0.4815 -0.2268
vn 0.8466 -0.4815 -0.2268
vn 0.0967 -0.9950 0.0259
vn 0.0708 -0.9950 0.0708
vn 0.0259 -0.9950 0.0967
vn -0.0259 -0.9950 0.0967
vn -0.0708 -0.9950 0.0708
vn -0.0967 -0.9950 0.0259
vn -0.0967 -0.9950 -0.0259
vn -0.0708 -0.9950 -0.0708
vn -0.0259 -0.9950 -0.0967
vn 0.0259 -0.9950 -0.0967
vn 0.0708 -0.9950 -0.0708
vn 0.0967 -0.9950 -0.0259
vn -0.9659 0.0000 -0.2588
vn -0.9659 0.0000 -0.2588
vn -0.7071 0.0000 -0.7071
vn -0.7071 0.0000 -0.7071
vn -0.2588 0.0000 -0.9659
vn -0.2588 0.0000 -0.9659
vn 0.2588 0.0000 -0.9659
vn 0.2588 0.0000 -0.9659
vn 0.7071 0.0000 -0.7071
vn 0.7071 0.0000 -0.7071
vn 0.9659 0.0000 -0.2588
vn 0.9659 0.0000 -0.2588
vn 0.9659 0.0000 0.2588
vn 0.9659 -0.0000 0.2588
vn 0.7071 0.0000 0.7071
vn 0.7071 -0.0000 0.7071
vn 0.2588 0.0000 0.9659
vn 0.2588 -0.0000 0.9659
vn -0.2588 0.0000 0.9659
vn -0.2588 0.0000 0.9659
vn -0.7071 0.0000 0.7071
vn -0.7071 0.0000 0.7071
vn -0.9659 0.0000 0.2588
vn -0.9659 0.0000 0.2588
vn 0.0000 -1.0000 0.0000
vn 0.0000 -1.0000 0.0000
vn 0.0000 -1.0000 0.0000
vn 0.0000 -1.0000 0.0000
vn 0.0000 -1.0000 0.0000
vn 0.0000 -1.0000 0.0000
vn -0.0000 -1.0000 0.0000
vn 0.0000 -1.0000 0.0000
vn 0.0000 -1.0000 0.0000
vn 0.0000 -1.0000 -0.0000
vn 0.0000 -1.0000 0.0000
vn 0.0000 -1.0000 0.0000
vn 0.0000 -1.0000 0.0000
vn 0.0000 -1.0000 0.0000
vn 0.0000 -1.0000 0.0000
vn 0.0000 -1.0000 0.0000
vn 0.0000 -1.0000 0.0000
vn 0.0000 -1.0000 0.0000
vn -0.0000 -1.0000 0.0000
vn 0.0000 -1.0000 0.0000
vn 0.0000 -1.0000 0.0000
vn 0.0000 -1.0000 -0.0000
vn 0.0000 -1.0000 0.0000
vn 0.0000 -1.0000 0.0000
vn -0.0824 0.9864 -0.1424
vn 0.0675 0.9775 -0.1998
vn 0.1251 0.9920 0.0179
vn 0.0088 0.9775 0.2107
vn -0.1190 0.9864 0.1136
vn -0.5007 0.0000 -0.8656
vn -0.5007 0.0000 -0.8656
vn 0.3199 0.0000 -0.9475
vn 0.3199 0.0000 -0.9475
vn 0.9899 0.0000 0.1416
vn 0.9899 0.0000 0.1416
vn 0.0415 0.0000 0.9991
vn 0.0415 0.0000 0.9991
vn -0.7233 0.0000 0.6906
vn -0.7233 0.0000 0.6906
vn -0.0824 -0.9864 -0.1424
vn 0.0675 -0.9775 -0.1998
vn 0.1251 -0.9920 0.0179
vn 0.0088 -0.9775 0.2107
vn -0.1190 -0.9864 0.1136
vn 0.1086 0.9864 -0.1235
vn 0.2109 0.9775 0.0001
vn 0.0230 0.9920 0.1243
vn -0.1969 0.9775 0.0756
vn -0.1456 0.9864 -0.0765
vn 0.6605 0.0000 -0.7508
vn 0.6605 -0.0000 -0.7508
vn 1.0000 0.0000 0.0007
vn 1.0000 -0.0000 0.0007
vn 0.1819 0.0000 0.9833
vn 0.1819 0.0000 0.9833
vn -0.9336 0.0000 0.3583
vn -0.9336 0.0000 0.3583
vn -0.8853 0.0000 -0.4649
vn -0.8853 0.0000 -0.4649
vn 0.1086 -0.9864 -0.1235
vn 0.2109 -0.9775 0.0001
vn 0.0230 -0.9920 0.1243
vn -0.1969 -0.9775 0.0756
vn -0.1456 -0.9864 -0.0765
vn 0.1550 0.9864 -0.0552
vn 0.1843 0.9775 0.1026
vn -0.0403 0.9920 0.1198
vn -0.2088 0.9775 -0.0296
vn -0.0901 0.9864 -0.1376
vn 0.9421 0.0000 -0.3355
vn 0.9421 0.0000 -0.3355
vn 0.8738 0.0000 0.4864
vn 0.8738 -0.0000 0.4864
vn -0.3187 0.0000 0.9479
vn -0.3187 0.0000 0.9479
vn -0.9901 0.0000 -0.1403
vn -0.9901 0.0000 -0.1403
vn -0.5480 -0.0000 -0.8365
vn -0.5480 0.0000 -0.8365
vn 0.1550 -0.9864 -0.0552
vn 0.1843 -0.9775 0.1026
vn -0.0403 -0.9920 0.1198
vn -0.2088 -0.9775 -0.0296
vn -0.0901 -0.9864 -0.1376
vn -0.1334 0.9864 0.0962
vn -0.2056 0.9775 -0.0471
vn 0.0052 0.9920 -0.1263
vn 0.2087 0.9775 -0.0299
vn 0.1250 0.9864 0.1070
vn -0.8110 0.0000 0.5851
vn -0.8110 0.0000 0.5851
vn -0.9748 0.0000 -0.2231
vn -0.9748 0.0000 -0.2231
vn 0.0414 0.0000 -0.9991
vn 0.0414 0.0000 -0.9991
vn 0.9899 0.0000 -0.1417
vn 0.9899 0.0000 -0.1417
vn 0.7597 0.0000 0.6502
vn 0.7597 0.0000 0.6502
vn -0.1334 -0.9864 0.0962
vn -0.2056 -0.9775 -0.0471
vn 0.0052 -0.9920 -0.1263
vn 0.2087 -0.9775 -0.0299
vn 0.1250 -0.9864 0.1070
vn -0.1262 0.9864 -0.1055
vn -0.0052 0.9775 -0.2108
vn 0.1237 0.9920 -0.0262
vn 0.0806 0.9775 0.1949
vn -0.0727 0.9864 0.1475
vn -0.7674 0.0000 -0.6411
vn -0.7674 0.0000 -0.6411
vn -0.0248 0.0000 -0.9997
vn -0.0248 0.0000 -0.9997
vn 0.9784 0.0000 -0.2069
vn 0.9784 0.0000 -0.2069
vn 0.3820 0.0000 0.9242
vn 0.3820 0.0000 0.9242
vn -0.4422 0.0000 0.8969
vn -0.4422 0.0000 0.8969
vn -0.1262 -0.9864 -0.1055
vn -0.0052 -0.9775 -0.2108
vn 0.1237 -0.9920 -0.0262
vn 0.0806 -0.9775 0.1949
vn -0.0727 -0.9864 0.1475
vn 0.1463 0.9864 -0.0751
vn 0.1962 0.9775 0.0774
vn -0.0241 0.9920 0.1241
vn -0.2109 0.9775 -0.0018
vn -0.1075 0.9864 -0.1245
vn 0.8896 0.0000 -0.4568
vn 0.8896 0.0000 -0.4568
vn 0.9303 0.0000 0.3668
vn 0.9303 -0.0000 0.3668
vn -0.1909 0.0000 0.9816
vn -0.1909 0.0000 0.9816
vn -1.0000 0.0000 -0.0085
vn -1.0000 -0.0000 -0.0085
vn -0.6536 0.0000 -0.7569
vn -0.6536 0.0000 -0.7569
vn 0.1463 -0.9864 -0.0751
vn 0.1962 -0.9775 0.0774
vn -0.0241 -0.9920 0.1241
vn -0.2109 -0.9775 -0.0018
vn -0.1075 -0.9864 -0.1245
vn -0.1633 0.9864 -0.0202
vn -0.1187 0.9775 -0.1743
vn 0.0898 0.9920 -0.0890
vn 0.1733 0.9775 0.1201
vn 0.0189 0.9864 0.1634
vn -0.9924 0.0000 -0.1227
vn -0.9924 0.0000 -0.1227
vn -0.5628 0.0000 -0.8266
vn -0.5628 0.0000 -0.8266
vn 0.7100 0.0000 -0.7042
vn 0.7100 0.0000 -0.7042
vn 0.8220 0.0000 0.5695
vn 0.8220 0.0000 0.5695
vn 0.1146 0.0000 0.9934
vn 0.1146 0.0000 0.9934
vn -0.1633 -0.9864 -0.0202
vn -0.1187 -0.9775 -0.1743
vn 0.0898 -0.9920 -0.0890
vn 0.1733 -0.9775 0.1201
vn 0.0189 -0.9864 0.1634
vn -0.8090 0.0000 -0.5878
vn -0.8090 0.0000 -0.5878
vn 0.3090 0.0000 -0.9511
vn 0.3090 0.0000 -0.9511
vn 1.0000 0.0000 -0.0000
vn 1.0000 0.0000 -0.0000
vn 0.3090 0.0000 0.9511
vn 0.3090 -0.0000 0.9511
vn -0.8090 0.0000 0.5878
vn -0.8090 0.0000 0.5878
vn 0.0000 -1.0000 0.0000
vn 0.0000 -1.0000 0.0000
vn -0.0000 -1.0000 0.0000
vn 0.0000 -1.0000 -0.0000
vn 0.0000 -1.0000 0.0000
vn 0.0000 -1.0000 0.0000
vn 0.0000 -1.0000 0.0000
vn -0.0000 -1.0000 0.0000
vn 0.0000 -1.0000 -0.0000
vn 0.0000 -1.0000 0.0000
vn -0.8090 0.0000 -0.5878
vn -0.8090 0.0000 -0.5878
vn 0.3090 0.0000 -0.9511
vn 0.3090 0.0000 -0.9511
vn 1.0000 0.0000 0.0000
vn 1.0000 -0.0000 0.0000
vn 0.3090 0.0000 0.9511
vn 0.3090 -0.0000 0.9511
vn -0.8090 0.0000 0.5878
vn -0.8090 0.0000 0.5878
vn 0.0000 -1.0000 0.0000
vn 0.0000 -1.0000 0.0000
vn -0.0000 -1.0000 0.0000
vn 0.0000 -1.0000 -0.0000
vn 0.0000 -1.0000 0.0000
vn 0.0000 -1.0000 0.0000
vn 0.0000 -1.0000 0.0000
vn -0.0000 -1.0000 0.0000
vn 0.0000 -1.0000 -0.0000
vn 0.0000 -1.0000 0.0000
usemtl c0
f 1//1 14//1 13//1
f 2//2 15//2 14//2
f 3//3 16//3 15//3
f 4//4 17//4 16//4
f 5//5 18//5 17//5
f 6//6 19//6 18//6
f 7//7 20//7 19//7
f 8//8 21//8 20//8
f 9//9 22//9 21//9
f 10//10 23//10 22//10
f 11//11 24//11 23//11
f 12//12 13//12 24//12
f 13//13 14//13 26//13
f 13//14 26//14 25//14
f 14//15 15//15 27//15
f 14//16 27//16 26//16
f 15//17 16//17 28//17
f 15//18 28//18 27//18
f 16//19 17//19 29//19
f 16//20 29//20 28//20
f 17//21 18//21 30//21
f 17//22 30//22 29//22
f 18//23 19//23 31//23
f 18//24 31//24 30//24
f 19//25 20//25 32//25
f 19//26 32//26 31//26
f 20//27 21//27 33//27
f 20//28 33//28 32//28
f 21//29 22//29 34//29
f 21//30 34//30 33//30
f 22//31 23//31 35//31
f 22//32 35//32 34//32
f 23//33 24//33 36//33
f 23//34 36//34 35//34
f 24//35 13//35 25//35
f 24//36 25//36 36//36
f 25//37 26//37 38//37
f 25//38 38//38 37//38
f 26//39 27//39 39//39
f 26//40 39//40 38//40
f 27//41 28//41 40//41
f 27//42 40//42 39//42
f 28//43 29//43 41//43
f 28//44 41//44 40//44
f 29//45 30//45 42//45
f 29//46 42//46 41//46
f 30//47 31//47 43//47
f 30//48 43//48 42//48
f 31//49 32//49 44//49
f 31//50 44//50 43//50
f 32//51 33//51 45//51
f 32//52 45//52 44//52
f 33//53 34//53 46//53
f 33//54 46//54 45//54
f 34//55 35//55 47//55
f 34//56 47//56 46//56
f 35//57 36//57 48//57
f 35//58 48//58 47//58
f 36//59 25//59 37//59
f 36//60 37//60 48//60
f 37//61 38//61 50//61
f 37//62 50//62 49//62
f 38//63 39//63 51//63
f 38//64 51//64 50//64
f 39//65 40//65 52//65
f 39//66 52//66 51//66
f 40//67 41//67 53//67
f 40//68 53//68 52//68
f 41//69 42//69 54//69
f 41//70 54//70 53//70
f 42//71 43//71 55//71
f 42//72 55//72 54//72
f 43//73 44//73 56//73
f 43//74 56//74 55//74
f 44//75 45//75 57//75
f 44//76 57//76 56//76
f 45//77 46//77 58//77
f 45//78 58//78 57//78
f 46//79 47//79 59//79
f 46//80 59//80 58//80
f 47//81 48//81 60//81
f 47//82 60//82 59//82
f 48//83 37//83 49//83
f 48//84 49//84 60//84
usemtl c1
f 61//85 62//85 74//85
f 61//86 74//86 73//86
f 62//87 63//87 75//87
f 62//88 75//88 74//88
f 63//89 64//89 76//89
f 63//90 76//90 75//90
f 64//91 65//91 77//91
f 64//92 77//92 76//92
f 65//93 66//93 78//93
f 65//94 78//94 77//94
f 66//95 67//95 79//95
f 66//96 79//96 78//96
f 67//97 68//97 80//97
f 67//98 80//98 79//98
f 68//99 69//99 81//99
f 68//100 81//100 80//100
f 69//101 70//101 82//101
f 69//102 82//102 81//102
f 70//103 71//103 83//103
f 70//104 83//104 82//104
f 71//105 72//105 84//105
f 71//106 84//106 83//106
f 72//107 61//107 73//107
f 72//108 73//108 84//108
f 73//109 74//109 86//109
f 73//110 86//110 85//110
f 74//111 75//111 87//111
f 74//112 87//112 86//112
f 75//113 76//113 88//113
f 75//114 88//114 87//114
f 76//115 77//115 89//115
f 76//116 89//116 88//116
f 77//117 78//117 90//117
f 77//118 90//118 89//118
f 78//119 79//119 91//119
f 78//120 91//120 90//120
f 79//121 80//121 92//121
f 79//122 92//122 91//122
f 80//123 81//123 93//123
f 80//124 93//124 92//124
f 81//125 82//125 94//125
f 81//126 94//126 93//126
f 82//127 83//127 95//127
f 82//128 95//128 94//128
f 83//129 84//129 96//129
f 83//130 96//130 95//130
f 84//131 73//131 85//131
f 84//132 85//132 96//132
f 85//133 86//133 98//133
f 85//134 98//134 97//134
f 86//135 87//135 99//135
f 86//136 99//136 98//136
f 87//137 88//137 100//137
f 87//138 100//138 99//138
f 88//139 89//139 101//139
f 88//140 101//140 100//140
f 89//141 90//141 102//141
f 89//142 102//142 101//142
f 90//143 91//143 103//143
f 90//144 103//144 102//144
f 91//145 92//145 104//145
f 91//146 104//146 103//146
f 92//147 93//147 105//147
f 92//148 105//148 104//148
f 93//149 94//149 106//149
f 93//150 106//150 105//150
f 94//151 95//151 107//151
f 94//152 107//152 106//152
f 95//153 96//153 108//153
f 95//154 108//154 107//154
f 96//155 85//155 97//155
f 96//156 97//156 108//156
f 97//157 98//157 62//157
f 97//158 62//158 61//158
f 98//159 99//159 63//159
f 98//160 63//160 62//160
f 99//161 100//161 64//161
f 99//162 64//162 63//162
f 100//163 101//163 65//163
f 100//164 65//164 64//164
f 101//165 102//165 66//165
f 101//166 66//166 65//166
f 102//167 103//167 67//167
f 102//168 67//168 66//168
f 103//169 104//169 68//169
f 103//170 68//170 67//170
f 104//171 105//171 69//171
f 104//172 69//172 68//172
f 105//173 106//173 70//173
f 105//174 70//174 69//174
f 106//175 107//175 71//175
f 106//176 71//176 70//176
f 107//177 108//177 72//177
f 107//178 72//178 71//178
f 108//179 97//179 61//179
f 108//180 61//180 72//180
usemtl c2
f 109//181 110//181 122//181
f 109//182 122//182 121//182
f 110//183 111//183 123//183
f 110//184 123//184 122//184
f 111//185 112//185 124//185
f 111//186 124//186 123//186
f 112//187 113//187 125//187
f 112//188 125//188 124//188
f 113//189 114//189 126//189
f 113//190 126//190 125//190
f 114//191 115//191 127//191
f 114//192 127//192 126//192
f 115//193 116//193 128//193
f 115//194 128//194 127//194
f 116//195 117//195 129//195
f 116//196 129//196 128//196
f 117//197 118//197 130//197
f 117//198 130//198 129//198
f 118//199 119//199 131//199
f 118//200 131//200 130//200
f 119//201 120//201 132//201
f 119//202 132//202 131//202
f 120//203 109//203 121//203
f 120//204 121//204 132//204
f 121//205 122//205 134//205
f 122//206 123//206 135//206
f 123//207 124//207 136//207
f 124//208 125//208 137//208
f 125//209 126//209 138//209
f 126//210 127//210 139//210
f 127//211 128//211 140//211
f 128//212 129//212 141//212
f 129//213 130//213 142//213
f 130//214 131//214 143//214
f 131//215 132//215 144//215
f 132//216 121//216 133//216
usemtl c3
f 145//217 146//217 158//217
f 145//218 158//218 157//218
f 146//219 147//219 159//219
f 146//220 159//220 158//220
f 147//221 148//221 160//221
f 147//222 160//222 159//222
f 148//223 149//223 161//223
f 148//224 161//224 160//224
f 149//225 150//225 162//225
f 149//226 162//226 161//226
f 150//227 151//227 163//227
f 150//228 163//228 162//228
f 151//229 152//229 164//229
f 151//230 164//230 163//230
f 152//231 153//231 165//231
f 152//232 165//232 164//232
f 153//233 154//233 166//233
f 153//234 166//234 165//234
f 154//235 155//235 167//235
f 154//236 167//236 166//236
f 155//237 156//237 168//237
f 155//238 168//238 167//238
f 156//239 145//239 157//239
f 156//240 157//240 168//240
f 169//241 145//241 146//241
f 169//242 146//242 147//242
f 169//243 147//243 148//243
f 169//244 148//244 149//244
f 169//245 149//245 150//245
f 169//246 150//246 151//246
f 169//247 151//247 152//247
f 169//248 152//248 153//248
f 169//249 153//249 154//249
f 169//250 154//250 155//250
f 169//251 155//251 156//251
f 169//252 156//252 145//252
f 170//253 157//253 158//253
f 170//254 158//254 159//254
f 170//255 159//255 160//255
f 170//256 160//256 161//256
f 170//257 161//257 162//257
f 170//258 162//258 163//258
f 170//259 163//259 164//259
f 170//260 164//260 165//260
f 170//261 165//261 166//261
f 170//262 166//262 167//262
f 170//263 167//263 168//263
f 170//264 168//264 157//264
usemtl c4
f 171//265 177//265 176//265
f 172//266 178//266 177//266
f 173//267 179//267 178//267
f 174//268 180//268 179//268
f 175//269 176//269 180//269
f 176//270 177//270 182//270
f 176//271 182//271 181//271
f 177//272 178//272 183//272
f 177//273 183//273 182//273
f 178//274 179//274 184//274
f 178//275 184//275 183//275
f 179//276 180//276 185//276
f 179//277 185//277 184//277
f 180//278 176//278 181//278
f 180//279 181//279 185//279
f 181//280 182//280 187//280
f 182//281 183//281 188//281
f 183//282 184//282 189//282
f 184//283 185//283 190//283
f 185//284 181//284 186//284
f 191//285 197//285 196//285
f 192//286 198//286 197//286
f 193//287 199//287 198//287
f 194//288 200//288 199//288
f 195//289 196//289 200//289
f 196//290 197//290 202//290
f 196//291 202//291 201//291
f 197//292 198//292 203//292
f 197//293 203//293 202//293
f 198//294 199//294 204//294
f 198//295 204//295 203//295
f 199//296 200//296 205//296
f 199//297 205//297 204//297
f 200//298 196//298 201//298
f 200//299 201//299 205//299
f 201//300 202//300 207//300
f 202//301 203//301 208//301
f 203//302 204//302 209//302
f 204//303 205//303 210//303
f 205//304 201//304 206//304
f 211//305 217//305 216//305
f 212//306 218//306 217//306
f 213//307 219//307 218//307
f 214//308 220//308 219//308
f 215//309 216//309 220//309
f 216//310 217//310 222//310
f 216//311 222//311 221//311
f 217//312 218//312 223//312
f 217//313 223//313 222//313
f 218//314 219//314 224//314
f 218//315 224//315 223//315
f 219//316 220//316 225//316
f 219//317 225//317 224//317
f 220//318 216//318 221//318
f 220//319 221//319 225//319
f 221//320 222//320 227//320
f 222//321 223//321 228//321
f 223//322 224//322 229//322
f 224//323 225//323 230//323
f 225//324 221//324 226//324
f 231//325 237//325 236//325
f 232//326 238//326 237//326
f 233//327 239//327 238//327
f 234//328 240//328 239//328
f 235//329 236//329 240//329
f 236//330 237//330 242//330
f 236//331 242//331 241//331
f 237//332 238//332 243//332
f 237//333 243//333 242//333
f 238//334 239//334 244//334
f 238//335 244//335 243//335
f 239//336 240//336 245//336
f 239//337 245//337 244//337
f 240//338 236//338 241//338
f 240//339 241//339 245//339
f 241//340 242//340 247//340
f 242//341 243//341 248//341
f 243//342 244//342 249//342
f 244//343 245//343 250//343
f 245//344 241//344 246//344
f 251//345 257//345 256//345
f 252//346 258//346 257//346
f 253//347 259//347 258//347
f 254//348 260//348 259//348
f 255//349 256//349 260//349
f 256//350 257//350 262//350
f 256//351 262//351 261//351
f 257//352 258//352 263//352
f 257//353 263//353 262//353
f 258//354 259//354 264//354
f 258//355 264//355 263//355
f 259//356 260//356 265//356
f 259//357 265//357 264//357
f 260//358 256//358 261//358
f 260//359 261//359 265//359
f 261//360 262//360 267//360
f 262//361 263//361 268//361
f 263//362 264//362 269//362
f 264//363 265//363 270//363
f 265//364 261//364 266//364
f 271//365 277//365 276//365
f 272//366 278//366 277//366
f 273//367 279//367 278//367
f 274//368 280//368 279//368
f 275//369 276//369 280//369
f 276//370 277//370 282//370
f 276//371 282//371 281//371
f 277//372 278//372 283//372
f 277//373 283//373 282//373
f 278//374 279//374 284//374
f 278//375 284//375 283//375
f 279//376 280//376 285//376
f 279//377 285//377 284//377
f 280//378 276//378 281//378
f 280//379 281//379 285//379
f 281//380 282//380 287//380
f 282//381 283//381 288//381
f 283//382 284//382 289//382
f 284//383 285//383 290//383
f 285//384 281//384 286//384
f 291//385 297//385 296//385
f 292//386 298//386 297//386
f 293//387 299//387 298//387
f 294//388 300//388 299//388
f 295//389 296//389 300//389
f 296//390 297//390 302//390
f 296//391 302//391 301//391
f 297//392 298//392 303//392
f 297//393 303//393 302//393
f 298//394 299//394 304//394
f 298//395 304//395 303//395
f 299//396 300//396 305//396
f 299//397 305//397 304//397
f 300//398 296//398 301//398
f 300//399 301//399 305//399
f 301//400 302//400 307//400
f 302//401 303//401 308//401
f 303//402 304//402 309//402
f 304//403 305//403 310//403
f 305//404 301//404 306//404
usemtl c5
f 311//405 312//405 317//405
f 311//406 317//406 316//406
f 312//407 313//407 318//407
f 312//408 318//408 317//408
f 313//409 314//409 319//409
f 313//410 319//410 318//410
f 314//411 315//411 320//411
f 314//412 320//412 319//412
f 315//413 311//413 316//413
f 315//414 316//414 320//414
f 321//415 311//415 312//415
f 321//416 312//416 313//416
f 321//417 313//417 314//417
f 321//418 314//418 315//418
f 321//419 315//419 311//419
f 322//420 316//420 317//420
f 322//421 317//421 318//421
f 322//422 318//422 319//422
f 322//423 319//423 320//423
f 322//424 320//424 316//424
f 323//425 324//425 329//425
f 323//426 329//426 328//426
f 324//427 325//427 330//427
f 324//428 330//428 329//428
f 325//429 326//429 331//429
f 325//430 331//430 330//430
f 326//431 327//431 332//431
f 326//432 332//432 331//432
f 327//433 323//433 328//433
f 327//434 328//434 332//434
f 333//435 323//435 324//435
f 333//436 324//436 325//436
f 333//437 325//437 326//437
f 333//438 326//438 327//438
f 333//439 327//439 323//439
f 334//440 328//440 329//440
f 334//441 329//441 330//441
f 334//442 330//442 331//442
f 334//443 331//443 332//443
f 334//444 332//444 328//444
