mtllib Food_Donut.mtl
v 1.0800 0.3800 0.0000
v 0.9353 0.3800 0.5400
v 0.5400 0.3800 0.9353
v 0.0000 0.3800 1.0800
v -0.5400 0.3800 0.9353
v -0.9353 0.3800 0.5400
v -1.0800 0.3800 0.0000
v -0.9353 0.3800 -0.5400
v -0.5400 0.3800 -0.9353
v -0.0000 0.3800 -1.0800
v 0.5400 0.3800 -0.9353
v 0.9353 0.3800 -0.5400
v 0.8900 0.7091 0.0000
v 0.7708 0.7091 0.4450
v 0.4450 0.7091 0.7708
v 0.0000 0.7091 0.8900
v -0.4450 0.7091 0.7708
v -0.7708 0.7091 0.4450
v -0.8900 0.7091 0.0000
v -0.7708 0.7091 -0.4450
v -0.4450 0.7091 -0.7708
v -0.0000 0.7091 -0.8900
v 0.4450 0.7091 -0.7708
v 0.7708 0.7091 -0.4450
v 0.5100 0.7091 0.0000
v 0.4417 0.7091 0.2550
v 0.2550 0.7091 0.4417
v 0.0000 0.7091 0.5100
v -0.2550 0.7091 0.4417
v -0.4417 0.7091 0.2550
v -0.5100 0.7091 0.0000
v -0.4417 0.7091 -0.2550
v -0.2550 0.7091 -0.4417
v -0.0000 0.7091 -0.5100
v 0.2550 0.7091 -0.4417
v 0.4417 0.7091 -0.2550
v 0.3200 0.3800 0.0000
v 0.2771 0.3800 0.1600
v 0.1600 0.3800 0.2771
v 0.0000 0.3800 0.3200
v -0.1600 0.3800 0.2771
v -0.2771 0.3800 0.1600
v -0.3200 0.3800 0.0000
v -0.2771 0.3800 -0.1600
v -0.1600 0.3800 -0.2771
v -0.0000 0.3800 -0.3200
v 0.1600 0.3800 -0.2771
v 0.2771 0.3800 -0.1600
v 0.5100 0.0509 0.0000
v 0.4417 0.0509 0.2550
v 0.2550 0.0509 0.4417
v 0.0000 0.0509 0.5100
v -0.2550 0.0509 0.4417
v -0.4417 0.0509 0.2550
v -0.5100 0.0509 0.0000
v -0.4417 0.0509 -0.2550
v -0.2550 0.0509 -0.4417
v -0.0000 0.0509 -0.5100
v 0.2550 0.0509 -0.4417
v 0.4417 0.0509 -0.2550
v 0.8900 0.0509 0.0000
v 0.7708 0.0509 0.4450
v 0.4450 0.0509 0.7708
v 0.0000 0.0509 0.8900
v -0.4450 0.0509 0.7708
v -0.7708 0.0509 0.4450
v -0.8900 0.0509 0.0000
v -0.7708 0.0509 -0.4450
v -0.4450 0.0509 -0.7708
v -0.0000 0.0509 -0.8900
v 0.4450 0.0509 -0.7708
v 0.7708 0.0509 -0.4450
v 1.1038 0.3440 0.0000
v 0.9559 0.3440 0.5519
v 0.5519 0.3440 0.9559
v 0.0000 0.3440 1.1038
v -0.5519 0.3440 0.9559
v -0.9559 0.3440 0.5519
v -1.1038 0.3440 0.0000
v -0.9559 0.3440 -0.5519
v -0.5519 0.3440 -0.9559
v -0.0000 0.3440 -1.1038
v 0.5519 0.3440 -0.9559
v 0.9559 0.3440 -0.5519
v 1.0853 0.5400 0.0000
v 0.9399 0.5400 0.5426
v 0.5426 0.5400 0.9399
v 0.0000 0.5400 1.0853
v -0.5426 0.5400 0.9399
v -0.9399 0.5400 0.5426
v -1.0853 0.5400 0.0000
v -0.9399 0.5400 -0.5426
v -0.5426 0.5400 -0.9399
v -0.0000 0.5400 -1.0853
v 0.5426 0.5400 -0.9399
v 0.9399 0.5400 -0.5426
v 0.9635 0.7011 0.0000
v 0.8345 0.7011 0.4818
v 0.4818 0.7011 0.8345
v 0.0000 0.7011 0.9635
v -0.4818 0.7011 0.8345
v -0.8345 0.7011 0.4818
v -0.9635 0.7011 0.0000
v -0.8345 0.7011 -0.4818
v -0.4818 0.7011 -0.8345
v -0.0000 0.7011 -0.9635
v 0.4818 0.7011 -0.8345
v 0.8345 0.7011 -0.4818
v 0.7712 0.7842 0.0000
v 0.6679 0.7842 0.3856
v 0.3856 0.7842 0.6679
v 0.0000 0.7842 0.7712
v -0.3856 0.7842 0.6679
v -0.6679 0.7842 0.3856
v -0.7712 0.7842 0.0000
v -0.6679 0.7842 -0.3856
v -0.3856 0.7842 -0.6679
v -0.0000 0.7842 -0.7712
v 0.3856 0.7842 -0.6679
v 0.6679 0.7842 -0.3856
v 0.5598 0.7671 0.0000
v 0.4848 0.7671 0.2799
v 0.2799 0.7671 0.4848
v 0.0000 0.7671 0.5598
v -0.2799 0.7671 0.4848
v -0.4848 0.7671 0.2799
v -0.5598 0.7671 0.0000
v -0.4848 0.7671 -0.2799
v -0.2799 0.7671 -0.4848
v -0.0000 0.7671 -0.5598
v 0.2799 0.7671 -0.4848
v 0.4848 0.7671 -0.2799
v 0.3859 0.6543 0.0000
v 0.3342 0.6543 0.1930
v 0.1930 0.6543 0.3342
v 0.0000 0.6543 0.3859
v -0.1930 0.6543 0.3342
v -0.3342 0.6543 0.1930
v -0.3859 0.6543 0.0000
v -0.3342 0.6543 -0.1930
v -0.1930 0.6543 -0.3342
v -0.0000 0.6543 -0.3859
v 0.1930 0.6543 -0.3342
v 0.3342 0.6543 -0.1930
v 0.2962 0.4760 0.0000
v 0.2565 0.4760 0.1481
v 0.1481 0.4760 0.2565
v 0.0000 0.4760 0.2962
v -0.1481 0.4760 0.2565
v -0.2565 0.4760 0.1481
v -0.2962 0.4760 0.0000
v -0.2565 0.4760 -0.1481
v -0.1481 0.4760 -0.2565
v -0.0000 0.4760 -0.2962
v 0.1481 0.4760 -0.2565
v 0.2565 0.4760 -0.1481
v 0.3147 0.2800 0.0000
v 0.2726 0.2800 0.1574
v 0.1574 0.2800 0.2726
v 0.0000 0.2800 0.3147
v -0.1574 0.2800 0.2726
v -0.2726 0.2800 0.1574
v -0.3147 0.2800 0.0000
v -0.2726 0.2800 -0.1574
v -0.1574 0.2800 -0.2726
v -0.0000 0.2800 -0.3147
v 0.1574 0.2800 -0.2726
v 0.2726 0.2800 -0.1574
v 0.4965 0.7322 0.6810
v 0.6079 0.7322 0.5661
v 0.6366 0.7322 0.5939
v 0.5253 0.7322 0.7089
v 0.4965 0.7722 0.6810
v 0.6079 0.7722 0.5661
v 0.6366 0.7722 0.5939
v 0.5253 0.7722 0.7089
v 0.5666 0.7322 0.6375
v 0.5666 0.7722 0.6375
v -0.6268 0.7614 0.0845
v -0.7528 0.7614 -0.0141
v -0.7282 0.7614 -0.0456
v -0.6022 0.7614 0.0530
v -0.6268 0.8014 0.0845
v -0.7528 0.8014 -0.0141
v -0.7282 0.8014 -0.0456
v -0.6022 0.8014 0.0530
v -0.6775 0.7614 0.0194
v -0.6775 0.8014 0.0194
v 0.3730 0.7051 0.3479
v 0.4065 0.7051 0.1915
v 0.4456 0.7051 0.1999
v 0.4121 0.7051 0.3563
v 0.3730 0.7451 0.3479
v 0.4065 0.7451 0.1915
v 0.4456 0.7451 0.1999
v 0.4121 0.7451 0.3563
v 0.4093 0.7051 0.2739
v 0.4093 0.7451 0.2739
v -0.0314 0.6980 -0.4335
v 0.0758 0.6980 -0.5523
v 0.1055 0.6980 -0.5255
v -0.0017 0.6980 -0.4067
v -0.0314 0.7380 -0.4335
v 0.0758 0.7380 -0.5523
v 0.1055 0.7380 -0.5255
v -0.0017 0.7380 -0.4067
v 0.0371 0.6980 -0.4795
v 0.0371 0.7380 -0.4795
v 0.3069 0.7600 -0.6578
v 0.1545 0.7600 -0.7065
v 0.1667 0.7600 -0.7446
v 0.3191 0.7600 -0.6959
v 0.3069 0.8000 -0.6578
v 0.1545 0.8000 -0.7065
v 0.1667 0.8000 -0.7446
v 0.3191 0.8000 -0.6959
v 0.2368 0.7600 -0.7012
v 0.2368 0.8000 -0.7012
v 0.5569 0.7044 0.1287
v 0.3998 0.7044 0.0983
v 0.4074 0.7044 0.0590
v 0.5645 0.7044 0.0894
v 0.5569 0.7444 0.1287
v 0.3998 0.7444 0.0983
v 0.4074 0.7444 0.0590
v 0.5645 0.7444 0.0894
v 0.4822 0.7044 0.0938
v 0.4822 0.7444 0.0938
v -0.3854 0.7425 0.4644
v -0.4896 0.7425 0.3430
v -0.4593 0.7425 0.3169
v -0.3551 0.7425 0.4383
v -0.3854 0.7825 0.4644
v -0.4896 0.7825 0.3430
v -0.4593 0.7825 0.3169
v -0.3551 0.7825 0.4383
v -0.4223 0.7425 0.3906
v -0.4223 0.7825 0.3906
v -0.8103 0.7451 -0.0587
v -0.8367 0.7451 -0.2165
v -0.7973 0.7451 -0.2232
v -0.7708 0.7451 -0.0654
v -0.8103 0.7851 -0.0587
v -0.8367 0.7851 -0.2165
v -0.7973 0.7851 -0.2232
v -0.7708 0.7851 -0.0654
v -0.8038 0.7451 -0.1410
v -0.8038 0.7851 -0.1410
v -0.3639 0.7545 0.6731
v -0.5221 0.7545 0.6492
v -0.5161 0.7545 0.6097
v -0.3579 0.7545 0.6336
v -0.3639 0.7945 0.6731
v -0.5221 0.7945 0.6492
v -0.5161 0.7945 0.6097
v -0.3579 0.7945 0.6336
v -0.4400 0.7545 0.6414
v -0.4400 0.7945 0.6414
v 0.5159 0.7603 -0.2680
v 0.6494 0.7603 -0.3562
v 0.6714 0.7603 -0.3229
v 0.5380 0.7603 -0.2346
v 0.5159 0.8003 -0.2680
v 0.6494 0.8003 -0.3562
v 0.6714 0.8003 -0.3229
v 0.5380 0.8003 -0.2346
v 0.5937 0.7603 -0.2954
v 0.5937 0.8003 -0.2954
v 0.8983 0.7300 0.0314
v 0.7877 0.7300 -0.0841
v 0.8165 0.7300 -0.1118
v 0.9272 0.7300 0.0037
v 0.8983 0.7700 0.0314
v 0.7877 0.7700 -0.0841
v 0.8165 0.7700 -0.1118
v 0.9272 0.7700 0.0037
v 0.8574 0.7300 -0.0402
v 0.8574 0.7700 -0.0402
v 0.7016 0.7047 -0.4736
v 0.6977 0.7047 -0.6336
v 0.7377 0.7047 -0.6345
v 0.7416 0.7047 -0.4746
v 0.7016 0.7447 -0.4736
v 0.6977 0.7447 -0.6336
v 0.7377 0.7447 -0.6345
v 0.7416 0.7447 -0.4746
v 0.7197 0.7047 -0.5541
v 0.7197 0.7447 -0.5541
v 0.4786 0.7385 -0.2190
v 0.4352 0.7385 -0.3730
v 0.4737 0.7385 -0.3838
v 0.5171 0.7385 -0.2298
v 0.4786 0.7785 -0.2190
v 0.4352 0.7785 -0.3730
v 0.4737 0.7785 -0.3838
v 0.5171 0.7785 -0.2298
v 0.4762 0.7385 -0.3014
v 0.4762 0.7785 -0.3014
v 0.6332 0.7325 -0.4913
v 0.5890 0.7325 -0.6451
v 0.6275 0.7325 -0.6561
v 0.6716 0.7325 -0.5023
v 0.6332 0.7725 -0.4913
v 0.5890 0.7725 -0.6451
v 0.6275 0.7725 -0.6561
v 0.6716 0.7725 -0.5023
v 0.6303 0.7325 -0.5737
v 0.6303 0.7725 -0.5737
vn -0.8436 -0.4871 -0.2260
vn -0.8436 -0.4871 -0.2260
vn -0.6176 -0.4871 -0.6176
vn -0.6176 -0.4871 -0.6176
vn -0.2260 -0.4871 -0.8436
vn -0.2260 -0.4871 -0.8436
vn 0.2260 -0.4871 -0.8436
vn 0.2260 -0.4871 -0.8436
vn 0.6176 -0.4871 -0.6176
vn 0.6176 -0.4871 -0.6176
vn 0.8436 -0.4871 -0.2260
vn 0.8436 -0.4871 -0.2260
vn 0.8436 -0.4871 0.2260
vn 0.8436 -0.4871 0.2260
vn 0.6176 -0.4871 0.6176
vn 0.6176 -0.4871 0.6176
vn 0.2260 -0.4871 0.8436
vn 0.2260 -0.4871 0.8436
vn -0.2260 -0.4871 0.8436
vn -0.2260 -0.4871 0.8436
vn -0.6176 -0.4871 0.6176
vn -0.6176 -0.4871 0.6176
vn -0.8436 -0.4871 0.2260
vn -0.8436 -0.4871 0.2260
vn -0.0000 -1.0000 -0.0000
vn -0.0000 -1.0000 -0.0000
vn -0.0000 -1.0000 -0.0000
vn -0.0000 -1.0000 -0.0000
vn -0.0000 -1.0000 -0.0000
vn -0.0000 -1.0000 -0.0000
vn 0.0000 -1.0000 -0.0000
vn 0.0000 -1.0000 -0.0000
vn 0.0000 -1.0000 -0.0000
vn 0.0000 -1.0000 -0.0000
vn 0.0000 -1.0000 -0.0000
vn 0.0000 -1.0000 -0.0000
vn 0.0000 -1.0000 0.0000
vn 0.0000 -1.0000 0.0000
vn 0.0000 -1.0000 0.0000
vn 0.0000 -1.0000 0.0000
vn 0.0000 -1.0000 0.0000
vn 0.0000 -1.0000 0.0000
vn -0.0000 -1.0000 0.0000
vn -0.0000 -1.0000 0.0000
vn -0.0000 -1.0000 0.0000
vn -0.0000 -1.0000 0.0000
vn -0.0000 -1.0000 0.0000
vn -0.0000 -1.0000 0.0000
vn 0.8436 -0.4871 0.2260
vn 0.8436 -0.4871 0.2260
vn 0.6176 -0.4871 0.6176
vn 0.6176 -0.4871 0.6176
vn 0.2260 -0.4871 0.8436
vn 0.2260 -0.4871 0.8436
vn -0.2260 -0.4871 0.8436
vn -0.2260 -0.4871 0.8436
vn -0.6176 -0.4871 0.6176
vn -0.6176 -0.4871 0.6176
vn -0.8436 -0.4871 0.2260
vn -0.8436 -0.4871 0.2260
vn -0.8436 -0.4871 -0.2260
vn -0.8436 -0.4871 -0.2260
vn -0.6176 -0.4871 -0.6176
vn -0.6176 -0.4871 -0.6176
vn -0.2260 -0.4871 -0.8436
vn -0.2260 -0.4871 -0.8436
vn 0.2260 -0.4871 -0.8436
vn 0.2260 -0.4871 -0.8436
vn 0.6176 -0.4871 -0.6176
vn 0.6176 -0.4871 -0.6176
vn 0.8436 -0.4871 -0.2260
vn 0.8436 -0.4871 -0.2260
vn 0.8436 0.4871 0.2260
vn 0.8436 0.4871 0.2260
vn 0.6176 0.4871 0.6176
vn 0.6176 0.4871 0.6176
vn 0.2260 0.4871 0.8436
vn 0.2260 0.4871 0.8436
vn -0.2260 0.4871 0.8436
vn -0.2260 0.4871 0.8436
vn -0.6176 0.4871 0.6176
vn -0.6176 0.4871 0.6176
vn -0.8436 0.4871 0.2260
vn -0.8436 0.4871 0.2260
vn -0.8436 0.4871 -0.2260
vn -0.8436 0.4871 -0.2260
vn -0.6176 0.4871 -0.6176
vn -0.6176 0.4871 -0.6176
vn -0.2260 0.4871 -0.8436
vn -0.2260 0.4871 -0.8436
vn 0.2260 0.4871 -0.8436
vn 0.2260 0.4871 -0.8436
vn 0.6176 0.4871 -0.6176
vn 0.6176 0.4871 -0.6176
vn 0.8436 0.4871 -0.2260
vn 0.8436 0.4871 -0.2260
vn 0.0000 1.0000 0.0000
vn 0.0000 1.0000 0.0000
vn 0.0000 1.0000 0.0000
vn 0.0000 1.0000 0.0000
vn 0.0000 1.0000 0.0000
vn 0.0000 1.0000 0.0000
vn -0.0000 1.0000 0.0000
vn -0.0000 1.0000 0.0000
vn -0.0000 1.0000 0.0000
vn -0.0000 1.0000 0.0000
vn -0.0000 1.0000 0.0000
vn -0.0000 1.0000 0.0000
vn -0.0000 1.0000 -0.0000
vn -0.0000 1.0000 -0.0000
vn -0.0000 1.0000 -0.0000
vn -0.0000 1.0000 -0.0000
vn -0.0000 1.0000 -0.0000
vn -0.0000 1.0000 -0.0000
vn 0.0000 1.0000 -0.0000
vn 0.0000 1.0000 -0.0000
vn 0.0000 1.0000 -0.0000
vn 0.0000 1.0000 -0.0000
vn 0.0000 1.0000 -0.0000
vn 0.0000 1.0000 -0.0000
vn -0.8436 0.4871 -0.2260
vn -0.8436 0.4871 -0.2260
vn -0.6176 0.4871 -0.6176
vn -0.6176 0.4871 -0.6176
vn -0.2260 0.4871 -0.8436
vn -0.2260 0.4871 -0.8436
vn 0.2260 0.4871 -0.8436
vn 0.2260 0.4871 -0.8436
vn 0.6176 0.4871 -0.6176
vn 0.6176 0.4871 -0.6176
vn 0.8436 0.4871 -0.2260
vn 0.8436 0.4871 -0.2260
vn 0.8436 0.4871 0.2260
vn 0.8436 0.4871 0.2260
vn 0.6176 0.4871 0.6176
vn 0.6176 0.4871 0.6176
vn 0.2260 0.4871 0.8436
vn 0.2260 0.4871 0.8436
vn -0.2260 0.4871 0.8436
vn -0.2260 0.4871 0.8436
vn -0.6176 0.4871 0.6176
vn -0.6176 0.4871 0.6176
vn -0.8436 0.4871 0.2260
vn -0.8436 0.4871 0.2260
vn -0.9619 -0.0908 -0.2577
vn -0.9619 -0.0908 -0.2577
vn -0.7042 -0.0908 -0.7042
vn -0.7042 -0.0908 -0.7042
vn -0.2577 -0.0908 -0.9619
vn -0.2577 -0.0908 -0.9619
vn 0.2577 -0.0908 -0.9619
vn 0.2577 -0.0908 -0.9619
vn 0.7042 -0.0908 -0.7042
vn 0.7042 -0.0908 -0.7042
vn 0.9619 -0.0908 -0.2577
vn 0.9619 -0.0908 -0.2577
vn 0.9619 -0.0908 0.2577
vn 0.9619 -0.0908 0.2577
vn 0.7042 -0.0908 0.7042
vn 0.7042 -0.0908 0.7042
vn 0.2577 -0.0908 0.9619
vn 0.2577 -0.0908 0.9619
vn -0.2577 -0.0908 0.9619
vn -0.2577 -0.0908 0.9619
vn -0.7042 -0.0908 0.7042
vn -0.7042 -0.0908 0.7042
vn -0.9619 -0.0908 0.2577
vn -0.9619 -0.0908 0.2577
vn -0.7803 -0.5895 -0.2091
vn -0.7803 -0.5895 -0.2091
vn -0.5712 -0.5895 -0.5712
vn -0.5712 -0.5895 -0.5712
vn -0.2091 -0.5895 -0.7803
vn -0.2091 -0.5895 -0.7803
vn 0.2091 -0.5895 -0.7803
vn 0.2091 -0.5895 -0.7803
vn 0.5712 -0.5895 -0.5712
vn 0.5712 -0.5895 -0.5712
vn 0.7803 -0.5895 -0.2091
vn 0.7803 -0.5895 -0.2091
vn 0.7803 -0.5895 0.2091
vn 0.7803 -0.5895 0.2091
vn 0.5712 -0.5895 0.5712
vn 0.5712 -0.5895 0.5712
vn 0.2091 -0.5895 0.7803
vn 0.2091 -0.5895 0.7803
vn -0.2091 -0.5895 0.7803
vn -0.2091 -0.5895 0.7803
vn -0.5712 -0.5895 0.5712
vn -0.5712 -0.5895 0.5712
vn -0.7803 -0.5895 0.2091
vn -0.7803 -0.5895 0.2091
vn -0.3945 -0.9128 -0.1057
vn -0.3945 -0.9128 -0.1057
vn -0.2888 -0.9128 -0.2888
vn -0.2888 -0.9128 -0.2888
vn -0.1057 -0.9128 -0.3945
vn -0.1057 -0.9128 -0.3945
vn 0.1057 -0.9128 -0.3945
vn 0.1057 -0.9128 -0.3945
vn 0.2888 -0.9128 -0.2888
vn 0.2888 -0.9128 -0.2888
vn 0.3945 -0.9128 -0.1057
vn 0.3945 -0.9128 -0.1057
vn 0.3945 -0.9128 0.1057
vn 0.3945 -0.9128 0.1057
vn 0.2888 -0.9128 0.2888
vn 0.2888 -0.9128 0.2888
vn 0.1057 -0.9128 0.3945
vn 0.1057 -0.9128 0.3945
vn -0.1057 -0.9128 0.3945
vn -0.1057 -0.9128 0.3945
vn -0.2888 -0.9128 0.2888
vn -0.2888 -0.9128 0.2888
vn -0.3945 -0.9128 0.1057
vn -0.3945 -0.9128 0.1057
vn 0.0808 -0.9965 0.0217
vn 0.0808 -0.9965 0.0217
vn 0.0592 -0.9965 0.0592
vn 0.0592 -0.9965 0.0592
vn 0.0217 -0.9965 0.0808
vn 0.0217 -0.9965 0.0808
vn -0.0217 -0.9965 0.0808
vn -0.0217 -0.9965 0.0808
vn -0.0592 -0.9965 0.0592
vn -0.0592 -0.9965 0.0592
vn -0.0808 -0.9965 0.0217
vn -0.0808 -0.9965 0.0217
vn -0.0808 -0.9965 -0.0217
vn -0.0808 -0.9965 -0.0217
vn -0.0592 -0.9965 -0.0592
vn -0.0592 -0.9965 -0.0592
vn -0.0217 -0.9965 -0.0808
vn -0.0217 -0.9965 -0.0808
vn 0.0217 -0.9965 -0.0808
vn 0.0217 -0.9965 -0.0808
vn 0.0592 -0.9965 -0.0592
vn 0.0592 -0.9965 -0.0592
vn 0.0808 -0.9965 -0.0217
vn 0.0808 -0.9965 -0.0217
vn 0.5387 -0.8301 0.1443
vn 0.5387 -0.8301 0.1443
vn 0.3943 -0.8301 0.3943
vn 0.3943 -0.8301 0.3943
vn 0.1443 -0.8301 0.5387
vn 0.1443 -0.8301 0.5387
vn -0.1443 -0.8301 0.5387
vn -0.1443 -0.8301 0.5387
vn -0.3943 -0.8301 0.3943
vn -0.3943 -0.8301 0.3943
vn -0.5387 -0.8301 0.1443
vn -0.5387 -0.8301 0.1443
vn -0.5387 -0.8301 -0.1443
vn -0.5387 -0.8301 -0.1443
vn -0.3943 -0.8301 -0.3943
vn -0.3943 -0.8301 -0.3943
vn -0.1443 -0.8301 -0.5387
vn -0.1443 -0.8301 -0.5387
vn 0.1443 -0.8301 -0.5387
vn 0.1443 -0.8301 -0.5387
vn 0.3943 -0.8301 -0.3943
vn 0.3943 -0.8301 -0.3943
vn 0.5387 -0.8301 -0.1443
vn 0.5387 -0.8301 -0.1443
vn 0.8688 -0.4371 0.2328
vn 0.8688 -0.4371 0.2328
vn 0.6360 -0.4371 0.6360
vn 0.6360 -0.4371 0.6360
vn 0.2328 -0.4371 0.8688
vn 0.2328 -0.4371 0.8688
vn -0.2328 -0.4371 0.8688
vn -0.2328 -0.4371 0.8688
vn -0.6360 -0.4371 0.6360
vn -0.6360 -0.4371 0.6360
vn -0.8688 -0.4371 0.2328
vn -0.8688 -0.4371 0.2328
vn -0.8688 -0.4371 -0.2328
vn -0.8688 -0.4371 -0.2328
vn -0.6360 -0.4371 -0.6360
vn -0.6360 -0.4371 -0.6360
vn -0.2328 -0.4371 -0.8688
vn -0.2328 -0.4371 -0.8688
vn 0.2328 -0.4371 -0.8688
vn 0.2328 -0.4371 -0.8688
vn 0.6360 -0.4371 -0.6360
vn 0.6360 -0.4371 -0.6360
vn 0.8688 -0.4371 -0.2328
vn 0.8688 -0.4371 -0.2328
vn 0.9619 0.0908 0.2577
vn 0.9619 0.0908 0.2577
vn 0.7042 0.0908 0.7042
vn 0.7042 0.0908 0.7042
vn 0.2577 0.0908 0.9619
vn 0.2577 0.0908 0.9619
vn -0.2577 0.0908 0.9619
vn -0.2577 0.0908 0.9619
vn -0.7042 0.0908 0.7042
vn -0.7042 0.0908 0.7042
vn -0.9619 0.0908 0.2577
vn -0.9619 0.0908 0.2577
vn -0.9619 0.0908 -0.2577
vn -0.9619 0.0908 -0.2577
vn -0.7042 0.0908 -0.7042
vn -0.7042 0.0908 -0.7042
vn -0.2577 0.0908 -0.9619
vn -0.2577 0.0908 -0.9619
vn 0.2577 0.0908 -0.9619
vn 0.2577 0.0908 -0.9619
vn 0.7042 0.0908 -0.7042
vn 0.7042 0.0908 -0.7042
vn 0.9619 0.0908 -0.2577
vn 0.9619 0.0908 -0.2577
vn 0.7183 0.0000 0.6958
vn 0.7183 -0.0000 0.6958
vn 0.0000 1.0000 0.0000
vn -0.0000 -1.0000 -0.0000
vn -0.6958 0.0000 0.7183
vn -0.6958 0.0000 0.7183
vn 0.0000 1.0000 0.0000
vn 0.0000 -1.0000 0.0000
vn -0.7183 0.0000 -0.6958
vn -0.7183 0.0000 -0.6958
vn -0.0000 1.0000 -0.0000
vn 0.0000 -1.0000 0.0000
vn 0.6958 0.0000 -0.7183
vn 0.6958 0.0000 -0.7183
vn 0.0000 1.0000 0.0000
vn 0.0000 -1.0000 0.0000
vn 0.6161 0.0000 -0.7877
vn 0.6161 0.0000 -0.7877
vn 0.0000 1.0000 -0.0000
vn -0.0000 -1.0000 0.0000
vn 0.7877 0.0000 0.6161
vn 0.7877 -0.0000 0.6161
vn 0.0000 1.0000 0.0000
vn 0.0000 -1.0000 0.0000
vn -0.6161 0.0000 0.7877
vn -0.6161 0.0000 0.7877
vn -0.0000 1.0000 0.0000
vn 0.0000 -1.0000 -0.0000
vn -0.7877 0.0000 -0.6161
vn -0.7877 0.0000 -0.6161
vn 0.0000 1.0000 0.0000
vn 0.0000 -1.0000 0.0000
vn 0.9778 0.0000 0.2097
vn 0.9778 -0.0000 0.2097
vn 0.0000 1.0000 0.0000
vn -0.0000 -1.0000 0.0000
vn -0.2097 0.0000 0.9778
vn -0.2097 0.0000 0.9778
vn 0.0000 1.0000 0.0000
vn 0.0000 -1.0000 -0.0000
vn -0.9778 0.0000 -0.2097
vn -0.9778 0.0000 -0.2097
vn -0.0000 1.0000 0.0000
vn 0.0000 -1.0000 0.0000
vn 0.2097 0.0000 -0.9778
vn 0.2097 0.0000 -0.9778
vn 0.0000 1.0000 -0.0000
vn 0.0000 -1.0000 0.0000
vn 0.7424 0.0000 0.6699
vn 0.7424 -0.0000 0.6699
vn 0.0000 1.0000 0.0000
vn -0.0000 -1.0000 -0.0000
vn -0.6699 0.0000 0.7424
vn -0.6699 0.0000 0.7424
vn 0.0000 1.0000 0.0000
vn 0.0000 -1.0000 0.0000
vn -0.7424 0.0000 -0.6699
vn -0.7424 0.0000 -0.6699
vn -0.0000 1.0000 -0.0000
vn 0.0000 -1.0000 0.0000
vn 0.6699 0.0000 -0.7424
vn 0.6699 0.0000 -0.7424
vn 0.0000 1.0000 0.0000
vn 0.0000 -1.0000 0.0000
vn 0.3047 0.0000 -0.9524
vn 0.3047 0.0000 -0.9524
vn 0.0000 1.0000 -0.0000
vn -0.0000 -1.0000 0.0000
vn 0.9524 0.0000 0.3047
vn 0.9524 -0.0000 0.3047
vn 0.0000 1.0000 0.0000
vn 0.0000 -1.0000 0.0000
vn -0.3047 0.0000 0.9524
vn -0.3047 0.0000 0.9524
vn -0.0000 1.0000 0.0000
vn 0.0000 -1.0000 -0.0000
vn -0.9524 0.0000 -0.3047
vn -0.9524 0.0000 -0.3047
vn 0.0000 1.0000 0.0000
vn 0.0000 -1.0000 0.0000
vn 0.1900 0.0000 -0.9818
vn 0.1900 0.0000 -0.9818
vn 0.0000 1.0000 -0.0000
vn 0.0000 -1.0000 0.0000
vn 0.9818 0.0000 0.1900
vn 0.9818 -0.0000 0.1900
vn 0.0000 1.0000 0.0000
vn -0.0000 -1.0000 0.0000
vn -0.1900 0.0000 0.9818
vn -0.1900 0.0000 0.9818
vn 0.0000 1.0000 0.0000
vn 0.0000 -1.0000 -0.0000
vn -0.9818 0.0000 -0.1900
vn -0.9818 0.0000 -0.1900
vn -0.0000 1.0000 0.0000
vn 0.0000 -1.0000 0.0000
vn 0.7587 0.0000 -0.6515
vn 0.7587 0.0000 -0.6515
vn 0.0000 1.0000 -0.0000
vn -0.0000 -1.0000 0.0000
vn 0.6515 0.0000 0.7587
vn 0.6515 -0.0000 0.7587
vn 0.0000 1.0000 0.0000
vn 0.0000 -1.0000 0.0000
vn -0.7587 0.0000 0.6515
vn -0.7587 0.0000 0.6515
vn -0.0000 1.0000 0.0000
vn 0.0000 -1.0000 -0.0000
vn -0.6515 0.0000 -0.7587
vn -0.6515 0.0000 -0.7587
vn 0.0000 1.0000 0.0000
vn 0.0000 -1.0000 0.0000
vn 0.9862 0.0000 -0.1653
vn 0.9862 0.0000 -0.1653
vn 0.0000 1.0000 0.0000
vn -0.0000 -1.0000 0.0000
vn 0.1653 0.0000 0.9862
vn 0.1653 -0.0000 0.9862
vn 0.0000 1.0000 0.0000
vn 0.0000 -1.0000 -0.0000
vn -0.9862 0.0000 0.1653
vn -0.9862 0.0000 0.1653
vn -0.0000 1.0000 0.0000
vn 0.0000 -1.0000 0.0000
vn -0.1653 0.0000 -0.9862
vn -0.1653 0.0000 -0.9862
vn 0.0000 1.0000 -0.0000
vn 0.0000 -1.0000 0.0000
vn 0.1495 0.0000 -0.9888
vn 0.1495 0.0000 -0.9888
vn 0.0000 1.0000 -0.0000
vn 0.0000 -1.0000 0.0000
vn 0.9888 0.0000 0.1495
vn 0.9888 -0.0000 0.1495
vn 0.0000 1.0000 0.0000
vn -0.0000 -1.0000 0.0000
vn -0.1495 0.0000 0.9888
vn -0.1495 0.0000 0.9888
vn 0.0000 1.0000 0.0000
vn 0.0000 -1.0000 -0.0000
vn -0.9888 0.0000 -0.1495
vn -0.9888 0.0000 -0.1495
vn -0.0000 1.0000 0.0000
vn 0.0000 -1.0000 0.0000
vn 0.5514 0.0000 0.8342
vn 0.5514 -0.0000 0.8342
vn 0.0000 1.0000 0.0000
vn -0.0000 -1.0000 -0.0000
vn -0.8342 0.0000 0.5514
vn -0.8342 0.0000 0.5514
vn 0.0000 1.0000 0.0000
vn 0.0000 -1.0000 0.0000
vn -0.5514 0.0000 -0.8342
vn -0.5514 0.0000 -0.8342
vn -0.0000 1.0000 -0.0000
vn 0.0000 -1.0000 0.0000
vn 0.8342 0.0000 -0.5514
vn 0.8342 0.0000 -0.5514
vn 0.0000 1.0000 0.0000
vn 0.0000 -1.0000 0.0000
vn 0.7222 0.0000 -0.6917
vn 0.7222 0.0000 -0.6917
vn 0.0000 1.0000 -0.0000
vn -0.0000 -1.0000 0.0000
vn 0.6917 0.0000 0.7222
vn 0.6917 -0.0000 0.7222
vn 0.0000 1.0000 0.0000
vn 0.0000 -1.0000 0.0000
vn -0.7222 0.0000 0.6917
vn -0.7222 0.0000 0.6917
vn -0.0000 1.0000 0.0000
vn 0.0000 -1.0000 -0.0000
vn -0.6917 0.0000 -0.7222
vn -0.6917 0.0000 -0.7222
vn 0.0000 1.0000 0.0000
vn 0.0000 -1.0000 0.0000
vn 0.9997 0.0000 -0.0242
vn 0.9997 0.0000 -0.0242
vn 0.0000 1.0000 0.0000
vn -0.0000 -1.0000 0.0000
vn 0.0242 0.0000 0.9997
vn 0.0242 -0.0000 0.9997
vn 0.0000 1.0000 0.0000
vn 0.0000 -1.0000 -0.0000
vn -0.9997 0.0000 0.0242
vn -0.9997 0.0000 0.0242
vn -0.0000 1.0000 0.0000
vn 0.0000 -1.0000 0.0000
vn -0.0242 0.0000 -0.9997
vn -0.0242 0.0000 -0.9997
vn 0.0000 1.0000 -0.0000
vn 0.0000 -1.0000 0.0000
vn 0.9624 0.0000 -0.2717
vn 0.9624 0.0000 -0.2717
vn 0.0000 1.0000 -0.0000
vn -0.0000 -1.0000 0.0000
vn 0.2717 0.0000 0.9624
vn 0.2717 -0.0000 0.9624
vn 0.0000 1.0000 0.0000
vn 0.0000 -1.0000 0.0000
vn -0.9624 0.0000 0.2717
vn -0.9624 0.0000 0.2717
vn -0.0000 1.0000 0.0000
vn 0.0000 -1.0000 -0.0000
vn -0.2717 0.0000 -0.9624
vn -0.2717 0.0000 -0.9624
vn 0.0000 1.0000 0.0000
vn 0.0000 -1.0000 0.0000
vn 0.9612 0.0000 -0.2760
vn 0.9612 0.0000 -0.2760
vn 0.0000 1.0000 -0.0000
vn -0.0000 -1.0000 0.0000
vn 0.2760 0.0000 0.9612
vn 0.2760 -0.0000 0.9612
vn 0.0000 1.0000 0.0000
vn 0.0000 -1.0000 0.0000
vn -0.9612 0.0000 0.2760
vn -0.9612 0.0000 0.2760
vn -0.0000 1.0000 0.0000
vn 0.0000 -1.0000 -0.0000
vn -0.2760 0.0000 -0.9612
vn -0.2760 0.0000 -0.9612
vn 0.0000 1.0000 0.0000
vn 0.0000 -1.0000 0.0000
usemtl c0
f 1//1 2//1 14//1
f 1//2 14//2 13//2
f 2//3 3//3 15//3
f 2//4 15//4 14//4
f 3//5 4//5 16//5
f 3//6 16//6 15//6
f 4//7 5//7 17//7
f 4//8 17//8 16//8
f 5//9 6//9 18//9
f 5//10 18//10 17//10
f 6//11 7//11 19//11
f 6//12 19//12 18//12
f 7//13 8//13 20//13
f 7//14 20//14 19//14
f 8//15 9//15 21//15
f 8//16 21//16 20//16
f 9//17 10//17 22//17
f 9//18 22//18 21//18
f 10//19 11//19 23//19
f 10//20 23//20 22//20
f 11//21 12//21 24//21
f 11//22 24//22 23//22
f 12//23 1//23 13//23
f 12//24 13//24 24//24
f 13//25 14//25 26//25
f 13//26 26//26 25//26
f 14//27 15//27 27//27
f 14//28 27//28 26//28
f 15//29 16//29 28//29
f 15//30 28//30 27//30
f 16//31 17//31 29//31
f 16//32 29//32 28//32
f 17//33 18//33 30//33
f 17//34 30//34 29//34
f 18//35 19//35 31//35
f 18//36 31//36 30//36
f 19//37 20//37 32//37
f 19//38 32//38 31//38
f 20//39 21//39 33//39
f 20//40 33//40 32//40
f 21//41 22//41 34//41
f 21//42 34//42 33//42
f 22//43 23//43 35//43
f 22//44 35//44 34//44
f 23//45 24//45 36//45
f 23//46 36//46 35//46
f 24//47 13//47 25//47
f 24//48 25//48 36//48
f 25//49 26//49 38//49
f 25//50 38//50 37//50
f 26//51 27//51 39//51
f 26//52 39//52 38//52
f 27//53 28//53 40//53
f 27//54 40//54 39//54
f 28//55 29//55 41//55
f 28//56 41//56 40//56
f 29//57 30//57 42//57
f 29//58 42//58 41//58
f 30//59 31//59 43//59
f 30//60 43//60 42//60
f 31//61 32//61 44//61
f 31//62 44//62 43//62
f 32//63 33//63 45//63
f 32//64 45//64 44//64
f 33//65 34//65 46//65
f 33//66 46//66 45//66
f 34//67 35//67 47//67
f 34//68 47//68 46//68
f 35//69 36//69 48//69
f 35//70 48//70 47//70
f 36//71 25//71 37//71
f 36//72 37//72 48//72
f 37//73 38//73 50//73
f 37//74 50//74 49//74
f 38//75 39//75 51//75
f 38//76 51//76 50//76
f 39//77 40//77 52//77
f 39//78 52//78 51//78
f 40//79 41//79 53//79
f 40//80 53//80 52//80
f 41//81 42//81 54//81
f 41//82 54//82 53//82
f 42//83 43//83 55//83
f 42//84 55//84 54//84
f 43//85 44//85 56//85
f 43//86 56//86 55//86
f 44//87 45//87 57//87
f 44//88 57//88 56//88
f 45//89 46//89 58//89
f 45//90 58//90 57//90
f 46//91 47//91 59//91
f 46//92 59//92 58//92
f 47//93 48//93 60//93
f 47//94 60//94 59//94
f 48//95 37//95 49//95
f 48//96 49//96 60//96
f 49//97 50//97 62//97
f 49//98 62//98 61//98
f 50//99 51//99 63//99
f 50//100 63//100 62//100
f 51//101 52//101 64//101
f 51//102 64//102 63//102
f 52//103 53//103 65//103
f 52//104 65//104 64//104
f 53//105 54//105 66//105
f 53//106 66//106 65//106
f 54//107 55//107 67//107
f 54//108 67//108 66//108
f 55//109 56//109 68//109
f 55//110 68//110 67//110
f 56//111 57//111 69//111
f 56//112 69//112 68//112
f 57//113 58//113 70//113
f 57//114 70//114 69//114
f 58//115 59//115 71//115
f 58//116 71//116 70//116
f 59//117 60//117 72//117
f 59//118 72//118 71//118
f 60//119 49//119 61//119
f 60//120 61//120 72//120
f 61//121 62//121 2//121
f 61//122 2//122 1//122
f 62//123 63//123 3//123
f 62//124 3//124 2//124
f 63//125 64//125 4//125
f 63//126 4//126 3//126
f 64//127 65//127 5//127
f 64//128 5//128 4//128
f 65//129 66//129 6//129
f 65//130 6//130 5//130
f 66//131 67//131 7//131
f 66//132 7//132 6//132
f 67//133 68//133 8//133
f 67//134 8//134 7//134
f 68//135 69//135 9//135
f 68//136 9//136 8//136
f 69//137 70//137 10//137
f 69//138 10//138 9//138
f 70//139 71//139 11//139
f 70//140 11//140 10//140
f 71//141 72//141 12//141
f 71//142 12//142 11//142
f 72//143 61//143 1//143
f 72//144 1//144 12//144
usemtl c1
f 73//145 74//145 86//145
f 73//146 86//146 85//146
f 74//147 75//147 87//147
f 74//148 87//148 86//148
f 75//149 76//149 88//149
f 75//150 88//150 87//150
f 76//151 77//151 89//151
f 76//152 89//152 88//152
f 77//153 78//153 90//153
f 77//154 90//154 89//154
f 78//155 79//155 91//155
f 78//156 91//156 90//156
f 79//157 80//157 92//157
f 79//158 92//158 91//158
f 80//159 81//159 93//159
f 80//160 93//160 92//160
f 81//161 82//161 94//161
f 81//162 94//162 93//162
f 82//163 83//163 95//163
f 82//164 95//164 94//164
f 83//165 84//165 96//165
f 83//166 96//166 95//166
f 84//167 73//167 85//167
f 84//168 85//168 96//168
f 85//169 86//169 98//169
f 85//170 98//170 97//170
f 86//171 87//171 99//171
f 86//172 99//172 98//172
f 87//173 88//173 100//173
f 87//174 100//174 99//174
f 88//175 89//175 101//175
f 88//176 101//176 100//176
f 89//177 90//177 102//177
f 89//178 102//178 101//178
f 90//179 91//179 103//179
f 90//180 103//180 102//180
f 91//181 92//181 104//181
f 91//182 104//182 103//182
f 92//183 93//183 105//183
f 92//184 105//184 104//184
f 93//185 94//185 106//185
f 93//186 106//186 105//186
f 94//187 95//187 107//187
f 94//188 107//188 106//188
f 95//189 96//189 108//189
f 95//190 108//190 107//190
f 96//191 85//191 97//191
f 96//192 97//192 108//192
f 97//193 98//193 110//193
f 97//194 110//194 109//194
f 98//195 99//195 111//195
f 98//196 111//196 110//196
f 99//197 100//197 112//197
f 99//198 112//198 111//198
f 100//199 101//199 113//199
f 100//200 113//200 112//200
f 101//201 102//201 114//201
f 101//202 114//202 113//202
f 102//203 103//203 115//203
f 102//204 115//204 114//204
f 103//205 104//205 116//205
f 103//206 116//206 115//206
f 104//207 105//207 117//207
f 104//208 117//208 116//208
f 105//209 106//209 118//209
f 105//210 118//210 117//210
f 106//211 107//211 119//211
f 106//212 119//212 118//212
f 107//213 108//213 120//213
f 107//214 120//214 119//214
f 108//215 97//215 109//215
f 108//216 109//216 120//216
f 109//217 110//217 122//217
f 109//218 122//218 121//218
f 110//219 111//219 123//219
f 110//220 123//220 122//220
f 111//221 112//221 124//221
f 111//222 124//222 123//222
f 112//223 113//223 125//223
f 112//224 125//224 124//224
f 113//225 114//225 126//225
f 113//226 126//226 125//226
f 114//227 115//227 127//227
f 114//228 127//228 126//228
f 115//229 116//229 128//229
f 115//230 128//230 127//230
f 116//231 117//231 129//231
f 116//232 129//232 128//232
f 117//233 118//233 130//233
f 117//234 130//234 129//234
f 118//235 119//235 131//235
f 118//236 131//236 130//236
f 119//237 120//237 132//237
f 119//238 132//238 131//238
f 120//239 109//239 121//239
f 120//240 121//240 132//240
f 121//241 122//241 134//241
f 121//242 134//242 133//242
f 122//243 123//243 135//243
f 122//244 135//244 134//244
f 123//245 124//245 136//245
f 123//246 136//246 135//246
f 124//247 125//247 137//247
f 124//248 137//248 136//248
f 125//249 126//249 138//249
f 125//250 138//250 137//250
f 126//251 127//251 139//251
f 126//252 139//252 138//252
f 127//253 128//253 140//253
f 127//254 140//254 139//254
f 128//255 129//255 141//255
f 128//256 141//256 140//256
f 129//257 130//257 142//257
f 129//258 142//258 141//258
f 130//259 131//259 143//259
f 130//260 143//260 142//260
f 131//261 132//261 144//261
f 131//262 144//262 143//262
f 132//263 121//263 133//263
f 132//264 133//264 144//264
f 133//265 134//265 146//265
f 133//266 146//266 145//266
f 134//267 135//267 147//267
f 134//268 147//268 146//268
f 135//269 136//269 148//269
f 135//270 148//270 147//270
f 136//271 137//271 149//271
f 136//272 149//272 148//272
f 137//273 138//273 150//273
f 137//274 150//274 149//274
f 138//275 139//275 151//275
f 138//276 151//276 150//276
f 139//277 140//277 152//277
f 139//278 152//278 151//278
f 140//279 141//279 153//279
f 140//280 153//280 152//280
f 141//281 142//281 154//281
f 141//282 154//282 153//282
f 142//283 143//283 155//283
f 142//284 155//284 154//284
f 143//285 144//285 156//285
f 143//286 156//286 155//286
f 144//287 133//287 145//287
f 144//288 145//288 156//288
f 145//289 146//289 158//289
f 145//290 158//290 157//290
f 146//291 147//291 159//291
f 146//292 159//292 158//292
f 147//293 148//293 160//293
f 147//294 160//294 159//294
f 148//295 149//295 161//295
f 148//296 161//296 160//296
f 149//297 150//297 162//297
f 149//298 162//298 161//298
f 150//299 151//299 163//299
f 150//300 163//300 162//300
f 151//301 152//301 164//301
f 151//302 164//302 163//302
f 152//303 153//303 165//303
f 152//304 165//304 164//304
f 153//305 154//305 166//305
f 153//306 166//306 165//306
f 154//307 155//307 167//307
f 154//308 167//308 166//308
f 155//309 156//309 168//309
f 155//310 168//310 167//310
f 156//311 145//311 157//311
f 156//312 157//312 168//312
usemtl c2
f 169//313 170//313 174//313
f 169//314 174//314 173//314
f 177//315 170//315 169//315
f 178//316 173//316 174//316
f 170//317 171//317 175//317
f 170//318 175//318 174//318
f 177//319 171//319 170//319
f 178//320 174//320 175//320
f 171//321 172//321 176//321
f 171//322 176//322 175//322
f 177//323 172//323 171//323
f 178//324 175//324 176//324
f 172//325 169//325 173//325
f 172//326 173//326 176//326
f 177//327 169//327 172//327
f 178//328 176//328 173//328
usemtl c3
f 179//329 180//329 184//329
f 179//330 184//330 183//330
f 187//331 180//331 179//331
f 188//332 183//332 184//332
f 180//333 181//333 185//333
f 180//334 185//334 184//334
f 187//335 181//335 180//335
f 188//336 184//336 185//336
f 181//337 182//337 186//337
f 181//338 186//338 185//338
f 187//339 182//339 181//339
f 188//340 185//340 186//340
f 182//341 179//341 183//341
f 182//342 183//342 186//342
f 187//343 179//343 182//343
f 188//344 186//344 183//344
f 189//345 190//345 194//345
f 189//346 194//346 193//346
f 197//347 190//347 189//347
f 198//348 193//348 194//348
f 190//349 191//349 195//349
f 190//350 195//350 194//350
f 197//351 191//351 190//351
f 198//352 194//352 195//352
f 191//353 192//353 196//353
f 191//354 196//354 195//354
f 197//355 192//355 191//355
f 198//356 195//356 196//356
f 192//357 189//357 193//357
f 192//358 193//358 196//358
f 197//359 189//359 192//359
f 198//360 196//360 193//360
f 199//361 200//361 204//361
f 199//362 204//362 203//362
f 207//363 200//363 199//363
f 208//364 203//364 204//364
f 200//365 201//365 205//365
f 200//366 205//366 204//366
f 207//367 201//367 200//367
f 208//368 204//368 205//368
f 201//369 202//369 206//369
f 201//370 206//370 205//370
f 207//371 202//371 201//371
f 208//372 205//372 206//372
f 202//373 199//373 203//373
f 202//374 203//374 206//374
f 207//375 199//375 202//375
f 208//376 206//376 203//376
usemtl c2
f 209//377 210//377 214//377
f 209//378 214//378 213//378
f 217//379 210//379 209//379
f 218//380 213//380 214//380
f 210//381 211//381 215//381
f 210//382 215//382 214//382
f 217//383 211//383 210//383
f 218//384 214//384 215//384
f 211//385 212//385 216//385
f 211//386 216//386 215//386
f 217//387 212//387 211//387
f 218//388 215//388 216//388
f 212//389 209//389 213//389
f 212//390 213//390 216//390
f 217//391 209//391 212//391
f 218//392 216//392 213//392
f 219//393 220//393 224//393
f 219//394 224//394 223//394
f 227//395 220//395 219//395
f 228//396 223//396 224//396
f 220//397 221//397 225//397
f 220//398 225//398 224//398
f 227//399 221//399 220//399
f 228//400 224//400 225//400
f 221//401 222//401 226//401
f 221//402 226//402 225//402
f 227//403 222//403 221//403
f 228//404 225//404 226//404
f 222//405 219//405 223//405
f 222//406 223//406 226//406
f 227//407 219//407 222//407
f 228//408 226//408 223//408
usemtl c3
f 229//409 230//409 234//409
f 229//410 234//410 233//410
f 237//411 230//411 229//411
f 238//412 233//412 234//412
f 230//413 231//413 235//413
f 230//414 235//414 234//414
f 237//415 231//415 230//415
f 238//416 234//416 235//416
f 231//417 232//417 236//417
f 231//418 236//418 235//418
f 237//419 232//419 231//419
f 238//420 235//420 236//420
f 232//421 229//421 233//421
f 232//422 233//422 236//422
f 237//423 229//423 232//423
f 238//424 236//424 233//424
f 239//425 240//425 244//425
f 239//426 244//426 243//426
f 247//427 240//427 239//427
f 248//428 243//428 244//428
f 240//429 241//429 245//429
f 240//430 245//430 244//430
f 247//431 241//431 240//431
f 248//432 244//432 245//432
f 241//433 242//433 246//433
f 241//434 246//434 245//434
f 247//435 242//435 241//435
f 248//436 245//436 246//436
f 242//437 239//437 243//437
f 242//438 243//438 246//438
f 247//439 239//439 242//439
f 248//440 246//440 243//440
f 249//441 250//441 254//441
f 249//442 254//442 253//442
f 257//443 250//443 249//443
f 258//444 253//444 254//444
f 250//445 251//445 255//445
f 250//446 255//446 254//446
f 257//447 251//447 250//447
f 258//448 254//448 255//448
f 251//449 252//449 256//449
f 251//450 256//450 255//450
f 257//451 252//451 251//451
f 258//452 255//452 256//452
f 252//453 249//453 253//453
f 252//454 253//454 256//454
f 257//455 249//455 252//455
f 258//456 256//456 253//456
usemtl c2
f 259//457 260//457 264//457
f 259//458 264//458 263//458
f 267//459 260//459 259//459
f 268//460 263//460 264//460
f 260//461 261//461 265//461
f 260//462 265//462 264//462
f 267//463 261//463 260//463
f 268//464 264//464 265//464
f 261//465 262//465 266//465
f 261//466 266//466 265//466
f 267//467 262//467 261//467
f 268//468 265//468 266//468
f 262//469 259//469 263//469
f 262//470 263//470 266//470
f 267//471 259//471 262//471
f 268//472 266//472 263//472
f 269//473 270//473 274//473
f 269//474 274//474 273//474
f 277//475 270//475 269//475
f 278//476 273//476 274//476
f 270//477 271//477 275//477
f 270//478 275//478 274//478
f 277//479 271//479 270//479
f 278//480 274//480 275//480
f 271//481 272//481 276//481
f 271//482 276//482 275//482
f 277//483 272//483 271//483
f 278//484 275//484 276//484
f 272//485 269//485 273//485
f 272//486 273//486 276//486
f 277//487 269//487 272//487
f 278//488 276//488 273//488
usemtl c3
f 279//489 280//489 284//489
f 279//490 284//490 283//490
f 287//491 280//491 279//491
f 288//492 283//492 284//492
f 280//493 281//493 285//493
f 280//494 285//494 284//494
f 287//495 281//495 280//495
f 288//496 284//496 285//496
f 281//497 282//497 286//497
f 281//498 286//498 285//498
f 287//499 282//499 281//499
f 288//500 285//500 286//500
f 282//501 279//501 283//501
f 282//502 283//502 286//502
f 287//503 279//503 282//503
f 288//504 286//504 283//504
usemtl c4
f 289//505 290//505 294//505
f 289//506 294//506 293//506
f 297//507 290//507 289//507
f 298//508 293//508 294//508
f 290//509 291//509 295//509
f 290//510 295//510 294//510
f 297//511 291//511 290//511
f 298//512 294//512 295//512
f 291//513 292//513 296//513
f 291//514 296//514 295//514
f 297//515 292//515 291//515
f 298//516 295//516 296//516
f 292//517 289//517 293//517
f 292//518 293//518 296//518
f 297//519 289//519 292//519
f 298//520 296//520 293//520
usemtl c3
f 299//521 300//521 304//521
f 299//522 304//522 303//522
f 307//523 300//523 299//523
f 308//524 303//524 304//524
f 300//525 301//525 305//525
f 300//526 305//526 304//526
f 307//527 301//527 300//527
f 308//528 304//528 305//528
f 301//529 302//529 306//529
f 301//530 306//530 305//530
f 307//531 302//531 301//531
f 308//532 305//532 306//532
f 302//533 299//533 303//533
f 302//534 303//534 306//534
f 307//535 299//535 302//535
f 308//536 306//536 303//536
