mtllib Food_Grapes.mtl
v -0.5000 0.0100 0.0000
v -0.5000 0.0100 0.0000
v -0.5000 0.0100 0.0000
v -0.5000 0.0100 0.0000
v -0.5000 0.0100 0.0000
v -0.5000 0.0100 0.0000
v -0.5000 0.0100 0.0000
v -0.2596 0.1096 0.0000
v -0.3501 0.1096 0.1880
v -0.5535 0.1096 0.2344
v -0.7166 0.1096 0.1043
v -0.7166 0.1096 -0.1043
v -0.5535 0.1096 -0.2344
v -0.3501 0.1096 -0.1880
v -0.1600 0.3500 0.0000
v -0.2880 0.3500 0.2658
v -0.5757 0.3500 0.3315
v -0.8063 0.3500 0.1475
v -0.8063 0.3500 -0.1475
v -0.5757 0.3500 -0.3315
v -0.2880 0.3500 -0.2658
v -0.2596 0.5904 0.0000
v -0.3501 0.5904 0.1880
v -0.5535 0.5904 0.2344
v -0.7166 0.5904 0.1043
v -0.7166 0.5904 -0.1043
v -0.5535 0.5904 -0.2344
v -0.3501 0.5904 -0.1880
v -0.5000 0.6900 0.0000
v -0.5000 0.6900 0.0000
v -0.5000 0.6900 0.0000
v -0.5000 0.6900 0.0000
v -0.5000 0.6900 -0.0000
v -0.5000 0.6900 -0.0000
v -0.5000 0.6900 -0.0000
v 0.0000 0.0100 0.0000
v 0.0000 0.0100 0.0000
v 0.0000 0.0100 0.0000
v 0.0000 0.0100 0.0000
v 0.0000 0.0100 0.0000
v 0.0000 0.0100 0.0000
v 0.0000 0.0100 0.0000
v 0.2404 0.1096 0.0000
v 0.1499 0.1096 0.1880
v -0.0535 0.1096 0.2344
v -0.2166 0.1096 0.1043
v -0.2166 0.1096 -0.1043
v -0.0535 0.1096 -0.2344
v 0.1499 0.1096 -0.1880
v 0.3400 0.3500 0.0000
v 0.2120 0.3500 0.2658
v -0.0757 0.3500 0.3315
v -0.3063 0.3500 0.1475
v -0.3063 0.3500 -0.1475
v -0.0757 0.3500 -0.3315
v 0.2120 0.3500 -0.2658
v 0.2404 0.5904 0.0000
v 0.1499 0.5904 0.1880
v -0.0535 0.5904 0.2344
v -0.2166 0.5904 0.1043
v -0.2166 0.5904 -0.1043
v -0.0535 0.5904 -0.2344
v 0.1499 0.5904 -0.1880
v 0.0000 0.6900 0.0000
v 0.0000 0.6900 0.0000
v -0.0000 0.6900 0.0000
v -0.0000 0.6900 0.0000
v -0.0000 0.6900 -0.0000
v -0.0000 0.6900 -0.0000
v 0.0000 0.6900 -0.0000
v 0.5000 0.0100 0.0000
v 0.5000 0.0100 0.0000
v 0.5000 0.0100 0.0000
v 0.5000 0.0100 0.0000
v 0.5000 0.0100 0.0000
v 0.5000 0.0100 0.0000
v 0.5000 0.0100 0.0000
v 0.7404 0.1096 0.0000
v 0.6499 0.1096 0.1880
v 0.4465 0.1096 0.2344
v 0.2834 0.1096 0.1043
v 0.2834 0.1096 -0.1043
v 0.4465 0.1096 -0.2344
v 0.6499 0.1096 -0.1880
v 0.8400 0.3500 0.0000
v 0.7120 0.3500 0.2658
v 0.4243 0.3500 0.3315
v 0.1937 0.3500 0.1475
v 0.1937 0.3500 -0.1475
v 0.4243 0.3500 -0.3315
v 0.7120 0.3500 -0.2658
v 0.7404 0.5904 0.0000
v 0.6499 0.5904 0.1880
v 0.4465 0.5904 0.2344
v 0.2834 0.5904 0.1043
v 0.2834 0.5904 -0.1043
v 0.4465 0.5904 -0.2344
v 0.6499 0.5904 -0.1880
v 0.5000 0.6900 0.0000
v 0.5000 0.6900 0.0000
v 0.5000 0.6900 0.0000
v 0.5000 0.6900 0.0000
v 0.5000 0.6900 -0.0000
v 0.5000 0.6900 -0.0000
v 0.5000 0.6900 -0.0000
v -0.2500 -0.4400 0.1500
v -0.2500 -0.4400 0.1500
v -0.2500 -0.4400 0.1500
v -0.2500 -0.4400 0.1500
v -0.2500 -0.4400 0.1500
v -0.2500 -0.4400 0.1500
v -0.2500 -0.4400 0.1500
v -0.0096 -0.3404 0.1500
v -0.1001 -0.3404 0.3380
v -0.3035 -0.3404 0.3844
v -0.4666 -0.3404 0.2543
v -0.4666 -0.3404 0.0457
v -0.3035 -0.3404 -0.0844
v -0.1001 -0.3404 -0.0380
v 0.0900 -0.1000 0.1500
v -0.0380 -0.1000 0.4158
v -0.3257 -0.1000 0.4815
v -0.5563 -0.1000 0.2975
v -0.5563 -0.1000 0.0025
v -0.3257 -0.1000 -0.1815
v -0.0380 -0.1000 -0.1158
v -0.0096 0.1404 0.1500
v -0.1001 0.1404 0.3380
v -0.3035 0.1404 0.3844
v -0.4666 0.1404 0.2543
v -0.4666 0.1404 0.0457
v -0.3035 0.1404 -0.0844
v -0.1001 0.1404 -0.0380
v -0.2500 0.2400 0.1500
v -0.2500 0.2400 0.1500
v -0.2500 0.2400 0.1500
v -0.2500 0.2400 0.1500
v -0.2500 0.2400 0.1500
v -0.2500 0.2400 0.1500
v -0.2500 0.2400 0.1500
v 0.2500 -0.4400 0.1500
v 0.2500 -0.4400 0.1500
v 0.2500 -0.4400 0.1500
v 0.2500 -0.4400 0.1500
v 0.2500 -0.4400 0.1500
v 0.2500 -0.4400 0.1500
v 0.2500 -0.4400 0.1500
v 0.4904 -0.3404 0.1500
v 0.3999 -0.3404 0.3380
v 0.1965 -0.3404 0.3844
v 0.0334 -0.3404 0.2543
v 0.0334 -0.3404 0.0457
v 0.1965 -0.3404 -0.0844
v 0.3999 -0.3404 -0.0380
v 0.5900 -0.1000 0.1500
v 0.4620 -0.1000 0.4158
v 0.1743 -0.1000 0.4815
v -0.0563 -0.1000 0.2975
v -0.0563 -0.1000 0.0025
v 0.1743 -0.1000 -0.1815
v 0.4620 -0.1000 -0.1158
v 0.4904 0.1404 0.1500
v 0.3999 0.1404 0.3380
v 0.1965 0.1404 0.3844
v 0.0334 0.1404 0.2543
v 0.0334 0.1404 0.0457
v 0.1965 0.1404 -0.0844
v 0.3999 0.1404 -0.0380
v 0.2500 0.2400 0.1500
v 0.2500 0.2400 0.1500
v 0.2500 0.2400 0.1500
v 0.2500 0.2400 0.1500
v 0.2500 0.2400 0.1500
v 0.2500 0.2400 0.1500
v 0.2500 0.2400 0.1500
v -0.5000 -0.0400 0.4000
v -0.5000 -0.0400 0.4000
v -0.5000 -0.0400 0.4000
v -0.5000 -0.0400 0.4000
v -0.5000 -0.0400 0.4000
v -0.5000 -0.0400 0.4000
v -0.5000 -0.0400 0.4000
v -0.2596 0.0596 0.4000
v -0.3501 0.0596 0.5880
v -0.5535 0.0596 0.6344
v -0.7166 0.0596 0.5043
v -0.7166 0.0596 0.2957
v -0.5535 0.0596 0.1656
v -0.3501 0.0596 0.2120
v -0.1600 0.3000 0.4000
v -0.2880 0.3000 0.6658
v -0.5757 0.3000 0.7315
v -0.8063 0.3000 0.5475
v -0.8063 0.3000 0.2525
v -0.5757 0.3000 0.0685
v -0.2880 0.3000 0.1342
v -0.2596 0.5404 0.4000
v -0.3501 0.5404 0.5880
v -0.5535 0.5404 0.6344
v -0.7166 0.5404 0.5043
v -0.7166 0.5404 0.2957
v -0.5535 0.5404 0.1656
v -0.3501 0.5404 0.2120
v -0.5000 0.6400 0.4000
v -0.5000 0.6400 0.4000
v -0.5000 0.6400 0.4000
v -0.5000 0.6400 0.4000
v -0.5000 0.6400 0.4000
v -0.5000 0.6400 0.4000
v -0.5000 0.6400 0.4000
v 0.5000 -0.0400 0.4000
v 0.5000 -0.0400 0.4000
v 0.5000 -0.0400 0.4000
v 0.5000 -0.0400 0.4000
v 0.5000 -0.0400 0.4000
v 0.5000 -0.0400 0.4000
v 0.5000 -0.0400 0.4000
v 0.7404 0.0596 0.4000
v 0.6499 0.0596 0.5880
v 0.4465 0.0596 0.6344
v 0.2834 0.0596 0.5043
v 0.2834 0.0596 0.2957
v 0.4465 0.0596 0.1656
v 0.6499 0.0596 0.2120
v 0.8400 0.3000 0.4000
v 0.7120 0.3000 0.6658
v 0.4243 0.3000 0.7315
v 0.1937 0.3000 0.5475
v 0.1937 0.3000 0.2525
v 0.4243 0.3000 0.0685
v 0.7120 0.3000 0.1342
v 0.7404 0.5404 0.4000
v 0.6499 0.5404 0.5880
v 0.4465 0.5404 0.6344
v 0.2834 0.5404 0.5043
v 0.2834 0.5404 0.2957
v 0.4465 0.5404 0.1656
v 0.6499 0.5404 0.2120
v 0.5000 0.6400 0.4000
v 0.5000 0.6400 0.4000
v 0.5000 0.6400 0.4000
v 0.5000 0.6400 0.4000
v 0.5000 0.6400 0.4000
v 0.5000 0.6400 0.4000
v 0.5000 0.6400 0.4000
v 0.0000 -0.8900 0.1000
v 0.0000 -0.8900 0.1000
v 0.0000 -0.8900 0.1000
v 0.0000 -0.8900 0.1000
v 0.0000 -0.8900 0.1000
v 0.0000 -0.8900 0.1000
v 0.0000 -0.8900 0.1000
v 0.2404 -0.7904 0.1000
v 0.1499 -0.7904 0.2880
v -0.0535 -0.7904 0.3344
v -0.2166 -0.7904 0.2043
v -0.2166 -0.7904 -0.0043
v -0.0535 -0.7904 -0.1344
v 0.1499 -0.7904 -0.0880
v 0.3400 -0.5500 0.1000
v 0.2120 -0.5500 0.3658
v -0.0757 -0.5500 0.4315
v -0.3063 -0.5500 0.2475
v -0.3063 -0.5500 -0.0475
v -0.0757 -0.5500 -0.2315
v 0.2120 -0.5500 -0.1658
v 0.2404 -0.3096 0.1000
v 0.1499 -0.3096 0.2880
v -0.0535 -0.3096 0.3344
v -0.2166 -0.3096 0.2043
v -0.2166 -0.3096 -0.0043
v -0.0535 -0.3096 -0.1344
v 0.1499 -0.3096 -0.0880
v 0.0000 -0.2100 0.1000
v 0.0000 -0.2100 0.1000
v -0.0000 -0.2100 0.1000
v -0.0000 -0.2100 0.1000
v -0.0000 -0.2100 0.1000
v -0.0000 -0.2100 0.1000
v 0.0000 -0.2100 0.1000
v -0.2000 -0.3400 0.4500
v -0.2000 -0.3400 0.4500
v -0.2000 -0.3400 0.4500
v -0.2000 -0.3400 0.4500
v -0.2000 -0.3400 0.4500
v -0.2000 -0.3400 0.4500
v -0.2000 -0.3400 0.4500
v 0.0404 -0.2404 0.4500
v -0.0501 -0.2404 0.6380
v -0.2535 -0.2404 0.6844
v -0.4166 -0.2404 0.5543
v -0.4166 -0.2404 0.3457
v -0.2535 -0.2404 0.2156
v -0.0501 -0.2404 0.2620
v 0.1400 -0.0000 0.4500
v 0.0120 -0.0000 0.7158
v -0.2757 -0.0000 0.7815
v -0.5063 -0.0000 0.5975
v -0.5063 -0.0000 0.3025
v -0.2757 -0.0000 0.1185
v 0.0120 -0.0000 0.1842
v 0.0404 0.2404 0.4500
v -0.0501 0.2404 0.6380
v -0.2535 0.2404 0.6844
v -0.4166 0.2404 0.5543
v -0.4166 0.2404 0.3457
v -0.2535 0.2404 0.2156
v -0.0501 0.2404 0.2620
v -0.2000 0.3400 0.4500
v -0.2000 0.3400 0.4500
v -0.2000 0.3400 0.4500
v -0.2000 0.3400 0.4500
v -0.2000 0.3400 0.4500
v -0.2000 0.3400 0.4500
v -0.2000 0.3400 0.4500
v 0.2000 -0.3400 0.4500
v 0.2000 -0.3400 0.4500
v 0.2000 -0.3400 0.4500
v 0.2000 -0.3400 0.4500
v 0.2000 -0.3400 0.4500
v 0.2000 -0.3400 0.4500
v 0.2000 -0.3400 0.4500
v 0.4404 -0.2404 0.4500
v 0.3499 -0.2404 0.6380
v 0.1465 -0.2404 0.6844
v -0.0166 -0.2404 0.5543
v -0.0166 -0.2404 0.3457
v 0.1465 -0.2404 0.2156
v 0.3499 -0.2404 0.2620
v 0.5400 -0.0000 0.4500
v 0.4120 -0.0000 0.7158
v 0.1243 -0.0000 0.7815
v -0.1063 -0.0000 0.5975
v -0.1063 -0.0000 0.3025
v 0.1243 -0.0000 0.1185
v 0.4120 -0.0000 0.1842
v 0.4404 0.2404 0.4500
v 0.3499 0.2404 0.6380
v 0.1465 0.2404 0.6844
v -0.0166 0.2404 0.5543
v -0.0166 0.2404 0.3457
v 0.1465 0.2404 0.2156
v 0.3499 0.2404 0.2620
v 0.2000 0.3400 0.4500
v 0.2000 0.3400 0.4500
v 0.2000 0.3400 0.4500
v 0.2000 0.3400 0.4500
v 0.2000 0.3400 0.4500
v 0.2000 0.3400 0.4500
v 0.2000 0.3400 0.4500
v 0.0000 0.0100 0.4500
v 0.0000 0.0100 0.4500
v 0.0000 0.0100 0.4500
v 0.0000 0.0100 0.4500
v 0.0000 0.0100 0.4500
v 0.0000 0.0100 0.4500
v 0.0000 0.0100 0.4500
v 0.2404 0.1096 0.4500
v 0.1499 0.1096 0.6380
v -0.0535 0.1096 0.6844
v -0.2166 0.1096 0.5543
v -0.2166 0.1096 0.3457
v -0.0535 0.1096 0.2156
v 0.1499 0.1096 0.2620
v 0.3400 0.3500 0.4500
v 0.2120 0.3500 0.7158
v -0.0757 0.3500 0.7815
v -0.3063 0.3500 0.5975
v -0.3063 0.3500 0.3025
v -0.0757 0.3500 0.1185
v 0.2120 0.3500 0.1842
v 0.2404 0.5904 0.4500
v 0.1499 0.5904 0.6380
v -0.0535 0.5904 0.6844
v -0.2166 0.5904 0.5543
v -0.2166 0.5904 0.3457
v -0.0535 0.5904 0.2156
v 0.1499 0.5904 0.2620
v 0.0000 0.6900 0.4500
v 0.0000 0.6900 0.4500
v -0.0000 0.6900 0.4500
v -0.0000 0.6900 0.4500
v -0.0000 0.6900 0.4500
v -0.0000 0.6900 0.4500
v 0.0000 0.6900 0.4500
v 0.0000 -0.6400 0.5000
v 0.0000 -0.6400 0.5000
v 0.0000 -0.6400 0.5000
v 0.0000 -0.6400 0.5000
v 0.0000 -0.6400 0.5000
v 0.0000 -0.6400 0.5000
v 0.0000 -0.6400 0.5000
v 0.2404 -0.5404 0.5000
v 0.1499 -0.5404 0.6880
v -0.0535 -0.5404 0.7344
v -0.2166 -0.5404 0.6043
v -0.2166 -0.5404 0.3957
v -0.0535 -0.5404 0.2656
v 0.1499 -0.5404 0.3120
v 0.3400 -0.3000 0.5000
v 0.2120 -0.3000 0.7658
v -0.0757 -0.3000 0.8315
v -0.3063 -0.3000 0.6475
v -0.3063 -0.3000 0.3525
v -0.0757 -0.3000 0.1685
v 0.2120 -0.3000 0.2342
v 0.2404 -0.0596 0.5000
v 0.1499 -0.0596 0.6880
v -0.0535 -0.0596 0.7344
v -0.2166 -0.0596 0.6043
v -0.2166 -0.0596 0.3957
v -0.0535 -0.0596 0.2656
v 0.1499 -0.0596 0.3120
v 0.0000 0.0400 0.5000
v 0.0000 0.0400 0.5000
v -0.0000 0.0400 0.5000
v -0.0000 0.0400 0.5000
v -0.0000 0.0400 0.5000
v -0.0000 0.0400 0.5000
v 0.0000 0.0400 0.5000
v 0.0592 0.4901 0.0000
v 0.0183 0.4970 0.0571
v -0.0479 0.5080 0.0353
v -0.0479 0.5080 -0.0353
v 0.0183 0.4970 -0.0571
v 0.1592 1.0901 0.0000
v 0.1183 1.0970 0.0571
v 0.0521 1.1080 0.0353
v 0.0521 1.1080 -0.0353
v 0.1183 1.0970 -0.0571
v 0.0000 0.5000 0.0000
v 0.1000 1.1000 0.0000
v 0.3671 0.9030 0.0000
v 0.3671 0.9030 0.0000
v 0.3671 0.9030 0.0000
v 0.3671 0.9030 0.0000
v 0.3671 0.9030 0.0000
v 0.6841 1.0450 0.0000
v 0.4591 0.9631 0.1647
v 0.0952 0.8307 0.1018
v 0.0952 0.8307 -0.1018
v 0.4591 0.9631 -0.1647
v 0.6670 1.0920 0.0000
v 0.4420 1.0101 0.1647
v 0.0781 0.8776 0.1018
v 0.0781 0.8776 -0.1018
v 0.4420 1.0101 -0.1647
v 0.3329 0.9970 0.0000
v 0.3329 0.9970 0.0000
v 0.3329 0.9970 0.0000
v 0.3329 0.9970 -0.0000
v 0.3329 0.9970 -0.0000
vn -0.3763 0.9086 -0.1812
vn -0.0929 0.9086 -0.4072
vn 0.2604 0.9086 -0.3266
vn 0.4177 0.9086 -0.0000
vn 0.2604 0.9086 0.3266
vn -0.0929 0.9086 0.4072
vn -0.3763 0.9086 0.1812
vn -0.8441 0.3496 -0.4065
vn -0.8441 0.3496 -0.4065
vn -0.2085 0.3496 -0.9134
vn -0.2085 0.3496 -0.9134
vn 0.5841 0.3496 -0.7325
vn 0.5841 0.3496 -0.7325
vn 0.9369 0.3496 -0.0000
vn 0.9369 0.3496 0.0000
vn 0.5841 0.3496 0.7325
vn 0.5841 0.3496 0.7325
vn -0.2085 0.3496 0.9134
vn -0.2085 0.3496 0.9134
vn -0.8441 0.3496 0.4065
vn -0.8441 0.3496 0.4065
vn -0.8441 -0.3496 -0.4065
vn -0.8441 -0.3496 -0.4065
vn -0.2085 -0.3496 -0.9134
vn -0.2085 -0.3496 -0.9134
vn 0.5841 -0.3496 -0.7325
vn 0.5841 -0.3496 -0.7325
vn 0.9369 -0.3496 0.0000
vn 0.9369 -0.3496 -0.0000
vn 0.5841 -0.3496 0.7325
vn 0.5841 -0.3496 0.7325
vn -0.2085 -0.3496 0.9134
vn -0.2085 -0.3496 0.9134
vn -0.8441 -0.3496 0.4065
vn -0.8441 -0.3496 0.4065
vn -0.3763 -0.9086 -0.1812
vn -0.0929 -0.9086 -0.4072
vn 0.2604 -0.9086 -0.3266
vn 0.4177 -0.9086 -0.0000
vn 0.2604 -0.9086 0.3266
vn -0.0929 -0.9086 0.4072
vn -0.3763 -0.9086 0.1812
vn -0.3763 0.9086 -0.1812
vn -0.0929 0.9086 -0.4072
vn 0.2604 0.9086 -0.3266
vn 0.4177 0.9086 -0.0000
vn 0.2604 0.9086 0.3266
vn -0.0929 0.9086 0.4072
vn -0.3763 0.9086 0.1812
vn -0.8441 0.3496 -0.4065
vn -0.8441 0.3496 -0.4065
vn -0.2085 0.3496 -0.9134
vn -0.2085 0.3496 -0.9134
vn 0.5841 0.3496 -0.7325
vn 0.5841 0.3496 -0.7325
vn 0.9369 0.3496 -0.0000
vn 0.9369 0.3496 -0.0000
vn 0.5841 0.3496 0.7325
vn 0.5841 0.3496 0.7325
vn -0.2085 0.3496 0.9134
vn -0.2085 0.3496 0.9134
vn -0.8441 0.3496 0.4065
vn -0.8441 0.3496 0.4065
vn -0.8441 -0.3496 -0.4065
vn -0.8441 -0.3496 -0.4065
vn -0.2085 -0.3496 -0.9134
vn -0.2085 -0.3496 -0.9134
vn 0.5841 -0.3496 -0.7325
vn 0.5841 -0.3496 -0.7325
vn 0.9369 -0.3496 -0.0000
vn 0.9369 -0.3496 -0.0000
vn 0.5841 -0.3496 0.7325
vn 0.5841 -0.3496 0.7325
vn -0.2085 -0.3496 0.9134
vn -0.2085 -0.3496 0.9134
vn -0.8441 -0.3496 0.4065
vn -0.8441 -0.3496 0.4065
vn -0.3763 -0.9086 -0.1812
vn -0.0929 -0.9086 -0.4072
vn 0.2604 -0.9086 -0.3266
vn 0.4177 -0.9086 -0.0000
vn 0.2604 -0.9086 0.3266
vn -0.0929 -0.9086 0.4072
vn -0.3763 -0.9086 0.1812
vn -0.3763 0.9086 -0.1812
vn -0.0929 0.9086 -0.4072
vn 0.2604 0.9086 -0.3266
vn 0.4177 0.9086 -0.0000
vn 0.2604 0.9086 0.3266
vn -0.0929 0.9086 0.4072
vn -0.3763 0.9086 0.1812
vn -0.8441 0.3496 -0.4065
vn -0.8441 0.3496 -0.4065
vn -0.2085 0.3496 -0.9134
vn -0.2085 0.3496 -0.9134
vn 0.5841 0.3496 -0.7325
vn 0.5841 0.3496 -0.7325
vn 0.9369 0.3496 -0.0000
vn 0.9369 0.3496 -0.0000
vn 0.5841 0.3496 0.7325
vn 0.5841 0.3496 0.7325
vn -0.2085 0.3496 0.9134
vn -0.2085 0.3496 0.9134
vn -0.8441 0.3496 0.4065
vn -0.8441 0.3496 0.4065
vn -0.8441 -0.3496 -0.4065
vn -0.8441 -0.3496 -0.4065
vn -0.2085 -0.3496 -0.9134
vn -0.2085 -0.3496 -0.9134
vn 0.5841 -0.3496 -0.7325
vn 0.5841 -0.3496 -0.7325
vn 0.9369 -0.3496 -0.0000
vn 0.9369 -0.3496 -0.0000
vn 0.5841 -0.3496 0.7325
vn 0.5841 -0.3496 0.7325
vn -0.2085 -0.3496 0.9134
vn -0.2085 -0.3496 0.9134
vn -0.8441 -0.3496 0.4065
vn -0.8441 -0.3496 0.4065
vn -0.3763 -0.9086 -0.1812
vn -0.0929 -0.9086 -0.4072
vn 0.2604 -0.9086 -0.3266
vn 0.4177 -0.9086 -0.0000
vn 0.2604 -0.9086 0.3266
vn -0.0929 -0.9086 0.4072
vn -0.3763 -0.9086 0.1812
vn -0.3763 0.9086 -0.1812
vn -0.0929 0.9086 -0.4072
vn 0.2604 0.9086 -0.3266
vn 0.4177 0.9086 -0.0000
vn 0.2604 0.9086 0.3266
vn -0.0929 0.9086 0.4072
vn -0.3763 0.9086 0.1812
vn -0.8441 0.3496 -0.4065
vn -0.8441 0.3496 -0.4065
vn -0.2085 0.3496 -0.9134
vn -0.2085 0.3496 -0.9134
vn 0.5841 0.3496 -0.7325
vn 0.5841 0.3496 -0.7325
vn 0.9369 0.3496 -0.0000
vn 0.9369 0.3496 0.0000
vn 0.5841 0.3496 0.7325
vn 0.5841 0.3496 0.7325
vn -0.2085 0.3496 0.9134
vn -0.2085 0.3496 0.9134
vn -0.8441 0.3496 0.4065
vn -0.8441 0.3496 0.4065
vn -0.8441 -0.3496 -0.4065
vn -0.8441 -0.3496 -0.4065
vn -0.2085 -0.3496 -0.9134
vn -0.2085 -0.3496 -0.9134
vn 0.5841 -0.3496 -0.7325
vn 0.5841 -0.3496 -0.7325
vn 0.9369 -0.3496 0.0000
vn 0.9369 -0.3496 -0.0000
vn 0.5841 -0.3496 0.7325
vn 0.5841 -0.3496 0.7325
vn -0.2085 -0.3496 0.9134
vn -0.2085 -0.3496 0.9134
vn -0.8441 -0.3496 0.4065
vn -0.8441 -0.3496 0.4065
vn -0.3763 -0.9086 -0.1812
vn -0.0929 -0.9086 -0.4072
vn 0.2604 -0.9086 -0.3266
vn 0.4177 -0.9086 -0.0000
vn 0.2604 -0.9086 0.3266
vn -0.0929 -0.9086 0.4072
vn -0.3763 -0.9086 0.1812
vn -0.3763 0.9086 -0.1812
vn -0.0929 0.9086 -0.4072
vn 0.2604 0.9086 -0.3266
vn 0.4177 0.9086 -0.0000
vn 0.2604 0.9086 0.3266
vn -0.0929 0.9086 0.4072
vn -0.3763 0.9086 0.1812
vn -0.8441 0.3496 -0.4065
vn -0.8441 0.3496 -0.4065
vn -0.2085 0.3496 -0.9134
vn -0.2085 0.3496 -0.9134
vn 0.5841 0.3496 -0.7325
vn 0.5841 0.3496 -0.7325
vn 0.9369 0.3496 -0.0000
vn 0.9369 0.3496 -0.0000
vn 0.5841 0.3496 0.7325
vn 0.5841 0.3496 0.7325
vn -0.2085 0.3496 0.9134
vn -0.2085 0.3496 0.9134
vn -0.8441 0.3496 0.4065
vn -0.8441 0.3496 0.4065
vn -0.8441 -0.3496 -0.4065
vn -0.8441 -0.3496 -0.4065
vn -0.2085 -0.3496 -0.9134
vn -0.2085 -0.3496 -0.9134
vn 0.5841 -0.3496 -0.7325
vn 0.5841 -0.3496 -0.7325
vn 0.9369 -0.3496 -0.0000
vn 0.9369 -0.3496 -0.0000
vn 0.5841 -0.3496 0.7325
vn 0.5841 -0.3496 0.7325
vn -0.2085 -0.3496 0.9134
vn -0.2085 -0.3496 0.9134
vn -0.8441 -0.3496 0.4065
vn -0.8441 -0.3496 0.4065
vn -0.3763 -0.9086 -0.1812
vn -0.0929 -0.9086 -0.4072
vn 0.2604 -0.9086 -0.3266
vn 0.4177 -0.9086 -0.0000
vn 0.2604 -0.9086 0.3266
vn -0.0929 -0.9086 0.4072
vn -0.3763 -0.9086 0.1812
vn -0.3763 0.9086 -0.1812
vn -0.0929 0.9086 -0.4072
vn 0.2604 0.9086 -0.3266
vn 0.4177 0.9086 -0.0000
vn 0.2604 0.9086 0.3266
vn -0.0929 0.9086 0.4072
vn -0.3763 0.9086 0.1812
vn -0.8441 0.3496 -0.4065
vn -0.8441 0.3496 -0.4065
vn -0.2085 0.3496 -0.9134
vn -0.2085 0.3496 -0.9134
vn 0.5841 0.3496 -0.7325
vn 0.5841 0.3496 -0.7325
vn 0.9369 0.3496 -0.0000
vn 0.9369 0.3496 0.0000
vn 0.5841 0.3496 0.7325
vn 0.5841 0.3496 0.7325
vn -0.2085 0.3496 0.9134
vn -0.2085 0.3496 0.9134
vn -0.8441 0.3496 0.4065
vn -0.8441 0.3496 0.4065
vn -0.8441 -0.3496 -0.4065
vn -0.8441 -0.3496 -0.4065
vn -0.2085 -0.3496 -0.9134
vn -0.2085 -0.3496 -0.9134
vn 0.5841 -0.3496 -0.7325
vn 0.5841 -0.3496 -0.7325
vn 0.9369 -0.3496 0.0000
vn 0.9369 -0.3496 -0.0000
vn 0.5841 -0.3496 0.7325
vn 0.5841 -0.3496 0.7325
vn -0.2085 -0.3496 0.9134
vn -0.2085 -0.3496 0.9134
vn -0.8441 -0.3496 0.4065
vn -0.8441 -0.3496 0.4065
vn -0.3763 -0.9086 -0.1812
vn -0.0929 -0.9086 -0.4072
vn 0.2604 -0.9086 -0.3266
vn 0.4177 -0.9086 -0.0000
vn 0.2604 -0.9086 0.3266
vn -0.0929 -0.9086 0.4072
vn -0.3763 -0.9086 0.1812
vn -0.3763 0.9086 -0.1812
vn -0.0929 0.9086 -0.4072
vn 0.2604 0.9086 -0.3266
vn 0.4177 0.9086 -0.0000
vn 0.2604 0.9086 0.3266
vn -0.0929 0.9086 0.4072
vn -0.3763 0.9086 0.1812
vn -0.8441 0.3496 -0.4065
vn -0.8441 0.3496 -0.4065
vn -0.2085 0.3496 -0.9134
vn -0.2085 0.3496 -0.9134
vn 0.5841 0.3496 -0.7325
vn 0.5841 0.3496 -0.7325
vn 0.9369 0.3496 -0.0000
vn 0.9369 0.3496 -0.0000
vn 0.5841 0.3496 0.7325
vn 0.5841 0.3496 0.7325
vn -0.2085 0.3496 0.9134
vn -0.2085 0.3496 0.9134
vn -0.8441 0.3496 0.4065
vn -0.8441 0.3496 0.4065
vn -0.8441 -0.3496 -0.4065
vn -0.8441 -0.3496 -0.4065
vn -0.2085 -0.3496 -0.9134
vn -0.2085 -0.3496 -0.9134
vn 0.5841 -0.3496 -0.7325
vn 0.5841 -0.3496 -0.7325
vn 0.9369 -0.3496 -0.0000
vn 0.9369 -0.3496 -0.0000
vn 0.5841 -0.3496 0.7325
vn 0.5841 -0.3496 0.7325
vn -0.2085 -0.3496 0.9134
vn -0.2085 -0.3496 0.9134
vn -0.8441 -0.3496 0.4065
vn -0.8441 -0.3496 0.4065
vn -0.3763 -0.9086 -0.1812
vn -0.0929 -0.9086 -0.4072
vn 0.2604 -0.9086 -0.3266
vn 0.4177 -0.9086 -0.0000
vn 0.2604 -0.9086 0.3266
vn -0.0929 -0.9086 0.4072
vn -0.3763 -0.9086 0.1812
vn -0.3763 0.9086 -0.1812
vn -0.0929 0.9086 -0.4072
vn 0.2604 0.9086 -0.3266
vn 0.4177 0.9086 -0.0000
vn 0.2604 0.9086 0.3266
vn -0.0929 0.9086 0.4072
vn -0.3763 0.9086 0.1812
vn -0.8441 0.3496 -0.4065
vn -0.8441 0.3496 -0.4065
vn -0.2085 0.3496 -0.9134
vn -0.2085 0.3496 -0.9134
vn 0.5841 0.3496 -0.7325
vn 0.5841 0.3496 -0.7325
vn 0.9369 0.3496 -0.0000
vn 0.9369 0.3496 -0.0000
vn 0.5841 0.3496 0.7325
vn 0.5841 0.3496 0.7325
vn -0.2085 0.3496 0.9134
vn -0.2085 0.3496 0.9134
vn -0.8441 0.3496 0.4065
vn -0.8441 0.3496 0.4065
vn -0.8441 -0.3496 -0.4065
vn -0.8441 -0.3496 -0.4065
vn -0.2085 -0.3496 -0.9134
vn -0.2085 -0.3496 -0.9134
vn 0.5841 -0.3496 -0.7325
vn 0.5841 -0.3496 -0.7325
vn 0.9369 -0.3496 -0.0000
vn 0.9369 -0.3496 -0.0000
vn 0.5841 -0.3496 0.7325
vn 0.5841 -0.3496 0.7325
vn -0.2085 -0.3496 0.9134
vn -0.2085 -0.3496 0.9134
vn -0.8441 -0.3496 0.4065
vn -0.8441 -0.3496 0.4065
vn -0.3763 -0.9086 -0.1812
vn -0.0929 -0.9086 -0.4072
vn 0.2604 -0.9086 -0.3266
vn 0.4177 -0.9086 -0.0000
vn 0.2604 -0.9086 0.3266
vn -0.0929 -0.9086 0.4072
vn -0.3763 -0.9086 0.1812
vn -0.3763 0.9086 -0.1812
vn -0.0929 0.9086 -0.4072
vn 0.2604 0.9086 -0.3266
vn 0.4177 0.9086 0.0000
vn 0.2604 0.9086 0.3266
vn -0.0929 0.9086 0.4072
vn -0.3763 0.9086 0.1812
vn -0.8441 0.3496 -0.4065
vn -0.8441 0.3496 -0.4065
vn -0.2085 0.3496 -0.9134
vn -0.2085 0.3496 -0.9134
vn 0.5841 0.3496 -0.7325
vn 0.5841 0.3496 -0.7325
vn 0.9369 0.3496 0.0000
vn 0.9369 0.3496 0.0000
vn 0.5841 0.3496 0.7325
vn 0.5841 0.3496 0.7325
vn -0.2085 0.3496 0.9134
vn -0.2085 0.3496 0.9134
vn -0.8441 0.3496 0.4065
vn -0.8441 0.3496 0.4065
vn -0.8441 -0.3496 -0.4065
vn -0.8441 -0.3496 -0.4065
vn -0.2085 -0.3496 -0.9134
vn -0.2085 -0.3496 -0.9134
vn 0.5841 -0.3496 -0.7325
vn 0.5841 -0.3496 -0.7325
vn 0.9369 -0.3496 0.0000
vn 0.9369 -0.3496 0.0000
vn 0.5841 -0.3496 0.7325
vn 0.5841 -0.3496 0.7325
vn -0.2085 -0.3496 0.9134
vn -0.2085 -0.3496 0.9134
vn -0.8441 -0.3496 0.4065
vn -0.8441 -0.3496 0.4065
vn -0.3763 -0.9086 -0.1812
vn -0.0929 -0.9086 -0.4072
vn 0.2604 -0.9086 -0.3266
vn 0.4177 -0.9086 0.0000
vn 0.2604 -0.9086 0.3266
vn -0.0929 -0.9086 0.4072
vn -0.3763 -0.9086 0.1812
vn -0.3763 0.9086 -0.1812
vn -0.0929 0.9086 -0.4072
vn 0.2604 0.9086 -0.3266
vn 0.4177 0.9086 -0.0000
vn 0.2604 0.9086 0.3266
vn -0.0929 0.9086 0.4072
vn -0.3763 0.9086 0.1812
vn -0.8441 0.3496 -0.4065
vn -0.8441 0.3496 -0.4065
vn -0.2085 0.3496 -0.9134
vn -0.2085 0.3496 -0.9134
vn 0.5841 0.3496 -0.7325
vn 0.5841 0.3496 -0.7325
vn 0.9369 0.3496 -0.0000
vn 0.9369 0.3496 -0.0000
vn 0.5841 0.3496 0.7325
vn 0.5841 0.3496 0.7325
vn -0.2085 0.3496 0.9134
vn -0.2085 0.3496 0.9134
vn -0.8441 0.3496 0.4065
vn -0.8441 0.3496 0.4065
vn -0.8441 -0.3496 -0.4065
vn -0.8441 -0.3496 -0.4065
vn -0.2085 -0.3496 -0.9134
vn -0.2085 -0.3496 -0.9134
vn 0.5841 -0.3496 -0.7325
vn 0.5841 -0.3496 -0.7325
vn 0.9369 -0.3496 -0.0000
vn 0.9369 -0.3496 -0.0000
vn 0.5841 -0.3496 0.7325
vn 0.5841 -0.3496 0.7325
vn -0.2085 -0.3496 0.9134
vn -0.2085 -0.3496 0.9134
vn -0.8441 -0.3496 0.4065
vn -0.8441 -0.3496 0.4065
vn -0.3763 -0.9086 -0.1812
vn -0.0929 -0.9086 -0.4072
vn 0.2604 -0.9086 -0.3266
vn 0.4177 -0.9086 -0.0000
vn 0.2604 -0.9086 0.3266
vn -0.0929 -0.9086 0.4072
vn -0.3763 -0.9086 0.1812
vn -0.3763 0.9086 -0.1812
vn -0.0929 0.9086 -0.4072
vn 0.2604 0.9086 -0.3266
vn 0.4177 0.9086 -0.0000
vn 0.2604 0.9086 0.3266
vn -0.0929 0.9086 0.4072
vn -0.3763 0.9086 0.1812
vn -0.8441 0.3496 -0.4065
vn -0.8441 0.3496 -0.4065
vn -0.2085 0.3496 -0.9134
vn -0.2085 0.3496 -0.9134
vn 0.5841 0.3496 -0.7325
vn 0.5841 0.3496 -0.7325
vn 0.9369 0.3496 -0.0000
vn 0.9369 0.3496 -0.0000
vn 0.5841 0.3496 0.7325
vn 0.5841 0.3496 0.7325
vn -0.2085 0.3496 0.9134
vn -0.2085 0.3496 0.9134
vn -0.8441 0.3496 0.4065
vn -0.8441 0.3496 0.4065
vn -0.8441 -0.3496 -0.4065
vn -0.8441 -0.3496 -0.4065
vn -0.2085 -0.3496 -0.9134
vn -0.2085 -0.3496 -0.9134
vn 0.5841 -0.3496 -0.7325
vn 0.5841 -0.3496 -0.7325
vn 0.9369 -0.3496 -0.0000
vn 0.9369 -0.3496 -0.0000
vn 0.5841 -0.3496 0.7325
vn 0.5841 -0.3496 0.7325
vn -0.2085 -0.3496 0.9134
vn -0.2085 -0.3496 0.9134
vn -0.8441 -0.3496 0.4065
vn -0.8441 -0.3496 0.4065
vn -0.3763 -0.9086 -0.1812
vn -0.0929 -0.9086 -0.4072
vn 0.2604 -0.9086 -0.3266
vn 0.4177 -0.9086 -0.0000
vn 0.2604 -0.9086 0.3266
vn -0.0929 -0.9086 0.4072
vn -0.3763 -0.9086 0.1812
vn -0.3763 0.9086 -0.1812
vn -0.0929 0.9086 -0.4072
vn 0.2604 0.9086 -0.3266
vn 0.4177 0.9086 -0.0000
vn 0.2604 0.9086 0.3266
vn -0.0929 0.9086 0.4072
vn -0.3763 0.9086 0.1812
vn -0.8441 0.3496 -0.4065
vn -0.8441 0.3496 -0.4065
vn -0.2085 0.3496 -0.9134
vn -0.2085 0.3496 -0.9134
vn 0.5841 0.3496 -0.7325
vn 0.5841 0.3496 -0.7325
vn 0.9369 0.3496 -0.0000
vn 0.9369 0.3496 -0.0000
vn 0.5841 0.3496 0.7325
vn 0.5841 0.3496 0.7325
vn -0.2085 0.3496 0.9134
vn -0.2085 0.3496 0.9134
vn -0.8441 0.3496 0.4065
vn -0.8441 0.3496 0.4065
vn -0.8441 -0.3496 -0.4065
vn -0.8441 -0.3496 -0.4065
vn -0.2085 -0.3496 -0.9134
vn -0.2085 -0.3496 -0.9134
vn 0.5841 -0.3496 -0.7325
vn 0.5841 -0.3496 -0.7325
vn 0.9369 -0.3496 -0.0000
vn 0.9369 -0.3496 -0.0000
vn 0.5841 -0.3496 0.7325
vn 0.5841 -0.3496 0.7325
vn -0.2085 -0.3496 0.9134
vn -0.2085 -0.3496 0.9134
vn -0.8441 -0.3496 0.4065
vn -0.8441 -0.3496 0.4065
vn -0.3763 -0.9086 -0.1812
vn -0.0929 -0.9086 -0.4072
vn 0.2604 -0.9086 -0.3266
vn 0.4177 -0.9086 -0.0000
vn 0.2604 -0.9086 0.3266
vn -0.0929 -0.9086 0.4072
vn -0.3763 -0.9086 0.1812
vn -0.7980 0.1330 -0.5878
vn -0.7980 0.1330 -0.5878
vn 0.3048 -0.0508 -0.9511
vn 0.3048 -0.0508 -0.9511
vn 0.9864 -0.1644 -0.0000
vn 0.9864 -0.1644 0.0000
vn 0.3048 -0.0508 0.9511
vn 0.3048 -0.0508 0.9511
vn -0.7980 0.1330 0.5878
vn -0.7980 0.1330 0.5878
vn -0.1644 -0.9864 -0.0000
vn -0.1644 -0.9864 -0.0000
vn -0.1644 -0.9864 0.0000
vn -0.1644 -0.9864 0.0000
vn -0.1644 -0.9864 0.0000
vn -0.1644 -0.9864 -0.0000
vn -0.1644 -0.9864 -0.0000
vn -0.1644 -0.9864 0.0000
vn -0.1644 -0.9864 0.0000
vn -0.1644 -0.9864 0.0000
vn -0.4066 0.9077 -0.1040
vn -0.3115 0.9354 -0.1672
vn -0.2572 0.9664 0.0000
vn -0.3115 0.9354 0.1672
vn -0.4066 0.9077 0.1040
vn -0.5327 -0.1939 -0.8238
vn -0.5327 -0.1939 -0.8238
vn 0.1507 0.0548 -0.9871
vn 0.1507 0.0548 -0.9871
vn 0.9397 0.3420 -0.0000
vn 0.9397 0.3420 -0.0000
vn 0.1507 0.0548 0.9871
vn 0.1507 0.0548 0.9871
vn -0.5327 -0.1939 0.8238
vn -0.5327 -0.1939 0.8238
vn 0.2720 -0.9567 -0.1040
vn 0.3626 -0.9168 -0.1672
vn 0.4242 -0.9056 -0.0000
vn 0.3626 -0.9168 0.1672
vn 0.2720 -0.9567 0.1040
usemtl c0
f 1//1 9//1 8//1
f 2//2 10//2 9//2
f 3//3 11//3 10//3
f 4//4 12//4 11//4
f 5//5 13//5 12//5
f 6//6 14//6 13//6
f 7//7 8//7 14//7
f 8//8 9//8 16//8
f 8//9 16//9 15//9
f 9//10 10//10 17//10
f 9//11 17//11 16//11
f 10//12 11//12 18//12
f 10//13 18//13 17//13
f 11//14 12//14 19//14
f 11//15 19//15 18//15
f 12//16 13//16 20//16
f 12//17 20//17 19//17
f 13//18 14//18 21//18
f 13//19 21//19 20//19
f 14//20 8//20 15//20
f 14//21 15//21 21//21
f 15//22 16//22 23//22
f 15//23 23//23 22//23
f 16//24 17//24 24//24
f 16//25 24//25 23//25
f 17//26 18//26 25//26
f 17//27 25//27 24//27
f 18//28 19//28 26//28
f 18//29 26//29 25//29
f 19//30 20//30 27//30
f 19//31 27//31 26//31
f 20//32 21//32 28//32
f 20//33 28//33 27//33
f 21//34 15//34 22//34
f 21//35 22//35 28//35
f 22//36 23//36 30//36
f 23//37 24//37 31//37
f 24//38 25//38 32//38
f 25//39 26//39 33//39
f 26//40 27//40 34//40
f 27//41 28//41 35//41
f 28//42 22//42 29//42
usemtl c1
f 36//43 44//43 43//43
f 37//44 45//44 44//44
f 38//45 46//45 45//45
f 39//46 47//46 46//46
f 40//47 48//47 47//47
f 41//48 49//48 48//48
f 42//49 43//49 49//49
f 43//50 44//50 51//50
f 43//51 51//51 50//51
f 44//52 45//52 52//52
f 44//53 52//53 51//53
f 45//54 46//54 53//54
f 45//55 53//55 52//55
f 46//56 47//56 54//56
f 46//57 54//57 53//57
f 47//58 48//58 55//58
f 47//59 55//59 54//59
f 48//60 49//60 56//60
f 48//61 56//61 55//61
f 49//62 43//62 50//62
f 49//63 50//63 56//63
f 50//64 51//64 58//64
f 50//65 58//65 57//65
f 51//66 52//66 59//66
f 51//67 59//67 58//67
f 52//68 53//68 60//68
f 52//69 60//69 59//69
f 53//70 54//70 61//70
f 53//71 61//71 60//71
f 54//72 55//72 62//72
f 54//73 62//73 61//73
f 55//74 56//74 63//74
f 55//75 63//75 62//75
f 56//76 50//76 57//76
f 56//77 57//77 63//77
f 57//78 58//78 65//78
f 58//79 59//79 66//79
f 59//80 60//80 67//80
f 60//81 61//81 68//81
f 61//82 62//82 69//82
f 62//83 63//83 70//83
f 63//84 57//84 64//84
usemtl c2
f 71//85 79//85 78//85
f 72//86 80//86 79//86
f 73//87 81//87 80//87
f 74//88 82//88 81//88
f 75//89 83//89 82//89
f 76//90 84//90 83//90
f 77//91 78//91 84//91
f 78//92 79//92 86//92
f 78//93 86//93 85//93
f 79//94 80//94 87//94
f 79//95 87//95 86//95
f 80//96 81//96 88//96
f 80//97 88//97 87//97
f 81//98 82//98 89//98
f 81//99 89//99 88//99
f 82//100 83//100 90//100
f 82//101 90//101 89//101
f 83//102 84//102 91//102
f 83//103 91//103 90//103
f 84//104 78//104 85//104
f 84//105 85//105 91//105
f 85//106 86//106 93//106
f 85//107 93//107 92//107
f 86//108 87//108 94//108
f 86//109 94//109 93//109
f 87//110 88//110 95//110
f 87//111 95//111 94//111
f 88//112 89//112 96//112
f 88//113 96//113 95//113
f 89//114 90//114 97//114
f 89//115 97//115 96//115
f 90//116 91//116 98//116
f 90//117 98//117 97//117
f 91//118 85//118 92//118
f 91//119 92//119 98//119
f 92//120 93//120 100//120
f 93//121 94//121 101//121
f 94//122 95//122 102//122
f 95//123 96//123 103//123
f 96//124 97//124 104//124
f 97//125 98//125 105//125
f 98//126 92//126 99//126
usemtl c0
f 106//127 114//127 113//127
f 107//128 115//128 114//128
f 108//129 116//129 115//129
f 109//130 117//130 116//130
f 110//131 118//131 117//131
f 111//132 119//132 118//132
f 112//133 113//133 119//133
f 113//134 114//134 121//134
f 113//135 121//135 120//135
f 114//136 115//136 122//136
f 114//137 122//137 121//137
f 115//138 116//138 123//138
f 115//139 123//139 122//139
f 116//140 117//140 124//140
f 116//141 124//141 123//141
f 117//142 118//142 125//142
f 117//143 125//143 124//143
f 118//144 119//144 126//144
f 118//145 126//145 125//145
f 119//146 113//146 120//146
f 119//147 120//147 126//147
f 120//148 121//148 128//148
f 120//149 128//149 127//149
f 121//150 122//150 129//150
f 121//151 129//151 128//151
f 122//152 123//152 130//152
f 122//153 130//153 129//153
f 123//154 124//154 131//154
f 123//155 131//155 130//155
f 124//156 125//156 132//156
f 124//157 132//157 131//157
f 125//158 126//158 133//158
f 125//159 133//159 132//159
f 126//160 120//160 127//160
f 126//161 127//161 133//161
f 127//162 128//162 135//162
f 128//163 129//163 136//163
f 129//164 130//164 137//164
f 130//165 131//165 138//165
f 131//166 132//166 139//166
f 132//167 133//167 140//167
f 133//168 127//168 134//168
usemtl c1
f 141//169 149//169 148//169
f 142//170 150//170 149//170
f 143//171 151//171 150//171
f 144//172 152//172 151//172
f 145//173 153//173 152//173
f 146//174 154//174 153//174
f 147//175 148//175 154//175
f 148//176 149//176 156//176
f 148//177 156//177 155//177
f 149//178 150//178 157//178
f 149//179 157//179 156//179
f 150//180 151//180 158//180
f 150//181 158//181 157//181
f 151//182 152//182 159//182
f 151//183 159//183 158//183
f 152//184 153//184 160//184
f 152//185 160//185 159//185
f 153//186 154//186 161//186
f 153//187 161//187 160//187
f 154//188 148//188 155//188
f 154//189 155//189 161//189
f 155//190 156//190 163//190
f 155//191 163//191 162//191
f 156//192 157//192 164//192
f 156//193 164//193 163//193
f 157//194 158//194 165//194
f 157//195 165//195 164//195
f 158//196 159//196 166//196
f 158//197 166//197 165//197
f 159//198 160//198 167//198
f 159//199 167//199 166//199
f 160//200 161//200 168//200
f 160//201 168//201 167//201
f 161//202 155//202 162//202
f 161//203 162//203 168//203
f 162//204 163//204 170//204
f 163//205 164//205 171//205
f 164//206 165//206 172//206
f 165//207 166//207 173//207
f 166//208 167//208 174//208
f 167//209 168//209 175//209
f 168//210 162//210 169//210
usemtl c2
f 176//211 184//211 183//211
f 177//212 185//212 184//212
f 178//213 186//213 185//213
f 179//214 187//214 186//214
f 180//215 188//215 187//215
f 181//216 189//216 188//216
f 182//217 183//217 189//217
f 183//218 184//218 191//218
f 183//219 191//219 190//219
f 184//220 185//220 192//220
f 184//221 192//221 191//221
f 185//222 186//222 193//222
f 185//223 193//223 192//223
f 186//224 187//224 194//224
f 186//225 194//225 193//225
f 187//226 188//226 195//226
f 187//227 195//227 194//227
f 188//228 189//228 196//228
f 188//229 196//229 195//229
f 189//230 183//230 190//230
f 189//231 190//231 196//231
f 190//232 191//232 198//232
f 190//233 198//233 197//233
f 191//234 192//234 199//234
f 191//235 199//235 198//235
f 192//236 193//236 200//236
f 192//237 200//237 199//237
f 193//238 194//238 201//238
f 193//239 201//239 200//239
f 194//240 195//240 202//240
f 194//241 202//241 201//241
f 195//242 196//242 203//242
f 195//243 203//243 202//243
f 196//244 190//244 197//244
f 196//245 197//245 203//245
f 197//246 198//246 205//246
f 198//247 199//247 206//247
f 199//248 200//248 207//248
f 200//249 201//249 208//249
f 201//250 202//250 209//250
f 202//251 203//251 210//251
f 203//252 197//252 204//252
usemtl c0
f 211//253 219//253 218//253
f 212//254 220//254 219//254
f 213//255 221//255 220//255
f 214//256 222//256 221//256
f 215//257 223//257 222//257
f 216//258 224//258 223//258
f 217//259 218//259 224//259
f 218//260 219//260 226//260
f 218//261 226//261 225//261
f 219//262 220//262 227//262
f 219//263 227//263 226//263
f 220//264 221//264 228//264
f 220//265 228//265 227//265
f 221//266 222//266 229//266
f 221//267 229//267 228//267
f 222//268 223//268 230//268
f 222//269 230//269 229//269
f 223//270 224//270 231//270
f 223//271 231//271 230//271
f 224//272 218//272 225//272
f 224//273 225//273 231//273
f 225//274 226//274 233//274
f 225//275 233//275 232//275
f 226//276 227//276 234//276
f 226//277 234//277 233//277
f 227//278 228//278 235//278
f 227//279 235//279 234//279
f 228//280 229//280 236//280
f 228//281 236//281 235//281
f 229//282 230//282 237//282
f 229//283 237//283 236//283
f 230//284 231//284 238//284
f 230//285 238//285 237//285
f 231//286 225//286 232//286
f 231//287 232//287 238//287
f 232//288 233//288 240//288
f 233//289 234//289 241//289
f 234//290 235//290 242//290
f 235//291 236//291 243//291
f 236//292 237//292 244//292
f 237//293 238//293 245//293
f 238//294 232//294 239//294
usemtl c1
f 246//295 254//295 253//295
f 247//296 255//296 254//296
f 248//297 256//297 255//297
f 249//298 257//298 256//298
f 250//299 258//299 257//299
f 251//300 259//300 258//300
f 252//301 253//301 259//301
f 253//302 254//302 261//302
f 253//303 261//303 260//303
f 254//304 255//304 262//304
f 254//305 262//305 261//305
f 255//306 256//306 263//306
f 255//307 263//307 262//307
f 256//308 257//308 264//308
f 256//309 264//309 263//309
f 257//310 258//310 265//310
f 257//311 265//311 264//311
f 258//312 259//312 266//312
f 258//313 266//313 265//313
f 259//314 253//314 260//314
f 259//315 260//315 266//315
f 260//316 261//316 268//316
f 260//317 268//317 267//317
f 261//318 262//318 269//318
f 261//319 269//319 268//319
f 262//320 263//320 270//320
f 262//321 270//321 269//321
f 263//322 264//322 271//322
f 263//323 271//323 270//323
f 264//324 265//324 272//324
f 264//325 272//325 271//325
f 265//326 266//326 273//326
f 265//327 273//327 272//327
f 266//328 260//328 267//328
f 266//329 267//329 273//329
f 267//330 268//330 275//330
f 268//331 269//331 276//331
f 269//332 270//332 277//332
f 270//333 271//333 278//333
f 271//334 272//334 279//334
f 272//335 273//335 280//335
f 273//336 267//336 274//336
usemtl c2
f 281//337 289//337 288//337
f 282//338 290//338 289//338
f 283//339 291//339 290//339
f 284//340 292//340 291//340
f 285//341 293//341 292//341
f 286//342 294//342 293//342
f 287//343 288//343 294//343
f 288//344 289//344 296//344
f 288//345 296//345 295//345
f 289//346 290//346 297//346
f 289//347 297//347 296//347
f 290//348 291//348 298//348
f 290//349 298//349 297//349
f 291//350 292//350 299//350
f 291//351 299//351 298//351
f 292//352 293//352 300//352
f 292//353 300//353 299//353
f 293//354 294//354 301//354
f 293//355 301//355 300//355
f 294//356 288//356 295//356
f 294//357 295//357 301//357
f 295//358 296//358 303//358
f 295//359 303//359 302//359
f 296//360 297//360 304//360
f 296//361 304//361 303//361
f 297//362 298//362 305//362
f 297//363 305//363 304//363
f 298//364 299//364 306//364
f 298//365 306//365 305//365
f 299//366 300//366 307//366
f 299//367 307//367 306//367
f 300//368 301//368 308//368
f 300//369 308//369 307//369
f 301//370 295//370 302//370
f 301//371 302//371 308//371
f 302//372 303//372 310//372
f 303//373 304//373 311//373
f 304//374 305//374 312//374
f 305//375 306//375 313//375
f 306//376 307//376 314//376
f 307//377 308//377 315//377
f 308//378 302//378 309//378
usemtl c0
f 316//379 324//379 323//379
f 317//380 325//380 324//380
f 318//381 326//381 325//381
f 319//382 327//382 326//382
f 320//383 328//383 327//383
f 321//384 329//384 328//384
f 322//385 323//385 329//385
f 323//386 324//386 331//386
f 323//387 331//387 330//387
f 324//388 325//388 332//388
f 324//389 332//389 331//389
f 325//390 326//390 333//390
f 325//391 333//391 332//391
f 326//392 327//392 334//392
f 326//393 334//393 333//393
f 327//394 328//394 335//394
f 327//395 335//395 334//395
f 328//396 329//396 336//396
f 328//397 336//397 335//397
f 329//398 323//398 330//398
f 329//399 330//399 336//399
f 330//400 331//400 338//400
f 330//401 338//401 337//401
f 331//402 332//402 339//402
f 331//403 339//403 338//403
f 332//404 333//404 340//404
f 332//405 340//405 339//405
f 333//406 334//406 341//406
f 333//407 341//407 340//407
f 334//408 335//408 342//408
f 334//409 342//409 341//409
f 335//410 336//410 343//410
f 335//411 343//411 342//411
f 336//412 330//412 337//412
f 336//413 337//413 343//413
f 337//414 338//414 345//414
f 338//415 339//415 346//415
f 339//416 340//416 347//416
f 340//417 341//417 348//417
f 341//418 342//418 349//418
f 342//419 343//419 350//419
f 343//420 337//420 344//420
usemtl c1
f 351//421 359//421 358//421
f 352//422 360//422 359//422
f 353//423 361//423 360//423
f 354//424 362//424 361//424
f 355//425 363//425 362//425
f 356//426 364//426 363//426
f 357//427 358//427 364//427
f 358//428 359//428 366//428
f 358//429 366//429 365//429
f 359//430 360//430 367//430
f 359//431 367//431 366//431
f 360//432 361//432 368//432
f 360//433 368//433 367//433
f 361//434 362//434 369//434
f 361//435 369//435 368//435
f 362//436 363//436 370//436
f 362//437 370//437 369//437
f 363//438 364//438 371//438
f 363//439 371//439 370//439
f 364//440 358//440 365//440
f 364//441 365//441 371//441
f 365//442 366//442 373//442
f 365//443 373//443 372//443
f 366//444 367//444 374//444
f 366//445 374//445 373//445
f 367//446 368//446 375//446
f 367//447 375//447 374//447
f 368//448 369//448 376//448
f 368//449 376//449 375//449
f 369//450 370//450 377//450
f 369//451 377//451 376//451
f 370//452 371//452 378//452
f 370//453 378//453 377//453
f 371//454 365//454 372//454
f 371//455 372//455 378//455
f 372//456 373//456 380//456
f 373//457 374//457 381//457
f 374//458 375//458 382//458
f 375//459 376//459 383//459
f 376//460 377//460 384//460
f 377//461 378//461 385//461
f 378//462 372//462 379//462
usemtl c2
f 386//463 394//463 393//463
f 387//464 395//464 394//464
f 388//465 396//465 395//465
f 389//466 397//466 396//466
f 390//467 398//467 397//467
f 391//468 399//468 398//468
f 392//469 393//469 399//469
f 393//470 394//470 401//470
f 393//471 401//471 400//471
f 394//472 395//472 402//472
f 394//473 402//473 401//473
f 395//474 396//474 403//474
f 395//475 403//475 402//475
f 396//476 397//476 404//476
f 396//477 404//477 403//477
f 397//478 398//478 405//478
f 397//479 405//479 404//479
f 398//480 399//480 406//480
f 398//481 406//481 405//481
f 399//482 393//482 400//482
f 399//483 400//483 406//483
f 400//484 401//484 408//484
f 400//485 408//485 407//485
f 401//486 402//486 409//486
f 401//487 409//487 408//487
f 402//488 403//488 410//488
f 402//489 410//489 409//489
f 403//490 404//490 411//490
f 403//491 411//491 410//491
f 404//492 405//492 412//492
f 404//493 412//493 411//493
f 405//494 406//494 413//494
f 405//495 413//495 412//495
f 406//496 400//496 407//496
f 406//497 407//497 413//497
f 407//498 408//498 415//498
f 408//499 409//499 416//499
f 409//500 410//500 417//500
f 410//501 411//501 418//501
f 411//502 412//502 419//502
f 412//503 413//503 420//503
f 413//504 407//504 414//504
usemtl c3
f 421//505 422//505 427//505
f 421//506 427//506 426//506
f 422//507 423//507 428//507
f 422//508 428//508 427//508
f 423//509 424//509 429//509
f 423//510 429//510 428//510
f 424//511 425//511 430//511
f 424//512 430//512 429//512
f 425//513 421//513 426//513
f 425//514 426//514 430//514
f 431//515 421//515 422//515
f 431//516 422//516 423//516
f 431//517 423//517 424//517
f 431//518 424//518 425//518
f 431//519 425//519 421//519
f 432//520 426//520 427//520
f 432//521 427//521 428//521
f 432//522 428//522 429//522
f 432//523 429//523 430//523
f 432//524 430//524 426//524
usemtl c4
f 433//525 439//525 438//525
f 434//526 440//526 439//526
f 435//527 441//527 440//527
f 436//528 442//528 441//528
f 437//529 438//529 442//529
f 438//530 439//530 444//530
f 438//531 444//531 443//531
f 439//532 440//532 445//532
f 439//533 445//533 444//533
f 440//534 441//534 446//534
f 440//535 446//535 445//535
f 441//536 442//536 447//536
f 441//537 447//537 446//537
f 442//538 438//538 443//538
f 442//539 443//539 447//539
f 443//540 444//540 449//540
f 444//541 445//541 450//541
f 445//542 446//542 451//542
f 446//543 447//543 452//543
f 447//544 443//544 448//544
