mtllib Food_RiceBall.mtl
v -0.8600 0.0500 -0.3750
v 0.8600 0.0500 -0.3750
v 0.3000 1.3500 -0.3750
v -0.3000 1.3500 -0.3750
v -0.8600 0.0500 0.3750
v 0.8600 0.0500 0.3750
v 0.3000 1.3500 0.3750
v -0.3000 1.3500 0.3750
v 0.0000 0.7000 -0.3750
v 0.0000 0.7000 0.3750
v -0.8256 0.0760 -0.4100
v 0.8256 0.0760 -0.4100
v 0.2880 1.3240 -0.4100
v -0.2880 1.3240 -0.4100
v -0.8256 0.0760 0.4100
v 0.8256 0.0760 0.4100
v 0.2880 1.3240 0.4100
v -0.2880 1.3240 0.4100
v 0.0000 0.7000 -0.4100
v 0.0000 0.7000 0.4100
v -0.8600 0.0500 -0.4000
v 0.8600 0.0500 -0.4000
v 0.6200 0.6200 -0.4000
v -0.6200 0.6200 -0.4000
v -0.8600 0.0500 0.4000
v 0.8600 0.0500 0.4000
v 0.6200 0.6200 0.4000
v -0.6200 0.6200 0.4000
v 0.0000 0.3350 -0.4000
v 0.0000 0.3350 0.4000
v -0.2500 0.2200 0.3900
v 0.2500 0.2200 0.3900
v 0.2500 0.2200 0.4300
v -0.2500 0.2200 0.4300
v -0.2500 0.4600 0.3900
v 0.2500 0.4600 0.3900
v 0.2500 0.4600 0.4300
v -0.2500 0.4600 0.4300
v 0.0000 0.2200 0.4100
v 0.0000 0.4600 0.4100
vn 0.0000 -1.0000 0.0000
vn 0.0000 -1.0000 0.0000
vn 0.0000 -0.0000 -1.0000
vn 0.0000 0.0000 1.0000
vn 0.9184 0.3956 0.0000
vn 0.9184 0.3956 -0.0000
vn 0.0000 0.0000 -1.0000
vn -0.0000 0.0000 1.0000
vn 0.0000 1.0000 0.0000
vn 0.0000 1.0000 -0.0000
vn 0.0000 0.0000 -1.0000
vn 0.0000 -0.0000 1.0000
vn -0.9184 0.3956 0.0000
vn -0.9184 0.3956 0.0000
vn -0.0000 0.0000 -1.0000
vn 0.0000 0.0000 1.0000
vn 0.0000 -1.0000 0.0000
vn 0.0000 -1.0000 0.0000
vn 0.0000 -0.0000 -1.0000
vn 0.0000 0.0000 1.0000
vn 0.9184 0.3956 0.0000
vn 0.9184 0.3956 -0.0000
vn 0.0000 0.0000 -1.0000
vn -0.0000 0.0000 1.0000
vn 0.0000 1.0000 0.0000
vn 0.0000 1.0000 -0.0000
vn 0.0000 0.0000 -1.0000
vn 0.0000 -0.0000 1.0000
vn -0.9184 0.3956 0.0000
vn -0.9184 0.3956 0.0000
vn -0.0000 0.0000 -1.0000
vn 0.0000 0.0000 1.0000
vn 0.0000 -1.0000 0.0000
vn 0.0000 -1.0000 0.0000
vn 0.0000 -0.0000 -1.0000
vn 0.0000 0.0000 1.0000
vn 0.9216 0.3881 0.0000
vn 0.9216 0.3881 -0.0000
vn 0.0000 0.0000 -1.0000
vn -0.0000 0.0000 1.0000
vn 0.0000 1.0000 0.0000
vn 0.0000 1.0000 -0.0000
vn 0.0000 0.0000 -1.0000
vn 0.0000 -0.0000 1.0000
vn -0.9216 0.3881 0.0000
vn -0.9216 0.3881 0.0000
vn -0.0000 0.0000 -1.0000
vn 0.0000 0.0000 1.0000
vn 0.0000 0.0000 1.0000
vn 0.0000 0.0000 1.0000
vn 0.0000 1.0000 0.0000
vn 0.0000 -1.0000 -0.0000
vn -1.0000 0.0000 0.0000
vn -1.0000 0.0000 0.0000
vn -0.0000 1.0000 0.0000
vn 0.0000 -1.0000 0.0000
vn 0.0000 0.0000 -1.0000
vn 0.0000 0.0000 -1.0000
vn 0.0000 1.0000 -0.0000
vn 0.0000 -1.0000 0.0000
vn 1.0000 0.0000 0.0000
vn 1.0000 -0.0000 0.0000
vn 0.0000 1.0000 0.0000
vn -0.0000 -1.0000 0.0000
usemtl c0
f 1//1 2//1 6//1
f 1//2 6//2 5//2
f 9//3 2//3 1//3
f 10//4 5//4 6//4
f 2//5 3//5 7//5
f 2//6 7//6 6//6
f 9//7 3//7 2//7
f 10//8 6//8 7//8
f 3//9 4//9 8//9
f 3//10 8//10 7//10
f 9//11 4//11 3//11
f 10//12 7//12 8//12
f 4//13 1//13 5//13
f 4//14 5//14 8//14
f 9//15 1//15 4//15
f 10//16 8//16 5//16
usemtl c1
f 11//17 12//17 16//17
f 11//18 16//18 15//18
f 19//19 12//19 11//19
f 20//20 15//20 16//20
f 12//21 13//21 17//21
f 12//22 17//22 16//22
f 19//23 13//23 12//23
f 20//24 16//24 17//24
f 13//25 14//25 18//25
f 13//26 18//26 17//26
f 19//27 14//27 13//27
f 20//28 17//28 18//28
f 14//29 11//29 15//29
f 14//30 15//30 18//30
f 19//31 11//31 14//31
f 20//32 18//32 15//32
usemtl c2
f 21//33 22//33 26//33
f 21//34 26//34 25//34
f 29//35 22//35 21//35
f 30//36 25//36 26//36
f 22//37 23//37 27//37
f 22//38 27//38 26//38
f 29//39 23//39 22//39
f 30//40 26//40 27//40
f 23//41 24//41 28//41
f 23//42 28//42 27//42
f 29//43 24//43 23//43
f 30//44 27//44 28//44
f 24//45 21//45 25//45
f 24//46 25//46 28//46
f 29//47 21//47 24//47
f 30//48 28//48 25//48
usemtl c3
f 31//49 32//49 36//49
f 31//50 36//50 35//50
f 39//51 32//51 31//51
f 40//52 35//52 36//52
f 32//53 33//53 37//53
f 32//54 37//54 36//54
f 39//55 33//55 32//55
f 40//56 36//56 37//56
f 33//57 34//57 38//57
f 33//58 38//58 37//58
f 39//59 34//59 33//59
f 40//60 37//60 38//60
f 34//61 31//61 35//61
f 34//62 35//62 38//62
f 39//63 31//63 34//63
f 40//64 38//64 35//64
