mtllib Food_Sandwich.mtl
v -0.8500 0.0000 -0.8500
v 0.8500 0.0000 -0.8500
v -0.8500 0.0000 0.8500
v -0.8500 0.2200 -0.8500
v 0.8500 0.2200 -0.8500
v -0.8500 0.2200 0.8500
v -0.2833 0.0000 -0.2833
v -0.2833 0.2200 -0.2833
v -0.8840 0.2200 -0.8840
v 0.9180 0.2200 -0.8840
v -0.8840 0.2200 0.9180
v -0.8840 0.3000 -0.8840
v 0.9180 0.3000 -0.8840
v -0.8840 0.3000 0.9180
v -0.2833 0.2200 -0.2833
v -0.2833 0.3000 -0.2833
v -0.8613 0.3000 -0.8613
v 0.8727 0.3000 -0.8613
v -0.8613 0.3000 0.8727
v -0.8613 0.3700 -0.8613
v 0.8727 0.3700 -0.8613
v -0.8613 0.3700 0.8727
v -0.2833 0.3000 -0.2833
v -0.2833 0.3700 -0.2833
v -0.8500 0.3700 -0.8500
v 0.8500 0.3700 -0.8500
v -0.8500 0.3700 0.8500
v -0.8500 0.4200 -0.8500
v 0.8500 0.4200 -0.8500
v -0.8500 0.4200 0.8500
v -0.2833 0.3700 -0.2833
v -0.2833 0.4200 -0.2833
v -0.9067 0.4200 -0.9067
v 0.9633 0.4200 -0.9067
v -0.9067 0.4200 0.9633
v -0.9067 0.4900 -0.9067
v 0.9633 0.4900 -0.9067
v -0.9067 0.4900 0.9633
v -0.2833 0.4200 -0.2833
v -0.2833 0.4900 -0.2833
v -0.8613 0.4900 -0.8613
v 0.8727 0.4900 -0.8613
v -0.8613 0.4900 0.8727
v -0.8613 0.7100 -0.8613
v 0.8727 0.7100 -0.8613
v -0.8613 0.7100 0.8727
v -0.2833 0.4900 -0.2833
v -0.2833 0.7100 -0.2833
v -0.8160 0.7000 -0.8160
v 0.7820 0.7000 -0.8160
v -0.8160 0.7000 0.7820
v -0.8160 0.7200 -0.8160
v 0.7820 0.7200 -0.8160
v -0.8160 0.7200 0.7820
v -0.2833 0.7000 -0.2833
v -0.2833 0.7200 -0.2833
v -0.1701 0.7119 -0.2001
v -0.1908 0.7124 -0.1715
v -0.2243 0.7096 -0.1824
v -0.2242 0.7074 -0.2176
v -0.1907 0.7088 -0.2285
v -0.2201 1.5119 -0.2501
v -0.2408 1.5124 -0.2215
v -0.2743 1.5096 -0.2324
v -0.2742 1.5074 -0.2676
v -0.2407 1.5088 -0.2785
v -0.2000 0.7100 -0.2000
v -0.2500 1.5100 -0.2500
v -0.2500 1.3100 -0.2600
v 0.1000 1.4300 -0.2600
v -0.2500 1.5500 -0.2600
v -0.2500 1.3100 -0.2400
v 0.1000 1.4300 -0.2400
v -0.2500 1.5500 -0.2400
v -0.1333 1.4300 -0.2600
v -0.1333 1.4300 -0.2400
vn 0.0000 0.0000 1.0000
vn 0.0000 0.0000 1.0000
vn 0.0000 1.0000 0.0000
vn 0.0000 -1.0000 -0.0000
vn -0.7071 0.0000 -0.7071
vn -0.7071 0.0000 -0.7071
vn -0.0000 1.0000 -0.0000
vn 0.0000 -1.0000 0.0000
vn 1.0000 0.0000 0.0000
vn 1.0000 -0.0000 0.0000
vn 0.0000 1.0000 0.0000
vn -0.0000 -1.0000 0.0000
vn 0.0000 0.0000 1.0000
vn 0.0000 0.0000 1.0000
vn 0.0000 1.0000 0.0000
vn 0.0000 -1.0000 -0.0000
vn -0.7071 0.0000 -0.7071
vn -0.7071 0.0000 -0.7071
vn -0.0000 1.0000 -0.0000
vn 0.0000 -1.0000 0.0000
vn 1.0000 0.0000 0.0000
vn 1.0000 -0.0000 0.0000
vn 0.0000 1.0000 0.0000
vn -0.0000 -1.0000 0.0000
vn 0.0000 0.0000 1.0000
vn 0.0000 0.0000 1.0000
vn 0.0000 1.0000 0.0000
vn 0.0000 -1.0000 -0.0000
vn -0.7071 0.0000 -0.7071
vn -0.7071 0.0000 -0.7071
vn -0.0000 1.0000 -0.0000
vn 0.0000 -1.0000 0.0000
vn 1.0000 0.0000 0.0000
vn 1.0000 -0.0000 0.0000
vn 0.0000 1.0000 0.0000
vn -0.0000 -1.0000 0.0000
vn 0.0000 0.0000 1.0000
vn 0.0000 0.0000 1.0000
vn 0.0000 1.0000 0.0000
vn 0.0000 -1.0000 -0.0000
vn -0.7071 0.0000 -0.7071
vn -0.7071 0.0000 -0.7071
vn -0.0000 1.0000 -0.0000
vn 0.0000 -1.0000 0.0000
vn 1.0000 0.0000 0.0000
vn 1.0000 -0.0000 0.0000
vn 0.0000 1.0000 0.0000
vn -0.0000 -1.0000 0.0000
vn 0.0000 0.0000 1.0000
vn 0.0000 0.0000 1.0000
vn 0.0000 1.0000 0.0000
vn 0.0000 -1.0000 -0.0000
vn -0.7071 0.0000 -0.7071
vn -0.7071 0.0000 -0.7071
vn -0.0000 1.0000 -0.0000
vn 0.0000 -1.0000 0.0000
vn 1.0000 0.0000 0.0000
vn 1.0000 -0.0000 0.0000
vn 0.0000 1.0000 0.0000
vn -0.0000 -1.0000 0.0000
vn 0.0000 0.0000 1.0000
vn 0.0000 0.0000 1.0000
vn 0.0000 1.0000 0.0000
vn 0.0000 -1.0000 -0.0000
vn -0.7071 0.0000 -0.7071
vn -0.7071 0.0000 -0.7071
vn -0.0000 1.0000 -0.0000
vn 0.0000 -1.0000 0.0000
vn 1.0000 0.0000 0.0000
vn 1.0000 -0.0000 0.0000
vn 0.0000 1.0000 0.0000
vn -0.0000 -1.0000 0.0000
vn 0.0000 0.0000 1.0000
vn 0.0000 0.0000 1.0000
vn 0.0000 1.0000 0.0000
vn 0.0000 -1.0000 -0.0000
vn -0.7071 0.0000 -0.7071
vn -0.7071 0.0000 -0.7071
vn -0.0000 1.0000 -0.0000
vn 0.0000 -1.0000 0.0000
vn 1.0000 0.0000 0.0000
vn 1.0000 -0.0000 0.0000
vn 0.0000 1.0000 0.0000
vn -0.0000 -1.0000 0.0000
vn -0.8063 -0.0870 -0.5851
vn -0.8063 -0.0870 -0.5851
vn 0.3103 -0.0400 -0.9498
vn 0.3103 -0.0400 -0.9498
vn 0.9981 0.0623 -0.0019
vn 0.9981 0.0623 -0.0019
vn 0.3066 0.0784 0.9486
vn 0.3066 0.0784 0.9486
vn -0.8086 -0.0138 0.5882
vn -0.8086 -0.0138 0.5882
vn 0.0623 -0.9961 0.0623
vn 0.0623 -0.9961 0.0623
vn 0.0623 -0.9961 0.0623
vn 0.0623 -0.9961 0.0623
vn 0.0623 -0.9961 0.0623
vn 0.0623 -0.9961 0.0623
vn 0.0623 -0.9961 0.0623
vn 0.0623 -0.9961 0.0623
vn 0.0623 -0.9961 0.0623
vn 0.0623 -0.9961 0.0623
vn 0.3243 -0.9459 0.0000
vn 0.3243 -0.9459 0.0000
vn 0.0000 -0.0000 -1.0000
vn -0.0000 0.0000 1.0000
vn 0.3243 0.9459 0.0000
vn 0.3243 0.9459 -0.0000
vn 0.0000 0.0000 -1.0000
vn 0.0000 -0.0000 1.0000
vn -1.0000 0.0000 0.0000
vn -1.0000 0.0000 0.0000
vn -0.0000 0.0000 -1.0000
vn 0.0000 0.0000 1.0000
usemtl c0
f 1//1 2//1 5//1
f 1//2 5//2 4//2
f 7//3 2//3 1//3
f 8//4 4//4 5//4
f 2//5 3//5 6//5
f 2//6 6//6 5//6
f 7//7 3//7 2//7
f 8//8 5//8 6//8
f 3//9 1//9 4//9
f 3//10 4//10 6//10
f 7//11 1//11 3//11
f 8//12 6//12 4//12
usemtl c1
f 9//13 10//13 13//13
f 9//14 13//14 12//14
f 15//15 10//15 9//15
f 16//16 12//16 13//16
f 10//17 11//17 14//17
f 10//18 14//18 13//18
f 15//19 11//19 10//19
f 16//20 13//20 14//20
f 11//21 9//21 12//21
f 11//22 12//22 14//22
f 15//23 9//23 11//23
f 16//24 14//24 12//24
usemtl c2
f 17//25 18//25 21//25
f 17//26 21//26 20//26
f 23//27 18//27 17//27
f 24//28 20//28 21//28
f 18//29 19//29 22//29
f 18//30 22//30 21//30
f 23//31 19//31 18//31
f 24//32 21//32 22//32
f 19//33 17//33 20//33
f 19//34 20//34 22//34
f 23//35 17//35 19//35
f 24//36 22//36 20//36
usemtl c3
f 25//37 26//37 29//37
f 25//38 29//38 28//38
f 31//39 26//39 25//39
f 32//40 28//40 29//40
f 26//41 27//41 30//41
f 26//42 30//42 29//42
f 31//43 27//43 26//43
f 32//44 29//44 30//44
f 27//45 25//45 28//45
f 27//46 28//46 30//46
f 31//47 25//47 27//47
f 32//48 30//48 28//48
usemtl c4
f 33//49 34//49 37//49
f 33//50 37//50 36//50
f 39//51 34//51 33//51
f 40//52 36//52 37//52
f 34//53 35//53 38//53
f 34//54 38//54 37//54
f 39//55 35//55 34//55
f 40//56 37//56 38//56
f 35//57 33//57 36//57
f 35//58 36//58 38//58
f 39//59 33//59 35//59
f 40//60 38//60 36//60
usemtl c5
f 41//61 42//61 45//61
f 41//62 45//62 44//62
f 47//63 42//63 41//63
f 48//64 44//64 45//64
f 42//65 43//65 46//65
f 42//66 46//66 45//66
f 47//67 43//67 42//67
f 48//68 45//68 46//68
f 43//69 41//69 44//69
f 43//70 44//70 46//70
f 47//71 41//71 43//71
f 48//72 46//72 44//72
usemtl c6
f 49//73 50//73 53//73
f 49//74 53//74 52//74
f 55//75 50//75 49//75
f 56//76 52//76 53//76
f 50//77 51//77 54//77
f 50//78 54//78 53//78
f 55//79 51//79 50//79
f 56//80 53//80 54//80
f 51//81 49//81 52//81
f 51//82 52//82 54//82
f 55//83 49//83 51//83
f 56//84 54//84 52//84
usemtl c7
f 57//85 58//85 63//85
f 57//86 63//86 62//86
f 58//87 59//87 64//87
f 58//88 64//88 63//88
f 59//89 60//89 65//89
f 59//90 65//90 64//90
f 60//91 61//91 66//91
f 60//92 66//92 65//92
f 61//93 57//93 62//93
f 61//94 62//94 66//94
f 67//95 57//95 58//95
f 67//96 58//96 59//96
f 67//97 59//97 60//97
f 67//98 60//98 61//98
f 67//99 61//99 57//99
f 68//100 62//100 63//100
f 68//101 63//101 64//101
f 68//102 64//102 65//102
f 68//103 65//103 66//103
f 68//104 66//104 62//104
usemtl c8
f 69//105 70//105 73//105
f 69//106 73//106 72//106
f 75//107 70//107 69//107
f 76//108 72//108 73//108
f 70//109 71//109 74//109
f 70//110 74//110 73//110
f 75//111 71//111 70//111
f 76//112 73//112 74//112
f 71//113 69//113 72//113
f 71//114 72//114 74//114
f 75//115 69//115 71//115
f 76//116 74//116 72//116
