mtllib Food_Hamburger.mtl
v 0.0000 0.0000 0.0000
v 0.0000 0.0000 0.0000
v 0.0000 0.0000 0.0000
v 0.0000 0.0000 0.0000
v 0.0000 0.0000 0.0000
v 0.0000 0.0000 0.0000
v 0.0000 0.0000 0.0000
v 0.0000 0.0000 0.0000
v 0.0000 0.0000 0.0000
v 0.0000 0.0000 0.0000
v 0.0000 0.0000 0.0000
v 0.0000 0.0000 0.0000
v 0.8800 0.0000 0.0000
v 0.7621 0.0000 0.4400
v 0.4400 0.0000 0.7621
v 0.0000 0.0000 0.8800
v -0.4400 0.0000 0.7621
v -0.7621 0.0000 0.4400
v -0.8800 0.0000 0.0000
v -0.7621 0.0000 -0.4400
v -0.4400 0.0000 -0.7621
v -0.0000 0.0000 -0.8800
v 0.4400 0.0000 -0.7621
v 0.7621 0.0000 -0.4400
v 0.9400 0.1000 0.0000
v 0.8141 0.1000 0.4700
v 0.4700 0.1000 0.8141
v 0.0000 0.1000 0.9400
v -0.4700 0.1000 0.8141
v -0.8141 0.1000 0.4700
v -0.9400 0.1000 0.0000
v -0.8141 0.1000 -0.4700
v -0.4700 0.1000 -0.8141
v -0.0000 0.1000 -0.9400
v 0.4700 0.1000 -0.8141
v 0.8141 0.1000 -0.4700
v 0.9000 0.3000 0.0000
v 0.7794 0.3000 0.4500
v 0.4500 0.3000 0.7794
v 0.0000 0.3000 0.9000
v -0.4500 0.3000 0.7794
v -0.7794 0.3000 0.4500
v -0.9000 0.3000 0.0000
v -0.7794 0.3000 -0.4500
v -0.4500 0.3000 -0.7794
v -0.0000 0.3000 -0.9000
v 0.4500 0.3000 -0.7794
v 0.7794 0.3000 -0.4500
v 0.0000 0.3000 0.0000
v 0.0000 0.3000 0.0000
v 0.0000 0.3000 0.0000
v 0.0000 0.3000 0.0000
v 0.0000 0.3000 0.0000
v 0.0000 0.3000 0.0000
v 0.0000 0.3000 0.0000
v 0.0000 0.3000 0.0000
v 0.0000 0.3000 0.0000
v 0.0000 0.3000 0.0000
v 0.0000 0.3000 0.0000
v 0.0000 0.3000 0.0000
v 0.9500 0.3000 0.0000
v 0.8227 0.3000 0.4750
v 0.4750 0.3000 0.8227
v 0.0000 0.3000 0.9500
v -0.4750 0.3000 0.8227
v -0.8227 0.3000 0.4750
v -0.9500 0.3000 0.0000
v -0.8227 0.3000 -0.4750
v -0.4750 0.3000 -0.8227
v -0.0000 0.3000 -0.9500
v 0.4750 0.3000 -0.8227
v 0.8227 0.3000 -0.4750
v 0.9500 0.5600 0.0000
v 0.8227 0.5600 0.4750
v 0.4750 0.5600 0.8227
v 0.0000 0.5600 0.9500
v -0.4750 0.5600 0.8227
v -0.8227 0.5600 0.4750
v -0.9500 0.5600 0.0000
v -0.8227 0.5600 -0.4750
v -0.4750 0.5600 -0.8227
v -0.0000 0.5600 -0.9500
v 0.4750 0.5600 -0.8227
v 0.8227 0.5600 -0.4750
v 0.0000 0.3000 0.0000
v 0.0000 0.5600 0.0000
v 0.8601 0.5600 0.6023
v -0.6023 0.5600 0.8601
v -0.8601 0.5600 -0.6023
v 0.6023 0.5600 -0.8601
v 0.8601 0.6100 0.6023
v -0.6023 0.6100 0.8601
v -0.8601 0.6100 -0.6023
v 0.6023 0.6100 -0.8601
v -0.0000 0.5600 0.0000
v -0.0000 0.6100 0.0000
v 1.0368 0.6000 -0.2204
v 0.9110 0.6000 0.1280
v 0.9359 0.6000 0.4976
v 0.6156 0.6000 0.6837
v 0.3971 0.6000 0.9828
v 0.0321 0.6000 0.9194
v -0.3276 0.6000 1.0081
v -0.5664 0.6000 0.7250
v -0.8989 0.6000 0.5617
v -0.8999 0.6000 0.1913
v -1.0497 0.6000 -0.1475
v -0.8123 0.6000 -0.4319
v -0.7093 0.6000 -0.7877
v -0.3446 0.6000 -0.8530
v -0.0370 0.6000 -1.0594
v 0.2843 0.6000 -0.8750
v 0.6526 0.6000 -0.8353
v 0.7802 0.6000 -0.4875
v 1.0368 0.7000 -0.2204
v 0.9110 0.7000 0.1280
v 0.9359 0.7000 0.4976
v 0.6156 0.7000 0.6837
v 0.3971 0.7000 0.9828
v 0.0321 0.7000 0.9194
v -0.3276 0.7000 1.0081
v -0.5664 0.7000 0.7250
v -0.8989 0.7000 0.5617
v -0.8999 0.7000 0.1913
v -1.0497 0.7000 -0.1475
v -0.8123 0.7000 -0.4319
v -0.7093 0.7000 -0.7877
v -0.3446 0.7000 -0.8530
v -0.0370 0.7000 -1.0594
v 0.2843 0.7000 -0.8750
v 0.6526 0.7000 -0.8353
v 0.7802 0.7000 -0.4875
v -0.0000 0.6000 0.0000
v -0.0000 0.7000 0.0000
v 0.0000 0.7000 0.0000
v 0.0000 0.7000 0.0000
v 0.0000 0.7000 0.0000
v 0.0000 0.7000 0.0000
v 0.0000 0.7000 0.0000
v 0.0000 0.7000 0.0000
v 0.0000 0.7000 0.0000
v 0.0000 0.7000 0.0000
v 0.0000 0.7000 0.0000
v 0.0000 0.7000 0.0000
v 0.0000 0.7000 0.0000
v 0.0000 0.7000 0.0000
v 0.9800 0.7000 0.0000
v 0.8487 0.7000 0.4900
v 0.4900 0.7000 0.8487
v 0.0000 0.7000 0.9800
v -0.4900 0.7000 0.8487
v -0.8487 0.7000 0.4900
v -0.9800 0.7000 0.0000
v -0.8487 0.7000 -0.4900
v -0.4900 0.7000 -0.8487
v -0.0000 0.7000 -0.9800
v 0.4900 0.7000 -0.8487
v 0.8487 0.7000 -0.4900
v 0.9800 0.8200 0.0000
v 0.8487 0.8200 0.4900
v 0.4900 0.8200 0.8487
v 0.0000 0.8200 0.9800
v -0.4900 0.8200 0.8487
v -0.8487 0.8200 0.4900
v -0.9800 0.8200 0.0000
v -0.8487 0.8200 -0.4900
v -0.4900 0.8200 -0.8487
v -0.0000 0.8200 -0.9800
v 0.4900 0.8200 -0.8487
v 0.8487 0.8200 -0.4900
v 0.9000 1.0500 0.0000
v 0.7794 1.0500 0.4500
v 0.4500 1.0500 0.7794
v 0.0000 1.0500 0.9000
v -0.4500 1.0500 0.7794
v -0.7794 1.0500 0.4500
v -0.9000 1.0500 0.0000
v -0.7794 1.0500 -0.4500
v -0.4500 1.0500 -0.7794
v -0.0000 1.0500 -0.9000
v 0.4500 1.0500 -0.7794
v 0.7794 1.0500 -0.4500
v 0.6500 1.3000 0.0000
v 0.5629 1.3000 0.3250
v 0.3250 1.3000 0.5629
v 0.0000 1.3000 0.6500
v -0.3250 1.3000 0.5629
v -0.5629 1.3000 0.3250
v -0.6500 1.3000 0.0000
v -0.5629 1.3000 -0.3250
v -0.3250 1.3000 -0.5629
v -0.0000 1.3000 -0.6500
v 0.3250 1.3000 -0.5629
v 0.5629 1.3000 -0.3250
v 0.3000 1.4800 0.0000
v 0.2598 1.4800 0.1500
v 0.1500 1.4800 0.2598
v 0.0000 1.4800 0.3000
v -0.1500 1.4800 0.2598
v -0.2598 1.4800 0.1500
v -0.3000 1.4800 0.0000
v -0.2598 1.4800 -0.1500
v -0.1500 1.4800 -0.2598
v -0.0000 1.4800 -0.3000
v 0.1500 1.4800 -0.2598
v 0.2598 1.4800 -0.1500
v 0.0000 1.5200 0.0000
v 0.0000 1.5200 0.0000
v 0.0000 1.5200 0.0000
v 0.0000 1.5200 0.0000
v 0.0000 1.5200 0.0000
v 0.0000 1.5200 0.0000
v 0.0000 1.5200 0.0000
v 0.0000 1.5200 0.0000
v 0.0000 1.5200 0.0000
v 0.0000 1.5200 0.0000
v 0.0000 1.5200 0.0000
v 0.0000 1.5200 0.0000
v -0.3000 1.3800 -0.1000
v -0.3000 1.3800 -0.1000
v -0.3000 1.3800 -0.1000
v -0.3000 1.3800 -0.1000
v -0.3000 1.3800 -0.1000
v -0.2134 1.4000 -0.1000
v -0.2732 1.4000 -0.0506
v -0.3701 1.4000 -0.0695
v -0.3701 1.4000 -0.1305
v -0.2732 1.4000 -0.1494
v -0.2134 1.4400 -0.1000
v -0.2732 1.4400 -0.0506
v -0.3701 1.4400 -0.0695
v -0.3701 1.4400 -0.1305
v -0.2732 1.4400 -0.1494
v -0.3000 1.4600 -0.1000
v -0.3000 1.4600 -0.1000
v -0.3000 1.4600 -0.1000
v -0.3000 1.4600 -0.1000
v -0.3000 1.4600 -0.1000
v 0.2000 1.4000 -0.2500
v 0.2000 1.4000 -0.2500
v 0.2000 1.4000 -0.2500
v 0.2000 1.4000 -0.2500
v 0.2000 1.4000 -0.2500
v 0.2866 1.4200 -0.2500
v 0.2268 1.4200 -0.2006
v 0.1299 1.4200 -0.2195
v 0.1299 1.4200 -0.2805
v 0.2268 1.4200 -0.2994
v 0.2866 1.4600 -0.2500
v 0.2268 1.4600 -0.2006
v 0.1299 1.4600 -0.2195
v 0.1299 1.4600 -0.2805
v 0.2268 1.4600 -0.2994
v 0.2000 1.4800 -0.2500
v 0.2000 1.4800 -0.2500
v 0.2000 1.4800 -0.2500
v 0.2000 1.4800 -0.2500
v 0.2000 1.4800 -0.2500
v 0.3500 1.2800 0.2500
v 0.3500 1.2800 0.2500
v 0.3500 1.2800 0.2500
v 0.3500 1.2800 0.2500
v 0.3500 1.2800 0.2500
v 0.4366 1.3000 0.2500
v 0.3768 1.3000 0.2994
v 0.2799 1.3000 0.2805
v 0.2799 1.3000 0.2195
v 0.3768 1.3000 0.2006
v 0.4366 1.3400 0.2500
v 0.3768 1.3400 0.2994
v 0.2799 1.3400 0.2805
v 0.2799 1.3400 0.2195
v 0.3768 1.3400 0.2006
v 0.3500 1.3600 0.2500
v 0.3500 1.3600 0.2500
v 0.3500 1.3600 0.2500
v 0.3500 1.3600 0.2500
v 0.3500 1.3600 0.2500
v -0.3500 1.2400 0.3500
v -0.3500 1.2400 0.3500
v -0.3500 1.2400 0.3500
v -0.3500 1.2400 0.3500
v -0.3500 1.2400 0.3500
v -0.2634 1.2600 0.3500
v -0.3232 1.2600 0.3994
v -0.4201 1.2600 0.3805
v -0.4201 1.2600 0.3195
v -0.3232 1.2600 0.3006
v -0.2634 1.3000 0.3500
v -0.3232 1.3000 0.3994
v -0.4201 1.3000 0.3805
v -0.4201 1.3000 0.3195
v -0.3232 1.3000 0.3006
v -0.3500 1.3200 0.3500
v -0.3500 1.3200 0.3500
v -0.3500 1.3200 0.3500
v -0.3500 1.3200 0.3500
v -0.3500 1.3200 0.3500
v 0.0000 1.4600 0.1500
v 0.0000 1.4600 0.1500
v 0.0000 1.4600 0.1500
v 0.0000 1.4600 0.1500
v 0.0000 1.4600 0.1500
v 0.0866 1.4800 0.1500
v 0.0268 1.4800 0.1994
v -0.0701 1.4800 0.1805
v -0.0701 1.4800 0.1195
v 0.0268 1.4800 0.1006
v 0.0866 1.5200 0.1500
v 0.0268 1.5200 0.1994
v -0.0701 1.5200 0.1805
v -0.0701 1.5200 0.1195
v 0.0268 1.5200 0.1006
v 0.0000 1.5400 0.1500
v 0.0000 1.5400 0.1500
v -0.0000 1.5400 0.1500
v -0.0000 1.5400 0.1500
v 0.0000 1.5400 0.1500
vn 0.0000 1.0000 0.0000
vn 0.0000 1.0000 0.0000
vn 0.0000 1.0000 0.0000
vn 0.0000 1.0000 -0.0000
vn 0.0000 1.0000 0.0000
vn 0.0000 1.0000 0.0000
vn 0.0000 1.0000 0.0000
vn 0.0000 1.0000 0.0000
vn 0.0000 1.0000 0.0000
vn 0.0000 1.0000 0.0000
vn 0.0000 1.0000 0.0000
vn -0.0000 1.0000 0.0000
vn -0.8357 0.5014 -0.2239
vn -0.8357 0.5014 -0.2239
vn -0.6118 0.5014 -0.6118
vn -0.6118 0.5014 -0.6118
vn -0.2239 0.5014 -0.8357
vn -0.2239 0.5014 -0.8357
vn 0.2239 0.5014 -0.8357
vn 0.2239 0.5014 -0.8357
vn 0.6118 0.5014 -0.6118
vn 0.6118 0.5014 -0.6118
vn 0.8357 0.5014 -0.2239
vn 0.8357 0.5014 -0.2239
vn 0.8357 0.5014 0.2239
vn 0.8357 0.5014 0.2239
vn 0.6118 0.5014 0.6118
vn 0.6118 0.5014 0.6118
vn 0.2239 0.5014 0.8357
vn 0.2239 0.5014 0.8357
vn -0.2239 0.5014 0.8357
vn -0.2239 0.5014 0.8357
vn -0.6118 0.5014 0.6118
vn -0.6118 0.5014 0.6118
vn -0.8357 0.5014 0.2239
vn -0.8357 0.5014 0.2239
vn -0.9484 -0.1897 -0.2541
vn -0.9484 -0.1897 -0.2541
vn -0.6943 -0.1897 -0.6943
vn -0.6943 -0.1897 -0.6943
vn -0.2541 -0.1897 -0.9484
vn -0.2541 -0.1897 -0.9484
vn 0.2541 -0.1897 -0.9484
vn 0.2541 -0.1897 -0.9484
vn 0.6943 -0.1897 -0.6943
vn 0.6943 -0.1897 -0.6943
vn 0.9484 -0.1897 -0.2541
vn 0.9484 -0.1897 -0.2541
vn 0.9484 -0.1897 0.2541
vn 0.9484 -0.1897 0.2541
vn 0.6943 -0.1897 0.6943
vn 0.6943 -0.1897 0.6943
vn 0.2541 -0.1897 0.9484
vn 0.2541 -0.1897 0.9484
vn -0.2541 -0.1897 0.9484
vn -0.2541 -0.1897 0.9484
vn -0.6943 -0.1897 0.6943
vn -0.6943 -0.1897 0.6943
vn -0.9484 -0.1897 0.2541
vn -0.9484 -0.1897 0.2541
vn 0.0000 -1.0000 0.0000
vn -0.0000 -1.0000 0.0000
vn -0.0000 -1.0000 0.0000
vn 0.0000 -1.0000 0.0000
vn 0.0000 -1.0000 -0.0000
vn 0.0000 -1.0000 -0.0000
vn 0.0000 -1.0000 0.0000
vn 0.0000 -1.0000 0.0000
vn 0.0000 -1.0000 0.0000
vn 0.0000 -1.0000 0.0000
vn 0.0000 -1.0000 0.0000
vn 0.0000 -1.0000 0.0000
vn -0.9659 0.0000 -0.2588
vn -0.9659 0.0000 -0.2588
vn -0.7071 0.0000 -0.7071
vn -0.7071 0.0000 -0.7071
vn -0.2588 0.0000 -0.9659
vn -0.2588 0.0000 -0.9659
vn 0.2588 0.0000 -0.9659
vn 0.2588 0.0000 -0.9659
vn 0.7071 0.0000 -0.7071
vn 0.7071 0.0000 -0.7071
vn 0.9659 0.0000 -0.2588
vn 0.9659 0.0000 -0.2588
vn 0.9659 0.0000 0.2588
vn 0.9659 -0.0000 0.2588
vn 0.7071 0.0000 0.7071
vn 0.7071 -0.0000 0.7071
vn 0.2588 0.0000 0.9659
vn 0.2588 -0.0000 0.9659
vn -0.2588 0.0000 0.9659
vn -0.2588 0.0000 0.9659
vn -0.7071 0.0000 0.7071
vn -0.7071 0.0000 0.7071
vn -0.9659 0.0000 0.2588
vn -0.9659 0.0000 0.2588
vn 0.0000 -1.0000 0.0000
vn 0.0000 -1.0000 0.0000
vn 0.0000 -1.0000 0.0000
vn 0.0000 -1.0000 0.0000
vn 0.0000 -1.0000 0.0000
vn 0.0000 -1.0000 0.0000
vn -0.0000 -1.0000 0.0000
vn 0.0000 -1.0000 0.0000
vn 0.0000 -1.0000 0.0000
vn 0.0000 -1.0000 -0.0000
vn 0.0000 -1.0000 0.0000
vn 0.0000 -1.0000 0.0000
vn 0.0000 -1.0000 0.0000
vn 0.0000 -1.0000 0.0000
vn 0.0000 -1.0000 0.0000
vn 0.0000 -1.0000 0.0000
vn 0.0000 -1.0000 0.0000
vn 0.0000 -1.0000 0.0000
vn -0.0000 -1.0000 0.0000
vn 0.0000 -1.0000 0.0000
vn 0.0000 -1.0000 0.0000
vn 0.0000 -1.0000 -0.0000
vn 0.0000 -1.0000 0.0000
vn 0.0000 -1.0000 0.0000
vn -0.1736 0.0000 -0.9848
vn -0.1736 0.0000 -0.9848
vn 0.0000 1.0000 -0.0000
vn 0.0000 -1.0000 0.0000
vn 0.9848 0.0000 -0.1736
vn 0.9848 0.0000 -0.1736
vn 0.0000 1.0000 0.0000
vn -0.0000 -1.0000 0.0000
vn 0.1736 0.0000 0.9848
vn 0.1736 -0.0000 0.9848
vn 0.0000 1.0000 0.0000
vn 0.0000 -1.0000 -0.0000
vn -0.9848 0.0000 0.1736
vn -0.9848 0.0000 0.1736
vn -0.0000 1.0000 0.0000
vn 0.0000 -1.0000 0.0000
vn -0.9406 0.0000 -0.3396
vn -0.9406 0.0000 -0.3396
vn -0.0000 1.0000 0.0000
vn 0.0000 -1.0000 0.0000
vn -0.9977 0.0000 0.0672
vn -0.9977 0.0000 0.0672
vn 0.0000 1.0000 0.0000
vn 0.0000 -1.0000 0.0000
vn -0.5023 0.0000 -0.8647
vn -0.5023 0.0000 -0.8647
vn 0.0000 1.0000 0.0000
vn 0.0000 -1.0000 0.0000
vn -0.8075 0.0000 -0.5899
vn -0.8075 0.0000 -0.5899
vn 0.0000 1.0000 0.0000
vn 0.0000 -1.0000 0.0000
vn 0.1711 0.0000 -0.9853
vn 0.1711 0.0000 -0.9853
vn 0.0000 1.0000 0.0000
vn 0.0000 -1.0000 0.0000
vn -0.2394 0.0000 -0.9709
vn -0.2394 0.0000 -0.9709
vn 0.0000 1.0000 -0.0000
vn 0.0000 -1.0000 0.0000
vn 0.7644 0.0000 -0.6448
vn 0.7644 0.0000 -0.6448
vn 0.0000 1.0000 0.0000
vn 0.0000 -1.0000 0.0000
vn 0.4407 0.0000 -0.8976
vn 0.4407 0.0000 -0.8976
vn 0.0000 1.0000 0.0000
vn 0.0000 -1.0000 0.0000
vn 1.0000 0.0000 -0.0026
vn 1.0000 0.0000 -0.0026
vn 0.0000 1.0000 0.0000
vn 0.0000 -1.0000 0.0000
vn 0.9146 0.0000 -0.4044
vn 0.9146 0.0000 -0.4044
vn 0.0000 1.0000 0.0000
vn -0.0000 -1.0000 0.0000
vn 0.7677 0.0000 0.6408
vn 0.7677 -0.0000 0.6408
vn 0.0000 1.0000 0.0000
vn 0.0000 -1.0000 0.0000
vn 0.9605 0.0000 0.2781
vn 0.9605 -0.0000 0.2781
vn 0.0000 1.0000 0.0000
vn 0.0000 -1.0000 0.0000
vn 0.1762 0.0000 0.9844
vn 0.1762 -0.0000 0.9844
vn 0.0000 1.0000 0.0000
vn 0.0000 -1.0000 0.0000
vn 0.5570 0.0000 0.8305
vn 0.5570 -0.0000 0.8305
vn 0.0000 1.0000 0.0000
vn 0.0000 -1.0000 0.0000
vn -0.4977 0.0000 0.8673
vn -0.4977 0.0000 0.8673
vn 0.0000 1.0000 0.0000
vn 0.0000 -1.0000 -0.0000
vn -0.1071 0.0000 0.9942
vn -0.1071 0.0000 0.9942
vn 0.0000 1.0000 0.0000
vn 0.0000 -1.0000 0.0000
vn -0.9388 0.0000 0.3445
vn -0.9388 0.0000 0.3445
vn 0.0000 1.0000 0.0000
vn 0.0000 -1.0000 0.0000
vn -0.7211 0.0000 0.6928
vn -0.7211 0.0000 0.6928
vn 0.0000 1.0000 0.0000
vn 0.0000 -1.0000 0.0000
vn 0.0000 1.0000 0.0000
vn 0.0000 1.0000 0.0000
vn 0.0000 1.0000 0.0000
vn 0.0000 1.0000 -0.0000
vn 0.0000 1.0000 0.0000
vn 0.0000 1.0000 0.0000
vn 0.0000 1.0000 0.0000
vn 0.0000 1.0000 0.0000
vn 0.0000 1.0000 0.0000
vn 0.0000 1.0000 0.0000
vn 0.0000 1.0000 0.0000
vn -0.0000 1.0000 0.0000
vn -0.9659 0.0000 -0.2588
vn -0.9659 0.0000 -0.2588
vn -0.7071 0.0000 -0.7071
vn -0.7071 0.0000 -0.7071
vn -0.2588 0.0000 -0.9659
vn -0.2588 0.0000 -0.9659
vn 0.2588 0.0000 -0.9659
vn 0.2588 0.0000 -0.9659
vn 0.7071 0.0000 -0.7071
vn 0.7071 0.0000 -0.7071
vn 0.9659 0.0000 -0.2588
vn 0.9659 0.0000 -0.2588
vn 0.9659 0.0000 0.2588
vn 0.9659 -0.0000 0.2588
vn 0.7071 0.0000 0.7071
vn 0.7071 -0.0000 0.7071
vn 0.2588 0.0000 0.9659
vn 0.2588 -0.0000 0.9659
vn -0.2588 0.0000 0.9659
vn -0.2588 0.0000 0.9659
vn -0.7071 0.0000 0.7071
vn -0.7071 0.0000 0.7071
vn -0.9659 0.0000 0.2588
vn -0.9659 0.0000 0.2588
vn -0.9156 -0.3185 -0.2453
vn -0.9156 -0.3185 -0.2453
vn -0.6703 -0.3185 -0.6703
vn -0.6703 -0.3185 -0.6703
vn -0.2453 -0.3185 -0.9156
vn -0.2453 -0.3185 -0.9156
vn 0.2453 -0.3185 -0.9156
vn 0.2453 -0.3185 -0.9156
vn 0.6703 -0.3185 -0.6703
vn 0.6703 -0.3185 -0.6703
vn 0.9156 -0.3185 -0.2453
vn 0.9156 -0.3185 -0.2453
vn 0.9156 -0.3185 0.2453
vn 0.9156 -0.3185 0.2453
vn 0.6703 -0.3185 0.6703
vn 0.6703 -0.3185 0.6703
vn 0.2453 -0.3185 0.9156
vn 0.2453 -0.3185 0.9156
vn -0.2453 -0.3185 0.9156
vn -0.2453 -0.3185 0.9156
vn -0.6703 -0.3185 0.6703
vn -0.6703 -0.3185 0.6703
vn -0.9156 -0.3185 0.2453
vn -0.9156 -0.3185 0.2453
vn -0.6947 -0.6947 -0.1862
vn -0.6947 -0.6947 -0.1862
vn -0.5086 -0.6947 -0.5086
vn -0.5086 -0.6947 -0.5086
vn -0.1862 -0.6947 -0.6947
vn -0.1862 -0.6947 -0.6947
vn 0.1862 -0.6947 -0.6947
vn 0.1862 -0.6947 -0.6947
vn 0.5086 -0.6947 -0.5086
vn 0.5086 -0.6947 -0.5086
vn 0.6947 -0.6947 -0.1862
vn 0.6947 -0.6947 -0.1862
vn 0.6947 -0.6947 0.1862
vn 0.6947 -0.6947 0.1862
vn 0.5086 -0.6947 0.5086
vn 0.5086 -0.6947 0.5086
vn 0.1862 -0.6947 0.6947
vn 0.1862 -0.6947 0.6947
vn -0.1862 -0.6947 0.6947
vn -0.1862 -0.6947 0.6947
vn -0.5086 -0.6947 0.5086
vn -0.5086 -0.6947 0.5086
vn -0.6947 -0.6947 0.1862
vn -0.6947 -0.6947 0.1862
vn -0.4540 -0.8827 -0.1216
vn -0.4540 -0.8827 -0.1216
vn -0.3323 -0.8827 -0.3323
vn -0.3323 -0.8827 -0.3323
vn -0.1216 -0.8827 -0.4540
vn -0.1216 -0.8827 -0.4540
vn 0.1216 -0.8827 -0.4540
vn 0.1216 -0.8827 -0.4540
vn 0.3323 -0.8827 -0.3323
vn 0.3323 -0.8827 -0.3323
vn 0.4540 -0.8827 -0.1216
vn 0.4540 -0.8827 -0.1216
vn 0.4540 -0.8827 0.1216
vn 0.4540 -0.8827 0.1216
vn 0.3323 -0.8827 0.3323
vn 0.3323 -0.8827 0.3323
vn 0.1216 -0.8827 0.4540
vn 0.1216 -0.8827 0.4540
vn -0.1216 -0.8827 0.4540
vn -0.1216 -0.8827 0.4540
vn -0.3323 -0.8827 0.3323
vn -0.3323 -0.8827 0.3323
vn -0.4540 -0.8827 0.1216
vn -0.4540 -0.8827 0.1216
vn -0.1321 -0.9906 -0.0354
vn -0.0967 -0.9906 -0.0967
vn -0.0354 -0.9906 -0.1321
vn 0.0354 -0.9906 -0.1321
vn 0.0967 -0.9906 -0.0967
vn 0.1321 -0.9906 -0.0354
vn 0.1321 -0.9906 0.0354
vn 0.0967 -0.9906 0.0967
vn 0.0354 -0.9906 0.1321
vn -0.0354 -0.9906 0.1321
vn -0.0967 -0.9906 0.0967
vn -0.1321 -0.9906 0.0354
vn -0.2171 0.9401 -0.2629
vn 0.0801 0.9081 -0.4109
vn 0.2745 0.9616 0.0000
vn 0.0801 0.9081 0.4109
vn -0.2171 0.9401 0.2629
vn -0.6368 0.0000 -0.7711
vn -0.6368 0.0000 -0.7711
vn 0.1913 0.0000 -0.9815
vn 0.1913 0.0000 -0.9815
vn 1.0000 0.0000 0.0000
vn 1.0000 -0.0000 0.0000
vn 0.1913 0.0000 0.9815
vn 0.1913 0.0000 0.9815
vn -0.6368 0.0000 0.7711
vn -0.6368 0.0000 0.7711
vn -0.2171 -0.9401 -0.2629
vn 0.0801 -0.9081 -0.4109
vn 0.2745 -0.9616 0.0000
vn 0.0801 -0.9081 0.4109
vn -0.2171 -0.9401 0.2629
vn -0.2171 0.9401 -0.2629
vn 0.0801 0.9081 -0.4109
vn 0.2745 0.9616 0.0000
vn 0.0801 0.9081 0.4109
vn -0.2171 0.9401 0.2629
vn -0.6368 0.0000 -0.7711
vn -0.6368 0.0000 -0.7711
vn 0.1913 0.0000 -0.9815
vn 0.1913 0.0000 -0.9815
vn 1.0000 0.0000 0.0000
vn 1.0000 -0.0000 0.0000
vn 0.1913 0.0000 0.9815
vn 0.1913 -0.0000 0.9815
vn -0.6368 0.0000 0.7711
vn -0.6368 0.0000 0.7711
vn -0.2171 -0.9401 -0.2629
vn 0.0801 -0.9081 -0.4109
vn 0.2745 -0.9616 0.0000
vn 0.0801 -0.9081 0.4109
vn -0.2171 -0.9401 0.2629
vn -0.2171 0.9401 -0.2629
vn 0.0801 0.9081 -0.4109
vn 0.2745 0.9616 0.0000
vn 0.0801 0.9081 0.4109
vn -0.2171 0.9401 0.2629
vn -0.6368 0.0000 -0.7711
vn -0.6368 0.0000 -0.7711
vn 0.1913 0.0000 -0.9815
vn 0.1913 0.0000 -0.9815
vn 1.0000 0.0000 0.0000
vn 1.0000 -0.0000 0.0000
vn 0.1913 -0.0000 0.9815
vn 0.1913 -0.0000 0.9815
vn -0.6368 0.0000 0.7711
vn -0.6368 0.0000 0.7711
vn -0.2171 -0.9401 -0.2629
vn 0.0801 -0.9081 -0.4109
vn 0.2745 -0.9616 0.0000
vn 0.0801 -0.9081 0.4109
vn -0.2171 -0.9401 0.2629
vn -0.2171 0.9401 -0.2629
vn 0.0801 0.9081 -0.4109
vn 0.2745 0.9616 0.0000
vn 0.0801 0.9081 0.4109
vn -0.2171 0.9401 0.2629
vn -0.6368 0.0000 -0.7711
vn -0.6368 0.0000 -0.7711
vn 0.1913 0.0000 -0.9815
vn 0.1913 0.0000 -0.9815
vn 1.0000 0.0000 0.0000
vn 1.0000 -0.0000 0.0000
vn 0.1913 -0.0000 0.9815
vn 0.1913 -0.0000 0.9815
vn -0.6368 0.0000 0.7711
vn -0.6368 0.0000 0.7711
vn -0.2171 -0.9401 -0.2629
vn 0.0801 -0.9081 -0.4109
vn 0.2745 -0.9616 0.0000
vn 0.0801 -0.9081 0.4109
vn -0.2171 -0.9401 0.2629
vn -0.2171 0.9401 -0.2629
vn 0.0801 0.9081 -0.4109
vn 0.2745 0.9616 -0.0000
vn 0.0801 0.9081 0.4109
vn -0.2171 0.9401 0.2629
vn -0.6368 0.0000 -0.7711
vn -0.6368 0.0000 -0.7711
vn 0.1913 0.0000 -0.9815
vn 0.1913 0.0000 -0.9815
vn 1.0000 0.0000 -0.0000
vn 1.0000 0.0000 -0.0000
vn 0.1913 0.0000 0.9815
vn 0.1913 0.0000 0.9815
vn -0.6368 0.0000 0.7711
vn -0.6368 0.0000 0.7711
vn -0.2171 -0.9401 -0.2629
vn 0.0801 -0.9081 -0.4109
vn 0.2745 -0.9616 -0.0000
vn 0.0801 -0.9081 0.4109
vn -0.2171 -0.9401 0.2629
usemtl c0
f 1//1 14//1 13//1
f 2//2 15//2 14//2
f 3//3 16//3 15//3
f 4//4 17//4 16//4
f 5//5 18//5 17//5
f 6//6 19//6 18//6
f 7//7 20//7 19//7
f 8//8 21//8 20//8
f 9//9 22//9 21//9
f 10//10 23//10 22//10
f 11//11 24//11 23//11
f 12//12 13//12 24//12
f 13//13 14//13 26//13
f 13//14 26//14 25//14
f 14//15 15//15 27//15
f 14//16 27//16 26//16
f 15//17 16//17 28//17
f 15//18 28//18 27//18
f 16//19 17//19 29//19
f 16//20 29//20 28//20
f 17//21 18//21 30//21
f 17//22 30//22 29//22
f 18//23 19//23 31//23
f 18//24 31//24 30//24
f 19//25 20//25 32//25
f 19//26 32//26 31//26
f 20//27 21//27 33//27
f 20//28 33//28 32//28
f 21//29 22//29 34//29
f 21//30 34//30 33//30
f 22//31 23//31 35//31
f 22//32 35//32 34//32
f 23//33 24//33 36//33
f 23//34 36//34 35//34
f 24//35 13//35 25//35
f 24//36 25//36 36//36
f 25//37 26//37 38//37
f 25//38 38//38 37//38
f 26//39 27//39 39//39
f 26//40 39//40 38//40
f 27//41 28//41 40//41
f 27//42 40//42 39//42
f 28//43 29//43 41//43
f 28//44 41//44 40//44
f 29//45 30//45 42//45
f 29//46 42//46 41//46
f 30//47 31//47 43//47
f 30//48 43//48 42//48
f 31//49 32//49 44//49
f 31//50 44//50 43//50
f 32//51 33//51 45//51
f 32//52 45//52 44//52
f 33//53 34//53 46//53
f 33//54 46//54 45//54
f 34//55 35//55 47//55
f 34//56 47//56 46//56
f 35//57 36//57 48//57
f 35//58 48//58 47//58
f 36//59 25//59 37//59
f 36//60 37//60 48//60
f 37//61 38//61 50//61
f 38//62 39//62 51//62
f 39//63 40//63 52//63
f 40//64 41//64 53//64
f 41//65 42//65 54//65
f 42//66 43//66 55//66
f 43//67 44//67 56//67
f 44//68 45//68 57//68
f 45//69 46//69 58//69
f 46//70 47//70 59//70
f 47//71 48//71 60//71
f 48//72 37//72 49//72
usemtl c1
f 61//73 62//73 74//73
f 61//74 74//74 73//74
f 62//75 63//75 75//75
f 62//76 75//76 74//76
f 63//77 64//77 76//77
f 63//78 76//78 75//78
f 64//79 65//79 77//79
f 64//80 77//80 76//80
f 65//81 66//81 78//81
f 65//82 78//82 77//82
f 66//83 67//83 79//83
f 66//84 79//84 78//84
f 67//85 68//85 80//85
f 67//86 80//86 79//86
f 68//87 69//87 81//87
f 68//88 81//88 80//88
f 69//89 70//89 82//89
f 69//90 82//90 81//90
f 70//91 71//91 83//91
f 70//92 83//92 82//92
f 71//93 72//93 84//93
f 71//94 84//94 83//94
f 72//95 61//95 73//95
f 72//96 73//96 84//96
f 85//97 61//97 62//97
f 85//98 62//98 63//98
f 85//99 63//99 64//99
f 85//100 64//100 65//100
f 85//101 65//101 66//101
f 85//102 66//102 67//102
f 85//103 67//103 68//103
f 85//104 68//104 69//104
f 85//105 69//105 70//105
f 85//106 70//106 71//106
f 85//107 71//107 72//107
f 85//108 72//108 61//108
f 86//109 73//109 74//109
f 86//110 74//110 75//110
f 86//111 75//111 76//111
f 86//112 76//112 77//112
f 86//113 77//113 78//113
f 86//114 78//114 79//114
f 86//115 79//115 80//115
f 86//116 80//116 81//116
f 86//117 81//117 82//117
f 86//118 82//118 83//118
f 86//119 83//119 84//119
f 86//120 84//120 73//120
usemtl c2
f 87//121 88//121 92//121
f 87//122 92//122 91//122
f 95//123 88//123 87//123
f 96//124 91//124 92//124
f 88//125 89//125 93//125
f 88//126 93//126 92//126
f 95//127 89//127 88//127
f 96//128 92//128 93//128
f 89//129 90//129 94//129
f 89//130 94//130 93//130
f 95//131 90//131 89//131
f 96//132 93//132 94//132
f 90//133 87//133 91//133
f 90//134 91//134 94//134
f 95//135 87//135 90//135
f 96//136 94//136 91//136
usemtl c3
f 97//137 98//137 116//137
f 97//138 116//138 115//138
f 133//139 98//139 97//139
f 134//140 115//140 116//140
f 98//141 99//141 117//141
f 98//142 117//142 116//142
f 133//143 99//143 98//143
f 134//144 116//144 117//144
f 99//145 100//145 118//145
f 99//146 118//146 117//146
f 133//147 100//147 99//147
f 134//148 117//148 118//148
f 100//149 101//149 119//149
f 100//150 119//150 118//150
f 133//151 101//151 100//151
f 134//152 118//152 119//152
f 101//153 102//153 120//153
f 101//154 120//154 119//154
f 133//155 102//155 101//155
f 134//156 119//156 120//156
f 102//157 103//157 121//157
f 102//158 121//158 120//158
f 133//159 103//159 102//159
f 134//160 120//160 121//160
f 103//161 104//161 122//161
f 103//162 122//162 121//162
f 133//163 104//163 103//163
f 134//164 121//164 122//164
f 104//165 105//165 123//165
f 104//166 123//166 122//166
f 133//167 105//167 104//167
f 134//168 122//168 123//168
f 105//169 106//169 124//169
f 105//170 124//170 123//170
f 133//171 106//171 105//171
f 134//172 123//172 124//172
f 106//173 107//173 125//173
f 106//174 125//174 124//174
f 133//175 107//175 106//175
f 134//176 124//176 125//176
f 107//177 108//177 126//177
f 107//178 126//178 125//178
f 133//179 108//179 107//179
f 134//180 125//180 126//180
f 108//181 109//181 127//181
f 108//182 127//182 126//182
f 133//183 109//183 108//183
f 134//184 126//184 127//184
f 109//185 110//185 128//185
f 109//186 128//186 127//186
f 133//187 110//187 109//187
f 134//188 127//188 128//188
f 110//189 111//189 129//189
f 110//190 129//190 128//190
f 133//191 111//191 110//191
f 134//192 128//192 129//192
f 111//193 112//193 130//193
f 111//194 130//194 129//194
f 133//195 112//195 111//195
f 134//196 129//196 130//196
f 112//197 113//197 131//197
f 112//198 131//198 130//198
f 133//199 113//199 112//199
f 134//200 130//200 131//200
f 113//201 114//201 132//201
f 113//202 132//202 131//202
f 133//203 114//203 113//203
f 134//204 131//204 132//204
f 114//205 97//205 115//205
f 114//206 115//206 132//206
f 133//207 97//207 114//207
f 134//208 132//208 115//208
usemtl c4
f 135//209 148//209 147//209
f 136//210 149//210 148//210
f 137//211 150//211 149//211
f 138//212 151//212 150//212
f 139//213 152//213 151//213
f 140//214 153//214 152//214
f 141//215 154//215 153//215
f 142//216 155//216 154//216
f 143//217 156//217 155//217
f 144//218 157//218 156//218
f 145//219 158//219 157//219
f 146//220 147//220 158//220
f 147//221 148//221 160//221
f 147//222 160//222 159//222
f 148//223 149//223 161//223
f 148//224 161//224 160//224
f 149//225 150//225 162//225
f 149//226 162//226 161//226
f 150//227 151//227 163//227
f 150//228 163//228 162//228
f 151//229 152//229 164//229
f 151//230 164//230 163//230
f 152//231 153//231 165//231
f 152//232 165//232 164//232
f 153//233 154//233 166//233
f 153//234 166//234 165//234
f 154//235 155//235 167//235
f 154//236 167//236 166//236
f 155//237 156//237 168//237
f 155//238 168//238 167//238
f 156//239 157//239 169//239
f 156//240 169//240 168//240
f 157//241 158//241 170//241
f 157//242 170//242 169//242
f 158//243 147//243 159//243
f 158//244 159//244 170//244
f 159//245 160//245 172//245
f 159//246 172//246 171//246
f 160//247 161//247 173//247
f 160//248 173//248 172//248
f 161//249 162//249 174//249
f 161//250 174//250 173//250
f 162//251 163//251 175//251
f 162//252 175//252 174//252
f 163//253 164//253 176//253
f 163//254 176//254 175//254
f 164//255 165//255 177//255
f 164//256 177//256 176//256
f 165//257 166//257 178//257
f 165//258 178//258 177//258
f 166//259 167//259 179//259
f 166//260 179//260 178//260
f 167//261 168//261 180//261
f 167//262 180//262 179//262
f 168//263 169//263 181//263
f 168//264 181//264 180//264
f 169//265 170//265 182//265
f 169//266 182//266 181//266
f 170//267 159//267 171//267
f 170//268 171//268 182//268
f 171//269 172//269 184//269
f 171//270 184//270 183//270
f 172//271 173//271 185//271
f 172//272 185//272 184//272
f 173//273 174//273 186//273
f 173//274 186//274 185//274
f 174//275 175//275 187//275
f 174//276 187//276 186//276
f 175//277 176//277 188//277
f 175//278 188//278 187//278
f 176//279 177//279 189//279
f 176//280 189//280 188//280
f 177//281 178//281 190//281
f 177//282 190//282 189//282
f 178//283 179//283 191//283
f 178//284 191//284 190//284
f 179//285 180//285 192//285
f 179//286 192//286 191//286
f 180//287 181//287 193//287
f 180//288 193//288 192//288
f 181//289 182//289 194//289
f 181//290 194//290 193//290
f 182//291 171//291 183//291
f 182//292 183//292 194//292
f 183//293 184//293 196//293
f 183//294 196//294 195//294
f 184//295 185//295 197//295
f 184//296 197//296 196//296
f 185//297 186//297 198//297
f 185//298 198//298 197//298
f 186//299 187//299 199//299
f 186//300 199//300 198//300
f 187//301 188//301 200//301
f 187//302 200//302 199//302
f 188//303 189//303 201//303
f 188//304 201//304 200//304
f 189//305 190//305 202//305
f 189//306 202//306 201//306
f 190//307 191//307 203//307
f 190//308 203//308 202//308
f 191//309 192//309 204//309
f 191//310 204//310 203//310
f 192//311 193//311 205//311
f 192//312 205//312 204//312
f 193//313 194//313 206//313
f 193//314 206//314 205//314
f 194//315 183//315 195//315
f 194//316 195//316 206//316
f 195//317 196//317 208//317
f 196//318 197//318 209//318
f 197//319 198//319 210//319
f 198//320 199//320 211//320
f 199//321 200//321 212//321
f 200//322 201//322 213//322
f 201//323 202//323 214//323
f 202//324 203//324 215//324
f 203//325 204//325 216//325
f 204//326 205//326 217//326
f 205//327 206//327 218//327
f 206//328 195//328 207//328
usemtl c5
f 219//329 225//329 224//329
f 220//330 226//330 225//330
f 221//331 227//331 226//331
f 222//332 228//332 227//332
f 223//333 224//333 228//333
f 224//334 225//334 230//334
f 224//335 230//335 229//335
f 225//336 226//336 231//336
f 225//337 231//337 230//337
f 226//338 227//338 232//338
f 226//339 232//339 231//339
f 227//340 228//340 233//340
f 227//341 233//341 232//341
f 228//342 224//342 229//342
f 228//343 229//343 233//343
f 229//344 230//344 235//344
f 230//345 231//345 236//345
f 231//346 232//346 237//346
f 232//347 233//347 238//347
f 233//348 229//348 234//348
f 239//349 245//349 244//349
f 240//350 246//350 245//350
f 241//351 247//351 246//351
f 242//352 248//352 247//352
f 243//353 244//353 248//353
f 244//354 245//354 250//354
f 244//355 250//355 249//355
f 245//356 246//356 251//356
f 245//357 251//357 250//357
f 246//358 247//358 252//358
f 246//359 252//359 251//359
f 247//360 248//360 253//360
f 247//361 253//361 252//361
f 248//362 244//362 249//362
f 248//363 249//363 253//363
f 249//364 250//364 255//364
f 250//365 251//365 256//365
f 251//366 252//366 257//366
f 252//367 253//367 258//367
f 253//368 249//368 254//368
f 259//369 265//369 264//369
f 260//370 266//370 265//370
f 261//371 267//371 266//371
f 262//372 268//372 267//372
f 263//373 264//373 268//373
f 264//374 265//374 270//374
f 264//375 270//375 269//375
f 265//376 266//376 271//376
f 265//377 271//377 270//377
f 266//378 267//378 272//378
f 266//379 272//379 271//379
f 267//380 268//380 273//380
f 267//381 273//381 272//381
f 268//382 264//382 269//382
f 268//383 269//383 273//383
f 269//384 270//384 275//384
f 270//385 271//385 276//385
f 271//386 272//386 277//386
f 272//387 273//387 278//387
f 273//388 269//388 274//388
f 279//389 285//389 284//389
f 280//390 286//390 285//390
f 281//391 287//391 286//391
f 282//392 288//392 287//392
f 283//393 284//393 288//393
f 284//394 285//394 290//394
f 284//395 290//395 289//395
f 285//396 286//396 291//396
f 285//397 291//397 290//397
f 286//398 287//398 292//398
f 286//399 292//399 291//399
f 287//400 288//400 293//400
f 287//401 293//401 292//401
f 288//402 284//402 289//402
f 288//403 289//403 293//403
f 289//404 290//404 295//404
f 290//405 291//405 296//405
f 291//406 292//406 297//406
f 292//407 293//407 298//407
f 293//408 289//408 294//408
f 299//409 305//409 304//409
f 300//410 306//410 305//410
f 301//411 307//411 306//411
f 302//412 308//412 307//412
f 303//413 304//413 308//413
f 304//414 305//414 310//414
f 304//415 310//415 309//415
f 305//416 306//416 311//416
f 305//417 311//417 310//417
f 306//418 307//418 312//418
f 306//419 312//419 311//419
f 307//420 308//420 313//420
f 307//421 313//421 312//421
f 308//422 304//422 309//422
f 308//423 309//423 313//423
f 309//424 310//424 315//424
f 310//425 311//425 316//425
f 311//426 312//426 317//426
f 312//427 313//427 318//427
f 313//428 309//428 314//428
