mtllib Food_Cupcake.mtl
v 0.0000 0.0000 0.0000
v 0.0000 0.0000 0.0000
v 0.0000 0.0000 0.0000
v 0.0000 0.0000 0.0000
v 0.0000 0.0000 0.0000
v 0.0000 0.0000 0.0000
v 0.0000 0.0000 0.0000
v 0.0000 0.0000 0.0000
v 0.0000 0.0000 0.0000
v 0.0000 0.0000 0.0000
v 0.4600 0.0000 0.0000
v 0.3721 0.0000 0.2704
v 0.1421 0.0000 0.4375
v -0.1421 0.0000 0.4375
v -0.3721 0.0000 0.2704
v -0.4600 0.0000 0.0000
v -0.3721 0.0000 -0.2704
v -0.1421 0.0000 -0.4375
v 0.1421 0.0000 -0.4375
v 0.3721 0.0000 -0.2704
v 0.7000 0.6200 0.0000
v 0.5663 0.6200 0.4114
v 0.2163 0.6200 0.6657
v -0.2163 0.6200 0.6657
v -0.5663 0.6200 0.4114
v -0.7000 0.6200 0.0000
v -0.5663 0.6200 -0.4114
v -0.2163 0.6200 -0.6657
v 0.2163 0.6200 -0.6657
v 0.5663 0.6200 -0.4114
v 0.0000 0.6200 0.0000
v 0.0000 0.4200 0.0000
v 0.0000 0.4200 0.0000
v 0.0000 0.4200 0.0000
v 0.0000 0.4200 0.0000
v 0.0000 0.4200 0.0000
v 0.0000 0.4200 0.0000
v 0.0000 0.4200 0.0000
v 0.0000 0.4200 0.0000
v 0.6235 0.5400 0.0000
v 0.4409 0.5400 0.4409
v 0.0000 0.5400 0.6235
v -0.4409 0.5400 0.4409
v -0.6235 0.5400 0.0000
v -0.4409 0.5400 -0.4409
v -0.0000 0.5400 -0.6235
v 0.4409 0.5400 -0.4409
v 0.6235 0.7800 0.0000
v 0.4409 0.7800 0.4409
v 0.0000 0.7800 0.6235
v -0.4409 0.7800 0.4409
v -0.6235 0.7800 0.0000
v -0.4409 0.7800 -0.4409
v -0.0000 0.7800 -0.6235
v 0.4409 0.7800 -0.4409
v 0.0000 0.9000 0.0000
v 0.0000 0.9000 0.0000
v 0.0000 0.9000 0.0000
v -0.0000 0.9000 0.0000
v -0.0000 0.9000 0.0000
v -0.0000 0.9000 -0.0000
v -0.0000 0.9000 -0.0000
v 0.0000 0.9000 -0.0000
v 0.0000 0.7000 0.0000
v 0.0000 0.7000 0.0000
v 0.0000 0.7000 0.0000
v 0.0000 0.7000 0.0000
v 0.0000 0.7000 0.0000
v 0.0000 0.7000 0.0000
v 0.0000 0.7000 0.0000
v 0.0000 0.7000 0.0000
v 0.4503 0.8000 0.0000
v 0.3184 0.8000 0.3184
v 0.0000 0.8000 0.4503
v -0.3184 0.8000 0.3184
v -0.4503 0.8000 0.0000
v -0.3184 0.8000 -0.3184
v -0.0000 0.8000 -0.4503
v 0.3184 0.8000 -0.3184
v 0.4503 1.0000 0.0000
v 0.3184 1.0000 0.3184
v 0.0000 1.0000 0.4503
v -0.3184 1.0000 0.3184
v -0.4503 1.0000 0.0000
v -0.3184 1.0000 -0.3184
v -0.0000 1.0000 -0.4503
v 0.3184 1.0000 -0.3184
v 0.0000 1.1000 0.0000
v 0.0000 1.1000 0.0000
v 0.0000 1.1000 0.0000
v -0.0000 1.1000 0.0000
v -0.0000 1.1000 0.0000
v -0.0000 1.1000 -0.0000
v -0.0000 1.1000 -0.0000
v 0.0000 1.1000 -0.0000
v 0.0000 0.9000 0.0000
v 0.0000 0.9000 0.0000
v 0.0000 0.9000 0.0000
v 0.0000 0.9000 0.0000
v 0.0000 0.9000 0.0000
v 0.0000 0.9000 0.0000
v 0.0000 0.9000 0.0000
v 0.0000 0.9000 0.0000
v 0.2771 0.9900 0.0000
v 0.1960 0.9900 0.1960
v 0.0000 0.9900 0.2771
v -0.1960 0.9900 0.1960
v -0.2771 0.9900 0.0000
v -0.1960 0.9900 -0.1960
v -0.0000 0.9900 -0.2771
v 0.1960 0.9900 -0.1960
v 0.2771 1.1700 0.0000
v 0.1960 1.1700 0.1960
v 0.0000 1.1700 0.2771
v -0.1960 1.1700 0.1960
v -0.2771 1.1700 0.0000
v -0.1960 1.1700 -0.1960
v -0.0000 1.1700 -0.2771
v 0.1960 1.1700 -0.1960
v 0.0000 1.2600 0.0000
v 0.0000 1.2600 0.0000
v 0.0000 1.2600 0.0000
v -0.0000 1.2600 0.0000
v -0.0000 1.2600 0.0000
v -0.0000 1.2600 -0.0000
v -0.0000 1.2600 -0.0000
v 0.0000 1.2600 -0.0000
v 0.0000 1.1700 0.0000
v 0.0000 1.1700 0.0000
v 0.0000 1.1700 0.0000
v 0.0000 1.1700 0.0000
v 0.0000 1.1700 0.0000
v 0.0000 1.1700 0.0000
v 0.1299 1.2450 0.0000
v 0.0650 1.2450 0.1125
v -0.0650 1.2450 0.1125
v -0.1299 1.2450 0.0000
v -0.0650 1.2450 -0.1125
v 0.0650 1.2450 -0.1125
v 0.1299 1.3950 0.0000
v 0.0650 1.3950 0.1125
v -0.0650 1.3950 0.1125
v -0.1299 1.3950 0.0000
v -0.0650 1.3950 -0.1125
v 0.0650 1.3950 -0.1125
v 0.0000 1.4700 0.0000
v 0.0000 1.4700 0.0000
v -0.0000 1.4700 0.0000
v -0.0000 1.4700 0.0000
v -0.0000 1.4700 -0.0000
v 0.0000 1.4700 -0.0000
vn 0.0000 1.0000 0.0000
vn 0.0000 1.0000 0.0000
vn 0.0000 1.0000 -0.0000
vn 0.0000 1.0000 0.0000
vn 0.0000 1.0000 0.0000
vn 0.0000 1.0000 0.0000
vn 0.0000 1.0000 0.0000
vn 0.0000 1.0000 0.0000
vn 0.0000 1.0000 0.0000
vn -0.0000 1.0000 0.0000
vn -0.8925 0.3455 -0.2900
vn -0.8925 0.3455 -0.2900
vn -0.5516 0.3455 -0.7592
vn -0.5516 0.3455 -0.7592
vn -0.0000 0.3455 -0.9384
vn -0.0000 0.3455 -0.9384
vn 0.5516 0.3455 -0.7592
vn 0.5516 0.3455 -0.7592
vn 0.8925 0.3455 -0.2900
vn 0.8925 0.3455 -0.2900
vn 0.8925 0.3455 0.2900
vn 0.8925 0.3455 0.2900
vn 0.5516 0.3455 0.7592
vn 0.5516 0.3455 0.7592
vn 0.0000 0.3455 0.9384
vn 0.0000 0.3455 0.9384
vn -0.5516 0.3455 0.7592
vn -0.5516 0.3455 0.7592
vn -0.8925 0.3455 0.2900
vn -0.8925 0.3455 0.2900
vn 0.0000 -1.0000 0.0000
vn 0.0000 -1.0000 0.0000
vn 0.0000 -1.0000 0.0000
vn 0.0000 -1.0000 0.0000
vn 0.0000 -1.0000 0.0000
vn -0.0000 -1.0000 0.0000
vn 0.0000 -1.0000 0.0000
vn 0.0000 -1.0000 -0.0000
vn 0.0000 -1.0000 0.0000
vn 0.0000 -1.0000 0.0000
vn -0.1884 0.9790 -0.0780
vn -0.0780 0.9790 -0.1884
vn 0.0780 0.9790 -0.1884
vn 0.1884 0.9790 -0.0780
vn 0.1884 0.9790 0.0780
vn 0.0780 0.9790 0.1884
vn -0.0780 0.9790 0.1884
vn -0.1884 0.9790 0.0780
vn -0.9239 0.0000 -0.3827
vn -0.9239 0.0000 -0.3827
vn -0.3827 0.0000 -0.9239
vn -0.3827 0.0000 -0.9239
vn 0.3827 0.0000 -0.9239
vn 0.3827 0.0000 -0.9239
vn 0.9239 0.0000 -0.3827
vn 0.9239 0.0000 -0.3827
vn 0.9239 0.0000 0.3827
vn 0.9239 0.0000 0.3827
vn 0.3827 0.0000 0.9239
vn 0.3827 0.0000 0.9239
vn -0.3827 0.0000 0.9239
vn -0.3827 0.0000 0.9239
vn -0.9239 0.0000 0.3827
vn -0.9239 0.0000 0.3827
vn -0.1884 -0.9790 -0.0780
vn -0.0780 -0.9790 -0.1884
vn 0.0780 -0.9790 -0.1884
vn 0.1884 -0.9790 -0.0780
vn 0.1884 -0.9790 0.0780
vn 0.0780 -0.9790 0.1884
vn -0.0780 -0.9790 0.1884
vn -0.1884 -0.9790 0.0780
vn -0.2159 0.9723 -0.0894
vn -0.0894 0.9723 -0.2159
vn 0.0894 0.9723 -0.2159
vn 0.2159 0.9723 -0.0894
vn 0.2159 0.9723 0.0894
vn 0.0894 0.9723 0.2159
vn -0.0894 0.9723 0.2159
vn -0.2159 0.9723 0.0894
vn -0.9239 0.0000 -0.3827
vn -0.9239 0.0000 -0.3827
vn -0.3827 0.0000 -0.9239
vn -0.3827 0.0000 -0.9239
vn 0.3827 0.0000 -0.9239
vn 0.3827 0.0000 -0.9239
vn 0.9239 0.0000 -0.3827
vn 0.9239 0.0000 -0.3827
vn 0.9239 0.0000 0.3827
vn 0.9239 0.0000 0.3827
vn 0.3827 0.0000 0.9239
vn 0.3827 0.0000 0.9239
vn -0.3827 0.0000 0.9239
vn -0.3827 0.0000 0.9239
vn -0.9239 0.0000 0.3827
vn -0.9239 0.0000 0.3827
vn -0.2159 -0.9723 -0.0894
vn -0.0894 -0.9723 -0.2159
vn 0.0894 -0.9723 -0.2159
vn 0.2159 -0.9723 -0.0894
vn 0.2159 -0.9723 0.0894
vn 0.0894 -0.9723 0.2159
vn -0.0894 -0.9723 0.2159
vn -0.2159 -0.9723 0.0894
vn -0.3064 0.9434 -0.1269
vn -0.1269 0.9434 -0.3064
vn 0.1269 0.9434 -0.3064
vn 0.3064 0.9434 -0.1269
vn 0.3064 0.9434 0.1269
vn 0.1269 0.9434 0.3064
vn -0.1269 0.9434 0.3064
vn -0.3064 0.9434 0.1269
vn -0.9239 0.0000 -0.3827
vn -0.9239 0.0000 -0.3827
vn -0.3827 0.0000 -0.9239
vn -0.3827 0.0000 -0.9239
vn 0.3827 0.0000 -0.9239
vn 0.3827 0.0000 -0.9239
vn 0.9239 0.0000 -0.3827
vn 0.9239 0.0000 -0.3827
vn 0.9239 0.0000 0.3827
vn 0.9239 -0.0000 0.3827
vn 0.3827 0.0000 0.9239
vn 0.3827 0.0000 0.9239
vn -0.3827 0.0000 0.9239
vn -0.3827 0.0000 0.9239
vn -0.9239 0.0000 0.3827
vn -0.9239 0.0000 0.3827
vn -0.3064 -0.9434 -0.1269
vn -0.1269 -0.9434 -0.3064
vn 0.1269 -0.9434 -0.3064
vn 0.3064 -0.9434 -0.1269
vn 0.3064 -0.9434 0.1269
vn 0.1269 -0.9434 0.3064
vn -0.1269 -0.9434 0.3064
vn -0.3064 -0.9434 0.1269
vn -0.4804 0.8321 -0.2774
vn 0.0000 0.8321 -0.5547
vn 0.4804 0.8321 -0.2774
vn 0.4804 0.8321 0.2774
vn 0.0000 0.8321 0.5547
vn -0.4804 0.8321 0.2774
vn -0.8660 0.0000 -0.5000
vn -0.8660 0.0000 -0.5000
vn -0.0000 0.0000 -1.0000
vn -0.0000 0.0000 -1.0000
vn 0.8660 0.0000 -0.5000
vn 0.8660 0.0000 -0.5000
vn 0.8660 0.0000 0.5000
vn 0.8660 0.0000 0.5000
vn 0.0000 0.0000 1.0000
vn 0.0000 0.0000 1.0000
vn -0.8660 0.0000 0.5000
vn -0.8660 0.0000 0.5000
vn -0.4804 -0.8321 -0.2774
vn -0.0000 -0.8321 -0.5547
vn 0.4804 -0.8321 -0.2774
vn 0.4804 -0.8321 0.2774
vn 0.0000 -0.8321 0.5547
vn -0.4804 -0.8321 0.2774
usemtl c0
f 1//1 12//1 11//1
f 2//2 13//2 12//2
f 3//3 14//3 13//3
f 4//4 15//4 14//4
f 5//5 16//5 15//5
f 6//6 17//6 16//6
f 7//7 18//7 17//7
f 8//8 19//8 18//8
f 9//9 20//9 19//9
f 10//10 11//10 20//10
f 11//11 12//11 22//11
f 11//12 22//12 21//12
f 12//13 13//13 23//13
f 12//14 23//14 22//14
f 13//15 14//15 24//15
f 13//16 24//16 23//16
f 14//17 15//17 25//17
f 14//18 25//18 24//18
f 15//19 16//19 26//19
f 15//20 26//20 25//20
f 16//21 17//21 27//21
f 16//22 27//22 26//22
f 17//23 18//23 28//23
f 17//24 28//24 27//24
f 18//25 19//25 29//25
f 18//26 29//26 28//26
f 19//27 20//27 30//27
f 19//28 30//28 29//28
f 20//29 11//29 21//29
f 20//30 21//30 30//30
f 31//31 21//31 22//31
f 31//32 22//32 23//32
f 31//33 23//33 24//33
f 31//34 24//34 25//34
f 31//35 25//35 26//35
f 31//36 26//36 27//36
f 31//37 27//37 28//37
f 31//38 28//38 29//38
f 31//39 29//39 30//39
f 31//40 30//40 21//40
usemtl c1
f 32//41 41//41 40//41
f 33//42 42//42 41//42
f 34//43 43//43 42//43
f 35//44 44//44 43//44
f 36//45 45//45 44//45
f 37//46 46//46 45//46
f 38//47 47//47 46//47
f 39//48 40//48 47//48
f 40//49 41//49 49//49
f 40//50 49//50 48//50
f 41//51 42//51 50//51
f 41//52 50//52 49//52
f 42//53 43//53 51//53
f 42//54 51//54 50//54
f 43//55 44//55 52//55
f 43//56 52//56 51//56
f 44//57 45//57 53//57
f 44//58 53//58 52//58
f 45//59 46//59 54//59
f 45//60 54//60 53//60
f 46//61 47//61 55//61
f 46//62 55//62 54//62
f 47//63 40//63 48//63
f 47//64 48//64 55//64
f 48//65 49//65 57//65
f 49//66 50//66 58//66
f 50//67 51//67 59//67
f 51//68 52//68 60//68
f 52//69 53//69 61//69
f 53//70 54//70 62//70
f 54//71 55//71 63//71
f 55//72 48//72 56//72
f 64//73 73//73 72//73
f 65//74 74//74 73//74
f 66//75 75//75 74//75
f 67//76 76//76 75//76
f 68//77 77//77 76//77
f 69//78 78//78 77//78
f 70//79 79//79 78//79
f 71//80 72//80 79//80
f 72//81 73//81 81//81
f 72//82 81//82 80//82
f 73//83 74//83 82//83
f 73//84 82//84 81//84
f 74//85 75//85 83//85
f 74//86 83//86 82//86
f 75//87 76//87 84//87
f 75//88 84//88 83//88
f 76//89 77//89 85//89
f 76//90 85//90 84//90
f 77//91 78//91 86//91
f 77//92 86//92 85//92
f 78//93 79//93 87//93
f 78//94 87//94 86//94
f 79//95 72//95 80//95
f 79//96 80//96 87//96
f 80//97 81//97 89//97
f 81//98 82//98 90//98
f 82//99 83//99 91//99
f 83//100 84//100 92//100
f 84//101 85//101 93//101
f 85//102 86//102 94//102
f 86//103 87//103 95//103
f 87//104 80//104 88//104
f 96//105 105//105 104//105
f 97//106 106//106 105//106
f 98//107 107//107 106//107
f 99//108 108//108 107//108
f 100//109 109//109 108//109
f 101//110 110//110 109//110
f 102//111 111//111 110//111
f 103//112 104//112 111//112
f 104//113 105//113 113//113
f 104//114 113//114 112//114
f 105//115 106//115 114//115
f 105//116 114//116 113//116
f 106//117 107//117 115//117
f 106//118 115//118 114//118
f 107//119 108//119 116//119
f 107//120 116//120 115//120
f 108//121 109//121 117//121
f 108//122 117//122 116//122
f 109//123 110//123 118//123
f 109//124 118//124 117//124
f 110//125 111//125 119//125
f 110//126 119//126 118//126
f 111//127 104//127 112//127
f 111//128 112//128 119//128
f 112//129 113//129 121//129
f 113//130 114//130 122//130
f 114//131 115//131 123//131
f 115//132 116//132 124//132
f 116//133 117//133 125//133
f 117//134 118//134 126//134
f 118//135 119//135 127//135
f 119//136 112//136 120//136
usemtl c2
f 128//137 135//137 134//137
f 129//138 136//138 135//138
f 130//139 137//139 136//139
f 131//140 138//140 137//140
f 132//141 139//141 138//141
f 133//142 134//142 139//142
f 134//143 135//143 141//143
f 134//144 141//144 140//144
f 135//145 136//145 142//145
f 135//146 142//146 141//146
f 136//147 137//147 143//147
f 136//148 143//148 142//148
f 137//149 138//149 144//149
f 137//150 144//150 143//150
f 138//151 139//151 145//151
f 138//152 145//152 144//152
f 139//153 134//153 140//153
f 139//154 140//154 145//154
f 140//155 141//155 147//155
f 141//156 142//156 148//156
f 142//157 143//157 149//157
f 143//158 144//158 150//158
f 144//159 145//159 151//159
f 145//160 140//160 146//160
