mtllib Food_Garlic.mtl
v 0.0000 0.0000 0.0000
v 0.0000 0.0000 0.0000
v 0.0000 0.0000 0.0000
v 0.0000 0.0000 0.0000
v 0.0000 0.0000 0.0000
v 0.0000 0.0000 0.0000
v 0.0000 0.0000 0.0000
v 0.0000 0.0000 0.0000
v 0.4996 0.1432 0.0000
v 0.3533 0.1432 0.3533
v 0.0000 0.1432 0.4996
v -0.3533 0.1432 0.3533
v -0.4996 0.1432 0.0000
v -0.3533 0.1432 -0.3533
v -0.0000 0.1432 -0.4996
v 0.3533 0.1432 -0.3533
v 0.8084 0.5182 0.0000
v 0.5716 0.5182 0.5716
v 0.0000 0.5182 0.8084
v -0.5716 0.5182 0.5716
v -0.8084 0.5182 0.0000
v -0.5716 0.5182 -0.5716
v -0.0000 0.5182 -0.8084
v 0.5716 0.5182 -0.5716
v 0.8084 0.9818 0.0000
v 0.5716 0.9818 0.5716
v 0.0000 0.9818 0.8084
v -0.5716 0.9818 0.5716
v -0.8084 0.9818 0.0000
v -0.5716 0.9818 -0.5716
v -0.0000 0.9818 -0.8084
v 0.5716 0.9818 -0.5716
v 0.4996 1.3568 0.0000
v 0.3533 1.3568 0.3533
v 0.0000 1.3568 0.4996
v -0.3533 1.3568 0.3533
v -0.4996 1.3568 0.0000
v -0.3533 1.3568 -0.3533
v -0.0000 1.3568 -0.4996
v 0.3533 1.3568 -0.3533
v 0.0000 1.5000 0.0000
v 0.0000 1.5000 0.0000
v 0.0000 1.5000 0.0000
v -0.0000 1.5000 0.0000
v -0.0000 1.5000 0.0000
v -0.0000 1.5000 -0.0000
v -0.0000 1.5000 -0.0000
v 0.0000 1.5000 -0.0000
v 0.2000 1.3000 0.0000
v 0.1000 1.3000 0.1732
v -0.1000 1.3000 0.1732
v -0.2000 1.3000 0.0000
v -0.1000 1.3000 -0.1732
v 0.1000 1.3000 -0.1732
v 0.0000 1.8500 0.0000
v 0.0000 1.8500 0.0000
v 0.0000 1.8500 0.0000
v 0.0000 1.8500 0.0000
v 0.0000 1.8500 0.0000
v 0.0000 1.8500 0.0000
v 0.0000 1.3000 0.0000
v -0.0137 1.3354 0.0000
v 0.0068 1.3573 0.0173
v 0.0068 1.3573 -0.0173
v 0.7863 0.5854 0.0000
v 0.8068 0.6073 0.0173
v 0.8068 0.6073 -0.0173
v 0.0000 1.3500 0.0000
v 0.8000 0.6000 0.0000
v 0.0168 1.3455 -0.0099
v -0.0170 1.3402 -0.0041
v 0.0002 1.3643 0.0140
v 0.2640 0.5955 0.7509
v 0.2302 0.5902 0.7567
v 0.2474 0.6143 0.7749
v 0.0000 1.3500 0.0000
v 0.2472 0.6000 0.7608
v -0.0020 1.3618 0.0160
v 0.0149 1.3367 -0.0008
v -0.0128 1.3515 -0.0153
v -0.6493 0.6118 0.4862
v -0.6323 0.5867 0.4695
v -0.6601 0.6015 0.4550
v 0.0000 1.3500 0.0000
v -0.6472 0.6000 0.4702
v -0.0020 1.3618 -0.0160
v -0.0128 1.3515 0.0153
v 0.0149 1.3367 0.0008
v -0.6493 0.6118 -0.4862
v -0.6601 0.6015 -0.4550
v -0.6323 0.5867 -0.4695
v 0.0000 1.3500 0.0000
v -0.6472 0.6000 -0.4702
v 0.0168 1.3455 0.0099
v 0.0002 1.3643 -0.0140
v -0.0170 1.3402 0.0041
v 0.2640 0.5955 -0.7509
v 0.2474 0.6143 -0.7749
v 0.2302 0.5902 -0.7567
v 0.0000 1.3500 0.0000
v 0.2472 0.6000 -0.7608
vn -0.2738 0.9551 -0.1134
vn -0.1134 0.9551 -0.2738
vn 0.1134 0.9551 -0.2738
vn 0.2738 0.9551 -0.1134
vn 0.2738 0.9551 0.1134
vn 0.1134 0.9551 0.2738
vn -0.1134 0.9551 0.2738
vn -0.2738 0.9551 0.1134
vn -0.7353 0.6055 -0.3046
vn -0.7353 0.6055 -0.3046
vn -0.3046 0.6055 -0.7353
vn -0.3046 0.6055 -0.7353
vn 0.3046 0.6055 -0.7353
vn 0.3046 0.6055 -0.7353
vn 0.7353 0.6055 -0.3046
vn 0.7353 0.6055 -0.3046
vn 0.7353 0.6055 0.3046
vn 0.7353 0.6055 0.3046
vn 0.3046 0.6055 0.7353
vn 0.3046 0.6055 0.7353
vn -0.3046 0.6055 0.7353
vn -0.3046 0.6055 0.7353
vn -0.7353 0.6055 0.3046
vn -0.7353 0.6055 0.3046
vn -0.9239 0.0000 -0.3827
vn -0.9239 0.0000 -0.3827
vn -0.3827 0.0000 -0.9239
vn -0.3827 0.0000 -0.9239
vn 0.3827 0.0000 -0.9239
vn 0.3827 0.0000 -0.9239
vn 0.9239 0.0000 -0.3827
vn 0.9239 0.0000 -0.3827
vn 0.9239 0.0000 0.3827
vn 0.9239 0.0000 0.3827
vn 0.3827 0.0000 0.9239
vn 0.3827 -0.0000 0.9239
vn -0.3827 0.0000 0.9239
vn -0.3827 0.0000 0.9239
vn -0.9239 0.0000 0.3827
vn -0.9239 0.0000 0.3827
vn -0.7353 -0.6055 -0.3046
vn -0.7353 -0.6055 -0.3046
vn -0.3046 -0.6055 -0.7353
vn -0.3046 -0.6055 -0.7353
vn 0.3046 -0.6055 -0.7353
vn 0.3046 -0.6055 -0.7353
vn 0.7353 -0.6055 -0.3046
vn 0.7353 -0.6055 -0.3046
vn 0.7353 -0.6055 0.3046
vn 0.7353 -0.6055 0.3046
vn 0.3046 -0.6055 0.7353
vn 0.3046 -0.6055 0.7353
vn -0.3046 -0.6055 0.7353
vn -0.3046 -0.6055 0.7353
vn -0.7353 -0.6055 0.3046
vn -0.7353 -0.6055 0.3046
vn -0.2738 -0.9551 -0.1134
vn -0.1134 -0.9551 -0.2738
vn 0.1134 -0.9551 -0.2738
vn 0.2738 -0.9551 -0.1134
vn 0.2738 -0.9551 0.1134
vn 0.1134 -0.9551 0.2738
vn -0.1134 -0.9551 0.2738
vn -0.2738 -0.9551 0.1134
vn -0.8260 -0.3004 -0.4769
vn -0.0000 -0.3004 -0.9538
vn 0.8260 -0.3004 -0.4769
vn 0.8260 -0.3004 0.4769
vn 0.0000 -0.3004 0.9538
vn -0.8260 -0.3004 0.4769
vn 0.0000 -1.0000 0.0000
vn 0.0000 -1.0000 0.0000
vn 0.0000 -1.0000 0.0000
vn -0.0000 -1.0000 0.0000
vn 0.0000 -1.0000 -0.0000
vn 0.0000 -1.0000 0.0000
vn 0.3420 0.3648 -0.8660
vn 0.3420 0.3648 -0.8660
vn -0.6839 -0.7295 -0.0000
vn -0.6839 -0.7295 0.0000
vn 0.3420 0.3648 0.8660
vn 0.3420 0.3648 0.8660
vn -0.7295 0.6839 -0.0000
vn -0.7295 0.6839 -0.0000
vn -0.7295 0.6839 -0.0000
vn -0.7295 0.6839 -0.0000
vn -0.7295 0.6839 0.0000
vn -0.7295 0.6839 0.0000
vn 0.0090 0.7136 0.7005
vn 0.0090 0.7136 0.7005
vn 0.8392 -0.2254 -0.4949
vn 0.8392 -0.2254 -0.4949
vn -0.8482 -0.4882 -0.2056
vn -0.8482 -0.4882 -0.2056
vn -0.2254 0.6839 -0.6938
vn -0.2254 0.6839 -0.6938
vn -0.2254 0.6839 -0.6938
vn -0.2254 0.6839 -0.6938
vn -0.2254 0.6839 -0.6938
vn -0.2254 0.6839 -0.6938
vn -0.6424 0.0763 -0.7626
vn -0.6424 0.0763 -0.7626
vn -0.1022 0.5902 0.8008
vn -0.1022 0.5902 0.8008
vn 0.7446 -0.6665 -0.0382
vn 0.7446 -0.6665 -0.0382
vn 0.5902 0.6839 -0.4288
vn 0.5902 0.6839 -0.4288
vn 0.5902 0.6839 -0.4288
vn 0.5902 0.6839 -0.4288
vn 0.5902 0.6839 -0.4288
vn 0.5902 0.6839 -0.4288
vn 0.7446 -0.6665 0.0382
vn 0.7446 -0.6665 0.0382
vn -0.1022 0.5902 -0.8008
vn -0.1022 0.5902 -0.8008
vn -0.6424 0.0763 0.7626
vn -0.6424 0.0763 0.7626
vn 0.5902 0.6839 0.4288
vn 0.5902 0.6839 0.4288
vn 0.5902 0.6839 0.4288
vn 0.5902 0.6839 0.4288
vn 0.5902 0.6839 0.4288
vn 0.5902 0.6839 0.4288
vn -0.8482 -0.4882 0.2056
vn -0.8482 -0.4882 0.2056
vn 0.8392 -0.2254 0.4949
vn 0.8392 -0.2254 0.4949
vn 0.0090 0.7136 -0.7005
vn 0.0090 0.7136 -0.7005
vn -0.2254 0.6839 0.6938
vn -0.2254 0.6839 0.6938
vn -0.2254 0.6839 0.6938
vn -0.2254 0.6839 0.6938
vn -0.2254 0.6839 0.6938
vn -0.2254 0.6839 0.6938
usemtl c0
f 1//1 10//1 9//1
f 2//2 11//2 10//2
f 3//3 12//3 11//3
f 4//4 13//4 12//4
f 5//5 14//5 13//5
f 6//6 15//6 14//6
f 7//7 16//7 15//7
f 8//8 9//8 16//8
f 9//9 10//9 18//9
f 9//10 18//10 17//10
f 10//11 11//11 19//11
f 10//12 19//12 18//12
f 11//13 12//13 20//13
f 11//14 20//14 19//14
f 12//15 13//15 21//15
f 12//16 21//16 20//16
f 13//17 14//17 22//17
f 13//18 22//18 21//18
f 14//19 15//19 23//19
f 14//20 23//20 22//20
f 15//21 16//21 24//21
f 15//22 24//22 23//22
f 16//23 9//23 17//23
f 16//24 17//24 24//24
f 17//25 18//25 26//25
f 17//26 26//26 25//26
f 18//27 19//27 27//27
f 18//28 27//28 26//28
f 19//29 20//29 28//29
f 19//30 28//30 27//30
f 20//31 21//31 29//31
f 20//32 29//32 28//32
f 21//33 22//33 30//33
f 21//34 30//34 29//34
f 22//35 23//35 31//35
f 22//36 31//36 30//36
f 23//37 24//37 32//37
f 23//38 32//38 31//38
f 24//39 17//39 25//39
f 24//40 25//40 32//40
f 25//41 26//41 34//41
f 25//42 34//42 33//42
f 26//43 27//43 35//43
f 26//44 35//44 34//44
f 27//45 28//45 36//45
f 27//46 36//46 35//46
f 28//47 29//47 37//47
f 28//48 37//48 36//48
f 29//49 30//49 38//49
f 29//50 38//50 37//50
f 30//51 31//51 39//51
f 30//52 39//52 38//52
f 31//53 32//53 40//53
f 31//54 40//54 39//54
f 32//55 25//55 33//55
f 32//56 33//56 40//56
f 33//57 34//57 42//57
f 34//58 35//58 43//58
f 35//59 36//59 44//59
f 36//60 37//60 45//60
f 37//61 38//61 46//61
f 38//62 39//62 47//62
f 39//63 40//63 48//63
f 40//64 33//64 41//64
usemtl c1
f 49//65 50//65 56//65
f 50//66 51//66 57//66
f 51//67 52//67 58//67
f 52//68 53//68 59//68
f 53//69 54//69 60//69
f 54//70 49//70 55//70
f 61//71 49//71 50//71
f 61//72 50//72 51//72
f 61//73 51//73 52//73
f 61//74 52//74 53//74
f 61//75 53//75 54//75
f 61//76 54//76 49//76
usemtl c2
f 62//77 63//77 66//77
f 62//78 66//78 65//78
f 63//79 64//79 67//79
f 63//80 67//80 66//80
f 64//81 62//81 65//81
f 64//82 65//82 67//82
f 68//83 62//83 63//83
f 68//84 63//84 64//84
f 68//85 64//85 62//85
f 69//86 65//86 66//86
f 69//87 66//87 67//87
f 69//88 67//88 65//88
f 70//89 71//89 74//89
f 70//90 74//90 73//90
f 71//91 72//91 75//91
f 71//92 75//92 74//92
f 72//93 70//93 73//93
f 72//94 73//94 75//94
f 76//95 70//95 71//95
f 76//96 71//96 72//96
f 76//97 72//97 70//97
f 77//98 73//98 74//98
f 77//99 74//99 75//99
f 77//100 75//100 73//100
f 78//101 79//101 82//101
f 78//102 82//102 81//102
f 79//103 80//103 83//103
f 79//104 83//104 82//104
f 80//105 78//105 81//105
f 80//106 81//106 83//106
f 84//107 78//107 79//107
f 84//108 79//108 80//108
f 84//109 80//109 78//109
f 85//110 81//110 82//110
f 85//111 82//111 83//111
f 85//112 83//112 81//112
f 86//113 87//113 90//113
f 86//114 90//114 89//114
f 87//115 88//115 91//115
f 87//116 91//116 90//116
f 88//117 86//117 89//117
f 88//118 89//118 91//118
f 92//119 86//119 87//119
f 92//120 87//120 88//120
f 92//121 88//121 86//121
f 93//122 89//122 90//122
f 93//123 90//123 91//123
f 93//124 91//124 89//124
f 94//125 95//125 98//125
f 94//126 98//126 97//126
f 95//127 96//127 99//127
f 95//128 99//128 98//128
f 96//129 94//129 97//129
f 96//130 97//130 99//130
f 100//131 94//131 95//131
f 100//132 95//132 96//132
f 100//133 96//133 94//133
f 101//134 97//134 98//134
f 101//135 98//135 99//135
f 101//136 99//136 97//136
