mtllib Food_Ham.mtl
v 1.0500 0.0000 0.4000
v 1.0031 0.0000 0.5750
v 0.8750 0.0000 0.7031
v 0.7000 0.0000 0.7500
v -0.7000 0.0000 0.7500
v -0.8750 0.0000 0.7031
v -1.0031 0.0000 0.5750
v -1.0500 0.0000 0.4000
v -1.0500 0.0000 -0.4000
v -1.0031 0.0000 -0.5750
v -0.8750 0.0000 -0.7031
v -0.7000 0.0000 -0.7500
v 0.7000 0.0000 -0.7500
v 0.8750 0.0000 -0.7031
v 1.0031 0.0000 -0.5750
v 1.0500 0.0000 -0.4000
v 1.0500 0.3000 0.4000
v 1.0031 0.3000 0.5750
v 0.8750 0.3000 0.7031
v 0.7000 0.3000 0.7500
v -0.7000 0.3000 0.7500
v -0.8750 0.3000 0.7031
v -1.0031 0.3000 0.5750
v -1.0500 0.3000 0.4000
v -1.0500 0.3000 -0.4000
v -1.0031 0.3000 -0.5750
v -0.8750 0.3000 -0.7031
v -0.7000 0.3000 -0.7500
v 0.7000 0.3000 -0.7500
v 0.8750 0.3000 -0.7031
v 1.0031 0.3000 -0.5750
v 1.0500 0.3000 -0.4000
v -0.0000 0.0000 -0.0000
v -0.0000 0.3000 -0.0000
v 0.9500 0.0000 0.3500
v 0.9098 0.0000 0.5000
v 0.8000 0.0000 0.6098
v 0.6500 0.0000 0.6500
v -0.6500 0.0000 0.6500
v -0.8000 0.0000 0.6098
v -0.9098 0.0000 0.5000
v -0.9500 0.0000 0.3500
v -0.9500 0.0000 -0.3500
v -0.9098 0.0000 -0.5000
v -0.8000 0.0000 -0.6098
v -0.6500 0.0000 -0.6500
v 0.6500 0.0000 -0.6500
v 0.8000 0.0000 -0.6098
v 0.9098 0.0000 -0.5000
v 0.9500 0.0000 -0.3500
v 0.9500 0.3400 0.3500
v 0.9098 0.3400 0.5000
v 0.8000 0.3400 0.6098
v 0.6500 0.3400 0.6500
v -0.6500 0.3400 0.6500
v -0.8000 0.3400 0.6098
v -0.9098 0.3400 0.5000
v -0.9500 0.3400 0.3500
v -0.9500 0.3400 -0.3500
v -0.9098 0.3400 -0.5000
v -0.8000 0.3400 -0.6098
v -0.6500 0.3400 -0.6500
v 0.6500 0.3400 -0.6500
v 0.8000 0.3400 -0.6098
v 0.9098 0.3400 -0.5000
v 0.9500 0.3400 -0.3500
v 0.0000 0.0000 -0.0000
v 0.0000 0.3400 -0.0000
v 0.1000 0.0000 0.1500
v 0.0799 0.0000 0.2250
v 0.0250 0.0000 0.2799
v -0.0500 0.0000 0.3000
v -0.5500 0.0000 0.3000
v -0.6250 0.0000 0.2799
v -0.6799 0.0000 0.2250
v -0.7000 0.0000 0.1500
v -0.7000 0.0000 0.0500
v -0.6799 0.0000 -0.0250
v -0.6250 0.0000 -0.0799
v -0.5500 0.0000 -0.1000
v -0.0500 0.0000 -0.1000
v 0.0250 0.0000 -0.0799
v 0.0799 0.0000 -0.0250
v 0.1000 0.0000 0.0500
v 0.1000 0.3600 0.1500
v 0.0799 0.3600 0.2250
v 0.0250 0.3600 0.2799
v -0.0500 0.3600 0.3000
v -0.5500 0.3600 0.3000
v -0.6250 0.3600 0.2799
v -0.6799 0.3600 0.2250
v -0.7000 0.3600 0.1500
v -0.7000 0.3600 0.0500
v -0.6799 0.3600 -0.0250
v -0.6250 0.3600 -0.0799
v -0.5500 0.3600 -0.1000
v -0.0500 0.3600 -0.1000
v 0.0250 0.3600 -0.0799
v 0.0799 0.3600 -0.0250
v 0.1000 0.3600 0.0500
v -0.3000 0.0000 0.1000
v -0.3000 0.3600 0.1000
v 0.7000 0.0000 -0.1700
v 0.6839 0.0000 -0.1100
v 0.6400 0.0000 -0.0661
v 0.5800 0.0000 -0.0500
v 0.2200 0.0000 -0.0500
v 0.1600 0.0000 -0.0661
v 0.1161 0.0000 -0.1100
v 0.1000 0.0000 -0.1700
v 0.1000 0.0000 -0.2300
v 0.1161 0.0000 -0.2900
v 0.1600 0.0000 -0.3339
v 0.2200 0.0000 -0.3500
v 0.5800 0.0000 -0.3500
v 0.6400 0.0000 -0.3339
v 0.6839 0.0000 -0.2900
v 0.7000 0.0000 -0.2300
v 0.7000 0.3600 -0.1700
v 0.6839 0.3600 -0.1100
v 0.6400 0.3600 -0.0661
v 0.5800 0.3600 -0.0500
v 0.2200 0.3600 -0.0500
v 0.1600 0.3600 -0.0661
v 0.1161 0.3600 -0.1100
v 0.1000 0.3600 -0.1700
v 0.1000 0.3600 -0.2300
v 0.1161 0.3600 -0.2900
v 0.1600 0.3600 -0.3339
v 0.2200 0.3600 -0.3500
v 0.5800 0.3600 -0.3500
v 0.6400 0.3600 -0.3339
v 0.6839 0.3600 -0.2900
v 0.7000 0.3600 -0.2300
v 0.4000 0.0000 -0.2000
v 0.4000 0.3600 -0.2000
vn -0.9659 0.0000 -0.2588
vn -0.9659 0.0000 -0.2588
vn 0.0000 1.0000 0.0000
vn 0.0000 -1.0000 0.0000
vn -0.7071 0.0000 -0.7071
vn -0.7071 0.0000 -0.7071
vn 0.0000 1.0000 0.0000
vn 0.0000 -1.0000 0.0000
vn -0.2588 0.0000 -0.9659
vn -0.2588 0.0000 -0.9659
vn 0.0000 1.0000 0.0000
vn 0.0000 -1.0000 0.0000
vn 0.0000 0.0000 -1.0000
vn 0.0000 0.0000 -1.0000
vn 0.0000 1.0000 -0.0000
vn 0.0000 -1.0000 0.0000
vn 0.2588 0.0000 -0.9659
vn 0.2588 0.0000 -0.9659
vn 0.0000 1.0000 0.0000
vn 0.0000 -1.0000 0.0000
vn 0.7071 0.0000 -0.7071
vn 0.7071 0.0000 -0.7071
vn 0.0000 1.0000 0.0000
vn 0.0000 -1.0000 0.0000
vn 0.9659 0.0000 -0.2588
vn 0.9659 0.0000 -0.2588
vn 0.0000 1.0000 0.0000
vn 0.0000 -1.0000 0.0000
vn 1.0000 0.0000 0.0000
vn 1.0000 -0.0000 0.0000
vn 0.0000 1.0000 0.0000
vn -0.0000 -1.0000 0.0000
vn 0.9659 0.0000 0.2588
vn 0.9659 -0.0000 0.2588
vn 0.0000 1.0000 0.0000
vn 0.0000 -1.0000 0.0000
vn 0.7071 0.0000 0.7071
vn 0.7071 -0.0000 0.7071
vn 0.0000 1.0000 0.0000
vn 0.0000 -1.0000 0.0000
vn 0.2588 0.0000 0.9659
vn 0.2588 -0.0000 0.9659
vn 0.0000 1.0000 0.0000
vn 0.0000 -1.0000 0.0000
vn 0.0000 0.0000 1.0000
vn 0.0000 0.0000 1.0000
vn 0.0000 1.0000 0.0000
vn 0.0000 -1.0000 -0.0000
vn -0.2588 0.0000 0.9659
vn -0.2588 0.0000 0.9659
vn 0.0000 1.0000 0.0000
vn 0.0000 -1.0000 0.0000
vn -0.7071 0.0000 0.7071
vn -0.7071 0.0000 0.7071
vn 0.0000 1.0000 0.0000
vn 0.0000 -1.0000 0.0000
vn -0.9659 0.0000 0.2588
vn -0.9659 0.0000 0.2588
vn 0.0000 1.0000 0.0000
vn 0.0000 -1.0000 0.0000
vn -1.0000 0.0000 0.0000
vn -1.0000 0.0000 0.0000
vn -0.0000 1.0000 0.0000
vn 0.0000 -1.0000 0.0000
vn -0.9659 0.0000 -0.2588
vn -0.9659 0.0000 -0.2588
vn 0.0000 1.0000 0.0000
vn 0.0000 -1.0000 0.0000
vn -0.7071 0.0000 -0.7071
vn -0.7071 0.0000 -0.7071
vn 0.0000 1.0000 0.0000
vn 0.0000 -1.0000 0.0000
vn -0.2588 0.0000 -0.9659
vn -0.2588 0.0000 -0.9659
vn 0.0000 1.0000 0.0000
vn 0.0000 -1.0000 0.0000
vn 0.0000 0.0000 -1.0000
vn 0.0000 0.0000 -1.0000
vn 0.0000 1.0000 -0.0000
vn 0.0000 -1.0000 0.0000
vn 0.2588 0.0000 -0.9659
vn 0.2588 0.0000 -0.9659
vn 0.0000 1.0000 0.0000
vn 0.0000 -1.0000 0.0000
vn 0.7071 0.0000 -0.7071
vn 0.7071 0.0000 -0.7071
vn 0.0000 1.0000 0.0000
vn 0.0000 -1.0000 0.0000
vn 0.9659 0.0000 -0.2588
vn 0.9659 0.0000 -0.2588
vn 0.0000 1.0000 0.0000
vn 0.0000 -1.0000 0.0000
vn 1.0000 0.0000 0.0000
vn 1.0000 -0.0000 0.0000
vn 0.0000 1.0000 0.0000
vn -0.0000 -1.0000 0.0000
vn 0.9659 0.0000 0.2588
vn 0.9659 -0.0000 0.2588
vn 0.0000 1.0000 0.0000
vn 0.0000 -1.0000 0.0000
vn 0.7071 0.0000 0.7071
vn 0.7071 -0.0000 0.7071
vn 0.0000 1.0000 0.0000
vn 0.0000 -1.0000 0.0000
vn 0.2588 0.0000 0.9659
vn 0.2588 -0.0000 0.9659
vn 0.0000 1.0000 0.0000
vn 0.0000 -1.0000 0.0000
vn 0.0000 0.0000 1.0000
vn 0.0000 0.0000 1.0000
vn 0.0000 1.0000 0.0000
vn 0.0000 -1.0000 -0.0000
vn -0.2588 0.0000 0.9659
vn -0.2588 0.0000 0.9659
vn 0.0000 1.0000 0.0000
vn 0.0000 -1.0000 0.0000
vn -0.7071 0.0000 0.7071
vn -0.7071 0.0000 0.7071
vn 0.0000 1.0000 0.0000
vn 0.0000 -1.0000 0.0000
vn -0.9659 0.0000 0.2588
vn -0.9659 0.0000 0.2588
vn 0.0000 1.0000 0.0000
vn 0.0000 -1.0000 0.0000
vn -1.0000 0.0000 0.0000
vn -1.0000 0.0000 0.0000
vn -0.0000 1.0000 0.0000
vn 0.0000 -1.0000 0.0000
vn -0.9659 0.0000 -0.2588
vn -0.9659 0.0000 -0.2588
vn 0.0000 1.0000 0.0000
vn 0.0000 -1.0000 0.0000
vn -0.7071 0.0000 -0.7071
vn -0.7071 0.0000 -0.7071
vn 0.0000 1.0000 0.0000
vn 0.0000 -1.0000 0.0000
vn -0.2588 0.0000 -0.9659
vn -0.2588 0.0000 -0.9659
vn 0.0000 1.0000 0.0000
vn 0.0000 -1.0000 0.0000
vn 0.0000 0.0000 -1.0000
vn 0.0000 0.0000 -1.0000
vn 0.0000 1.0000 -0.0000
vn 0.0000 -1.0000 0.0000
vn 0.2588 0.0000 -0.9659
vn 0.2588 0.0000 -0.9659
vn 0.0000 1.0000 0.0000
vn 0.0000 -1.0000 0.0000
vn 0.7071 0.0000 -0.7071
vn 0.7071 0.0000 -0.7071
vn 0.0000 1.0000 0.0000
vn 0.0000 -1.0000 0.0000
vn 0.9659 0.0000 -0.2588
vn 0.9659 0.0000 -0.2588
vn 0.0000 1.0000 0.0000
vn 0.0000 -1.0000 0.0000
vn 1.0000 0.0000 0.0000
vn 1.0000 -0.0000 0.0000
vn 0.0000 1.0000 0.0000
vn -0.0000 -1.0000 0.0000
vn 0.9659 0.0000 0.2588
vn 0.9659 -0.0000 0.2588
vn 0.0000 1.0000 0.0000
vn 0.0000 -1.0000 0.0000
vn 0.7071 0.0000 0.7071
vn 0.7071 -0.0000 0.7071
vn 0.0000 1.0000 0.0000
vn 0.0000 -1.0000 0.0000
vn 0.2588 0.0000 0.9659
vn 0.2588 -0.0000 0.9659
vn 0.0000 1.0000 0.0000
vn 0.0000 -1.0000 0.0000
vn 0.0000 0.0000 1.0000
vn 0.0000 0.0000 1.0000
vn 0.0000 1.0000 0.0000
vn 0.0000 -1.0000 -0.0000
vn -0.2588 0.0000 0.9659
vn -0.2588 0.0000 0.9659
vn 0.0000 1.0000 0.0000
vn 0.0000 -1.0000 0.0000
vn -0.7071 0.0000 0.7071
vn -0.7071 0.0000 0.7071
vn 0.0000 1.0000 0.0000
vn 0.0000 -1.0000 0.0000
vn -0.9659 0.0000 0.2588
vn -0.9659 0.0000 0.2588
vn 0.0000 1.0000 0.0000
vn 0.0000 -1.0000 0.0000
vn -1.0000 0.0000 0.0000
vn -1.0000 0.0000 0.0000
vn -0.0000 1.0000 0.0000
vn 0.0000 -1.0000 0.0000
vn -0.9659 0.0000 -0.2588
vn -0.9659 0.0000 -0.2588
vn 0.0000 1.0000 0.0000
vn 0.0000 -1.0000 0.0000
vn -0.7071 0.0000 -0.7071
vn -0.7071 0.0000 -0.7071
vn 0.0000 1.0000 0.0000
vn 0.0000 -1.0000 0.0000
vn -0.2588 0.0000 -0.9659
vn -0.2588 0.0000 -0.9659
vn 0.0000 1.0000 0.0000
vn 0.0000 -1.0000 0.0000
vn 0.0000 0.0000 -1.0000
vn 0.0000 0.0000 -1.0000
vn 0.0000 1.0000 -0.0000
vn 0.0000 -1.0000 0.0000
vn 0.2588 0.0000 -0.9659
vn 0.2588 0.0000 -0.9659
vn 0.0000 1.0000 0.0000
vn 0.0000 -1.0000 0.0000
vn 0.7071 0.0000 -0.7071
vn 0.7071 0.0000 -0.7071
vn 0.0000 1.0000 0.0000
vn 0.0000 -1.0000 0.0000
vn 0.9659 0.0000 -0.2588
vn 0.9659 0.0000 -0.2588
vn 0.0000 1.0000 0.0000
vn 0.0000 -1.0000 0.0000
vn 1.0000 0.0000 0.0000
vn 1.0000 -0.0000 0.0000
vn 0.0000 1.0000 0.0000
vn -0.0000 -1.0000 0.0000
vn 0.9659 0.0000 0.2588
vn 0.9659 -0.0000 0.2588
vn 0.0000 1.0000 0.0000
vn 0.0000 -1.0000 0.0000
vn 0.7071 0.0000 0.7071
vn 0.7071 -0.0000 0.7071
vn 0.0000 1.0000 0.0000
vn 0.0000 -1.0000 0.0000
vn 0.2588 0.0000 0.9659
vn 0.2588 -0.0000 0.9659
vn 0.0000 1.0000 0.0000
vn 0.0000 -1.0000 0.0000
vn 0.0000 0.0000 1.0000
vn 0.0000 0.0000 1.0000
vn 0.0000 1.0000 0.0000
vn 0.0000 -1.0000 -0.0000
vn -0.2588 0.0000 0.9659
vn -0.2588 0.0000 0.9659
vn 0.0000 1.0000 0.0000
vn 0.0000 -1.0000 0.0000
vn -0.7071 0.0000 0.7071
vn -0.7071 0.0000 0.7071
vn 0.0000 1.0000 0.0000
vn 0.0000 -1.0000 0.0000
vn -0.9659 0.0000 0.2588
vn -0.9659 0.0000 0.2588
vn 0.0000 1.0000 0.0000
vn 0.0000 -1.0000 0.0000
vn -1.0000 0.0000 0.0000
vn -1.0000 0.0000 0.0000
vn -0.0000 1.0000 0.0000
vn 0.0000 -1.0000 0.0000
usemtl c0
f 1//1 2//1 18//1
f 1//2 18//2 17//2
f 33//3 2//3 1//3
f 34//4 17//4 18//4
f 2//5 3//5 19//5
f 2//6 19//6 18//6
f 33//7 3//7 2//7
f 34//8 18//8 19//8
f 3//9 4//9 20//9
f 3//10 20//10 19//10
f 33//11 4//11 3//11
f 34//12 19//12 20//12
f 4//13 5//13 21//13
f 4//14 21//14 20//14
f 33//15 5//15 4//15
f 34//16 20//16 21//16
f 5//17 6//17 22//17
f 5//18 22//18 21//18
f 33//19 6//19 5//19
f 34//20 21//20 22//20
f 6//21 7//21 23//21
f 6//22 23//22 22//22
f 33//23 7//23 6//23
f 34//24 22//24 23//24
f 7//25 8//25 24//25
f 7//26 24//26 23//26
f 33//27 8//27 7//27
f 34//28 23//28 24//28
f 8//29 9//29 25//29
f 8//30 25//30 24//30
f 33//31 9//31 8//31
f 34//32 24//32 25//32
f 9//33 10//33 26//33
f 9//34 26//34 25//34
f 33//35 10//35 9//35
f 34//36 25//36 26//36
f 10//37 11//37 27//37
f 10//38 27//38 26//38
f 33//39 11//39 10//39
f 34//40 26//40 27//40
f 11//41 12//41 28//41
f 11//42 28//42 27//42
f 33//43 12//43 11//43
f 34//44 27//44 28//44
f 12//45 13//45 29//45
f 12//46 29//46 28//46
f 33//47 13//47 12//47
f 34//48 28//48 29//48
f 13//49 14//49 30//49
f 13//50 30//50 29//50
f 33//51 14//51 13//51
f 34//52 29//52 30//52
f 14//53 15//53 31//53
f 14//54 31//54 30//54
f 33//55 15//55 14//55
f 34//56 30//56 31//56
f 15//57 16//57 32//57
f 15//58 32//58 31//58
f 33//59 16//59 15//59
f 34//60 31//60 32//60
f 16//61 1//61 17//61
f 16//62 17//62 32//62
f 33//63 1//63 16//63
f 34//64 32//64 17//64
usemtl c1
f 35//65 36//65 52//65
f 35//66 52//66 51//66
f 67//67 36//67 35//67
f 68//68 51//68 52//68
f 36//69 37//69 53//69
f 36//70 53//70 52//70
f 67//71 37//71 36//71
f 68//72 52//72 53//72
f 37//73 38//73 54//73
f 37//74 54//74 53//74
f 67//75 38//75 37//75
f 68//76 53//76 54//76
f 38//77 39//77 55//77
f 38//78 55//78 54//78
f 67//79 39//79 38//79
f 68//80 54//80 55//80
f 39//81 40//81 56//81
f 39//82 56//82 55//82
f 67//83 40//83 39//83
f 68//84 55//84 56//84
f 40//85 41//85 57//85
f 40//86 57//86 56//86
f 67//87 41//87 40//87
f 68//88 56//88 57//88
f 41//89 42//89 58//89
f 41//90 58//90 57//90
f 67//91 42//91 41//91
f 68//92 57//92 58//92
f 42//93 43//93 59//93
f 42//94 59//94 58//94
f 67//95 43//95 42//95
f 68//96 58//96 59//96
f 43//97 44//97 60//97
f 43//98 60//98 59//98
f 67//99 44//99 43//99
f 68//100 59//100 60//100
f 44//101 45//101 61//101
f 44//102 61//102 60//102
f 67//103 45//103 44//103
f 68//104 60//104 61//104
f 45//105 46//105 62//105
f 45//106 62//106 61//106
f 67//107 46//107 45//107
f 68//108 61//108 62//108
f 46//109 47//109 63//109
f 46//110 63//110 62//110
f 67//111 47//111 46//111
f 68//112 62//112 63//112
f 47//113 48//113 64//113
f 47//114 64//114 63//114
f 67//115 48//115 47//115
f 68//116 63//116 64//116
f 48//117 49//117 65//117
f 48//118 65//118 64//118
f 67//119 49//119 48//119
f 68//120 64//120 65//120
f 49//121 50//121 66//121
f 49//122 66//122 65//122
f 67//123 50//123 49//123
f 68//124 65//124 66//124
f 50//125 35//125 51//125
f 50//126 51//126 66//126
f 67//127 35//127 50//127
f 68//128 66//128 51//128
usemtl c2
f 69//129 70//129 86//129
f 69//130 86//130 85//130
f 101//131 70//131 69//131
f 102//132 85//132 86//132
f 70//133 71//133 87//133
f 70//134 87//134 86//134
f 101//135 71//135 70//135
f 102//136 86//136 87//136
f 71//137 72//137 88//137
f 71//138 88//138 87//138
f 101//139 72//139 71//139
f 102//140 87//140 88//140
f 72//141 73//141 89//141
f 72//142 89//142 88//142
f 101//143 73//143 72//143
f 102//144 88//144 89//144
f 73//145 74//145 90//145
f 73//146 90//146 89//146
f 101//147 74//147 73//147
f 102//148 89//148 90//148
f 74//149 75//149 91//149
f 74//150 91//150 90//150
f 101//151 75//151 74//151
f 102//152 90//152 91//152
f 75//153 76//153 92//153
f 75//154 92//154 91//154
f 101//155 76//155 75//155
f 102//156 91//156 92//156
f 76//157 77//157 93//157
f 76//158 93//158 92//158
f 101//159 77//159 76//159
f 102//160 92//160 93//160
f 77//161 78//161 94//161
f 77//162 94//162 93//162
f 101//163 78//163 77//163
f 102//164 93//164 94//164
f 78//165 79//165 95//165
f 78//166 95//166 94//166
f 101//167 79//167 78//167
f 102//168 94//168 95//168
f 79//169 80//169 96//169
f 79//170 96//170 95//170
f 101//171 80//171 79//171
f 102//172 95//172 96//172
f 80//173 81//173 97//173
f 80//174 97//174 96//174
f 101//175 81//175 80//175
f 102//176 96//176 97//176
f 81//177 82//177 98//177
f 81//178 98//178 97//178
f 101//179 82//179 81//179
f 102//180 97//180 98//180
f 82//181 83//181 99//181
f 82//182 99//182 98//182
f 101//183 83//183 82//183
f 102//184 98//184 99//184
f 83//185 84//185 100//185
f 83//186 100//186 99//186
f 101//187 84//187 83//187
f 102//188 99//188 100//188
f 84//189 69//189 85//189
f 84//190 85//190 100//190
f 101//191 69//191 84//191
f 102//192 100//192 85//192
f 103//193 104//193 120//193
f 103//194 120//194 119//194
f 135//195 104//195 103//195
f 136//196 119//196 120//196
f 104//197 105//197 121//197
f 104//198 121//198 120//198
f 135//199 105//199 104//199
f 136//200 120//200 121//200
f 105//201 106//201 122//201
f 105//202 122//202 121//202
f 135//203 106//203 105//203
f 136//204 121//204 122//204
f 106//205 107//205 123//205
f 106//206 123//206 122//206
f 135//207 107//207 106//207
f 136//208 122//208 123//208
f 107//209 108//209 124//209
f 107//210 124//210 123//210
f 135//211 108//211 107//211
f 136//212 123//212 124//212
f 108//213 109//213 125//213
f 108//214 125//214 124//214
f 135//215 109//215 108//215
f 136//216 124//216 125//216
f 109//217 110//217 126//217
f 109//218 126//218 125//218
f 135//219 110//219 109//219
f 136//220 125//220 126//220
f 110//221 111//221 127//221
f 110//222 127//222 126//222
f 135//223 111//223 110//223
f 136//224 126//224 127//224
f 111//225 112//225 128//225
f 111//226 128//226 127//226
f 135//227 112//227 111//227
f 136//228 127//228 128//228
f 112//229 113//229 129//229
f 112//230 129//230 128//230
f 135//231 113//231 112//231
f 136//232 128//232 129//232
f 113//233 114//233 130//233
f 113//234 130//234 129//234
f 135//235 114//235 113//235
f 136//236 129//236 130//236
f 114//237 115//237 131//237
f 114//238 131//238 130//238
f 135//239 115//239 114//239
f 136//240 130//240 131//240
f 115//241 116//241 132//241
f 115//242 132//242 131//242
f 135//243 116//243 115//243
f 136//244 131//244 132//244
f 116//245 117//245 133//245
f 116//246 133//246 132//246
f 135//247 117//247 116//247
f 136//248 132//248 133//248
f 117//249 118//249 134//249
f 117//250 134//250 133//250
f 135//251 118//251 117//251
f 136//252 133//252 134//252
f 118//253 103//253 119//253
f 118//254 119//254 134//254
f 135//255 103//255 118//255
f 136//256 134//256 119//256
