mtllib Food_Egg.mtl
v 0.0000 -0.0500 0.0000
v 0.0000 -0.0500 0.0000
v 0.0000 -0.0500 0.0000
v 0.0000 -0.0500 0.0000
v 0.0000 -0.0500 0.0000
v 0.0000 -0.0500 0.0000
v 0.0000 -0.0500 0.0000
v 0.0000 -0.0500 0.0000
v 0.0000 -0.0500 0.0000
v 0.4220 0.0738 0.0000
v 0.3232 0.0738 0.2712
v 0.0733 0.0738 0.4156
v -0.2110 0.0738 0.3654
v -0.3965 0.0738 0.1443
v -0.3965 0.0738 -0.1443
v -0.2110 0.0738 -0.3654
v 0.0733 0.0738 -0.4156
v 0.3232 0.0738 -0.2712
v 0.7309 0.4206 0.0000
v 0.5599 0.4206 0.4698
v 0.1269 0.4206 0.7197
v -0.3654 0.4206 0.6329
v -0.6868 0.4206 0.2500
v -0.6868 0.4206 -0.2500
v -0.3654 0.4206 -0.6329
v 0.1269 0.4206 -0.7197
v 0.5599 0.4206 -0.4698
v 0.8582 0.9218 0.0000
v 0.6574 0.9218 0.5516
v 0.1490 0.9218 0.8452
v -0.4291 0.9218 0.7432
v -0.8064 0.9218 0.2935
v -0.8064 0.9218 -0.2935
v -0.4291 0.9218 -0.7432
v 0.1490 0.9218 -0.8452
v 0.6574 0.9218 -0.5516
v 0.7992 1.4782 0.0000
v 0.6122 1.4782 0.5137
v 0.1388 1.4782 0.7870
v -0.3996 1.4782 0.6921
v -0.7510 1.4782 0.2733
v -0.7510 1.4782 -0.2733
v -0.3996 1.4782 -0.6921
v 0.1388 1.4782 -0.7870
v 0.6122 1.4782 -0.5137
v 0.5983 1.9794 0.0000
v 0.4583 1.9794 0.3846
v 0.1039 1.9794 0.5892
v -0.2991 1.9794 0.5181
v -0.5622 1.9794 0.2046
v -0.5622 1.9794 -0.2046
v -0.2991 1.9794 -0.5181
v 0.1039 1.9794 -0.5892
v 0.4583 1.9794 -0.3846
v 0.3156 2.3262 0.0000
v 0.2418 2.3262 0.2029
v 0.0548 2.3262 0.3108
v -0.1578 2.3262 0.2733
v -0.2966 2.3262 0.1080
v -0.2966 2.3262 -0.1080
v -0.1578 2.3262 -0.2733
v 0.0548 2.3262 -0.3108
v 0.2418 2.3262 -0.2029
v 0.0000 2.4500 0.0000
v 0.0000 2.4500 0.0000
v 0.0000 2.4500 0.0000
v -0.0000 2.4500 0.0000
v -0.0000 2.4500 0.0000
v -0.0000 2.4500 -0.0000
v -0.0000 2.4500 -0.0000
v 0.0000 2.4500 -0.0000
v 0.0000 2.4500 -0.0000
vn -0.2800 0.9546 -0.1019
vn -0.1490 0.9546 -0.2581
vn 0.0517 0.9546 -0.2935
vn 0.2283 0.9546 -0.1916
vn 0.2980 0.9546 -0.0000
vn 0.2283 0.9546 0.1916
vn 0.0517 0.9546 0.2935
vn -0.1490 0.9546 0.2581
vn -0.2800 0.9546 0.1019
vn -0.7206 0.6418 -0.2623
vn -0.7206 0.6418 -0.2623
vn -0.3834 0.6418 -0.6642
vn -0.3834 0.6418 -0.6642
vn 0.1332 0.6418 -0.7552
vn 0.1332 0.6418 -0.7552
vn 0.5875 0.6418 -0.4930
vn 0.5875 0.6418 -0.4930
vn 0.7669 0.6418 -0.0000
vn 0.7669 0.6418 0.0000
vn 0.5875 0.6418 0.4930
vn 0.5875 0.6418 0.4930
vn 0.1332 0.6418 0.7552
vn 0.1332 0.6418 0.7552
vn -0.3834 0.6418 0.6642
vn -0.3834 0.6418 0.6642
vn -0.7206 0.6418 0.2623
vn -0.7206 0.6418 0.2623
vn -0.9140 0.2322 -0.3327
vn -0.9140 0.2322 -0.3327
vn -0.4863 0.2322 -0.8424
vn -0.4863 0.2322 -0.8424
vn 0.1689 0.2322 -0.9579
vn 0.1689 0.2322 -0.9579
vn 0.7451 0.2322 -0.6252
vn 0.7451 0.2322 -0.6252
vn 0.9727 0.2322 0.0000
vn 0.9727 0.2322 -0.0000
vn 0.7451 0.2322 0.6252
vn 0.7451 0.2322 0.6252
vn 0.1689 0.2322 0.9579
vn 0.1689 0.2322 0.9579
vn -0.4863 0.2322 0.8424
vn -0.4863 0.2322 0.8424
vn -0.9140 0.2322 0.3327
vn -0.9140 0.2322 0.3327
vn -0.9351 -0.0992 -0.3403
vn -0.9351 -0.0992 -0.3403
vn -0.4975 -0.0992 -0.8618
vn -0.4975 -0.0992 -0.8618
vn 0.1728 -0.0992 -0.9800
vn 0.1728 -0.0992 -0.9800
vn 0.7623 -0.0992 -0.6396
vn 0.7623 -0.0992 -0.6396
vn 0.9951 -0.0992 -0.0000
vn 0.9951 -0.0992 -0.0000
vn 0.7623 -0.0992 0.6396
vn 0.7623 -0.0992 0.6396
vn 0.1728 -0.0992 0.9800
vn 0.1728 -0.0992 0.9800
vn -0.4975 -0.0992 0.8618
vn -0.4975 -0.0992 0.8618
vn -0.9351 -0.0992 0.3403
vn -0.9351 -0.0992 0.3403
vn -0.8794 -0.3525 -0.3201
vn -0.8794 -0.3525 -0.3201
vn -0.4679 -0.3525 -0.8104
vn -0.4679 -0.3525 -0.8104
vn 0.1625 -0.3525 -0.9216
vn 0.1625 -0.3525 -0.9216
vn 0.7169 -0.3525 -0.6015
vn 0.7169 -0.3525 -0.6015
vn 0.9358 -0.3525 -0.0000
vn 0.9358 -0.3525 -0.0000
vn 0.7169 -0.3525 0.6015
vn 0.7169 -0.3525 0.6015
vn 0.1625 -0.3525 0.9216
vn 0.1625 -0.3525 0.9216
vn -0.4679 -0.3525 0.8104
vn -0.4679 -0.3525 0.8104
vn -0.8794 -0.3525 0.3201
vn -0.8794 -0.3525 0.3201
vn -0.7461 -0.6079 -0.2716
vn -0.7461 -0.6079 -0.2716
vn -0.3970 -0.6079 -0.6876
vn -0.3970 -0.6079 -0.6876
vn 0.1379 -0.6079 -0.7819
vn 0.1379 -0.6079 -0.7819
vn 0.6082 -0.6079 -0.5104
vn 0.6082 -0.6079 -0.5104
vn 0.7940 -0.6079 -0.0000
vn 0.7940 -0.6079 0.0000
vn 0.6082 -0.6079 0.5104
vn 0.6082 -0.6079 0.5104
vn 0.1379 -0.6079 0.7819
vn 0.1379 -0.6079 0.7819
vn -0.3970 -0.6079 0.6876
vn -0.3970 -0.6079 0.6876
vn -0.7461 -0.6079 0.2716
vn -0.7461 -0.6079 0.2716
vn -0.3619 -0.9229 -0.1317
vn -0.1926 -0.9229 -0.3336
vn 0.0669 -0.9229 -0.3793
vn 0.2950 -0.9229 -0.2476
vn 0.3852 -0.9229 0.0000
vn 0.2950 -0.9229 0.2476
vn 0.0669 -0.9229 0.3793
vn -0.1926 -0.9229 0.3336
vn -0.3619 -0.9229 0.1317
usemtl c0
f 1//1 11//1 10//1
f 2//2 12//2 11//2
f 3//3 13//3 12//3
f 4//4 14//4 13//4
f 5//5 15//5 14//5
f 6//6 16//6 15//6
f 7//7 17//7 16//7
f 8//8 18//8 17//8
f 9//9 10//9 18//9
f 10//10 11//10 20//10
f 10//11 20//11 19//11
f 11//12 12//12 21//12
f 11//13 21//13 20//13
f 12//14 13//14 22//14
f 12//15 22//15 21//15
f 13//16 14//16 23//16
f 13//17 23//17 22//17
f 14//18 15//18 24//18
f 14//19 24//19 23//19
f 15//20 16//20 25//20
f 15//21 25//21 24//21
f 16//22 17//22 26//22
f 16//23 26//23 25//23
f 17//24 18//24 27//24
f 17//25 27//25 26//25
f 18//26 10//26 19//26
f 18//27 19//27 27//27
f 19//28 20//28 29//28
f 19//29 29//29 28//29
f 20//30 21//30 30//30
f 20//31 30//31 29//31
f 21//32 22//32 31//32
f 21//33 31//33 30//33
f 22//34 23//34 32//34
f 22//35 32//35 31//35
f 23//36 24//36 33//36
f 23//37 33//37 32//37
f 24//38 25//38 34//38
f 24//39 34//39 33//39
f 25//40 26//40 35//40
f 25//41 35//41 34//41
f 26//42 27//42 36//42
f 26//43 36//43 35//43
f 27//44 19//44 28//44
f 27//45 28//45 36//45
f 28//46 29//46 38//46
f 28//47 38//47 37//47
f 29//48 30//48 39//48
f 29//49 39//49 38//49
f 30//50 31//50 40//50
f 30//51 40//51 39//51
f 31//52 32//52 41//52
f 31//53 41//53 40//53
f 32//54 33//54 42//54
f 32//55 42//55 41//55
f 33//56 34//56 43//56
f 33//57 43//57 42//57
f 34//58 35//58 44//58
f 34//59 44//59 43//59
f 35//60 36//60 45//60
f 35//61 45//61 44//61
f 36//62 28//62 37//62
f 36//63 37//63 45//63
f 37//64 38//64 47//64
f 37//65 47//65 46//65
f 38//66 39//66 48//66
f 38//67 48//67 47//67
f 39//68 40//68 49//68
f 39//69 49//69 48//69
f 40//70 41//70 50//70
f 40//71 50//71 49//71
f 41//72 42//72 51//72
f 41//73 51//73 50//73
f 42//74 43//74 52//74
f 42//75 52//75 51//75
f 43//76 44//76 53//76
f 43//77 53//77 52//77
f 44//78 45//78 54//78
f 44//79 54//79 53//79
f 45//80 37//80 46//80
f 45//81 46//81 54//81
f 46//82 47//82 56//82
f 46//83 56//83 55//83
f 47//84 48//84 57//84
f 47//85 57//85 56//85
f 48//86 49//86 58//86
f 48//87 58//87 57//87
f 49//88 50//88 59//88
f 49//89 59//89 58//89
f 50//90 51//90 60//90
f 50//91 60//91 59//91
f 51//92 52//92 61//92
f 51//93 61//93 60//93
f 52//94 53//94 62//94
f 52//95 62//95 61//95
f 53//96 54//96 63//96
f 53//97 63//97 62//97
f 54//98 46//98 55//98
f 54//99 55//99 63//99
f 55//100 56//100 65//100
f 56//101 57//101 66//101
f 57//102 58//102 67//102
f 58//103 59//103 68//103
f 59//104 60//104 69//104
f 60//105 61//105 70//105
f 61//106 62//106 71//106
f 62//107 63//107 72//107
f 63//108 55//108 64//108
