mtllib Food_Cookie.mtl
v 0.0000 0.0000 0.0000
v 0.0000 0.0000 0.0000
v 0.0000 0.0000 0.0000
v 0.0000 0.0000 0.0000
v 0.0000 0.0000 0.0000
v 0.0000 0.0000 0.0000
v 0.0000 0.0000 0.0000
v 0.0000 0.0000 0.0000
v 0.0000 0.0000 0.0000
v 0.0000 0.0000 0.0000
v 0.9200 0.0000 0.0000
v 0.7443 0.0000 0.5408
v 0.2843 0.0000 0.8750
v -0.2843 0.0000 0.8750
v -0.7443 0.0000 0.5408
v -0.9200 0.0000 0.0000
v -0.7443 0.0000 -0.5408
v -0.2843 0.0000 -0.8750
v 0.2843 0.0000 -0.8750
v 0.7443 0.0000 -0.5408
v 1.0200 0.1000 0.0000
v 0.8252 0.1000 0.5995
v 0.3152 0.1000 0.9701
v -0.3152 0.1000 0.9701
v -0.8252 0.1000 0.5995
v -1.0200 0.1000 0.0000
v -0.8252 0.1000 -0.5995
v -0.3152 0.1000 -0.9701
v 0.3152 0.1000 -0.9701
v 0.8252 0.1000 -0.5995
v 0.9600 0.2200 0.0000
v 0.7767 0.2200 0.5643
v 0.2967 0.2200 0.9130
v -0.2967 0.2200 0.9130
v -0.7767 0.2200 0.5643
v -0.9600 0.2200 0.0000
v -0.7767 0.2200 -0.5643
v -0.2967 0.2200 -0.9130
v 0.2967 0.2200 -0.9130
v 0.7767 0.2200 -0.5643
v 0.0000 0.2600 0.0000
v 0.0000 0.2600 0.0000
v 0.0000 0.2600 0.0000
v 0.0000 0.2600 0.0000
v 0.0000 0.2600 0.0000
v 0.0000 0.2600 0.0000
v 0.0000 0.2600 0.0000
v 0.0000 0.2600 0.0000
v 0.0000 0.2600 0.0000
v 0.0000 0.2600 0.0000
v -0.4000 0.1800 0.2000
v -0.4000 0.1800 0.2000
v -0.4000 0.1800 0.2000
v -0.4000 0.1800 0.2000
v -0.4000 0.1800 0.2000
v -0.3019 0.2150 0.2713
v -0.4278 0.2150 0.3020
v -0.5153 0.2150 0.1918
v -0.4435 0.2150 0.0929
v -0.3116 0.2150 0.1421
v -0.3019 0.2850 0.2713
v -0.4278 0.2850 0.3020
v -0.5153 0.2850 0.1918
v -0.4435 0.2850 0.0929
v -0.3116 0.2850 0.1421
v -0.4000 0.3200 0.2000
v -0.4000 0.3200 0.2000
v -0.4000 0.3200 0.2000
v -0.4000 0.3200 0.2000
v -0.4000 0.3200 0.2000
v 0.3000 0.1800 0.4000
v 0.3000 0.1800 0.4000
v 0.3000 0.1800 0.4000
v 0.3000 0.1800 0.4000
v 0.3000 0.1800 0.4000
v 0.4080 0.2150 0.3450
v 0.3783 0.2150 0.4711
v 0.2403 0.2150 0.4990
v 0.1849 0.2150 0.3901
v 0.2885 0.2150 0.2949
v 0.4080 0.2850 0.3450
v 0.3783 0.2850 0.4711
v 0.2403 0.2850 0.4990
v 0.1849 0.2850 0.3901
v 0.2885 0.2850 0.2949
v 0.3000 0.3200 0.4000
v 0.3000 0.3200 0.4000
v 0.3000 0.3200 0.4000
v 0.3000 0.3200 0.4000
v 0.3000 0.3200 0.4000
v 0.1000 0.1800 -0.3500
v 0.1000 0.1800 -0.3500
v 0.1000 0.1800 -0.3500
v 0.1000 0.1800 -0.3500
v 0.1000 0.1800 -0.3500
v 0.2198 0.2150 -0.3690
v 0.1525 0.2150 -0.2582
v 0.0127 0.2150 -0.2743
v -0.0064 0.2150 -0.3950
v 0.1215 0.2150 -0.4535
v 0.2198 0.2850 -0.3690
v 0.1525 0.2850 -0.2582
v 0.0127 0.2850 -0.2743
v -0.0064 0.2850 -0.3950
v 0.1215 0.2850 -0.4535
v 0.1000 0.3200 -0.3500
v 0.1000 0.3200 -0.3500
v 0.1000 0.3200 -0.3500
v 0.1000 0.3200 -0.3500
v 0.1000 0.3200 -0.3500
v -0.3500 0.1800 -0.4000
v -0.3500 0.1800 -0.4000
v -0.3500 0.1800 -0.4000
v -0.3500 0.1800 -0.4000
v -0.3500 0.1800 -0.4000
v -0.2466 0.2150 -0.3367
v -0.3697 0.2150 -0.2962
v -0.4656 0.2150 -0.3992
v -0.4017 0.2150 -0.5033
v -0.2664 0.2150 -0.4647
v -0.2466 0.2850 -0.3367
v -0.3697 0.2850 -0.2962
v -0.4656 0.2850 -0.3992
v -0.4017 0.2850 -0.5033
v -0.2664 0.2850 -0.4647
v -0.3500 0.3200 -0.4000
v -0.3500 0.3200 -0.4000
v -0.3500 0.3200 -0.4000
v -0.3500 0.3200 -0.4000
v -0.3500 0.3200 -0.4000
v 0.5500 0.1800 -0.1500
v 0.5500 0.1800 -0.1500
v 0.5500 0.1800 -0.1500
v 0.5500 0.1800 -0.1500
v 0.5500 0.1800 -0.1500
v 0.6287 0.2150 -0.2422
v 0.6495 0.2150 -0.1143
v 0.5327 0.2150 -0.0357
v 0.4398 0.2150 -0.1151
v 0.4992 0.2150 -0.2427
v 0.6287 0.2850 -0.2422
v 0.6495 0.2850 -0.1143
v 0.5327 0.2850 -0.0357
v 0.4398 0.2850 -0.1151
v 0.4992 0.2850 -0.2427
v 0.5500 0.3200 -0.1500
v 0.5500 0.3200 -0.1500
v 0.5500 0.3200 -0.1500
v 0.5500 0.3200 -0.1500
v 0.5500 0.3200 -0.1500
v -0.1000 0.1800 0.0500
v -0.1000 0.1800 0.0500
v -0.1000 0.1800 0.0500
v -0.1000 0.1800 0.0500
v -0.1000 0.1800 0.0500
v 0.0198 0.2150 0.0690
v -0.0785 0.2150 0.1535
v -0.2064 0.2150 0.0950
v -0.1873 0.2150 -0.0257
v -0.0475 0.2150 -0.0418
v 0.0198 0.2850 0.0690
v -0.0785 0.2850 0.1535
v -0.2064 0.2850 0.0950
v -0.1873 0.2850 -0.0257
v -0.0475 0.2850 -0.0418
v -0.1000 0.3200 0.0500
v -0.1000 0.3200 0.0500
v -0.1000 0.3200 0.0500
v -0.1000 0.3200 0.0500
v -0.1000 0.3200 0.0500
vn 0.0000 1.0000 0.0000
vn 0.0000 1.0000 0.0000
vn 0.0000 1.0000 -0.0000
vn 0.0000 1.0000 0.0000
vn 0.0000 1.0000 0.0000
vn 0.0000 1.0000 0.0000
vn 0.0000 1.0000 0.0000
vn 0.0000 1.0000 0.0000
vn 0.0000 1.0000 0.0000
vn -0.0000 1.0000 0.0000
vn -0.6892 0.6892 -0.2239
vn -0.6892 0.6892 -0.2239
vn -0.4259 0.6892 -0.5862
vn -0.4259 0.6892 -0.5862
vn -0.0000 0.6892 -0.7246
vn -0.0000 0.6892 -0.7246
vn 0.4259 0.6892 -0.5862
vn 0.4259 0.6892 -0.5862
vn 0.6892 0.6892 -0.2239
vn 0.6892 0.6892 -0.2239
vn 0.6892 0.6892 0.2239
vn 0.6892 0.6892 0.2239
vn 0.4259 0.6892 0.5862
vn 0.4259 0.6892 0.5862
vn 0.0000 0.6892 0.7246
vn 0.0000 0.6892 0.7246
vn -0.4259 0.6892 0.5862
vn -0.4259 0.6892 0.5862
vn -0.6892 0.6892 0.2239
vn -0.6892 0.6892 0.2239
vn -0.8589 -0.4294 -0.2791
vn -0.8589 -0.4294 -0.2791
vn -0.5308 -0.4294 -0.7306
vn -0.5308 -0.4294 -0.7306
vn -0.0000 -0.4294 -0.9031
vn -0.0000 -0.4294 -0.9031
vn 0.5308 -0.4294 -0.7306
vn 0.5308 -0.4294 -0.7306
vn 0.8589 -0.4294 -0.2791
vn 0.8589 -0.4294 -0.2791
vn 0.8589 -0.4294 0.2791
vn 0.8589 -0.4294 0.2791
vn 0.5308 -0.4294 0.7306
vn 0.5308 -0.4294 0.7306
vn 0.0000 -0.4294 0.9031
vn 0.0000 -0.4294 0.9031
vn -0.5308 -0.4294 0.7306
vn -0.5308 -0.4294 0.7306
vn -0.8589 -0.4294 0.2791
vn -0.8589 -0.4294 0.2791
vn -0.0416 -0.9990 -0.0135
vn -0.0257 -0.9990 -0.0354
vn -0.0000 -0.9990 -0.0438
vn 0.0257 -0.9990 -0.0354
vn 0.0416 -0.9990 -0.0135
vn 0.0416 -0.9990 0.0135
vn 0.0257 -0.9990 0.0354
vn 0.0000 -0.9990 0.0438
vn -0.0257 -0.9990 0.0354
vn -0.0416 -0.9990 0.0135
vn -0.0839 0.9353 -0.3438
vn 0.2978 0.9249 -0.2363
vn 0.2719 0.9418 0.1975
vn -0.1327 0.9249 0.3562
vn -0.3529 0.9353 0.0264
vn -0.2371 0.0000 -0.9715
vn -0.2371 0.0000 -0.9715
vn 0.7833 0.0000 -0.6217
vn 0.7833 0.0000 -0.6217
vn 0.8090 0.0000 0.5878
vn 0.8090 -0.0000 0.5878
vn -0.3492 0.0000 0.9371
vn -0.3492 0.0000 0.9371
vn -0.9972 -0.0000 0.0747
vn -0.9972 0.0000 0.0747
vn -0.0839 -0.9353 -0.3438
vn 0.2978 -0.9249 -0.2363
vn 0.2719 -0.9418 0.1975
vn -0.1327 -0.9249 0.3562
vn -0.3529 -0.9353 0.0264
vn -0.3445 0.9353 -0.0813
vn -0.0754 0.9249 -0.3726
vn 0.2994 0.9418 -0.1526
vn 0.2571 0.9249 0.2800
vn -0.1367 0.9353 0.3265
vn -0.9732 0.0000 -0.2298
vn -0.9732 0.0000 -0.2298
vn -0.1983 0.0000 -0.9801
vn -0.1983 0.0000 -0.9801
vn 0.8910 0.0000 -0.4540
vn 0.8910 0.0000 -0.4540
vn 0.6764 0.0000 0.7365
vn 0.6764 0.0000 0.7365
vn -0.3861 0.0000 0.9224
vn -0.3861 0.0000 0.9224
vn -0.3445 -0.9353 -0.0813
vn -0.0754 -0.9249 -0.3726
vn 0.2994 -0.9418 -0.1526
vn 0.2571 -0.9249 0.2800
vn -0.1367 -0.9353 0.3265
vn -0.3025 0.9353 -0.1838
vn 0.0434 0.9249 -0.3776
vn 0.3319 0.9418 -0.0526
vn 0.1580 0.9249 0.3457
vn -0.2309 0.9353 0.2683
vn -0.8546 0.0000 -0.5193
vn -0.8546 0.0000 -0.5193
vn 0.1143 0.0000 -0.9934
vn 0.1143 0.0000 -0.9934
vn 0.9877 0.0000 -0.1564
vn 0.9877 0.0000 -0.1564
vn 0.4157 0.0000 0.9095
vn 0.4157 0.0000 0.9095
vn -0.6523 0.0000 0.7580
vn -0.6523 0.0000 0.7580
vn -0.3025 -0.9353 -0.1838
vn 0.0434 -0.9249 -0.3776
vn 0.3319 -0.9418 -0.0526
vn 0.1580 -0.9249 0.3457
vn -0.2309 -0.9353 0.2683
vn -0.1106 0.9353 -0.3362
vn 0.2783 0.9249 -0.2589
vn 0.2865 0.9418 0.1756
vn -0.1044 0.9249 0.3655
vn -0.3498 0.9353 0.0541
vn -0.3126 0.0000 -0.9499
vn -0.3126 0.0000 -0.9499
vn 0.7321 0.0000 -0.6812
vn 0.7321 0.0000 -0.6812
vn 0.8526 0.0000 0.5225
vn 0.8526 0.0000 0.5225
vn -0.2746 0.0000 0.9616
vn -0.2746 -0.0000 0.9616
vn -0.9883 0.0000 0.1527
vn -0.9883 0.0000 0.1527
vn -0.1106 -0.9353 -0.3362
vn 0.2783 -0.9249 -0.2589
vn 0.2865 -0.9418 0.1756
vn -0.1044 -0.9249 0.3655
vn -0.3498 -0.9353 0.0541
vn -0.3494 0.9353 0.0567
vn -0.2122 0.9249 -0.3154
vn 0.2183 0.9418 -0.2555
vn 0.3447 0.9249 0.1603
vn -0.0013 0.9353 0.3539
vn -0.9871 -0.0000 0.1601
vn -0.9871 0.0000 0.1601
vn -0.5583 0.0000 -0.8296
vn -0.5583 0.0000 -0.8296
vn 0.6494 0.0000 -0.7604
vn 0.6494 0.0000 -0.7604
vn 0.9068 0.0000 0.4216
vn 0.9068 0.0000 0.4216
vn -0.0037 0.0000 1.0000
vn -0.0037 0.0000 1.0000
vn -0.3494 -0.9353 0.0567
vn -0.2122 -0.9249 -0.3154
vn 0.2183 -0.9418 -0.2555
vn 0.3447 -0.9249 0.1603
vn -0.0013 -0.9353 0.3539
vn -0.2309 0.9353 -0.2683
vn 0.1580 0.9249 -0.3457
vn 0.3319 0.9418 0.0526
vn 0.0434 0.9249 0.3776
vn -0.3025 0.9353 0.1838
vn -0.6523 0.0000 -0.7580
vn -0.6523 0.0000 -0.7580
vn 0.4157 0.0000 -0.9095
vn 0.4157 0.0000 -0.9095
vn 0.9877 0.0000 0.1564
vn 0.9877 0.0000 0.1564
vn 0.1143 0.0000 0.9934
vn 0.1143 0.0000 0.9934
vn -0.8546 0.0000 0.5193
vn -0.8546 0.0000 0.5193
vn -0.2309 -0.9353 -0.2683
vn 0.1580 -0.9249 -0.3457
vn 0.3319 -0.9418 0.0526
vn 0.0434 -0.9249 0.3776
vn -0.3025 -0.9353 0.1838
usemtl c0
f 1//1 12//1 11//1
f 2//2 13//2 12//2
f 3//3 14//3 13//3
f 4//4 15//4 14//4
f 5//5 16//5 15//5
f 6//6 17//6 16//6
f 7//7 18//7 17//7
f 8//8 19//8 18//8
f 9//9 20//9 19//9
f 10//10 11//10 20//10
f 11//11 12//11 22//11
f 11//12 22//12 21//12
f 12//13 13//13 23//13
f 12//14 23//14 22//14
f 13//15 14//15 24//15
f 13//16 24//16 23//16
f 14//17 15//17 25//17
f 14//18 25//18 24//18
f 15//19 16//19 26//19
f 15//20 26//20 25//20
f 16//21 17//21 27//21
f 16//22 27//22 26//22
f 17//23 18//23 28//23
f 17//24 28//24 27//24
f 18//25 19//25 29//25
f 18//26 29//26 28//26
f 19//27 20//27 30//27
f 19//28 30//28 29//28
f 20//29 11//29 21//29
f 20//30 21//30 30//30
f 21//31 22//31 32//31
f 21//32 32//32 31//32
f 22//33 23//33 33//33
f 22//34 33//34 32//34
f 23//35 24//35 34//35
f 23//36 34//36 33//36
f 24//37 25//37 35//37
f 24//38 35//38 34//38
f 25//39 26//39 36//39
f 25//40 36//40 35//40
f 26//41 27//41 37//41
f 26//42 37//42 36//42
f 27//43 28//43 38//43
f 27//44 38//44 37//44
f 28//45 29//45 39//45
f 28//46 39//46 38//46
f 29//47 30//47 40//47
f 29//48 40//48 39//48
f 30//49 21//49 31//49
f 30//50 31//50 40//50
f 31//51 32//51 42//51
f 32//52 33//52 43//52
f 33//53 34//53 44//53
f 34//54 35//54 45//54
f 35//55 36//55 46//55
f 36//56 37//56 47//56
f 37//57 38//57 48//57
f 38//58 39//58 49//58
f 39//59 40//59 50//59
f 40//60 31//60 41//60
usemtl c1
f 51//61 57//61 56//61
f 52//62 58//62 57//62
f 53//63 59//63 58//63
f 54//64 60//64 59//64
f 55//65 56//65 60//65
f 56//66 57//66 62//66
f 56//67 62//67 61//67
f 57//68 58//68 63//68
f 57//69 63//69 62//69
f 58//70 59//70 64//70
f 58//71 64//71 63//71
f 59//72 60//72 65//72
f 59//73 65//73 64//73
f 60//74 56//74 61//74
f 60//75 61//75 65//75
f 61//76 62//76 67//76
f 62//77 63//77 68//77
f 63//78 64//78 69//78
f 64//79 65//79 70//79
f 65//80 61//80 66//80
f 71//81 77//81 76//81
f 72//82 78//82 77//82
f 73//83 79//83 78//83
f 74//84 80//84 79//84
f 75//85 76//85 80//85
f 76//86 77//86 82//86
f 76//87 82//87 81//87
f 77//88 78//88 83//88
f 77//89 83//89 82//89
f 78//90 79//90 84//90
f 78//91 84//91 83//91
f 79//92 80//92 85//92
f 79//93 85//93 84//93
f 80//94 76//94 81//94
f 80//95 81//95 85//95
f 81//96 82//96 87//96
f 82//97 83//97 88//97
f 83//98 84//98 89//98
f 84//99 85//99 90//99
f 85//100 81//100 86//100
f 91//101 97//101 96//101
f 92//102 98//102 97//102
f 93//103 99//103 98//103
f 94//104 100//104 99//104
f 95//105 96//105 100//105
f 96//106 97//106 102//106
f 96//107 102//107 101//107
f 97//108 98//108 103//108
f 97//109 103//109 102//109
f 98//110 99//110 104//110
f 98//111 104//111 103//111
f 99//112 100//112 105//112
f 99//113 105//113 104//113
f 100//114 96//114 101//114
f 100//115 101//115 105//115
f 101//116 102//116 107//116
f 102//117 103//117 108//117
f 103//118 104//118 109//118
f 104//119 105//119 110//119
f 105//120 101//120 106//120
f 111//121 117//121 116//121
f 112//122 118//122 117//122
f 113//123 119//123 118//123
f 114//124 120//124 119//124
f 115//125 116//125 120//125
f 116//126 117//126 122//126
f 116//127 122//127 121//127
f 117//128 118//128 123//128
f 117//129 123//129 122//129
f 118//130 119//130 124//130
f 118//131 124//131 123//131
f 119//132 120//132 125//132
f 119//133 125//133 124//133
f 120//134 116//134 121//134
f 120//135 121//135 125//135
f 121//136 122//136 127//136
f 122//137 123//137 128//137
f 123//138 124//138 129//138
f 124//139 125//139 130//139
f 125//140 121//140 126//140
f 131//141 137//141 136//141
f 132//142 138//142 137//142
f 133//143 139//143 138//143
f 134//144 140//144 139//144
f 135//145 136//145 140//145
f 136//146 137//146 142//146
f 136//147 142//147 141//147
f 137//148 138//148 143//148
f 137//149 143//149 142//149
f 138//150 139//150 144//150
f 138//151 144//151 143//151
f 139//152 140//152 145//152
f 139//153 145//153 144//153
f 140//154 136//154 141//154
f 140//155 141//155 145//155
f 141//156 142//156 147//156
f 142//157 143//157 148//157
f 143//158 144//158 149//158
f 144//159 145//159 150//159
f 145//160 141//160 146//160
f 151//161 157//161 156//161
f 152//162 158//162 157//162
f 153//163 159//163 158//163
f 154//164 160//164 159//164
f 155//165 156//165 160//165
f 156//166 157//166 162//166
f 156//167 162//167 161//167
f 157//168 158//168 163//168
f 157//169 163//169 162//169
f 158//170 159//170 164//170
f 158//171 164//171 163//171
f 159//172 160//172 165//172
f 159//173 165//173 164//173
f 160//174 156//174 161//174
f 160//175 161//175 165//175
f 161//176 162//176 167//176
f 162//177 163//177 168//177
f 163//178 164//178 169//178
f 164//179 165//179 170//179
f 165//180 161//180 166//180
