mtllib Food_SweetPotato.mtl
v -1.0658 0.2180 0.0000
v -1.0658 0.2180 0.0000
v -1.0658 0.2180 0.0000
v -1.0658 0.2180 0.0000
v -1.0658 0.2180 0.0000
v -1.0658 0.2180 0.0000
v -1.0658 0.2180 0.0000
v -0.7041 0.3033 0.0000
v -0.7452 0.2196 0.1844
v -0.8374 0.0315 0.2299
v -0.9114 -0.1194 0.1023
v -0.9114 -0.1194 -0.1023
v -0.8374 0.0315 -0.2299
v -0.7452 0.2196 -0.1844
v -0.4234 0.2883 0.0000
v -0.4711 0.1666 0.2585
v -0.5783 -0.1068 0.3223
v -0.6643 -0.3260 0.1434
v -0.6643 -0.3260 -0.1434
v -0.5783 -0.1068 -0.3223
v -0.4711 0.1666 -0.2585
v -0.1629 0.2564 0.0000
v -0.2064 0.1114 0.2994
v -0.3042 -0.2144 0.3734
v -0.3826 -0.4757 0.1662
v -0.3826 -0.4757 -0.1662
v -0.3042 -0.2144 -0.3734
v -0.2064 0.1114 -0.2994
v 0.0873 0.2108 0.0000
v 0.0544 0.0561 0.3127
v -0.0194 -0.2914 0.3900
v -0.0787 -0.5701 0.1736
v -0.0787 -0.5701 -0.1736
v -0.0194 -0.2914 -0.3900
v 0.0544 0.0561 -0.3127
v 0.3344 0.1507 0.0000
v 0.3152 0.0005 0.2994
v 0.2720 -0.3369 0.3734
v 0.2374 -0.6075 0.1662
v 0.2374 -0.6075 -0.1662
v 0.2720 -0.3369 -0.3734
v 0.3152 0.0005 -0.2994
v 0.5854 0.0738 0.0000
v 0.5795 -0.0567 0.2585
v 0.5662 -0.3501 0.3223
v 0.5556 -0.5853 0.1434
v 0.5556 -0.5853 -0.1434
v 0.5662 -0.3501 -0.3223
v 0.5795 -0.0567 -0.2585
v 0.8480 -0.0266 0.0000
v 0.8514 -0.1198 0.1844
v 0.8592 -0.3292 0.2299
v 0.8654 -0.4970 0.1023
v 0.8654 -0.4970 -0.1023
v 0.8592 -0.3292 -0.2299
v 0.8514 -0.1198 -0.1844
v 1.1437 -0.2517 0.0000
v 1.1437 -0.2517 0.0000
v 1.1437 -0.2517 0.0000
v 1.1437 -0.2517 0.0000
v 1.1437 -0.2517 -0.0000
v 1.1437 -0.2517 -0.0000
v 1.1437 -0.2517 -0.0000
vn -0.2139 0.9065 0.3640
vn -0.4553 0.4141 0.7882
vn -0.7617 -0.1581 0.6284
vn -0.9093 -0.4162 0.0000
vn -0.7617 -0.1581 -0.6284
vn -0.4553 0.4141 -0.7882
vn -0.2139 0.9065 -0.3640
vn 0.0602 0.9038 0.4237
vn 0.0482 0.9003 0.4327
vn -0.1686 0.3093 0.9359
vn -0.1957 0.2951 0.9352
vn -0.4784 -0.4185 0.7720
vn -0.4962 -0.4237 0.7578
vn -0.6415 -0.7671 -0.0000
vn -0.6415 -0.7671 0.0000
vn -0.4921 -0.4088 -0.7686
vn -0.4862 -0.4300 -0.7608
vn -0.1896 0.3179 -0.9290
vn -0.1802 0.2901 -0.9399
vn 0.0485 0.9054 -0.4218
vn 0.0566 0.8992 -0.4338
vn 0.1175 0.8900 0.4406
vn 0.1087 0.8884 0.4461
vn -0.0790 0.2559 0.9635
vn -0.0974 0.2480 0.9639
vn -0.3362 -0.5127 0.7900
vn -0.3484 -0.5160 0.7826
vn -0.4693 -0.8830 -0.0000
vn -0.4693 -0.8830 0.0000
vn -0.3463 -0.5077 -0.7888
vn -0.3395 -0.5198 -0.7840
vn -0.0941 0.2612 -0.9607
vn -0.0839 0.2444 -0.9660
vn 0.1091 0.8915 -0.4398
vn 0.1160 0.8872 -0.4465
vn 0.1631 0.8784 0.4491
vn 0.1599 0.8780 0.4511
vn 0.0027 0.2206 0.9754
vn -0.0038 0.2177 0.9760
vn -0.1971 -0.5721 0.7961
vn -0.2014 -0.5737 0.7939
vn -0.2966 -0.9550 -0.0000
vn -0.2966 -0.9550 0.0000
vn -0.2008 -0.5710 -0.7960
vn -0.1978 -0.5746 -0.7942
vn -0.0028 0.2221 -0.9750
vn 0.0016 0.2166 -0.9763
vn 0.1601 0.8791 -0.4490
vn 0.1628 0.8775 -0.4511
vn 0.2082 0.8678 0.4511
vn 0.2113 0.8682 0.4490
vn 0.0867 0.1985 0.9763
vn 0.0929 0.2018 0.9750
vn -0.0530 -0.6054 0.7942
vn -0.0488 -0.6033 0.7960
vn -0.1175 -0.9931 -0.0000
vn -0.1175 -0.9931 0.0000
vn -0.0493 -0.6060 -0.7939
vn -0.0527 -0.6028 -0.7961
vn 0.0920 0.1973 -0.9760
vn 0.0872 0.2026 -0.9754
vn 0.2111 0.8672 -0.4511
vn 0.2083 0.8688 -0.4491
vn 0.2549 0.8577 0.4465
vn 0.2629 0.8587 0.4398
vn 0.1761 0.1892 0.9660
vn 0.1922 0.2004 0.9607
vn 0.0987 -0.6129 0.7840
vn 0.1099 -0.6047 0.7888
vn 0.0695 -0.9976 0.0000
vn 0.0695 -0.9976 0.0000
vn 0.1084 -0.6131 -0.7826
vn 0.0986 -0.6051 -0.7900
vn 0.1898 0.1869 -0.9639
vn 0.1762 0.2017 -0.9635
vn 0.2620 0.8558 -0.4461
vn 0.2547 0.8608 -0.4406
vn 0.3140 0.8445 0.4338
vn 0.3240 0.8468 0.4218
vn 0.2826 0.1917 0.9399
vn 0.3025 0.2133 0.9290
vn 0.2692 -0.5906 0.7608
vn 0.2833 -0.5736 0.7686
vn 0.2741 -0.9617 0.0000
vn 0.2741 -0.9617 0.0000
vn 0.2810 -0.5889 -0.7578
vn 0.2668 -0.5769 -0.7720
vn 0.2988 0.1900 -0.9352
vn 0.2798 0.2139 -0.9359
vn 0.3221 0.8420 -0.4327
vn 0.3126 0.8501 -0.4237
vn 0.5641 0.7412 0.3640
vn 0.5844 0.1931 0.7882
vn 0.6315 -0.4542 0.6284
vn 0.6613 -0.7501 0.0000
vn 0.6315 -0.4542 -0.6284
vn 0.5844 0.1931 -0.7882
vn 0.5641 0.7412 -0.3640
usemtl c0
f 1//1 9//1 8//1
f 2//2 10//2 9//2
f 3//3 11//3 10//3
f 4//4 12//4 11//4
f 5//5 13//5 12//5
f 6//6 14//6 13//6
f 7//7 8//7 14//7
f 8//8 9//8 16//8
f 8//9 16//9 15//9
f 9//10 10//10 17//10
f 9//11 17//11 16//11
f 10//12 11//12 18//12
f 10//13 18//13 17//13
f 11//14 12//14 19//14
f 11//15 19//15 18//15
f 12//16 13//16 20//16
f 12//17 20//17 19//17
f 13//18 14//18 21//18
f 13//19 21//19 20//19
f 14//20 8//20 15//20
f 14//21 15//21 21//21
f 15//22 16//22 23//22
f 15//23 23//23 22//23
f 16//24 17//24 24//24
f 16//25 24//25 23//25
f 17//26 18//26 25//26
f 17//27 25//27 24//27
f 18//28 19//28 26//28
f 18//29 26//29 25//29
f 19//30 20//30 27//30
f 19//31 27//31 26//31
f 20//32 21//32 28//32
f 20//33 28//33 27//33
f 21//34 15//34 22//34
f 21//35 22//35 28//35
f 22//36 23//36 30//36
f 22//37 30//37 29//37
f 23//38 24//38 31//38
f 23//39 31//39 30//39
f 24//40 25//40 32//40
f 24//41 32//41 31//41
f 25//42 26//42 33//42
f 25//43 33//43 32//43
f 26//44 27//44 34//44
f 26//45 34//45 33//45
f 27//46 28//46 35//46
f 27//47 35//47 34//47
f 28//48 22//48 29//48
f 28//49 29//49 35//49
f 29//50 30//50 37//50
f 29//51 37//51 36//51
f 30//52 31//52 38//52
f 30//53 38//53 37//53
f 31//54 32//54 39//54
f 31//55 39//55 38//55
f 32//56 33//56 40//56
f 32//57 40//57 39//57
f 33//58 34//58 41//58
f 33//59 41//59 40//59
f 34//60 35//60 42//60
f 34//61 42//61 41//61
f 35//62 29//62 36//62
f 35//63 36//63 42//63
f 36//64 37//64 44//64
f 36//65 44//65 43//65
f 37//66 38//66 45//66
f 37//67 45//67 44//67
f 38//68 39//68 46//68
f 38//69 46//69 45//69
f 39//70 40//70 47//70
f 39//71 47//71 46//71
f 40//72 41//72 48//72
f 40//73 48//73 47//73
f 41//74 42//74 49//74
f 41//75 49//75 48//75
f 42//76 36//76 43//76
f 42//77 43//77 49//77
f 43//78 44//78 51//78
f 43//79 51//79 50//79
f 44//80 45//80 52//80
f 44//81 52//81 51//81
f 45//82 46//82 53//82
f 45//83 53//83 52//83
f 46//84 47//84 54//84
f 46//85 54//85 53//85
f 47//86 48//86 55//86
f 47//87 55//87 54//87
f 48//88 49//88 56//88
f 48//89 56//89 55//89
f 49//90 43//90 50//90
f 49//91 50//91 56//91
f 50//92 51//92 58//92
f 51//93 52//93 59//93
f 52//94 53//94 60//94
f 53//95 54//95 61//95
f 54//96 55//96 62//96
f 55//97 56//97 63//97
f 56//98 50//98 57//98
