mtllib Food_IceCream.mtl
v 0.0000 -1.3000 0.0000
v 0.0000 -1.3000 0.0000
v 0.0000 -1.3000 0.0000
v 0.0000 -1.3000 0.0000
v 0.0000 -1.3000 0.0000
v 0.0000 -1.3000 0.0000
v 0.0000 -1.3000 0.0000
v 0.0000 -1.3000 0.0000
v 0.5200 0.0500 0.0000
v 0.3677 0.0500 0.3677
v 0.0000 0.0500 0.5200
v -0.3677 0.0500 0.3677
v -0.5200 0.0500 0.0000
v -0.3677 0.0500 -0.3677
v -0.0000 0.0500 -0.5200
v 0.3677 0.0500 -0.3677
v 0.0000 0.0500 0.0000
v 0.6000 0.0600 0.0000
v 0.4243 0.0600 0.4243
v 0.0000 0.0600 0.6000
v -0.4243 0.0600 0.4243
v -0.6000 0.0600 0.0000
v -0.4243 0.0600 -0.4243
v -0.0000 0.0600 -0.6000
v 0.4243 0.0600 -0.4243
v 0.5000 0.1600 0.0000
v 0.3536 0.1600 0.3536
v 0.0000 0.1600 0.5000
v -0.3536 0.1600 0.3536
v -0.5000 0.1600 0.0000
v -0.3536 0.1600 -0.3536
v -0.0000 0.1600 -0.5000
v 0.3536 0.1600 -0.3536
v 0.4000 0.0600 0.0000
v 0.2828 0.0600 0.2828
v 0.0000 0.0600 0.4000
v -0.2828 0.0600 0.2828
v -0.4000 0.0600 0.0000
v -0.2828 0.0600 -0.2828
v -0.0000 0.0600 -0.4000
v 0.2828 0.0600 -0.2828
v 0.5000 -0.0400 0.0000
v 0.3536 -0.0400 0.3536
v 0.0000 -0.0400 0.5000
v -0.3536 -0.0400 0.3536
v -0.5000 -0.0400 0.0000
v -0.3536 -0.0400 -0.3536
v -0.0000 -0.0400 -0.5000
v 0.3536 -0.0400 -0.3536
v 0.0000 -0.1100 0.0000
v 0.0000 -0.1100 0.0000
v 0.0000 -0.1100 0.0000
v 0.0000 -0.1100 0.0000
v 0.0000 -0.1100 0.0000
v 0.0000 -0.1100 0.0000
v 0.0000 -0.1100 0.0000
v 0.0000 -0.1100 0.0000
v 0.0000 -0.1100 0.0000
v 0.3879 0.0160 0.0000
v 0.2972 0.0160 0.2494
v 0.0674 0.0160 0.3820
v -0.1940 0.0160 0.3360
v -0.3645 0.0160 0.1327
v -0.3645 0.0160 -0.1327
v -0.1940 0.0160 -0.3360
v 0.0674 0.0160 -0.3820
v 0.2972 0.0160 -0.2494
v 0.6277 0.3460 0.0000
v 0.4808 0.3460 0.4035
v 0.1090 0.3460 0.6182
v -0.3138 0.3460 0.5436
v -0.5898 0.3460 0.2147
v -0.5898 0.3460 -0.2147
v -0.3138 0.3460 -0.5436
v 0.1090 0.3460 -0.6182
v 0.4808 0.3460 -0.4035
v 0.6277 0.7540 0.0000
v 0.4808 0.7540 0.4035
v 0.1090 0.7540 0.6182
v -0.3138 0.7540 0.5436
v -0.5898 0.7540 0.2147
v -0.5898 0.7540 -0.2147
v -0.3138 0.7540 -0.5436
v 0.1090 0.7540 -0.6182
v 0.4808 0.7540 -0.4035
v 0.3879 1.0840 0.0000
v 0.2972 1.0840 0.2494
v 0.0674 1.0840 0.3820
v -0.1940 1.0840 0.3360
v -0.3645 1.0840 0.1327
v -0.3645 1.0840 -0.1327
v -0.1940 1.0840 -0.3360
v 0.0674 1.0840 -0.3820
v 0.2972 1.0840 -0.2494
v 0.0000 1.2100 0.0000
v 0.0000 1.2100 0.0000
v 0.0000 1.2100 0.0000
v -0.0000 1.2100 0.0000
v -0.0000 1.2100 0.0000
v -0.0000 1.2100 -0.0000
v -0.0000 1.2100 -0.0000
v 0.0000 1.2100 -0.0000
v 0.0000 1.2100 -0.0000
v 0.0000 0.6800 0.0000
v 0.0000 0.6800 0.0000
v 0.0000 0.6800 0.0000
v 0.0000 0.6800 0.0000
v 0.0000 0.6800 0.0000
v 0.0000 0.6800 0.0000
v 0.0000 0.6800 0.0000
v 0.0000 0.6800 0.0000
v 0.0000 0.6800 0.0000
v 0.3056 0.7793 0.0000
v 0.2341 0.7793 0.1965
v 0.0531 0.7793 0.3010
v -0.1528 0.7793 0.2647
v -0.2872 0.7793 0.1045
v -0.2872 0.7793 -0.1045
v -0.1528 0.7793 -0.2647
v 0.0531 0.7793 -0.3010
v 0.2341 0.7793 -0.1965
v 0.4945 1.0393 0.0000
v 0.3788 1.0393 0.3179
v 0.0859 1.0393 0.4870
v -0.2473 1.0393 0.4283
v -0.4647 1.0393 0.1691
v -0.4647 1.0393 -0.1691
v -0.2473 1.0393 -0.4283
v 0.0859 1.0393 -0.4870
v 0.3788 1.0393 -0.3179
v 0.4945 1.3607 0.0000
v 0.3788 1.3607 0.3179
v 0.0859 1.3607 0.4870
v -0.2473 1.3607 0.4283
v -0.4647 1.3607 0.1691
v -0.4647 1.3607 -0.1691
v -0.2473 1.3607 -0.4283
v 0.0859 1.3607 -0.4870
v 0.3788 1.3607 -0.3179
v 0.3056 1.6207 0.0000
v 0.2341 1.6207 0.1965
v 0.0531 1.6207 0.3010
v -0.1528 1.6207 0.2647
v -0.2872 1.6207 0.1045
v -0.2872 1.6207 -0.1045
v -0.1528 1.6207 -0.2647
v 0.0531 1.6207 -0.3010
v 0.2341 1.6207 -0.1965
v 0.0000 1.7200 0.0000
v 0.0000 1.7200 0.0000
v 0.0000 1.7200 0.0000
v -0.0000 1.7200 0.0000
v -0.0000 1.7200 0.0000
v -0.0000 1.7200 -0.0000
v -0.0000 1.7200 -0.0000
v 0.0000 1.7200 -0.0000
v 0.0000 1.7200 -0.0000
v 0.0000 1.6400 0.0000
v 0.0000 1.6400 0.0000
v 0.0000 1.6400 0.0000
v 0.0000 1.6400 0.0000
v 0.0000 1.6400 0.0000
v 0.0000 1.6400 0.0000
v 0.1212 1.7100 0.0000
v 0.0606 1.7100 0.1050
v -0.0606 1.7100 0.1050
v -0.1212 1.7100 0.0000
v -0.0606 1.7100 -0.1050
v 0.0606 1.7100 -0.1050
v 0.1212 1.8500 0.0000
v 0.0606 1.8500 0.1050
v -0.0606 1.8500 0.1050
v -0.1212 1.8500 0.0000
v -0.0606 1.8500 -0.1050
v 0.0606 1.8500 -0.1050
v 0.0000 1.9200 0.0000
v 0.0000 1.9200 0.0000
v -0.0000 1.9200 0.0000
v -0.0000 1.9200 0.0000
v -0.0000 1.9200 -0.0000
v 0.0000 1.9200 -0.0000
vn -0.8704 0.3353 -0.3605
vn -0.3605 0.3353 -0.8704
vn 0.3605 0.3353 -0.8704
vn 0.8704 0.3353 -0.3605
vn 0.8704 0.3353 0.3605
vn 0.3605 0.3353 0.8704
vn -0.3605 0.3353 0.8704
vn -0.8704 0.3353 0.3605
vn 0.0000 -1.0000 0.0000
vn 0.0000 -1.0000 0.0000
vn 0.0000 -1.0000 0.0000
vn 0.0000 -1.0000 0.0000
vn -0.0000 -1.0000 0.0000
vn 0.0000 -1.0000 0.0000
vn 0.0000 -1.0000 -0.0000
vn 0.0000 -1.0000 0.0000
vn -0.6786 -0.6786 -0.2811
vn -0.6786 -0.6786 -0.2811
vn -0.2811 -0.6786 -0.6786
vn -0.2811 -0.6786 -0.6786
vn 0.2811 -0.6786 -0.6786
vn 0.2811 -0.6786 -0.6786
vn 0.6786 -0.6786 -0.2811
vn 0.6786 -0.6786 -0.2811
vn 0.6786 -0.6786 0.2811
vn 0.6786 -0.6786 0.2811
vn 0.2811 -0.6786 0.6786
vn 0.2811 -0.6786 0.6786
vn -0.2811 -0.6786 0.6786
vn -0.2811 -0.6786 0.6786
vn -0.6786 -0.6786 0.2811
vn -0.6786 -0.6786 0.2811
vn 0.6786 -0.6786 0.2811
vn 0.6786 -0.6786 0.2811
vn 0.2811 -0.6786 0.6786
vn 0.2811 -0.6786 0.6786
vn -0.2811 -0.6786 0.6786
vn -0.2811 -0.6786 0.6786
vn -0.6786 -0.6786 0.2811
vn -0.6786 -0.6786 0.2811
vn -0.6786 -0.6786 -0.2811
vn -0.6786 -0.6786 -0.2811
vn -0.2811 -0.6786 -0.6786
vn -0.2811 -0.6786 -0.6786
vn 0.2811 -0.6786 -0.6786
vn 0.2811 -0.6786 -0.6786
vn 0.6786 -0.6786 -0.2811
vn 0.6786 -0.6786 -0.2811
vn 0.6786 0.6786 0.2811
vn 0.6786 0.6786 0.2811
vn 0.2811 0.6786 0.6786
vn 0.2811 0.6786 0.6786
vn -0.2811 0.6786 0.6786
vn -0.2811 0.6786 0.6786
vn -0.6786 0.6786 0.2811
vn -0.6786 0.6786 0.2811
vn -0.6786 0.6786 -0.2811
vn -0.6786 0.6786 -0.2811
vn -0.2811 0.6786 -0.6786
vn -0.2811 0.6786 -0.6786
vn 0.2811 0.6786 -0.6786
vn 0.2811 0.6786 -0.6786
vn 0.6786 0.6786 -0.2811
vn 0.6786 0.6786 -0.2811
vn -0.6786 0.6786 -0.2811
vn -0.6786 0.6786 -0.2811
vn -0.2811 0.6786 -0.6786
vn -0.2811 0.6786 -0.6786
vn 0.2811 0.6786 -0.6786
vn 0.2811 0.6786 -0.6786
vn 0.6786 0.6786 -0.2811
vn 0.6786 0.6786 -0.2811
vn 0.6786 0.6786 0.2811
vn 0.6786 0.6786 0.2811
vn 0.2811 0.6786 0.6786
vn 0.2811 0.6786 0.6786
vn -0.2811 0.6786 0.6786
vn -0.2811 0.6786 0.6786
vn -0.6786 0.6786 0.2811
vn -0.6786 0.6786 0.2811
vn -0.3071 0.9451 -0.1118
vn -0.1634 0.9451 -0.2830
vn 0.0567 0.9451 -0.3218
vn 0.2503 0.9451 -0.2101
vn 0.3268 0.9451 -0.0000
vn 0.2503 0.9451 0.2101
vn 0.0567 0.9451 0.3218
vn -0.1634 0.9451 0.2830
vn -0.3071 0.9451 0.1118
vn -0.7761 0.5638 -0.2825
vn -0.7761 0.5638 -0.2825
vn -0.4129 0.5638 -0.7152
vn -0.4129 0.5638 -0.7152
vn 0.1434 0.5638 -0.8133
vn 0.1434 0.5638 -0.8133
vn 0.6327 0.5638 -0.5309
vn 0.6327 0.5638 -0.5309
vn 0.8259 0.5638 -0.0000
vn 0.8259 0.5638 -0.0000
vn 0.6327 0.5638 0.5309
vn 0.6327 0.5638 0.5309
vn 0.1434 0.5638 0.8133
vn 0.1434 0.5638 0.8133
vn -0.4129 0.5638 0.7152
vn -0.4129 0.5638 0.7152
vn -0.7761 0.5638 0.2825
vn -0.7761 0.5638 0.2825
vn -0.9397 0.0000 -0.3420
vn -0.9397 0.0000 -0.3420
vn -0.5000 0.0000 -0.8660
vn -0.5000 0.0000 -0.8660
vn 0.1736 0.0000 -0.9848
vn 0.1736 0.0000 -0.9848
vn 0.7660 0.0000 -0.6428
vn 0.7660 0.0000 -0.6428
vn 1.0000 0.0000 -0.0000
vn 1.0000 0.0000 -0.0000
vn 0.7660 0.0000 0.6428
vn 0.7660 0.0000 0.6428
vn 0.1736 0.0000 0.9848
vn 0.1736 0.0000 0.9848
vn -0.5000 0.0000 0.8660
vn -0.5000 0.0000 0.8660
vn -0.9397 0.0000 0.3420
vn -0.9397 0.0000 0.3420
vn -0.7761 -0.5638 -0.2825
vn -0.7761 -0.5638 -0.2825
vn -0.4129 -0.5638 -0.7152
vn -0.4129 -0.5638 -0.7152
vn 0.1434 -0.5638 -0.8133
vn 0.1434 -0.5638 -0.8133
vn 0.6327 -0.5638 -0.5309
vn 0.6327 -0.5638 -0.5309
vn 0.8259 -0.5638 -0.0000
vn 0.8259 -0.5638 -0.0000
vn 0.6327 -0.5638 0.5309
vn 0.6327 -0.5638 0.5309
vn 0.1434 -0.5638 0.8133
vn 0.1434 -0.5638 0.8133
vn -0.4129 -0.5638 0.7152
vn -0.4129 -0.5638 0.7152
vn -0.7761 -0.5638 0.2825
vn -0.7761 -0.5638 0.2825
vn -0.3071 -0.9451 -0.1118
vn -0.1634 -0.9451 -0.2830
vn 0.0567 -0.9451 -0.3218
vn 0.2503 -0.9451 -0.2101
vn 0.3268 -0.9451 -0.0000
vn 0.2503 -0.9451 0.2101
vn 0.0567 -0.9451 0.3218
vn -0.1634 -0.9451 0.2830
vn -0.3071 -0.9451 0.1118
vn -0.3071 0.9451 -0.1118
vn -0.1634 0.9451 -0.2830
vn 0.0567 0.9451 -0.3218
vn 0.2503 0.9451 -0.2101
vn 0.3268 0.9451 -0.0000
vn 0.2503 0.9451 0.2101
vn 0.0567 0.9451 0.3218
vn -0.1634 0.9451 0.2830
vn -0.3071 0.9451 0.1118
vn -0.7761 0.5638 -0.2825
vn -0.7761 0.5638 -0.2825
vn -0.4129 0.5638 -0.7152
vn -0.4129 0.5638 -0.7152
vn 0.1434 0.5638 -0.8133
vn 0.1434 0.5638 -0.8133
vn 0.6327 0.5638 -0.5309
vn 0.6327 0.5638 -0.5309
vn 0.8259 0.5638 -0.0000
vn 0.8259 0.5638 -0.0000
vn 0.6327 0.5638 0.5309
vn 0.6327 0.5638 0.5309
vn 0.1434 0.5638 0.8133
vn 0.1434 0.5638 0.8133
vn -0.4129 0.5638 0.7152
vn -0.4129 0.5638 0.7152
vn -0.7761 0.5638 0.2825
vn -0.7761 0.5638 0.2825
vn -0.9397 0.0000 -0.3420
vn -0.9397 0.0000 -0.3420
vn -0.5000 0.0000 -0.8660
vn -0.5000 0.0000 -0.8660
vn 0.1736 0.0000 -0.9848
vn 0.1736 0.0000 -0.9848
vn 0.7660 0.0000 -0.6428
vn 0.7660 0.0000 -0.6428
vn 1.0000 0.0000 -0.0000
vn 1.0000 0.0000 -0.0000
vn 0.7660 0.0000 0.6428
vn 0.7660 0.0000 0.6428
vn 0.1736 0.0000 0.9848
vn 0.1736 0.0000 0.9848
vn -0.5000 0.0000 0.8660
vn -0.5000 0.0000 0.8660
vn -0.9397 0.0000 0.3420
vn -0.9397 0.0000 0.3420
vn -0.7761 -0.5638 -0.2825
vn -0.7761 -0.5638 -0.2825
vn -0.4129 -0.5638 -0.7152
vn -0.4129 -0.5638 -0.7152
vn 0.1434 -0.5638 -0.8133
vn 0.1434 -0.5638 -0.8133
vn 0.6327 -0.5638 -0.5309
vn 0.6327 -0.5638 -0.5309
vn 0.8259 -0.5638 -0.0000
vn 0.8259 -0.5638 -0.0000
vn 0.6327 -0.5638 0.5309
vn 0.6327 -0.5638 0.5309
vn 0.1434 -0.5638 0.8133
vn 0.1434 -0.5638 0.8133
vn -0.4129 -0.5638 0.7152
vn -0.4129 -0.5638 0.7152
vn -0.7761 -0.5638 0.2825
vn -0.7761 -0.5638 0.2825
vn -0.3071 -0.9451 -0.1118
vn -0.1634 -0.9451 -0.2830
vn 0.0567 -0.9451 -0.3218
vn 0.2503 -0.9451 -0.2101
vn 0.3268 -0.9451 -0.0000
vn 0.2503 -0.9451 0.2101
vn 0.0567 -0.9451 0.3218
vn -0.1634 -0.9451 0.2830
vn -0.3071 -0.9451 0.1118
vn -0.4804 0.8321 -0.2774
vn -0.0000 0.8321 -0.5547
vn 0.4804 0.8321 -0.2774
vn 0.4804 0.8321 0.2774
vn 0.0000 0.8321 0.5547
vn -0.4804 0.8321 0.2774
vn -0.8660 0.0000 -0.5000
vn -0.8660 0.0000 -0.5000
vn -0.0000 0.0000 -1.0000
vn -0.0000 0.0000 -1.0000
vn 0.8660 0.0000 -0.5000
vn 0.8660 0.0000 -0.5000
vn 0.8660 0.0000 0.5000
vn 0.8660 0.0000 0.5000
vn 0.0000 0.0000 1.0000
vn 0.0000 0.0000 1.0000
vn -0.8660 0.0000 0.5000
vn -0.8660 0.0000 0.5000
vn -0.4804 -0.8321 -0.2774
vn -0.0000 -0.8321 -0.5547
vn 0.4804 -0.8321 -0.2774
vn 0.4804 -0.8321 0.2774
vn 0.0000 -0.8321 0.5547
vn -0.4804 -0.8321 0.2774
usemtl c0
f 1//1 10//1 9//1
f 2//2 11//2 10//2
f 3//3 12//3 11//3
f 4//4 13//4 12//4
f 5//5 14//5 13//5
f 6//6 15//6 14//6
f 7//7 16//7 15//7
f 8//8 9//8 16//8
f 17//9 9//9 10//9
f 17//10 10//10 11//10
f 17//11 11//11 12//11
f 17//12 12//12 13//12
f 17//13 13//13 14//13
f 17//14 14//14 15//14
f 17//15 15//15 16//15
f 17//16 16//16 9//16
usemtl c1
f 18//17 19//17 27//17
f 18//18 27//18 26//18
f 19//19 20//19 28//19
f 19//20 28//20 27//20
f 20//21 21//21 29//21
f 20//22 29//22 28//22
f 21//23 22//23 30//23
f 21//24 30//24 29//24
f 22//25 23//25 31//25
f 22//26 31//26 30//26
f 23//27 24//27 32//27
f 23//28 32//28 31//28
f 24//29 25//29 33//29
f 24//30 33//30 32//30
f 25//31 18//31 26//31
f 25//32 26//32 33//32
f 26//33 27//33 35//33
f 26//34 35//34 34//34
f 27//35 28//35 36//35
f 27//36 36//36 35//36
f 28//37 29//37 37//37
f 28//38 37//38 36//38
f 29//39 30//39 38//39
f 29//40 38//40 37//40
f 30//41 31//41 39//41
f 30//42 39//42 38//42
f 31//43 32//43 40//43
f 31//44 40//44 39//44
f 32//45 33//45 41//45
f 32//46 41//46 40//46
f 33//47 26//47 34//47
f 33//48 34//48 41//48
f 34//49 35//49 43//49
f 34//50 43//50 42//50
f 35//51 36//51 44//51
f 35//52 44//52 43//52
f 36//53 37//53 45//53
f 36//54 45//54 44//54
f 37//55 38//55 46//55
f 37//56 46//56 45//56
f 38//57 39//57 47//57
f 38//58 47//58 46//58
f 39//59 40//59 48//59
f 39//60 48//60 47//60
f 40//61 41//61 49//61
f 40//62 49//62 48//62
f 41//63 34//63 42//63
f 41//64 42//64 49//64
f 42//65 43//65 19//65
f 42//66 19//66 18//66
f 43//67 44//67 20//67
f 43//68 20//68 19//68
f 44//69 45//69 21//69
f 44//70 21//70 20//70
f 45//71 46//71 22//71
f 45//72 22//72 21//72
f 46//73 47//73 23//73
f 46//74 23//74 22//74
f 47//75 48//75 24//75
f 47//76 24//76 23//76
f 48//77 49//77 25//77
f 48//78 25//78 24//78
f 49//79 42//79 18//79
f 49//80 18//80 25//80
f 50//81 60//81 59//81
f 51//82 61//82 60//82
f 52//83 62//83 61//83
f 53//84 63//84 62//84
f 54//85 64//85 63//85
f 55//86 65//86 64//86
f 56//87 66//87 65//87
f 57//88 67//88 66//88
f 58//89 59//89 67//89
f 59//90 60//90 69//90
f 59//91 69//91 68//91
f 60//92 61//92 70//92
f 60//93 70//93 69//93
f 61//94 62//94 71//94
f 61//95 71//95 70//95
f 62//96 63//96 72//96
f 62//97 72//97 71//97
f 63//98 64//98 73//98
f 63//99 73//99 72//99
f 64//100 65//100 74//100
f 64//101 74//101 73//101
f 65//102 66//102 75//102
f 65//103 75//103 74//103
f 66//104 67//104 76//104
f 66//105 76//105 75//105
f 67//106 59//106 68//106
f 67//107 68//107 76//107
f 68//108 69//108 78//108
f 68//109 78//109 77//109
f 69//110 70//110 79//110
f 69//111 79//111 78//111
f 70//112 71//112 80//112
f 70//113 80//113 79//113
f 71//114 72//114 81//114
f 71//115 81//115 80//115
f 72//116 73//116 82//116
f 72//117 82//117 81//117
f 73//118 74//118 83//118
f 73//119 83//119 82//119
f 74//120 75//120 84//120
f 74//121 84//121 83//121
f 75//122 76//122 85//122
f 75//123 85//123 84//123
f 76//124 68//124 77//124
f 76//125 77//125 85//125
f 77//126 78//126 87//126
f 77//127 87//127 86//127
f 78//128 79//128 88//128
f 78//129 88//129 87//129
f 79//130 80//130 89//130
f 79//131 89//131 88//131
f 80//132 81//132 90//132
f 80//133 90//133 89//133
f 81//134 82//134 91//134
f 81//135 91//135 90//135
f 82//136 83//136 92//136
f 82//137 92//137 91//137
f 83//138 84//138 93//138
f 83//139 93//139 92//139
f 84//140 85//140 94//140
f 84//141 94//141 93//141
f 85//142 77//142 86//142
f 85//143 86//143 94//143
f 86//144 87//144 96//144
f 87//145 88//145 97//145
f 88//146 89//146 98//146
f 89//147 90//147 99//147
f 90//148 91//148 100//148
f 91//149 92//149 101//149
f 92//150 93//150 102//150
f 93//151 94//151 103//151
f 94//152 86//152 95//152
usemtl c2
f 104//153 114//153 113//153
f 105//154 115//154 114//154
f 106//155 116//155 115//155
f 107//156 117//156 116//156
f 108//157 118//157 117//157
f 109//158 119//158 118//158
f 110//159 120//159 119//159
f 111//160 121//160 120//160
f 112//161 113//161 121//161
f 113//162 114//162 123//162
f 113//163 123//163 122//163
f 114//164 115//164 124//164
f 114//165 124//165 123//165
f 115//166 116//166 125//166
f 115//167 125//167 124//167
f 116//168 117//168 126//168
f 116//169 126//169 125//169
f 117//170 118//170 127//170
f 117//171 127//171 126//171
f 118//172 119//172 128//172
f 118//173 128//173 127//173
f 119//174 120//174 129//174
f 119//175 129//175 128//175
f 120//176 121//176 130//176
f 120//177 130//177 129//177
f 121//178 113//178 122//178
f 121//179 122//179 130//179
f 122//180 123//180 132//180
f 122//181 132//181 131//181
f 123//182 124//182 133//182
f 123//183 133//183 132//183
f 124//184 125//184 134//184
f 124//185 134//185 133//185
f 125//186 126//186 135//186
f 125//187 135//187 134//187
f 126//188 127//188 136//188
f 126//189 136//189 135//189
f 127//190 128//190 137//190
f 127//191 137//191 136//191
f 128//192 129//192 138//192
f 128//193 138//193 137//193
f 129//194 130//194 139//194
f 129//195 139//195 138//195
f 130//196 122//196 131//196
f 130//197 131//197 139//197
f 131//198 132//198 141//198
f 131//199 141//199 140//199
f 132//200 133//200 142//200
f 132//201 142//201 141//201
f 133//202 134//202 143//202
f 133//203 143//203 142//203
f 134//204 135//204 144//204
f 134//205 144//205 143//205
f 135//206 136//206 145//206
f 135//207 145//207 144//207
f 136//208 137//208 146//208
f 136//209 146//209 145//209
f 137//210 138//210 147//210
f 137//211 147//211 146//211
f 138//212 139//212 148//212
f 138//213 148//213 147//213
f 139//214 131//214 140//214
f 139//215 140//215 148//215
f 140//216 141//216 150//216
f 141//217 142//217 151//217
f 142//218 143//218 152//218
f 143//219 144//219 153//219
f 144//220 145//220 154//220
f 145//221 146//221 155//221
f 146//222 147//222 156//222
f 147//223 148//223 157//223
f 148//224 140//224 149//224
usemtl c3
f 158//225 165//225 164//225
f 159//226 166//226 165//226
f 160//227 167//227 166//227
f 161//228 168//228 167//228
f 162//229 169//229 168//229
f 163//230 164//230 169//230
f 164//231 165//231 171//231
f 164//232 171//232 170//232
f 165//233 166//233 172//233
f 165//234 172//234 171//234
f 166//235 167//235 173//235
f 166//236 173//236 172//236
f 167//237 168//237 174//237
f 167//238 174//238 173//238
f 168//239 169//239 175//239
f 168//240 175//240 174//240
f 169//241 164//241 170//241
f 169//242 170//242 175//242
f 170//243 171//243 177//243
f 171//244 172//244 178//244
f 172//245 173//245 179//245
f 173//246 174//246 180//246
f 174//247 175//247 181//247
f 175//248 170//248 176//248
