mtllib Food_Ketchup.mtl
v 0.0000 0.0000 0.0000
v 0.0000 0.0000 0.0000
v 0.0000 0.0000 0.0000
v 0.0000 0.0000 0.0000
v 0.0000 0.0000 0.0000
v 0.0000 0.0000 0.0000
v 0.0000 0.0000 0.0000
v 0.0000 0.0000 0.0000
v 0.0000 0.0000 0.0000
v 0.5500 0.0000 0.0000
v 0.4213 0.0000 0.3535
v 0.0955 0.0000 0.5416
v -0.2750 0.0000 0.4763
v -0.5168 0.0000 0.1881
v -0.5168 0.0000 -0.1881
v -0.2750 0.0000 -0.4763
v 0.0955 0.0000 -0.5416
v 0.4213 0.0000 -0.3535
v 0.6000 0.1000 0.0000
v 0.4596 0.1000 0.3857
v 0.1042 0.1000 0.5909
v -0.3000 0.1000 0.5196
v -0.5638 0.1000 0.2052
v -0.5638 0.1000 -0.2052
v -0.3000 0.1000 -0.5196
v 0.1042 0.1000 -0.5909
v 0.4596 0.1000 -0.3857
v 0.6000 0.9000 0.0000
v 0.4596 0.9000 0.3857
v 0.1042 0.9000 0.5909
v -0.3000 0.9000 0.5196
v -0.5638 0.9000 0.2052
v -0.5638 0.9000 -0.2052
v -0.3000 0.9000 -0.5196
v 0.1042 0.9000 -0.5909
v 0.4596 0.9000 -0.3857
v 0.4200 1.2500 0.0000
v 0.3217 1.2500 0.2700
v 0.0729 1.2500 0.4136
v -0.2100 1.2500 0.3637
v -0.3947 1.2500 0.1436
v -0.3947 1.2500 -0.1436
v -0.2100 1.2500 -0.3637
v 0.0729 1.2500 -0.4136
v 0.3217 1.2500 -0.2700
v 0.3000 1.4000 0.0000
v 0.2298 1.4000 0.1928
v 0.0521 1.4000 0.2954
v -0.1500 1.4000 0.2598
v -0.2819 1.4000 0.1026
v -0.2819 1.4000 -0.1026
v -0.1500 1.4000 -0.2598
v 0.0521 1.4000 -0.2954
v 0.2298 1.4000 -0.1928
v 0.0000 1.4000 0.0000
v 0.3000 1.4000 0.0000
v 0.2298 1.4000 0.1928
v 0.0521 1.4000 0.2954
v -0.1500 1.4000 0.2598
v -0.2819 1.4000 0.1026
v -0.2819 1.4000 -0.1026
v -0.1500 1.4000 -0.2598
v 0.0521 1.4000 -0.2954
v 0.2298 1.4000 -0.1928
v 0.0000 1.9000 0.0000
v 0.0000 1.9000 0.0000
v 0.0000 1.9000 0.0000
v 0.0000 1.9000 0.0000
v 0.0000 1.9000 0.0000
v 0.0000 1.9000 0.0000
v 0.0000 1.9000 0.0000
v 0.0000 1.9000 0.0000
v 0.0000 1.9000 0.0000
v 0.0000 1.4000 0.0000
v 0.6200 0.3000 0.0000
v 0.4749 0.3000 0.3985
v 0.1077 0.3000 0.6106
v -0.3100 0.3000 0.5369
v -0.5826 0.3000 0.2121
v -0.5826 0.3000 -0.2121
v -0.3100 0.3000 -0.5369
v 0.1077 0.3000 -0.6106
v 0.4749 0.3000 -0.3985
v 0.6200 0.8500 0.0000
v 0.4749 0.8500 0.3985
v 0.1077 0.8500 0.6106
v -0.3100 0.8500 0.5369
v -0.5826 0.8500 0.2121
v -0.5826 0.8500 -0.2121
v -0.3100 0.8500 -0.5369
v 0.1077 0.8500 -0.6106
v 0.4749 0.8500 -0.3985
v 0.0000 0.3200 0.6300
v 0.0000 0.3200 0.6300
v 0.0000 0.3200 0.6300
v 0.0000 0.3200 0.6300
v 0.0000 0.3200 0.6300
v 0.0000 0.3200 0.6300
v 0.1697 0.3962 0.6300
v 0.0849 0.3962 0.6545
v -0.0849 0.3962 0.6545
v -0.1697 0.3962 0.6300
v -0.0849 0.3962 0.6055
v 0.0849 0.3962 0.6055
v 0.2400 0.5800 0.6300
v 0.1200 0.5800 0.6646
v -0.1200 0.5800 0.6646
v -0.2400 0.5800 0.6300
v -0.1200 0.5800 0.5954
v 0.1200 0.5800 0.5954
v 0.1697 0.7638 0.6300
v 0.0849 0.7638 0.6545
v -0.0849 0.7638 0.6545
v -0.1697 0.7638 0.6300
v -0.0849 0.7638 0.6055
v 0.0849 0.7638 0.6055
v 0.0000 0.8400 0.6300
v 0.0000 0.8400 0.6300
v -0.0000 0.8400 0.6300
v -0.0000 0.8400 0.6300
v -0.0000 0.8400 0.6300
v 0.0000 0.8400 0.6300
vn 0.0000 1.0000 0.0000
vn 0.0000 1.0000 0.0000
vn 0.0000 1.0000 -0.0000
vn 0.0000 1.0000 0.0000
vn 0.0000 1.0000 0.0000
vn 0.0000 1.0000 0.0000
vn 0.0000 1.0000 0.0000
vn 0.0000 1.0000 0.0000
vn -0.0000 1.0000 0.0000
vn -0.8505 0.4252 -0.3096
vn -0.8505 0.4252 -0.3096
vn -0.4525 0.4252 -0.7838
vn -0.4525 0.4252 -0.7838
vn 0.1572 0.4252 -0.8913
vn 0.1572 0.4252 -0.8913
vn 0.6933 0.4252 -0.5818
vn 0.6933 0.4252 -0.5818
vn 0.9051 0.4252 -0.0000
vn 0.9051 0.4252 0.0000
vn 0.6933 0.4252 0.5818
vn 0.6933 0.4252 0.5818
vn 0.1572 0.4252 0.8913
vn 0.1572 0.4252 0.8913
vn -0.4525 0.4252 0.7838
vn -0.4525 0.4252 0.7838
vn -0.8505 0.4252 0.3096
vn -0.8505 0.4252 0.3096
vn -0.9397 0.0000 -0.3420
vn -0.9397 0.0000 -0.3420
vn -0.5000 0.0000 -0.8660
vn -0.5000 0.0000 -0.8660
vn 0.1736 0.0000 -0.9848
vn 0.1736 0.0000 -0.9848
vn 0.7660 0.0000 -0.6428
vn 0.7660 0.0000 -0.6428
vn 1.0000 0.0000 0.0000
vn 1.0000 -0.0000 0.0000
vn 0.7660 0.0000 0.6428
vn 0.7660 -0.0000 0.6428
vn 0.1736 0.0000 0.9848
vn 0.1736 -0.0000 0.9848
vn -0.5000 0.0000 0.8660
vn -0.5000 0.0000 0.8660
vn -0.9397 0.0000 0.3420
vn -0.9397 0.0000 0.3420
vn -0.8461 -0.4351 -0.3079
vn -0.8461 -0.4351 -0.3079
vn -0.4502 -0.4351 -0.7797
vn -0.4502 -0.4351 -0.7797
vn 0.1563 -0.4351 -0.8867
vn 0.1563 -0.4351 -0.8867
vn 0.6897 -0.4351 -0.5787
vn 0.6897 -0.4351 -0.5787
vn 0.9004 -0.4351 0.0000
vn 0.9004 -0.4351 -0.0000
vn 0.6897 -0.4351 0.5787
vn 0.6897 -0.4351 0.5787
vn 0.1563 -0.4351 0.8867
vn 0.1563 -0.4351 0.8867
vn -0.4502 -0.4351 0.7797
vn -0.4502 -0.4351 0.7797
vn -0.8461 -0.4351 0.3079
vn -0.8461 -0.4351 0.3079
vn -0.7511 -0.6009 -0.2734
vn -0.7511 -0.6009 -0.2734
vn -0.3997 -0.6009 -0.6922
vn -0.3997 -0.6009 -0.6922
vn 0.1388 -0.6009 -0.7872
vn 0.1388 -0.6009 -0.7872
vn 0.6123 -0.6009 -0.5138
vn 0.6123 -0.6009 -0.5138
vn 0.7993 -0.6009 -0.0000
vn 0.7993 -0.6009 0.0000
vn 0.6123 -0.6009 0.5138
vn 0.6123 -0.6009 0.5138
vn 0.1388 -0.6009 0.7872
vn 0.1388 -0.6009 0.7872
vn -0.3997 -0.6009 0.6922
vn -0.3997 -0.6009 0.6922
vn -0.7511 -0.6009 0.2734
vn -0.7511 -0.6009 0.2734
vn 0.0000 -1.0000 0.0000
vn 0.0000 -1.0000 0.0000
vn 0.0000 -1.0000 0.0000
vn 0.0000 -1.0000 0.0000
vn -0.0000 -1.0000 0.0000
vn 0.0000 -1.0000 0.0000
vn 0.0000 -1.0000 -0.0000
vn 0.0000 -1.0000 0.0000
vn 0.0000 -1.0000 0.0000
vn -0.8186 -0.4911 -0.2979
vn -0.4355 -0.4911 -0.7544
vn 0.1513 -0.4911 -0.8579
vn 0.6673 -0.4911 -0.5599
vn 0.8711 -0.4911 0.0000
vn 0.6673 -0.4911 0.5599
vn 0.1513 -0.4911 0.8579
vn -0.4355 -0.4911 0.7544
vn -0.8186 -0.4911 0.2979
vn 0.0000 -1.0000 0.0000
vn 0.0000 -1.0000 0.0000
vn 0.0000 -1.0000 0.0000
vn 0.0000 -1.0000 0.0000
vn -0.0000 -1.0000 0.0000
vn 0.0000 -1.0000 0.0000
vn 0.0000 -1.0000 -0.0000
vn 0.0000 -1.0000 0.0000
vn 0.0000 -1.0000 0.0000
vn -0.9397 0.0000 -0.3420
vn -0.9397 0.0000 -0.3420
vn -0.5000 0.0000 -0.8660
vn -0.5000 0.0000 -0.8660
vn 0.1736 0.0000 -0.9848
vn 0.1736 0.0000 -0.9848
vn 0.7660 0.0000 -0.6428
vn 0.7660 0.0000 -0.6428
vn 1.0000 0.0000 0.0000
vn 1.0000 -0.0000 0.0000
vn 0.7660 0.0000 0.6428
vn 0.7660 -0.0000 0.6428
vn 0.1736 0.0000 0.9848
vn 0.1736 -0.0000 0.9848
vn -0.5000 0.0000 0.8660
vn -0.5000 0.0000 0.8660
vn -0.9397 0.0000 0.3420
vn -0.9397 0.0000 0.3420
vn -0.2359 0.5258 -0.8173
vn 0.0000 0.3062 -0.9520
vn 0.2359 0.5258 -0.8173
vn 0.2359 0.5258 0.8173
vn 0.0000 0.3062 0.9520
vn -0.2359 0.5258 0.8173
vn -0.2758 0.1055 -0.9554
vn -0.2758 0.1055 -0.9554
vn 0.0000 0.0551 -0.9985
vn 0.0000 0.0551 -0.9985
vn 0.2758 0.1055 -0.9554
vn 0.2758 0.1055 -0.9554
vn 0.2758 0.1055 0.9554
vn 0.2758 0.1055 0.9554
vn -0.0000 0.0551 0.9985
vn 0.0000 0.0551 0.9985
vn -0.2758 0.1055 0.9554
vn -0.2758 0.1055 0.9554
vn -0.2758 -0.1055 -0.9554
vn -0.2758 -0.1055 -0.9554
vn -0.0000 -0.0551 -0.9985
vn 0.0000 -0.0551 -0.9985
vn 0.2758 -0.1055 -0.9554
vn 0.2758 -0.1055 -0.9554
vn 0.2758 -0.1055 0.9554
vn 0.2758 -0.1055 0.9554
vn 0.0000 -0.0551 0.9985
vn 0.0000 -0.0551 0.9985
vn -0.2758 -0.1055 0.9554
vn -0.2758 -0.1055 0.9554
vn -0.2359 -0.5258 -0.8173
vn -0.0000 -0.3062 -0.9520
vn 0.2359 -0.5258 -0.8173
vn 0.2359 -0.5258 0.8173
vn 0.0000 -0.3062 0.9520
vn -0.2359 -0.5258 0.8173
usemtl c0
f 1//1 11//1 10//1
f 2//2 12//2 11//2
f 3//3 13//3 12//3
f 4//4 14//4 13//4
f 5//5 15//5 14//5
f 6//6 16//6 15//6
f 7//7 17//7 16//7
f 8//8 18//8 17//8
f 9//9 10//9 18//9
f 10//10 11//10 20//10
f 10//11 20//11 19//11
f 11//12 12//12 21//12
f 11//13 21//13 20//13
f 12//14 13//14 22//14
f 12//15 22//15 21//15
f 13//16 14//16 23//16
f 13//17 23//17 22//17
f 14//18 15//18 24//18
f 14//19 24//19 23//19
f 15//20 16//20 25//20
f 15//21 25//21 24//21
f 16//22 17//22 26//22
f 16//23 26//23 25//23
f 17//24 18//24 27//24
f 17//25 27//25 26//25
f 18//26 10//26 19//26
f 18//27 19//27 27//27
f 19//28 20//28 29//28
f 19//29 29//29 28//29
f 20//30 21//30 30//30
f 20//31 30//31 29//31
f 21//32 22//32 31//32
f 21//33 31//33 30//33
f 22//34 23//34 32//34
f 22//35 32//35 31//35
f 23//36 24//36 33//36
f 23//37 33//37 32//37
f 24//38 25//38 34//38
f 24//39 34//39 33//39
f 25//40 26//40 35//40
f 25//41 35//41 34//41
f 26//42 27//42 36//42
f 26//43 36//43 35//43
f 27//44 19//44 28//44
f 27//45 28//45 36//45
f 28//46 29//46 38//46
f 28//47 38//47 37//47
f 29//48 30//48 39//48
f 29//49 39//49 38//49
f 30//50 31//50 40//50
f 30//51 40//51 39//51
f 31//52 32//52 41//52
f 31//53 41//53 40//53
f 32//54 33//54 42//54
f 32//55 42//55 41//55
f 33//56 34//56 43//56
f 33//57 43//57 42//57
f 34//58 35//58 44//58
f 34//59 44//59 43//59
f 35//60 36//60 45//60
f 35//61 45//61 44//61
f 36//62 28//62 37//62
f 36//63 37//63 45//63
f 37//64 38//64 47//64
f 37//65 47//65 46//65
f 38//66 39//66 48//66
f 38//67 48//67 47//67
f 39//68 40//68 49//68
f 39//69 49//69 48//69
f 40//70 41//70 50//70
f 40//71 50//71 49//71
f 41//72 42//72 51//72
f 41//73 51//73 50//73
f 42//74 43//74 52//74
f 42//75 52//75 51//75
f 43//76 44//76 53//76
f 43//77 53//77 52//77
f 44//78 45//78 54//78
f 44//79 54//79 53//79
f 45//80 37//80 46//80
f 45//81 46//81 54//81
f 55//82 46//82 47//82
f 55//83 47//83 48//83
f 55//84 48//84 49//84
f 55//85 49//85 50//85
f 55//86 50//86 51//86
f 55//87 51//87 52//87
f 55//88 52//88 53//88
f 55//89 53//89 54//89
f 55//90 54//90 46//90
usemtl c1
f 56//91 57//91 66//91
f 57//92 58//92 67//92
f 58//93 59//93 68//93
f 59//94 60//94 69//94
f 60//95 61//95 70//95
f 61//96 62//96 71//96
f 62//97 63//97 72//97
f 63//98 64//98 73//98
f 64//99 56//99 65//99
f 74//100 56//100 57//100
f 74//101 57//101 58//101
f 74//102 58//102 59//102
f 74//103 59//103 60//103
f 74//104 60//104 61//104
f 74//105 61//105 62//105
f 74//106 62//106 63//106
f 74//107 63//107 64//107
f 74//108 64//108 56//108
usemtl c2
f 75//109 76//109 85//109
f 75//110 85//110 84//110
f 76//111 77//111 86//111
f 76//112 86//112 85//112
f 77//113 78//113 87//113
f 77//114 87//114 86//114
f 78//115 79//115 88//115
f 78//116 88//116 87//116
f 79//117 80//117 89//117
f 79//118 89//118 88//118
f 80//119 81//119 90//119
f 80//120 90//120 89//120
f 81//121 82//121 91//121
f 81//122 91//122 90//122
f 82//123 83//123 92//123
f 82//124 92//124 91//124
f 83//125 75//125 84//125
f 83//126 84//126 92//126
usemtl c0
f 93//127 100//127 99//127
f 94//128 101//128 100//128
f 95//129 102//129 101//129
f 96//130 103//130 102//130
f 97//131 104//131 103//131
f 98//132 99//132 104//132
f 99//133 100//133 106//133
f 99//134 106//134 105//134
f 100//135 101//135 107//135
f 100//136 107//136 106//136
f 101//137 102//137 108//137
f 101//138 108//138 107//138
f 102//139 103//139 109//139
f 102//140 109//140 108//140
f 103//141 104//141 110//141
f 103//142 110//142 109//142
f 104//143 99//143 105//143
f 104//144 105//144 110//144
f 105//145 106//145 112//145
f 105//146 112//146 111//146
f 106//147 107//147 113//147
f 106//148 113//148 112//148
f 107//149 108//149 114//149
f 107//150 114//150 113//150
f 108//151 109//151 115//151
f 108//152 115//152 114//152
f 109//153 110//153 116//153
f 109//154 116//154 115//154
f 110//155 105//155 111//155
f 110//156 111//156 116//156
f 111//157 112//157 118//157
f 112//158 113//158 119//158
f 113//159 114//159 120//159
f 114//160 115//160 121//160
f 115//161 116//161 122//161
f 116//162 111//162 117//162
