mtllib Food_FriedEgg.mtl
v 1.0800 0.0000 0.0000
v 0.9608 0.0000 0.3980
v 0.7071 0.0000 0.7071
v 0.3674 0.0000 0.8869
v 0.0000 0.0000 0.9200
v -0.3368 0.0000 0.8130
v -0.5940 0.0000 0.5940
v -1.0717 0.0000 0.4439
v -1.1200 0.0000 0.0000
v -0.9978 0.0000 -0.4133
v -0.7354 0.0000 -0.7354
v -0.3827 0.0000 -0.9239
v -0.0000 0.0000 -0.9600
v 0.3521 0.0000 -0.8500
v 0.6223 0.0000 -0.6223
v 0.7761 0.0000 -0.3215
v 1.0800 0.1000 0.0000
v 0.9608 0.1000 0.3980
v 0.7071 0.1000 0.7071
v 0.3674 0.1000 0.8869
v 0.0000 0.1000 0.9200
v -0.3368 0.1000 0.8130
v -0.5940 0.1000 0.5940
v -1.0717 0.1000 0.4439
v -1.1200 0.1000 0.0000
v -0.9978 0.1000 -0.4133
v -0.7354 0.1000 -0.7354
v -0.3827 0.1000 -0.9239
v -0.0000 0.1000 -0.9600
v 0.3521 0.1000 -0.8500
v 0.6223 0.1000 -0.6223
v 0.7761 0.1000 -0.3215
v -0.0233 0.0000 -0.0040
v -0.0233 0.1000 -0.0040
v -0.1000 -0.2200 0.0000
v -0.1000 -0.2200 0.0000
v -0.1000 -0.2200 0.0000
v -0.1000 -0.2200 0.0000
v -0.1000 -0.2200 0.0000
v -0.1000 -0.2200 0.0000
v -0.1000 -0.2200 0.0000
v -0.1000 -0.2200 0.0000
v 0.2111 -0.1263 0.0000
v 0.1200 -0.1263 0.2200
v -0.1000 -0.1263 0.3111
v -0.3200 -0.1263 0.2200
v -0.4111 -0.1263 0.0000
v -0.3200 -0.1263 -0.2200
v -0.1000 -0.1263 -0.3111
v 0.1200 -0.1263 -0.2200
v 0.3400 0.1000 0.0000
v 0.2111 0.1000 0.3111
v -0.1000 0.1000 0.4400
v -0.4111 0.1000 0.3111
v -0.5400 0.1000 0.0000
v -0.4111 0.1000 -0.3111
v -0.1000 0.1000 -0.4400
v 0.2111 0.1000 -0.3111
v 0.2111 0.3263 0.0000
v 0.1200 0.3263 0.2200
v -0.1000 0.3263 0.3111
v -0.3200 0.3263 0.2200
v -0.4111 0.3263 0.0000
v -0.3200 0.3263 -0.2200
v -0.1000 0.3263 -0.3111
v 0.1200 0.3263 -0.2200
v -0.1000 0.4200 0.0000
v -0.1000 0.4200 0.0000
v -0.1000 0.4200 0.0000
v -0.1000 0.4200 0.0000
v -0.1000 0.4200 0.0000
v -0.1000 0.4200 -0.0000
v -0.1000 0.4200 -0.0000
v -0.1000 0.4200 -0.0000
vn -0.9580 0.0000 -0.2868
vn -0.9580 0.0000 -0.2868
vn 0.0000 1.0000 0.0000
vn 0.0000 -1.0000 0.0000
vn -0.7730 0.0000 -0.6345
vn -0.7730 0.0000 -0.6345
vn 0.0000 1.0000 0.0000
vn 0.0000 -1.0000 0.0000
vn -0.4678 0.0000 -0.8838
vn -0.4678 0.0000 -0.8838
vn 0.0000 1.0000 0.0000
vn 0.0000 -1.0000 0.0000
vn -0.0897 0.0000 -0.9960
vn -0.0897 0.0000 -0.9960
vn 0.0000 1.0000 0.0000
vn 0.0000 -1.0000 0.0000
vn 0.3028 0.0000 -0.9531
vn 0.3028 0.0000 -0.9531
vn 0.0000 1.0000 -0.0000
vn 0.0000 -1.0000 0.0000
vn 0.6484 0.0000 -0.7613
vn 0.6484 0.0000 -0.7613
vn 0.0000 1.0000 0.0000
vn 0.0000 -1.0000 0.0000
vn 0.2997 0.0000 -0.9540
vn 0.2997 0.0000 -0.9540
vn 0.0000 1.0000 0.0000
vn 0.0000 -1.0000 0.0000
vn 0.9941 0.0000 -0.1082
vn 0.9941 0.0000 -0.1082
vn 0.0000 1.0000 0.0000
vn 0.0000 -1.0000 0.0000
vn 0.9590 0.0000 0.2836
vn 0.9590 -0.0000 0.2836
vn 0.0000 1.0000 0.0000
vn -0.0000 -1.0000 0.0000
vn 0.7753 0.0000 0.6316
vn 0.7753 -0.0000 0.6316
vn 0.0000 1.0000 0.0000
vn 0.0000 -1.0000 0.0000
vn 0.4713 0.0000 0.8820
vn 0.4713 -0.0000 0.8820
vn 0.0000 1.0000 0.0000
vn 0.0000 -1.0000 0.0000
vn 0.0940 0.0000 0.9956
vn 0.0940 -0.0000 0.9956
vn 0.0000 1.0000 0.0000
vn 0.0000 -1.0000 -0.0000
vn -0.2983 0.0000 0.9545
vn -0.2983 0.0000 0.9545
vn 0.0000 1.0000 0.0000
vn 0.0000 -1.0000 0.0000
vn -0.6445 0.0000 0.7646
vn -0.6445 0.0000 0.7646
vn 0.0000 1.0000 0.0000
vn 0.0000 -1.0000 0.0000
vn -0.8904 0.0000 0.4553
vn -0.8904 0.0000 0.4553
vn 0.0000 1.0000 0.0000
vn 0.0000 -1.0000 0.0000
vn -0.7266 0.0000 0.6870
vn -0.7266 0.0000 0.6870
vn -0.0000 1.0000 0.0000
vn 0.0000 -1.0000 0.0000
vn -0.2864 0.9507 -0.1186
vn -0.1186 0.9507 -0.2864
vn 0.1186 0.9507 -0.2864
vn 0.2864 0.9507 -0.1186
vn 0.2864 0.9507 0.1186
vn 0.1186 0.9507 0.2864
vn -0.1186 0.9507 0.2864
vn -0.2864 0.9507 0.1186
vn -0.8176 0.4657 -0.3387
vn -0.8176 0.4657 -0.3387
vn -0.3387 0.4657 -0.8176
vn -0.3387 0.4657 -0.8176
vn 0.3387 0.4657 -0.8176
vn 0.3387 0.4657 -0.8176
vn 0.8176 0.4657 -0.3387
vn 0.8176 0.4657 -0.3387
vn 0.8176 0.4657 0.3387
vn 0.8176 0.4657 0.3387
vn 0.3387 0.4657 0.8176
vn 0.3387 0.4657 0.8176
vn -0.3387 0.4657 0.8176
vn -0.3387 0.4657 0.8176
vn -0.8176 0.4657 0.3387
vn -0.8176 0.4657 0.3387
vn -0.8176 -0.4657 -0.3387
vn -0.8176 -0.4657 -0.3387
vn -0.3387 -0.4657 -0.8176
vn -0.3387 -0.4657 -0.8176
vn 0.3387 -0.4657 -0.8176
vn 0.3387 -0.4657 -0.8176
vn 0.8176 -0.4657 -0.3387
vn 0.8176 -0.4657 -0.3387
vn 0.8176 -0.4657 0.3387
vn 0.8176 -0.4657 0.3387
vn 0.3387 -0.4657 0.8176
vn 0.3387 -0.4657 0.8176
vn -0.3387 -0.4657 0.8176
vn -0.3387 -0.4657 0.8176
vn -0.8176 -0.4657 0.3387
vn -0.8176 -0.4657 0.3387
vn -0.2864 -0.9507 -0.1186
vn -0.1186 -0.9507 -0.2864
vn 0.1186 -0.9507 -0.2864
vn 0.2864 -0.9507 -0.1186
vn 0.2864 -0.9507 0.1186
vn 0.1186 -0.9507 0.2864
vn -0.1186 -0.9507 0.2864
vn -0.2864 -0.9507 0.1186
usemtl c0
f 1//1 2//1 18//1
f 1//2 18//2 17//2
f 33//3 2//3 1//3
f 34//4 17//4 18//4
f 2//5 3//5 19//5
f 2//6 19//6 18//6
f 33//7 3//7 2//7
f 34//8 18//8 19//8
f 3//9 4//9 20//9
f 3//10 20//10 19//10
f 33//11 4//11 3//11
f 34//12 19//12 20//12
f 4//13 5//13 21//13
f 4//14 21//14 20//14
f 33//15 5//15 4//15
f 34//16 20//16 21//16
f 5//17 6//17 22//17
f 5//18 22//18 21//18
f 33//19 6//19 5//19
f 34//20 21//20 22//20
f 6//21 7//21 23//21
f 6//22 23//22 22//22
f 33//23 7//23 6//23
f 34//24 22//24 23//24
f 7//25 8//25 24//25
f 7//26 24//26 23//26
f 33//27 8//27 7//27
f 34//28 23//28 24//28
f 8//29 9//29 25//29
f 8//30 25//30 24//30
f 33//31 9//31 8//31
f 34//32 24//32 25//32
f 9//33 10//33 26//33
f 9//34 26//34 25//34
f 33//35 10//35 9//35
f 34//36 25//36 26//36
f 10//37 11//37 27//37
f 10//38 27//38 26//38
f 33//39 11//39 10//39
f 34//40 26//40 27//40
f 11//41 12//41 28//41
f 11//42 28//42 27//42
f 33//43 12//43 11//43
f 34//44 27//44 28//44
f 12//45 13//45 29//45
f 12//46 29//46 28//46
f 33//47 13//47 12//47
f 34//48 28//48 29//48
f 13//49 14//49 30//49
f 13//50 30//50 29//50
f 33//51 14//51 13//51
f 34//52 29//52 30//52
f 14//53 15//53 31//53
f 14//54 31//54 30//54
f 33//55 15//55 14//55
f 34//56 30//56 31//56
f 15//57 16//57 32//57
f 15//58 32//58 31//58
f 33//59 16//59 15//59
f 34//60 31//60 32//60
f 16//61 1//61 17//61
f 16//62 17//62 32//62
f 33//63 1//63 16//63
f 34//64 32//64 17//64
usemtl c1
f 35//65 44//65 43//65
f 36//66 45//66 44//66
f 37//67 46//67 45//67
f 38//68 47//68 46//68
f 39//69 48//69 47//69
f 40//70 49//70 48//70
f 41//71 50//71 49//71
f 42//72 43//72 50//72
f 43//73 44//73 52//73
f 43//74 52//74 51//74
f 44//75 45//75 53//75
f 44//76 53//76 52//76
f 45//77 46//77 54//77
f 45//78 54//78 53//78
f 46//79 47//79 55//79
f 46//80 55//80 54//80
f 47//81 48//81 56//81
f 47//82 56//82 55//82
f 48//83 49//83 57//83
f 48//84 57//84 56//84
f 49//85 50//85 58//85
f 49//86 58//86 57//86
f 50//87 43//87 51//87
f 50//88 51//88 58//88
f 51//89 52//89 60//89
f 51//90 60//90 59//90
f 52//91 53//91 61//91
f 52//92 61//92 60//92
f 53//93 54//93 62//93
f 53//94 62//94 61//94
f 54//95 55//95 63//95
f 54//96 63//96 62//96
f 55//97 56//97 64//97
f 55//98 64//98 63//98
f 56//99 57//99 65//99
f 56//100 65//100 64//100
f 57//101 58//101 66//101
f 57//102 66//102 65//102
f 58//103 51//103 59//103
f 58//104 59//104 66//104
f 59//105 60//105 68//105
f 60//106 61//106 69//106
f 61//107 62//107 70//107
f 62//108 63//108 71//108
f 63//109 64//109 72//109
f 64//110 65//110 73//110
f 65//111 66//111 74//111
f 66//112 59//112 67//112
