mtllib Food_Watermelon.mtl
v -1.0000 1.0000 -0.1500
v -0.9397 0.6580 -0.1500
v -0.7660 0.3572 -0.1500
v -0.5000 0.1340 -0.1500
v -0.1736 0.0152 -0.1500
v 0.1736 0.0152 -0.1500
v 0.5000 0.1340 -0.1500
v 0.7660 0.3572 -0.1500
v 0.9397 0.6580 -0.1500
v 1.0000 1.0000 -0.1500
v -1.0000 1.0000 0.1500
v -0.9397 0.6580 0.1500
v -0.7660 0.3572 0.1500
v -0.5000 0.1340 0.1500
v -0.1736 0.0152 0.1500
v 0.1736 0.0152 0.1500
v 0.5000 0.1340 0.1500
v 0.7660 0.3572 0.1500
v 0.9397 0.6580 0.1500
v 1.0000 1.0000 0.1500
v -0.0000 0.4329 -0.1500
v -0.0000 0.4329 0.1500
v -0.9200 1.0000 -0.1600
v -0.8645 0.6853 -0.1600
v -0.7048 0.4086 -0.1600
v -0.4600 0.2033 -0.1600
v -0.1598 0.0940 -0.1600
v 0.1598 0.0940 -0.1600
v 0.4600 0.2033 -0.1600
v 0.7048 0.4086 -0.1600
v 0.8645 0.6853 -0.1600
v 0.9200 1.0000 -0.1600
v -0.9200 1.0000 0.1600
v -0.8645 0.6853 0.1600
v -0.7048 0.4086 0.1600
v -0.4600 0.2033 0.1600
v -0.1598 0.0940 0.1600
v 0.1598 0.0940 0.1600
v 0.4600 0.2033 0.1600
v 0.7048 0.4086 0.1600
v 0.8645 0.6853 0.1600
v 0.9200 1.0000 0.1600
v -0.0000 0.4782 -0.1600
v -0.0000 0.4782 0.1600
v -0.8500 1.0000 -0.1700
v -0.7987 0.7093 -0.1700
v -0.6511 0.4536 -0.1700
v -0.4250 0.2639 -0.1700
v -0.1476 0.1629 -0.1700
v 0.1476 0.1629 -0.1700
v 0.4250 0.2639 -0.1700
v 0.6511 0.4536 -0.1700
v 0.7987 0.7093 -0.1700
v 0.8500 1.0000 -0.1700
v -0.8500 1.0000 0.1700
v -0.7987 0.7093 0.1700
v -0.6511 0.4536 0.1700
v -0.4250 0.2639 0.1700
v -0.1476 0.1629 0.1700
v 0.1476 0.1629 0.1700
v 0.4250 0.2639 0.1700
v 0.6511 0.4536 0.1700
v 0.7987 0.7093 0.1700
v 0.8500 1.0000 0.1700
v -0.0000 0.5179 -0.1700
v -0.0000 0.5179 0.1700
v -0.4000 0.6600 0.1800
v -0.4000 0.6600 0.1800
v -0.4000 0.6600 0.1800
v -0.4000 0.6600 0.1800
v -0.4000 0.6600 0.1800
v -0.3567 0.7050 0.1800
v -0.3866 0.7050 0.2047
v -0.4350 0.7050 0.1953
v -0.4350 0.7050 0.1647
v -0.3866 0.7050 0.1553
v -0.3567 0.7950 0.1800
v -0.3866 0.7950 0.2047
v -0.4350 0.7950 0.1953
v -0.4350 0.7950 0.1647
v -0.3866 0.7950 0.1553
v -0.4000 0.8400 0.1800
v -0.4000 0.8400 0.1800
v -0.4000 0.8400 0.1800
v -0.4000 0.8400 0.1800
v -0.4000 0.8400 0.1800
v 0.0000 0.5100 0.1800
v 0.0000 0.5100 0.1800
v 0.0000 0.5100 0.1800
v 0.0000 0.5100 0.1800
v 0.0000 0.5100 0.1800
v 0.0433 0.5550 0.1800
v 0.0134 0.5550 0.2047
v -0.0350 0.5550 0.1953
v -0.0350 0.5550 0.1647
v 0.0134 0.5550 0.1553
v 0.0433 0.6450 0.1800
v 0.0134 0.6450 0.2047
v -0.0350 0.6450 0.1953
v -0.0350 0.6450 0.1647
v 0.0134 0.6450 0.1553
v 0.0000 0.6900 0.1800
v 0.0000 0.6900 0.1800
v -0.0000 0.6900 0.1800
v -0.0000 0.6900 0.1800
v 0.0000 0.6900 0.1800
v 0.4000 0.6600 0.1800
v 0.4000 0.6600 0.1800
v 0.4000 0.6600 0.1800
v 0.4000 0.6600 0.1800
v 0.4000 0.6600 0.1800
v 0.4433 0.7050 0.1800
v 0.4134 0.7050 0.2047
v 0.3650 0.7050 0.1953
v 0.3650 0.7050 0.1647
v 0.4134 0.7050 0.1553
v 0.4433 0.7950 0.1800
v 0.4134 0.7950 0.2047
v 0.3650 0.7950 0.1953
v 0.3650 0.7950 0.1647
v 0.4134 0.7950 0.1553
v 0.4000 0.8400 0.1800
v 0.4000 0.8400 0.1800
v 0.4000 0.8400 0.1800
v 0.4000 0.8400 0.1800
v 0.4000 0.8400 0.1800
v -0.2000 0.2600 0.1800
v -0.2000 0.2600 0.1800
v -0.2000 0.2600 0.1800
v -0.2000 0.2600 0.1800
v -0.2000 0.2600 0.1800
v -0.1567 0.3050 0.1800
v -0.1866 0.3050 0.2047
v -0.2350 0.3050 0.1953
v -0.2350 0.3050 0.1647
v -0.1866 0.3050 0.1553
v -0.1567 0.3950 0.1800
v -0.1866 0.3950 0.2047
v -0.2350 0.3950 0.1953
v -0.2350 0.3950 0.1647
v -0.1866 0.3950 0.1553
v -0.2000 0.4400 0.1800
v -0.2000 0.4400 0.1800
v -0.2000 0.4400 0.1800
v -0.2000 0.4400 0.1800
v -0.2000 0.4400 0.1800
v 0.2500 0.3100 0.1800
v 0.2500 0.3100 0.1800
v 0.2500 0.3100 0.1800
v 0.2500 0.3100 0.1800
v 0.2500 0.3100 0.1800
v 0.2933 0.3550 0.1800
v 0.2634 0.3550 0.2047
v 0.2150 0.3550 0.1953
v 0.2150 0.3550 0.1647
v 0.2634 0.3550 0.1553
v 0.2933 0.4450 0.1800
v 0.2634 0.4450 0.2047
v 0.2150 0.4450 0.1953
v 0.2150 0.4450 0.1647
v 0.2634 0.4450 0.1553
v 0.2500 0.4900 0.1800
v 0.2500 0.4900 0.1800
v 0.2500 0.4900 0.1800
v 0.2500 0.4900 0.1800
v 0.2500 0.4900 0.1800
vn -0.9848 -0.1736 0.0000
vn -0.9848 -0.1736 0.0000
vn 0.0000 0.0000 -1.0000
vn 0.0000 0.0000 1.0000
vn -0.8660 -0.5000 0.0000
vn -0.8660 -0.5000 0.0000
vn -0.0000 0.0000 -1.0000
vn 0.0000 0.0000 1.0000
vn -0.6428 -0.7660 0.0000
vn -0.6428 -0.7660 0.0000
vn 0.0000 0.0000 -1.0000
vn 0.0000 0.0000 1.0000
vn -0.3420 -0.9397 0.0000
vn -0.3420 -0.9397 0.0000
vn 0.0000 0.0000 -1.0000
vn 0.0000 0.0000 1.0000
vn -0.0000 -1.0000 0.0000
vn -0.0000 -1.0000 0.0000
vn 0.0000 -0.0000 -1.0000
vn 0.0000 0.0000 1.0000
vn 0.3420 -0.9397 0.0000
vn 0.3420 -0.9397 0.0000
vn 0.0000 0.0000 -1.0000
vn 0.0000 0.0000 1.0000
vn 0.6428 -0.7660 0.0000
vn 0.6428 -0.7660 0.0000
vn 0.0000 0.0000 -1.0000
vn 0.0000 0.0000 1.0000
vn 0.8660 -0.5000 0.0000
vn 0.8660 -0.5000 0.0000
vn 0.0000 0.0000 -1.0000
vn -0.0000 0.0000 1.0000
vn 0.9848 -0.1736 0.0000
vn 0.9848 -0.1736 0.0000
vn 0.0000 0.0000 -1.0000
vn 0.0000 0.0000 1.0000
vn 0.0000 1.0000 0.0000
vn 0.0000 1.0000 -0.0000
vn 0.0000 0.0000 -1.0000
vn 0.0000 -0.0000 1.0000
vn -0.9848 -0.1736 0.0000
vn -0.9848 -0.1736 0.0000
vn 0.0000 0.0000 -1.0000
vn 0.0000 0.0000 1.0000
vn -0.8660 -0.5000 0.0000
vn -0.8660 -0.5000 0.0000
vn -0.0000 0.0000 -1.0000
vn 0.0000 0.0000 1.0000
vn -0.6428 -0.7660 0.0000
vn -0.6428 -0.7660 0.0000
vn 0.0000 0.0000 -1.0000
vn 0.0000 0.0000 1.0000
vn -0.3420 -0.9397 0.0000
vn -0.3420 -0.9397 0.0000
vn 0.0000 0.0000 -1.0000
vn 0.0000 0.0000 1.0000
vn -0.0000 -1.0000 0.0000
vn -0.0000 -1.0000 0.0000
vn 0.0000 -0.0000 -1.0000
vn 0.0000 0.0000 1.0000
vn 0.3420 -0.9397 0.0000
vn 0.3420 -0.9397 0.0000
vn 0.0000 0.0000 -1.0000
vn 0.0000 0.0000 1.0000
vn 0.6428 -0.7660 0.0000
vn 0.6428 -0.7660 0.0000
vn 0.0000 0.0000 -1.0000
vn 0.0000 0.0000 1.0000
vn 0.8660 -0.5000 0.0000
vn 0.8660 -0.5000 0.0000
vn 0.0000 0.0000 -1.0000
vn -0.0000 0.0000 1.0000
vn 0.9848 -0.1736 0.0000
vn 0.9848 -0.1736 0.0000
vn 0.0000 0.0000 -1.0000
vn 0.0000 0.0000 1.0000
vn 0.0000 1.0000 0.0000
vn 0.0000 1.0000 -0.0000
vn 0.0000 0.0000 -1.0000
vn 0.0000 -0.0000 1.0000
vn -0.9848 -0.1736 0.0000
vn -0.9848 -0.1736 0.0000
vn 0.0000 0.0000 -1.0000
vn 0.0000 0.0000 1.0000
vn -0.8660 -0.5000 0.0000
vn -0.8660 -0.5000 0.0000
vn -0.0000 0.0000 -1.0000
vn 0.0000 0.0000 1.0000
vn -0.6428 -0.7660 0.0000
vn -0.6428 -0.7660 0.0000
vn 0.0000 0.0000 -1.0000
vn 0.0000 0.0000 1.0000
vn -0.3420 -0.9397 0.0000
vn -0.3420 -0.9397 0.0000
vn 0.0000 0.0000 -1.0000
vn 0.0000 0.0000 1.0000
vn -0.0000 -1.0000 0.0000
vn -0.0000 -1.0000 0.0000
vn 0.0000 -0.0000 -1.0000
vn 0.0000 0.0000 1.0000
vn 0.3420 -0.9397 0.0000
vn 0.3420 -0.9397 0.0000
vn 0.0000 0.0000 -1.0000
vn 0.0000 0.0000 1.0000
vn 0.6428 -0.7660 0.0000
vn 0.6428 -0.7660 0.0000
vn 0.0000 0.0000 -1.0000
vn 0.0000 0.0000 1.0000
vn 0.8660 -0.5000 0.0000
vn 0.8660 -0.5000 0.0000
vn 0.0000 0.0000 -1.0000
vn -0.0000 0.0000 1.0000
vn 0.9848 -0.1736 0.0000
vn 0.9848 -0.1736 0.0000
vn 0.0000 0.0000 -1.0000
vn 0.0000 0.0000 1.0000
vn 0.0000 1.0000 0.0000
vn 0.0000 1.0000 -0.0000
vn 0.0000 0.0000 -1.0000
vn 0.0000 -0.0000 1.0000
vn -0.5429 0.5225 -0.6575
vn 0.1724 0.4342 -0.8842
vn 0.7891 0.6143 -0.0000
vn 0.1724 0.4342 0.8842
vn -0.5429 0.5225 0.6575
vn -0.6368 0.0000 -0.7711
vn -0.6368 0.0000 -0.7711
vn 0.1913 0.0000 -0.9815
vn 0.1913 0.0000 -0.9815
vn 1.0000 0.0000 -0.0000
vn 1.0000 0.0000 0.0000
vn 0.1913 0.0000 0.9815
vn 0.1913 -0.0000 0.9815
vn -0.6368 0.0000 0.7711
vn -0.6368 0.0000 0.7711
vn -0.5429 -0.5225 -0.6575
vn 0.1724 -0.4342 -0.8842
vn 0.7891 -0.6143 0.0000
vn 0.1724 -0.4342 0.8842
vn -0.5429 -0.5225 0.6575
vn -0.5429 0.5225 -0.6575
vn 0.1724 0.4342 -0.8842
vn 0.7891 0.6143 -0.0000
vn 0.1724 0.4342 0.8842
vn -0.5429 0.5225 0.6575
vn -0.6368 0.0000 -0.7711
vn -0.6368 0.0000 -0.7711
vn 0.1913 0.0000 -0.9815
vn 0.1913 0.0000 -0.9815
vn 1.0000 0.0000 -0.0000
vn 1.0000 0.0000 -0.0000
vn 0.1913 0.0000 0.9815
vn 0.1913 0.0000 0.9815
vn -0.6368 0.0000 0.7711
vn -0.6368 0.0000 0.7711
vn -0.5429 -0.5225 -0.6575
vn 0.1724 -0.4342 -0.8842
vn 0.7891 -0.6143 -0.0000
vn 0.1724 -0.4342 0.8842
vn -0.5429 -0.5225 0.6575
vn -0.5429 0.5225 -0.6575
vn 0.1724 0.4342 -0.8842
vn 0.7891 0.6143 -0.0000
vn 0.1724 0.4342 0.8842
vn -0.5429 0.5225 0.6575
vn -0.6368 0.0000 -0.7711
vn -0.6368 0.0000 -0.7711
vn 0.1913 0.0000 -0.9815
vn 0.1913 0.0000 -0.9815
vn 1.0000 0.0000 -0.0000
vn 1.0000 0.0000 0.0000
vn 0.1913 0.0000 0.9815
vn 0.1913 -0.0000 0.9815
vn -0.6368 0.0000 0.7711
vn -0.6368 0.0000 0.7711
vn -0.5429 -0.5225 -0.6575
vn 0.1724 -0.4342 -0.8842
vn 0.7891 -0.6143 0.0000
vn 0.1724 -0.4342 0.8842
vn -0.5429 -0.5225 0.6575
vn -0.5429 0.5225 -0.6575
vn 0.1724 0.4342 -0.8842
vn 0.7891 0.6143 0.0000
vn 0.1724 0.4342 0.8842
vn -0.5429 0.5225 0.6575
vn -0.6368 0.0000 -0.7711
vn -0.6368 0.0000 -0.7711
vn 0.1913 0.0000 -0.9815
vn 0.1913 0.0000 -0.9815
vn 1.0000 0.0000 0.0000
vn 1.0000 -0.0000 0.0000
vn 0.1913 -0.0000 0.9815
vn 0.1913 -0.0000 0.9815
vn -0.6368 0.0000 0.7711
vn -0.6368 0.0000 0.7711
vn -0.5429 -0.5225 -0.6575
vn 0.1724 -0.4342 -0.8842
vn 0.7891 -0.6143 0.0000
vn 0.1724 -0.4342 0.8842
vn -0.5429 -0.5225 0.6575
vn -0.5429 0.5225 -0.6575
vn 0.1724 0.4342 -0.8842
vn 0.7891 0.6143 0.0000
vn 0.1724 0.4342 0.8842
vn -0.5429 0.5225 0.6575
vn -0.6368 0.0000 -0.7711
vn -0.6368 0.0000 -0.7711
vn 0.1913 0.0000 -0.9815
vn 0.1913 0.0000 -0.9815
vn 1.0000 0.0000 0.0000
vn 1.0000 -0.0000 0.0000
vn 0.1913 0.0000 0.9815
vn 0.1913 -0.0000 0.9815
vn -0.6368 0.0000 0.7711
vn -0.6368 0.0000 0.7711
vn -0.5429 -0.5225 -0.6575
vn 0.1724 -0.4342 -0.8842
vn 0.7891 -0.6143 0.0000
vn 0.1724 -0.4342 0.8842
vn -0.5429 -0.5225 0.6575
usemtl c0
f 1//1 2//1 12//1
f 1//2 12//2 11//2
f 21//3 2//3 1//3
f 22//4 11//4 12//4
f 2//5 3//5 13//5
f 2//6 13//6 12//6
f 21//7 3//7 2//7
f 22//8 12//8 13//8
f 3//9 4//9 14//9
f 3//10 14//10 13//10
f 21//11 4//11 3//11
f 22//12 13//12 14//12
f 4//13 5//13 15//13
f 4//14 15//14 14//14
f 21//15 5//15 4//15
f 22//16 14//16 15//16
f 5//17 6//17 16//17
f 5//18 16//18 15//18
f 21//19 6//19 5//19
f 22//20 15//20 16//20
f 6//21 7//21 17//21
f 6//22 17//22 16//22
f 21//23 7//23 6//23
f 22//24 16//24 17//24
f 7//25 8//25 18//25
f 7//26 18//26 17//26
f 21//27 8//27 7//27
f 22//28 17//28 18//28
f 8//29 9//29 19//29
f 8//30 19//30 18//30
f 21//31 9//31 8//31
f 22//32 18//32 19//32
f 9//33 10//33 20//33
f 9//34 20//34 19//34
f 21//35 10//35 9//35
f 22//36 19//36 20//36
f 10//37 1//37 11//37
f 10//38 11//38 20//38
f 21//39 1//39 10//39
f 22//40 20//40 11//40
usemtl c1
f 23//41 24//41 34//41
f 23//42 34//42 33//42
f 43//43 24//43 23//43
f 44//44 33//44 34//44
f 24//45 25//45 35//45
f 24//46 35//46 34//46
f 43//47 25//47 24//47
f 44//48 34//48 35//48
f 25//49 26//49 36//49
f 25//50 36//50 35//50
f 43//51 26//51 25//51
f 44//52 35//52 36//52
f 26//53 27//53 37//53
f 26//54 37//54 36//54
f 43//55 27//55 26//55
f 44//56 36//56 37//56
f 27//57 28//57 38//57
f 27//58 38//58 37//58
f 43//59 28//59 27//59
f 44//60 37//60 38//60
f 28//61 29//61 39//61
f 28//62 39//62 38//62
f 43//63 29//63 28//63
f 44//64 38//64 39//64
f 29//65 30//65 40//65
f 29//66 40//66 39//66
f 43//67 30//67 29//67
f 44//68 39//68 40//68
f 30//69 31//69 41//69
f 30//70 41//70 40//70
f 43//71 31//71 30//71
f 44//72 40//72 41//72
f 31//73 32//73 42//73
f 31//74 42//74 41//74
f 43//75 32//75 31//75
f 44//76 41//76 42//76
f 32//77 23//77 33//77
f 32//78 33//78 42//78
f 43//79 23//79 32//79
f 44//80 42//80 33//80
usemtl c2
f 45//81 46//81 56//81
f 45//82 56//82 55//82
f 65//83 46//83 45//83
f 66//84 55//84 56//84
f 46//85 47//85 57//85
f 46//86 57//86 56//86
f 65//87 47//87 46//87
f 66//88 56//88 57//88
f 47//89 48//89 58//89
f 47//90 58//90 57//90
f 65//91 48//91 47//91
f 66//92 57//92 58//92
f 48//93 49//93 59//93
f 48//94 59//94 58//94
f 65//95 49//95 48//95
f 66//96 58//96 59//96
f 49//97 50//97 60//97
f 49//98 60//98 59//98
f 65//99 50//99 49//99
f 66//100 59//100 60//100
f 50//101 51//101 61//101
f 50//102 61//102 60//102
f 65//103 51//103 50//103
f 66//104 60//104 61//104
f 51//105 52//105 62//105
f 51//106 62//106 61//106
f 65//107 52//107 51//107
f 66//108 61//108 62//108
f 52//109 53//109 63//109
f 52//110 63//110 62//110
f 65//111 53//111 52//111
f 66//112 62//112 63//112
f 53//113 54//113 64//113
f 53//114 64//114 63//114
f 65//115 54//115 53//115
f 66//116 63//116 64//116
f 54//117 45//117 55//117
f 54//118 55//118 64//118
f 65//119 45//119 54//119
f 66//120 64//120 55//120
usemtl c3
f 67//121 73//121 72//121
f 68//122 74//122 73//122
f 69//123 75//123 74//123
f 70//124 76//124 75//124
f 71//125 72//125 76//125
f 72//126 73//126 78//126
f 72//127 78//127 77//127
f 73//128 74//128 79//128
f 73//129 79//129 78//129
f 74//130 75//130 80//130
f 74//131 80//131 79//131
f 75//132 76//132 81//132
f 75//133 81//133 80//133
f 76//134 72//134 77//134
f 76//135 77//135 81//135
f 77//136 78//136 83//136
f 78//137 79//137 84//137
f 79//138 80//138 85//138
f 80//139 81//139 86//139
f 81//140 77//140 82//140
f 87//141 93//141 92//141
f 88//142 94//142 93//142
f 89//143 95//143 94//143
f 90//144 96//144 95//144
f 91//145 92//145 96//145
f 92//146 93//146 98//146
f 92//147 98//147 97//147
f 93//148 94//148 99//148
f 93//149 99//149 98//149
f 94//150 95//150 100//150
f 94//151 100//151 99//151
f 95//152 96//152 101//152
f 95//153 101//153 100//153
f 96//154 92//154 97//154
f 96//155 97//155 101//155
f 97//156 98//156 103//156
f 98//157 99//157 104//157
f 99//158 100//158 105//158
f 100//159 101//159 106//159
f 101//160 97//160 102//160
f 107//161 113//161 112//161
f 108//162 114//162 113//162
f 109//163 115//163 114//163
f 110//164 116//164 115//164
f 111//165 112//165 116//165
f 112//166 113//166 118//166
f 112//167 118//167 117//167
f 113//168 114//168 119//168
f 113//169 119//169 118//169
f 114//170 115//170 120//170
f 114//171 120//171 119//171
f 115//172 116//172 121//172
f 115//173 121//173 120//173
f 116//174 112//174 117//174
f 116//175 117//175 121//175
f 117//176 118//176 123//176
f 118//177 119//177 124//177
f 119//178 120//178 125//178
f 120//179 121//179 126//179
f 121//180 117//180 122//180
f 127//181 133//181 132//181
f 128//182 134//182 133//182
f 129//183 135//183 134//183
f 130//184 136//184 135//184
f 131//185 132//185 136//185
f 132//186 133//186 138//186
f 132//187 138//187 137//187
f 133//188 134//188 139//188
f 133//189 139//189 138//189
f 134//190 135//190 140//190
f 134//191 140//191 139//191
f 135//192 136//192 141//192
f 135//193 141//193 140//193
f 136//194 132//194 137//194
f 136//195 137//195 141//195
f 137//196 138//196 143//196
f 138//197 139//197 144//197
f 139//198 140//198 145//198
f 140//199 141//199 146//199
f 141//200 137//200 142//200
f 147//201 153//201 152//201
f 148//202 154//202 153//202
f 149//203 155//203 154//203
f 150//204 156//204 155//204
f 151//205 152//205 156//205
f 152//206 153//206 158//206
f 152//207 158//207 157//207
f 153//208 154//208 159//208
f 153//209 159//209 158//209
f 154//210 155//210 160//210
f 154//211 160//211 159//211
f 155//212 156//212 161//212
f 155//213 161//213 160//213
f 156//214 152//214 157//214
f 156//215 157//215 161//215
f 157//216 158//216 163//216
f 158//217 159//217 164//217
f 159//218 160//218 165//218
f 160//219 161//219 166//219
f 161//220 157//220 162//220
