mtllib Food_Popsicle.mtl
v -0.1100 -1.2000 -0.0400
v 0.1100 -1.2000 -0.0400
v 0.1100 -1.2000 0.0400
v -0.1100 -1.2000 0.0400
v -0.1100 -0.3000 -0.0400
v 0.1100 -0.3000 -0.0400
v 0.1100 -0.3000 0.0400
v -0.1100 -0.3000 0.0400
v 0.0000 -1.2000 0.0000
v 0.0000 -0.3000 0.0000
v 0.5000 1.0200 -0.1600
v 0.4625 1.1600 -0.1600
v 0.3600 1.2625 -0.1600
v 0.2200 1.3000 -0.1600
v -0.2200 1.3000 -0.1600
v -0.3600 1.2625 -0.1600
v -0.4625 1.1600 -0.1600
v -0.5000 1.0200 -0.1600
v -0.5000 -0.0200 -0.1600
v -0.4625 -0.1600 -0.1600
v -0.3600 -0.2625 -0.1600
v -0.2200 -0.3000 -0.1600
v 0.2200 -0.3000 -0.1600
v 0.3600 -0.2625 -0.1600
v 0.4625 -0.1600 -0.1600
v 0.5000 -0.0200 -0.1600
v 0.5000 1.0200 0.1600
v 0.4625 1.1600 0.1600
v 0.3600 1.2625 0.1600
v 0.2200 1.3000 0.1600
v -0.2200 1.3000 0.1600
v -0.3600 1.2625 0.1600
v -0.4625 1.1600 0.1600
v -0.5000 1.0200 0.1600
v -0.5000 -0.0200 0.1600
v -0.4625 -0.1600 0.1600
v -0.3600 -0.2625 0.1600
v -0.2200 -0.3000 0.1600
v 0.2200 -0.3000 0.1600
v 0.3600 -0.2625 0.1600
v 0.4625 -0.1600 0.1600
v 0.5000 -0.0200 0.1600
v -0.0000 0.5000 -0.1600
v -0.0000 0.5000 0.1600
v 0.5100 0.1500 -0.1700
v 0.4765 0.2750 -0.1700
v 0.3850 0.3665 -0.1700
v 0.2600 0.4000 -0.1700
v -0.2600 0.4000 -0.1700
v -0.3850 0.3665 -0.1700
v -0.4765 0.2750 -0.1700
v -0.5100 0.1500 -0.1700
v -0.5100 -0.0500 -0.1700
v -0.4765 -0.1750 -0.1700
v -0.3850 -0.2665 -0.1700
v -0.2600 -0.3000 -0.1700
v 0.2600 -0.3000 -0.1700
v 0.3850 -0.2665 -0.1700
v 0.4765 -0.1750 -0.1700
v 0.5100 -0.0500 -0.1700
v 0.5100 0.1500 0.1700
v 0.4765 0.2750 0.1700
v 0.3850 0.3665 0.1700
v 0.2600 0.4000 0.1700
v -0.2600 0.4000 0.1700
v -0.3850 0.3665 0.1700
v -0.4765 0.2750 0.1700
v -0.5100 0.1500 0.1700
v -0.5100 -0.0500 0.1700
v -0.4765 -0.1750 0.1700
v -0.3850 -0.2665 0.1700
v -0.2600 -0.3000 0.1700
v 0.2600 -0.3000 0.1700
v 0.3850 -0.2665 0.1700
v 0.4765 -0.1750 0.1700
v 0.5100 -0.0500 0.1700
v -0.0000 0.0500 -0.1700
v -0.0000 0.0500 0.1700
vn 0.0000 0.0000 1.0000
vn 0.0000 0.0000 1.0000
vn 0.0000 1.0000 0.0000
vn 0.0000 -1.0000 -0.0000
vn -1.0000 0.0000 0.0000
vn -1.0000 0.0000 0.0000
vn -0.0000 1.0000 0.0000
vn 0.0000 -1.0000 0.0000
vn 0.0000 0.0000 -1.0000
vn 0.0000 0.0000 -1.0000
vn 0.0000 1.0000 -0.0000
vn 0.0000 -1.0000 0.0000
vn 1.0000 0.0000 0.0000
vn 1.0000 -0.0000 0.0000
vn 0.0000 1.0000 0.0000
vn -0.0000 -1.0000 0.0000
vn 0.9659 0.2588 0.0000
vn 0.9659 0.2588 -0.0000
vn 0.0000 0.0000 -1.0000
vn 0.0000 0.0000 1.0000
vn 0.7071 0.7071 0.0000
vn 0.7071 0.7071 -0.0000
vn 0.0000 0.0000 -1.0000
vn 0.0000 0.0000 1.0000
vn 0.2588 0.9659 0.0000
vn 0.2588 0.9659 -0.0000
vn 0.0000 0.0000 -1.0000
vn 0.0000 0.0000 1.0000
vn 0.0000 1.0000 0.0000
vn 0.0000 1.0000 -0.0000
vn 0.0000 0.0000 -1.0000
vn 0.0000 -0.0000 1.0000
vn -0.2588 0.9659 0.0000
vn -0.2588 0.9659 0.0000
vn 0.0000 0.0000 -1.0000
vn 0.0000 0.0000 1.0000
vn -0.7071 0.7071 0.0000
vn -0.7071 0.7071 0.0000
vn 0.0000 0.0000 -1.0000
vn 0.0000 0.0000 1.0000
vn -0.9659 0.2588 0.0000
vn -0.9659 0.2588 0.0000
vn 0.0000 0.0000 -1.0000
vn 0.0000 0.0000 1.0000
vn -1.0000 0.0000 0.0000
vn -1.0000 0.0000 0.0000
vn -0.0000 0.0000 -1.0000
vn 0.0000 0.0000 1.0000
vn -0.9659 -0.2588 0.0000
vn -0.9659 -0.2588 0.0000
vn 0.0000 0.0000 -1.0000
vn 0.0000 0.0000 1.0000
vn -0.7071 -0.7071 0.0000
vn -0.7071 -0.7071 0.0000
vn 0.0000 0.0000 -1.0000
vn 0.0000 0.0000 1.0000
vn -0.2588 -0.9659 0.0000
vn -0.2588 -0.9659 0.0000
vn 0.0000 0.0000 -1.0000
vn 0.0000 0.0000 1.0000
vn 0.0000 -1.0000 0.0000
vn 0.0000 -1.0000 0.0000
vn 0.0000 -0.0000 -1.0000
vn 0.0000 0.0000 1.0000
vn 0.2588 -0.9659 0.0000
vn 0.2588 -0.9659 0.0000
vn 0.0000 0.0000 -1.0000
vn 0.0000 0.0000 1.0000
vn 0.7071 -0.7071 0.0000
vn 0.7071 -0.7071 0.0000
vn 0.0000 0.0000 -1.0000
vn 0.0000 0.0000 1.0000
vn 0.9659 -0.2588 0.0000
vn 0.9659 -0.2588 0.0000
vn 0.0000 0.0000 -1.0000
vn 0.0000 0.0000 1.0000
vn 1.0000 0.0000 0.0000
vn 1.0000 0.0000 0.0000
vn 0.0000 0.0000 -1.0000
vn -0.0000 0.0000 1.0000
vn 0.9659 0.2588 0.0000
vn 0.9659 0.2588 -0.0000
vn 0.0000 0.0000 -1.0000
vn 0.0000 0.0000 1.0000
vn 0.7071 0.7071 0.0000
vn 0.7071 0.7071 -0.0000
vn 0.0000 0.0000 -1.0000
vn 0.0000 0.0000 1.0000
vn 0.2588 0.9659 0.0000
vn 0.2588 0.9659 -0.0000
vn 0.0000 0.0000 -1.0000
vn 0.0000 0.0000 1.0000
vn 0.0000 1.0000 0.0000
vn 0.0000 1.0000 -0.0000
vn 0.0000 0.0000 -1.0000
vn 0.0000 -0.0000 1.0000
vn -0.2588 0.9659 0.0000
vn -0.2588 0.9659 0.0000
vn 0.0000 0.0000 -1.0000
vn 0.0000 0.0000 1.0000
vn -0.7071 0.7071 0.0000
vn -0.7071 0.7071 0.0000
vn 0.0000 0.0000 -1.0000
vn 0.0000 0.0000 1.0000
vn -0.9659 0.2588 0.0000
vn -0.9659 0.2588 0.0000
vn 0.0000 0.0000 -1.0000
vn 0.0000 0.0000 1.0000
vn -1.0000 0.0000 0.0000
vn -1.0000 0.0000 0.0000
vn -0.0000 0.0000 -1.0000
vn 0.0000 0.0000 1.0000
vn -0.9659 -0.2588 0.0000
vn -0.9659 -0.2588 0.0000
vn 0.0000 0.0000 -1.0000
vn 0.0000 0.0000 1.0000
vn -0.7071 -0.7071 0.0000
vn -0.7071 -0.7071 0.0000
vn 0.0000 0.0000 -1.0000
vn 0.0000 0.0000 1.0000
vn -0.2588 -0.9659 0.0000
vn -0.2588 -0.9659 0.0000
vn 0.0000 0.0000 -1.0000
vn 0.0000 0.0000 1.0000
vn 0.0000 -1.0000 0.0000
vn 0.0000 -1.0000 0.0000
vn 0.0000 -0.0000 -1.0000
vn 0.0000 0.0000 1.0000
vn 0.2588 -0.9659 0.0000
vn 0.2588 -0.9659 0.0000
vn 0.0000 0.0000 -1.0000
vn 0.0000 0.0000 1.0000
vn 0.7071 -0.7071 0.0000
vn 0.7071 -0.7071 0.0000
vn 0.0000 0.0000 -1.0000
vn 0.0000 0.0000 1.0000
vn 0.9659 -0.2588 0.0000
vn 0.9659 -0.2588 0.0000
vn 0.0000 0.0000 -1.0000
vn 0.0000 0.0000 1.0000
vn 1.0000 0.0000 0.0000
vn 1.0000 0.0000 0.0000
vn 0.0000 0.0000 -1.0000
vn -0.0000 0.0000 1.0000
usemtl c0
f 1//1 2//1 6//1
f 1//2 6//2 5//2
f 9//3 2//3 1//3
f 10//4 5//4 6//4
f 2//5 3//5 7//5
f 2//6 7//6 6//6
f 9//7 3//7 2//7
f 10//8 6//8 7//8
f 3//9 4//9 8//9
f 3//10 8//10 7//10
f 9//11 4//11 3//11
f 10//12 7//12 8//12
f 4//13 1//13 5//13
f 4//14 5//14 8//14
f 9//15 1//15 4//15
f 10//16 8//16 5//16
usemtl c1
f 11//17 12//17 28//17
f 11//18 28//18 27//18
f 43//19 12//19 11//19
f 44//20 27//20 28//20
f 12//21 13//21 29//21
f 12//22 29//22 28//22
f 43//23 13//23 12//23
f 44//24 28//24 29//24
f 13//25 14//25 30//25
f 13//26 30//26 29//26
f 43//27 14//27 13//27
f 44//28 29//28 30//28
f 14//29 15//29 31//29
f 14//30 31//30 30//30
f 43//31 15//31 14//31
f 44//32 30//32 31//32
f 15//33 16//33 32//33
f 15//34 32//34 31//34
f 43//35 16//35 15//35
f 44//36 31//36 32//36
f 16//37 17//37 33//37
f 16//38 33//38 32//38
f 43//39 17//39 16//39
f 44//40 32//40 33//40
f 17//41 18//41 34//41
f 17//42 34//42 33//42
f 43//43 18//43 17//43
f 44//44 33//44 34//44
f 18//45 19//45 35//45
f 18//46 35//46 34//46
f 43//47 19//47 18//47
f 44//48 34//48 35//48
f 19//49 20//49 36//49
f 19//50 36//50 35//50
f 43//51 20//51 19//51
f 44//52 35//52 36//52
f 20//53 21//53 37//53
f 20//54 37//54 36//54
f 43//55 21//55 20//55
f 44//56 36//56 37//56
f 21//57 22//57 38//57
f 21//58 38//58 37//58
f 43//59 22//59 21//59
f 44//60 37//60 38//60
f 22//61 23//61 39//61
f 22//62 39//62 38//62
f 43//63 23//63 22//63
f 44//64 38//64 39//64
f 23//65 24//65 40//65
f 23//66 40//66 39//66
f 43//67 24//67 23//67
f 44//68 39//68 40//68
f 24//69 25//69 41//69
f 24//70 41//70 40//70
f 43//71 25//71 24//71
f 44//72 40//72 41//72
f 25//73 26//73 42//73
f 25//74 42//74 41//74
f 43//75 26//75 25//75
f 44//76 41//76 42//76
f 26//77 11//77 27//77
f 26//78 27//78 42//78
f 43//79 11//79 26//79
f 44//80 42//80 27//80
usemtl c2
f 45//81 46//81 62//81
f 45//82 62//82 61//82
f 77//83 46//83 45//83
f 78//84 61//84 62//84
f 46//85 47//85 63//85
f 46//86 63//86 62//86
f 77//87 47//87 46//87
f 78//88 62//88 63//88
f 47//89 48//89 64//89
f 47//90 64//90 63//90
f 77//91 48//91 47//91
f 78//92 63//92 64//92
f 48//93 49//93 65//93
f 48//94 65//94 64//94
f 77//95 49//95 48//95
f 78//96 64//96 65//96
f 49//97 50//97 66//97
f 49//98 66//98 65//98
f 77//99 50//99 49//99
f 78//100 65//100 66//100
f 50//101 51//101 67//101
f 50//102 67//102 66//102
f 77//103 51//103 50//103
f 78//104 66//104 67//104
f 51//105 52//105 68//105
f 51//106 68//106 67//106
f 77//107 52//107 51//107
f 78//108 67//108 68//108
f 52//109 53//109 69//109
f 52//110 69//110 68//110
f 77//111 53//111 52//111
f 78//112 68//112 69//112
f 53//113 54//113 70//113
f 53//114 70//114 69//114
f 77//115 54//115 53//115
f 78//116 69//116 70//116
f 54//117 55//117 71//117
f 54//118 71//118 70//118
f 77//119 55//119 54//119
f 78//120 70//120 71//120
f 55//121 56//121 72//121
f 55//122 72//122 71//122
f 77//123 56//123 55//123
f 78//124 71//124 72//124
f 56//125 57//125 73//125
f 56//126 73//126 72//126
f 77//127 57//127 56//127
f 78//128 72//128 73//128
f 57//129 58//129 74//129
f 57//130 74//130 73//130
f 77//131 58//131 57//131
f 78//132 73//132 74//132
f 58//133 59//133 75//133
f 58//134 75//134 74//134
f 77//135 59//135 58//135
f 78//136 74//136 75//136
f 59//137 60//137 76//137
f 59//138 76//138 75//138
f 77//139 60//139 59//139
f 78//140 75//140 76//140
f 60//141 45//141 61//141
f 60//142 61//142 76//142
f 77//143 45//143 60//143
f 78//144 76//144 61//144
