mtllib Food_Rice.mtl
v 0.0000 0.0000 0.0000
v 0.0000 0.0000 0.0000
v 0.0000 0.0000 0.0000
v 0.0000 0.0000 0.0000
v 0.0000 0.0000 0.0000
v 0.0000 0.0000 0.0000
v 0.0000 0.0000 0.0000
v 0.0000 0.0000 0.0000
v 0.0000 0.0000 0.0000
v 0.0000 0.0000 0.0000
v 0.7200 0.0000 0.0000
v 0.5825 0.0000 0.4232
v 0.2225 0.0000 0.6848
v -0.2225 0.0000 0.6848
v -0.5825 0.0000 0.4232
v -0.7200 0.0000 0.0000
v -0.5825 0.0000 -0.4232
v -0.2225 0.0000 -0.6848
v 0.2225 0.0000 -0.6848
v 0.5825 0.0000 -0.4232
v 0.8600 0.1800 0.0000
v 0.6958 0.1800 0.5055
v 0.2658 0.1800 0.8179
v -0.2658 0.1800 0.8179
v -0.6958 0.1800 0.5055
v -0.8600 0.1800 0.0000
v -0.6958 0.1800 -0.5055
v -0.2658 0.1800 -0.8179
v 0.2658 0.1800 -0.8179
v 0.6958 0.1800 -0.5055
v 0.8800 0.9500 0.0000
v 0.7119 0.9500 0.5173
v 0.2719 0.9500 0.8369
v -0.2719 0.9500 0.8369
v -0.7119 0.9500 0.5173
v -0.8800 0.9500 0.0000
v -0.7119 0.9500 -0.5173
v -0.2719 0.9500 -0.8369
v 0.2719 0.9500 -0.8369
v 0.7119 0.9500 -0.5173
v 0.6200 1.3000 0.0000
v 0.5016 1.3000 0.3644
v 0.1916 1.3000 0.5897
v -0.1916 1.3000 0.5897
v -0.5016 1.3000 0.3644
v -0.6200 1.3000 0.0000
v -0.5016 1.3000 -0.3644
v -0.1916 1.3000 -0.5897
v 0.1916 1.3000 -0.5897
v 0.5016 1.3000 -0.3644
v 0.3400 1.5000 0.0000
v 0.2751 1.5000 0.1998
v 0.1051 1.5000 0.3234
v -0.1051 1.5000 0.3234
v -0.2751 1.5000 0.1998
v -0.3400 1.5000 0.0000
v -0.2751 1.5000 -0.1998
v -0.1051 1.5000 -0.3234
v 0.1051 1.5000 -0.3234
v 0.2751 1.5000 -0.1998
v 0.3400 1.5000 0.0000
v 0.2404 1.5000 0.2404
v 0.0000 1.5000 0.3400
v -0.2404 1.5000 0.2404
v -0.3400 1.5000 0.0000
v -0.2404 1.5000 -0.2404
v -0.0000 1.5000 -0.3400
v 0.2404 1.5000 -0.2404
v 0.5200 1.8600 0.0000
v 0.3677 1.8600 0.3677
v 0.0000 1.8600 0.5200
v -0.3677 1.8600 0.3677
v -0.5200 1.8600 0.0000
v -0.3677 1.8600 -0.3677
v -0.0000 1.8600 -0.5200
v 0.3677 1.8600 -0.3677
v 0.2400 1.8000 0.0000
v 0.1697 1.8000 0.1697
v 0.0000 1.8000 0.2400
v -0.1697 1.8000 0.1697
v -0.2400 1.8000 0.0000
v -0.1697 1.8000 -0.1697
v -0.0000 1.8000 -0.2400
v 0.1697 1.8000 -0.1697
v 0.4300 1.5200 0.0000
v 0.3041 1.5200 0.3041
v 0.0000 1.5200 0.4300
v -0.3041 1.5200 0.3041
v -0.4300 1.5200 0.0000
v -0.3041 1.5200 -0.3041
v -0.0000 1.5200 -0.4300
v 0.3041 1.5200 -0.3041
v 0.3600 1.5900 0.0000
v 0.2546 1.5900 0.2546
v 0.0000 1.5900 0.3600
v -0.2546 1.5900 0.2546
v -0.3600 1.5900 0.0000
v -0.2546 1.5900 -0.2546
v -0.0000 1.5900 -0.3600
v 0.2546 1.5900 -0.2546
v 0.2900 1.5200 0.0000
v 0.2051 1.5200 0.2051
v 0.0000 1.5200 0.2900
v -0.2051 1.5200 0.2051
v -0.2900 1.5200 0.0000
v -0.2051 1.5200 -0.2051
v -0.0000 1.5200 -0.2900
v 0.2051 1.5200 -0.2051
v 0.3600 1.4500 0.0000
v 0.2546 1.4500 0.2546
v 0.0000 1.4500 0.3600
v -0.2546 1.4500 0.2546
v -0.3600 1.4500 0.0000
v -0.2546 1.4500 -0.2546
v -0.0000 1.4500 -0.3600
v 0.2546 1.4500 -0.2546
v -0.3300 0.3800 0.8100
v 0.3300 0.3800 0.8100
v 0.3300 0.3800 0.8700
v -0.3300 0.3800 0.8700
v -0.3300 0.9400 0.8100
v 0.3300 0.9400 0.8100
v 0.3300 0.9400 0.8700
v -0.3300 0.9400 0.8700
v 0.0000 0.3800 0.8400
v 0.0000 0.9400 0.8400
v -0.1150 0.6667 0.8800
v -0.1150 0.6667 0.8800
v -0.1150 0.6667 0.8800
v -0.1150 0.6667 0.8800
v -0.1150 0.6667 0.8800
v -0.0300 0.7446 0.8800
v -0.0974 0.7057 0.9212
v -0.2064 0.6428 0.9055
v -0.2064 0.6428 0.8545
v -0.0974 0.7057 0.8388
v -0.0550 0.7879 0.8800
v -0.1224 0.7490 0.9212
v -0.2314 0.6861 0.9055
v -0.2314 0.6861 0.8545
v -0.1224 0.7490 0.8388
v -0.1650 0.7533 0.8800
v -0.1650 0.7533 0.8800
v -0.1650 0.7533 0.8800
v -0.1650 0.7533 0.8800
v -0.1650 0.7533 0.8800
v 0.1450 0.7667 0.8800
v 0.1450 0.7667 0.8800
v 0.1450 0.7667 0.8800
v 0.1450 0.7667 0.8800
v 0.1450 0.7667 0.8800
v 0.2300 0.8446 0.8800
v 0.1626 0.8057 0.9212
v 0.0536 0.7428 0.9055
v 0.0536 0.7428 0.8545
v 0.1626 0.8057 0.8388
v 0.2050 0.8879 0.8800
v 0.1376 0.8490 0.9212
v 0.0286 0.7861 0.9055
v 0.0286 0.7861 0.8545
v 0.1376 0.8490 0.8388
v 0.0950 0.8533 0.8800
v 0.0950 0.8533 0.8800
v 0.0950 0.8533 0.8800
v 0.0950 0.8533 0.8800
v 0.0950 0.8533 0.8800
v 0.0250 0.4967 0.8800
v 0.0250 0.4967 0.8800
v 0.0250 0.4967 0.8800
v 0.0250 0.4967 0.8800
v 0.0250 0.4967 0.8800
v 0.1100 0.5746 0.8800
v 0.0426 0.5357 0.9212
v -0.0664 0.4728 0.9055
v -0.0664 0.4728 0.8545
v 0.0426 0.5357 0.8388
v 0.0850 0.6179 0.8800
v 0.0176 0.5790 0.9212
v -0.0914 0.5161 0.9055
v -0.0914 0.5161 0.8545
v 0.0176 0.5790 0.8388
v -0.0250 0.5833 0.8800
v -0.0250 0.5833 0.8800
v -0.0250 0.5833 0.8800
v -0.0250 0.5833 0.8800
v -0.0250 0.5833 0.8800
vn 0.0000 1.0000 0.0000
vn 0.0000 1.0000 0.0000
vn 0.0000 1.0000 -0.0000
vn 0.0000 1.0000 0.0000
vn 0.0000 1.0000 0.0000
vn 0.0000 1.0000 0.0000
vn 0.0000 1.0000 0.0000
vn 0.0000 1.0000 0.0000
vn 0.0000 1.0000 0.0000
vn -0.0000 1.0000 0.0000
vn -0.7646 0.5947 -0.2484
vn -0.7646 0.5947 -0.2484
vn -0.4726 0.5947 -0.6504
vn -0.4726 0.5947 -0.6504
vn -0.0000 0.5947 -0.8040
vn -0.0000 0.5947 -0.8040
vn 0.4726 0.5947 -0.6504
vn 0.4726 0.5947 -0.6504
vn 0.7646 0.5947 -0.2484
vn 0.7646 0.5947 -0.2484
vn 0.7646 0.5947 0.2484
vn 0.7646 0.5947 0.2484
vn 0.4726 0.5947 0.6504
vn 0.4726 0.5947 0.6504
vn 0.0000 0.5947 0.8040
vn 0.0000 0.5947 0.8040
vn -0.4726 0.5947 0.6504
vn -0.4726 0.5947 0.6504
vn -0.7646 0.5947 0.2484
vn -0.7646 0.5947 0.2484
vn -0.9508 0.0247 -0.3089
vn -0.9508 0.0247 -0.3089
vn -0.5876 0.0247 -0.8088
vn -0.5876 0.0247 -0.8088
vn -0.0000 0.0247 -0.9997
vn 0.0000 0.0247 -0.9997
vn 0.5876 0.0247 -0.8088
vn 0.5876 0.0247 -0.8088
vn 0.9508 0.0247 -0.3089
vn 0.9508 0.0247 -0.3089
vn 0.9508 0.0247 0.3089
vn 0.9508 0.0247 0.3089
vn 0.5876 0.0247 0.8088
vn 0.5876 0.0247 0.8088
vn 0.0000 0.0247 0.9997
vn 0.0000 0.0247 0.9997
vn -0.5876 0.0247 0.8088
vn -0.5876 0.0247 0.8088
vn -0.9508 0.0247 0.3089
vn -0.9508 0.0247 0.3089
vn -0.7768 -0.5770 -0.2524
vn -0.7768 -0.5770 -0.2524
vn -0.4801 -0.5770 -0.6607
vn -0.4801 -0.5770 -0.6607
vn -0.0000 -0.5770 -0.8167
vn -0.0000 -0.5770 -0.8167
vn 0.4801 -0.5770 -0.6607
vn 0.4801 -0.5770 -0.6607
vn 0.7768 -0.5770 -0.2524
vn 0.7768 -0.5770 -0.2524
vn 0.7768 -0.5770 0.2524
vn 0.7768 -0.5770 0.2524
vn 0.4801 -0.5770 0.6607
vn 0.4801 -0.5770 0.6607
vn 0.0000 -0.5770 0.8167
vn 0.0000 -0.5770 0.8167
vn -0.4801 -0.5770 0.6607
vn -0.4801 -0.5770 0.6607
vn -0.7768 -0.5770 0.2524
vn -0.7768 -0.5770 0.2524
vn -0.5711 -0.7996 -0.1856
vn -0.5711 -0.7996 -0.1856
vn -0.3530 -0.7996 -0.4858
vn -0.3530 -0.7996 -0.4858
vn -0.0000 -0.7996 -0.6005
vn 0.0000 -0.7996 -0.6005
vn 0.3530 -0.7996 -0.4858
vn 0.3530 -0.7996 -0.4858
vn 0.5711 -0.7996 -0.1856
vn 0.5711 -0.7996 -0.1856
vn 0.5711 -0.7996 0.1856
vn 0.5711 -0.7996 0.1856
vn 0.3530 -0.7996 0.4858
vn 0.3530 -0.7996 0.4858
vn 0.0000 -0.7996 0.6005
vn 0.0000 -0.7996 0.6005
vn -0.3530 -0.7996 0.4858
vn -0.3530 -0.7996 0.4858
vn -0.5711 -0.7996 0.1856
vn -0.5711 -0.7996 0.1856
vn -0.8387 0.4194 -0.3474
vn -0.8387 0.4194 -0.3474
vn -0.3474 0.4194 -0.8387
vn -0.3474 0.4194 -0.8387
vn 0.3474 0.4194 -0.8387
vn 0.3474 0.4194 -0.8387
vn 0.8387 0.4194 -0.3474
vn 0.8387 0.4194 -0.3474
vn 0.8387 0.4194 0.3474
vn 0.8387 0.4194 0.3474
vn 0.3474 0.4194 0.8387
vn 0.3474 0.4194 0.8387
vn -0.3474 0.4194 0.8387
vn -0.3474 0.4194 0.8387
vn -0.8387 0.4194 0.3474
vn -0.8387 0.4194 0.3474
vn 0.2087 -0.9741 0.0865
vn 0.2087 -0.9741 0.0865
vn 0.0865 -0.9741 0.2087
vn 0.0865 -0.9741 0.2087
vn -0.0865 -0.9741 0.2087
vn -0.0865 -0.9741 0.2087
vn -0.2087 -0.9741 0.0865
vn -0.2087 -0.9741 0.0865
vn -0.2087 -0.9741 -0.0865
vn -0.2087 -0.9741 -0.0865
vn -0.0865 -0.9741 -0.2087
vn -0.0865 -0.9741 -0.2087
vn 0.0865 -0.9741 -0.2087
vn 0.0865 -0.9741 -0.2087
vn 0.2087 -0.9741 -0.0865
vn 0.2087 -0.9741 -0.0865
vn -0.6786 -0.6786 -0.2811
vn -0.6786 -0.6786 -0.2811
vn -0.2811 -0.6786 -0.6786
vn -0.2811 -0.6786 -0.6786
vn 0.2811 -0.6786 -0.6786
vn 0.2811 -0.6786 -0.6786
vn 0.6786 -0.6786 -0.2811
vn 0.6786 -0.6786 -0.2811
vn 0.6786 -0.6786 0.2811
vn 0.6786 -0.6786 0.2811
vn 0.2811 -0.6786 0.6786
vn 0.2811 -0.6786 0.6786
vn -0.2811 -0.6786 0.6786
vn -0.2811 -0.6786 0.6786
vn -0.6786 -0.6786 0.2811
vn -0.6786 -0.6786 0.2811
vn 0.6786 -0.6786 0.2811
vn 0.6786 -0.6786 0.2811
vn 0.2811 -0.6786 0.6786
vn 0.2811 -0.6786 0.6786
vn -0.2811 -0.6786 0.6786
vn -0.2811 -0.6786 0.6786
vn -0.6786 -0.6786 0.2811
vn -0.6786 -0.6786 0.2811
vn -0.6786 -0.6786 -0.2811
vn -0.6786 -0.6786 -0.2811
vn -0.2811 -0.6786 -0.6786
vn -0.2811 -0.6786 -0.6786
vn 0.2811 -0.6786 -0.6786
vn 0.2811 -0.6786 -0.6786
vn 0.6786 -0.6786 -0.2811
vn 0.6786 -0.6786 -0.2811
vn 0.6786 0.6786 0.2811
vn 0.6786 0.6786 0.2811
vn 0.2811 0.6786 0.6786
vn 0.2811 0.6786 0.6786
vn -0.2811 0.6786 0.6786
vn -0.2811 0.6786 0.6786
vn -0.6786 0.6786 0.2811
vn -0.6786 0.6786 0.2811
vn -0.6786 0.6786 -0.2811
vn -0.6786 0.6786 -0.2811
vn -0.2811 0.6786 -0.6786
vn -0.2811 0.6786 -0.6786
vn 0.2811 0.6786 -0.6786
vn 0.2811 0.6786 -0.6786
vn 0.6786 0.6786 -0.2811
vn 0.6786 0.6786 -0.2811
vn -0.6786 0.6786 -0.2811
vn -0.6786 0.6786 -0.2811
vn -0.2811 0.6786 -0.6786
vn -0.2811 0.6786 -0.6786
vn 0.2811 0.6786 -0.6786
vn 0.2811 0.6786 -0.6786
vn 0.6786 0.6786 -0.2811
vn 0.6786 0.6786 -0.2811
vn 0.6786 0.6786 0.2811
vn 0.6786 0.6786 0.2811
vn 0.2811 0.6786 0.6786
vn 0.2811 0.6786 0.6786
vn -0.2811 0.6786 0.6786
vn -0.2811 0.6786 0.6786
vn -0.6786 0.6786 0.2811
vn -0.6786 0.6786 0.2811
vn 0.0000 0.0000 1.0000
vn 0.0000 0.0000 1.0000
vn 0.0000 1.0000 0.0000
vn 0.0000 -1.0000 -0.0000
vn -1.0000 0.0000 0.0000
vn -1.0000 0.0000 0.0000
vn -0.0000 1.0000 0.0000
vn 0.0000 -1.0000 0.0000
vn 0.0000 0.0000 -1.0000
vn 0.0000 0.0000 -1.0000
vn 0.0000 1.0000 -0.0000
vn 0.0000 -1.0000 0.0000
vn 1.0000 0.0000 0.0000
vn 1.0000 -0.0000 0.0000
vn 0.0000 1.0000 0.0000
vn -0.0000 -1.0000 0.0000
vn -0.6254 0.6821 -0.3790
vn -0.3521 0.7498 -0.5602
vn -0.2529 0.9675 0.0000
vn -0.3521 0.7498 0.5602
vn -0.6254 0.6821 0.3790
vn -0.4052 -0.2339 -0.8838
vn -0.4052 -0.2339 -0.8838
vn 0.1074 0.0620 -0.9923
vn 0.1074 0.0620 -0.9923
vn 0.8660 0.5000 -0.0000
vn 0.8660 0.5000 -0.0000
vn 0.1074 0.0620 0.9923
vn 0.1074 0.0620 0.9923
vn -0.4052 -0.2339 0.8838
vn -0.4052 -0.2339 0.8838
vn 0.2780 -0.8827 -0.3790
vn 0.4733 -0.6798 -0.5602
vn 0.7114 -0.7028 -0.0000
vn 0.4733 -0.6798 0.5602
vn 0.2780 -0.8827 0.3790
vn -0.6254 0.6821 -0.3790
vn -0.3521 0.7498 -0.5602
vn -0.2529 0.9675 0.0000
vn -0.3521 0.7498 0.5602
vn -0.6254 0.6821 0.3790
vn -0.4052 -0.2339 -0.8838
vn -0.4052 -0.2339 -0.8838
vn 0.1074 0.0620 -0.9923
vn 0.1074 0.0620 -0.9923
vn 0.8660 0.5000 -0.0000
vn 0.8660 0.5000 -0.0000
vn 0.1074 0.0620 0.9923
vn 0.1074 0.0620 0.9923
vn -0.4052 -0.2339 0.8838
vn -0.4052 -0.2339 0.8838
vn 0.2780 -0.8827 -0.3790
vn 0.4733 -0.6798 -0.5602
vn 0.7114 -0.7028 0.0000
vn 0.4733 -0.6798 0.5602
vn 0.2780 -0.8827 0.3790
vn -0.6254 0.6821 -0.3790
vn -0.3521 0.7498 -0.5602
vn -0.2529 0.9675 0.0000
vn -0.3521 0.7498 0.5602
vn -0.6254 0.6821 0.3790
vn -0.4052 -0.2339 -0.8838
vn -0.4052 -0.2339 -0.8838
vn 0.1074 0.0620 -0.9923
vn 0.1074 0.0620 -0.9923
vn 0.8660 0.5000 -0.0000
vn 0.8660 0.5000 -0.0000
vn 0.1074 0.0620 0.9923
vn 0.1074 0.0620 0.9923
vn -0.4052 -0.2339 0.8838
vn -0.4052 -0.2339 0.8838
vn 0.2780 -0.8827 -0.3790
vn 0.4733 -0.6798 -0.5602
vn 0.7114 -0.7028 0.0000
vn 0.4733 -0.6798 0.5602
vn 0.2780 -0.8827 0.3790
usemtl c0
f 1//1 12//1 11//1
f 2//2 13//2 12//2
f 3//3 14//3 13//3
f 4//4 15//4 14//4
f 5//5 16//5 15//5
f 6//6 17//6 16//6
f 7//7 18//7 17//7
f 8//8 19//8 18//8
f 9//9 20//9 19//9
f 10//10 11//10 20//10
f 11//11 12//11 22//11
f 11//12 22//12 21//12
f 12//13 13//13 23//13
f 12//14 23//14 22//14
f 13//15 14//15 24//15
f 13//16 24//16 23//16
f 14//17 15//17 25//17
f 14//18 25//18 24//18
f 15//19 16//19 26//19
f 15//20 26//20 25//20
f 16//21 17//21 27//21
f 16//22 27//22 26//22
f 17//23 18//23 28//23
f 17//24 28//24 27//24
f 18//25 19//25 29//25
f 18//26 29//26 28//26
f 19//27 20//27 30//27
f 19//28 30//28 29//28
f 20//29 11//29 21//29
f 20//30 21//30 30//30
f 21//31 22//31 32//31
f 21//32 32//32 31//32
f 22//33 23//33 33//33
f 22//34 33//34 32//34
f 23//35 24//35 34//35
f 23//36 34//36 33//36
f 24//37 25//37 35//37
f 24//38 35//38 34//38
f 25//39 26//39 36//39
f 25//40 36//40 35//40
f 26//41 27//41 37//41
f 26//42 37//42 36//42
f 27//43 28//43 38//43
f 27//44 38//44 37//44
f 28//45 29//45 39//45
f 28//46 39//46 38//46
f 29//47 30//47 40//47
f 29//48 40//48 39//48
f 30//49 21//49 31//49
f 30//50 31//50 40//50
f 31//51 32//51 42//51
f 31//52 42//52 41//52
f 32//53 33//53 43//53
f 32//54 43//54 42//54
f 33//55 34//55 44//55
f 33//56 44//56 43//56
f 34//57 35//57 45//57
f 34//58 45//58 44//58
f 35//59 36//59 46//59
f 35//60 46//60 45//60
f 36//61 37//61 47//61
f 36//62 47//62 46//62
f 37//63 38//63 48//63
f 37//64 48//64 47//64
f 38//65 39//65 49//65
f 38//66 49//66 48//66
f 39//67 40//67 50//67
f 39//68 50//68 49//68
f 40//69 31//69 41//69
f 40//70 41//70 50//70
f 41//71 42//71 52//71
f 41//72 52//72 51//72
f 42//73 43//73 53//73
f 42//74 53//74 52//74
f 43//75 44//75 54//75
f 43//76 54//76 53//76
f 44//77 45//77 55//77
f 44//78 55//78 54//78
f 45//79 46//79 56//79
f 45//80 56//80 55//80
f 46//81 47//81 57//81
f 46//82 57//82 56//82
f 47//83 48//83 58//83
f 47//84 58//84 57//84
f 48//85 49//85 59//85
f 48//86 59//86 58//86
f 49//87 50//87 60//87
f 49//88 60//88 59//88
f 50//89 41//89 51//89
f 50//90 51//90 60//90
f 61//91 62//91 70//91
f 61//92 70//92 69//92
f 62//93 63//93 71//93
f 62//94 71//94 70//94
f 63//95 64//95 72//95
f 63//96 72//96 71//96
f 64//97 65//97 73//97
f 64//98 73//98 72//98
f 65//99 66//99 74//99
f 65//100 74//100 73//100
f 66//101 67//101 75//101
f 66//102 75//102 74//102
f 67//103 68//103 76//103
f 67//104 76//104 75//104
f 68//105 61//105 69//105
f 68//106 69//106 76//106
f 69//107 70//107 78//107
f 69//108 78//108 77//108
f 70//109 71//109 79//109
f 70//110 79//110 78//110
f 71//111 72//111 80//111
f 71//112 80//112 79//112
f 72//113 73//113 81//113
f 72//114 81//114 80//114
f 73//115 74//115 82//115
f 73//116 82//116 81//116
f 74//117 75//117 83//117
f 74//118 83//118 82//118
f 75//119 76//119 84//119
f 75//120 84//120 83//120
f 76//121 69//121 77//121
f 76//122 77//122 84//122
usemtl c1
f 85//123 86//123 94//123
f 85//124 94//124 93//124
f 86//125 87//125 95//125
f 86//126 95//126 94//126
f 87//127 88//127 96//127
f 87//128 96//128 95//128
f 88//129 89//129 97//129
f 88//130 97//130 96//130
f 89//131 90//131 98//131
f 89//132 98//132 97//132
f 90//133 91//133 99//133
f 90//134 99//134 98//134
f 91//135 92//135 100//135
f 91//136 100//136 99//136
f 92//137 85//137 93//137
f 92//138 93//138 100//138
f 93//139 94//139 102//139
f 93//140 102//140 101//140
f 94//141 95//141 103//141
f 94//142 103//142 102//142
f 95//143 96//143 104//143
f 95//144 104//144 103//144
f 96//145 97//145 105//145
f 96//146 105//146 104//146
f 97//147 98//147 106//147
f 97//148 106//148 105//148
f 98//149 99//149 107//149
f 98//150 107//150 106//150
f 99//151 100//151 108//151
f 99//152 108//152 107//152
f 100//153 93//153 101//153
f 100//154 101//154 108//154
f 101//155 102//155 110//155
f 101//156 110//156 109//156
f 102//157 103//157 111//157
f 102//158 111//158 110//158
f 103//159 104//159 112//159
f 103//160 112//160 111//160
f 104//161 105//161 113//161
f 104//162 113//162 112//162
f 105//163 106//163 114//163
f 105//164 114//164 113//164
f 106//165 107//165 115//165
f 106//166 115//166 114//166
f 107//167 108//167 116//167
f 107//168 116//168 115//168
f 108//169 101//169 109//169
f 108//170 109//170 116//170
f 109//171 110//171 86//171
f 109//172 86//172 85//172
f 110//173 111//173 87//173
f 110//174 87//174 86//174
f 111//175 112//175 88//175
f 111//176 88//176 87//176
f 112//177 113//177 89//177
f 112//178 89//178 88//178
f 113//179 114//179 90//179
f 113//180 90//180 89//180
f 114//181 115//181 91//181
f 114//182 91//182 90//182
f 115//183 116//183 92//183
f 115//184 92//184 91//184
f 116//185 109//185 85//185
f 116//186 85//186 92//186
usemtl c2
f 117//187 118//187 122//187
f 117//188 122//188 121//188
f 125//189 118//189 117//189
f 126//190 121//190 122//190
f 118//191 119//191 123//191
f 118//192 123//192 122//192
f 125//193 119//193 118//193
f 126//194 122//194 123//194
f 119//195 120//195 124//195
f 119//196 124//196 123//196
f 125//197 120//197 119//197
f 126//198 123//198 124//198
f 120//199 117//199 121//199
f 120//200 121//200 124//200
f 125//201 117//201 120//201
f 126//202 124//202 121//202
usemtl c3
f 127//203 133//203 132//203
f 128//204 134//204 133//204
f 129//205 135//205 134//205
f 130//206 136//206 135//206
f 131//207 132//207 136//207
f 132//208 133//208 138//208
f 132//209 138//209 137//209
f 133//210 134//210 139//210
f 133//211 139//211 138//211
f 134//212 135//212 140//212
f 134//213 140//213 139//213
f 135//214 136//214 141//214
f 135//215 141//215 140//215
f 136//216 132//216 137//216
f 136//217 137//217 141//217
f 137//218 138//218 143//218
f 138//219 139//219 144//219
f 139//220 140//220 145//220
f 140//221 141//221 146//221
f 141//222 137//222 142//222
f 147//223 153//223 152//223
f 148//224 154//224 153//224
f 149//225 155//225 154//225
f 150//226 156//226 155//226
f 151//227 152//227 156//227
f 152//228 153//228 158//228
f 152//229 158//229 157//229
f 153//230 154//230 159//230
f 153//231 159//231 158//231
f 154//232 155//232 160//232
f 154//233 160//233 159//233
f 155//234 156//234 161//234
f 155//235 161//235 160//235
f 156//236 152//236 157//236
f 156//237 157//237 161//237
f 157//238 158//238 163//238
f 158//239 159//239 164//239
f 159//240 160//240 165//240
f 160//241 161//241 166//241
f 161//242 157//242 162//242
f 167//243 173//243 172//243
f 168//244 174//244 173//244
f 169//245 175//245 174//245
f 170//246 176//246 175//246
f 171//247 172//247 176//247
f 172//248 173//248 178//248
f 172//249 178//249 177//249
f 173//250 174//250 179//250
f 173//251 179//251 178//251
f 174//252 175//252 180//252
f 174//253 180//253 179//253
f 175//254 176//254 181//254
f 175//255 181//255 180//255
f 176//256 172//256 177//256
f 176//257 177//257 181//257
f 177//258 178//258 183//258
f 178//259 179//259 184//259
f 179//260 180//260 185//260
f 180//261 181//261 186//261
f 181//262 177//262 182//262
