mtllib Food_StrawberryMilk.mtl
v -0.4500 0.0000 -0.4500
v 0.4500 0.0000 -0.4500
v 0.4500 0.0000 0.4500
v -0.4500 0.0000 0.4500
v -0.4500 1.1000 -0.4500
v 0.4500 1.1000 -0.4500
v 0.4500 1.1000 0.4500
v -0.4500 1.1000 0.4500
v 0.0000 0.0000 0.0000
v 0.0000 1.1000 0.0000
v -0.4500 1.1000 -0.4500
v 0.4500 1.1000 -0.4500
v 0.0000 1.4800 -0.4500
v -0.4500 1.1000 0.4500
v 0.4500 1.1000 0.4500
v 0.0000 1.4800 0.4500
v 0.0000 1.2267 -0.4500
v 0.0000 1.2267 0.4500
v -0.0400 1.4750 -0.4500
v 0.0400 1.4750 -0.4500
v 0.0400 1.4750 0.4500
v -0.0400 1.4750 0.4500
v -0.0400 1.5250 -0.4500
v 0.0400 1.5250 -0.4500
v 0.0400 1.5250 0.4500
v -0.0400 1.5250 0.4500
v 0.0000 1.4750 0.0000
v 0.0000 1.5250 0.0000
v -0.3000 0.2750 0.4400
v 0.3000 0.2750 0.4400
v 0.3000 0.2750 0.4800
v -0.3000 0.2750 0.4800
v -0.3000 0.8250 0.4400
v 0.3000 0.8250 0.4400
v 0.3000 0.8250 0.4800
v -0.3000 0.8250 0.4800
v 0.0000 0.2750 0.4600
v 0.0000 0.8250 0.4600
v 0.0000 0.3500 0.5000
v 0.0000 0.3500 0.5000
v 0.0000 0.3500 0.5000
v 0.0000 0.3500 0.5000
v 0.0000 0.3500 0.5000
v 0.0000 0.3500 0.5000
v 0.0990 0.4086 0.5000
v 0.0495 0.4086 0.5306
v -0.0495 0.4086 0.5306
v -0.0990 0.4086 0.5000
v -0.0495 0.4086 0.4694
v 0.0495 0.4086 0.4694
v 0.1400 0.5500 0.5000
v 0.0700 0.5500 0.5433
v -0.0700 0.5500 0.5433
v -0.1400 0.5500 0.5000
v -0.0700 0.5500 0.4567
v 0.0700 0.5500 0.4567
v 0.0990 0.6914 0.5000
v 0.0495 0.6914 0.5306
v -0.0495 0.6914 0.5306
v -0.0990 0.6914 0.5000
v -0.0495 0.6914 0.4694
v 0.0495 0.6914 0.4694
v 0.0000 0.7500 0.5000
v 0.0000 0.7500 0.5000
v -0.0000 0.7500 0.5000
v -0.0000 0.7500 0.5000
v -0.0000 0.7500 0.5000
v 0.0000 0.7500 0.5000
vn 0.0000 0.0000 1.0000
vn 0.0000 0.0000 1.0000
vn 0.0000 1.0000 0.0000
vn 0.0000 -1.0000 -0.0000
vn -1.0000 0.0000 0.0000
vn -1.0000 0.0000 0.0000
vn -0.0000 1.0000 0.0000
vn 0.0000 -1.0000 0.0000
vn 0.0000 0.0000 -1.0000
vn 0.0000 0.0000 -1.0000
vn 0.0000 1.0000 -0.0000
vn 0.0000 -1.0000 0.0000
vn 1.0000 0.0000 0.0000
vn 1.0000 -0.0000 0.0000
vn 0.0000 1.0000 0.0000
vn -0.0000 -1.0000 0.0000
vn 0.0000 -1.0000 0.0000
vn 0.0000 -1.0000 0.0000
vn 0.0000 -0.0000 -1.0000
vn 0.0000 0.0000 1.0000
vn 0.6452 0.7640 0.0000
vn 0.6452 0.7640 -0.0000
vn 0.0000 0.0000 -1.0000
vn -0.0000 0.0000 1.0000
vn -0.6452 0.7640 0.0000
vn -0.6452 0.7640 0.0000
vn -0.0000 0.0000 -1.0000
vn 0.0000 -0.0000 1.0000
vn 0.0000 0.0000 1.0000
vn 0.0000 0.0000 1.0000
vn 0.0000 1.0000 0.0000
vn 0.0000 -1.0000 -0.0000
vn -1.0000 0.0000 0.0000
vn -1.0000 0.0000 0.0000
vn -0.0000 1.0000 0.0000
vn 0.0000 -1.0000 0.0000
vn 0.0000 0.0000 -1.0000
vn 0.0000 0.0000 -1.0000
vn 0.0000 1.0000 -0.0000
vn 0.0000 -1.0000 0.0000
vn 1.0000 0.0000 0.0000
vn 1.0000 -0.0000 0.0000
vn 0.0000 1.0000 0.0000
vn -0.0000 -1.0000 0.0000
vn 0.0000 0.0000 1.0000
vn 0.0000 0.0000 1.0000
vn 0.0000 1.0000 0.0000
vn 0.0000 -1.0000 -0.0000
vn -1.0000 0.0000 0.0000
vn -1.0000 0.0000 0.0000
vn -0.0000 1.0000 0.0000
vn 0.0000 -1.0000 0.0000
vn 0.0000 0.0000 -1.0000
vn 0.0000 0.0000 -1.0000
vn 0.0000 1.0000 -0.0000
vn 0.0000 -1.0000 0.0000
vn 1.0000 0.0000 0.0000
vn 1.0000 -0.0000 0.0000
vn 0.0000 1.0000 0.0000
vn -0.0000 -1.0000 0.0000
vn -0.3932 0.6644 -0.6356
vn 0.0000 0.4632 -0.8862
vn 0.3932 0.6644 -0.6356
vn 0.3932 0.6644 0.6356
vn 0.0000 0.4632 0.8862
vn -0.3932 0.6644 0.6356
vn -0.5201 0.1508 -0.8407
vn -0.5201 0.1508 -0.8407
vn 0.0000 0.0893 -0.9960
vn 0.0000 0.0893 -0.9960
vn 0.5201 0.1508 -0.8407
vn 0.5201 0.1508 -0.8407
vn 0.5201 0.1508 0.8407
vn 0.5201 0.1508 0.8407
vn -0.0000 0.0893 0.9960
vn 0.0000 0.0893 0.9960
vn -0.5201 0.1508 0.8407
vn -0.5201 0.1508 0.8407
vn -0.5201 -0.1508 -0.8407
vn -0.5201 -0.1508 -0.8407
vn -0.0000 -0.0893 -0.9960
vn 0.0000 -0.0893 -0.9960
vn 0.5201 -0.1508 -0.8407
vn 0.5201 -0.1508 -0.8407
vn 0.5201 -0.1508 0.8407
vn 0.5201 -0.1508 0.8407
vn 0.0000 -0.0893 0.9960
vn 0.0000 -0.0893 0.9960
vn -0.5201 -0.1508 0.8407
vn -0.5201 -0.1508 0.8407
vn -0.3932 -0.6644 -0.6356
vn -0.0000 -0.4632 -0.8862
vn 0.3932 -0.6644 -0.6356
vn 0.3932 -0.6644 0.6356
vn 0.0000 -0.4632 0.8862
vn -0.3932 -0.6644 0.6356
usemtl c0
f 1//1 2//1 6//1
f 1//2 6//2 5//2
f 9//3 2//3 1//3
f 10//4 5//4 6//4
f 2//5 3//5 7//5
f 2//6 7//6 6//6
f 9//7 3//7 2//7
f 10//8 6//8 7//8
f 3//9 4//9 8//9
f 3//10 8//10 7//10
f 9//11 4//11 3//11
f 10//12 7//12 8//12
f 4//13 1//13 5//13
f 4//14 5//14 8//14
f 9//15 1//15 4//15
f 10//16 8//16 5//16
usemtl c1
f 11//17 12//17 15//17
f 11//18 15//18 14//18
f 17//19 12//19 11//19
f 18//20 14//20 15//20
f 12//21 13//21 16//21
f 12//22 16//22 15//22
f 17//23 13//23 12//23
f 18//24 15//24 16//24
f 13//25 11//25 14//25
f 13//26 14//26 16//26
f 17//27 11//27 13//27
f 18//28 16//28 14//28
f 19//29 20//29 24//29
f 19//30 24//30 23//30
f 27//31 20//31 19//31
f 28//32 23//32 24//32
f 20//33 21//33 25//33
f 20//34 25//34 24//34
f 27//35 21//35 20//35
f 28//36 24//36 25//36
f 21//37 22//37 26//37
f 21//38 26//38 25//38
f 27//39 22//39 21//39
f 28//40 25//40 26//40
f 22//41 19//41 23//41
f 22//42 23//42 26//42
f 27//43 19//43 22//43
f 28//44 26//44 23//44
usemtl c2
f 29//45 30//45 34//45
f 29//46 34//46 33//46
f 37//47 30//47 29//47
f 38//48 33//48 34//48
f 30//49 31//49 35//49
f 30//50 35//50 34//50
f 37//51 31//51 30//51
f 38//52 34//52 35//52
f 31//53 32//53 36//53
f 31//54 36//54 35//54
f 37//55 32//55 31//55
f 38//56 35//56 36//56
f 32//57 29//57 33//57
f 32//58 33//58 36//58
f 37//59 29//59 32//59
f 38//60 36//60 33//60
usemtl c3
f 39//61 46//61 45//61
f 40//62 47//62 46//62
f 41//63 48//63 47//63
f 42//64 49//64 48//64
f 43//65 50//65 49//65
f 44//66 45//66 50//66
f 45//67 46//67 52//67
f 45//68 52//68 51//68
f 46//69 47//69 53//69
f 46//70 53//70 52//70
f 47//71 48//71 54//71
f 47//72 54//72 53//72
f 48//73 49//73 55//73
f 48//74 55//74 54//74
f 49//75 50//75 56//75
f 49//76 56//76 55//76
f 50//77 45//77 51//77
f 50//78 51//78 56//78
f 51//79 52//79 58//79
f 51//80 58//80 57//80
f 52//81 53//81 59//81
f 52//82 59//82 58//82
f 53//83 54//83 60//83
f 53//84 60//84 59//84
f 54//85 55//85 61//85
f 54//86 61//86 60//86
f 55//87 56//87 62//87
f 55//88 62//88 61//88
f 56//89 51//89 57//89
f 56//90 57//90 62//90
f 57//91 58//91 64//91
f 58//92 59//92 65//92
f 59//93 60//93 66//93
f 60//94 61//94 67//94
f 61//95 62//95 68//95
f 62//96 57//96 63//96
