mtllib Food_Gochujang.mtl
v 0.8000 0.0000 0.0000
v 0.6928 0.0000 0.4000
v 0.4000 0.0000 0.6928
v 0.0000 0.0000 0.8000
v -0.4000 0.0000 0.6928
v -0.6928 0.0000 0.4000
v -0.8000 0.0000 0.0000
v -0.6928 0.0000 -0.4000
v -0.4000 0.0000 -0.6928
v -0.0000 0.0000 -0.8000
v 0.4000 0.0000 -0.6928
v 0.6928 0.0000 -0.4000
v 0.9000 0.8000 0.0000
v 0.7794 0.8000 0.4500
v 0.4500 0.8000 0.7794
v 0.0000 0.8000 0.9000
v -0.4500 0.8000 0.7794
v -0.7794 0.8000 0.4500
v -0.9000 0.8000 0.0000
v -0.7794 0.8000 -0.4500
v -0.4500 0.8000 -0.7794
v -0.0000 0.8000 -0.9000
v 0.4500 0.8000 -0.7794
v 0.7794 0.8000 -0.4500
v 0.0000 0.0000 0.0000
v 0.0000 0.8000 0.0000
v 0.9200 0.8000 0.0000
v 0.7967 0.8000 0.4600
v 0.4600 0.8000 0.7967
v 0.0000 0.8000 0.9200
v -0.4600 0.8000 0.7967
v -0.7967 0.8000 0.4600
v -0.9200 0.8000 0.0000
v -0.7967 0.8000 -0.4600
v -0.4600 0.8000 -0.7967
v -0.0000 0.8000 -0.9200
v 0.4600 0.8000 -0.7967
v 0.7967 0.8000 -0.4600
v 0.9200 0.9800 0.0000
v 0.7967 0.9800 0.4600
v 0.4600 0.9800 0.7967
v 0.0000 0.9800 0.9200
v -0.4600 0.9800 0.7967
v -0.7967 0.9800 0.4600
v -0.9200 0.9800 0.0000
v -0.7967 0.9800 -0.4600
v -0.4600 0.9800 -0.7967
v -0.0000 0.9800 -0.9200
v 0.4600 0.9800 -0.7967
v 0.7967 0.9800 -0.4600
v 0.0000 0.8000 0.0000
v 0.0000 0.9800 0.0000
v 0.8600 0.2200 0.0000
v 0.7448 0.2200 0.4300
v 0.4300 0.2200 0.7448
v 0.0000 0.2200 0.8600
v -0.4300 0.2200 0.7448
v -0.7448 0.2200 0.4300
v -0.8600 0.2200 0.0000
v -0.7448 0.2200 -0.4300
v -0.4300 0.2200 -0.7448
v -0.0000 0.2200 -0.8600
v 0.4300 0.2200 -0.7448
v 0.7448 0.2200 -0.4300
v 0.8900 0.6000 0.0000
v 0.7708 0.6000 0.4450
v 0.4450 0.6000 0.7708
v 0.0000 0.6000 0.8900
v -0.4450 0.6000 0.7708
v -0.7708 0.6000 0.4450
v -0.8900 0.6000 0.0000
v -0.7708 0.6000 -0.4450
v -0.4450 0.6000 -0.7708
v -0.0000 0.6000 -0.8900
v 0.4450 0.6000 -0.7708
v 0.7708 0.6000 -0.4450
v 0.0000 0.2800 0.8800
v 0.0000 0.2800 0.8800
v 0.0000 0.2800 0.8800
v 0.0000 0.2800 0.8800
v 0.0000 0.2800 0.8800
v 0.0000 0.2800 0.8800
v 0.2598 0.3500 0.8800
v 0.1299 0.3500 0.9100
v -0.1299 0.3500 0.9100
v -0.2598 0.3500 0.8800
v -0.1299 0.3500 0.8500
v 0.1299 0.3500 0.8500
v 0.2598 0.4900 0.8800
v 0.1299 0.4900 0.9100
v -0.1299 0.4900 0.9100
v -0.2598 0.4900 0.8800
v -0.1299 0.4900 0.8500
v 0.1299 0.4900 0.8500
v 0.0000 0.5600 0.8800
v 0.0000 0.5600 0.8800
v -0.0000 0.5600 0.8800
v -0.0000 0.5600 0.8800
v -0.0000 0.5600 0.8800
v 0.0000 0.5600 0.8800
vn -0.9590 0.1199 -0.2570
vn -0.9590 0.1199 -0.2570
vn -0.7020 0.1199 -0.7020
vn -0.7020 0.1199 -0.7020
vn -0.2570 0.1199 -0.9590
vn -0.2570 0.1199 -0.9590
vn 0.2570 0.1199 -0.9590
vn 0.2570 0.1199 -0.9590
vn 0.7020 0.1199 -0.7020
vn 0.7020 0.1199 -0.7020
vn 0.9590 0.1199 -0.2570
vn 0.9590 0.1199 -0.2570
vn 0.9590 0.1199 0.2570
vn 0.9590 0.1199 0.2570
vn 0.7020 0.1199 0.7020
vn 0.7020 0.1199 0.7020
vn 0.2570 0.1199 0.9590
vn 0.2570 0.1199 0.9590
vn -0.2570 0.1199 0.9590
vn -0.2570 0.1199 0.9590
vn -0.7020 0.1199 0.7020
vn -0.7020 0.1199 0.7020
vn -0.9590 0.1199 0.2570
vn -0.9590 0.1199 0.2570
vn 0.0000 -1.0000 0.0000
vn 0.0000 -1.0000 0.0000
vn 0.0000 -1.0000 0.0000
vn 0.0000 -1.0000 0.0000
vn 0.0000 -1.0000 0.0000
vn 0.0000 -1.0000 0.0000
vn -0.0000 -1.0000 0.0000
vn 0.0000 -1.0000 0.0000
vn 0.0000 -1.0000 0.0000
vn 0.0000 -1.0000 -0.0000
vn 0.0000 -1.0000 0.0000
vn 0.0000 -1.0000 0.0000
vn 0.0000 -1.0000 0.0000
vn 0.0000 -1.0000 0.0000
vn 0.0000 -1.0000 0.0000
vn 0.0000 -1.0000 0.0000
vn 0.0000 -1.0000 0.0000
vn 0.0000 -1.0000 0.0000
vn -0.0000 -1.0000 0.0000
vn 0.0000 -1.0000 0.0000
vn 0.0000 -1.0000 0.0000
vn 0.0000 -1.0000 -0.0000
vn 0.0000 -1.0000 0.0000
vn 0.0000 -1.0000 0.0000
vn -0.9659 0.0000 -0.2588
vn -0.9659 0.0000 -0.2588
vn -0.7071 0.0000 -0.7071
vn -0.7071 0.0000 -0.7071
vn -0.2588 0.0000 -0.9659
vn -0.2588 0.0000 -0.9659
vn 0.2588 0.0000 -0.9659
vn 0.2588 0.0000 -0.9659
vn 0.7071 0.0000 -0.7071
vn 0.7071 0.0000 -0.7071
vn 0.9659 0.0000 -0.2588
vn 0.9659 0.0000 -0.2588
vn 0.9659 0.0000 0.2588
vn 0.9659 -0.0000 0.2588
vn 0.7071 0.0000 0.7071
vn 0.7071 -0.0000 0.7071
vn 0.2588 0.0000 0.9659
vn 0.2588 -0.0000 0.9659
vn -0.2588 0.0000 0.9659
vn -0.2588 0.0000 0.9659
vn -0.7071 0.0000 0.7071
vn -0.7071 0.0000 0.7071
vn -0.9659 0.0000 0.2588
vn -0.9659 0.0000 0.2588
vn 0.0000 -1.0000 0.0000
vn 0.0000 -1.0000 0.0000
vn 0.0000 -1.0000 0.0000
vn 0.0000 -1.0000 0.0000
vn 0.0000 -1.0000 0.0000
vn 0.0000 -1.0000 0.0000
vn -0.0000 -1.0000 0.0000
vn 0.0000 -1.0000 0.0000
vn 0.0000 -1.0000 0.0000
vn 0.0000 -1.0000 -0.0000
vn 0.0000 -1.0000 0.0000
vn 0.0000 -1.0000 0.0000
vn 0.0000 -1.0000 0.0000
vn 0.0000 -1.0000 0.0000
vn 0.0000 -1.0000 0.0000
vn 0.0000 -1.0000 0.0000
vn 0.0000 -1.0000 0.0000
vn 0.0000 -1.0000 0.0000
vn -0.0000 -1.0000 0.0000
vn 0.0000 -1.0000 0.0000
vn 0.0000 -1.0000 0.0000
vn 0.0000 -1.0000 -0.0000
vn 0.0000 -1.0000 0.0000
vn 0.0000 -1.0000 0.0000
vn -0.9631 0.0760 -0.2581
vn -0.9631 0.0760 -0.2581
vn -0.7051 0.0760 -0.7051
vn -0.7051 0.0760 -0.7051
vn -0.2581 0.0760 -0.9631
vn -0.2581 0.0760 -0.9631
vn 0.2581 0.0760 -0.9631
vn 0.2581 0.0760 -0.9631
vn 0.7051 0.0760 -0.7051
vn 0.7051 0.0760 -0.7051
vn 0.9631 0.0760 -0.2581
vn 0.9631 0.0760 -0.2581
vn 0.9631 0.0760 0.2581
vn 0.9631 0.0760 0.2581
vn 0.7051 0.0760 0.7051
vn 0.7051 0.0760 0.7051
vn 0.2581 0.0760 0.9631
vn 0.2581 0.0760 0.9631
vn -0.2581 0.0760 0.9631
vn -0.2581 0.0760 0.9631
vn -0.7051 0.0760 0.7051
vn -0.7051 0.0760 0.7051
vn -0.9631 0.0760 0.2581
vn -0.9631 0.0760 0.2581
vn -0.1727 0.6410 -0.7478
vn 0.0000 0.3939 -0.9191
vn 0.1727 0.6410 -0.7478
vn 0.1727 0.6410 0.7478
vn 0.0000 0.3939 0.9191
vn -0.1727 0.6410 0.7478
vn -0.2250 0.0000 -0.9744
vn -0.2250 0.0000 -0.9744
vn 0.0000 0.0000 -1.0000
vn 0.0000 0.0000 -1.0000
vn 0.2250 0.0000 -0.9744
vn 0.2250 0.0000 -0.9744
vn 0.2250 0.0000 0.9744
vn 0.2250 0.0000 0.9744
vn 0.0000 0.0000 1.0000
vn 0.0000 -0.0000 1.0000
vn -0.2250 0.0000 0.9744
vn -0.2250 0.0000 0.9744
vn -0.1727 -0.6410 -0.7478
vn -0.0000 -0.3939 -0.9191
vn 0.1727 -0.6410 -0.7478
vn 0.1727 -0.6410 0.7478
vn 0.0000 -0.3939 0.9191
vn -0.1727 -0.6410 0.7478
usemtl c0
f 1//1 2//1 14//1
f 1//2 14//2 13//2
f 2//3 3//3 15//3
f 2//4 15//4 14//4
f 3//5 4//5 16//5
f 3//6 16//6 15//6
f 4//7 5//7 17//7
f 4//8 17//8 16//8
f 5//9 6//9 18//9
f 5//10 18//10 17//10
f 6//11 7//11 19//11
f 6//12 19//12 18//12
f 7//13 8//13 20//13
f 7//14 20//14 19//14
f 8//15 9//15 21//15
f 8//16 21//16 20//16
f 9//17 10//17 22//17
f 9//18 22//18 21//18
f 10//19 11//19 23//19
f 10//20 23//20 22//20
f 11//21 12//21 24//21
f 11//22 24//22 23//22
f 12//23 1//23 13//23
f 12//24 13//24 24//24
f 25//25 1//25 2//25
f 25//26 2//26 3//26
f 25//27 3//27 4//27
f 25//28 4//28 5//28
f 25//29 5//29 6//29
f 25//30 6//30 7//30
f 25//31 7//31 8//31
f 25//32 8//32 9//32
f 25//33 9//33 10//33
f 25//34 10//34 11//34
f 25//35 11//35 12//35
f 25//36 12//36 1//36
f 26//37 13//37 14//37
f 26//38 14//38 15//38
f 26//39 15//39 16//39
f 26//40 16//40 17//40
f 26//41 17//41 18//41
f 26//42 18//42 19//42
f 26//43 19//43 20//43
f 26//44 20//44 21//44
f 26//45 21//45 22//45
f 26//46 22//46 23//46
f 26//47 23//47 24//47
f 26//48 24//48 13//48
usemtl c1
f 27//49 28//49 40//49
f 27//50 40//50 39//50
f 28//51 29//51 41//51
f 28//52 41//52 40//52
f 29//53 30//53 42//53
f 29//54 42//54 41//54
f 30//55 31//55 43//55
f 30//56 43//56 42//56
f 31//57 32//57 44//57
f 31//58 44//58 43//58
f 32//59 33//59 45//59
f 32//60 45//60 44//60
f 33//61 34//61 46//61
f 33//62 46//62 45//62
f 34//63 35//63 47//63
f 34//64 47//64 46//64
f 35//65 36//65 48//65
f 35//66 48//66 47//66
f 36//67 37//67 49//67
f 36//68 49//68 48//68
f 37//69 38//69 50//69
f 37//70 50//70 49//70
f 38//71 27//71 39//71
f 38//72 39//72 50//72
f 51//73 27//73 28//73
f 51//74 28//74 29//74
f 51//75 29//75 30//75
f 51//76 30//76 31//76
f 51//77 31//77 32//77
f 51//78 32//78 33//78
f 51//79 33//79 34//79
f 51//80 34//80 35//80
f 51//81 35//81 36//81
f 51//82 36//82 37//82
f 51//83 37//83 38//83
f 51//84 38//84 27//84
f 52//85 39//85 40//85
f 52//86 40//86 41//86
f 52//87 41//87 42//87
f 52//88 42//88 43//88
f 52//89 43//89 44//89
f 52//90 44//90 45//90
f 52//91 45//91 46//91
f 52//92 46//92 47//92
f 52//93 47//93 48//93
f 52//94 48//94 49//94
f 52//95 49//95 50//95
f 52//96 50//96 39//96
usemtl c2
f 53//97 54//97 66//97
f 53//98 66//98 65//98
f 54//99 55//99 67//99
f 54//100 67//100 66//100
f 55//101 56//101 68//101
f 55//102 68//102 67//102
f 56//103 57//103 69//103
f 56//104 69//104 68//104
f 57//105 58//105 70//105
f 57//106 70//106 69//106
f 58//107 59//107 71//107
f 58//108 71//108 70//108
f 59//109 60//109 72//109
f 59//110 72//110 71//110
f 60//111 61//111 73//111
f 60//112 73//112 72//112
f 61//113 62//113 74//113
f 61//114 74//114 73//114
f 62//115 63//115 75//115
f 62//116 75//116 74//116
f 63//117 64//117 76//117
f 63//118 76//118 75//118
f 64//119 53//119 65//119
f 64//120 65//120 76//120
usemtl c0
f 77//121 84//121 83//121
f 78//122 85//122 84//122
f 79//123 86//123 85//123
f 80//124 87//124 86//124
f 81//125 88//125 87//125
f 82//126 83//126 88//126
f 83//127 84//127 90//127
f 83//128 90//128 89//128
f 84//129 85//129 91//129
f 84//130 91//130 90//130
f 85//131 86//131 92//131
f 85//132 92//132 91//132
f 86//133 87//133 93//133
f 86//134 93//134 92//134
f 87//135 88//135 94//135
f 87//136 94//136 93//136
f 88//137 83//137 89//137
f 88//138 89//138 94//138
f 89//139 90//139 96//139
f 90//140 91//140 97//140
f 91//141 92//141 98//141
f 92//142 93//142 99//142
f 93//143 94//143 100//143
f 94//144 89//144 95//144
