mtllib Food_Shrimp.mtl
v -0.7322 0.3070 0.0000
v -0.7793 0.3010 0.1145
v -0.8928 0.2866 0.1619
v -1.0064 0.2722 0.1145
v -1.0534 0.2662 0.0000
v -1.0064 0.2722 -0.1145
v -0.8928 0.2866 -0.1619
v -0.7793 0.3010 -0.1145
v -0.5676 0.1498 0.0000
v -0.6425 0.1167 0.1978
v -0.8235 0.0369 0.2797
v -1.0045 -0.0429 0.1978
v -1.0795 -0.0759 0.0000
v -1.0045 -0.0429 -0.1978
v -0.8235 0.0369 -0.2797
v -0.6425 0.1167 -0.1978
v -0.4565 0.0123 0.0000
v -0.5237 -0.0448 0.2129
v -0.6860 -0.1826 0.3011
v -0.8482 -0.3205 0.2129
v -0.9155 -0.3776 0.0000
v -0.8482 -0.3205 -0.2129
v -0.6860 -0.1826 -0.3011
v -0.5237 -0.0448 -0.2129
v -0.3365 -0.1161 0.0000
v -0.3819 -0.1857 0.2007
v -0.4915 -0.3539 0.2839
v -0.6012 -0.5221 0.2007
v -0.6466 -0.5917 0.0000
v -0.6012 -0.5221 -0.2007
v -0.4915 -0.3539 -0.2839
v -0.3819 -0.1857 -0.2007
v -0.1808 -0.2085 0.0000
v -0.2030 -0.2830 0.1875
v -0.2564 -0.4627 0.2652
v -0.3098 -0.6425 0.1875
v -0.3320 -0.7169 0.0000
v -0.3098 -0.6425 -0.1875
v -0.2564 -0.4627 -0.2652
v -0.2030 -0.2830 -0.1875
v 0.0000 -0.2535 0.0000
v 0.0000 -0.3257 0.1743
v 0.0000 -0.5000 0.2465
v 0.0000 -0.6743 0.1743
v 0.0000 -0.7465 0.0000
v 0.0000 -0.6743 -0.1743
v 0.0000 -0.5000 -0.2465
v 0.0000 -0.3257 -0.1743
v 0.1915 -0.2443 0.0000
v 0.2105 -0.3083 0.1611
v 0.2564 -0.4627 0.2278
v 0.3023 -0.6171 0.1611
v 0.3213 -0.6811 0.0000
v 0.3023 -0.6171 -0.1611
v 0.2564 -0.4627 -0.2278
v 0.2105 -0.3083 -0.1611
v 0.3773 -0.1788 0.0000
v 0.4108 -0.2301 0.1479
v 0.4915 -0.3539 0.2091
v 0.5723 -0.4778 0.1479
v 0.6058 -0.5291 0.0000
v 0.5723 -0.4778 -0.1479
v 0.4915 -0.3539 -0.2091
v 0.4108 -0.2301 -0.1479
v 0.5408 -0.0594 0.0000
v 0.5833 -0.0955 0.1346
v 0.6860 -0.1826 0.1904
v 0.7886 -0.2698 0.1346
v 0.8311 -0.3059 0.0000
v 0.7886 -0.2698 -0.1346
v 0.6860 -0.1826 -0.1904
v 0.5833 -0.0955 -0.1346
v 0.6664 0.1062 0.0000
v 0.7124 0.0859 0.1214
v 0.8235 0.0369 0.1717
v 0.9346 -0.0120 0.1214
v 0.9806 -0.0323 0.0000
v 0.9346 -0.0120 -0.1214
v 0.8235 0.0369 -0.1717
v 0.7124 0.0859 -0.1214
v 0.7410 0.3059 0.0000
v 0.7855 0.3002 0.1082
v 0.8928 0.2866 0.1530
v 1.0002 0.2730 0.1082
v 1.0446 0.2673 0.0000
v 1.0002 0.2730 -0.1082
v 0.8928 0.2866 -0.1530
v 0.7855 0.3002 -0.1082
v -0.8928 0.2866 0.0000
v 0.8928 0.2866 0.0000
v 0.8894 0.2650 -0.2000
v 0.8894 0.2650 -0.2000
v 0.8894 0.2650 -0.2000
v 0.8894 0.2650 -0.2000
v 0.8894 0.2650 -0.2000
v 1.0296 0.0922 -0.0975
v 0.9362 0.2538 -0.0937
v 0.8200 0.4551 -0.2368
v 0.8415 0.4178 -0.3290
v 0.9710 0.1935 -0.2430
v 1.0902 0.1272 -0.0975
v 0.9969 0.2888 -0.0937
v 0.8807 0.4901 -0.2368
v 0.9022 0.4528 -0.3290
v 1.0317 0.2285 -0.2430
v 1.0106 0.3350 -0.2000
v 1.0106 0.3350 -0.2000
v 1.0106 0.3350 -0.2000
v 1.0106 0.3350 -0.2000
v 1.0106 0.3350 -0.2000
v 0.8894 0.2650 0.0000
v 0.8894 0.2650 0.0000
v 0.8894 0.2650 0.0000
v 0.8894 0.2650 0.0000
v 0.8894 0.2650 0.0000
v 1.0409 0.0725 0.0000
v 0.9572 0.2176 0.0824
v 0.8216 0.4524 0.0509
v 0.8216 0.4524 -0.0509
v 0.9572 0.2176 -0.0824
v 1.1016 0.1075 0.0000
v 1.0178 0.2526 0.0824
v 0.8822 0.4874 0.0509
v 0.8822 0.4874 -0.0509
v 1.0178 0.2526 -0.0824
v 1.0106 0.3350 0.0000
v 1.0106 0.3350 0.0000
v 1.0106 0.3350 0.0000
v 1.0106 0.3350 -0.0000
v 1.0106 0.3350 -0.0000
v 0.8894 0.2650 0.2000
v 0.8894 0.2650 0.2000
v 0.8894 0.2650 0.2000
v 0.8894 0.2650 0.2000
v 0.8894 0.2650 0.2000
v 1.0296 0.0922 0.0975
v 0.9710 0.1935 0.2430
v 0.8415 0.4178 0.3290
v 0.8200 0.4551 0.2368
v 0.9362 0.2538 0.0937
v 1.0902 0.1272 0.0975
v 1.0317 0.2285 0.2430
v 0.9022 0.4528 0.3290
v 0.8807 0.4901 0.2368
v 0.9969 0.2888 0.0937
v 1.0106 0.3350 0.2000
v 1.0106 0.3350 0.2000
v 1.0106 0.3350 0.2000
v 1.0106 0.3350 0.2000
v 1.0106 0.3350 0.2000
v -0.8500 0.2700 0.2000
v -0.8500 0.2700 0.2000
v -0.8500 0.2700 0.2000
v -0.8500 0.2700 0.2000
v -0.7800 0.3400 0.2000
v -0.8500 0.3400 0.2700
v -0.9200 0.3400 0.2000
v -0.8500 0.3400 0.1300
v -0.8500 0.4100 0.2000
v -0.8500 0.4100 0.2000
v -0.8500 0.4100 0.2000
v -0.8500 0.4100 0.2000
v -0.8854 0.3198 0.0044
v -0.9035 0.2828 0.0178
v -0.9112 0.2975 -0.0222
v -1.5854 0.7698 0.3044
v -1.6035 0.7328 0.3178
v -1.6112 0.7475 0.2778
v -0.9000 0.3000 0.0000
v -1.6000 0.7500 0.3000
v -0.8895 0.3218 -0.0062
v -0.9106 0.2972 0.0225
v -0.8998 0.2810 -0.0162
v -1.5895 0.5718 -0.3062
v -1.6106 0.5472 -0.2775
v -1.5998 0.5310 -0.3162
v -0.9000 0.3000 0.0000
v -1.6000 0.5500 -0.3000
vn 0.6877 0.6533 0.3167
vn 0.6450 0.6755 0.3573
vn 0.2877 0.4729 0.8328
vn 0.1620 0.5038 0.8485
vn -0.3997 0.2321 0.8868
vn -0.4903 0.2569 0.8328
vn -0.9240 0.0703 0.3760
vn -0.9363 0.0845 0.3408
vn -0.9226 0.0934 -0.3742
vn -0.9366 0.0713 -0.3431
vn -0.3998 0.2981 -0.8668
vn -0.4815 0.2214 -0.8480
vn 0.2607 0.5516 -0.7923
vn 0.1889 0.4615 -0.8668
vn 0.6574 0.6885 -0.3061
vn 0.6634 0.6554 -0.3610
vn 0.7305 0.5724 0.3725
vn 0.7186 0.5808 0.3826
vn 0.2940 0.2735 0.9158
vn 0.2635 0.2804 0.9230
vn -0.3529 -0.1483 0.9239
vn -0.3743 -0.1453 0.9158
vn -0.8121 -0.4415 0.3816
vn -0.8163 -0.4390 0.3754
vn -0.8142 -0.4375 -0.3817
vn -0.8142 -0.4427 -0.3757
vn -0.3587 -0.1347 -0.9237
vn -0.3660 -0.1560 -0.9174
vn 0.2835 0.2941 -0.9127
vn 0.2777 0.2640 -0.9237
vn 0.7221 0.5837 -0.3712
vn 0.7267 0.5706 -0.3824
vn 0.6678 0.6388 0.3821
vn 0.6779 0.6334 0.3731
vn 0.2958 0.2429 0.9239
vn 0.3207 0.2435 0.9153
vn -0.2216 -0.3270 0.9187
vn -0.2037 -0.3240 0.9239
vn -0.5772 -0.7246 0.3765
vn -0.5731 -0.7253 0.3813
vn -0.5746 -0.7268 -0.3763
vn -0.5760 -0.7231 -0.3812
vn -0.2140 -0.3351 -0.9176
vn -0.2136 -0.3175 -0.9239
vn 0.3072 0.2293 -0.9236
vn 0.3055 0.2546 -0.9176
vn 0.6751 0.6309 -0.3823
vn 0.6698 0.6414 -0.3741
vn 0.4628 0.7999 0.3822
vn 0.4737 0.7979 0.3727
vn 0.2188 0.3141 0.9238
vn 0.2431 0.3230 0.9147
vn -0.1150 -0.3791 0.9182
vn -0.0978 -0.3701 0.9238
vn -0.3425 -0.8609 0.3762
vn -0.3381 -0.8603 0.3815
vn -0.3392 -0.8623 -0.3759
vn -0.3417 -0.8589 -0.3814
vn -0.1051 -0.3849 -0.9170
vn -0.1096 -0.3667 -0.9239
vn 0.2336 0.3043 -0.9235
vn 0.2253 0.3293 -0.9170
vn 0.4717 0.7945 -0.3824
vn 0.4639 0.8032 -0.3737
vn 0.2142 0.8989 0.3822
vn 0.2241 0.9004 0.3730
vn 0.1202 0.3635 0.9238
vn 0.1394 0.3789 0.9149
vn -0.0015 -0.3963 0.9181
vn 0.0117 -0.3827 0.9238
vn -0.0823 -0.9229 0.3761
vn -0.0784 -0.9210 0.3815
vn -0.0789 -0.9233 -0.3759
vn -0.0821 -0.9208 -0.3814
vn 0.0089 -0.3989 -0.9170
vn 0.0001 -0.3827 -0.9239
vn 0.1357 0.3587 -0.9235
vn 0.1221 0.3798 -0.9170
vn 0.2231 0.8967 -0.3824
vn 0.2144 0.9024 -0.3738
vn -0.0522 0.9226 0.3822
vn -0.0443 0.9267 0.3732
vn 0.0117 0.3827 0.9238
vn 0.0242 0.4026 0.9151
vn 0.1121 -0.3803 0.9181
vn 0.1202 -0.3635 0.9238
vn 0.1849 -0.9079 0.3761
vn 0.1879 -0.9051 0.3815
vn 0.1881 -0.9074 -0.3759
vn 0.1845 -0.9058 -0.3814
vn 0.1221 -0.3798 -0.9170
vn 0.1098 -0.3666 -0.9239
vn 0.0264 0.3826 -0.9236
vn 0.0089 0.3989 -0.9170
vn -0.0441 0.9230 -0.3823
vn -0.0530 0.9259 -0.3739
vn -0.3143 0.8690 0.3821
vn -0.3088 0.8748 0.3734
vn -0.0978 0.3701 0.9238
vn -0.0928 0.3921 0.9152
vn 0.2165 -0.3323 0.9180
vn 0.2188 -0.3141 0.9238
vn 0.4367 -0.8173 0.3760
vn 0.4386 -0.8137 0.3815
vn 0.4394 -0.8159 -0.3758
vn 0.4356 -0.8153 -0.3814
vn 0.2253 -0.3293 -0.9170
vn 0.2103 -0.3198 -0.9239
vn -0.0851 0.3738 -0.9236
vn -0.1051 0.3849 -0.9170
vn -0.3075 0.8714 -0.3823
vn -0.3160 0.8719 -0.3740
vn -0.5500 0.7427 0.3821
vn -0.5470 0.7492 0.3736
vn -0.1992 0.3269 0.9238
vn -0.2016 0.3484 0.9154
vn 0.3028 -0.2565 0.9179
vn 0.2992 -0.2388 0.9238
vn 0.6521 -0.6584 0.3760
vn 0.6527 -0.6545 0.3816
vn 0.6542 -0.6564 -0.3757
vn 0.6505 -0.6568 -0.3815
vn 0.3097 -0.2515 -0.9170
vn 0.2931 -0.2461 -0.9239
vn -0.1892 0.3333 -0.9236
vn -0.2104 0.3390 -0.9170
vn -0.5449 0.7463 -0.3822
vn -0.5523 0.7449 -0.3741
vn -0.7396 0.5541 0.3821
vn -0.7390 0.5605 0.3738
vn -0.2841 0.2567 0.9238
vn -0.2931 0.2753 0.9156
vn 0.3637 -0.1590 0.9178
vn 0.3549 -0.1436 0.9238
vn 0.8131 -0.4445 0.3759
vn 0.8125 -0.4408 0.3816
vn 0.8144 -0.4422 -0.3757
vn 0.8111 -0.4434 -0.3815
vn 0.3685 -0.1528 -0.9170
vn 0.3514 -0.1517 -0.9239
vn -0.2772 0.2646 -0.9237
vn -0.2983 0.2650 -0.9170
vn -0.7363 0.5584 -0.3822
vn -0.7424 0.5556 -0.3742
vn -0.8672 0.3193 0.3820
vn -0.8687 0.3247 0.3739
vn -0.3454 0.1651 0.9238
vn -0.3596 0.1791 0.9157
vn 0.3942 -0.0481 0.9177
vn 0.3811 -0.0366 0.9238
vn 0.9063 -0.1935 0.3758
vn 0.9045 -0.1903 0.3816
vn 0.9068 -0.1911 -0.3756
vn 0.9040 -0.1930 -0.3815
vn 0.3968 -0.0415 -0.9170
vn 0.3801 -0.0445 -0.9239
vn -0.3416 0.1735 -0.9237
vn -0.3614 0.1690 -0.9170
vn -0.8656 0.3236 -0.3821
vn -0.8704 0.3199 -0.3743
vn 0.1260 -0.9920 0.0000
vn 0.1260 -0.9920 0.0000
vn 0.1260 -0.9920 0.0000
vn 0.1260 -0.9920 -0.0000
vn 0.1260 -0.9920 0.0000
vn 0.1260 -0.9920 0.0000
vn 0.1260 -0.9920 0.0000
vn 0.1260 -0.9920 0.0000
vn 0.1260 0.9920 -0.0000
vn 0.1260 0.9920 -0.0000
vn 0.1260 0.9920 -0.0000
vn 0.1260 0.9920 0.0000
vn 0.1260 0.9920 -0.0000
vn 0.1260 0.9920 0.0000
vn 0.1260 0.9920 0.0000
vn 0.1260 0.9920 0.0000
vn 0.8199 0.4807 -0.3109
vn 0.8944 0.2552 -0.3674
vn 0.9322 0.3544 0.0742
vn 0.7132 0.5689 0.4095
vn 0.7020 0.6850 0.1949
vn -0.0103 0.0178 -0.9998
vn -0.0103 0.0178 -0.9998
vn 0.2621 -0.4540 -0.8516
vn 0.2621 -0.4540 -0.8516
vn 0.4532 -0.7849 0.4226
vn 0.4532 -0.7849 0.4226
vn -0.1577 0.2731 0.9490
vn -0.1577 0.2731 0.9490
vn -0.3895 0.6747 0.6269
vn -0.3895 0.6747 0.6269
vn -0.8263 -0.4697 -0.3109
vn -0.6682 -0.6470 -0.3674
vn -0.7730 -0.6301 0.0742
vn -0.8493 -0.3332 0.4095
vn -0.9442 -0.2654 0.1949
vn 0.7545 0.5940 -0.2791
vn 0.8061 0.4080 -0.4286
vn 0.9404 0.3401 0.0000
vn 0.8061 0.4080 0.4286
vn 0.7545 0.5940 0.2791
vn -0.2206 0.3820 -0.8974
vn -0.2206 0.3820 -0.8974
vn 0.0576 -0.0998 -0.9933
vn 0.0576 -0.0998 -0.9933
vn 0.5000 -0.8660 0.0000
vn 0.5000 -0.8660 -0.0000
vn 0.0576 -0.0998 0.9933
vn 0.0576 -0.0998 0.9933
vn -0.2206 0.3820 0.8974
vn -0.2206 0.3820 0.8974
vn -0.8917 -0.3564 -0.2791
vn -0.7564 -0.4941 -0.4286
vn -0.7647 -0.6443 0.0000
vn -0.7564 -0.4941 0.4286
vn -0.8917 -0.3564 0.2791
vn 0.7020 0.6850 -0.1949
vn 0.7132 0.5689 -0.4095
vn 0.9322 0.3544 -0.0742
vn 0.8944 0.2552 0.3674
vn 0.8199 0.4807 0.3109
vn -0.3895 0.6747 -0.6269
vn -0.3895 0.6747 -0.6269
vn -0.1577 0.2731 -0.9490
vn -0.1577 0.2731 -0.9490
vn 0.4532 -0.7849 -0.4226
vn 0.4532 -0.7849 -0.4226
vn 0.2621 -0.4540 0.8516
vn 0.2621 -0.4540 0.8516
vn -0.0103 0.0178 0.9998
vn -0.0103 0.0178 0.9998
vn -0.9442 -0.2654 -0.1949
vn -0.8493 -0.3332 -0.4095
vn -0.7730 -0.6301 -0.0742
vn -0.6682 -0.6470 0.3674
vn -0.8263 -0.4697 0.3109
vn -0.5774 0.5774 -0.5774
vn 0.5774 0.5774 -0.5774
vn 0.5774 0.5774 0.5774
vn -0.5774 0.5774 0.5774
vn -0.5774 -0.5774 -0.5774
vn 0.5774 -0.5774 -0.5774
vn 0.5774 -0.5774 0.5774
vn -0.5774 -0.5774 0.5774
vn -0.4465 -0.1020 -0.8889
vn -0.4465 -0.1020 -0.8889
vn 0.5849 0.7913 0.1779
vn 0.5849 0.7913 0.1779
vn -0.1384 -0.6894 0.7111
vn -0.1384 -0.6894 0.7111
vn 0.7913 -0.5087 -0.3391
vn 0.7913 -0.5087 -0.3391
vn 0.7913 -0.5087 -0.3391
vn 0.7913 -0.5087 -0.3391
vn 0.7913 -0.5087 -0.3391
vn 0.7913 -0.5087 -0.3391
vn 0.0064 -0.7608 -0.6490
vn 0.0064 -0.7608 -0.6490
vn 0.4187 0.8733 -0.2491
vn 0.4187 0.8733 -0.2491
vn -0.4251 -0.1125 0.8981
vn -0.4251 -0.1125 0.8981
vn 0.8733 -0.3119 0.3743
vn 0.8733 -0.3119 0.3743
vn 0.8733 -0.3119 0.3743
vn 0.8733 -0.3119 0.3743
vn 0.8733 -0.3119 0.3743
vn 0.8733 -0.3119 0.3743
usemtl c0
f 1//1 2//1 10//1
f 1//2 10//2 9//2
f 2//3 3//3 11//3
f 2//4 11//4 10//4
f 3//5 4//5 12//5
f 3//6 12//6 11//6
f 4//7 5//7 13//7
f 4//8 13//8 12//8
f 5//9 6//9 14//9
f 5//10 14//10 13//10
f 6//11 7//11 15//11
f 6//12 15//12 14//12
f 7//13 8//13 16//13
f 7//14 16//14 15//14
f 8//15 1//15 9//15
f 8//16 9//16 16//16
f 9//17 10//17 18//17
f 9//18 18//18 17//18
f 10//19 11//19 19//19
f 10//20 19//20 18//20
f 11//21 12//21 20//21
f 11//22 20//22 19//22
f 12//23 13//23 21//23
f 12//24 21//24 20//24
f 13//25 14//25 22//25
f 13//26 22//26 21//26
f 14//27 15//27 23//27
f 14//28 23//28 22//28
f 15//29 16//29 24//29
f 15//30 24//30 23//30
f 16//31 9//31 17//31
f 16//32 17//32 24//32
f 17//33 18//33 26//33
f 17//34 26//34 25//34
f 18//35 19//35 27//35
f 18//36 27//36 26//36
f 19//37 20//37 28//37
f 19//38 28//38 27//38
f 20//39 21//39 29//39
f 20//40 29//40 28//40
f 21//41 22//41 30//41
f 21//42 30//42 29//42
f 22//43 23//43 31//43
f 22//44 31//44 30//44
f 23//45 24//45 32//45
f 23//46 32//46 31//46
f 24//47 17//47 25//47
f 24//48 25//48 32//48
f 25//49 26//49 34//49
f 25//50 34//50 33//50
f 26//51 27//51 35//51
f 26//52 35//52 34//52
f 27//53 28//53 36//53
f 27//54 36//54 35//54
f 28//55 29//55 37//55
f 28//56 37//56 36//56
f 29//57 30//57 38//57
f 29//58 38//58 37//58
f 30//59 31//59 39//59
f 30//60 39//60 38//60
f 31//61 32//61 40//61
f 31//62 40//62 39//62
f 32//63 25//63 33//63
f 32//64 33//64 40//64
f 33//65 34//65 42//65
f 33//66 42//66 41//66
f 34//67 35//67 43//67
f 34//68 43//68 42//68
f 35//69 36//69 44//69
f 35//70 44//70 43//70
f 36//71 37//71 45//71
f 36//72 45//72 44//72
f 37//73 38//73 46//73
f 37//74 46//74 45//74
f 38//75 39//75 47//75
f 38//76 47//76 46//76
f 39//77 40//77 48//77
f 39//78 48//78 47//78
f 40//79 33//79 41//79
f 40//80 41//80 48//80
f 41//81 42//81 50//81
f 41//82 50//82 49//82
f 42//83 43//83 51//83
f 42//84 51//84 50//84
f 43//85 44//85 52//85
f 43//86 52//86 51//86
f 44//87 45//87 53//87
f 44//88 53//88 52//88
f 45//89 46//89 54//89
f 45//90 54//90 53//90
f 46//91 47//91 55//91
f 46//92 55//92 54//92
f 47//93 48//93 56//93
f 47//94 56//94 55//94
f 48//95 41//95 49//95
f 48//96 49//96 56//96
f 49//97 50//97 58//97
f 49//98 58//98 57//98
f 50//99 51//99 59//99
f 50//100 59//100 58//100
f 51//101 52//101 60//101
f 51//102 60//102 59//102
f 52//103 53//103 61//103
f 52//104 61//104 60//104
f 53//105 54//105 62//105
f 53//106 62//106 61//106
f 54//107 55//107 63//107
f 54//108 63//108 62//108
f 55//109 56//109 64//109
f 55//110 64//110 63//110
f 56//111 49//111 57//111
f 56//112 57//112 64//112
f 57//113 58//113 66//113
f 57//114 66//114 65//114
f 58//115 59//115 67//115
f 58//116 67//116 66//116
f 59//117 60//117 68//117
f 59//118 68//118 67//118
f 60//119 61//119 69//119
f 60//120 69//120 68//120
f 61//121 62//121 70//121
f 61//122 70//122 69//122
f 62//123 63//123 71//123
f 62//124 71//124 70//124
f 63//125 64//125 72//125
f 63//126 72//126 71//126
f 64//127 57//127 65//127
f 64//128 65//128 72//128
f 65//129 66//129 74//129
f 65//130 74//130 73//130
f 66//131 67//131 75//131
f 66//132 75//132 74//132
f 67//133 68//133 76//133
f 67//134 76//134 75//134
f 68//135 69//135 77//135
f 68//136 77//136 76//136
f 69//137 70//137 78//137
f 69//138 78//138 77//138
f 70//139 71//139 79//139
f 70//140 79//140 78//140
f 71//141 72//141 80//141
f 71//142 80//142 79//142
f 72//143 65//143 73//143
f 72//144 73//144 80//144
f 73//145 74//145 82//145
f 73//146 82//146 81//146
f 74//147 75//147 83//147
f 74//148 83//148 82//148
f 75//149 76//149 84//149
f 75//150 84//150 83//150
f 76//151 77//151 85//151
f 76//152 85//152 84//152
f 77//153 78//153 86//153
f 77//154 86//154 85//154
f 78//155 79//155 87//155
f 78//156 87//156 86//156
f 79//157 80//157 88//157
f 79//158 88//158 87//158
f 80//159 73//159 81//159
f 80//160 81//160 88//160
f 89//161 1//161 2//161
f 89//162 2//162 3//162
f 89//163 3//163 4//163
f 89//164 4//164 5//164
f 89//165 5//165 6//165
f 89//166 6//166 7//166
f 89//167 7//167 8//167
f 89//168 8//168 1//168
f 90//169 81//169 82//169
f 90//170 82//170 83//170
f 90//171 83//171 84//171
f 90//172 84//172 85//172
f 90//173 85//173 86//173
f 90//174 86//174 87//174
f 90//175 87//175 88//175
f 90//176 88//176 81//176
usemtl c1
f 91//177 97//177 96//177
f 92//178 98//178 97//178
f 93//179 99//179 98//179
f 94//180 100//180 99//180
f 95//181 96//181 100//181
f 96//182 97//182 102//182
f 96//183 102//183 101//183
f 97//184 98//184 103//184
f 97//185 103//185 102//185
f 98//186 99//186 104//186
f 98//187 104//187 103//187
f 99//188 100//188 105//188
f 99//189 105//189 104//189
f 100//190 96//190 101//190
f 100//191 101//191 105//191
f 101//192 102//192 107//192
f 102//193 103//193 108//193
f 103//194 104//194 109//194
f 104//195 105//195 110//195
f 105//196 101//196 106//196
f 111//197 117//197 116//197
f 112//198 118//198 117//198
f 113//199 119//199 118//199
f 114//200 120//200 119//200
f 115//201 116//201 120//201
f 116//202 117//202 122//202
f 116//203 122//203 121//203
f 117//204 118//204 123//204
f 117//205 123//205 122//205
f 118//206 119//206 124//206
f 118//207 124//207 123//207
f 119//208 120//208 125//208
f 119//209 125//209 124//209
f 120//210 116//210 121//210
f 120//211 121//211 125//211
f 121//212 122//212 127//212
f 122//213 123//213 128//213
f 123//214 124//214 129//214
f 124//215 125//215 130//215
f 125//216 121//216 126//216
f 131//217 137//217 136//217
f 132//218 138//218 137//218
f 133//219 139//219 138//219
f 134//220 140//220 139//220
f 135//221 136//221 140//221
f 136//222 137//222 142//222
f 136//223 142//223 141//223
f 137//224 138//224 143//224
f 137//225 143//225 142//225
f 138//226 139//226 144//226
f 138//227 144//227 143//227
f 139//228 140//228 145//228
f 139//229 145//229 144//229
f 140//230 136//230 141//230
f 140//231 141//231 145//231
f 141//232 142//232 147//232
f 142//233 143//233 148//233
f 143//234 144//234 149//234
f 144//235 145//235 150//235
f 145//236 141//236 146//236
usemtl c2
f 151//237 156//237 155//237
f 152//238 157//238 156//238
f 153//239 158//239 157//239
f 154//240 155//240 158//240
f 155//241 156//241 160//241
f 156//242 157//242 161//242
f 157//243 158//243 162//243
f 158//244 155//244 159//244
usemtl c1
f 163//245 164//245 167//245
f 163//246 167//246 166//246
f 164//247 165//247 168//247
f 164//248 168//248 167//248
f 165//249 163//249 166//249
f 165//250 166//250 168//250
f 169//251 163//251 164//251
f 169//252 164//252 165//252
f 169//253 165//253 163//253
f 170//254 166//254 167//254
f 170//255 167//255 168//255
f 170//256 168//256 166//256
f 171//257 172//257 175//257
f 171//258 175//258 174//258
f 172//259 173//259 176//259
f 172//260 176//260 175//260
f 173//261 171//261 174//261
f 173//262 174//262 176//262
f 177//263 171//263 172//263
f 177//264 172//264 173//264
f 177//265 173//265 171//265
f 178//266 174//266 175//266
f 178//267 175//267 176//267
f 178//268 176//268 174//268
