mtllib Food_Jajangmyeon.mtl
v 0.0000 0.0000 0.0000
v 0.0000 0.0000 0.0000
v 0.0000 0.0000 0.0000
v 0.0000 0.0000 0.0000
v 0.0000 0.0000 0.0000
v 0.0000 0.0000 0.0000
v 0.0000 0.0000 0.0000
v 0.0000 0.0000 0.0000
v 0.0000 0.0000 0.0000
v 0.0000 0.0000 0.0000
v 0.0000 0.0000 0.0000
v 0.0000 0.0000 0.0000
v 0.4200 0.0000 0.0000
v 0.3637 0.0000 0.2100
v 0.2100 0.0000 0.3637
v 0.0000 0.0000 0.4200
v -0.2100 0.0000 0.3637
v -0.3637 0.0000 0.2100
v -0.4200 0.0000 0.0000
v -0.3637 0.0000 -0.2100
v -0.2100 0.0000 -0.3637
v -0.0000 0.0000 -0.4200
v 0.2100 0.0000 -0.3637
v 0.3637 0.0000 -0.2100
v 0.5000 0.0500 0.0000
v 0.4330 0.0500 0.2500
v 0.2500 0.0500 0.4330
v 0.0000 0.0500 0.5000
v -0.2500 0.0500 0.4330
v -0.4330 0.0500 0.2500
v -0.5000 0.0500 0.0000
v -0.4330 0.0500 -0.2500
v -0.2500 0.0500 -0.4330
v -0.0000 0.0500 -0.5000
v 0.2500 0.0500 -0.4330
v 0.4330 0.0500 -0.2500
v 0.8000 0.2800 0.0000
v 0.6928 0.2800 0.4000
v 0.4000 0.2800 0.6928
v 0.0000 0.2800 0.8000
v -0.4000 0.2800 0.6928
v -0.6928 0.2800 0.4000
v -0.8000 0.2800 0.0000
v -0.6928 0.2800 -0.4000
v -0.4000 0.2800 -0.6928
v -0.0000 0.2800 -0.8000
v 0.4000 0.2800 -0.6928
v 0.6928 0.2800 -0.4000
v 1.0000 0.7000 0.0000
v 0.8660 0.7000 0.5000
v 0.5000 0.7000 0.8660
v 0.0000 0.7000 1.0000
v -0.5000 0.7000 0.8660
v -0.8660 0.7000 0.5000
v -1.0000 0.7000 0.0000
v -0.8660 0.7000 -0.5000
v -0.5000 0.7000 -0.8660
v -0.0000 0.7000 -1.0000
v 0.5000 0.7000 -0.8660
v 0.8660 0.7000 -0.5000
v 0.9300 0.6800 0.0000
v 0.8054 0.6800 0.4650
v 0.4650 0.6800 0.8054
v 0.0000 0.6800 0.9300
v -0.4650 0.6800 0.8054
v -0.8054 0.6800 0.4650
v -0.9300 0.6800 0.0000
v -0.8054 0.6800 -0.4650
v -0.4650 0.6800 -0.8054
v -0.0000 0.6800 -0.9300
v 0.4650 0.6800 -0.8054
v 0.8054 0.6800 -0.4650
v 1.0200 0.6800 0.0000
v 0.8833 0.6800 0.5100
v 0.5100 0.6800 0.8833
v 0.0000 0.6800 1.0200
v -0.5100 0.6800 0.8833
v -0.8833 0.6800 0.5100
v -1.0200 0.6800 0.0000
v -0.8833 0.6800 -0.5100
v -0.5100 0.6800 -0.8833
v -0.0000 0.6800 -1.0200
v 0.5100 0.6800 -0.8833
v 0.8833 0.6800 -0.5100
v 1.0200 0.7500 0.0000
v 0.8833 0.7500 0.5100
v 0.5100 0.7500 0.8833
v 0.0000 0.7500 1.0200
v -0.5100 0.7500 0.8833
v -0.8833 0.7500 0.5100
v -1.0200 0.7500 0.0000
v -0.8833 0.7500 -0.5100
v -0.5100 0.7500 -0.8833
v -0.0000 0.7500 -1.0200
v 0.5100 0.7500 -0.8833
v 0.8833 0.7500 -0.5100
v 0.9300 0.7500 0.0000
v 0.8054 0.7500 0.4650
v 0.4650 0.7500 0.8054
v 0.0000 0.7500 0.9300
v -0.4650 0.7500 0.8054
v -0.8054 0.7500 0.4650
v -0.9300 0.7500 0.0000
v -0.8054 0.7500 -0.4650
v -0.4650 0.7500 -0.8054
v -0.0000 0.7500 -0.9300
v 0.4650 0.7500 -0.8054
v 0.8054 0.7500 -0.4650
v 0.9400 0.7000 0.0000
v 0.8141 0.7000 0.4700
v 0.4700 0.7000 0.8141
v 0.0000 0.7000 0.9400
v -0.4700 0.7000 0.8141
v -0.8141 0.7000 0.4700
v -0.9400 0.7000 0.0000
v -0.8141 0.7000 -0.4700
v -0.4700 0.7000 -0.8141
v -0.0000 0.7000 -0.9400
v 0.4700 0.7000 -0.8141
v 0.8141 0.7000 -0.4700
v 0.7000 0.2780 0.0000
v 0.6062 0.2780 0.3500
v 0.3500 0.2780 0.6062
v 0.0000 0.2780 0.7000
v -0.3500 0.2780 0.6062
v -0.6062 0.2780 0.3500
v -0.7000 0.2780 0.0000
v -0.6062 0.2780 -0.3500
v -0.3500 0.2780 -0.6062
v -0.0000 0.2780 -0.7000
v 0.3500 0.2780 -0.6062
v 0.6062 0.2780 -0.3500
v 0.0000 0.2100 0.0000
v 0.0000 0.2100 0.0000
v 0.0000 0.2100 0.0000
v 0.0000 0.2100 0.0000
v 0.0000 0.2100 0.0000
v 0.0000 0.2100 0.0000
v 0.0000 0.2100 0.0000
v 0.0000 0.2100 0.0000
v 0.0000 0.2100 0.0000
v 0.0000 0.2100 0.0000
v 0.0000 0.2100 0.0000
v 0.0000 0.2100 0.0000
v 0.8600 0.4660 0.0000
v 0.7448 0.4660 0.4300
v 0.4300 0.4660 0.7448
v 0.0000 0.4660 0.8600
v -0.4300 0.4660 0.7448
v -0.7448 0.4660 0.4300
v -0.8600 0.4660 0.0000
v -0.7448 0.4660 -0.4300
v -0.4300 0.4660 -0.7448
v -0.0000 0.4660 -0.8600
v 0.4300 0.4660 -0.7448
v 0.7448 0.4660 -0.4300
v 0.8600 0.5160 0.0000
v 0.7448 0.5160 0.4300
v 0.4300 0.5160 0.7448
v 0.0000 0.5160 0.8600
v -0.4300 0.5160 0.7448
v -0.7448 0.5160 0.4300
v -0.8600 0.5160 0.0000
v -0.7448 0.5160 -0.4300
v -0.4300 0.5160 -0.7448
v -0.0000 0.5160 -0.8600
v 0.4300 0.5160 -0.7448
v 0.7448 0.5160 -0.4300
v 0.0000 0.4660 0.0000
v 0.0000 0.5160 0.0000
v 0.0000 0.0860 0.0000
v 0.0000 0.0860 0.0000
v 0.0000 0.0860 0.0000
v 0.0000 0.0860 0.0000
v 0.0000 0.0860 0.0000
v 0.0000 0.0860 0.0000
v 0.0000 0.0860 0.0000
v 0.0000 0.0860 0.0000
v 0.5233 0.2149 0.0000
v 0.3700 0.2149 0.3700
v 0.0000 0.2149 0.5233
v -0.3700 0.2149 0.3700
v -0.5233 0.2149 0.0000
v -0.3700 0.2149 -0.3700
v -0.0000 0.2149 -0.5233
v 0.3700 0.2149 -0.3700
v 0.7400 0.5260 0.0000
v 0.5233 0.5260 0.5233
v 0.0000 0.5260 0.7400
v -0.5233 0.5260 0.5233
v -0.7400 0.5260 0.0000
v -0.5233 0.5260 -0.5233
v -0.0000 0.5260 -0.7400
v 0.5233 0.5260 -0.5233
v 0.5233 0.8371 0.0000
v 0.3700 0.8371 0.3700
v 0.0000 0.8371 0.5233
v -0.3700 0.8371 0.3700
v -0.5233 0.8371 0.0000
v -0.3700 0.8371 -0.3700
v -0.0000 0.8371 -0.5233
v 0.3700 0.8371 -0.3700
v 0.0000 0.9660 0.0000
v 0.0000 0.9660 0.0000
v 0.0000 0.9660 0.0000
v -0.0000 0.9660 0.0000
v -0.0000 0.9660 0.0000
v -0.0000 0.9660 -0.0000
v -0.0000 0.9660 -0.0000
v 0.0000 0.9660 -0.0000
v -0.2500 0.8460 0.1500
v -0.2500 0.8460 0.1500
v -0.2500 0.8460 0.1500
v -0.2500 0.8460 0.1500
v -0.2500 0.8460 0.1500
v -0.0768 0.8760 0.1500
v -0.1965 0.8760 0.2488
v -0.3901 0.8760 0.2111
v -0.3901 0.8760 0.0889
v -0.1965 0.8760 0.0512
v -0.0768 0.9360 0.1500
v -0.1965 0.9360 0.2488
v -0.3901 0.9360 0.2111
v -0.3901 0.9360 0.0889
v -0.1965 0.9360 0.0512
v -0.2500 0.9660 0.1500
v -0.2500 0.9660 0.1500
v -0.2500 0.9660 0.1500
v -0.2500 0.9660 0.1500
v -0.2500 0.9660 0.1500
v -0.2372 0.8163 -0.1133
v -0.2633 0.8282 -0.0730
v -0.2628 0.8757 -0.0867
v -0.2367 0.8638 -0.1270
v 0.2628 0.8963 0.1867
v 0.2367 0.9082 0.2270
v 0.2372 0.9557 0.2133
v 0.2633 0.9438 0.1730
v -0.2500 0.8460 -0.1000
v 0.2500 0.9260 0.2000
v -0.2890 0.9161 -0.1144
v -0.3144 0.9280 -0.0736
v -0.3110 0.9759 -0.0856
v -0.2856 0.9640 -0.1264
v 0.2110 0.9561 0.1856
v 0.1856 0.9680 0.2264
v 0.1890 1.0159 0.2144
v 0.2144 1.0040 0.1736
v -0.3000 0.9460 -0.1000
v 0.2000 0.9860 0.2000
v -0.0822 0.8188 -0.1129
v -0.1129 0.8256 -0.0747
v -0.1178 0.8732 -0.0871
v -0.0871 0.8664 -0.1253
v 0.3178 0.9388 0.1871
v 0.2871 0.9456 0.2253
v 0.2822 0.9932 0.2129
v 0.3129 0.9864 0.1747
v -0.1000 0.8460 -0.1000
v 0.3000 0.9660 0.2000
vn 0.0000 1.0000 0.0000
vn 0.0000 1.0000 0.0000
vn 0.0000 1.0000 0.0000
vn 0.0000 1.0000 -0.0000
vn 0.0000 1.0000 0.0000
vn 0.0000 1.0000 0.0000
vn 0.0000 1.0000 0.0000
vn 0.0000 1.0000 0.0000
vn 0.0000 1.0000 0.0000
vn 0.0000 1.0000 0.0000
vn 0.0000 1.0000 0.0000
vn -0.0000 1.0000 0.0000
vn -0.5247 0.8396 -0.1406
vn -0.5247 0.8396 -0.1406
vn -0.3841 0.8396 -0.3841
vn -0.3841 0.8396 -0.3841
vn -0.1406 0.8396 -0.5247
vn -0.1406 0.8396 -0.5247
vn 0.1406 0.8396 -0.5247
vn 0.1406 0.8396 -0.5247
vn 0.3841 0.8396 -0.3841
vn 0.3841 0.8396 -0.3841
vn 0.5247 0.8396 -0.1406
vn 0.5247 0.8396 -0.1406
vn 0.5247 0.8396 0.1406
vn 0.5247 0.8396 0.1406
vn 0.3841 0.8396 0.3841
vn 0.3841 0.8396 0.3841
vn 0.1406 0.8396 0.5247
vn 0.1406 0.8396 0.5247
vn -0.1406 0.8396 0.5247
vn -0.1406 0.8396 0.5247
vn -0.3841 0.8396 0.3841
vn -0.3841 0.8396 0.3841
vn -0.5247 0.8396 0.1406
vn -0.5247 0.8396 0.1406
vn -0.6005 0.7833 -0.1609
vn -0.6005 0.7833 -0.1609
vn -0.4396 0.7833 -0.4396
vn -0.4396 0.7833 -0.4396
vn -0.1609 0.7833 -0.6005
vn -0.1609 0.7833 -0.6005
vn 0.1609 0.7833 -0.6005
vn 0.1609 0.7833 -0.6005
vn 0.4396 0.7833 -0.4396
vn 0.4396 0.7833 -0.4396
vn 0.6005 0.7833 -0.1609
vn 0.6005 0.7833 -0.1609
vn 0.6005 0.7833 0.1609
vn 0.6005 0.7833 0.1609
vn 0.4396 0.7833 0.4396
vn 0.4396 0.7833 0.4396
vn 0.1609 0.7833 0.6005
vn 0.1609 0.7833 0.6005
vn -0.1609 0.7833 0.6005
vn -0.1609 0.7833 0.6005
vn -0.4396 0.7833 0.4396
vn -0.4396 0.7833 0.4396
vn -0.6005 0.7833 0.1609
vn -0.6005 0.7833 0.1609
vn -0.8775 0.4179 -0.2351
vn -0.8775 0.4179 -0.2351
vn -0.6424 0.4179 -0.6424
vn -0.6424 0.4179 -0.6424
vn -0.2351 0.4179 -0.8775
vn -0.2351 0.4179 -0.8775
vn 0.2351 0.4179 -0.8775
vn 0.2351 0.4179 -0.8775
vn 0.6424 0.4179 -0.6424
vn 0.6424 0.4179 -0.6424
vn 0.8775 0.4179 -0.2351
vn 0.8775 0.4179 -0.2351
vn 0.8775 0.4179 0.2351
vn 0.8775 0.4179 0.2351
vn 0.6424 0.4179 0.6424
vn 0.6424 0.4179 0.6424
vn 0.2351 0.4179 0.8775
vn 0.2351 0.4179 0.8775
vn -0.2351 0.4179 0.8775
vn -0.2351 0.4179 0.8775
vn -0.6424 0.4179 0.6424
vn -0.6424 0.4179 0.6424
vn -0.8775 0.4179 0.2351
vn -0.8775 0.4179 0.2351
vn 0.0000 1.0000 0.0000
vn 0.0000 1.0000 -0.0000
vn 0.0000 1.0000 0.0000
vn 0.0000 1.0000 -0.0000
vn 0.0000 1.0000 0.0000
vn 0.0000 1.0000 -0.0000
vn 0.0000 1.0000 0.0000
vn 0.0000 1.0000 -0.0000
vn 0.0000 1.0000 0.0000
vn 0.0000 1.0000 0.0000
vn 0.0000 1.0000 0.0000
vn 0.0000 1.0000 0.0000
vn 0.0000 1.0000 0.0000
vn 0.0000 1.0000 0.0000
vn 0.0000 1.0000 0.0000
vn 0.0000 1.0000 0.0000
vn 0.0000 1.0000 0.0000
vn 0.0000 1.0000 0.0000
vn 0.0000 1.0000 0.0000
vn -0.0000 1.0000 0.0000
vn 0.0000 1.0000 0.0000
vn -0.0000 1.0000 0.0000
vn 0.0000 1.0000 0.0000
vn -0.0000 1.0000 0.0000
vn -0.9659 0.0000 -0.2588
vn -0.9659 0.0000 -0.2588
vn -0.7071 0.0000 -0.7071
vn -0.7071 0.0000 -0.7071
vn -0.2588 0.0000 -0.9659
vn -0.2588 0.0000 -0.9659
vn 0.2588 0.0000 -0.9659
vn 0.2588 0.0000 -0.9659
vn 0.7071 0.0000 -0.7071
vn 0.7071 0.0000 -0.7071
vn 0.9659 0.0000 -0.2588
vn 0.9659 0.0000 -0.2588
vn 0.9659 0.0000 0.2588
vn 0.9659 -0.0000 0.2588
vn 0.7071 0.0000 0.7071
vn 0.7071 -0.0000 0.7071
vn 0.2588 0.0000 0.9659
vn 0.2588 -0.0000 0.9659
vn -0.2588 0.0000 0.9659
vn -0.2588 0.0000 0.9659
vn -0.7071 0.0000 0.7071
vn -0.7071 0.0000 0.7071
vn -0.9659 0.0000 0.2588
vn -0.9659 0.0000 0.2588
vn 0.0000 -1.0000 0.0000
vn 0.0000 -1.0000 0.0000
vn 0.0000 -1.0000 0.0000
vn -0.0000 -1.0000 0.0000
vn 0.0000 -1.0000 0.0000
vn -0.0000 -1.0000 0.0000
vn 0.0000 -1.0000 0.0000
vn 0.0000 -1.0000 0.0000
vn 0.0000 -1.0000 0.0000
vn 0.0000 -1.0000 -0.0000
vn 0.0000 -1.0000 0.0000
vn 0.0000 -1.0000 -0.0000
vn 0.0000 -1.0000 0.0000
vn 0.0000 -1.0000 0.0000
vn 0.0000 -1.0000 0.0000
vn 0.0000 -1.0000 0.0000
vn 0.0000 -1.0000 0.0000
vn 0.0000 -1.0000 0.0000
vn 0.0000 -1.0000 0.0000
vn 0.0000 -1.0000 0.0000
vn 0.0000 -1.0000 0.0000
vn 0.0000 -1.0000 0.0000
vn 0.0000 -1.0000 0.0000
vn 0.0000 -1.0000 0.0000
vn 0.9659 0.0000 0.2588
vn 0.9659 0.0000 0.2588
vn 0.7071 0.0000 0.7071
vn 0.7071 0.0000 0.7071
vn 0.2588 0.0000 0.9659
vn 0.2588 0.0000 0.9659
vn -0.2588 0.0000 0.9659
vn -0.2588 0.0000 0.9659
vn -0.7071 0.0000 0.7071
vn -0.7071 0.0000 0.7071
vn -0.9659 0.0000 0.2588
vn -0.9659 0.0000 0.2588
vn -0.9659 0.0000 -0.2588
vn -0.9659 -0.0000 -0.2588
vn -0.7071 0.0000 -0.7071
vn -0.7071 -0.0000 -0.7071
vn -0.2588 0.0000 -0.9659
vn -0.2588 -0.0000 -0.9659
vn 0.2588 0.0000 -0.9659
vn 0.2588 0.0000 -0.9659
vn 0.7071 0.0000 -0.7071
vn 0.7071 0.0000 -0.7071
vn 0.9659 0.0000 -0.2588
vn 0.9659 0.0000 -0.2588
vn 0.8466 -0.4815 0.2268
vn 0.8466 -0.4815 0.2268
vn 0.6198 -0.4815 0.6198
vn 0.6198 -0.4815 0.6198
vn 0.2268 -0.4815 0.8466
vn 0.2268 -0.4815 0.8466
vn -0.2268 -0.4815 0.8466
vn -0.2268 -0.4815 0.8466
vn -0.6198 -0.4815 0.6198
vn -0.6198 -0.4815 0.6198
vn -0.8466 -0.4815 0.2268
vn -0.8466 -0.4815 0.2268
vn -0.8466 -0.4815 -0.2268
vn -0.8466 -0.4815 -0.2268
vn -0.6198 -0.4815 -0.6198
vn -0.6198 -0.4815 -0.6198
vn -0.2268 -0.4815 -0.8466
vn -0.2268 -0.4815 -0.8466
vn 0.2268 -0.4815 -0.8466
vn 0.2268 -0.4815 -0.8466
vn 0.6198 -0.4815 -0.6198
vn 0.6198 -0.4815 -0.6198
vn 0.8466 -0.4815 -0.2268
vn 0.8466 -0.4815 -0.2268
vn 0.0967 -0.9950 0.0259
vn 0.0708 -0.9950 0.0708
vn 0.0259 -0.9950 0.0967
vn -0.0259 -0.9950 0.0967
vn -0.0708 -0.9950 0.0708
vn -0.0967 -0.9950 0.0259
vn -0.0967 -0.9950 -0.0259
vn -0.0708 -0.9950 -0.0708
vn -0.0259 -0.9950 -0.0967
vn 0.0259 -0.9950 -0.0967
vn 0.0708 -0.9950 -0.0708
vn 0.0967 -0.9950 -0.0259
vn -0.9659 0.0000 -0.2588
vn -0.9659 0.0000 -0.2588
vn -0.7071 0.0000 -0.7071
vn -0.7071 0.0000 -0.7071
vn -0.2588 0.0000 -0.9659
vn -0.2588 0.0000 -0.9659
vn 0.2588 0.0000 -0.9659
vn 0.2588 0.0000 -0.9659
vn 0.7071 0.0000 -0.7071
vn 0.7071 0.0000 -0.7071
vn 0.9659 0.0000 -0.2588
vn 0.9659 0.0000 -0.2588
vn 0.9659 0.0000 0.2588
vn 0.9659 -0.0000 0.2588
vn 0.7071 0.0000 0.7071
vn 0.7071 -0.0000 0.7071
vn 0.2588 0.0000 0.9659
vn 0.2588 -0.0000 0.9659
vn -0.2588 0.0000 0.9659
vn -0.2588 0.0000 0.9659
vn -0.7071 0.0000 0.7071
vn -0.7071 0.0000 0.7071
vn -0.9659 0.0000 0.2588
vn -0.9659 0.0000 0.2588
vn 0.0000 -1.0000 0.0000
vn 0.0000 -1.0000 0.0000
vn 0.0000 -1.0000 0.0000
vn 0.0000 -1.0000 0.0000
vn 0.0000 -1.0000 0.0000
vn 0.0000 -1.0000 0.0000
vn -0.0000 -1.0000 0.0000
vn 0.0000 -1.0000 0.0000
vn 0.0000 -1.0000 0.0000
vn 0.0000 -1.0000 -0.0000
vn 0.0000 -1.0000 0.0000
vn 0.0000 -1.0000 0.0000
vn 0.0000 -1.0000 0.0000
vn 0.0000 -1.0000 0.0000
vn 0.0000 -1.0000 0.0000
vn 0.0000 -1.0000 0.0000
vn 0.0000 -1.0000 0.0000
vn 0.0000 -1.0000 0.0000
vn -0.0000 -1.0000 0.0000
vn 0.0000 -1.0000 0.0000
vn 0.0000 -1.0000 0.0000
vn 0.0000 -1.0000 -0.0000
vn 0.0000 -1.0000 0.0000
vn 0.0000 -1.0000 0.0000
vn -0.2380 0.9663 -0.0986
vn -0.0986 0.9663 -0.2380
vn 0.0986 0.9663 -0.2380
vn 0.2380 0.9663 -0.0986
vn 0.2380 0.9663 0.0986
vn 0.0986 0.9663 0.2380
vn -0.0986 0.9663 0.2380
vn -0.2380 0.9663 0.0986
vn -0.7769 0.5412 -0.3218
vn -0.7769 0.5412 -0.3218
vn -0.3218 0.5412 -0.7769
vn -0.3218 0.5412 -0.7769
vn 0.3218 0.5412 -0.7769
vn 0.3218 0.5412 -0.7769
vn 0.7769 0.5412 -0.3218
vn 0.7769 0.5412 -0.3218
vn 0.7769 0.5412 0.3218
vn 0.7769 0.5412 0.3218
vn 0.3218 0.5412 0.7769
vn 0.3218 0.5412 0.7769
vn -0.3218 0.5412 0.7769
vn -0.3218 0.5412 0.7769
vn -0.7769 0.5412 0.3218
vn -0.7769 0.5412 0.3218
vn -0.7769 -0.5412 -0.3218
vn -0.7769 -0.5412 -0.3218
vn -0.3218 -0.5412 -0.7769
vn -0.3218 -0.5412 -0.7769
vn 0.3218 -0.5412 -0.7769
vn 0.3218 -0.5412 -0.7769
vn 0.7769 -0.5412 -0.3218
vn 0.7769 -0.5412 -0.3218
vn 0.7769 -0.5412 0.3218
vn 0.7769 -0.5412 0.3218
vn 0.3218 -0.5412 0.7769
vn 0.3218 -0.5412 0.7769
vn -0.3218 -0.5412 0.7769
vn -0.3218 -0.5412 0.7769
vn -0.7769 -0.5412 0.3218
vn -0.7769 -0.5412 0.3218
vn -0.2380 -0.9663 -0.0986
vn -0.0986 -0.9663 -0.2380
vn 0.0986 -0.9663 -0.2380
vn 0.2380 -0.9663 -0.0986
vn 0.2380 -0.9663 0.0986
vn 0.0986 -0.9663 0.2380
vn -0.0986 -0.9663 0.2380
vn -0.2380 -0.9663 0.0986
vn -0.1671 0.9649 -0.2024
vn 0.0625 0.9451 -0.3207
vn 0.2093 0.9778 0.0000
vn 0.0625 0.9451 0.3207
vn -0.1671 0.9649 0.2024
vn -0.6368 0.0000 -0.7711
vn -0.6368 0.0000 -0.7711
vn 0.1913 0.0000 -0.9815
vn 0.1913 0.0000 -0.9815
vn 1.0000 0.0000 0.0000
vn 1.0000 -0.0000 0.0000
vn 0.1913 0.0000 0.9815
vn 0.1913 0.0000 0.9815
vn -0.6368 0.0000 0.7711
vn -0.6368 0.0000 0.7711
vn -0.1671 -0.9649 -0.2024
vn 0.0625 -0.9451 -0.3207
vn 0.2093 -0.9778 0.0000
vn 0.0625 -0.9451 0.3207
vn -0.1671 -0.9649 0.2024
vn 0.0117 0.9611 -0.2758
vn 0.0117 0.9611 -0.2758
vn 0.5274 -0.2403 -0.8149
vn 0.5274 -0.2403 -0.8149
vn -0.0117 -0.9611 0.2758
vn -0.0117 -0.9611 0.2758
vn -0.5274 0.2403 0.8149
vn -0.5274 0.2403 0.8149
vn -0.8495 -0.1359 -0.5097
vn -0.8495 -0.1359 -0.5097
vn -0.8495 -0.1359 -0.5097
vn -0.8495 -0.1359 -0.5097
vn -0.8495 -0.1359 -0.5097
vn -0.8495 -0.1359 -0.5097
vn -0.8495 -0.1359 -0.5097
vn -0.8495 -0.1359 -0.5097
vn 0.0679 0.9679 -0.2421
vn 0.0679 0.9679 -0.2421
vn 0.5134 -0.2420 -0.8234
vn 0.5134 -0.2420 -0.8234
vn -0.0679 -0.9679 0.2421
vn -0.0679 -0.9679 0.2421
vn -0.5134 0.2420 0.8234
vn -0.5134 0.2420 0.8234
vn -0.8555 -0.0684 -0.5133
vn -0.8555 -0.0684 -0.5133
vn -0.8555 -0.0684 -0.5133
vn -0.8555 -0.0684 -0.5133
vn -0.8555 -0.0684 -0.5133
vn -0.8555 -0.0684 -0.5133
vn -0.8555 -0.0684 -0.5133
vn -0.8555 -0.0684 -0.5133
vn -0.1000 0.9626 -0.2518
vn -0.1000 0.9626 -0.2518
vn 0.6204 -0.1375 -0.7722
vn 0.6204 -0.1375 -0.7722
vn 0.1000 -0.9626 0.2518
vn 0.1000 -0.9626 0.2518
vn -0.6204 0.1375 0.7722
vn -0.6204 0.1375 0.7722
vn -0.7779 -0.2334 -0.5834
vn -0.7779 -0.2334 -0.5834
vn -0.7779 -0.2334 -0.5834
vn -0.7779 -0.2334 -0.5834
vn -0.7779 -0.2334 -0.5834
vn -0.7779 -0.2334 -0.5834
vn -0.7779 -0.2334 -0.5834
vn -0.7779 -0.2334 -0.5834
usemtl c0
f 1//1 14//1 13//1
f 2//2 15//2 14//2
f 3//3 16//3 15//3
f 4//4 17//4 16//4
f 5//5 18//5 17//5
f 6//6 19//6 18//6
f 7//7 20//7 19//7
f 8//8 21//8 20//8
f 9//9 22//9 21//9
f 10//10 23//10 22//10
f 11//11 24//11 23//11
f 12//12 13//12 24//12
f 13//13 14//13 26//13
f 13//14 26//14 25//14
f 14//15 15//15 27//15
f 14//16 27//16 26//16
f 15//17 16//17 28//17
f 15//18 28//18 27//18
f 16//19 17//19 29//19
f 16//20 29//20 28//20
f 17//21 18//21 30//21
f 17//22 30//22 29//22
f 18//23 19//23 31//23
f 18//24 31//24 30//24
f 19//25 20//25 32//25
f 19//26 32//26 31//26
f 20//27 21//27 33//27
f 20//28 33//28 32//28
f 21//29 22//29 34//29
f 21//30 34//30 33//30
f 22//31 23//31 35//31
f 22//32 35//32 34//32
f 23//33 24//33 36//33
f 23//34 36//34 35//34
f 24//35 13//35 25//35
f 24//36 25//36 36//36
f 25//37 26//37 38//37
f 25//38 38//38 37//38
f 26//39 27//39 39//39
f 26//40 39//40 38//40
f 27//41 28//41 40//41
f 27//42 40//42 39//42
f 28//43 29//43 41//43
f 28//44 41//44 40//44
f 29//45 30//45 42//45
f 29//46 42//46 41//46
f 30//47 31//47 43//47
f 30//48 43//48 42//48
f 31//49 32//49 44//49
f 31//50 44//50 43//50
f 32//51 33//51 45//51
f 32//52 45//52 44//52
f 33//53 34//53 46//53
f 33//54 46//54 45//54
f 34//55 35//55 47//55
f 34//56 47//56 46//56
f 35//57 36//57 48//57
f 35//58 48//58 47//58
f 36//59 25//59 37//59
f 36//60 37//60 48//60
f 37//61 38//61 50//61
f 37//62 50//62 49//62
f 38//63 39//63 51//63
f 38//64 51//64 50//64
f 39//65 40//65 52//65
f 39//66 52//66 51//66
f 40//67 41//67 53//67
f 40//68 53//68 52//68
f 41//69 42//69 54//69
f 41//70 54//70 53//70
f 42//71 43//71 55//71
f 42//72 55//72 54//72
f 43//73 44//73 56//73
f 43//74 56//74 55//74
f 44//75 45//75 57//75
f 44//76 57//76 56//76
f 45//77 46//77 58//77
f 45//78 58//78 57//78
f 46//79 47//79 59//79
f 46//80 59//80 58//80
f 47//81 48//81 60//81
f 47//82 60//82 59//82
f 48//83 37//83 49//83
f 48//84 49//84 60//84
usemtl c1
f 61//85 62//85 74//85
f 61//86 74//86 73//86
f 62//87 63//87 75//87
f 62//88 75//88 74//88
f 63//89 64//89 76//89
f 63//90 76//90 75//90
f 64//91 65//91 77//91
f 64//92 77//92 76//92
f 65//93 66//93 78//93
f 65//94 78//94 77//94
f 66//95 67//95 79//95
f 66//96 79//96 78//96
f 67//97 68//97 80//97
f 67//98 80//98 79//98
f 68//99 69//99 81//99
f 68//100 81//100 80//100
f 69//101 70//101 82//101
f 69//102 82//102 81//102
f 70//103 71//103 83//103
f 70//104 83//104 82//104
f 71//105 72//105 84//105
f 71//106 84//106 83//106
f 72//107 61//107 73//107
f 72//108 73//108 84//108
f 73//109 74//109 86//109
f 73//110 86//110 85//110
f 74//111 75//111 87//111
f 74//112 87//112 86//112
f 75//113 76//113 88//113
f 75//114 88//114 87//114
f 76//115 77//115 89//115
f 76//116 89//116 88//116
f 77//117 78//117 90//117
f 77//118 90//118 89//118
f 78//119 79//119 91//119
f 78//120 91//120 90//120
f 79//121 80//121 92//121
f 79//122 92//122 91//122
f 80//123 81//123 93//123
f 80//124 93//124 92//124
f 81//125 82//125 94//125
f 81//126 94//126 93//126
f 82//127 83//127 95//127
f 82//128 95//128 94//128
f 83//129 84//129 96//129
f 83//130 96//130 95//130
f 84//131 73//131 85//131
f 84//132 85//132 96//132
f 85//133 86//133 98//133
f 85//134 98//134 97//134
f 86//135 87//135 99//135
f 86//136 99//136 98//136
f 87//137 88//137 100//137
f 87//138 100//138 99//138
f 88//139 89//139 101//139
f 88//140 101//140 100//140
f 89//141 90//141 102//141
f 89//142 102//142 101//142
f 90//143 91//143 103//143
f 90//144 103//144 102//144
f 91//145 92//145 104//145
f 91//146 104//146 103//146
f 92//147 93//147 105//147
f 92//148 105//148 104//148
f 93//149 94//149 106//149
f 93//150 106//150 105//150
f 94//151 95//151 107//151
f 94//152 107//152 106//152
f 95//153 96//153 108//153
f 95//154 108//154 107//154
f 96//155 85//155 97//155
f 96//156 97//156 108//156
f 97//157 98//157 62//157
f 97//158 62//158 61//158
f 98//159 99//159 63//159
f 98//160 63//160 62//160
f 99//161 100//161 64//161
f 99//162 64//162 63//162
f 100//163 101//163 65//163
f 100//164 65//164 64//164
f 101//165 102//165 66//165
f 101//166 66//166 65//166
f 102//167 103//167 67//167
f 102//168 67//168 66//168
f 103//169 104//169 68//169
f 103//170 68//170 67//170
f 104//171 105//171 69//171
f 104//172 69//172 68//172
f 105//173 106//173 70//173
f 105//174 70//174 69//174
f 106//175 107//175 71//175
f 106//176 71//176 70//176
f 107//177 108//177 72//177
f 107//178 72//178 71//178
f 108//179 97//179 61//179
f 108//180 61//180 72//180
usemtl c2
f 109//181 110//181 122//181
f 109//182 122//182 121//182
f 110//183 111//183 123//183
f 110//184 123//184 122//184
f 111//185 112//185 124//185
f 111//186 124//186 123//186
f 112//187 113//187 125//187
f 112//188 125//188 124//188
f 113//189 114//189 126//189
f 113//190 126//190 125//190
f 114//191 115//191 127//191
f 114//192 127//192 126//192
f 115//193 116//193 128//193
f 115//194 128//194 127//194
f 116//195 117//195 129//195
f 116//196 129//196 128//196
f 117//197 118//197 130//197
f 117//198 130//198 129//198
f 118//199 119//199 131//199
f 118//200 131//200 130//200
f 119//201 120//201 132//201
f 119//202 132//202 131//202
f 120//203 109//203 121//203
f 120//204 121//204 132//204
f 121//205 122//205 134//205
f 122//206 123//206 135//206
f 123//207 124//207 136//207
f 124//208 125//208 137//208
f 125//209 126//209 138//209
f 126//210 127//210 139//210
f 127//211 128//211 140//211
f 128//212 129//212 141//212
f 129//213 130//213 142//213
f 130//214 131//214 143//214
f 131//215 132//215 144//215
f 132//216 121//216 133//216
usemtl c3
f 145//217 146//217 158//217
f 145//218 158//218 157//218
f 146//219 147//219 159//219
f 146//220 159//220 158//220
f 147//221 148//221 160//221
f 147//222 160//222 159//222
f 148//223 149//223 161//223
f 148//224 161//224 160//224
f 149//225 150//225 162//225
f 149//226 162//226 161//226
f 150//227 151//227 163//227
f 150//228 163//228 162//228
f 151//229 152//229 164//229
f 151//230 164//230 163//230
f 152//231 153//231 165//231
f 152//232 165//232 164//232
f 153//233 154//233 166//233
f 153//234 166//234 165//234
f 154//235 155//235 167//235
f 154//236 167//236 166//236
f 155//237 156//237 168//237
f 155//238 168//238 167//238
f 156//239 145//239 157//239
f 156//240 157//240 168//240
f 169//241 145//241 146//241
f 169//242 146//242 147//242
f 169//243 147//243 148//243
f 169//244 148//244 149//244
f 169//245 149//245 150//245
f 169//246 150//246 151//246
f 169//247 151//247 152//247
f 169//248 152//248 153//248
f 169//249 153//249 154//249
f 169//250 154//250 155//250
f 169//251 155//251 156//251
f 169//252 156//252 145//252
f 170//253 157//253 158//253
f 170//254 158//254 159//254
f 170//255 159//255 160//255
f 170//256 160//256 161//256
f 170//257 161//257 162//257
f 170//258 162//258 163//258
f 170//259 163//259 164//259
f 170//260 164//260 165//260
f 170//261 165//261 166//261
f 170//262 166//262 167//262
f 170//263 167//263 168//263
f 170//264 168//264 157//264
usemtl c4
f 171//265 180//265 179//265
f 172//266 181//266 180//266
f 173//267 182//267 181//267
f 174//268 183//268 182//268
f 175//269 184//269 183//269
f 176//270 185//270 184//270
f 177//271 186//271 185//271
f 178//272 179//272 186//272
f 179//273 180//273 188//273
f 179//274 188//274 187//274
f 180//275 181//275 189//275
f 180//276 189//276 188//276
f 181//277 182//277 190//277
f 181//278 190//278 189//278
f 182//279 183//279 191//279
f 182//280 191//280 190//280
f 183//281 184//281 192//281
f 183//282 192//282 191//282
f 184//283 185//283 193//283
f 184//284 193//284 192//284
f 185//285 186//285 194//285
f 185//286 194//286 193//286
f 186//287 179//287 187//287
f 186//288 187//288 194//288
f 187//289 188//289 196//289
f 187//290 196//290 195//290
f 188//291 189//291 197//291
f 188//292 197//292 196//292
f 189//293 190//293 198//293
f 189//294 198//294 197//294
f 190//295 191//295 199//295
f 190//296 199//296 198//296
f 191//297 192//297 200//297
f 191//298 200//298 199//298
f 192//299 193//299 201//299
f 192//300 201//300 200//300
f 193//301 194//301 202//301
f 193//302 202//302 201//302
f 194//303 187//303 195//303
f 194//304 195//304 202//304
f 195//305 196//305 204//305
f 196//306 197//306 205//306
f 197//307 198//307 206//307
f 198//308 199//308 207//308
f 199//309 200//309 208//309
f 200//310 201//310 209//310
f 201//311 202//311 210//311
f 202//312 195//312 203//312
usemtl c5
f 211//313 217//313 216//313
f 212//314 218//314 217//314
f 213//315 219//315 218//315
f 214//316 220//316 219//316
f 215//317 216//317 220//317
f 216//318 217//318 222//318
f 216//319 222//319 221//319
f 217//320 218//320 223//320
f 217//321 223//321 222//321
f 218//322 219//322 224//322
f 218//323 224//323 223//323
f 219//324 220//324 225//324
f 219//325 225//325 224//325
f 220//326 216//326 221//326
f 220//327 221//327 225//327
f 221//328 222//328 227//328
f 222//329 223//329 228//329
f 223//330 224//330 229//330
f 224//331 225//331 230//331
f 225//332 221//332 226//332
usemtl c6
f 231//333 232//333 236//333
f 231//334 236//334 235//334
f 232//335 233//335 237//335
f 232//336 237//336 236//336
f 233//337 234//337 238//337
f 233//338 238//338 237//338
f 234//339 231//339 235//339
f 234//340 235//340 238//340
f 239//341 231//341 232//341
f 239//342 232//342 233//342
f 239//343 233//343 234//343
f 239//344 234//344 231//344
f 240//345 235//345 236//345
f 240//346 236//346 237//346
f 240//347 237//347 238//347
f 240//348 238//348 235//348
f 241//349 242//349 246//349
f 241//350 246//350 245//350
f 242//351 243//351 247//351
f 242//352 247//352 246//352
f 243//353 244//353 248//353
f 243//354 248//354 247//354
f 244//355 241//355 245//355
f 244//356 245//356 248//356
f 249//357 241//357 242//357
f 249//358 242//358 243//358
f 249//359 243//359 244//359
f 249//360 244//360 241//360
f 250//361 245//361 246//361
f 250//362 246//362 247//362
f 250//363 247//363 248//363
f 250//364 248//364 245//364
f 251//365 252//365 256//365
f 251//366 256//366 255//366
f 252//367 253//367 257//367
f 252//368 257//368 256//368
f 253//369 254//369 258//369
f 253//370 258//370 257//370
f 254//371 251//371 255//371
f 254//372 255//372 258//372
f 259//373 251//373 252//373
f 259//374 252//374 253//374
f 259//375 253//375 254//375
f 259//376 254//376 251//376
f 260//377 255//377 256//377
f 260//378 256//378 257//378
f 260//379 257//379 258//379
f 260//380 258//380 255//380
