mtllib Food_Bacon.mtl
v -0.9512 0.0000 -0.4836
v -0.8106 0.0000 -0.4187
v -0.6766 0.0000 -0.4486
v -0.5475 0.0000 -0.5473
v -0.4152 0.0000 -0.6010
v -0.2758 0.0000 -0.5532
v -0.1344 0.0000 -0.4771
v 0.0013 0.0000 -0.4817
v 0.1309 0.0000 -0.5733
v 0.2618 0.0000 -0.6471
v 0.3997 0.0000 -0.6211
v 0.5414 0.0000 -0.5405
v 0.6788 0.0000 -0.5201
v 0.8094 0.0000 -0.5981
v 0.9392 0.0000 -0.6870
v 0.9253 0.0000 -0.8865
v 0.7955 0.0000 -0.7976
v 0.6649 0.0000 -0.7197
v 0.5274 0.0000 -0.7400
v 0.3857 0.0000 -0.8206
v 0.2479 0.0000 -0.8466
v 0.1170 0.0000 -0.7728
v -0.0127 0.0000 -0.6812
v -0.1484 0.0000 -0.6766
v -0.2898 0.0000 -0.7528
v -0.4291 0.0000 -0.8005
v -0.5614 0.0000 -0.7468
v -0.6906 0.0000 -0.6482
v -0.8245 0.0000 -0.6182
v -0.9651 0.0000 -0.6831
v -0.9512 0.1000 -0.4836
v -0.8106 0.1000 -0.4187
v -0.6766 0.1000 -0.4486
v -0.5475 0.1000 -0.5473
v -0.4152 0.1000 -0.6010
v -0.2758 0.1000 -0.5532
v -0.1344 0.1000 -0.4771
v 0.0013 0.1000 -0.4817
v 0.1309 0.1000 -0.5733
v 0.2618 0.1000 -0.6471
v 0.3997 0.1000 -0.6211
v 0.5414 0.1000 -0.5405
v 0.6788 0.1000 -0.5201
v 0.8094 0.1000 -0.5981
v 0.9392 0.1000 -0.6870
v 0.9253 0.1000 -0.8865
v 0.7955 0.1000 -0.7976
v 0.6649 0.1000 -0.7197
v 0.5274 0.1000 -0.7400
v 0.3857 0.1000 -0.8206
v 0.2479 0.1000 -0.8466
v 0.1170 0.1000 -0.7728
v -0.0127 0.1000 -0.6812
v -0.1484 0.1000 -0.6766
v -0.2898 0.1000 -0.7528
v -0.4291 0.1000 -0.8005
v -0.5614 0.1000 -0.7468
v -0.6906 0.1000 -0.6482
v -0.8245 0.1000 -0.6182
v -0.9651 0.1000 -0.6831
v -0.0102 0.0000 -0.6463
v -0.0102 0.1000 -0.6463
v -0.9421 0.0000 -0.3539
v -0.8015 0.0000 -0.2890
v -0.6676 0.0000 -0.3190
v -0.5384 0.0000 -0.4176
v -0.4061 0.0000 -0.4713
v -0.2667 0.0000 -0.4236
v -0.1254 0.0000 -0.3474
v 0.0103 0.0000 -0.3520
v 0.1400 0.0000 -0.4436
v 0.2709 0.0000 -0.5174
v 0.4087 0.0000 -0.4914
v 0.5504 0.0000 -0.4108
v 0.6879 0.0000 -0.3905
v 0.8185 0.0000 -0.4684
v 0.9483 0.0000 -0.5573
v 0.9372 0.0000 -0.7169
v 0.8073 0.0000 -0.6280
v 0.6767 0.0000 -0.5501
v 0.5393 0.0000 -0.5704
v 0.3976 0.0000 -0.6510
v 0.2597 0.0000 -0.6770
v 0.1288 0.0000 -0.6032
v -0.0008 0.0000 -0.5116
v -0.1365 0.0000 -0.5070
v -0.2779 0.0000 -0.5832
v -0.4173 0.0000 -0.6309
v -0.5496 0.0000 -0.5773
v -0.6787 0.0000 -0.4786
v -0.8127 0.0000 -0.4486
v -0.9533 0.0000 -0.5135
v -0.9421 0.1300 -0.3539
v -0.8015 0.1300 -0.2890
v -0.6676 0.1300 -0.3190
v -0.5384 0.1300 -0.4176
v -0.4061 0.1300 -0.4713
v -0.2667 0.1300 -0.4236
v -0.1254 0.1300 -0.3474
v 0.0103 0.1300 -0.3520
v 0.1400 0.1300 -0.4436
v 0.2709 0.1300 -0.5174
v 0.4087 0.1300 -0.4914
v 0.5504 0.1300 -0.4108
v 0.6879 0.1300 -0.3905
v 0.8185 0.1300 -0.4684
v 0.9483 0.1300 -0.5573
v 0.9372 0.1300 -0.7169
v 0.8073 0.1300 -0.6280
v 0.6767 0.1300 -0.5501
v 0.5393 0.1300 -0.5704
v 0.3976 0.1300 -0.6510
v 0.2597 0.1300 -0.6770
v 0.1288 0.1300 -0.6032
v -0.0008 0.1300 -0.5116
v -0.1365 0.1300 -0.5070
v -0.2779 0.1300 -0.5832
v -0.4173 0.1300 -0.6309
v -0.5496 0.1300 -0.5773
v -0.6787 0.1300 -0.4786
v -0.8127 0.1300 -0.4486
v -0.9533 0.1300 -0.5135
v 0.0002 0.0000 -0.4967
v 0.0002 0.1300 -0.4967
v -0.9302 0.0000 -0.1843
v -0.7897 0.0000 -0.1194
v -0.6557 0.0000 -0.1494
v -0.5266 0.0000 -0.2481
v -0.3943 0.0000 -0.3017
v -0.2549 0.0000 -0.2540
v -0.1135 0.0000 -0.1778
v 0.0222 0.0000 -0.1824
v 0.1518 0.0000 -0.2740
v 0.2827 0.0000 -0.3478
v 0.4206 0.0000 -0.3218
v 0.5623 0.0000 -0.2412
v 0.6997 0.0000 -0.2209
v 0.8303 0.0000 -0.2988
v 0.9602 0.0000 -0.3877
v 0.9462 0.0000 -0.5872
v 0.8164 0.0000 -0.4983
v 0.6858 0.0000 -0.4204
v 0.5483 0.0000 -0.4407
v 0.4066 0.0000 -0.5213
v 0.2688 0.0000 -0.5473
v 0.1379 0.0000 -0.4735
v 0.0083 0.0000 -0.3819
v -0.1275 0.0000 -0.3773
v -0.2688 0.0000 -0.4535
v -0.4082 0.0000 -0.5012
v -0.5405 0.0000 -0.4476
v -0.6697 0.0000 -0.3489
v -0.8036 0.0000 -0.3189
v -0.9442 0.0000 -0.3839
v -0.9302 0.1000 -0.1843
v -0.7897 0.1000 -0.1194
v -0.6557 0.1000 -0.1494
v -0.5266 0.1000 -0.2481
v -0.3943 0.1000 -0.3017
v -0.2549 0.1000 -0.2540
v -0.1135 0.1000 -0.1778
v 0.0222 0.1000 -0.1824
v 0.1518 0.1000 -0.2740
v 0.2827 0.1000 -0.3478
v 0.4206 0.1000 -0.3218
v 0.5623 0.1000 -0.2412
v 0.6997 0.1000 -0.2209
v 0.8303 0.1000 -0.2988
v 0.9602 0.1000 -0.3877
v 0.9462 0.1000 -0.5872
v 0.8164 0.1000 -0.4983
v 0.6858 0.1000 -0.4204
v 0.5483 0.1000 -0.4407
v 0.4066 0.1000 -0.5213
v 0.2688 0.1000 -0.5473
v 0.1379 0.1000 -0.4735
v 0.0083 0.1000 -0.3819
v -0.1275 0.1000 -0.3773
v -0.2688 0.1000 -0.4535
v -0.4082 0.1000 -0.5012
v -0.5405 0.1000 -0.4476
v -0.6697 0.1000 -0.3489
v -0.8036 0.1000 -0.3189
v -0.9442 0.1000 -0.3839
v 0.0107 0.0000 -0.3470
v 0.0107 0.1000 -0.3470
v -0.9420 0.0000 0.3174
v -0.8133 0.0000 0.4035
v -0.6763 0.0000 0.3949
v -0.5333 0.0000 0.3176
v -0.3943 0.0000 0.2853
v -0.2641 0.0000 0.3543
v -0.1364 0.0000 0.4516
v -0.0016 0.0000 0.4683
v 0.1408 0.0000 0.3981
v 0.2816 0.0000 0.3457
v 0.4137 0.0000 0.3929
v 0.5410 0.0000 0.4947
v 0.6736 0.0000 0.5363
v 0.8148 0.0000 0.4797
v 0.9569 0.0000 0.4123
v 0.9744 0.0000 0.2130
v 0.8322 0.0000 0.2805
v 0.6910 0.0000 0.3371
v 0.5585 0.0000 0.2955
v 0.4311 0.0000 0.1937
v 0.2990 0.0000 0.1464
v 0.1582 0.0000 0.1989
v 0.0158 0.0000 0.2691
v -0.1189 0.0000 0.2524
v -0.2467 0.0000 0.1550
v -0.3769 0.0000 0.0861
v -0.5159 0.0000 0.1184
v -0.6589 0.0000 0.1956
v -0.7959 0.0000 0.2043
v -0.9246 0.0000 0.1182
v -0.9420 0.1000 0.3174
v -0.8133 0.1000 0.4035
v -0.6763 0.1000 0.3949
v -0.5333 0.1000 0.3176
v -0.3943 0.1000 0.2853
v -0.2641 0.1000 0.3543
v -0.1364 0.1000 0.4516
v -0.0016 0.1000 0.4683
v 0.1408 0.1000 0.3981
v 0.2816 0.1000 0.3457
v 0.4137 0.1000 0.3929
v 0.5410 0.1000 0.4947
v 0.6736 0.1000 0.5363
v 0.8148 0.1000 0.4797
v 0.9569 0.1000 0.4123
v 0.9744 0.1000 0.2130
v 0.8322 0.1000 0.2805
v 0.6910 0.1000 0.3371
v 0.5585 0.1000 0.2955
v 0.4311 0.1000 0.1937
v 0.2990 0.1000 0.1464
v 0.1582 0.1000 0.1989
v 0.0158 0.1000 0.2691
v -0.1189 0.1000 0.2524
v -0.2467 0.1000 0.1550
v -0.3769 0.1000 0.0861
v -0.5159 0.1000 0.1184
v -0.6589 0.1000 0.1956
v -0.7959 0.1000 0.2043
v -0.9246 0.1000 0.1182
v 0.0128 0.0000 0.3039
v 0.0128 0.1000 0.3039
v -0.9534 0.0000 0.4469
v -0.8247 0.0000 0.5330
v -0.6877 0.0000 0.5244
v -0.5447 0.0000 0.4471
v -0.4056 0.0000 0.4148
v -0.2754 0.0000 0.4838
v -0.1477 0.0000 0.5811
v -0.0129 0.0000 0.5978
v 0.1294 0.0000 0.5276
v 0.2703 0.0000 0.4752
v 0.4024 0.0000 0.5224
v 0.5297 0.0000 0.6242
v 0.6623 0.0000 0.6658
v 0.8035 0.0000 0.6093
v 0.9456 0.0000 0.5418
v 0.9595 0.0000 0.3824
v 0.8174 0.0000 0.4499
v 0.6762 0.0000 0.5064
v 0.5436 0.0000 0.4648
v 0.4163 0.0000 0.3630
v 0.2842 0.0000 0.3158
v 0.1434 0.0000 0.3682
v 0.0010 0.0000 0.4384
v -0.1338 0.0000 0.4217
v -0.2615 0.0000 0.3244
v -0.3917 0.0000 0.2554
v -0.5307 0.0000 0.2877
v -0.6737 0.0000 0.3650
v -0.8107 0.0000 0.3736
v -0.9394 0.0000 0.2875
v -0.9534 0.1300 0.4469
v -0.8247 0.1300 0.5330
v -0.6877 0.1300 0.5244
v -0.5447 0.1300 0.4471
v -0.4056 0.1300 0.4148
v -0.2754 0.1300 0.4838
v -0.1477 0.1300 0.5811
v -0.0129 0.1300 0.5978
v 0.1294 0.1300 0.5276
v 0.2703 0.1300 0.4752
v 0.4024 0.1300 0.5224
v 0.5297 0.1300 0.6242
v 0.6623 0.1300 0.6658
v 0.8035 0.1300 0.6093
v 0.9456 0.1300 0.5418
v 0.9595 0.1300 0.3824
v 0.8174 0.1300 0.4499
v 0.6762 0.1300 0.5064
v 0.5436 0.1300 0.4648
v 0.4163 0.1300 0.3630
v 0.2842 0.1300 0.3158
v 0.1434 0.1300 0.3682
v 0.0010 0.1300 0.4384
v -0.1338 0.1300 0.4217
v -0.2615 0.1300 0.3244
v -0.3917 0.1300 0.2554
v -0.5307 0.1300 0.2877
v -0.6737 0.1300 0.3650
v -0.8107 0.1300 0.3736
v -0.9394 0.1300 0.2875
v -0.0003 0.0000 0.4533
v -0.0003 0.1300 0.4533
v -0.9682 0.0000 0.6163
v -0.8395 0.0000 0.7024
v -0.7025 0.0000 0.6937
v -0.5595 0.0000 0.6165
v -0.4204 0.0000 0.5842
v -0.2902 0.0000 0.6531
v -0.1625 0.0000 0.7505
v -0.0277 0.0000 0.7672
v 0.1146 0.0000 0.6970
v 0.2554 0.0000 0.6445
v 0.3875 0.0000 0.6918
v 0.5149 0.0000 0.7935
v 0.6475 0.0000 0.8351
v 0.7886 0.0000 0.7786
v 0.9308 0.0000 0.7111
v 0.9482 0.0000 0.5119
v 0.8061 0.0000 0.5794
v 0.6649 0.0000 0.6359
v 0.5323 0.0000 0.5943
v 0.4050 0.0000 0.4925
v 0.2729 0.0000 0.4453
v 0.1321 0.0000 0.4977
v -0.0103 0.0000 0.5679
v -0.1451 0.0000 0.5512
v -0.2728 0.0000 0.4539
v -0.4030 0.0000 0.3849
v -0.5421 0.0000 0.4172
v -0.6851 0.0000 0.4945
v -0.8220 0.0000 0.5031
v -0.9507 0.0000 0.4170
v -0.9682 0.1000 0.6163
v -0.8395 0.1000 0.7024
v -0.7025 0.1000 0.6937
v -0.5595 0.1000 0.6165
v -0.4204 0.1000 0.5842
v -0.2902 0.1000 0.6531
v -0.1625 0.1000 0.7505
v -0.0277 0.1000 0.7672
v 0.1146 0.1000 0.6970
v 0.2554 0.1000 0.6445
v 0.3875 0.1000 0.6918
v 0.5149 0.1000 0.7935
v 0.6475 0.1000 0.8351
v 0.7886 0.1000 0.7786
v 0.9308 0.1000 0.7111
v 0.9482 0.1000 0.5119
v 0.8061 0.1000 0.5794
v 0.6649 0.1000 0.6359
v 0.5323 0.1000 0.5943
v 0.4050 0.1000 0.4925
v 0.2729 0.1000 0.4453
v 0.1321 0.1000 0.4977
v -0.0103 0.1000 0.5679
v -0.1451 0.1000 0.5512
v -0.2728 0.1000 0.4539
v -0.4030 0.1000 0.3849
v -0.5421 0.1000 0.4172
v -0.6851 0.1000 0.4945
v -0.8220 0.1000 0.5031
v -0.9507 0.1000 0.4170
v -0.0134 0.0000 0.6027
v -0.0134 0.1000 0.6027
vn -0.4192 0.0000 0.9079
vn -0.4192 0.0000 0.9079
vn 0.0000 -1.0000 0.0000
vn 0.0000 1.0000 0.0000
vn 0.2182 0.0000 0.9759
vn 0.2182 -0.0000 0.9759
vn 0.0000 -1.0000 0.0000
vn 0.0000 1.0000 0.0000
vn 0.6072 0.0000 0.7946
vn 0.6072 -0.0000 0.7946
vn 0.0000 1.0000 0.0000
vn 0.0000 -1.0000 0.0000
vn 0.3758 0.0000 0.9267
vn 0.3758 -0.0000 0.9267
vn 0.0000 1.0000 0.0000
vn 0.0000 -1.0000 0.0000
vn -0.3240 0.0000 0.9461
vn -0.3240 0.0000 0.9461
vn 0.0000 -1.0000 0.0000
vn 0.0000 1.0000 0.0000
vn -0.4743 0.0000 0.8803
vn -0.4743 0.0000 0.8803
vn 0.0000 -1.0000 0.0000
vn 0.0000 1.0000 0.0000
vn 0.0339 0.0000 0.9994
vn 0.0339 -0.0000 0.9994
vn 0.0000 -1.0000 0.0000
vn 0.0000 1.0000 -0.0000
vn 0.5770 0.0000 0.8168
vn 0.5770 -0.0000 0.8168
vn 0.0000 -1.0000 0.0000
vn 0.0000 1.0000 0.0000
vn 0.4914 0.0000 0.8710
vn 0.4914 -0.0000 0.8710
vn 0.0000 -1.0000 0.0000
vn -0.0000 1.0000 0.0000
vn -0.1853 0.0000 0.9827
vn -0.1853 0.0000 0.9827
vn -0.0000 1.0000 0.0000
vn 0.0000 -1.0000 0.0000
vn -0.4945 0.0000 0.8692
vn -0.4945 0.0000 0.8692
vn 0.0000 1.0000 0.0000
vn 0.0000 -1.0000 0.0000
vn -0.1464 0.0000 0.9892
vn -0.1464 0.0000 0.9892
vn 0.0000 -1.0000 0.0000
vn 0.0000 1.0000 0.0000
vn 0.5124 0.0000 0.8587
vn 0.5124 -0.0000 0.8587
vn 0.0000 -1.0000 0.0000
vn 0.0000 1.0000 0.0000
vn 0.5650 0.0000 0.8251
vn 0.5650 -0.0000 0.8251
vn 0.0000 -1.0000 0.0000
vn -0.0000 1.0000 0.0000
vn 0.9976 0.0000 -0.0698
vn 0.9976 0.0000 -0.0698
vn 0.0000 -1.0000 0.0000
vn 0.0000 1.0000 0.0000
vn -0.5650 0.0000 -0.8251
vn -0.5650 0.0000 -0.8251
vn 0.0000 1.0000 0.0000
vn 0.0000 -1.0000 0.0000
vn -0.5124 0.0000 -0.8587
vn -0.5124 0.0000 -0.8587
vn 0.0000 1.0000 0.0000
vn 0.0000 -1.0000 0.0000
vn 0.1464 0.0000 -0.9892
vn 0.1464 0.0000 -0.9892
vn 0.0000 -1.0000 0.0000
vn 0.0000 1.0000 0.0000
vn 0.4945 0.0000 -0.8692
vn 0.4945 0.0000 -0.8692
vn 0.0000 -1.0000 0.0000
vn 0.0000 1.0000 0.0000
vn 0.1853 0.0000 -0.9827
vn 0.1853 0.0000 -0.9827
vn 0.0000 -1.0000 0.0000
vn 0.0000 1.0000 0.0000
vn -0.4914 0.0000 -0.8710
vn -0.4914 0.0000 -0.8710
vn 0.0000 -1.0000 0.0000
vn 0.0000 1.0000 0.0000
vn -0.5770 0.0000 -0.8168
vn -0.5770 0.0000 -0.8168
vn 0.0000 -1.0000 -0.0000
vn 0.0000 1.0000 0.0000
vn -0.0339 0.0000 -0.9994
vn -0.0339 0.0000 -0.9994
vn 0.0000 -1.0000 0.0000
vn 0.0000 1.0000 0.0000
vn 0.4743 0.0000 -0.8803
vn 0.4743 0.0000 -0.8803
vn 0.0000 1.0000 0.0000
vn 0.0000 -1.0000 0.0000
vn 0.3240 0.0000 -0.9461
vn 0.3240 0.0000 -0.9461
vn 0.0000 -1.0000 0.0000
vn 0.0000 1.0000 0.0000
vn -0.3758 0.0000 -0.9267
vn -0.3758 0.0000 -0.9267
vn 0.0000 -1.0000 0.0000
vn 0.0000 1.0000 0.0000
vn -0.6072 0.0000 -0.7946
vn -0.6072 0.0000 -0.7946
vn 0.0000 -1.0000 0.0000
vn 0.0000 1.0000 0.0000
vn -0.2182 0.0000 -0.9759
vn -0.2182 0.0000 -0.9759
vn -0.0000 -1.0000 0.0000
vn 0.0000 1.0000 0.0000
vn 0.4192 0.0000 -0.9079
vn 0.4192 0.0000 -0.9079
vn 0.0000 1.0000 0.0000
vn -0.0000 -1.0000 0.0000
vn -0.9976 0.0000 0.0698
vn -0.9976 0.0000 0.0698
vn -0.0000 -1.0000 0.0000
vn 0.0000 1.0000 0.0000
vn -0.4192 0.0000 0.9079
vn -0.4192 0.0000 0.9079
vn 0.0000 -1.0000 0.0000
vn 0.0000 1.0000 0.0000
vn 0.2182 0.0000 0.9759
vn 0.2182 -0.0000 0.9759
vn 0.0000 -1.0000 0.0000
vn 0.0000 1.0000 0.0000
vn 0.6072 0.0000 0.7946
vn 0.6072 -0.0000 0.7946
vn 0.0000 1.0000 0.0000
vn 0.0000 -1.0000 0.0000
vn 0.3758 0.0000 0.9267
vn 0.3758 -0.0000 0.9267
vn 0.0000 1.0000 0.0000
vn 0.0000 -1.0000 0.0000
vn -0.3240 0.0000 0.9461
vn -0.3240 0.0000 0.9461
vn 0.0000 -1.0000 0.0000
vn 0.0000 1.0000 0.0000
vn -0.4743 0.0000 0.8803
vn -0.4743 0.0000 0.8803
vn 0.0000 -1.0000 0.0000
vn 0.0000 1.0000 0.0000
vn 0.0339 0.0000 0.9994
vn 0.0339 -0.0000 0.9994
vn 0.0000 -1.0000 0.0000
vn 0.0000 1.0000 -0.0000
vn 0.5770 0.0000 0.8168
vn 0.5770 -0.0000 0.8168
vn 0.0000 -1.0000 0.0000
vn 0.0000 1.0000 0.0000
vn 0.4914 0.0000 0.8710
vn 0.4914 -0.0000 0.8710
vn 0.0000 -1.0000 0.0000
vn -0.0000 1.0000 0.0000
vn -0.1853 0.0000 0.9827
vn -0.1853 0.0000 0.9827
vn -0.0000 1.0000 0.0000
vn 0.0000 -1.0000 0.0000
vn -0.4945 0.0000 0.8692
vn -0.4945 0.0000 0.8692
vn 0.0000 1.0000 0.0000
vn 0.0000 -1.0000 0.0000
vn -0.1464 0.0000 0.9892
vn -0.1464 0.0000 0.9892
vn 0.0000 -1.0000 0.0000
vn 0.0000 1.0000 0.0000
vn 0.5124 0.0000 0.8587
vn 0.5124 -0.0000 0.8587
vn 0.0000 -1.0000 0.0000
vn 0.0000 1.0000 0.0000
vn 0.5650 0.0000 0.8251
vn 0.5650 -0.0000 0.8251
vn 0.0000 -1.0000 0.0000
vn -0.0000 1.0000 0.0000
vn 0.9976 0.0000 -0.0698
vn 0.9976 0.0000 -0.0698
vn 0.0000 -1.0000 0.0000
vn 0.0000 1.0000 0.0000
vn -0.5650 0.0000 -0.8251
vn -0.5650 0.0000 -0.8251
vn 0.0000 1.0000 0.0000
vn 0.0000 -1.0000 0.0000
vn -0.5124 0.0000 -0.8587
vn -0.5124 0.0000 -0.8587
vn 0.0000 1.0000 0.0000
vn 0.0000 -1.0000 0.0000
vn 0.1464 0.0000 -0.9892
vn 0.1464 0.0000 -0.9892
vn 0.0000 -1.0000 0.0000
vn 0.0000 1.0000 0.0000
vn 0.4945 0.0000 -0.8692
vn 0.4945 0.0000 -0.8692
vn 0.0000 -1.0000 0.0000
vn 0.0000 1.0000 0.0000
vn 0.1853 0.0000 -0.9827
vn 0.1853 0.0000 -0.9827
vn 0.0000 -1.0000 0.0000
vn 0.0000 1.0000 0.0000
vn -0.4914 0.0000 -0.8710
vn -0.4914 0.0000 -0.8710
vn 0.0000 -1.0000 0.0000
vn 0.0000 1.0000 0.0000
vn -0.5770 0.0000 -0.8168
vn -0.5770 0.0000 -0.8168
vn 0.0000 -1.0000 -0.0000
vn 0.0000 1.0000 0.0000
vn -0.0339 0.0000 -0.9994
vn -0.0339 0.0000 -0.9994
vn 0.0000 -1.0000 0.0000
vn 0.0000 1.0000 0.0000
vn 0.4743 0.0000 -0.8803
vn 0.4743 0.0000 -0.8803
vn 0.0000 1.0000 0.0000
vn 0.0000 -1.0000 0.0000
vn 0.3240 0.0000 -0.9461
vn 0.3240 0.0000 -0.9461
vn 0.0000 1.0000 0.0000
vn 0.0000 -1.0000 0.0000
vn -0.3758 0.0000 -0.9267
vn -0.3758 0.0000 -0.9267
vn 0.0000 -1.0000 0.0000
vn 0.0000 1.0000 0.0000
vn -0.6072 0.0000 -0.7946
vn -0.6072 0.0000 -0.7946
vn -0.0000 -1.0000 0.0000
vn 0.0000 1.0000 0.0000
vn -0.2182 0.0000 -0.9759
vn -0.2182 0.0000 -0.9759
vn 0.0000 -1.0000 0.0000
vn 0.0000 1.0000 0.0000
vn 0.4192 0.0000 -0.9079
vn 0.4192 0.0000 -0.9079
vn 0.0000 1.0000 0.0000
vn -0.0000 -1.0000 0.0000
vn -0.9976 0.0000 0.0698
vn -0.9976 0.0000 0.0698
vn -0.0000 -1.0000 0.0000
vn 0.0000 1.0000 0.0000
vn -0.4192 0.0000 0.9079
vn -0.4192 0.0000 0.9079
vn 0.0000 -1.0000 0.0000
vn 0.0000 1.0000 0.0000
vn 0.2182 0.0000 0.9759
vn 0.2182 -0.0000 0.9759
vn 0.0000 -1.0000 0.0000
vn 0.0000 1.0000 0.0000
vn 0.6072 0.0000 0.7946
vn 0.6072 -0.0000 0.7946
vn 0.0000 1.0000 0.0000
vn 0.0000 -1.0000 0.0000
vn 0.3758 0.0000 0.9267
vn 0.3758 -0.0000 0.9267
vn 0.0000 1.0000 0.0000
vn 0.0000 -1.0000 0.0000
vn -0.3240 0.0000 0.9461
vn -0.3240 0.0000 0.9461
vn 0.0000 -1.0000 0.0000
vn 0.0000 1.0000 0.0000
vn -0.4743 0.0000 0.8803
vn -0.4743 0.0000 0.8803
vn 0.0000 -1.0000 0.0000
vn 0.0000 1.0000 0.0000
vn 0.0339 0.0000 0.9994
vn 0.0339 -0.0000 0.9994
vn 0.0000 -1.0000 0.0000
vn 0.0000 1.0000 -0.0000
vn 0.5770 0.0000 0.8168
vn 0.5770 -0.0000 0.8168
vn 0.0000 -1.0000 0.0000
vn 0.0000 1.0000 0.0000
vn 0.4914 0.0000 0.8710
vn 0.4914 -0.0000 0.8710
vn 0.0000 -1.0000 0.0000
vn -0.0000 1.0000 0.0000
vn -0.1853 0.0000 0.9827
vn -0.1853 0.0000 0.9827
vn -0.0000 1.0000 0.0000
vn 0.0000 -1.0000 0.0000
vn -0.4945 0.0000 0.8692
vn -0.4945 0.0000 0.8692
vn 0.0000 1.0000 0.0000
vn 0.0000 -1.0000 0.0000
vn -0.1464 0.0000 0.9892
vn -0.1464 0.0000 0.9892
vn 0.0000 -1.0000 0.0000
vn 0.0000 1.0000 0.0000
vn 0.5124 0.0000 0.8587
vn 0.5124 -0.0000 0.8587
vn 0.0000 -1.0000 0.0000
vn 0.0000 1.0000 0.0000
vn 0.5650 0.0000 0.8251
vn 0.5650 -0.0000 0.8251
vn 0.0000 -1.0000 0.0000
vn -0.0000 1.0000 0.0000
vn 0.9976 0.0000 -0.0698
vn 0.9976 0.0000 -0.0698
vn 0.0000 -1.0000 0.0000
vn 0.0000 1.0000 0.0000
vn -0.5650 0.0000 -0.8251
vn -0.5650 0.0000 -0.8251
vn 0.0000 1.0000 0.0000
vn 0.0000 -1.0000 0.0000
vn -0.5124 0.0000 -0.8587
vn -0.5124 0.0000 -0.8587
vn 0.0000 1.0000 0.0000
vn 0.0000 -1.0000 0.0000
vn 0.1464 0.0000 -0.9892
vn 0.1464 0.0000 -0.9892
vn 0.0000 -1.0000 0.0000
vn 0.0000 1.0000 0.0000
vn 0.4945 0.0000 -0.8692
vn 0.4945 0.0000 -0.8692
vn 0.0000 -1.0000 0.0000
vn 0.0000 1.0000 0.0000
vn 0.1853 0.0000 -0.9827
vn 0.1853 0.0000 -0.9827
vn 0.0000 -1.0000 0.0000
vn 0.0000 1.0000 0.0000
vn -0.4914 0.0000 -0.8710
vn -0.4914 0.0000 -0.8710
vn 0.0000 -1.0000 0.0000
vn 0.0000 1.0000 0.0000
vn -0.5770 0.0000 -0.8168
vn -0.5770 0.0000 -0.8168
vn 0.0000 -1.0000 -0.0000
vn 0.0000 1.0000 0.0000
vn -0.0339 0.0000 -0.9994
vn -0.0339 0.0000 -0.9994
vn 0.0000 -1.0000 0.0000
vn 0.0000 1.0000 0.0000
vn 0.4743 0.0000 -0.8803
vn 0.4743 0.0000 -0.8803
vn 0.0000 1.0000 0.0000
vn 0.0000 -1.0000 0.0000
vn 0.3240 0.0000 -0.9461
vn 0.3240 0.0000 -0.9461
vn 0.0000 -1.0000 0.0000
vn 0.0000 1.0000 0.0000
vn -0.3758 0.0000 -0.9267
vn -0.3758 0.0000 -0.9267
vn 0.0000 -1.0000 0.0000
vn 0.0000 1.0000 0.0000
vn -0.6072 0.0000 -0.7946
vn -0.6072 0.0000 -0.7946
vn 0.0000 -1.0000 0.0000
vn 0.0000 1.0000 0.0000
vn -0.2182 0.0000 -0.9759
vn -0.2182 0.0000 -0.9759
vn -0.0000 -1.0000 0.0000
vn 0.0000 1.0000 0.0000
vn 0.4192 0.0000 -0.9079
vn 0.4192 0.0000 -0.9079
vn 0.0000 1.0000 0.0000
vn -0.0000 -1.0000 0.0000
vn -0.9976 0.0000 0.0698
vn -0.9976 0.0000 0.0698
vn -0.0000 -1.0000 0.0000
vn 0.0000 1.0000 0.0000
vn -0.5561 0.0000 0.8311
vn -0.5561 0.0000 0.8311
vn 0.0000 -1.0000 0.0000
vn 0.0000 1.0000 0.0000
vn 0.0628 0.0000 0.9980
vn 0.0628 -0.0000 0.9980
vn 0.0000 -1.0000 0.0000
vn 0.0000 1.0000 0.0000
vn 0.4754 0.0000 0.8798
vn 0.4754 -0.0000 0.8798
vn 0.0000 1.0000 0.0000
vn 0.0000 -1.0000 0.0000
vn 0.2262 0.0000 0.9741
vn 0.2262 -0.0000 0.9741
vn 0.0000 1.0000 0.0000
vn -0.0000 -1.0000 0.0000
vn -0.4680 0.0000 0.8837
vn -0.4680 0.0000 0.8837
vn -0.0000 -1.0000 0.0000
vn 0.0000 1.0000 0.0000
vn -0.6062 0.0000 0.7953
vn -0.6062 0.0000 0.7953
vn 0.0000 -1.0000 0.0000
vn 0.0000 1.0000 0.0000
vn -0.1229 0.0000 0.9924
vn -0.1229 0.0000 0.9924
vn 0.0000 -1.0000 0.0000
vn 0.0000 1.0000 0.0000
vn 0.4421 0.0000 0.8970
vn 0.4421 -0.0000 0.8970
vn 0.0000 -1.0000 0.0000
vn 0.0000 1.0000 -0.0000
vn 0.3491 0.0000 0.9371
vn 0.3491 -0.0000 0.9371
vn 0.0000 -1.0000 0.0000
vn 0.0000 1.0000 0.0000
vn -0.3367 0.0000 0.9416
vn -0.3367 0.0000 0.9416
vn 0.0000 1.0000 0.0000
vn 0.0000 -1.0000 0.0000
vn -0.6244 0.0000 0.7811
vn -0.6244 0.0000 0.7811
vn 0.0000 1.0000 0.0000
vn 0.0000 -1.0000 0.0000
vn -0.2994 0.0000 0.9541
vn -0.2994 0.0000 0.9541
vn 0.0000 -1.0000 0.0000
vn 0.0000 1.0000 0.0000
vn 0.3718 0.0000 0.9283
vn 0.3718 -0.0000 0.9283
vn 0.0000 -1.0000 0.0000
vn 0.0000 1.0000 0.0000
vn 0.4289 0.0000 0.9033
vn 0.4289 -0.0000 0.9033
vn 0.0000 -1.0000 0.0000
vn 0.0000 1.0000 0.0000
vn 0.9962 0.0000 0.0872
vn 0.9962 -0.0000 0.0872
vn 0.0000 -1.0000 0.0000
vn -0.0000 1.0000 0.0000
vn -0.4289 0.0000 -0.9033
vn -0.4289 0.0000 -0.9033
vn 0.0000 1.0000 0.0000
vn 0.0000 -1.0000 0.0000
vn -0.3718 0.0000 -0.9283
vn -0.3718 0.0000 -0.9283
vn -0.0000 1.0000 0.0000
vn 0.0000 -1.0000 0.0000
vn 0.2994 0.0000 -0.9541
vn 0.2994 0.0000 -0.9541
vn 0.0000 -1.0000 0.0000
vn -0.0000 1.0000 0.0000
vn 0.6244 0.0000 -0.7811
vn 0.6244 0.0000 -0.7811
vn 0.0000 -1.0000 0.0000
vn 0.0000 1.0000 0.0000
vn 0.3367 0.0000 -0.9416
vn 0.3367 0.0000 -0.9416
vn 0.0000 -1.0000 0.0000
vn 0.0000 1.0000 0.0000
vn -0.3491 0.0000 -0.9371
vn -0.3491 0.0000 -0.9371
vn 0.0000 -1.0000 0.0000
vn 0.0000 1.0000 0.0000
vn -0.4421 0.0000 -0.8970
vn -0.4421 0.0000 -0.8970
vn 0.0000 -1.0000 0.0000
vn 0.0000 1.0000 0.0000
vn 0.1229 0.0000 -0.9924
vn 0.1229 0.0000 -0.9924
vn 0.0000 -1.0000 -0.0000
vn 0.0000 1.0000 0.0000
vn 0.6062 0.0000 -0.7953
vn 0.6062 0.0000 -0.7953
vn 0.0000 1.0000 0.0000
vn 0.0000 -1.0000 0.0000
vn 0.4680 0.0000 -0.8837
vn 0.4680 0.0000 -0.8837
vn 0.0000 -1.0000 0.0000
vn 0.0000 1.0000 0.0000
vn -0.2262 0.0000 -0.9741
vn -0.2262 0.0000 -0.9741
vn 0.0000 -1.0000 0.0000
vn 0.0000 1.0000 0.0000
vn -0.4754 0.0000 -0.8798
vn -0.4754 0.0000 -0.8798
vn 0.0000 -1.0000 0.0000
vn 0.0000 1.0000 0.0000
vn -0.0628 0.0000 -0.9980
vn -0.0628 0.0000 -0.9980
vn 0.0000 -1.0000 0.0000
vn 0.0000 1.0000 0.0000
vn 0.5561 0.0000 -0.8311
vn 0.5561 0.0000 -0.8311
vn 0.0000 1.0000 0.0000
vn 0.0000 -1.0000 0.0000
vn -0.9962 0.0000 -0.0872
vn -0.9962 0.0000 -0.0872
vn -0.0000 -1.0000 0.0000
vn 0.0000 1.0000 0.0000
vn -0.5561 0.0000 0.8311
vn -0.5561 0.0000 0.8311
vn -0.0000 -1.0000 0.0000
vn 0.0000 1.0000 0.0000
vn 0.0628 0.0000 0.9980
vn 0.0628 -0.0000 0.9980
vn 0.0000 -1.0000 0.0000
vn 0.0000 1.0000 0.0000
vn 0.4754 0.0000 0.8798
vn 0.4754 -0.0000 0.8798
vn 0.0000 1.0000 0.0000
vn -0.0000 -1.0000 0.0000
vn 0.2262 0.0000 0.9741
vn 0.2262 -0.0000 0.9741
vn 0.0000 1.0000 0.0000
vn 0.0000 -1.0000 0.0000
vn -0.4680 0.0000 0.8837
vn -0.4680 0.0000 0.8837
vn -0.0000 -1.0000 0.0000
vn 0.0000 1.0000 0.0000
vn -0.6062 0.0000 0.7953
vn -0.6062 0.0000 0.7953
vn 0.0000 -1.0000 0.0000
vn 0.0000 1.0000 0.0000
vn -0.1229 0.0000 0.9924
vn -0.1229 0.0000 0.9924
vn 0.0000 -1.0000 0.0000
vn 0.0000 1.0000 0.0000
vn 0.4421 0.0000 0.8970
vn 0.4421 -0.0000 0.8970
vn 0.0000 -1.0000 0.0000
vn 0.0000 1.0000 -0.0000
vn 0.3491 0.0000 0.9371
vn 0.3491 -0.0000 0.9371
vn 0.0000 -1.0000 0.0000
vn 0.0000 1.0000 0.0000
vn -0.3367 0.0000 0.9416
vn -0.3367 0.0000 0.9416
vn 0.0000 1.0000 0.0000
vn 0.0000 -1.0000 0.0000
vn -0.6244 0.0000 0.7811
vn -0.6244 0.0000 0.7811
vn 0.0000 1.0000 0.0000
vn 0.0000 -1.0000 0.0000
vn -0.2994 0.0000 0.9541
vn -0.2994 0.0000 0.9541
vn 0.0000 -1.0000 0.0000
vn 0.0000 1.0000 0.0000
vn 0.3718 0.0000 0.9283
vn 0.3718 -0.0000 0.9283
vn 0.0000 -1.0000 0.0000
vn 0.0000 1.0000 0.0000
vn 0.4289 0.0000 0.9033
vn 0.4289 -0.0000 0.9033
vn 0.0000 -1.0000 0.0000
vn 0.0000 1.0000 0.0000
vn 0.9962 0.0000 0.0872
vn 0.9962 -0.0000 0.0872
vn 0.0000 -1.0000 0.0000
vn -0.0000 1.0000 0.0000
vn -0.4289 0.0000 -0.9033
vn -0.4289 0.0000 -0.9033
vn 0.0000 1.0000 0.0000
vn 0.0000 -1.0000 0.0000
vn -0.3718 0.0000 -0.9283
vn -0.3718 0.0000 -0.9283
vn -0.0000 1.0000 0.0000
vn 0.0000 -1.0000 0.0000
vn 0.2994 0.0000 -0.9541
vn 0.2994 0.0000 -0.9541
vn 0.0000 -1.0000 0.0000
vn 0.0000 1.0000 0.0000
vn 0.6244 0.0000 -0.7811
vn 0.6244 0.0000 -0.7811
vn 0.0000 -1.0000 0.0000
vn -0.0000 1.0000 0.0000
vn 0.3367 0.0000 -0.9416
vn 0.3367 0.0000 -0.9416
vn 0.0000 -1.0000 0.0000
vn 0.0000 1.0000 0.0000
vn -0.3491 0.0000 -0.9371
vn -0.3491 0.0000 -0.9371
vn 0.0000 -1.0000 0.0000
vn 0.0000 1.0000 0.0000
vn -0.4421 0.0000 -0.8970
vn -0.4421 0.0000 -0.8970
vn 0.0000 -1.0000 0.0000
vn 0.0000 1.0000 0.0000
vn 0.1229 0.0000 -0.9924
vn 0.1229 0.0000 -0.9924
vn 0.0000 -1.0000 -0.0000
vn 0.0000 1.0000 0.0000
vn 0.6062 0.0000 -0.7953
vn 0.6062 0.0000 -0.7953
vn 0.0000 1.0000 0.0000
vn 0.0000 -1.0000 0.0000
vn 0.4680 0.0000 -0.8837
vn 0.4680 0.0000 -0.8837
vn 0.0000 1.0000 0.0000
vn 0.0000 -1.0000 0.0000
vn -0.2262 0.0000 -0.9741
vn -0.2262 0.0000 -0.9741
vn 0.0000 -1.0000 0.0000
vn 0.0000 1.0000 0.0000
vn -0.4754 0.0000 -0.8798
vn -0.4754 0.0000 -0.8798
vn 0.0000 -1.0000 0.0000
vn 0.0000 1.0000 0.0000
vn -0.0628 0.0000 -0.9980
vn -0.0628 0.0000 -0.9980
vn 0.0000 -1.0000 0.0000
vn 0.0000 1.0000 0.0000
vn 0.5561 0.0000 -0.8311
vn 0.5561 0.0000 -0.8311
vn 0.0000 1.0000 0.0000
vn 0.0000 -1.0000 0.0000
vn -0.9962 0.0000 -0.0872
vn -0.9962 0.0000 -0.0872
vn 0.0000 -1.0000 0.0000
vn 0.0000 1.0000 0.0000
vn -0.5561 0.0000 0.8311
vn -0.5561 0.0000 0.8311
vn 0.0000 -1.0000 0.0000
vn 0.0000 1.0000 0.0000
vn 0.0628 0.0000 0.9980
vn 0.0628 -0.0000 0.9980
vn 0.0000 -1.0000 0.0000
vn 0.0000 1.0000 0.0000
vn 0.4754 0.0000 0.8798
vn 0.4754 -0.0000 0.8798
vn 0.0000 1.0000 0.0000
vn 0.0000 -1.0000 0.0000
vn 0.2262 0.0000 0.9741
vn 0.2262 -0.0000 0.9741
vn 0.0000 1.0000 0.0000
vn -0.0000 -1.0000 0.0000
vn -0.4680 0.0000 0.8837
vn -0.4680 0.0000 0.8837
vn -0.0000 -1.0000 0.0000
vn 0.0000 1.0000 0.0000
vn -0.6062 0.0000 0.7953
vn -0.6062 0.0000 0.7953
vn 0.0000 -1.0000 0.0000
vn 0.0000 1.0000 0.0000
vn -0.1229 0.0000 0.9924
vn -0.1229 0.0000 0.9924
vn 0.0000 -1.0000 0.0000
vn 0.0000 1.0000 0.0000
vn 0.4421 0.0000 0.8970
vn 0.4421 -0.0000 0.8970
vn 0.0000 -1.0000 0.0000
vn 0.0000 1.0000 -0.0000
vn 0.3491 0.0000 0.9371
vn 0.3491 -0.0000 0.9371
vn 0.0000 -1.0000 0.0000
vn 0.0000 1.0000 0.0000
vn -0.3367 0.0000 0.9416
vn -0.3367 0.0000 0.9416
vn 0.0000 1.0000 0.0000
vn 0.0000 -1.0000 0.0000
vn -0.6244 0.0000 0.7811
vn -0.6244 0.0000 0.7811
vn 0.0000 1.0000 0.0000
vn 0.0000 -1.0000 0.0000
vn -0.2994 0.0000 0.9541
vn -0.2994 0.0000 0.9541
vn 0.0000 -1.0000 0.0000
vn 0.0000 1.0000 0.0000
vn 0.3718 0.0000 0.9283
vn 0.3718 -0.0000 0.9283
vn 0.0000 -1.0000 0.0000
vn 0.0000 1.0000 0.0000
vn 0.4289 0.0000 0.9033
vn 0.4289 -0.0000 0.9033
vn 0.0000 -1.0000 0.0000
vn 0.0000 1.0000 0.0000
vn 0.9962 0.0000 0.0872
vn 0.9962 -0.0000 0.0872
vn 0.0000 -1.0000 0.0000
vn -0.0000 1.0000 0.0000
vn -0.4289 0.0000 -0.9033
vn -0.4289 0.0000 -0.9033
vn 0.0000 1.0000 0.0000
vn 0.0000 -1.0000 0.0000
vn -0.3718 0.0000 -0.9283
vn -0.3718 0.0000 -0.9283
vn -0.0000 1.0000 0.0000
vn 0.0000 -1.0000 0.0000
vn 0.2994 0.0000 -0.9541
vn 0.2994 0.0000 -0.9541
vn 0.0000 -1.0000 0.0000
vn -0.0000 1.0000 0.0000
vn 0.6244 0.0000 -0.7811
vn 0.6244 0.0000 -0.7811
vn 0.0000 -1.0000 0.0000
vn 0.0000 1.0000 0.0000
vn 0.3367 0.0000 -0.9416
vn 0.3367 0.0000 -0.9416
vn 0.0000 -1.0000 0.0000
vn 0.0000 1.0000 0.0000
vn -0.3491 0.0000 -0.9371
vn -0.3491 0.0000 -0.9371
vn 0.0000 -1.0000 0.0000
vn 0.0000 1.0000 0.0000
vn -0.4421 0.0000 -0.8970
vn -0.4421 0.0000 -0.8970
vn 0.0000 -1.0000 0.0000
vn 0.0000 1.0000 0.0000
vn 0.1229 0.0000 -0.9924
vn 0.1229 0.0000 -0.9924
vn 0.0000 -1.0000 -0.0000
vn 0.0000 1.0000 0.0000
vn 0.6062 0.0000 -0.7953
vn 0.6062 0.0000 -0.7953
vn 0.0000 1.0000 0.0000
vn 0.0000 -1.0000 0.0000
vn 0.4680 0.0000 -0.8837
vn 0.4680 0.0000 -0.8837
vn 0.0000 -1.0000 0.0000
vn 0.0000 1.0000 0.0000
vn -0.2262 0.0000 -0.9741
vn -0.2262 0.0000 -0.9741
vn 0.0000 -1.0000 0.0000
vn 0.0000 1.0000 0.0000
vn -0.4754 0.0000 -0.8798
vn -0.4754 0.0000 -0.8798
vn 0.0000 -1.0000 0.0000
vn 0.0000 1.0000 0.0000
vn -0.0628 0.0000 -0.9980
vn -0.0628 0.0000 -0.9980
vn 0.0000 -1.0000 0.0000
vn 0.0000 1.0000 0.0000
vn 0.5561 0.0000 -0.8311
vn 0.5561 0.0000 -0.8311
vn 0.0000 1.0000 0.0000
vn 0.0000 -1.0000 0.0000
vn -0.9962 0.0000 -0.0872
vn -0.9962 0.0000 -0.0872
vn -0.0000 -1.0000 0.0000
vn 0.0000 1.0000 0.0000
usemtl c0
f 1//1 2//1 32//1
f 1//2 32//2 31//2
f 61//3 2//3 1//3
f 62//4 31//4 32//4
f 2//5 3//5 33//5
f 2//6 33//6 32//6
f 61//7 3//7 2//7
f 62//8 32//8 33//8
f 3//9 4//9 34//9
f 3//10 34//10 33//10
f 61//11 4//11 3//11
f 62//12 33//12 34//12
f 4//13 5//13 35//13
f 4//14 35//14 34//14
f 61//15 5//15 4//15
f 62//16 34//16 35//16
f 5//17 6//17 36//17
f 5//18 36//18 35//18
f 61//19 6//19 5//19
f 62//20 35//20 36//20
f 6//21 7//21 37//21
f 6//22 37//22 36//22
f 61//23 7//23 6//23
f 62//24 36//24 37//24
f 7//25 8//25 38//25
f 7//26 38//26 37//26
f 61//27 8//27 7//27
f 62//28 37//28 38//28
f 8//29 9//29 39//29
f 8//30 39//30 38//30
f 61//31 9//31 8//31
f 62//32 38//32 39//32
f 9//33 10//33 40//33
f 9//34 40//34 39//34
f 61//35 10//35 9//35
f 62//36 39//36 40//36
f 10//37 11//37 41//37
f 10//38 41//38 40//38
f 61//39 11//39 10//39
f 62//40 40//40 41//40
f 11//41 12//41 42//41
f 11//42 42//42 41//42
f 61//43 12//43 11//43
f 62//44 41//44 42//44
f 12//45 13//45 43//45
f 12//46 43//46 42//46
f 61//47 13//47 12//47
f 62//48 42//48 43//48
f 13//49 14//49 44//49
f 13//50 44//50 43//50
f 61//51 14//51 13//51
f 62//52 43//52 44//52
f 14//53 15//53 45//53
f 14//54 45//54 44//54
f 61//55 15//55 14//55
f 62//56 44//56 45//56
f 15//57 16//57 46//57
f 15//58 46//58 45//58
f 61//59 16//59 15//59
f 62//60 45//60 46//60
f 16//61 17//61 47//61
f 16//62 47//62 46//62
f 61//63 17//63 16//63
f 62//64 46//64 47//64
f 17//65 18//65 48//65
f 17//66 48//66 47//66
f 61//67 18//67 17//67
f 62//68 47//68 48//68
f 18//69 19//69 49//69
f 18//70 49//70 48//70
f 61//71 19//71 18//71
f 62//72 48//72 49//72
f 19//73 20//73 50//73
f 19//74 50//74 49//74
f 61//75 20//75 19//75
f 62//76 49//76 50//76
f 20//77 21//77 51//77
f 20//78 51//78 50//78
f 61//79 21//79 20//79
f 62//80 50//80 51//80
f 21//81 22//81 52//81
f 21//82 52//82 51//82
f 61//83 22//83 21//83
f 62//84 51//84 52//84
f 22//85 23//85 53//85
f 22//86 53//86 52//86
f 61//87 23//87 22//87
f 62//88 52//88 53//88
f 23//89 24//89 54//89
f 23//90 54//90 53//90
f 61//91 24//91 23//91
f 62//92 53//92 54//92
f 24//93 25//93 55//93
f 24//94 55//94 54//94
f 61//95 25//95 24//95
f 62//96 54//96 55//96
f 25//97 26//97 56//97
f 25//98 56//98 55//98
f 61//99 26//99 25//99
f 62//100 55//100 56//100
f 26//101 27//101 57//101
f 26//102 57//102 56//102
f 61//103 27//103 26//103
f 62//104 56//104 57//104
f 27//105 28//105 58//105
f 27//106 58//106 57//106
f 61//107 28//107 27//107
f 62//108 57//108 58//108
f 28//109 29//109 59//109
f 28//110 59//110 58//110
f 61//111 29//111 28//111
f 62//112 58//112 59//112
f 29//113 30//113 60//113
f 29//114 60//114 59//114
f 61//115 30//115 29//115
f 62//116 59//116 60//116
f 30//117 1//117 31//117
f 30//118 31//118 60//118
f 61//119 1//119 30//119
f 62//120 60//120 31//120
usemtl c1
f 63//121 64//121 94//121
f 63//122 94//122 93//122
f 123//123 64//123 63//123
f 124//124 93//124 94//124
f 64//125 65//125 95//125
f 64//126 95//126 94//126
f 123//127 65//127 64//127
f 124//128 94//128 95//128
f 65//129 66//129 96//129
f 65//130 96//130 95//130
f 123//131 66//131 65//131
f 124//132 95//132 96//132
f 66//133 67//133 97//133
f 66//134 97//134 96//134
f 123//135 67//135 66//135
f 124//136 96//136 97//136
f 67//137 68//137 98//137
f 67//138 98//138 97//138
f 123//139 68//139 67//139
f 124//140 97//140 98//140
f 68//141 69//141 99//141
f 68//142 99//142 98//142
f 123//143 69//143 68//143
f 124//144 98//144 99//144
f 69//145 70//145 100//145
f 69//146 100//146 99//146
f 123//147 70//147 69//147
f 124//148 99//148 100//148
f 70//149 71//149 101//149
f 70//150 101//150 100//150
f 123//151 71//151 70//151
f 124//152 100//152 101//152
f 71//153 72//153 102//153
f 71//154 102//154 101//154
f 123//155 72//155 71//155
f 124//156 101//156 102//156
f 72//157 73//157 103//157
f 72//158 103//158 102//158
f 123//159 73//159 72//159
f 124//160 102//160 103//160
f 73//161 74//161 104//161
f 73//162 104//162 103//162
f 123//163 74//163 73//163
f 124//164 103//164 104//164
f 74//165 75//165 105//165
f 74//166 105//166 104//166
f 123//167 75//167 74//167
f 124//168 104//168 105//168
f 75//169 76//169 106//169
f 75//170 106//170 105//170
f 123//171 76//171 75//171
f 124//172 105//172 106//172
f 76//173 77//173 107//173
f 76//174 107//174 106//174
f 123//175 77//175 76//175
f 124//176 106//176 107//176
f 77//177 78//177 108//177
f 77//178 108//178 107//178
f 123//179 78//179 77//179
f 124//180 107//180 108//180
f 78//181 79//181 109//181
f 78//182 109//182 108//182
f 123//183 79//183 78//183
f 124//184 108//184 109//184
f 79//185 80//185 110//185
f 79//186 110//186 109//186
f 123//187 80//187 79//187
f 124//188 109//188 110//188
f 80//189 81//189 111//189
f 80//190 111//190 110//190
f 123//191 81//191 80//191
f 124//192 110//192 111//192
f 81//193 82//193 112//193
f 81//194 112//194 111//194
f 123//195 82//195 81//195
f 124//196 111//196 112//196
f 82//197 83//197 113//197
f 82//198 113//198 112//198
f 123//199 83//199 82//199
f 124//200 112//200 113//200
f 83//201 84//201 114//201
f 83//202 114//202 113//202
f 123//203 84//203 83//203
f 124//204 113//204 114//204
f 84//205 85//205 115//205
f 84//206 115//206 114//206
f 123//207 85//207 84//207
f 124//208 114//208 115//208
f 85//209 86//209 116//209
f 85//210 116//210 115//210
f 123//211 86//211 85//211
f 124//212 115//212 116//212
f 86//213 87//213 117//213
f 86//214 117//214 116//214
f 123//215 87//215 86//215
f 124//216 116//216 117//216
f 87//217 88//217 118//217
f 87//218 118//218 117//218
f 123//219 88//219 87//219
f 124//220 117//220 118//220
f 88//221 89//221 119//221
f 88//222 119//222 118//222
f 123//223 89//223 88//223
f 124//224 118//224 119//224
f 89//225 90//225 120//225
f 89//226 120//226 119//226
f 123//227 90//227 89//227
f 124//228 119//228 120//228
f 90//229 91//229 121//229
f 90//230 121//230 120//230
f 123//231 91//231 90//231
f 124//232 120//232 121//232
f 91//233 92//233 122//233
f 91//234 122//234 121//234
f 123//235 92//235 91//235
f 124//236 121//236 122//236
f 92//237 63//237 93//237
f 92//238 93//238 122//238
f 123//239 63//239 92//239
f 124//240 122//240 93//240
usemtl c0
f 125//241 126//241 156//241
f 125//242 156//242 155//242
f 185//243 126//243 125//243
f 186//244 155//244 156//244
f 126//245 127//245 157//245
f 126//246 157//246 156//246
f 185//247 127//247 126//247
f 186//248 156//248 157//248
f 127//249 128//249 158//249
f 127//250 158//250 157//250
f 185//251 128//251 127//251
f 186//252 157//252 158//252
f 128//253 129//253 159//253
f 128//254 159//254 158//254
f 185//255 129//255 128//255
f 186//256 158//256 159//256
f 129//257 130//257 160//257
f 129//258 160//258 159//258
f 185//259 130//259 129//259
f 186//260 159//260 160//260
f 130//261 131//261 161//261
f 130//262 161//262 160//262
f 185//263 131//263 130//263
f 186//264 160//264 161//264
f 131//265 132//265 162//265
f 131//266 162//266 161//266
f 185//267 132//267 131//267
f 186//268 161//268 162//268
f 132//269 133//269 163//269
f 132//270 163//270 162//270
f 185//271 133//271 132//271
f 186//272 162//272 163//272
f 133//273 134//273 164//273
f 133//274 164//274 163//274
f 185//275 134//275 133//275
f 186//276 163//276 164//276
f 134//277 135//277 165//277
f 134//278 165//278 164//278
f 185//279 135//279 134//279
f 186//280 164//280 165//280
f 135//281 136//281 166//281
f 135//282 166//282 165//282
f 185//283 136//283 135//283
f 186//284 165//284 166//284
f 136//285 137//285 167//285
f 136//286 167//286 166//286
f 185//287 137//287 136//287
f 186//288 166//288 167//288
f 137//289 138//289 168//289
f 137//290 168//290 167//290
f 185//291 138//291 137//291
f 186//292 167//292 168//292
f 138//293 139//293 169//293
f 138//294 169//294 168//294
f 185//295 139//295 138//295
f 186//296 168//296 169//296
f 139//297 140//297 170//297
f 139//298 170//298 169//298
f 185//299 140//299 139//299
f 186//300 169//300 170//300
f 140//301 141//301 171//301
f 140//302 171//302 170//302
f 185//303 141//303 140//303
f 186//304 170//304 171//304
f 141//305 142//305 172//305
f 141//306 172//306 171//306
f 185//307 142//307 141//307
f 186//308 171//308 172//308
f 142//309 143//309 173//309
f 142//310 173//310 172//310
f 185//311 143//311 142//311
f 186//312 172//312 173//312
f 143//313 144//313 174//313
f 143//314 174//314 173//314
f 185//315 144//315 143//315
f 186//316 173//316 174//316
f 144//317 145//317 175//317
f 144//318 175//318 174//318
f 185//319 145//319 144//319
f 186//320 174//320 175//320
f 145//321 146//321 176//321
f 145//322 176//322 175//322
f 185//323 146//323 145//323
f 186//324 175//324 176//324
f 146//325 147//325 177//325
f 146//326 177//326 176//326
f 185//327 147//327 146//327
f 186//328 176//328 177//328
f 147//329 148//329 178//329
f 147//330 178//330 177//330
f 185//331 148//331 147//331
f 186//332 177//332 178//332
f 148//333 149//333 179//333
f 148//334 179//334 178//334
f 185//335 149//335 148//335
f 186//336 178//336 179//336
f 149//337 150//337 180//337
f 149//338 180//338 179//338
f 185//339 150//339 149//339
f 186//340 179//340 180//340
f 150//341 151//341 181//341
f 150//342 181//342 180//342
f 185//343 151//343 150//343
f 186//344 180//344 181//344
f 151//345 152//345 182//345
f 151//346 182//346 181//346
f 185//347 152//347 151//347
f 186//348 181//348 182//348
f 152//349 153//349 183//349
f 152//350 183//350 182//350
f 185//351 153//351 152//351
f 186//352 182//352 183//352
f 153//353 154//353 184//353
f 153//354 184//354 183//354
f 185//355 154//355 153//355
f 186//356 183//356 184//356
f 154//357 125//357 155//357
f 154//358 155//358 184//358
f 185//359 125//359 154//359
f 186//360 184//360 155//360
f 187//361 188//361 218//361
f 187//362 218//362 217//362
f 247//363 188//363 187//363
f 248//364 217//364 218//364
f 188//365 189//365 219//365
f 188//366 219//366 218//366
f 247//367 189//367 188//367
f 248//368 218//368 219//368
f 189//369 190//369 220//369
f 189//370 220//370 219//370
f 247//371 190//371 189//371
f 248//372 219//372 220//372
f 190//373 191//373 221//373
f 190//374 221//374 220//374
f 247//375 191//375 190//375
f 248//376 220//376 221//376
f 191//377 192//377 222//377
f 191//378 222//378 221//378
f 247//379 192//379 191//379
f 248//380 221//380 222//380
f 192//381 193//381 223//381
f 192//382 223//382 222//382
f 247//383 193//383 192//383
f 248//384 222//384 223//384
f 193//385 194//385 224//385
f 193//386 224//386 223//386
f 247//387 194//387 193//387
f 248//388 223//388 224//388
f 194//389 195//389 225//389
f 194//390 225//390 224//390
f 247//391 195//391 194//391
f 248//392 224//392 225//392
f 195//393 196//393 226//393
f 195//394 226//394 225//394
f 247//395 196//395 195//395
f 248//396 225//396 226//396
f 196//397 197//397 227//397
f 196//398 227//398 226//398
f 247//399 197//399 196//399
f 248//400 226//400 227//400
f 197//401 198//401 228//401
f 197//402 228//402 227//402
f 247//403 198//403 197//403
f 248//404 227//404 228//404
f 198//405 199//405 229//405
f 198//406 229//406 228//406
f 247//407 199//407 198//407
f 248//408 228//408 229//408
f 199//409 200//409 230//409
f 199//410 230//410 229//410
f 247//411 200//411 199//411
f 248//412 229//412 230//412
f 200//413 201//413 231//413
f 200//414 231//414 230//414
f 247//415 201//415 200//415
f 248//416 230//416 231//416
f 201//417 202//417 232//417
f 201//418 232//418 231//418
f 247//419 202//419 201//419
f 248//420 231//420 232//420
f 202//421 203//421 233//421
f 202//422 233//422 232//422
f 247//423 203//423 202//423
f 248//424 232//424 233//424
f 203//425 204//425 234//425
f 203//426 234//426 233//426
f 247//427 204//427 203//427
f 248//428 233//428 234//428
f 204//429 205//429 235//429
f 204//430 235//430 234//430
f 247//431 205//431 204//431
f 248//432 234//432 235//432
f 205//433 206//433 236//433
f 205//434 236//434 235//434
f 247//435 206//435 205//435
f 248//436 235//436 236//436
f 206//437 207//437 237//437
f 206//438 237//438 236//438
f 247//439 207//439 206//439
f 248//440 236//440 237//440
f 207//441 208//441 238//441
f 207//442 238//442 237//442
f 247//443 208//443 207//443
f 248//444 237//444 238//444
f 208//445 209//445 239//445
f 208//446 239//446 238//446
f 247//447 209//447 208//447
f 248//448 238//448 239//448
f 209//449 210//449 240//449
f 209//450 240//450 239//450
f 247//451 210//451 209//451
f 248//452 239//452 240//452
f 210//453 211//453 241//453
f 210//454 241//454 240//454
f 247//455 211//455 210//455
f 248//456 240//456 241//456
f 211//457 212//457 242//457
f 211//458 242//458 241//458
f 247//459 212//459 211//459
f 248//460 241//460 242//460
f 212//461 213//461 243//461
f 212//462 243//462 242//462
f 247//463 213//463 212//463
f 248//464 242//464 243//464
f 213//465 214//465 244//465
f 213//466 244//466 243//466
f 247//467 214//467 213//467
f 248//468 243//468 244//468
f 214//469 215//469 245//469
f 214//470 245//470 244//470
f 247//471 215//471 214//471
f 248//472 244//472 245//472
f 215//473 216//473 246//473
f 215//474 246//474 245//474
f 247//475 216//475 215//475
f 248//476 245//476 246//476
f 216//477 187//477 217//477
f 216//478 217//478 246//478
f 247//479 187//479 216//479
f 248//480 246//480 217//480
usemtl c1
f 249//481 250//481 280//481
f 249//482 280//482 279//482
f 309//483 250//483 249//483
f 310//484 279//484 280//484
f 250//485 251//485 281//485
f 250//486 281//486 280//486
f 309//487 251//487 250//487
f 310//488 280//488 281//488
f 251//489 252//489 282//489
f 251//490 282//490 281//490
f 309//491 252//491 251//491
f 310//492 281//492 282//492
f 252//493 253//493 283//493
f 252//494 283//494 282//494
f 309//495 253//495 252//495
f 310//496 282//496 283//496
f 253//497 254//497 284//497
f 253//498 284//498 283//498
f 309//499 254//499 253//499
f 310//500 283//500 284//500
f 254//501 255//501 285//501
f 254//502 285//502 284//502
f 309//503 255//503 254//503
f 310//504 284//504 285//504
f 255//505 256//505 286//505
f 255//506 286//506 285//506
f 309//507 256//507 255//507
f 310//508 285//508 286//508
f 256//509 257//509 287//509
f 256//510 287//510 286//510
f 309//511 257//511 256//511
f 310//512 286//512 287//512
f 257//513 258//513 288//513
f 257//514 288//514 287//514
f 309//515 258//515 257//515
f 310//516 287//516 288//516
f 258//517 259//517 289//517
f 258//518 289//518 288//518
f 309//519 259//519 258//519
f 310//520 288//520 289//520
f 259//521 260//521 290//521
f 259//522 290//522 289//522
f 309//523 260//523 259//523
f 310//524 289//524 290//524
f 260//525 261//525 291//525
f 260//526 291//526 290//526
f 309//527 261//527 260//527
f 310//528 290//528 291//528
f 261//529 262//529 292//529
f 261//530 292//530 291//530
f 309//531 262//531 261//531
f 310//532 291//532 292//532
f 262//533 263//533 293//533
f 262//534 293//534 292//534
f 309//535 263//535 262//535
f 310//536 292//536 293//536
f 263//537 264//537 294//537
f 263//538 294//538 293//538
f 309//539 264//539 263//539
f 310//540 293//540 294//540
f 264//541 265//541 295//541
f 264//542 295//542 294//542
f 309//543 265//543 264//543
f 310//544 294//544 295//544
f 265//545 266//545 296//545
f 265//546 296//546 295//546
f 309//547 266//547 265//547
f 310//548 295//548 296//548
f 266//549 267//549 297//549
f 266//550 297//550 296//550
f 309//551 267//551 266//551
f 310//552 296//552 297//552
f 267//553 268//553 298//553
f 267//554 298//554 297//554
f 309//555 268//555 267//555
f 310//556 297//556 298//556
f 268//557 269//557 299//557
f 268//558 299//558 298//558
f 309//559 269//559 268//559
f 310//560 298//560 299//560
f 269//561 270//561 300//561
f 269//562 300//562 299//562
f 309//563 270//563 269//563
f 310//564 299//564 300//564
f 270//565 271//565 301//565
f 270//566 301//566 300//566
f 309//567 271//567 270//567
f 310//568 300//568 301//568
f 271//569 272//569 302//569
f 271//570 302//570 301//570
f 309//571 272//571 271//571
f 310//572 301//572 302//572
f 272//573 273//573 303//573
f 272//574 303//574 302//574
f 309//575 273//575 272//575
f 310//576 302//576 303//576
f 273//577 274//577 304//577
f 273//578 304//578 303//578
f 309//579 274//579 273//579
f 310//580 303//580 304//580
f 274//581 275//581 305//581
f 274//582 305//582 304//582
f 309//583 275//583 274//583
f 310//584 304//584 305//584
f 275//585 276//585 306//585
f 275//586 306//586 305//586
f 309//587 276//587 275//587
f 310//588 305//588 306//588
f 276//589 277//589 307//589
f 276//590 307//590 306//590
f 309//591 277//591 276//591
f 310//592 306//592 307//592
f 277//593 278//593 308//593
f 277//594 308//594 307//594
f 309//595 278//595 277//595
f 310//596 307//596 308//596
f 278//597 249//597 279//597
f 278//598 279//598 308//598
f 309//599 249//599 278//599
f 310//600 308//600 279//600
usemtl c0
f 311//601 312//601 342//601
f 311//602 342//602 341//602
f 371//603 312//603 311//603
f 372//604 341//604 342//604
f 312//605 313//605 343//605
f 312//606 343//606 342//606
f 371//607 313//607 312//607
f 372//608 342//608 343//608
f 313//609 314//609 344//609
f 313//610 344//610 343//610
f 371//611 314//611 313//611
f 372//612 343//612 344//612
f 314//613 315//613 345//613
f 314//614 345//614 344//614
f 371//615 315//615 314//615
f 372//616 344//616 345//616
f 315//617 316//617 346//617
f 315//618 346//618 345//618
f 371//619 316//619 315//619
f 372//620 345//620 346//620
f 316//621 317//621 347//621
f 316//622 347//622 346//622
f 371//623 317//623 316//623
f 372//624 346//624 347//624
f 317//625 318//625 348//625
f 317//626 348//626 347//626
f 371//627 318//627 317//627
f 372//628 347//628 348//628
f 318//629 319//629 349//629
f 318//630 349//630 348//630
f 371//631 319//631 318//631
f 372//632 348//632 349//632
f 319//633 320//633 350//633
f 319//634 350//634 349//634
f 371//635 320//635 319//635
f 372//636 349//636 350//636
f 320//637 321//637 351//637
f 320//638 351//638 350//638
f 371//639 321//639 320//639
f 372//640 350//640 351//640
f 321//641 322//641 352//641
f 321//642 352//642 351//642
f 371//643 322//643 321//643
f 372//644 351//644 352//644
f 322//645 323//645 353//645
f 322//646 353//646 352//646
f 371//647 323//647 322//647
f 372//648 352//648 353//648
f 323//649 324//649 354//649
f 323//650 354//650 353//650
f 371//651 324//651 323//651
f 372//652 353//652 354//652
f 324//653 325//653 355//653
f 324//654 355//654 354//654
f 371//655 325//655 324//655
f 372//656 354//656 355//656
f 325//657 326//657 356//657
f 325//658 356//658 355//658
f 371//659 326//659 325//659
f 372//660 355//660 356//660
f 326//661 327//661 357//661
f 326//662 357//662 356//662
f 371//663 327//663 326//663
f 372//664 356//664 357//664
f 327//665 328//665 358//665
f 327//666 358//666 357//666
f 371//667 328//667 327//667
f 372//668 357//668 358//668
f 328//669 329//669 359//669
f 328//670 359//670 358//670
f 371//671 329//671 328//671
f 372//672 358//672 359//672
f 329//673 330//673 360//673
f 329//674 360//674 359//674
f 371//675 330//675 329//675
f 372//676 359//676 360//676
f 330//677 331//677 361//677
f 330//678 361//678 360//678
f 371//679 331//679 330//679
f 372//680 360//680 361//680
f 331//681 332//681 362//681
f 331//682 362//682 361//682
f 371//683 332//683 331//683
f 372//684 361//684 362//684
f 332//685 333//685 363//685
f 332//686 363//686 362//686
f 371//687 333//687 332//687
f 372//688 362//688 363//688
f 333//689 334//689 364//689
f 333//690 364//690 363//690
f 371//691 334//691 333//691
f 372//692 363//692 364//692
f 334//693 335//693 365//693
f 334//694 365//694 364//694
f 371//695 335//695 334//695
f 372//696 364//696 365//696
f 335//697 336//697 366//697
f 335//698 366//698 365//698
f 371//699 336//699 335//699
f 372//700 365//700 366//700
f 336//701 337//701 367//701
f 336//702 367//702 366//702
f 371//703 337//703 336//703
f 372//704 366//704 367//704
f 337//705 338//705 368//705
f 337//706 368//706 367//706
f 371//707 338//707 337//707
f 372//708 367//708 368//708
f 338//709 339//709 369//709
f 338//710 369//710 368//710
f 371//711 339//711 338//711
f 372//712 368//712 369//712
f 339//713 340//713 370//713
f 339//714 370//714 369//714
f 371//715 340//715 339//715
f 372//716 369//716 370//716
f 340//717 311//717 341//717
f 340//718 341//718 370//718
f 371//719 311//719 340//719
f 372//720 370//720 341//720
