mtllib Food_Smoothie.mtl
v 0.0000 0.0000 0.0000
v 0.0000 0.0000 0.0000
v 0.0000 0.0000 0.0000
v 0.0000 0.0000 0.0000
v 0.0000 0.0000 0.0000
v 0.0000 0.0000 0.0000
v 0.0000 0.0000 0.0000
v 0.0000 0.0000 0.0000
v 0.0000 0.0000 0.0000
v 0.0000 0.0000 0.0000
v 0.5500 0.0000 0.0000
v 0.4450 0.0000 0.3233
v 0.1700 0.0000 0.5231
v -0.1700 0.0000 0.5231
v -0.4450 0.0000 0.3233
v -0.5500 0.0000 0.0000
v -0.4450 0.0000 -0.3233
v -0.1700 0.0000 -0.5231
v 0.1700 0.0000 -0.5231
v 0.4450 0.0000 -0.3233
v 0.7200 1.3500 0.0000
v 0.5825 1.3500 0.4232
v 0.2225 1.3500 0.6848
v -0.2225 1.3500 0.6848
v -0.5825 1.3500 0.4232
v -0.7200 1.3500 0.0000
v -0.5825 1.3500 -0.4232
v -0.2225 1.3500 -0.6848
v 0.2225 1.3500 -0.6848
v 0.5825 1.3500 -0.4232
v 0.0000 1.3500 0.0000
v 0.7400 1.3200 0.0000
v 0.5987 1.3200 0.4350
v 0.2287 1.3200 0.7038
v -0.2287 1.3200 0.7038
v -0.5987 1.3200 0.4350
v -0.7400 1.3200 0.0000
v -0.5987 1.3200 -0.4350
v -0.2287 1.3200 -0.7038
v 0.2287 1.3200 -0.7038
v 0.5987 1.3200 -0.4350
v 0.7600 1.4200 0.0000
v 0.6149 1.4200 0.4467
v 0.2349 1.4200 0.7228
v -0.2349 1.4200 0.7228
v -0.6149 1.4200 0.4467
v -0.7600 1.4200 0.0000
v -0.6149 1.4200 -0.4467
v -0.2349 1.4200 -0.7228
v 0.2349 1.4200 -0.7228
v 0.6149 1.4200 -0.4467
v 0.5000 1.5000 0.0000
v 0.4045 1.5000 0.2939
v 0.1545 1.5000 0.4755
v -0.1545 1.5000 0.4755
v -0.4045 1.5000 0.2939
v -0.5000 1.5000 0.0000
v -0.4045 1.5000 -0.2939
v -0.1545 1.5000 -0.4755
v 0.1545 1.5000 -0.4755
v 0.4045 1.5000 -0.2939
v 0.0000 1.5200 0.0000
v 0.0000 1.5200 0.0000
v 0.0000 1.5200 0.0000
v 0.0000 1.5200 0.0000
v 0.0000 1.5200 0.0000
v 0.0000 1.5200 0.0000
v 0.0000 1.5200 0.0000
v 0.0000 1.5200 0.0000
v 0.0000 1.5200 0.0000
v 0.0000 1.5200 0.0000
v 0.0000 1.3200 0.0000
v 0.6300 0.7200 0.0000
v 0.5097 0.7200 0.3703
v 0.1947 0.7200 0.5992
v -0.1947 0.7200 0.5992
v -0.5097 0.7200 0.3703
v -0.6300 0.7200 0.0000
v -0.5097 0.7200 -0.3703
v -0.1947 0.7200 -0.5992
v 0.1947 0.7200 -0.5992
v 0.5097 0.7200 -0.3703
v 0.6600 1.0000 0.0000
v 0.5340 1.0000 0.3879
v 0.2040 1.0000 0.6277
v -0.2040 1.0000 0.6277
v -0.5340 1.0000 0.3879
v -0.6600 1.0000 0.0000
v -0.5340 1.0000 -0.3879
v -0.2040 1.0000 -0.6277
v 0.2040 1.0000 -0.6277
v 0.5340 1.0000 -0.3879
v 0.1668 1.3791 0.0000
v 0.1206 1.3935 0.0666
v 0.0459 1.4169 0.0411
v 0.0459 1.4169 -0.0411
v 0.1206 1.3935 -0.0666
v 0.4168 2.1791 0.0000
v 0.3706 2.1935 0.0666
v 0.2959 2.2169 0.0411
v 0.2959 2.2169 -0.0411
v 0.3706 2.1935 -0.0666
v 0.1000 1.4000 0.0000
v 0.3500 2.2000 0.0000
vn 0.0000 1.0000 0.0000
vn 0.0000 1.0000 0.0000
vn 0.0000 1.0000 -0.0000
vn 0.0000 1.0000 0.0000
vn 0.0000 1.0000 0.0000
vn 0.0000 1.0000 0.0000
vn 0.0000 1.0000 0.0000
vn 0.0000 1.0000 0.0000
vn 0.0000 1.0000 0.0000
vn -0.0000 1.0000 0.0000
vn -0.9443 0.1189 -0.3068
vn -0.9443 0.1189 -0.3068
vn -0.5836 0.1189 -0.8033
vn -0.5836 0.1189 -0.8033
vn -0.0000 0.1189 -0.9929
vn -0.0000 0.1189 -0.9929
vn 0.5836 0.1189 -0.8033
vn 0.5836 0.1189 -0.8033
vn 0.9443 0.1189 -0.3068
vn 0.9443 0.1189 -0.3068
vn 0.9443 0.1189 0.3068
vn 0.9443 0.1189 0.3068
vn 0.5836 0.1189 0.8033
vn 0.5836 0.1189 0.8033
vn 0.0000 0.1189 0.9929
vn 0.0000 0.1189 0.9929
vn -0.5836 0.1189 0.8033
vn -0.5836 0.1189 0.8033
vn -0.9443 0.1189 0.3068
vn -0.9443 0.1189 0.3068
vn 0.0000 -1.0000 0.0000
vn 0.0000 -1.0000 0.0000
vn 0.0000 -1.0000 0.0000
vn 0.0000 -1.0000 0.0000
vn 0.0000 -1.0000 0.0000
vn -0.0000 -1.0000 0.0000
vn 0.0000 -1.0000 0.0000
vn 0.0000 -1.0000 -0.0000
vn 0.0000 -1.0000 0.0000
vn 0.0000 -1.0000 0.0000
vn -0.9343 0.1869 -0.3036
vn -0.9343 0.1869 -0.3036
vn -0.5774 0.1869 -0.7948
vn -0.5774 0.1869 -0.7948
vn -0.0000 0.1869 -0.9824
vn -0.0000 0.1869 -0.9824
vn 0.5774 0.1869 -0.7948
vn 0.5774 0.1869 -0.7948
vn 0.9343 0.1869 -0.3036
vn 0.9343 0.1869 -0.3036
vn 0.9343 0.1869 0.3036
vn 0.9343 0.1869 0.3036
vn 0.5774 0.1869 0.7948
vn 0.5774 0.1869 0.7948
vn 0.0000 0.1869 0.9824
vn 0.0000 0.1869 0.9824
vn -0.5774 0.1869 0.7948
vn -0.5774 0.1869 0.7948
vn -0.9343 0.1869 0.3036
vn -0.9343 0.1869 0.3036
vn -0.2928 -0.9514 -0.0951
vn -0.2928 -0.9514 -0.0951
vn -0.1809 -0.9514 -0.2490
vn -0.1809 -0.9514 -0.2490
vn -0.0000 -0.9514 -0.3078
vn -0.0000 -0.9514 -0.3078
vn 0.1809 -0.9514 -0.2490
vn 0.1809 -0.9514 -0.2490
vn 0.2928 -0.9514 -0.0951
vn 0.2928 -0.9514 -0.0951
vn 0.2928 -0.9514 0.0951
vn 0.2928 -0.9514 0.0951
vn 0.1809 -0.9514 0.2490
vn 0.1809 -0.9514 0.2490
vn 0.0000 -0.9514 0.3078
vn 0.0000 -0.9514 0.3078
vn -0.1809 -0.9514 0.2490
vn -0.1809 -0.9514 0.2490
vn -0.2928 -0.9514 0.0951
vn -0.2928 -0.9514 0.0951
vn -0.0400 -0.9991 -0.0130
vn -0.0247 -0.9991 -0.0340
vn -0.0000 -0.9991 -0.0420
vn 0.0247 -0.9991 -0.0340
vn 0.0400 -0.9991 -0.0130
vn 0.0400 -0.9991 0.0130
vn 0.0247 -0.9991 0.0340
vn 0.0000 -0.9991 0.0420
vn -0.0247 -0.9991 0.0340
vn -0.0400 -0.9991 0.0130
vn 0.0000 -1.0000 0.0000
vn 0.0000 -1.0000 0.0000
vn 0.0000 -1.0000 0.0000
vn 0.0000 -1.0000 0.0000
vn 0.0000 -1.0000 0.0000
vn -0.0000 -1.0000 0.0000
vn 0.0000 -1.0000 0.0000
vn 0.0000 -1.0000 -0.0000
vn 0.0000 -1.0000 0.0000
vn 0.0000 -1.0000 0.0000
vn -0.9462 0.1014 -0.3074
vn -0.9462 0.1014 -0.3074
vn -0.5848 0.1014 -0.8048
vn -0.5848 0.1014 -0.8048
vn 0.0000 0.1014 -0.9948
vn -0.0000 0.1014 -0.9948
vn 0.5848 0.1014 -0.8048
vn 0.5848 0.1014 -0.8048
vn 0.9462 0.1014 -0.3074
vn 0.9462 0.1014 -0.3074
vn 0.9462 0.1014 0.3074
vn 0.9462 0.1014 0.3074
vn 0.5848 0.1014 0.8048
vn 0.5848 0.1014 0.8048
vn -0.0000 0.1014 0.9948
vn 0.0000 0.1014 0.9948
vn -0.5848 0.1014 0.8048
vn -0.5848 0.1014 0.8048
vn -0.9462 0.1014 0.3074
vn -0.9462 0.1014 0.3074
vn -0.7722 0.2413 -0.5878
vn -0.7722 0.2413 -0.5878
vn 0.2950 -0.0922 -0.9511
vn 0.2950 -0.0922 -0.9511
vn 0.9545 -0.2983 -0.0000
vn 0.9545 -0.2983 0.0000
vn 0.2950 -0.0922 0.9511
vn 0.2950 -0.0922 0.9511
vn -0.7722 0.2413 0.5878
vn -0.7722 0.2413 0.5878
vn -0.2983 -0.9545 -0.0000
vn -0.2983 -0.9545 -0.0000
vn -0.2983 -0.9545 0.0000
vn -0.2983 -0.9545 0.0000
vn -0.2983 -0.9545 0.0000
vn -0.2983 -0.9545 -0.0000
vn -0.2983 -0.9545 -0.0000
vn -0.2983 -0.9545 0.0000
vn -0.2983 -0.9545 0.0000
vn -0.2983 -0.9545 0.0000
usemtl c0
f 1//1 12//1 11//1
f 2//2 13//2 12//2
f 3//3 14//3 13//3
f 4//4 15//4 14//4
f 5//5 16//5 15//5
f 6//6 17//6 16//6
f 7//7 18//7 17//7
f 8//8 19//8 18//8
f 9//9 20//9 19//9
f 10//10 11//10 20//10
f 11//11 12//11 22//11
f 11//12 22//12 21//12
f 12//13 13//13 23//13
f 12//14 23//14 22//14
f 13//15 14//15 24//15
f 13//16 24//16 23//16
f 14//17 15//17 25//17
f 14//18 25//18 24//18
f 15//19 16//19 26//19
f 15//20 26//20 25//20
f 16//21 17//21 27//21
f 16//22 27//22 26//22
f 17//23 18//23 28//23
f 17//24 28//24 27//24
f 18//25 19//25 29//25
f 18//26 29//26 28//26
f 19//27 20//27 30//27
f 19//28 30//28 29//28
f 20//29 11//29 21//29
f 20//30 21//30 30//30
f 31//31 21//31 22//31
f 31//32 22//32 23//32
f 31//33 23//33 24//33
f 31//34 24//34 25//34
f 31//35 25//35 26//35
f 31//36 26//36 27//36
f 31//37 27//37 28//37
f 31//38 28//38 29//38
f 31//39 29//39 30//39
f 31//40 30//40 21//40
usemtl c1
f 32//41 33//41 43//41
f 32//42 43//42 42//42
f 33//43 34//43 44//43
f 33//44 44//44 43//44
f 34//45 35//45 45//45
f 34//46 45//46 44//46
f 35//47 36//47 46//47
f 35//48 46//48 45//48
f 36//49 37//49 47//49
f 36//50 47//50 46//50
f 37//51 38//51 48//51
f 37//52 48//52 47//52
f 38//53 39//53 49//53
f 38//54 49//54 48//54
f 39//55 40//55 50//55
f 39//56 50//56 49//56
f 40//57 41//57 51//57
f 40//58 51//58 50//58
f 41//59 32//59 42//59
f 41//60 42//60 51//60
f 42//61 43//61 53//61
f 42//62 53//62 52//62
f 43//63 44//63 54//63
f 43//64 54//64 53//64
f 44//65 45//65 55//65
f 44//66 55//66 54//66
f 45//67 46//67 56//67
f 45//68 56//68 55//68
f 46//69 47//69 57//69
f 46//70 57//70 56//70
f 47//71 48//71 58//71
f 47//72 58//72 57//72
f 48//73 49//73 59//73
f 48//74 59//74 58//74
f 49//75 50//75 60//75
f 49//76 60//76 59//76
f 50//77 51//77 61//77
f 50//78 61//78 60//78
f 51//79 42//79 52//79
f 51//80 52//80 61//80
f 52//81 53//81 63//81
f 53//82 54//82 64//82
f 54//83 55//83 65//83
f 55//84 56//84 66//84
f 56//85 57//85 67//85
f 57//86 58//86 68//86
f 58//87 59//87 69//87
f 59//88 60//88 70//88
f 60//89 61//89 71//89
f 61//90 52//90 62//90
f 72//91 32//91 33//91
f 72//92 33//92 34//92
f 72//93 34//93 35//93
f 72//94 35//94 36//94
f 72//95 36//95 37//95
f 72//96 37//96 38//96
f 72//97 38//97 39//97
f 72//98 39//98 40//98
f 72//99 40//99 41//99
f 72//100 41//100 32//100
usemtl c2
f 73//101 74//101 84//101
f 73//102 84//102 83//102
f 74//103 75//103 85//103
f 74//104 85//104 84//104
f 75//105 76//105 86//105
f 75//106 86//106 85//106
f 76//107 77//107 87//107
f 76//108 87//108 86//108
f 77//109 78//109 88//109
f 77//110 88//110 87//110
f 78//111 79//111 89//111
f 78//112 89//112 88//112
f 79//113 80//113 90//113
f 79//114 90//114 89//114
f 80//115 81//115 91//115
f 80//116 91//116 90//116
f 81//117 82//117 92//117
f 81//118 92//118 91//118
f 82//119 73//119 83//119
f 82//120 83//120 92//120
usemtl c3
f 93//121 94//121 99//121
f 93//122 99//122 98//122
f 94//123 95//123 100//123
f 94//124 100//124 99//124
f 95//125 96//125 101//125
f 95//126 101//126 100//126
f 96//127 97//127 102//127
f 96//128 102//128 101//128
f 97//129 93//129 98//129
f 97//130 98//130 102//130
f 103//131 93//131 94//131
f 103//132 94//132 95//132
f 103//133 95//133 96//133
f 103//134 96//134 97//134
f 103//135 97//135 93//135
f 104//136 98//136 99//136
f 104//137 99//137 100//137
f 104//138 100//138 101//138
f 104//139 101//139 102//139
f 104//140 102//140 98//140
