mtllib Food_BubbleTea.mtl
v 0.0000 0.0000 0.0000
v 0.0000 0.0000 0.0000
v 0.0000 0.0000 0.0000
v 0.0000 0.0000 0.0000
v 0.0000 0.0000 0.0000
v 0.0000 0.0000 0.0000
v 0.0000 0.0000 0.0000
v 0.0000 0.0000 0.0000
v 0.0000 0.0000 0.0000
v 0.0000 0.0000 0.0000
v 0.5500 0.0000 0.0000
v 0.4450 0.0000 0.3233
v 0.1700 0.0000 0.5231
v -0.1700 0.0000 0.5231
v -0.4450 0.0000 0.3233
v -0.5500 0.0000 0.0000
v -0.4450 0.0000 -0.3233
v -0.1700 0.0000 -0.5231
v 0.1700 0.0000 -0.5231
v 0.4450 0.0000 -0.3233
v 0.7200 1.3500 0.0000
v 0.5825 1.3500 0.4232
v 0.2225 1.3500 0.6848
v -0.2225 1.3500 0.6848
v -0.5825 1.3500 0.4232
v -0.7200 1.3500 0.0000
v -0.5825 1.3500 -0.4232
v -0.2225 1.3500 -0.6848
v 0.2225 1.3500 -0.6848
v 0.5825 1.3500 -0.4232
v 0.0000 1.3500 0.0000
v 0.7400 1.3200 0.0000
v 0.5987 1.3200 0.4350
v 0.2287 1.3200 0.7038
v -0.2287 1.3200 0.7038
v -0.5987 1.3200 0.4350
v -0.7400 1.3200 0.0000
v -0.5987 1.3200 -0.4350
v -0.2287 1.3200 -0.7038
v 0.2287 1.3200 -0.7038
v 0.5987 1.3200 -0.4350
v 0.7600 1.4200 0.0000
v 0.6149 1.4200 0.4467
v 0.2349 1.4200 0.7228
v -0.2349 1.4200 0.7228
v -0.6149 1.4200 0.4467
v -0.7600 1.4200 0.0000
v -0.6149 1.4200 -0.4467
v -0.2349 1.4200 -0.7228
v 0.2349 1.4200 -0.7228
v 0.6149 1.4200 -0.4467
v 0.5000 1.5000 0.0000
v 0.4045 1.5000 0.2939
v 0.1545 1.5000 0.4755
v -0.1545 1.5000 0.4755
v -0.4045 1.5000 0.2939
v -0.5000 1.5000 0.0000
v -0.4045 1.5000 -0.2939
v -0.1545 1.5000 -0.4755
v 0.1545 1.5000 -0.4755
v 0.4045 1.5000 -0.2939
v 0.0000 1.5200 0.0000
v 0.0000 1.5200 0.0000
v 0.0000 1.5200 0.0000
v 0.0000 1.5200 0.0000
v 0.0000 1.5200 0.0000
v 0.0000 1.5200 0.0000
v 0.0000 1.5200 0.0000
v 0.0000 1.5200 0.0000
v 0.0000 1.5200 0.0000
v 0.0000 1.5200 0.0000
v 0.0000 1.3200 0.0000
v 0.6300 0.7200 0.0000
v 0.5097 0.7200 0.3703
v 0.1947 0.7200 0.5992
v -0.1947 0.7200 0.5992
v -0.5097 0.7200 0.3703
v -0.6300 0.7200 0.0000
v -0.5097 0.7200 -0.3703
v -0.1947 0.7200 -0.5992
v 0.1947 0.7200 -0.5992
v 0.5097 0.7200 -0.3703
v 0.6600 1.0000 0.0000
v 0.5340 1.0000 0.3879
v 0.2040 1.0000 0.6277
v -0.2040 1.0000 0.6277
v -0.5340 1.0000 0.3879
v -0.6600 1.0000 0.0000
v -0.5340 1.0000 -0.3879
v -0.2040 1.0000 -0.6277
v 0.2040 1.0000 -0.6277
v 0.5340 1.0000 -0.3879
v 0.1668 1.3791 0.0000
v 0.1206 1.3935 0.0666
v 0.0459 1.4169 0.0411
v 0.0459 1.4169 -0.0411
v 0.1206 1.3935 -0.0666
v 0.4168 2.1791 0.0000
v 0.3706 2.1935 0.0666
v 0.2959 2.2169 0.0411
v 0.2959 2.2169 -0.0411
v 0.3706 2.1935 -0.0666
v 0.1000 1.4000 0.0000
v 0.3500 2.2000 0.0000
v 0.5528 0.0600 0.0892
v 0.5528 0.0600 0.0892
v 0.5528 0.0600 0.0892
v 0.5528 0.0600 0.0892
v 0.5528 0.0600 0.0892
v 0.6394 0.1100 0.0892
v 0.5796 0.1100 0.1716
v 0.4828 0.1100 0.1401
v 0.4828 0.1100 0.0383
v 0.5796 0.1100 0.0069
v 0.6394 0.2100 0.0892
v 0.5796 0.2100 0.1716
v 0.4828 0.2100 0.1401
v 0.4828 0.2100 0.0383
v 0.5796 0.2100 0.0069
v 0.5528 0.2600 0.0892
v 0.5528 0.2600 0.0892
v 0.5528 0.2600 0.0892
v 0.5528 0.2600 0.0892
v 0.5528 0.2600 0.0892
v 0.5803 0.3000 0.2453
v 0.5803 0.3000 0.2453
v 0.5803 0.3000 0.2453
v 0.5803 0.3000 0.2453
v 0.5803 0.3000 0.2453
v 0.6669 0.3500 0.2453
v 0.6070 0.3500 0.3277
v 0.5102 0.3500 0.2962
v 0.5102 0.3500 0.1944
v 0.6070 0.3500 0.1630
v 0.6669 0.4500 0.2453
v 0.6070 0.4500 0.3277
v 0.5102 0.4500 0.2962
v 0.5102 0.4500 0.1944
v 0.6070 0.4500 0.1630
v 0.5803 0.5000 0.2453
v 0.5803 0.5000 0.2453
v 0.5803 0.5000 0.2453
v 0.5803 0.5000 0.2453
v 0.5803 0.5000 0.2453
v 0.3278 0.0600 0.4540
v 0.3278 0.0600 0.4540
v 0.3278 0.0600 0.4540
v 0.3278 0.0600 0.4540
v 0.3278 0.0600 0.4540
v 0.4144 0.1100 0.4540
v 0.3546 0.1100 0.5364
v 0.2578 0.1100 0.5049
v 0.2578 0.1100 0.4031
v 0.3546 0.1100 0.3716
v 0.4144 0.2100 0.4540
v 0.3546 0.2100 0.5364
v 0.2578 0.2100 0.5049
v 0.2578 0.2100 0.4031
v 0.3546 0.2100 0.3716
v 0.3278 0.2600 0.4540
v 0.3278 0.2600 0.4540
v 0.3278 0.2600 0.4540
v 0.3278 0.2600 0.4540
v 0.3278 0.2600 0.4540
v 0.2368 0.3000 0.5838
v 0.2368 0.3000 0.5838
v 0.2368 0.3000 0.5838
v 0.2368 0.3000 0.5838
v 0.2368 0.3000 0.5838
v 0.3234 0.3500 0.5838
v 0.2636 0.3500 0.6662
v 0.1668 0.3500 0.6347
v 0.1668 0.3500 0.5329
v 0.2636 0.3500 0.5014
v 0.3234 0.4500 0.5838
v 0.2636 0.4500 0.6662
v 0.1668 0.4500 0.6347
v 0.1668 0.4500 0.5329
v 0.2636 0.4500 0.5014
v 0.2368 0.5000 0.5838
v 0.2368 0.5000 0.5838
v 0.2368 0.5000 0.5838
v 0.2368 0.5000 0.5838
v 0.2368 0.5000 0.5838
v -0.0892 0.0600 0.5528
v -0.0892 0.0600 0.5528
v -0.0892 0.0600 0.5528
v -0.0892 0.0600 0.5528
v -0.0892 0.0600 0.5528
v -0.0026 0.1100 0.5528
v -0.0625 0.1100 0.6352
v -0.1593 0.1100 0.6038
v -0.1593 0.1100 0.5019
v -0.0625 0.1100 0.4705
v -0.0026 0.2100 0.5528
v -0.0625 0.2100 0.6352
v -0.1593 0.2100 0.6038
v -0.1593 0.2100 0.5019
v -0.0625 0.2100 0.4705
v -0.0892 0.2600 0.5528
v -0.0892 0.2600 0.5528
v -0.0892 0.2600 0.5528
v -0.0892 0.2600 0.5528
v -0.0892 0.2600 0.5528
v -0.2453 0.3000 0.5803
v -0.2453 0.3000 0.5803
v -0.2453 0.3000 0.5803
v -0.2453 0.3000 0.5803
v -0.2453 0.3000 0.5803
v -0.1587 0.3500 0.5803
v -0.2186 0.3500 0.6626
v -0.3154 0.3500 0.6312
v -0.3154 0.3500 0.5294
v -0.2186 0.3500 0.4979
v -0.1587 0.4500 0.5803
v -0.2186 0.4500 0.6626
v -0.3154 0.4500 0.6312
v -0.3154 0.4500 0.5294
v -0.2186 0.4500 0.4979
v -0.2453 0.5000 0.5803
v -0.2453 0.5000 0.5803
v -0.2453 0.5000 0.5803
v -0.2453 0.5000 0.5803
v -0.2453 0.5000 0.5803
v -0.4540 0.0600 0.3278
v -0.4540 0.0600 0.3278
v -0.4540 0.0600 0.3278
v -0.4540 0.0600 0.3278
v -0.4540 0.0600 0.3278
v -0.3674 0.1100 0.3278
v -0.4272 0.1100 0.4102
v -0.5241 0.1100 0.3787
v -0.5241 0.1100 0.2769
v -0.4272 0.1100 0.2455
v -0.3674 0.2100 0.3278
v -0.4272 0.2100 0.4102
v -0.5241 0.2100 0.3787
v -0.5241 0.2100 0.2769
v -0.4272 0.2100 0.2455
v -0.4540 0.2600 0.3278
v -0.4540 0.2600 0.3278
v -0.4540 0.2600 0.3278
v -0.4540 0.2600 0.3278
v -0.4540 0.2600 0.3278
v -0.5838 0.3000 0.2368
v -0.5838 0.3000 0.2368
v -0.5838 0.3000 0.2368
v -0.5838 0.3000 0.2368
v -0.5838 0.3000 0.2368
v -0.4972 0.3500 0.2368
v -0.5570 0.3500 0.3192
v -0.6539 0.3500 0.2877
v -0.6539 0.3500 0.1859
v -0.5570 0.3500 0.1545
v -0.4972 0.4500 0.2368
v -0.5570 0.4500 0.3192
v -0.6539 0.4500 0.2877
v -0.6539 0.4500 0.1859
v -0.5570 0.4500 0.1545
v -0.5838 0.5000 0.2368
v -0.5838 0.5000 0.2368
v -0.5838 0.5000 0.2368
v -0.5838 0.5000 0.2368
v -0.5838 0.5000 0.2368
v -0.5528 0.0600 -0.0892
v -0.5528 0.0600 -0.0892
v -0.5528 0.0600 -0.0892
v -0.5528 0.0600 -0.0892
v -0.5528 0.0600 -0.0892
v -0.4662 0.1100 -0.0892
v -0.5261 0.1100 -0.0069
v -0.6229 0.1100 -0.0383
v -0.6229 0.1100 -0.1401
v -0.5261 0.1100 -0.1716
v -0.4662 0.2100 -0.0892
v -0.5261 0.2100 -0.0069
v -0.6229 0.2100 -0.0383
v -0.6229 0.2100 -0.1401
v -0.5261 0.2100 -0.1716
v -0.5528 0.2600 -0.0892
v -0.5528 0.2600 -0.0892
v -0.5528 0.2600 -0.0892
v -0.5528 0.2600 -0.0892
v -0.5528 0.2600 -0.0892
v -0.5803 0.3000 -0.2453
v -0.5803 0.3000 -0.2453
v -0.5803 0.3000 -0.2453
v -0.5803 0.3000 -0.2453
v -0.5803 0.3000 -0.2453
v -0.4937 0.3500 -0.2453
v -0.5535 0.3500 -0.1630
v -0.6503 0.3500 -0.1944
v -0.6503 0.3500 -0.2962
v -0.5535 0.3500 -0.3277
v -0.4937 0.4500 -0.2453
v -0.5535 0.4500 -0.1630
v -0.6503 0.4500 -0.1944
v -0.6503 0.4500 -0.2962
v -0.5535 0.4500 -0.3277
v -0.5803 0.5000 -0.2453
v -0.5803 0.5000 -0.2453
v -0.5803 0.5000 -0.2453
v -0.5803 0.5000 -0.2453
v -0.5803 0.5000 -0.2453
v -0.3278 0.0600 -0.4540
v -0.3278 0.0600 -0.4540
v -0.3278 0.0600 -0.4540
v -0.3278 0.0600 -0.4540
v -0.3278 0.0600 -0.4540
v -0.2412 0.1100 -0.4540
v -0.3011 0.1100 -0.3716
v -0.3979 0.1100 -0.4031
v -0.3979 0.1100 -0.5049
v -0.3011 0.1100 -0.5364
v -0.2412 0.2100 -0.4540
v -0.3011 0.2100 -0.3716
v -0.3979 0.2100 -0.4031
v -0.3979 0.2100 -0.5049
v -0.3011 0.2100 -0.5364
v -0.3278 0.2600 -0.4540
v -0.3278 0.2600 -0.4540
v -0.3278 0.2600 -0.4540
v -0.3278 0.2600 -0.4540
v -0.3278 0.2600 -0.4540
v -0.2368 0.3000 -0.5838
v -0.2368 0.3000 -0.5838
v -0.2368 0.3000 -0.5838
v -0.2368 0.3000 -0.5838
v -0.2368 0.3000 -0.5838
v -0.1502 0.3500 -0.5838
v -0.2101 0.3500 -0.5014
v -0.3069 0.3500 -0.5329
v -0.3069 0.3500 -0.6347
v -0.2101 0.3500 -0.6662
v -0.1502 0.4500 -0.5838
v -0.2101 0.4500 -0.5014
v -0.3069 0.4500 -0.5329
v -0.3069 0.4500 -0.6347
v -0.2101 0.4500 -0.6662
v -0.2368 0.5000 -0.5838
v -0.2368 0.5000 -0.5838
v -0.2368 0.5000 -0.5838
v -0.2368 0.5000 -0.5838
v -0.2368 0.5000 -0.5838
v 0.0892 0.0600 -0.5528
v 0.0892 0.0600 -0.5528
v 0.0892 0.0600 -0.5528
v 0.0892 0.0600 -0.5528
v 0.0892 0.0600 -0.5528
v 0.1758 0.1100 -0.5528
v 0.1160 0.1100 -0.4705
v 0.0192 0.1100 -0.5019
v 0.0192 0.1100 -0.6038
v 0.1160 0.1100 -0.6352
v 0.1758 0.2100 -0.5528
v 0.1160 0.2100 -0.4705
v 0.0192 0.2100 -0.5019
v 0.0192 0.2100 -0.6038
v 0.1160 0.2100 -0.6352
v 0.0892 0.2600 -0.5528
v 0.0892 0.2600 -0.5528
v 0.0892 0.2600 -0.5528
v 0.0892 0.2600 -0.5528
v 0.0892 0.2600 -0.5528
v 0.2453 0.3000 -0.5803
v 0.2453 0.3000 -0.5803
v 0.2453 0.3000 -0.5803
v 0.2453 0.3000 -0.5803
v 0.2453 0.3000 -0.5803
v 0.3319 0.3500 -0.5803
v 0.2721 0.3500 -0.4979
v 0.1753 0.3500 -0.5294
v 0.1753 0.3500 -0.6312
v 0.2721 0.3500 -0.6626
v 0.3319 0.4500 -0.5803
v 0.2721 0.4500 -0.4979
v 0.1753 0.4500 -0.5294
v 0.1753 0.4500 -0.6312
v 0.2721 0.4500 -0.6626
v 0.2453 0.5000 -0.5803
v 0.2453 0.5000 -0.5803
v 0.2453 0.5000 -0.5803
v 0.2453 0.5000 -0.5803
v 0.2453 0.5000 -0.5803
v 0.4540 0.0600 -0.3278
v 0.4540 0.0600 -0.3278
v 0.4540 0.0600 -0.3278
v 0.4540 0.0600 -0.3278
v 0.4540 0.0600 -0.3278
v 0.5406 0.1100 -0.3278
v 0.4808 0.1100 -0.2455
v 0.3839 0.1100 -0.2769
v 0.3839 0.1100 -0.3787
v 0.4808 0.1100 -0.4102
v 0.5406 0.2100 -0.3278
v 0.4808 0.2100 -0.2455
v 0.3839 0.2100 -0.2769
v 0.3839 0.2100 -0.3787
v 0.4808 0.2100 -0.4102
v 0.4540 0.2600 -0.3278
v 0.4540 0.2600 -0.3278
v 0.4540 0.2600 -0.3278
v 0.4540 0.2600 -0.3278
v 0.4540 0.2600 -0.3278
v 0.5838 0.3000 -0.2368
v 0.5838 0.3000 -0.2368
v 0.5838 0.3000 -0.2368
v 0.5838 0.3000 -0.2368
v 0.5838 0.3000 -0.2368
v 0.6704 0.3500 -0.2368
v 0.6106 0.3500 -0.1545
v 0.5137 0.3500 -0.1859
v 0.5137 0.3500 -0.2877
v 0.6106 0.3500 -0.3192
v 0.6704 0.4500 -0.2368
v 0.6106 0.4500 -0.1545
v 0.5137 0.4500 -0.1859
v 0.5137 0.4500 -0.2877
v 0.6106 0.4500 -0.3192
v 0.5838 0.5000 -0.2368
v 0.5838 0.5000 -0.2368
v 0.5838 0.5000 -0.2368
v 0.5838 0.5000 -0.2368
v 0.5838 0.5000 -0.2368
vn 0.0000 1.0000 0.0000
vn 0.0000 1.0000 0.0000
vn 0.0000 1.0000 -0.0000
vn 0.0000 1.0000 0.0000
vn 0.0000 1.0000 0.0000
vn 0.0000 1.0000 0.0000
vn 0.0000 1.0000 0.0000
vn 0.0000 1.0000 0.0000
vn 0.0000 1.0000 0.0000
vn -0.0000 1.0000 0.0000
vn -0.9443 0.1189 -0.3068
vn -0.9443 0.1189 -0.3068
vn -0.5836 0.1189 -0.8033
vn -0.5836 0.1189 -0.8033
vn -0.0000 0.1189 -0.9929
vn -0.0000 0.1189 -0.9929
vn 0.5836 0.1189 -0.8033
vn 0.5836 0.1189 -0.8033
vn 0.9443 0.1189 -0.3068
vn 0.9443 0.1189 -0.3068
vn 0.9443 0.1189 0.3068
vn 0.9443 0.1189 0.3068
vn 0.5836 0.1189 0.8033
vn 0.5836 0.1189 0.8033
vn 0.0000 0.1189 0.9929
vn 0.0000 0.1189 0.9929
vn -0.5836 0.1189 0.8033
vn -0.5836 0.1189 0.8033
vn -0.9443 0.1189 0.3068
vn -0.9443 0.1189 0.3068
vn 0.0000 -1.0000 0.0000
vn 0.0000 -1.0000 0.0000
vn 0.0000 -1.0000 0.0000
vn 0.0000 -1.0000 0.0000
vn 0.0000 -1.0000 0.0000
vn -0.0000 -1.0000 0.0000
vn 0.0000 -1.0000 0.0000
vn 0.0000 -1.0000 -0.0000
vn 0.0000 -1.0000 0.0000
vn 0.0000 -1.0000 0.0000
vn -0.9343 0.1869 -0.3036
vn -0.9343 0.1869 -0.3036
vn -0.5774 0.1869 -0.7948
vn -0.5774 0.1869 -0.7948
vn -0.0000 0.1869 -0.9824
vn -0.0000 0.1869 -0.9824
vn 0.5774 0.1869 -0.7948
vn 0.5774 0.1869 -0.7948
vn 0.9343 0.1869 -0.3036
vn 0.9343 0.1869 -0.3036
vn 0.9343 0.1869 0.3036
vn 0.9343 0.1869 0.3036
vn 0.5774 0.1869 0.7948
vn 0.5774 0.1869 0.7948
vn 0.0000 0.1869 0.9824
vn 0.0000 0.1869 0.9824
vn -0.5774 0.1869 0.7948
vn -0.5774 0.1869 0.7948
vn -0.9343 0.1869 0.3036
vn -0.9343 0.1869 0.3036
vn -0.2928 -0.9514 -0.0951
vn -0.2928 -0.9514 -0.0951
vn -0.1809 -0.9514 -0.2490
vn -0.1809 -0.9514 -0.2490
vn -0.0000 -0.9514 -0.3078
vn -0.0000 -0.9514 -0.3078
vn 0.1809 -0.9514 -0.2490
vn 0.1809 -0.9514 -0.2490
vn 0.2928 -0.9514 -0.0951
vn 0.2928 -0.9514 -0.0951
vn 0.2928 -0.9514 0.0951
vn 0.2928 -0.9514 0.0951
vn 0.1809 -0.9514 0.2490
vn 0.1809 -0.9514 0.2490
vn 0.0000 -0.9514 0.3078
vn 0.0000 -0.9514 0.3078
vn -0.1809 -0.9514 0.2490
vn -0.1809 -0.9514 0.2490
vn -0.2928 -0.9514 0.0951
vn -0.2928 -0.9514 0.0951
vn -0.0400 -0.9991 -0.0130
vn -0.0247 -0.9991 -0.0340
vn -0.0000 -0.9991 -0.0420
vn 0.0247 -0.9991 -0.0340
vn 0.0400 -0.9991 -0.0130
vn 0.0400 -0.9991 0.0130
vn 0.0247 -0.9991 0.0340
vn 0.0000 -0.9991 0.0420
vn -0.0247 -0.9991 0.0340
vn -0.0400 -0.9991 0.0130
vn 0.0000 -1.0000 0.0000
vn 0.0000 -1.0000 0.0000
vn 0.0000 -1.0000 0.0000
vn 0.0000 -1.0000 0.0000
vn 0.0000 -1.0000 0.0000
vn -0.0000 -1.0000 0.0000
vn 0.0000 -1.0000 0.0000
vn 0.0000 -1.0000 -0.0000
vn 0.0000 -1.0000 0.0000
vn 0.0000 -1.0000 0.0000
vn -0.9462 0.1014 -0.3074
vn -0.9462 0.1014 -0.3074
vn -0.5848 0.1014 -0.8048
vn -0.5848 0.1014 -0.8048
vn 0.0000 0.1014 -0.9948
vn -0.0000 0.1014 -0.9948
vn 0.5848 0.1014 -0.8048
vn 0.5848 0.1014 -0.8048
vn 0.9462 0.1014 -0.3074
vn 0.9462 0.1014 -0.3074
vn 0.9462 0.1014 0.3074
vn 0.9462 0.1014 0.3074
vn 0.5848 0.1014 0.8048
vn 0.5848 0.1014 0.8048
vn -0.0000 0.1014 0.9948
vn 0.0000 0.1014 0.9948
vn -0.5848 0.1014 0.8048
vn -0.5848 0.1014 0.8048
vn -0.9462 0.1014 0.3074
vn -0.9462 0.1014 0.3074
vn -0.7722 0.2413 -0.5878
vn -0.7722 0.2413 -0.5878
vn 0.2950 -0.0922 -0.9511
vn 0.2950 -0.0922 -0.9511
vn 0.9545 -0.2983 -0.0000
vn 0.9545 -0.2983 0.0000
vn 0.2950 -0.0922 0.9511
vn 0.2950 -0.0922 0.9511
vn -0.7722 0.2413 0.5878
vn -0.7722 0.2413 0.5878
vn -0.2983 -0.9545 -0.0000
vn -0.2983 -0.9545 -0.0000
vn -0.2983 -0.9545 0.0000
vn -0.2983 -0.9545 0.0000
vn -0.2983 -0.9545 0.0000
vn -0.2983 -0.9545 -0.0000
vn -0.2983 -0.9545 -0.0000
vn -0.2983 -0.9545 0.0000
vn -0.2983 -0.9545 0.0000
vn -0.2983 -0.9545 0.0000
vn -0.4700 0.8140 -0.3414
vn 0.1795 0.8140 -0.5525
vn 0.5809 0.8140 0.0000
vn 0.1795 0.8140 0.5525
vn -0.4700 0.8140 0.3414
vn -0.8090 0.0000 -0.5878
vn -0.8090 0.0000 -0.5878
vn 0.3090 0.0000 -0.9511
vn 0.3090 0.0000 -0.9511
vn 1.0000 0.0000 0.0000
vn 1.0000 -0.0000 0.0000
vn 0.3090 0.0000 0.9511
vn 0.3090 0.0000 0.9511
vn -0.8090 0.0000 0.5878
vn -0.8090 0.0000 0.5878
vn -0.4700 -0.8140 -0.3414
vn 0.1795 -0.8140 -0.5525
vn 0.5809 -0.8140 0.0000
vn 0.1795 -0.8140 0.5525
vn -0.4700 -0.8140 0.3414
vn -0.4700 0.8140 -0.3414
vn 0.1795 0.8140 -0.5525
vn 0.5809 0.8140 -0.0000
vn 0.1795 0.8140 0.5525
vn -0.4700 0.8140 0.3414
vn -0.8090 0.0000 -0.5878
vn -0.8090 0.0000 -0.5878
vn 0.3090 0.0000 -0.9511
vn 0.3090 0.0000 -0.9511
vn 1.0000 -0.0000 -0.0000
vn 1.0000 0.0000 0.0000
vn 0.3090 0.0000 0.9511
vn 0.3090 0.0000 0.9511
vn -0.8090 0.0000 0.5878
vn -0.8090 0.0000 0.5878
vn -0.4700 -0.8140 -0.3414
vn 0.1795 -0.8140 -0.5525
vn 0.5809 -0.8140 0.0000
vn 0.1795 -0.8140 0.5525
vn -0.4700 -0.8140 0.3414
vn -0.4700 0.8140 -0.3414
vn 0.1795 0.8140 -0.5525
vn 0.5809 0.8140 0.0000
vn 0.1795 0.8140 0.5525
vn -0.4700 0.8140 0.3414
vn -0.8090 0.0000 -0.5878
vn -0.8090 0.0000 -0.5878
vn 0.3090 0.0000 -0.9511
vn 0.3090 0.0000 -0.9511
vn 1.0000 0.0000 0.0000
vn 1.0000 -0.0000 0.0000
vn 0.3090 -0.0000 0.9511
vn 0.3090 -0.0000 0.9511
vn -0.8090 0.0000 0.5878
vn -0.8090 0.0000 0.5878
vn -0.4700 -0.8140 -0.3414
vn 0.1795 -0.8140 -0.5525
vn 0.5809 -0.8140 0.0000
vn 0.1795 -0.8140 0.5525
vn -0.4700 -0.8140 0.3414
vn -0.4700 0.8140 -0.3414
vn 0.1795 0.8140 -0.5525
vn 0.5809 0.8140 0.0000
vn 0.1795 0.8140 0.5525
vn -0.4700 0.8140 0.3414
vn -0.8090 0.0000 -0.5878
vn -0.8090 0.0000 -0.5878
vn 0.3090 0.0000 -0.9511
vn 0.3090 0.0000 -0.9511
vn 1.0000 0.0000 0.0000
vn 1.0000 -0.0000 0.0000
vn 0.3090 0.0000 0.9511
vn 0.3090 -0.0000 0.9511
vn -0.8090 0.0000 0.5878
vn -0.8090 0.0000 0.5878
vn -0.4700 -0.8140 -0.3414
vn 0.1795 -0.8140 -0.5525
vn 0.5809 -0.8140 0.0000
vn 0.1795 -0.8140 0.5525
vn -0.4700 -0.8140 0.3414
vn -0.4700 0.8140 -0.3414
vn 0.1795 0.8140 -0.5525
vn 0.5809 0.8140 0.0000
vn 0.1795 0.8140 0.5525
vn -0.4700 0.8140 0.3414
vn -0.8090 0.0000 -0.5878
vn -0.8090 0.0000 -0.5878
vn 0.3090 0.0000 -0.9511
vn 0.3090 0.0000 -0.9511
vn 1.0000 0.0000 0.0000
vn 1.0000 0.0000 -0.0000
vn 0.3090 -0.0000 0.9511
vn 0.3090 0.0000 0.9511
vn -0.8090 0.0000 0.5878
vn -0.8090 0.0000 0.5878
vn -0.4700 -0.8140 -0.3414
vn 0.1795 -0.8140 -0.5525
vn 0.5809 -0.8140 -0.0000
vn 0.1795 -0.8140 0.5525
vn -0.4700 -0.8140 0.3414
vn -0.4700 0.8140 -0.3414
vn 0.1795 0.8140 -0.5525
vn 0.5809 0.8140 -0.0000
vn 0.1795 0.8140 0.5525
vn -0.4700 0.8140 0.3414
vn -0.8090 0.0000 -0.5878
vn -0.8090 0.0000 -0.5878
vn 0.3090 0.0000 -0.9511
vn 0.3090 0.0000 -0.9511
vn 1.0000 0.0000 -0.0000
vn 1.0000 0.0000 0.0000
vn 0.3090 0.0000 0.9511
vn 0.3090 -0.0000 0.9511
vn -0.8090 0.0000 0.5878
vn -0.8090 0.0000 0.5878
vn -0.4700 -0.8140 -0.3414
vn 0.1795 -0.8140 -0.5525
vn 0.5809 -0.8140 0.0000
vn 0.1795 -0.8140 0.5525
vn -0.4700 -0.8140 0.3414
vn -0.4700 0.8140 -0.3414
vn 0.1795 0.8140 -0.5525
vn 0.5809 0.8140 0.0000
vn 0.1795 0.8140 0.5525
vn -0.4700 0.8140 0.3414
vn -0.8090 0.0000 -0.5878
vn -0.8090 0.0000 -0.5878
vn 0.3090 0.0000 -0.9511
vn 0.3090 0.0000 -0.9511
vn 1.0000 0.0000 0.0000
vn 1.0000 -0.0000 0.0000
vn 0.3090 0.0000 0.9511
vn 0.3090 -0.0000 0.9511
vn -0.8090 0.0000 0.5878
vn -0.8090 0.0000 0.5878
vn -0.4700 -0.8140 -0.3414
vn 0.1795 -0.8140 -0.5525
vn 0.5809 -0.8140 0.0000
vn 0.1795 -0.8140 0.5525
vn -0.4700 -0.8140 0.3414
vn -0.4700 0.8140 -0.3414
vn 0.1795 0.8140 -0.5525
vn 0.5809 0.8140 0.0000
vn 0.1795 0.8140 0.5525
vn -0.4700 0.8140 0.3414
vn -0.8090 0.0000 -0.5878
vn -0.8090 0.0000 -0.5878
vn 0.3090 0.0000 -0.9511
vn 0.3090 0.0000 -0.9511
vn 1.0000 0.0000 0.0000
vn 1.0000 0.0000 -0.0000
vn 0.3090 0.0000 0.9511
vn 0.3090 0.0000 0.9511
vn -0.8090 0.0000 0.5878
vn -0.8090 0.0000 0.5878
vn -0.4700 -0.8140 -0.3414
vn 0.1795 -0.8140 -0.5525
vn 0.5809 -0.8140 -0.0000
vn 0.1795 -0.8140 0.5525
vn -0.4700 -0.8140 0.3414
vn -0.4700 0.8140 -0.3414
vn 0.1795 0.8140 -0.5525
vn 0.5809 0.8140 -0.0000
vn 0.1795 0.8140 0.5525
vn -0.4700 0.8140 0.3414
vn -0.8090 0.0000 -0.5878
vn -0.8090 0.0000 -0.5878
vn 0.3090 0.0000 -0.9511
vn 0.3090 0.0000 -0.9511
vn 1.0000 0.0000 -0.0000
vn 1.0000 0.0000 0.0000
vn 0.3090 0.0000 0.9511
vn 0.3090 -0.0000 0.9511
vn -0.8090 0.0000 0.5878
vn -0.8090 0.0000 0.5878
vn -0.4700 -0.8140 -0.3414
vn 0.1795 -0.8140 -0.5525
vn 0.5809 -0.8140 0.0000
vn 0.1795 -0.8140 0.5525
vn -0.4700 -0.8140 0.3414
vn -0.4700 0.8140 -0.3414
vn 0.1795 0.8140 -0.5525
vn 0.5809 0.8140 0.0000
vn 0.1795 0.8140 0.5525
vn -0.4700 0.8140 0.3414
vn -0.8090 0.0000 -0.5878
vn -0.8090 0.0000 -0.5878
vn 0.3090 0.0000 -0.9511
vn 0.3090 0.0000 -0.9511
vn 1.0000 0.0000 0.0000
vn 1.0000 0.0000 -0.0000
vn 0.3090 0.0000 0.9511
vn 0.3090 0.0000 0.9511
vn -0.8090 0.0000 0.5878
vn -0.8090 0.0000 0.5878
vn -0.4700 -0.8140 -0.3414
vn 0.1795 -0.8140 -0.5525
vn 0.5809 -0.8140 -0.0000
vn 0.1795 -0.8140 0.5525
vn -0.4700 -0.8140 0.3414
vn -0.4700 0.8140 -0.3414
vn 0.1795 0.8140 -0.5525
vn 0.5809 0.8140 0.0000
vn 0.1795 0.8140 0.5525
vn -0.4700 0.8140 0.3414
vn -0.8090 0.0000 -0.5878
vn -0.8090 0.0000 -0.5878
vn 0.3090 0.0000 -0.9511
vn 0.3090 0.0000 -0.9511
vn 1.0000 0.0000 0.0000
vn 1.0000 -0.0000 0.0000
vn 0.3090 -0.0000 0.9511
vn 0.3090 -0.0000 0.9511
vn -0.8090 0.0000 0.5878
vn -0.8090 0.0000 0.5878
vn -0.4700 -0.8140 -0.3414
vn 0.1795 -0.8140 -0.5525
vn 0.5809 -0.8140 0.0000
vn 0.1795 -0.8140 0.5525
vn -0.4700 -0.8140 0.3414
vn -0.4700 0.8140 -0.3414
vn 0.1795 0.8140 -0.5525
vn 0.5809 0.8140 0.0000
vn 0.1795 0.8140 0.5525
vn -0.4700 0.8140 0.3414
vn -0.8090 0.0000 -0.5878
vn -0.8090 0.0000 -0.5878
vn 0.3090 0.0000 -0.9511
vn 0.3090 0.0000 -0.9511
vn 1.0000 0.0000 0.0000
vn 1.0000 -0.0000 0.0000
vn 0.3090 0.0000 0.9511
vn 0.3090 -0.0000 0.9511
vn -0.8090 0.0000 0.5878
vn -0.8090 0.0000 0.5878
vn -0.4700 -0.8140 -0.3414
vn 0.1795 -0.8140 -0.5525
vn 0.5809 -0.8140 0.0000
vn 0.1795 -0.8140 0.5525
vn -0.4700 -0.8140 0.3414
vn -0.4700 0.8140 -0.3414
vn 0.1795 0.8140 -0.5525
vn 0.5809 0.8140 -0.0000
vn 0.1795 0.8140 0.5525
vn -0.4700 0.8140 0.3414
vn -0.8090 0.0000 -0.5878
vn -0.8090 0.0000 -0.5878
vn 0.3090 0.0000 -0.9511
vn 0.3090 0.0000 -0.9511
vn 1.0000 0.0000 -0.0000
vn 1.0000 0.0000 -0.0000
vn 0.3090 -0.0000 0.9511
vn 0.3090 0.0000 0.9511
vn -0.8090 0.0000 0.5878
vn -0.8090 0.0000 0.5878
vn -0.4700 -0.8140 -0.3414
vn 0.1795 -0.8140 -0.5525
vn 0.5809 -0.8140 -0.0000
vn 0.1795 -0.8140 0.5525
vn -0.4700 -0.8140 0.3414
vn -0.4700 0.8140 -0.3414
vn 0.1795 0.8140 -0.5525
vn 0.5809 0.8140 -0.0000
vn 0.1795 0.8140 0.5525
vn -0.4700 0.8140 0.3414
vn -0.8090 0.0000 -0.5878
vn -0.8090 0.0000 -0.5878
vn 0.3090 0.0000 -0.9511
vn 0.3090 0.0000 -0.9511
vn 1.0000 0.0000 -0.0000
vn 1.0000 0.0000 -0.0000
vn 0.3090 0.0000 0.9511
vn 0.3090 0.0000 0.9511
vn -0.8090 0.0000 0.5878
vn -0.8090 0.0000 0.5878
vn -0.4700 -0.8140 -0.3414
vn 0.1795 -0.8140 -0.5525
vn 0.5809 -0.8140 -0.0000
vn 0.1795 -0.8140 0.5525
vn -0.4700 -0.8140 0.3414
vn -0.4700 0.8140 -0.3414
vn 0.1795 0.8140 -0.5525
vn 0.5809 0.8140 0.0000
vn 0.1795 0.8140 0.5525
vn -0.4700 0.8140 0.3414
vn -0.8090 0.0000 -0.5878
vn -0.8090 0.0000 -0.5878
vn 0.3090 0.0000 -0.9511
vn 0.3090 0.0000 -0.9511
vn 1.0000 0.0000 0.0000
vn 1.0000 -0.0000 0.0000
vn 0.3090 0.0000 0.9511
vn 0.3090 -0.0000 0.9511
vn -0.8090 0.0000 0.5878
vn -0.8090 0.0000 0.5878
vn -0.4700 -0.8140 -0.3414
vn 0.1795 -0.8140 -0.5525
vn 0.5809 -0.8140 0.0000
vn 0.1795 -0.8140 0.5525
vn -0.4700 -0.8140 0.3414
vn -0.4700 0.8140 -0.3414
vn 0.1795 0.8140 -0.5525
vn 0.5809 0.8140 -0.0000
vn 0.1795 0.8140 0.5525
vn -0.4700 0.8140 0.3414
vn -0.8090 0.0000 -0.5878
vn -0.8090 0.0000 -0.5878
vn 0.3090 0.0000 -0.9511
vn 0.3090 0.0000 -0.9511
vn 1.0000 -0.0000 -0.0000
vn 1.0000 0.0000 0.0000
vn 0.3090 0.0000 0.9511
vn 0.3090 0.0000 0.9511
vn -0.8090 0.0000 0.5878
vn -0.8090 0.0000 0.5878
vn -0.4700 -0.8140 -0.3414
vn 0.1795 -0.8140 -0.5525
vn 0.5809 -0.8140 0.0000
vn 0.1795 -0.8140 0.5525
vn -0.4700 -0.8140 0.3414
usemtl c0
f 1//1 12//1 11//1
f 2//2 13//2 12//2
f 3//3 14//3 13//3
f 4//4 15//4 14//4
f 5//5 16//5 15//5
f 6//6 17//6 16//6
f 7//7 18//7 17//7
f 8//8 19//8 18//8
f 9//9 20//9 19//9
f 10//10 11//10 20//10
f 11//11 12//11 22//11
f 11//12 22//12 21//12
f 12//13 13//13 23//13
f 12//14 23//14 22//14
f 13//15 14//15 24//15
f 13//16 24//16 23//16
f 14//17 15//17 25//17
f 14//18 25//18 24//18
f 15//19 16//19 26//19
f 15//20 26//20 25//20
f 16//21 17//21 27//21
f 16//22 27//22 26//22
f 17//23 18//23 28//23
f 17//24 28//24 27//24
f 18//25 19//25 29//25
f 18//26 29//26 28//26
f 19//27 20//27 30//27
f 19//28 30//28 29//28
f 20//29 11//29 21//29
f 20//30 21//30 30//30
f 31//31 21//31 22//31
f 31//32 22//32 23//32
f 31//33 23//33 24//33
f 31//34 24//34 25//34
f 31//35 25//35 26//35
f 31//36 26//36 27//36
f 31//37 27//37 28//37
f 31//38 28//38 29//38
f 31//39 29//39 30//39
f 31//40 30//40 21//40
usemtl c1
f 32//41 33//41 43//41
f 32//42 43//42 42//42
f 33//43 34//43 44//43
f 33//44 44//44 43//44
f 34//45 35//45 45//45
f 34//46 45//46 44//46
f 35//47 36//47 46//47
f 35//48 46//48 45//48
f 36//49 37//49 47//49
f 36//50 47//50 46//50
f 37//51 38//51 48//51
f 37//52 48//52 47//52
f 38//53 39//53 49//53
f 38//54 49//54 48//54
f 39//55 40//55 50//55
f 39//56 50//56 49//56
f 40//57 41//57 51//57
f 40//58 51//58 50//58
f 41//59 32//59 42//59
f 41//60 42//60 51//60
f 42//61 43//61 53//61
f 42//62 53//62 52//62
f 43//63 44//63 54//63
f 43//64 54//64 53//64
f 44//65 45//65 55//65
f 44//66 55//66 54//66
f 45//67 46//67 56//67
f 45//68 56//68 55//68
f 46//69 47//69 57//69
f 46//70 57//70 56//70
f 47//71 48//71 58//71
f 47//72 58//72 57//72
f 48//73 49//73 59//73
f 48//74 59//74 58//74
f 49//75 50//75 60//75
f 49//76 60//76 59//76
f 50//77 51//77 61//77
f 50//78 61//78 60//78
f 51//79 42//79 52//79
f 51//80 52//80 61//80
f 52//81 53//81 63//81
f 53//82 54//82 64//82
f 54//83 55//83 65//83
f 55//84 56//84 66//84
f 56//85 57//85 67//85
f 57//86 58//86 68//86
f 58//87 59//87 69//87
f 59//88 60//88 70//88
f 60//89 61//89 71//89
f 61//90 52//90 62//90
f 72//91 32//91 33//91
f 72//92 33//92 34//92
f 72//93 34//93 35//93
f 72//94 35//94 36//94
f 72//95 36//95 37//95
f 72//96 37//96 38//96
f 72//97 38//97 39//97
f 72//98 39//98 40//98
f 72//99 40//99 41//99
f 72//100 41//100 32//100
usemtl c2
f 73//101 74//101 84//101
f 73//102 84//102 83//102
f 74//103 75//103 85//103
f 74//104 85//104 84//104
f 75//105 76//105 86//105
f 75//106 86//106 85//106
f 76//107 77//107 87//107
f 76//108 87//108 86//108
f 77//109 78//109 88//109
f 77//110 88//110 87//110
f 78//111 79//111 89//111
f 78//112 89//112 88//112
f 79//113 80//113 90//113
f 79//114 90//114 89//114
f 80//115 81//115 91//115
f 80//116 91//116 90//116
f 81//117 82//117 92//117
f 81//118 92//118 91//118
f 82//119 73//119 83//119
f 82//120 83//120 92//120
usemtl c3
f 93//121 94//121 99//121
f 93//122 99//122 98//122
f 94//123 95//123 100//123
f 94//124 100//124 99//124
f 95//125 96//125 101//125
f 95//126 101//126 100//126
f 96//127 97//127 102//127
f 96//128 102//128 101//128
f 97//129 93//129 98//129
f 97//130 98//130 102//130
f 103//131 93//131 94//131
f 103//132 94//132 95//132
f 103//133 95//133 96//133
f 103//134 96//134 97//134
f 103//135 97//135 93//135
f 104//136 98//136 99//136
f 104//137 99//137 100//137
f 104//138 100//138 101//138
f 104//139 101//139 102//139
f 104//140 102//140 98//140
usemtl c4
f 105//141 111//141 110//141
f 106//142 112//142 111//142
f 107//143 113//143 112//143
f 108//144 114//144 113//144
f 109//145 110//145 114//145
f 110//146 111//146 116//146
f 110//147 116//147 115//147
f 111//148 112//148 117//148
f 111//149 117//149 116//149
f 112//150 113//150 118//150
f 112//151 118//151 117//151
f 113//152 114//152 119//152
f 113//153 119//153 118//153
f 114//154 110//154 115//154
f 114//155 115//155 119//155
f 115//156 116//156 121//156
f 116//157 117//157 122//157
f 117//158 118//158 123//158
f 118//159 119//159 124//159
f 119//160 115//160 120//160
f 125//161 131//161 130//161
f 126//162 132//162 131//162
f 127//163 133//163 132//163
f 128//164 134//164 133//164
f 129//165 130//165 134//165
f 130//166 131//166 136//166
f 130//167 136//167 135//167
f 131//168 132//168 137//168
f 131//169 137//169 136//169
f 132//170 133//170 138//170
f 132//171 138//171 137//171
f 133//172 134//172 139//172
f 133//173 139//173 138//173
f 134//174 130//174 135//174
f 134//175 135//175 139//175
f 135//176 136//176 141//176
f 136//177 137//177 142//177
f 137//178 138//178 143//178
f 138//179 139//179 144//179
f 139//180 135//180 140//180
f 145//181 151//181 150//181
f 146//182 152//182 151//182
f 147//183 153//183 152//183
f 148//184 154//184 153//184
f 149//185 150//185 154//185
f 150//186 151//186 156//186
f 150//187 156//187 155//187
f 151//188 152//188 157//188
f 151//189 157//189 156//189
f 152//190 153//190 158//190
f 152//191 158//191 157//191
f 153//192 154//192 159//192
f 153//193 159//193 158//193
f 154//194 150//194 155//194
f 154//195 155//195 159//195
f 155//196 156//196 161//196
f 156//197 157//197 162//197
f 157//198 158//198 163//198
f 158//199 159//199 164//199
f 159//200 155//200 160//200
f 165//201 171//201 170//201
f 166//202 172//202 171//202
f 167//203 173//203 172//203
f 168//204 174//204 173//204
f 169//205 170//205 174//205
f 170//206 171//206 176//206
f 170//207 176//207 175//207
f 171//208 172//208 177//208
f 171//209 177//209 176//209
f 172//210 173//210 178//210
f 172//211 178//211 177//211
f 173//212 174//212 179//212
f 173//213 179//213 178//213
f 174//214 170//214 175//214
f 174//215 175//215 179//215
f 175//216 176//216 181//216
f 176//217 177//217 182//217
f 177//218 178//218 183//218
f 178//219 179//219 184//219
f 179//220 175//220 180//220
f 185//221 191//221 190//221
f 186//222 192//222 191//222
f 187//223 193//223 192//223
f 188//224 194//224 193//224
f 189//225 190//225 194//225
f 190//226 191//226 196//226
f 190//227 196//227 195//227
f 191//228 192//228 197//228
f 191//229 197//229 196//229
f 192//230 193//230 198//230
f 192//231 198//231 197//231
f 193//232 194//232 199//232
f 193//233 199//233 198//233
f 194//234 190//234 195//234
f 194//235 195//235 199//235
f 195//236 196//236 201//236
f 196//237 197//237 202//237
f 197//238 198//238 203//238
f 198//239 199//239 204//239
f 199//240 195//240 200//240
f 205//241 211//241 210//241
f 206//242 212//242 211//242
f 207//243 213//243 212//243
f 208//244 214//244 213//244
f 209//245 210//245 214//245
f 210//246 211//246 216//246
f 210//247 216//247 215//247
f 211//248 212//248 217//248
f 211//249 217//249 216//249
f 212//250 213//250 218//250
f 212//251 218//251 217//251
f 213//252 214//252 219//252
f 213//253 219//253 218//253
f 214//254 210//254 215//254
f 214//255 215//255 219//255
f 215//256 216//256 221//256
f 216//257 217//257 222//257
f 217//258 218//258 223//258
f 218//259 219//259 224//259
f 219//260 215//260 220//260
f 225//261 231//261 230//261
f 226//262 232//262 231//262
f 227//263 233//263 232//263
f 228//264 234//264 233//264
f 229//265 230//265 234//265
f 230//266 231//266 236//266
f 230//267 236//267 235//267
f 231//268 232//268 237//268
f 231//269 237//269 236//269
f 232//270 233//270 238//270
f 232//271 238//271 237//271
f 233//272 234//272 239//272
f 233//273 239//273 238//273
f 234//274 230//274 235//274
f 234//275 235//275 239//275
f 235//276 236//276 241//276
f 236//277 237//277 242//277
f 237//278 238//278 243//278
f 238//279 239//279 244//279
f 239//280 235//280 240//280
f 245//281 251//281 250//281
f 246//282 252//282 251//282
f 247//283 253//283 252//283
f 248//284 254//284 253//284
f 249//285 250//285 254//285
f 250//286 251//286 256//286
f 250//287 256//287 255//287
f 251//288 252//288 257//288
f 251//289 257//289 256//289
f 252//290 253//290 258//290
f 252//291 258//291 257//291
f 253//292 254//292 259//292
f 253//293 259//293 258//293
f 254//294 250//294 255//294
f 254//295 255//295 259//295
f 255//296 256//296 261//296
f 256//297 257//297 262//297
f 257//298 258//298 263//298
f 258//299 259//299 264//299
f 259//300 255//300 260//300
f 265//301 271//301 270//301
f 266//302 272//302 271//302
f 267//303 273//303 272//303
f 268//304 274//304 273//304
f 269//305 270//305 274//305
f 270//306 271//306 276//306
f 270//307 276//307 275//307
f 271//308 272//308 277//308
f 271//309 277//309 276//309
f 272//310 273//310 278//310
f 272//311 278//311 277//311
f 273//312 274//312 279//312
f 273//313 279//313 278//313
f 274//314 270//314 275//314
f 274//315 275//315 279//315
f 275//316 276//316 281//316
f 276//317 277//317 282//317
f 277//318 278//318 283//318
f 278//319 279//319 284//319
f 279//320 275//320 280//320
f 285//321 291//321 290//321
f 286//322 292//322 291//322
f 287//323 293//323 292//323
f 288//324 294//324 293//324
f 289//325 290//325 294//325
f 290//326 291//326 296//326
f 290//327 296//327 295//327
f 291//328 292//328 297//328
f 291//329 297//329 296//329
f 292//330 293//330 298//330
f 292//331 298//331 297//331
f 293//332 294//332 299//332
f 293//333 299//333 298//333
f 294//334 290//334 295//334
f 294//335 295//335 299//335
f 295//336 296//336 301//336
f 296//337 297//337 302//337
f 297//338 298//338 303//338
f 298//339 299//339 304//339
f 299//340 295//340 300//340
f 305//341 311//341 310//341
f 306//342 312//342 311//342
f 307//343 313//343 312//343
f 308//344 314//344 313//344
f 309//345 310//345 314//345
f 310//346 311//346 316//346
f 310//347 316//347 315//347
f 311//348 312//348 317//348
f 311//349 317//349 316//349
f 312//350 313//350 318//350
f 312//351 318//351 317//351
f 313//352 314//352 319//352
f 313//353 319//353 318//353
f 314//354 310//354 315//354
f 314//355 315//355 319//355
f 315//356 316//356 321//356
f 316//357 317//357 322//357
f 317//358 318//358 323//358
f 318//359 319//359 324//359
f 319//360 315//360 320//360
f 325//361 331//361 330//361
f 326//362 332//362 331//362
f 327//363 333//363 332//363
f 328//364 334//364 333//364
f 329//365 330//365 334//365
f 330//366 331//366 336//366
f 330//367 336//367 335//367
f 331//368 332//368 337//368
f 331//369 337//369 336//369
f 332//370 333//370 338//370
f 332//371 338//371 337//371
f 333//372 334//372 339//372
f 333//373 339//373 338//373
f 334//374 330//374 335//374
f 334//375 335//375 339//375
f 335//376 336//376 341//376
f 336//377 337//377 342//377
f 337//378 338//378 343//378
f 338//379 339//379 344//379
f 339//380 335//380 340//380
f 345//381 351//381 350//381
f 346//382 352//382 351//382
f 347//383 353//383 352//383
f 348//384 354//384 353//384
f 349//385 350//385 354//385
f 350//386 351//386 356//386
f 350//387 356//387 355//387
f 351//388 352//388 357//388
f 351//389 357//389 356//389
f 352//390 353//390 358//390
f 352//391 358//391 357//391
f 353//392 354//392 359//392
f 353//393 359//393 358//393
f 354//394 350//394 355//394
f 354//395 355//395 359//395
f 355//396 356//396 361//396
f 356//397 357//397 362//397
f 357//398 358//398 363//398
f 358//399 359//399 364//399
f 359//400 355//400 360//400
f 365//401 371//401 370//401
f 366//402 372//402 371//402
f 367//403 373//403 372//403
f 368//404 374//404 373//404
f 369//405 370//405 374//405
f 370//406 371//406 376//406
f 370//407 376//407 375//407
f 371//408 372//408 377//408
f 371//409 377//409 376//409
f 372//410 373//410 378//410
f 372//411 378//411 377//411
f 373//412 374//412 379//412
f 373//413 379//413 378//413
f 374//414 370//414 375//414
f 374//415 375//415 379//415
f 375//416 376//416 381//416
f 376//417 377//417 382//417
f 377//418 378//418 383//418
f 378//419 379//419 384//419
f 379//420 375//420 380//420
f 385//421 391//421 390//421
f 386//422 392//422 391//422
f 387//423 393//423 392//423
f 388//424 394//424 393//424
f 389//425 390//425 394//425
f 390//426 391//426 396//426
f 390//427 396//427 395//427
f 391//428 392//428 397//428
f 391//429 397//429 396//429
f 392//430 393//430 398//430
f 392//431 398//431 397//431
f 393//432 394//432 399//432
f 393//433 399//433 398//433
f 394//434 390//434 395//434
f 394//435 395//435 399//435
f 395//436 396//436 401//436
f 396//437 397//437 402//437
f 397//438 398//438 403//438
f 398//439 399//439 404//439
f 399//440 395//440 400//440
f 405//441 411//441 410//441
f 406//442 412//442 411//442
f 407//443 413//443 412//443
f 408//444 414//444 413//444
f 409//445 410//445 414//445
f 410//446 411//446 416//446
f 410//447 416//447 415//447
f 411//448 412//448 417//448
f 411//449 417//449 416//449
f 412//450 413//450 418//450
f 412//451 418//451 417//451
f 413//452 414//452 419//452
f 413//453 419//453 418//453
f 414//454 410//454 415//454
f 414//455 415//455 419//455
f 415//456 416//456 421//456
f 416//457 417//457 422//457
f 417//458 418//458 423//458
f 418//459 419//459 424//459
f 419//460 415//460 420//460
