mtllib Food_Flour.mtl
v 0.0000 0.0000 0.0000
v 0.0000 0.0000 0.0000
v 0.0000 0.0000 0.0000
v 0.0000 0.0000 0.0000
v 0.0000 0.0000 0.0000
v 0.0000 0.0000 0.0000
v 0.0000 0.0000 0.0000
v 0.0000 0.0000 0.0000
v 0.0000 0.0000 0.0000
v 0.0000 0.0000 0.0000
v 0.7200 0.0000 0.0000
v 0.5825 0.0000 0.4232
v 0.2225 0.0000 0.6848
v -0.2225 0.0000 0.6848
v -0.5825 0.0000 0.4232
v -0.7200 0.0000 0.0000
v -0.5825 0.0000 -0.4232
v -0.2225 0.0000 -0.6848
v 0.2225 0.0000 -0.6848
v 0.5825 0.0000 -0.4232
v 0.8600 0.1800 0.0000
v 0.6958 0.1800 0.5055
v 0.2658 0.1800 0.8179
v -0.2658 0.1800 0.8179
v -0.6958 0.1800 0.5055
v -0.8600 0.1800 0.0000
v -0.6958 0.1800 -0.5055
v -0.2658 0.1800 -0.8179
v 0.2658 0.1800 -0.8179
v 0.6958 0.1800 -0.5055
v 0.8800 0.9500 0.0000
v 0.7119 0.9500 0.5173
v 0.2719 0.9500 0.8369
v -0.2719 0.9500 0.8369
v -0.7119 0.9500 0.5173
v -0.8800 0.9500 0.0000
v -0.7119 0.9500 -0.5173
v -0.2719 0.9500 -0.8369
v 0.2719 0.9500 -0.8369
v 0.7119 0.9500 -0.5173
v 0.6200 1.3000 0.0000
v 0.5016 1.3000 0.3644
v 0.1916 1.3000 0.5897
v -0.1916 1.3000 0.5897
v -0.5016 1.3000 0.3644
v -0.6200 1.3000 0.0000
v -0.5016 1.3000 -0.3644
v -0.1916 1.3000 -0.5897
v 0.1916 1.3000 -0.5897
v 0.5016 1.3000 -0.3644
v 0.3400 1.5000 0.0000
v 0.2751 1.5000 0.1998
v 0.1051 1.5000 0.3234
v -0.1051 1.5000 0.3234
v -0.2751 1.5000 0.1998
v -0.3400 1.5000 0.0000
v -0.2751 1.5000 -0.1998
v -0.1051 1.5000 -0.3234
v 0.1051 1.5000 -0.3234
v 0.2751 1.5000 -0.1998
v 0.3400 1.5000 0.0000
v 0.2404 1.5000 0.2404
v 0.0000 1.5000 0.3400
v -0.2404 1.5000 0.2404
v -0.3400 1.5000 0.0000
v -0.2404 1.5000 -0.2404
v -0.0000 1.5000 -0.3400
v 0.2404 1.5000 -0.2404
v 0.5200 1.8600 0.0000
v 0.3677 1.8600 0.3677
v 0.0000 1.8600 0.5200
v -0.3677 1.8600 0.3677
v -0.5200 1.8600 0.0000
v -0.3677 1.8600 -0.3677
v -0.0000 1.8600 -0.5200
v 0.3677 1.8600 -0.3677
v 0.2400 1.8000 0.0000
v 0.1697 1.8000 0.1697
v 0.0000 1.8000 0.2400
v -0.1697 1.8000 0.1697
v -0.2400 1.8000 0.0000
v -0.1697 1.8000 -0.1697
v -0.0000 1.8000 -0.2400
v 0.1697 1.8000 -0.1697
v 0.4300 1.5200 0.0000
v 0.3041 1.5200 0.3041
v 0.0000 1.5200 0.4300
v -0.3041 1.5200 0.3041
v -0.4300 1.5200 0.0000
v -0.3041 1.5200 -0.3041
v -0.0000 1.5200 -0.4300
v 0.3041 1.5200 -0.3041
v 0.3600 1.5900 0.0000
v 0.2546 1.5900 0.2546
v 0.0000 1.5900 0.3600
v -0.2546 1.5900 0.2546
v -0.3600 1.5900 0.0000
v -0.2546 1.5900 -0.2546
v -0.0000 1.5900 -0.3600
v 0.2546 1.5900 -0.2546
v 0.2900 1.5200 0.0000
v 0.2051 1.5200 0.2051
v 0.0000 1.5200 0.2900
v -0.2051 1.5200 0.2051
v -0.2900 1.5200 0.0000
v -0.2051 1.5200 -0.2051
v -0.0000 1.5200 -0.2900
v 0.2051 1.5200 -0.2051
v 0.3600 1.4500 0.0000
v 0.2546 1.4500 0.2546
v 0.0000 1.4500 0.3600
v -0.2546 1.4500 0.2546
v -0.3600 1.4500 0.0000
v -0.2546 1.4500 -0.2546
v -0.0000 1.4500 -0.3600
v 0.2546 1.4500 -0.2546
v -0.3300 0.3800 0.8100
v 0.3300 0.3800 0.8100
v 0.3300 0.3800 0.8700
v -0.3300 0.3800 0.8700
v -0.3300 0.9400 0.8100
v 0.3300 0.9400 0.8100
v 0.3300 0.9400 0.8700
v -0.3300 0.9400 0.8700
v 0.0000 0.3800 0.8400
v 0.0000 0.9400 0.8400
v -0.0250 0.4300 0.8550
v 0.0250 0.4300 0.8550
v 0.0250 0.4300 0.9050
v -0.0250 0.4300 0.9050
v -0.0250 0.8900 0.8550
v 0.0250 0.8900 0.8550
v 0.0250 0.8900 0.9050
v -0.0250 0.8900 0.9050
v 0.0000 0.4300 0.8800
v 0.0000 0.8900 0.8800
v -0.1229 0.5472 0.8800
v -0.1229 0.5472 0.8800
v -0.1229 0.5472 0.8800
v -0.1229 0.5472 0.8800
v -0.1229 0.5472 0.8800
v -0.0192 0.4990 0.8800
v -0.0830 0.5437 0.9129
v -0.1861 0.6159 0.9004
v -0.1861 0.6159 0.8596
v -0.0830 0.5437 0.8471
v 0.0037 0.5318 0.8800
v -0.0600 0.5764 0.9129
v -0.1631 0.6486 0.9004
v -0.1631 0.6486 0.8596
v -0.0600 0.5764 0.8471
v -0.0771 0.6128 0.8800
v -0.0771 0.6128 0.8800
v -0.0771 0.6128 0.8800
v -0.0771 0.6128 0.8800
v -0.0771 0.6128 0.8800
v 0.1229 0.5472 0.8800
v 0.1229 0.5472 0.8800
v 0.1229 0.5472 0.8800
v 0.1229 0.5472 0.8800
v 0.1229 0.5472 0.8800
v 0.2037 0.6282 0.8800
v 0.1400 0.5836 0.9129
v 0.0369 0.5114 0.9004
v 0.0369 0.5114 0.8596
v 0.1400 0.5836 0.8471
v 0.1808 0.6610 0.8800
v 0.1170 0.6163 0.9129
v 0.0139 0.5441 0.9004
v 0.0139 0.5441 0.8596
v 0.1170 0.6163 0.8471
v 0.0771 0.6128 0.8800
v 0.0771 0.6128 0.8800
v 0.0771 0.6128 0.8800
v 0.0771 0.6128 0.8800
v 0.0771 0.6128 0.8800
v -0.1229 0.6872 0.8800
v -0.1229 0.6872 0.8800
v -0.1229 0.6872 0.8800
v -0.1229 0.6872 0.8800
v -0.1229 0.6872 0.8800
v -0.0192 0.6390 0.8800
v -0.0830 0.6837 0.9129
v -0.1861 0.7559 0.9004
v -0.1861 0.7559 0.8596
v -0.0830 0.6837 0.8471
v 0.0037 0.6718 0.8800
v -0.0600 0.7164 0.9129
v -0.1631 0.7886 0.9004
v -0.1631 0.7886 0.8596
v -0.0600 0.7164 0.8471
v -0.0771 0.7528 0.8800
v -0.0771 0.7528 0.8800
v -0.0771 0.7528 0.8800
v -0.0771 0.7528 0.8800
v -0.0771 0.7528 0.8800
v 0.1229 0.6872 0.8800
v 0.1229 0.6872 0.8800
v 0.1229 0.6872 0.8800
v 0.1229 0.6872 0.8800
v 0.1229 0.6872 0.8800
v 0.2037 0.7682 0.8800
v 0.1400 0.7236 0.9129
v 0.0369 0.6514 0.9004
v 0.0369 0.6514 0.8596
v 0.1400 0.7236 0.8471
v 0.1808 0.8010 0.8800
v 0.1170 0.7563 0.9129
v 0.0139 0.6841 0.9004
v 0.0139 0.6841 0.8596
v 0.1170 0.7563 0.8471
v 0.0771 0.7528 0.8800
v 0.0771 0.7528 0.8800
v 0.0771 0.7528 0.8800
v 0.0771 0.7528 0.8800
v 0.0771 0.7528 0.8800
v -0.1229 0.8272 0.8800
v -0.1229 0.8272 0.8800
v -0.1229 0.8272 0.8800
v -0.1229 0.8272 0.8800
v -0.1229 0.8272 0.8800
v -0.0192 0.7790 0.8800
v -0.0830 0.8237 0.9129
v -0.1861 0.8959 0.9004
v -0.1861 0.8959 0.8596
v -0.0830 0.8237 0.8471
v 0.0037 0.8118 0.8800
v -0.0600 0.8564 0.9129
v -0.1631 0.9286 0.9004
v -0.1631 0.9286 0.8596
v -0.0600 0.8564 0.8471
v -0.0771 0.8928 0.8800
v -0.0771 0.8928 0.8800
v -0.0771 0.8928 0.8800
v -0.0771 0.8928 0.8800
v -0.0771 0.8928 0.8800
v 0.1229 0.8272 0.8800
v 0.1229 0.8272 0.8800
v 0.1229 0.8272 0.8800
v 0.1229 0.8272 0.8800
v 0.1229 0.8272 0.8800
v 0.2037 0.9082 0.8800
v 0.1400 0.8636 0.9129
v 0.0369 0.7914 0.9004
v 0.0369 0.7914 0.8596
v 0.1400 0.8636 0.8471
v 0.1808 0.9410 0.8800
v 0.1170 0.8963 0.9129
v 0.0139 0.8241 0.9004
v 0.0139 0.8241 0.8596
v 0.1170 0.8963 0.8471
v 0.0771 0.8928 0.8800
v 0.0771 0.8928 0.8800
v 0.0771 0.8928 0.8800
v 0.0771 0.8928 0.8800
v 0.0771 0.8928 0.8800
vn 0.0000 1.0000 0.0000
vn 0.0000 1.0000 0.0000
vn 0.0000 1.0000 -0.0000
vn 0.0000 1.0000 0.0000
vn 0.0000 1.0000 0.0000
vn 0.0000 1.0000 0.0000
vn 0.0000 1.0000 0.0000
vn 0.0000 1.0000 0.0000
vn 0.0000 1.0000 0.0000
vn -0.0000 1.0000 0.0000
vn -0.7646 0.5947 -0.2484
vn -0.7646 0.5947 -0.2484
vn -0.4726 0.5947 -0.6504
vn -0.4726 0.5947 -0.6504
vn -0.0000 0.5947 -0.8040
vn -0.0000 0.5947 -0.8040
vn 0.4726 0.5947 -0.6504
vn 0.4726 0.5947 -0.6504
vn 0.7646 0.5947 -0.2484
vn 0.7646 0.5947 -0.2484
vn 0.7646 0.5947 0.2484
vn 0.7646 0.5947 0.2484
vn 0.4726 0.5947 0.6504
vn 0.4726 0.5947 0.6504
vn 0.0000 0.5947 0.8040
vn 0.0000 0.5947 0.8040
vn -0.4726 0.5947 0.6504
vn -0.4726 0.5947 0.6504
vn -0.7646 0.5947 0.2484
vn -0.7646 0.5947 0.2484
vn -0.9508 0.0247 -0.3089
vn -0.9508 0.0247 -0.3089
vn -0.5876 0.0247 -0.8088
vn -0.5876 0.0247 -0.8088
vn -0.0000 0.0247 -0.9997
vn 0.0000 0.0247 -0.9997
vn 0.5876 0.0247 -0.8088
vn 0.5876 0.0247 -0.8088
vn 0.9508 0.0247 -0.3089
vn 0.9508 0.0247 -0.3089
vn 0.9508 0.0247 0.3089
vn 0.9508 0.0247 0.3089
vn 0.5876 0.0247 0.8088
vn 0.5876 0.0247 0.8088
vn 0.0000 0.0247 0.9997
vn 0.0000 0.0247 0.9997
vn -0.5876 0.0247 0.8088
vn -0.5876 0.0247 0.8088
vn -0.9508 0.0247 0.3089
vn -0.9508 0.0247 0.3089
vn -0.7768 -0.5770 -0.2524
vn -0.7768 -0.5770 -0.2524
vn -0.4801 -0.5770 -0.6607
vn -0.4801 -0.5770 -0.6607
vn -0.0000 -0.5770 -0.8167
vn -0.0000 -0.5770 -0.8167
vn 0.4801 -0.5770 -0.6607
vn 0.4801 -0.5770 -0.6607
vn 0.7768 -0.5770 -0.2524
vn 0.7768 -0.5770 -0.2524
vn 0.7768 -0.5770 0.2524
vn 0.7768 -0.5770 0.2524
vn 0.4801 -0.5770 0.6607
vn 0.4801 -0.5770 0.6607
vn 0.0000 -0.5770 0.8167
vn 0.0000 -0.5770 0.8167
vn -0.4801 -0.5770 0.6607
vn -0.4801 -0.5770 0.6607
vn -0.7768 -0.5770 0.2524
vn -0.7768 -0.5770 0.2524
vn -0.5711 -0.7996 -0.1856
vn -0.5711 -0.7996 -0.1856
vn -0.3530 -0.7996 -0.4858
vn -0.3530 -0.7996 -0.4858
vn -0.0000 -0.7996 -0.6005
vn 0.0000 -0.7996 -0.6005
vn 0.3530 -0.7996 -0.4858
vn 0.3530 -0.7996 -0.4858
vn 0.5711 -0.7996 -0.1856
vn 0.5711 -0.7996 -0.1856
vn 0.5711 -0.7996 0.1856
vn 0.5711 -0.7996 0.1856
vn 0.3530 -0.7996 0.4858
vn 0.3530 -0.7996 0.4858
vn 0.0000 -0.7996 0.6005
vn 0.0000 -0.7996 0.6005
vn -0.3530 -0.7996 0.4858
vn -0.3530 -0.7996 0.4858
vn -0.5711 -0.7996 0.1856
vn -0.5711 -0.7996 0.1856
vn -0.8387 0.4194 -0.3474
vn -0.8387 0.4194 -0.3474
vn -0.3474 0.4194 -0.8387
vn -0.3474 0.4194 -0.8387
vn 0.3474 0.4194 -0.8387
vn 0.3474 0.4194 -0.8387
vn 0.8387 0.4194 -0.3474
vn 0.8387 0.4194 -0.3474
vn 0.8387 0.4194 0.3474
vn 0.8387 0.4194 0.3474
vn 0.3474 0.4194 0.8387
vn 0.3474 0.4194 0.8387
vn -0.3474 0.4194 0.8387
vn -0.3474 0.4194 0.8387
vn -0.8387 0.4194 0.3474
vn -0.8387 0.4194 0.3474
vn 0.2087 -0.9741 0.0865
vn 0.2087 -0.9741 0.0865
vn 0.0865 -0.9741 0.2087
vn 0.0865 -0.9741 0.2087
vn -0.0865 -0.9741 0.2087
vn -0.0865 -0.9741 0.2087
vn -0.2087 -0.9741 0.0865
vn -0.2087 -0.9741 0.0865
vn -0.2087 -0.9741 -0.0865
vn -0.2087 -0.9741 -0.0865
vn -0.0865 -0.9741 -0.2087
vn -0.0865 -0.9741 -0.2087
vn 0.0865 -0.9741 -0.2087
vn 0.0865 -0.9741 -0.2087
vn 0.2087 -0.9741 -0.0865
vn 0.2087 -0.9741 -0.0865
vn -0.6786 -0.6786 -0.2811
vn -0.6786 -0.6786 -0.2811
vn -0.2811 -0.6786 -0.6786
vn -0.2811 -0.6786 -0.6786
vn 0.2811 -0.6786 -0.6786
vn 0.2811 -0.6786 -0.6786
vn 0.6786 -0.6786 -0.2811
vn 0.6786 -0.6786 -0.2811
vn 0.6786 -0.6786 0.2811
vn 0.6786 -0.6786 0.2811
vn 0.2811 -0.6786 0.6786
vn 0.2811 -0.6786 0.6786
vn -0.2811 -0.6786 0.6786
vn -0.2811 -0.6786 0.6786
vn -0.6786 -0.6786 0.2811
vn -0.6786 -0.6786 0.2811
vn 0.6786 -0.6786 0.2811
vn 0.6786 -0.6786 0.2811
vn 0.2811 -0.6786 0.6786
vn 0.2811 -0.6786 0.6786
vn -0.2811 -0.6786 0.6786
vn -0.2811 -0.6786 0.6786
vn -0.6786 -0.6786 0.2811
vn -0.6786 -0.6786 0.2811
vn -0.6786 -0.6786 -0.2811
vn -0.6786 -0.6786 -0.2811
vn -0.2811 -0.6786 -0.6786
vn -0.2811 -0.6786 -0.6786
vn 0.2811 -0.6786 -0.6786
vn 0.2811 -0.6786 -0.6786
vn 0.6786 -0.6786 -0.2811
vn 0.6786 -0.6786 -0.2811
vn 0.6786 0.6786 0.2811
vn 0.6786 0.6786 0.2811
vn 0.2811 0.6786 0.6786
vn 0.2811 0.6786 0.6786
vn -0.2811 0.6786 0.6786
vn -0.2811 0.6786 0.6786
vn -0.6786 0.6786 0.2811
vn -0.6786 0.6786 0.2811
vn -0.6786 0.6786 -0.2811
vn -0.6786 0.6786 -0.2811
vn -0.2811 0.6786 -0.6786
vn -0.2811 0.6786 -0.6786
vn 0.2811 0.6786 -0.6786
vn 0.2811 0.6786 -0.6786
vn 0.6786 0.6786 -0.2811
vn 0.6786 0.6786 -0.2811
vn -0.6786 0.6786 -0.2811
vn -0.6786 0.6786 -0.2811
vn -0.2811 0.6786 -0.6786
vn -0.2811 0.6786 -0.6786
vn 0.2811 0.6786 -0.6786
vn 0.2811 0.6786 -0.6786
vn 0.6786 0.6786 -0.2811
vn 0.6786 0.6786 -0.2811
vn 0.6786 0.6786 0.2811
vn 0.6786 0.6786 0.2811
vn 0.2811 0.6786 0.6786
vn 0.2811 0.6786 0.6786
vn -0.2811 0.6786 0.6786
vn -0.2811 0.6786 0.6786
vn -0.6786 0.6786 0.2811
vn -0.6786 0.6786 0.2811
vn 0.0000 0.0000 1.0000
vn 0.0000 0.0000 1.0000
vn 0.0000 1.0000 0.0000
vn 0.0000 -1.0000 -0.0000
vn -1.0000 0.0000 0.0000
vn -1.0000 0.0000 0.0000
vn -0.0000 1.0000 0.0000
vn 0.0000 -1.0000 0.0000
vn 0.0000 0.0000 -1.0000
vn 0.0000 0.0000 -1.0000
vn 0.0000 1.0000 -0.0000
vn 0.0000 -1.0000 0.0000
vn 1.0000 0.0000 0.0000
vn 1.0000 -0.0000 0.0000
vn 0.0000 1.0000 0.0000
vn -0.0000 -1.0000 0.0000
vn 0.0000 0.0000 1.0000
vn 0.0000 0.0000 1.0000
vn 0.0000 1.0000 0.0000
vn 0.0000 -1.0000 -0.0000
vn -1.0000 0.0000 0.0000
vn -1.0000 0.0000 0.0000
vn -0.0000 1.0000 0.0000
vn 0.0000 -1.0000 0.0000
vn 0.0000 0.0000 -1.0000
vn 0.0000 0.0000 -1.0000
vn 0.0000 1.0000 -0.0000
vn 0.0000 -1.0000 0.0000
vn 1.0000 0.0000 0.0000
vn 1.0000 -0.0000 0.0000
vn 0.0000 1.0000 0.0000
vn -0.0000 -1.0000 0.0000
vn 0.3895 0.8382 -0.3817
vn 0.5198 0.6446 -0.5607
vn 0.7359 0.6771 0.0000
vn 0.5198 0.6446 0.5607
vn 0.3895 0.8382 0.3817
vn -0.3194 0.2237 -0.9208
vn -0.3194 0.2237 -0.9208
vn 0.0815 -0.0571 -0.9950
vn 0.0815 -0.0571 -0.9950
vn 0.8192 -0.5736 0.0000
vn 0.8192 -0.5736 -0.0000
vn 0.0815 -0.0571 0.9950
vn 0.0815 -0.0571 0.9950
vn -0.3194 0.2237 0.9208
vn -0.3194 0.2237 0.9208
vn -0.6544 -0.6527 -0.3817
vn -0.4279 -0.7089 -0.5607
vn -0.3845 -0.9231 0.0000
vn -0.4279 -0.7089 0.5607
vn -0.6544 -0.6527 0.3817
vn -0.6544 0.6527 -0.3817
vn -0.4279 0.7089 -0.5607
vn -0.3845 0.9231 0.0000
vn -0.4279 0.7089 0.5607
vn -0.6544 0.6527 0.3817
vn -0.3194 -0.2237 -0.9208
vn -0.3194 -0.2237 -0.9208
vn 0.0815 0.0571 -0.9950
vn 0.0815 0.0571 -0.9950
vn 0.8192 0.5736 0.0000
vn 0.8192 0.5736 -0.0000
vn 0.0815 0.0571 0.9950
vn 0.0815 0.0571 0.9950
vn -0.3194 -0.2237 0.9208
vn -0.3194 -0.2237 0.9208
vn 0.3895 -0.8382 -0.3817
vn 0.5198 -0.6446 -0.5607
vn 0.7359 -0.6771 -0.0000
vn 0.5198 -0.6446 0.5607
vn 0.3895 -0.8382 0.3817
vn 0.3895 0.8382 -0.3817
vn 0.5198 0.6446 -0.5607
vn 0.7359 0.6771 0.0000
vn 0.5198 0.6446 0.5607
vn 0.3895 0.8382 0.3817
vn -0.3194 0.2237 -0.9208
vn -0.3194 0.2237 -0.9208
vn 0.0815 -0.0571 -0.9950
vn 0.0815 -0.0571 -0.9950
vn 0.8192 -0.5736 0.0000
vn 0.8192 -0.5736 -0.0000
vn 0.0815 -0.0571 0.9950
vn 0.0815 -0.0571 0.9950
vn -0.3194 0.2237 0.9208
vn -0.3194 0.2237 0.9208
vn -0.6544 -0.6527 -0.3817
vn -0.4279 -0.7089 -0.5607
vn -0.3845 -0.9231 0.0000
vn -0.4279 -0.7089 0.5607
vn -0.6544 -0.6527 0.3817
vn -0.6544 0.6527 -0.3817
vn -0.4279 0.7089 -0.5607
vn -0.3845 0.9231 0.0000
vn -0.4279 0.7089 0.5607
vn -0.6544 0.6527 0.3817
vn -0.3194 -0.2237 -0.9208
vn -0.3194 -0.2237 -0.9208
vn 0.0815 0.0571 -0.9950
vn 0.0815 0.0571 -0.9950
vn 0.8192 0.5736 0.0000
vn 0.8192 0.5736 -0.0000
vn 0.0815 0.0571 0.9950
vn 0.0815 0.0571 0.9950
vn -0.3194 -0.2237 0.9208
vn -0.3194 -0.2237 0.9208
vn 0.3895 -0.8382 -0.3817
vn 0.5198 -0.6446 -0.5607
vn 0.7359 -0.6771 -0.0000
vn 0.5198 -0.6446 0.5607
vn 0.3895 -0.8382 0.3817
vn 0.3895 0.8382 -0.3817
vn 0.5198 0.6446 -0.5607
vn 0.7359 0.6771 0.0000
vn 0.5198 0.6446 0.5607
vn 0.3895 0.8382 0.3817
vn -0.3194 0.2237 -0.9208
vn -0.3194 0.2237 -0.9208
vn 0.0815 -0.0571 -0.9950
vn 0.0815 -0.0571 -0.9950
vn 0.8192 -0.5736 0.0000
vn 0.8192 -0.5736 -0.0000
vn 0.0815 -0.0571 0.9950
vn 0.0815 -0.0571 0.9950
vn -0.3194 0.2237 0.9208
vn -0.3194 0.2237 0.9208
vn -0.6544 -0.6527 -0.3817
vn -0.4279 -0.7089 -0.5607
vn -0.3845 -0.9231 0.0000
vn -0.4279 -0.7089 0.5607
vn -0.6544 -0.6527 0.3817
vn -0.6544 0.6527 -0.3817
vn -0.4279 0.7089 -0.5607
vn -0.3845 0.9231 0.0000
vn -0.4279 0.7089 0.5607
vn -0.6544 0.6527 0.3817
vn -0.3194 -0.2237 -0.9208
vn -0.3194 -0.2237 -0.9208
vn 0.0815 0.0571 -0.9950
vn 0.0815 0.0571 -0.9950
vn 0.8192 0.5736 0.0000
vn 0.8192 0.5736 -0.0000
vn 0.0815 0.0571 0.9950
vn 0.0815 0.0571 0.9950
vn -0.3194 -0.2237 0.9208
vn -0.3194 -0.2237 0.9208
vn 0.3895 -0.8382 -0.3817
vn 0.5198 -0.6446 -0.5607
vn 0.7359 -0.6771 -0.0000
vn 0.5198 -0.6446 0.5607
vn 0.3895 -0.8382 0.3817
usemtl c0
f 1//1 12//1 11//1
f 2//2 13//2 12//2
f 3//3 14//3 13//3
f 4//4 15//4 14//4
f 5//5 16//5 15//5
f 6//6 17//6 16//6
f 7//7 18//7 17//7
f 8//8 19//8 18//8
f 9//9 20//9 19//9
f 10//10 11//10 20//10
f 11//11 12//11 22//11
f 11//12 22//12 21//12
f 12//13 13//13 23//13
f 12//14 23//14 22//14
f 13//15 14//15 24//15
f 13//16 24//16 23//16
f 14//17 15//17 25//17
f 14//18 25//18 24//18
f 15//19 16//19 26//19
f 15//20 26//20 25//20
f 16//21 17//21 27//21
f 16//22 27//22 26//22
f 17//23 18//23 28//23
f 17//24 28//24 27//24
f 18//25 19//25 29//25
f 18//26 29//26 28//26
f 19//27 20//27 30//27
f 19//28 30//28 29//28
f 20//29 11//29 21//29
f 20//30 21//30 30//30
f 21//31 22//31 32//31
f 21//32 32//32 31//32
f 22//33 23//33 33//33
f 22//34 33//34 32//34
f 23//35 24//35 34//35
f 23//36 34//36 33//36
f 24//37 25//37 35//37
f 24//38 35//38 34//38
f 25//39 26//39 36//39
f 25//40 36//40 35//40
f 26//41 27//41 37//41
f 26//42 37//42 36//42
f 27//43 28//43 38//43
f 27//44 38//44 37//44
f 28//45 29//45 39//45
f 28//46 39//46 38//46
f 29//47 30//47 40//47
f 29//48 40//48 39//48
f 30//49 21//49 31//49
f 30//50 31//50 40//50
f 31//51 32//51 42//51
f 31//52 42//52 41//52
f 32//53 33//53 43//53
f 32//54 43//54 42//54
f 33//55 34//55 44//55
f 33//56 44//56 43//56
f 34//57 35//57 45//57
f 34//58 45//58 44//58
f 35//59 36//59 46//59
f 35//60 46//60 45//60
f 36//61 37//61 47//61
f 36//62 47//62 46//62
f 37//63 38//63 48//63
f 37//64 48//64 47//64
f 38//65 39//65 49//65
f 38//66 49//66 48//66
f 39//67 40//67 50//67
f 39//68 50//68 49//68
f 40//69 31//69 41//69
f 40//70 41//70 50//70
f 41//71 42//71 52//71
f 41//72 52//72 51//72
f 42//73 43//73 53//73
f 42//74 53//74 52//74
f 43//75 44//75 54//75
f 43//76 54//76 53//76
f 44//77 45//77 55//77
f 44//78 55//78 54//78
f 45//79 46//79 56//79
f 45//80 56//80 55//80
f 46//81 47//81 57//81
f 46//82 57//82 56//82
f 47//83 48//83 58//83
f 47//84 58//84 57//84
f 48//85 49//85 59//85
f 48//86 59//86 58//86
f 49//87 50//87 60//87
f 49//88 60//88 59//88
f 50//89 41//89 51//89
f 50//90 51//90 60//90
f 61//91 62//91 70//91
f 61//92 70//92 69//92
f 62//93 63//93 71//93
f 62//94 71//94 70//94
f 63//95 64//95 72//95
f 63//96 72//96 71//96
f 64//97 65//97 73//97
f 64//98 73//98 72//98
f 65//99 66//99 74//99
f 65//100 74//100 73//100
f 66//101 67//101 75//101
f 66//102 75//102 74//102
f 67//103 68//103 76//103
f 67//104 76//104 75//104
f 68//105 61//105 69//105
f 68//106 69//106 76//106
f 69//107 70//107 78//107
f 69//108 78//108 77//108
f 70//109 71//109 79//109
f 70//110 79//110 78//110
f 71//111 72//111 80//111
f 71//112 80//112 79//112
f 72//113 73//113 81//113
f 72//114 81//114 80//114
f 73//115 74//115 82//115
f 73//116 82//116 81//116
f 74//117 75//117 83//117
f 74//118 83//118 82//118
f 75//119 76//119 84//119
f 75//120 84//120 83//120
f 76//121 69//121 77//121
f 76//122 77//122 84//122
usemtl c1
f 85//123 86//123 94//123
f 85//124 94//124 93//124
f 86//125 87//125 95//125
f 86//126 95//126 94//126
f 87//127 88//127 96//127
f 87//128 96//128 95//128
f 88//129 89//129 97//129
f 88//130 97//130 96//130
f 89//131 90//131 98//131
f 89//132 98//132 97//132
f 90//133 91//133 99//133
f 90//134 99//134 98//134
f 91//135 92//135 100//135
f 91//136 100//136 99//136
f 92//137 85//137 93//137
f 92//138 93//138 100//138
f 93//139 94//139 102//139
f 93//140 102//140 101//140
f 94//141 95//141 103//141
f 94//142 103//142 102//142
f 95//143 96//143 104//143
f 95//144 104//144 103//144
f 96//145 97//145 105//145
f 96//146 105//146 104//146
f 97//147 98//147 106//147
f 97//148 106//148 105//148
f 98//149 99//149 107//149
f 98//150 107//150 106//150
f 99//151 100//151 108//151
f 99//152 108//152 107//152
f 100//153 93//153 101//153
f 100//154 101//154 108//154
f 101//155 102//155 110//155
f 101//156 110//156 109//156
f 102//157 103//157 111//157
f 102//158 111//158 110//158
f 103//159 104//159 112//159
f 103//160 112//160 111//160
f 104//161 105//161 113//161
f 104//162 113//162 112//162
f 105//163 106//163 114//163
f 105//164 114//164 113//164
f 106//165 107//165 115//165
f 106//166 115//166 114//166
f 107//167 108//167 116//167
f 107//168 116//168 115//168
f 108//169 101//169 109//169
f 108//170 109//170 116//170
f 109//171 110//171 86//171
f 109//172 86//172 85//172
f 110//173 111//173 87//173
f 110//174 87//174 86//174
f 111//175 112//175 88//175
f 111//176 88//176 87//176
f 112//177 113//177 89//177
f 112//178 89//178 88//178
f 113//179 114//179 90//179
f 113//180 90//180 89//180
f 114//181 115//181 91//181
f 114//182 91//182 90//182
f 115//183 116//183 92//183
f 115//184 92//184 91//184
f 116//185 109//185 85//185
f 116//186 85//186 92//186
usemtl c2
f 117//187 118//187 122//187
f 117//188 122//188 121//188
f 125//189 118//189 117//189
f 126//190 121//190 122//190
f 118//191 119//191 123//191
f 118//192 123//192 122//192
f 125//193 119//193 118//193
f 126//194 122//194 123//194
f 119//195 120//195 124//195
f 119//196 124//196 123//196
f 125//197 120//197 119//197
f 126//198 123//198 124//198
f 120//199 117//199 121//199
f 120//200 121//200 124//200
f 125//201 117//201 120//201
f 126//202 124//202 121//202
usemtl c3
f 127//203 128//203 132//203
f 127//204 132//204 131//204
f 135//205 128//205 127//205
f 136//206 131//206 132//206
f 128//207 129//207 133//207
f 128//208 133//208 132//208
f 135//209 129//209 128//209
f 136//210 132//210 133//210
f 129//211 130//211 134//211
f 129//212 134//212 133//212
f 135//213 130//213 129//213
f 136//214 133//214 134//214
f 130//215 127//215 131//215
f 130//216 131//216 134//216
f 135//217 127//217 130//217
f 136//218 134//218 131//218
usemtl c4
f 137//219 143//219 142//219
f 138//220 144//220 143//220
f 139//221 145//221 144//221
f 140//222 146//222 145//222
f 141//223 142//223 146//223
f 142//224 143//224 148//224
f 142//225 148//225 147//225
f 143//226 144//226 149//226
f 143//227 149//227 148//227
f 144//228 145//228 150//228
f 144//229 150//229 149//229
f 145//230 146//230 151//230
f 145//231 151//231 150//231
f 146//232 142//232 147//232
f 146//233 147//233 151//233
f 147//234 148//234 153//234
f 148//235 149//235 154//235
f 149//236 150//236 155//236
f 150//237 151//237 156//237
f 151//238 147//238 152//238
f 157//239 163//239 162//239
f 158//240 164//240 163//240
f 159//241 165//241 164//241
f 160//242 166//242 165//242
f 161//243 162//243 166//243
f 162//244 163//244 168//244
f 162//245 168//245 167//245
f 163//246 164//246 169//246
f 163//247 169//247 168//247
f 164//248 165//248 170//248
f 164//249 170//249 169//249
f 165//250 166//250 171//250
f 165//251 171//251 170//251
f 166//252 162//252 167//252
f 166//253 167//253 171//253
f 167//254 168//254 173//254
f 168//255 169//255 174//255
f 169//256 170//256 175//256
f 170//257 171//257 176//257
f 171//258 167//258 172//258
f 177//259 183//259 182//259
f 178//260 184//260 183//260
f 179//261 185//261 184//261
f 180//262 186//262 185//262
f 181//263 182//263 186//263
f 182//264 183//264 188//264
f 182//265 188//265 187//265
f 183//266 184//266 189//266
f 183//267 189//267 188//267
f 184//268 185//268 190//268
f 184//269 190//269 189//269
f 185//270 186//270 191//270
f 185//271 191//271 190//271
f 186//272 182//272 187//272
f 186//273 187//273 191//273
f 187//274 188//274 193//274
f 188//275 189//275 194//275
f 189//276 190//276 195//276
f 190//277 191//277 196//277
f 191//278 187//278 192//278
f 197//279 203//279 202//279
f 198//280 204//280 203//280
f 199//281 205//281 204//281
f 200//282 206//282 205//282
f 201//283 202//283 206//283
f 202//284 203//284 208//284
f 202//285 208//285 207//285
f 203//286 204//286 209//286
f 203//287 209//287 208//287
f 204//288 205//288 210//288
f 204//289 210//289 209//289
f 205//290 206//290 211//290
f 205//291 211//291 210//291
f 206//292 202//292 207//292
f 206//293 207//293 211//293
f 207//294 208//294 213//294
f 208//295 209//295 214//295
f 209//296 210//296 215//296
f 210//297 211//297 216//297
f 211//298 207//298 212//298
f 217//299 223//299 222//299
f 218//300 224//300 223//300
f 219//301 225//301 224//301
f 220//302 226//302 225//302
f 221//303 222//303 226//303
f 222//304 223//304 228//304
f 222//305 228//305 227//305
f 223//306 224//306 229//306
f 223//307 229//307 228//307
f 224//308 225//308 230//308
f 224//309 230//309 229//309
f 225//310 226//310 231//310
f 225//311 231//311 230//311
f 226//312 222//312 227//312
f 226//313 227//313 231//313
f 227//314 228//314 233//314
f 228//315 229//315 234//315
f 229//316 230//316 235//316
f 230//317 231//317 236//317
f 231//318 227//318 232//318
f 237//319 243//319 242//319
f 238//320 244//320 243//320
f 239//321 245//321 244//321
f 240//322 246//322 245//322
f 241//323 242//323 246//323
f 242//324 243//324 248//324
f 242//325 248//325 247//325
f 243//326 244//326 249//326
f 243//327 249//327 248//327
f 244//328 245//328 250//328
f 244//329 250//329 249//329
f 245//330 246//330 251//330
f 245//331 251//331 250//331
f 246//332 242//332 247//332
f 246//333 247//333 251//333
f 247//334 248//334 253//334
f 248//335 249//335 254//335
f 249//336 250//336 255//336
f 250//337 251//337 256//337
f 251//338 247//338 252//338
