mtllib Food_Bagel.mtl
v 1.0800 0.3800 0.0000
v 0.9353 0.3800 0.5400
v 0.5400 0.3800 0.9353
v 0.0000 0.3800 1.0800
v -0.5400 0.3800 0.9353
v -0.9353 0.3800 0.5400
v -1.0800 0.3800 0.0000
v -0.9353 0.3800 -0.5400
v -0.5400 0.3800 -0.9353
v -0.0000 0.3800 -1.0800
v 0.5400 0.3800 -0.9353
v 0.9353 0.3800 -0.5400
v 0.8900 0.7091 0.0000
v 0.7708 0.7091 0.4450
v 0.4450 0.7091 0.7708
v 0.0000 0.7091 0.8900
v -0.4450 0.7091 0.7708
v -0.7708 0.7091 0.4450
v -0.8900 0.7091 0.0000
v -0.7708 0.7091 -0.4450
v -0.4450 0.7091 -0.7708
v -0.0000 0.7091 -0.8900
v 0.4450 0.7091 -0.7708
v 0.7708 0.7091 -0.4450
v 0.5100 0.7091 0.0000
v 0.4417 0.7091 0.2550
v 0.2550 0.7091 0.4417
v 0.0000 0.7091 0.5100
v -0.2550 0.7091 0.4417
v -0.4417 0.7091 0.2550
v -0.5100 0.7091 0.0000
v -0.4417 0.7091 -0.2550
v -0.2550 0.7091 -0.4417
v -0.0000 0.7091 -0.5100
v 0.2550 0.7091 -0.4417
v 0.4417 0.7091 -0.2550
v 0.3200 0.3800 0.0000
v 0.2771 0.3800 0.1600
v 0.1600 0.3800 0.2771
v 0.0000 0.3800 0.3200
v -0.1600 0.3800 0.2771
v -0.2771 0.3800 0.1600
v -0.3200 0.3800 0.0000
v -0.2771 0.3800 -0.1600
v -0.1600 0.3800 -0.2771
v -0.0000 0.3800 -0.3200
v 0.1600 0.3800 -0.2771
v 0.2771 0.3800 -0.1600
v 0.5100 0.0509 0.0000
v 0.4417 0.0509 0.2550
v 0.2550 0.0509 0.4417
v 0.0000 0.0509 0.5100
v -0.2550 0.0509 0.4417
v -0.4417 0.0509 0.2550
v -0.5100 0.0509 0.0000
v -0.4417 0.0509 -0.2550
v -0.2550 0.0509 -0.4417
v -0.0000 0.0509 -0.5100
v 0.2550 0.0509 -0.4417
v 0.4417 0.0509 -0.2550
v 0.8900 0.0509 0.0000
v 0.7708 0.0509 0.4450
v 0.4450 0.0509 0.7708
v 0.0000 0.0509 0.8900
v -0.4450 0.0509 0.7708
v -0.7708 0.0509 0.4450
v -0.8900 0.0509 0.0000
v -0.7708 0.0509 -0.4450
v -0.4450 0.0509 -0.7708
v -0.0000 0.0509 -0.8900
v 0.4450 0.0509 -0.7708
v 0.7708 0.0509 -0.4450
v 1.1038 0.3440 0.0000
v 0.9559 0.3440 0.5519
v 0.5519 0.3440 0.9559
v 0.0000 0.3440 1.1038
v -0.5519 0.3440 0.9559
v -0.9559 0.3440 0.5519
v -1.1038 0.3440 0.0000
v -0.9559 0.3440 -0.5519
v -0.5519 0.3440 -0.9559
v -0.0000 0.3440 -1.1038
v 0.5519 0.3440 -0.9559
v 0.9559 0.3440 -0.5519
v 1.0853 0.5400 0.0000
v 0.9399 0.5400 0.5426
v 0.5426 0.5400 0.9399
v 0.0000 0.5400 1.0853
v -0.5426 0.5400 0.9399
v -0.9399 0.5400 0.5426
v -1.0853 0.5400 0.0000
v -0.9399 0.5400 -0.5426
v -0.5426 0.5400 -0.9399
v -0.0000 0.5400 -1.0853
v 0.5426 0.5400 -0.9399
v 0.9399 0.5400 -0.5426
v 0.9635 0.7011 0.0000
v 0.8345 0.7011 0.4818
v 0.4818 0.7011 0.8345
v 0.0000 0.7011 0.9635
v -0.4818 0.7011 0.8345
v -0.8345 0.7011 0.4818
v -0.9635 0.7011 0.0000
v -0.8345 0.7011 -0.4818
v -0.4818 0.7011 -0.8345
v -0.0000 0.7011 -0.9635
v 0.4818 0.7011 -0.8345
v 0.8345 0.7011 -0.4818
v 0.7712 0.7842 0.0000
v 0.6679 0.7842 0.3856
v 0.3856 0.7842 0.6679
v 0.0000 0.7842 0.7712
v -0.3856 0.7842 0.6679
v -0.6679 0.7842 0.3856
v -0.7712 0.7842 0.0000
v -0.6679 0.7842 -0.3856
v -0.3856 0.7842 -0.6679
v -0.0000 0.7842 -0.7712
v 0.3856 0.7842 -0.6679
v 0.6679 0.7842 -0.3856
v 0.5598 0.7671 0.0000
v 0.4848 0.7671 0.2799
v 0.2799 0.7671 0.4848
v 0.0000 0.7671 0.5598
v -0.2799 0.7671 0.4848
v -0.4848 0.7671 0.2799
v -0.5598 0.7671 0.0000
v -0.4848 0.7671 -0.2799
v -0.2799 0.7671 -0.4848
v -0.0000 0.7671 -0.5598
v 0.2799 0.7671 -0.4848
v 0.4848 0.7671 -0.2799
v 0.3859 0.6543 0.0000
v 0.3342 0.6543 0.1930
v 0.1930 0.6543 0.3342
v 0.0000 0.6543 0.3859
v -0.1930 0.6543 0.3342
v -0.3342 0.6543 0.1930
v -0.3859 0.6543 0.0000
v -0.3342 0.6543 -0.1930
v -0.1930 0.6543 -0.3342
v -0.0000 0.6543 -0.3859
v 0.1930 0.6543 -0.3342
v 0.3342 0.6543 -0.1930
v 0.2962 0.4760 0.0000
v 0.2565 0.4760 0.1481
v 0.1481 0.4760 0.2565
v 0.0000 0.4760 0.2962
v -0.1481 0.4760 0.2565
v -0.2565 0.4760 0.1481
v -0.2962 0.4760 0.0000
v -0.2565 0.4760 -0.1481
v -0.1481 0.4760 -0.2565
v -0.0000 0.4760 -0.2962
v 0.1481 0.4760 -0.2565
v 0.2565 0.4760 -0.1481
v 0.3147 0.2800 0.0000
v 0.2726 0.2800 0.1574
v 0.1574 0.2800 0.2726
v 0.0000 0.2800 0.3147
v -0.1574 0.2800 0.2726
v -0.2726 0.2800 0.1574
v -0.3147 0.2800 0.0000
v -0.2726 0.2800 -0.1574
v -0.1574 0.2800 -0.2726
v -0.0000 0.2800 -0.3147
v 0.1574 0.2800 -0.2726
v 0.2726 0.2800 -0.1574
v 0.0460 0.7127 0.5234
v 0.0460 0.7127 0.5234
v 0.0460 0.7127 0.5234
v 0.0460 0.7127 0.5234
v 0.0960 0.7427 0.5234
v 0.0460 0.7427 0.5534
v -0.0040 0.7427 0.5234
v 0.0460 0.7427 0.4934
v 0.0460 0.7727 0.5234
v 0.0460 0.7727 0.5234
v 0.0460 0.7727 0.5234
v 0.0460 0.7727 0.5234
v -0.4354 0.7227 0.3331
v -0.4354 0.7227 0.3331
v -0.4354 0.7227 0.3331
v -0.4354 0.7227 0.3331
v -0.3854 0.7527 0.3331
v -0.4354 0.7527 0.3631
v -0.4854 0.7527 0.3331
v -0.4354 0.7527 0.3031
v -0.4354 0.7827 0.3331
v -0.4354 0.7827 0.3331
v -0.4354 0.7827 0.3331
v -0.4354 0.7827 0.3331
v 0.6002 0.7497 0.2665
v 0.6002 0.7497 0.2665
v 0.6002 0.7497 0.2665
v 0.6002 0.7497 0.2665
v 0.6502 0.7797 0.2665
v 0.6002 0.7797 0.2965
v 0.5502 0.7797 0.2665
v 0.6002 0.7797 0.2365
v 0.6002 0.8097 0.2665
v 0.6002 0.8097 0.2665
v 0.6002 0.8097 0.2665
v 0.6002 0.8097 0.2665
v 0.7241 0.7300 -0.4103
v 0.7241 0.7300 -0.4103
v 0.7241 0.7300 -0.4103
v 0.7241 0.7300 -0.4103
v 0.7741 0.7600 -0.4103
v 0.7241 0.7600 -0.3803
v 0.6741 0.7600 -0.4103
v 0.7241 0.7600 -0.4403
v 0.7241 0.7900 -0.4103
v 0.7241 0.7900 -0.4103
v 0.7241 0.7900 -0.4103
v 0.7241 0.7900 -0.4103
v 0.0549 0.7332 -0.5750
v 0.0549 0.7332 -0.5750
v 0.0549 0.7332 -0.5750
v 0.0549 0.7332 -0.5750
v 0.1049 0.7632 -0.5750
v 0.0549 0.7632 -0.5450
v 0.0049 0.7632 -0.5750
v 0.0549 0.7632 -0.6050
v 0.0549 0.7932 -0.5750
v 0.0549 0.7932 -0.5750
v 0.0549 0.7932 -0.5750
v 0.0549 0.7932 -0.5750
v -0.5858 0.7400 -0.1375
v -0.5858 0.7400 -0.1375
v -0.5858 0.7400 -0.1375
v -0.5858 0.7400 -0.1375
v -0.5358 0.7700 -0.1375
v -0.5858 0.7700 -0.1075
v -0.6358 0.7700 -0.1375
v -0.5858 0.7700 -0.1675
v -0.5858 0.8000 -0.1375
v -0.5858 0.8000 -0.1375
v -0.5858 0.8000 -0.1375
v -0.5858 0.8000 -0.1375
v 0.2460 0.7133 0.4658
v 0.2460 0.7133 0.4658
v 0.2460 0.7133 0.4658
v 0.2460 0.7133 0.4658
v 0.2960 0.7433 0.4658
v 0.2460 0.7433 0.4958
v 0.1960 0.7433 0.4658
v 0.2460 0.7433 0.4358
v 0.2460 0.7733 0.4658
v 0.2460 0.7733 0.4658
v 0.2460 0.7733 0.4658
v 0.2460 0.7733 0.4658
v 0.1970 0.7060 0.8660
v 0.1970 0.7060 0.8660
v 0.1970 0.7060 0.8660
v 0.1970 0.7060 0.8660
v 0.2470 0.7360 0.8660
v 0.1970 0.7360 0.8960
v 0.1470 0.7360 0.8660
v 0.1970 0.7360 0.8360
v 0.1970 0.7660 0.8660
v 0.1970 0.7660 0.8660
v 0.1970 0.7660 0.8660
v 0.1970 0.7660 0.8660
v 0.3973 0.7290 -0.7344
v 0.3973 0.7290 -0.7344
v 0.3973 0.7290 -0.7344
v 0.3973 0.7290 -0.7344
v 0.4473 0.7590 -0.7344
v 0.3973 0.7590 -0.7044
v 0.3473 0.7590 -0.7344
v 0.3973 0.7590 -0.7644
v 0.3973 0.7890 -0.7344
v 0.3973 0.7890 -0.7344
v 0.3973 0.7890 -0.7344
v 0.3973 0.7890 -0.7344
v 0.1761 0.7290 -0.5370
v 0.1761 0.7290 -0.5370
v 0.1761 0.7290 -0.5370
v 0.1761 0.7290 -0.5370
v 0.2261 0.7590 -0.5370
v 0.1761 0.7590 -0.5070
v 0.1261 0.7590 -0.5370
v 0.1761 0.7590 -0.5670
v 0.1761 0.7890 -0.5370
v 0.1761 0.7890 -0.5370
v 0.1761 0.7890 -0.5370
v 0.1761 0.7890 -0.5370
v -0.2776 0.7482 0.7031
v -0.2776 0.7482 0.7031
v -0.2776 0.7482 0.7031
v -0.2776 0.7482 0.7031
v -0.2276 0.7782 0.7031
v -0.2776 0.7782 0.7331
v -0.3276 0.7782 0.7031
v -0.2776 0.7782 0.6731
v -0.2776 0.8082 0.7031
v -0.2776 0.8082 0.7031
v -0.2776 0.8082 0.7031
v -0.2776 0.8082 0.7031
v -0.0972 0.7209 -0.8505
v -0.0972 0.7209 -0.8505
v -0.0972 0.7209 -0.8505
v -0.0972 0.7209 -0.8505
v -0.0472 0.7509 -0.8505
v -0.0972 0.7509 -0.8205
v -0.1472 0.7509 -0.8505
v -0.0972 0.7509 -0.8805
v -0.0972 0.7809 -0.8505
v -0.0972 0.7809 -0.8505
v -0.0972 0.7809 -0.8505
v -0.0972 0.7809 -0.8505
v 0.3778 0.7092 -0.3546
v 0.3778 0.7092 -0.3546
v 0.3778 0.7092 -0.3546
v 0.3778 0.7092 -0.3546
v 0.4278 0.7392 -0.3546
v 0.3778 0.7392 -0.3246
v 0.3278 0.7392 -0.3546
v 0.3778 0.7392 -0.3846
v 0.3778 0.7692 -0.3546
v 0.3778 0.7692 -0.3546
v 0.3778 0.7692 -0.3546
v 0.3778 0.7692 -0.3546
v -0.6103 0.7449 -0.4786
v -0.6103 0.7449 -0.4786
v -0.6103 0.7449 -0.4786
v -0.6103 0.7449 -0.4786
v -0.5603 0.7749 -0.4786
v -0.6103 0.7749 -0.4486
v -0.6603 0.7749 -0.4786
v -0.6103 0.7749 -0.5086
v -0.6103 0.8049 -0.4786
v -0.6103 0.8049 -0.4786
v -0.6103 0.8049 -0.4786
v -0.6103 0.8049 -0.4786
vn -0.8436 -0.4871 -0.2260
vn -0.8436 -0.4871 -0.2260
vn -0.6176 -0.4871 -0.6176
vn -0.6176 -0.4871 -0.6176
vn -0.2260 -0.4871 -0.8436
vn -0.2260 -0.4871 -0.8436
vn 0.2260 -0.4871 -0.8436
vn 0.2260 -0.4871 -0.8436
vn 0.6176 -0.4871 -0.6176
vn 0.6176 -0.4871 -0.6176
vn 0.8436 -0.4871 -0.2260
vn 0.8436 -0.4871 -0.2260
vn 0.8436 -0.4871 0.2260
vn 0.8436 -0.4871 0.2260
vn 0.6176 -0.4871 0.6176
vn 0.6176 -0.4871 0.6176
vn 0.2260 -0.4871 0.8436
vn 0.2260 -0.4871 0.8436
vn -0.2260 -0.4871 0.8436
vn -0.2260 -0.4871 0.8436
vn -0.6176 -0.4871 0.6176
vn -0.6176 -0.4871 0.6176
vn -0.8436 -0.4871 0.2260
vn -0.8436 -0.4871 0.2260
vn -0.0000 -1.0000 -0.0000
vn -0.0000 -1.0000 -0.0000
vn -0.0000 -1.0000 -0.0000
vn -0.0000 -1.0000 -0.0000
vn -0.0000 -1.0000 -0.0000
vn -0.0000 -1.0000 -0.0000
vn 0.0000 -1.0000 -0.0000
vn 0.0000 -1.0000 -0.0000
vn 0.0000 -1.0000 -0.0000
vn 0.0000 -1.0000 -0.0000
vn 0.0000 -1.0000 -0.0000
vn 0.0000 -1.0000 -0.0000
vn 0.0000 -1.0000 0.0000
vn 0.0000 -1.0000 0.0000
vn 0.0000 -1.0000 0.0000
vn 0.0000 -1.0000 0.0000
vn 0.0000 -1.0000 0.0000
vn 0.0000 -1.0000 0.0000
vn -0.0000 -1.0000 0.0000
vn -0.0000 -1.0000 0.0000
vn -0.0000 -1.0000 0.0000
vn -0.0000 -1.0000 0.0000
vn -0.0000 -1.0000 0.0000
vn -0.0000 -1.0000 0.0000
vn 0.8436 -0.4871 0.2260
vn 0.8436 -0.4871 0.2260
vn 0.6176 -0.4871 0.6176
vn 0.6176 -0.4871 0.6176
vn 0.2260 -0.4871 0.8436
vn 0.2260 -0.4871 0.8436
vn -0.2260 -0.4871 0.8436
vn -0.2260 -0.4871 0.8436
vn -0.6176 -0.4871 0.6176
vn -0.6176 -0.4871 0.6176
vn -0.8436 -0.4871 0.2260
vn -0.8436 -0.4871 0.2260
vn -0.8436 -0.4871 -0.2260
vn -0.8436 -0.4871 -0.2260
vn -0.6176 -0.4871 -0.6176
vn -0.6176 -0.4871 -0.6176
vn -0.2260 -0.4871 -0.8436
vn -0.2260 -0.4871 -0.8436
vn 0.2260 -0.4871 -0.8436
vn 0.2260 -0.4871 -0.8436
vn 0.6176 -0.4871 -0.6176
vn 0.6176 -0.4871 -0.6176
vn 0.8436 -0.4871 -0.2260
vn 0.8436 -0.4871 -0.2260
vn 0.8436 0.4871 0.2260
vn 0.8436 0.4871 0.2260
vn 0.6176 0.4871 0.6176
vn 0.6176 0.4871 0.6176
vn 0.2260 0.4871 0.8436
vn 0.2260 0.4871 0.8436
vn -0.2260 0.4871 0.8436
vn -0.2260 0.4871 0.8436
vn -0.6176 0.4871 0.6176
vn -0.6176 0.4871 0.6176
vn -0.8436 0.4871 0.2260
vn -0.8436 0.4871 0.2260
vn -0.8436 0.4871 -0.2260
vn -0.8436 0.4871 -0.2260
vn -0.6176 0.4871 -0.6176
vn -0.6176 0.4871 -0.6176
vn -0.2260 0.4871 -0.8436
vn -0.2260 0.4871 -0.8436
vn 0.2260 0.4871 -0.8436
vn 0.2260 0.4871 -0.8436
vn 0.6176 0.4871 -0.6176
vn 0.6176 0.4871 -0.6176
vn 0.8436 0.4871 -0.2260
vn 0.8436 0.4871 -0.2260
vn 0.0000 1.0000 0.0000
vn 0.0000 1.0000 0.0000
vn 0.0000 1.0000 0.0000
vn 0.0000 1.0000 0.0000
vn 0.0000 1.0000 0.0000
vn 0.0000 1.0000 0.0000
vn -0.0000 1.0000 0.0000
vn -0.0000 1.0000 0.0000
vn -0.0000 1.0000 0.0000
vn -0.0000 1.0000 0.0000
vn -0.0000 1.0000 0.0000
vn -0.0000 1.0000 0.0000
vn -0.0000 1.0000 -0.0000
vn -0.0000 1.0000 -0.0000
vn -0.0000 1.0000 -0.0000
vn -0.0000 1.0000 -0.0000
vn -0.0000 1.0000 -0.0000
vn -0.0000 1.0000 -0.0000
vn 0.0000 1.0000 -0.0000
vn 0.0000 1.0000 -0.0000
vn 0.0000 1.0000 -0.0000
vn 0.0000 1.0000 -0.0000
vn 0.0000 1.0000 -0.0000
vn 0.0000 1.0000 -0.0000
vn -0.8436 0.4871 -0.2260
vn -0.8436 0.4871 -0.2260
vn -0.6176 0.4871 -0.6176
vn -0.6176 0.4871 -0.6176
vn -0.2260 0.4871 -0.8436
vn -0.2260 0.4871 -0.8436
vn 0.2260 0.4871 -0.8436
vn 0.2260 0.4871 -0.8436
vn 0.6176 0.4871 -0.6176
vn 0.6176 0.4871 -0.6176
vn 0.8436 0.4871 -0.2260
vn 0.8436 0.4871 -0.2260
vn 0.8436 0.4871 0.2260
vn 0.8436 0.4871 0.2260
vn 0.6176 0.4871 0.6176
vn 0.6176 0.4871 0.6176
vn 0.2260 0.4871 0.8436
vn 0.2260 0.4871 0.8436
vn -0.2260 0.4871 0.8436
vn -0.2260 0.4871 0.8436
vn -0.6176 0.4871 0.6176
vn -0.6176 0.4871 0.6176
vn -0.8436 0.4871 0.2260
vn -0.8436 0.4871 0.2260
vn -0.9619 -0.0908 -0.2577
vn -0.9619 -0.0908 -0.2577
vn -0.7042 -0.0908 -0.7042
vn -0.7042 -0.0908 -0.7042
vn -0.2577 -0.0908 -0.9619
vn -0.2577 -0.0908 -0.9619
vn 0.2577 -0.0908 -0.9619
vn 0.2577 -0.0908 -0.9619
vn 0.7042 -0.0908 -0.7042
vn 0.7042 -0.0908 -0.7042
vn 0.9619 -0.0908 -0.2577
vn 0.9619 -0.0908 -0.2577
vn 0.9619 -0.0908 0.2577
vn 0.9619 -0.0908 0.2577
vn 0.7042 -0.0908 0.7042
vn 0.7042 -0.0908 0.7042
vn 0.2577 -0.0908 0.9619
vn 0.2577 -0.0908 0.9619
vn -0.2577 -0.0908 0.9619
vn -0.2577 -0.0908 0.9619
vn -0.7042 -0.0908 0.7042
vn -0.7042 -0.0908 0.7042
vn -0.9619 -0.0908 0.2577
vn -0.9619 -0.0908 0.2577
vn -0.7803 -0.5895 -0.2091
vn -0.7803 -0.5895 -0.2091
vn -0.5712 -0.5895 -0.5712
vn -0.5712 -0.5895 -0.5712
vn -0.2091 -0.5895 -0.7803
vn -0.2091 -0.5895 -0.7803
vn 0.2091 -0.5895 -0.7803
vn 0.2091 -0.5895 -0.7803
vn 0.5712 -0.5895 -0.5712
vn 0.5712 -0.5895 -0.5712
vn 0.7803 -0.5895 -0.2091
vn 0.7803 -0.5895 -0.2091
vn 0.7803 -0.5895 0.2091
vn 0.7803 -0.5895 0.2091
vn 0.5712 -0.5895 0.5712
vn 0.5712 -0.5895 0.5712
vn 0.2091 -0.5895 0.7803
vn 0.2091 -0.5895 0.7803
vn -0.2091 -0.5895 0.7803
vn -0.2091 -0.5895 0.7803
vn -0.5712 -0.5895 0.5712
vn -0.5712 -0.5895 0.5712
vn -0.7803 -0.5895 0.2091
vn -0.7803 -0.5895 0.2091
vn -0.3945 -0.9128 -0.1057
vn -0.3945 -0.9128 -0.1057
vn -0.2888 -0.9128 -0.2888
vn -0.2888 -0.9128 -0.2888
vn -0.1057 -0.9128 -0.3945
vn -0.1057 -0.9128 -0.3945
vn 0.1057 -0.9128 -0.3945
vn 0.1057 -0.9128 -0.3945
vn 0.2888 -0.9128 -0.2888
vn 0.2888 -0.9128 -0.2888
vn 0.3945 -0.9128 -0.1057
vn 0.3945 -0.9128 -0.1057
vn 0.3945 -0.9128 0.1057
vn 0.3945 -0.9128 0.1057
vn 0.2888 -0.9128 0.2888
vn 0.2888 -0.9128 0.2888
vn 0.1057 -0.9128 0.3945
vn 0.1057 -0.9128 0.3945
vn -0.1057 -0.9128 0.3945
vn -0.1057 -0.9128 0.3945
vn -0.2888 -0.9128 0.2888
vn -0.2888 -0.9128 0.2888
vn -0.3945 -0.9128 0.1057
vn -0.3945 -0.9128 0.1057
vn 0.0808 -0.9965 0.0217
vn 0.0808 -0.9965 0.0217
vn 0.0592 -0.9965 0.0592
vn 0.0592 -0.9965 0.0592
vn 0.0217 -0.9965 0.0808
vn 0.0217 -0.9965 0.0808
vn -0.0217 -0.9965 0.0808
vn -0.0217 -0.9965 0.0808
vn -0.0592 -0.9965 0.0592
vn -0.0592 -0.9965 0.0592
vn -0.0808 -0.9965 0.0217
vn -0.0808 -0.9965 0.0217
vn -0.0808 -0.9965 -0.0217
vn -0.0808 -0.9965 -0.0217
vn -0.0592 -0.9965 -0.0592
vn -0.0592 -0.9965 -0.0592
vn -0.0217 -0.9965 -0.0808
vn -0.0217 -0.9965 -0.0808
vn 0.0217 -0.9965 -0.0808
vn 0.0217 -0.9965 -0.0808
vn 0.0592 -0.9965 -0.0592
vn 0.0592 -0.9965 -0.0592
vn 0.0808 -0.9965 -0.0217
vn 0.0808 -0.9965 -0.0217
vn 0.5387 -0.8301 0.1443
vn 0.5387 -0.8301 0.1443
vn 0.3943 -0.8301 0.3943
vn 0.3943 -0.8301 0.3943
vn 0.1443 -0.8301 0.5387
vn 0.1443 -0.8301 0.5387
vn -0.1443 -0.8301 0.5387
vn -0.1443 -0.8301 0.5387
vn -0.3943 -0.8301 0.3943
vn -0.3943 -0.8301 0.3943
vn -0.5387 -0.8301 0.1443
vn -0.5387 -0.8301 0.1443
vn -0.5387 -0.8301 -0.1443
vn -0.5387 -0.8301 -0.1443
vn -0.3943 -0.8301 -0.3943
vn -0.3943 -0.8301 -0.3943
vn -0.1443 -0.8301 -0.5387
vn -0.1443 -0.8301 -0.5387
vn 0.1443 -0.8301 -0.5387
vn 0.1443 -0.8301 -0.5387
vn 0.3943 -0.8301 -0.3943
vn 0.3943 -0.8301 -0.3943
vn 0.5387 -0.8301 -0.1443
vn 0.5387 -0.8301 -0.1443
vn 0.8688 -0.4371 0.2328
vn 0.8688 -0.4371 0.2328
vn 0.6360 -0.4371 0.6360
vn 0.6360 -0.4371 0.6360
vn 0.2328 -0.4371 0.8688
vn 0.2328 -0.4371 0.8688
vn -0.2328 -0.4371 0.8688
vn -0.2328 -0.4371 0.8688
vn -0.6360 -0.4371 0.6360
vn -0.6360 -0.4371 0.6360
vn -0.8688 -0.4371 0.2328
vn -0.8688 -0.4371 0.2328
vn -0.8688 -0.4371 -0.2328
vn -0.8688 -0.4371 -0.2328
vn -0.6360 -0.4371 -0.6360
vn -0.6360 -0.4371 -0.6360
vn -0.2328 -0.4371 -0.8688
vn -0.2328 -0.4371 -0.8688
vn 0.2328 -0.4371 -0.8688
vn 0.2328 -0.4371 -0.8688
vn 0.6360 -0.4371 -0.6360
vn 0.6360 -0.4371 -0.6360
vn 0.8688 -0.4371 -0.2328
vn 0.8688 -0.4371 -0.2328
vn 0.9619 0.0908 0.2577
vn 0.9619 0.0908 0.2577
vn 0.7042 0.0908 0.7042
vn 0.7042 0.0908 0.7042
vn 0.2577 0.0908 0.9619
vn 0.2577 0.0908 0.9619
vn -0.2577 0.0908 0.9619
vn -0.2577 0.0908 0.9619
vn -0.7042 0.0908 0.7042
vn -0.7042 0.0908 0.7042
vn -0.9619 0.0908 0.2577
vn -0.9619 0.0908 0.2577
vn -0.9619 0.0908 -0.2577
vn -0.9619 0.0908 -0.2577
vn -0.7042 0.0908 -0.7042
vn -0.7042 0.0908 -0.7042
vn -0.2577 0.0908 -0.9619
vn -0.2577 0.0908 -0.9619
vn 0.2577 0.0908 -0.9619
vn 0.2577 0.0908 -0.9619
vn 0.7042 0.0908 -0.7042
vn 0.7042 0.0908 -0.7042
vn 0.9619 0.0908 -0.2577
vn 0.9619 0.0908 -0.2577
vn -0.3906 0.6509 -0.6509
vn 0.3906 0.6509 -0.6509
vn 0.3906 0.6509 0.6509
vn -0.3906 0.6509 0.6509
vn -0.3906 -0.6509 -0.6509
vn 0.3906 -0.6509 -0.6509
vn 0.3906 -0.6509 0.6509
vn -0.3906 -0.6509 0.6509
vn -0.3906 0.6509 -0.6509
vn 0.3906 0.6509 -0.6509
vn 0.3906 0.6509 0.6509
vn -0.3906 0.6509 0.6509
vn -0.3906 -0.6509 -0.6509
vn 0.3906 -0.6509 -0.6509
vn 0.3906 -0.6509 0.6509
vn -0.3906 -0.6509 0.6509
vn -0.3906 0.6509 -0.6509
vn 0.3906 0.6509 -0.6509
vn 0.3906 0.6509 0.6509
vn -0.3906 0.6509 0.6509
vn -0.3906 -0.6509 -0.6509
vn 0.3906 -0.6509 -0.6509
vn 0.3906 -0.6509 0.6509
vn -0.3906 -0.6509 0.6509
vn -0.3906 0.6509 -0.6509
vn 0.3906 0.6509 -0.6509
vn 0.3906 0.6509 0.6509
vn -0.3906 0.6509 0.6509
vn -0.3906 -0.6509 -0.6509
vn 0.3906 -0.6509 -0.6509
vn 0.3906 -0.6509 0.6509
vn -0.3906 -0.6509 0.6509
vn -0.3906 0.6509 -0.6509
vn 0.3906 0.6509 -0.6509
vn 0.3906 0.6509 0.6509
vn -0.3906 0.6509 0.6509
vn -0.3906 -0.6509 -0.6509
vn 0.3906 -0.6509 -0.6509
vn 0.3906 -0.6509 0.6509
vn -0.3906 -0.6509 0.6509
vn -0.3906 0.6509 -0.6509
vn 0.3906 0.6509 -0.6509
vn 0.3906 0.6509 0.6509
vn -0.3906 0.6509 0.6509
vn -0.3906 -0.6509 -0.6509
vn 0.3906 -0.6509 -0.6509
vn 0.3906 -0.6509 0.6509
vn -0.3906 -0.6509 0.6509
vn -0.3906 0.6509 -0.6509
vn 0.3906 0.6509 -0.6509
vn 0.3906 0.6509 0.6509
vn -0.3906 0.6509 0.6509
vn -0.3906 -0.6509 -0.6509
vn 0.3906 -0.6509 -0.6509
vn 0.3906 -0.6509 0.6509
vn -0.3906 -0.6509 0.6509
vn -0.3906 0.6509 -0.6509
vn 0.3906 0.6509 -0.6509
vn 0.3906 0.6509 0.6509
vn -0.3906 0.6509 0.6509
vn -0.3906 -0.6509 -0.6509
vn 0.3906 -0.6509 -0.6509
vn 0.3906 -0.6509 0.6509
vn -0.3906 -0.6509 0.6509
vn -0.3906 0.6509 -0.6509
vn 0.3906 0.6509 -0.6509
vn 0.3906 0.6509 0.6509
vn -0.3906 0.6509 0.6509
vn -0.3906 -0.6509 -0.6509
vn 0.3906 -0.6509 -0.6509
vn 0.3906 -0.6509 0.6509
vn -0.3906 -0.6509 0.6509
vn -0.3906 0.6509 -0.6509
vn 0.3906 0.6509 -0.6509
vn 0.3906 0.6509 0.6509
vn -0.3906 0.6509 0.6509
vn -0.3906 -0.6509 -0.6509
vn 0.3906 -0.6509 -0.6509
vn 0.3906 -0.6509 0.6509
vn -0.3906 -0.6509 0.6509
vn -0.3906 0.6509 -0.6509
vn 0.3906 0.6509 -0.6509
vn 0.3906 0.6509 0.6509
vn -0.3906 0.6509 0.6509
vn -0.3906 -0.6509 -0.6509
vn 0.3906 -0.6509 -0.6509
vn 0.3906 -0.6509 0.6509
vn -0.3906 -0.6509 0.6509
vn -0.3906 0.6509 -0.6509
vn 0.3906 0.6509 -0.6509
vn 0.3906 0.6509 0.6509
vn -0.3906 0.6509 0.6509
vn -0.3906 -0.6509 -0.6509
vn 0.3906 -0.6509 -0.6509
vn 0.3906 -0.6509 0.6509
vn -0.3906 -0.6509 0.6509
vn -0.3906 0.6509 -0.6509
vn 0.3906 0.6509 -0.6509
vn 0.3906 0.6509 0.6509
vn -0.3906 0.6509 0.6509
vn -0.3906 -0.6509 -0.6509
vn 0.3906 -0.6509 -0.6509
vn 0.3906 -0.6509 0.6509
vn -0.3906 -0.6509 0.6509
vn -0.3906 0.6509 -0.6509
vn 0.3906 0.6509 -0.6509
vn 0.3906 0.6509 0.6509
vn -0.3906 0.6509 0.6509
vn -0.3906 -0.6509 -0.6509
vn 0.3906 -0.6509 -0.6509
vn 0.3906 -0.6509 0.6509
vn -0.3906 -0.6509 0.6509
usemtl c0
f 1//1 2//1 14//1
f 1//2 14//2 13//2
f 2//3 3//3 15//3
f 2//4 15//4 14//4
f 3//5 4//5 16//5
f 3//6 16//6 15//6
f 4//7 5//7 17//7
f 4//8 17//8 16//8
f 5//9 6//9 18//9
f 5//10 18//10 17//10
f 6//11 7//11 19//11
f 6//12 19//12 18//12
f 7//13 8//13 20//13
f 7//14 20//14 19//14
f 8//15 9//15 21//15
f 8//16 21//16 20//16
f 9//17 10//17 22//17
f 9//18 22//18 21//18
f 10//19 11//19 23//19
f 10//20 23//20 22//20
f 11//21 12//21 24//21
f 11//22 24//22 23//22
f 12//23 1//23 13//23
f 12//24 13//24 24//24
f 13//25 14//25 26//25
f 13//26 26//26 25//26
f 14//27 15//27 27//27
f 14//28 27//28 26//28
f 15//29 16//29 28//29
f 15//30 28//30 27//30
f 16//31 17//31 29//31
f 16//32 29//32 28//32
f 17//33 18//33 30//33
f 17//34 30//34 29//34
f 18//35 19//35 31//35
f 18//36 31//36 30//36
f 19//37 20//37 32//37
f 19//38 32//38 31//38
f 20//39 21//39 33//39
f 20//40 33//40 32//40
f 21//41 22//41 34//41
f 21//42 34//42 33//42
f 22//43 23//43 35//43
f 22//44 35//44 34//44
f 23//45 24//45 36//45
f 23//46 36//46 35//46
f 24//47 13//47 25//47
f 24//48 25//48 36//48
f 25//49 26//49 38//49
f 25//50 38//50 37//50
f 26//51 27//51 39//51
f 26//52 39//52 38//52
f 27//53 28//53 40//53
f 27//54 40//54 39//54
f 28//55 29//55 41//55
f 28//56 41//56 40//56
f 29//57 30//57 42//57
f 29//58 42//58 41//58
f 30//59 31//59 43//59
f 30//60 43//60 42//60
f 31//61 32//61 44//61
f 31//62 44//62 43//62
f 32//63 33//63 45//63
f 32//64 45//64 44//64
f 33//65 34//65 46//65
f 33//66 46//66 45//66
f 34//67 35//67 47//67
f 34//68 47//68 46//68
f 35//69 36//69 48//69
f 35//70 48//70 47//70
f 36//71 25//71 37//71
f 36//72 37//72 48//72
f 37//73 38//73 50//73
f 37//74 50//74 49//74
f 38//75 39//75 51//75
f 38//76 51//76 50//76
f 39//77 40//77 52//77
f 39//78 52//78 51//78
f 40//79 41//79 53//79
f 40//80 53//80 52//80
f 41//81 42//81 54//81
f 41//82 54//82 53//82
f 42//83 43//83 55//83
f 42//84 55//84 54//84
f 43//85 44//85 56//85
f 43//86 56//86 55//86
f 44//87 45//87 57//87
f 44//88 57//88 56//88
f 45//89 46//89 58//89
f 45//90 58//90 57//90
f 46//91 47//91 59//91
f 46//92 59//92 58//92
f 47//93 48//93 60//93
f 47//94 60//94 59//94
f 48//95 37//95 49//95
f 48//96 49//96 60//96
f 49//97 50//97 62//97
f 49//98 62//98 61//98
f 50//99 51//99 63//99
f 50//100 63//100 62//100
f 51//101 52//101 64//101
f 51//102 64//102 63//102
f 52//103 53//103 65//103
f 52//104 65//104 64//104
f 53//105 54//105 66//105
f 53//106 66//106 65//106
f 54//107 55//107 67//107
f 54//108 67//108 66//108
f 55//109 56//109 68//109
f 55//110 68//110 67//110
f 56//111 57//111 69//111
f 56//112 69//112 68//112
f 57//113 58//113 70//113
f 57//114 70//114 69//114
f 58//115 59//115 71//115
f 58//116 71//116 70//116
f 59//117 60//117 72//117
f 59//118 72//118 71//118
f 60//119 49//119 61//119
f 60//120 61//120 72//120
f 61//121 62//121 2//121
f 61//122 2//122 1//122
f 62//123 63//123 3//123
f 62//124 3//124 2//124
f 63//125 64//125 4//125
f 63//126 4//126 3//126
f 64//127 65//127 5//127
f 64//128 5//128 4//128
f 65//129 66//129 6//129
f 65//130 6//130 5//130
f 66//131 67//131 7//131
f 66//132 7//132 6//132
f 67//133 68//133 8//133
f 67//134 8//134 7//134
f 68//135 69//135 9//135
f 68//136 9//136 8//136
f 69//137 70//137 10//137
f 69//138 10//138 9//138
f 70//139 71//139 11//139
f 70//140 11//140 10//140
f 71//141 72//141 12//141
f 71//142 12//142 11//142
f 72//143 61//143 1//143
f 72//144 1//144 12//144
usemtl c1
f 73//145 74//145 86//145
f 73//146 86//146 85//146
f 74//147 75//147 87//147
f 74//148 87//148 86//148
f 75//149 76//149 88//149
f 75//150 88//150 87//150
f 76//151 77//151 89//151
f 76//152 89//152 88//152
f 77//153 78//153 90//153
f 77//154 90//154 89//154
f 78//155 79//155 91//155
f 78//156 91//156 90//156
f 79//157 80//157 92//157
f 79//158 92//158 91//158
f 80//159 81//159 93//159
f 80//160 93//160 92//160
f 81//161 82//161 94//161
f 81//162 94//162 93//162
f 82//163 83//163 95//163
f 82//164 95//164 94//164
f 83//165 84//165 96//165
f 83//166 96//166 95//166
f 84//167 73//167 85//167
f 84//168 85//168 96//168
f 85//169 86//169 98//169
f 85//170 98//170 97//170
f 86//171 87//171 99//171
f 86//172 99//172 98//172
f 87//173 88//173 100//173
f 87//174 100//174 99//174
f 88//175 89//175 101//175
f 88//176 101//176 100//176
f 89//177 90//177 102//177
f 89//178 102//178 101//178
f 90//179 91//179 103//179
f 90//180 103//180 102//180
f 91//181 92//181 104//181
f 91//182 104//182 103//182
f 92//183 93//183 105//183
f 92//184 105//184 104//184
f 93//185 94//185 106//185
f 93//186 106//186 105//186
f 94//187 95//187 107//187
f 94//188 107//188 106//188
f 95//189 96//189 108//189
f 95//190 108//190 107//190
f 96//191 85//191 97//191
f 96//192 97//192 108//192
f 97//193 98//193 110//193
f 97//194 110//194 109//194
f 98//195 99//195 111//195
f 98//196 111//196 110//196
f 99//197 100//197 112//197
f 99//198 112//198 111//198
f 100//199 101//199 113//199
f 100//200 113//200 112//200
f 101//201 102//201 114//201
f 101//202 114//202 113//202
f 102//203 103//203 115//203
f 102//204 115//204 114//204
f 103//205 104//205 116//205
f 103//206 116//206 115//206
f 104//207 105//207 117//207
f 104//208 117//208 116//208
f 105//209 106//209 118//209
f 105//210 118//210 117//210
f 106//211 107//211 119//211
f 106//212 119//212 118//212
f 107//213 108//213 120//213
f 107//214 120//214 119//214
f 108//215 97//215 109//215
f 108//216 109//216 120//216
f 109//217 110//217 122//217
f 109//218 122//218 121//218
f 110//219 111//219 123//219
f 110//220 123//220 122//220
f 111//221 112//221 124//221
f 111//222 124//222 123//222
f 112//223 113//223 125//223
f 112//224 125//224 124//224
f 113//225 114//225 126//225
f 113//226 126//226 125//226
f 114//227 115//227 127//227
f 114//228 127//228 126//228
f 115//229 116//229 128//229
f 115//230 128//230 127//230
f 116//231 117//231 129//231
f 116//232 129//232 128//232
f 117//233 118//233 130//233
f 117//234 130//234 129//234
f 118//235 119//235 131//235
f 118//236 131//236 130//236
f 119//237 120//237 132//237
f 119//238 132//238 131//238
f 120//239 109//239 121//239
f 120//240 121//240 132//240
f 121//241 122//241 134//241
f 121//242 134//242 133//242
f 122//243 123//243 135//243
f 122//244 135//244 134//244
f 123//245 124//245 136//245
f 123//246 136//246 135//246
f 124//247 125//247 137//247
f 124//248 137//248 136//248
f 125//249 126//249 138//249
f 125//250 138//250 137//250
f 126//251 127//251 139//251
f 126//252 139//252 138//252
f 127//253 128//253 140//253
f 127//254 140//254 139//254
f 128//255 129//255 141//255
f 128//256 141//256 140//256
f 129//257 130//257 142//257
f 129//258 142//258 141//258
f 130//259 131//259 143//259
f 130//260 143//260 142//260
f 131//261 132//261 144//261
f 131//262 144//262 143//262
f 132//263 121//263 133//263
f 132//264 133//264 144//264
f 133//265 134//265 146//265
f 133//266 146//266 145//266
f 134//267 135//267 147//267
f 134//268 147//268 146//268
f 135//269 136//269 148//269
f 135//270 148//270 147//270
f 136//271 137//271 149//271
f 136//272 149//272 148//272
f 137//273 138//273 150//273
f 137//274 150//274 149//274
f 138//275 139//275 151//275
f 138//276 151//276 150//276
f 139//277 140//277 152//277
f 139//278 152//278 151//278
f 140//279 141//279 153//279
f 140//280 153//280 152//280
f 141//281 142//281 154//281
f 141//282 154//282 153//282
f 142//283 143//283 155//283
f 142//284 155//284 154//284
f 143//285 144//285 156//285
f 143//286 156//286 155//286
f 144//287 133//287 145//287
f 144//288 145//288 156//288
f 145//289 146//289 158//289
f 145//290 158//290 157//290
f 146//291 147//291 159//291
f 146//292 159//292 158//292
f 147//293 148//293 160//293
f 147//294 160//294 159//294
f 148//295 149//295 161//295
f 148//296 161//296 160//296
f 149//297 150//297 162//297
f 149//298 162//298 161//298
f 150//299 151//299 163//299
f 150//300 163//300 162//300
f 151//301 152//301 164//301
f 151//302 164//302 163//302
f 152//303 153//303 165//303
f 152//304 165//304 164//304
f 153//305 154//305 166//305
f 153//306 166//306 165//306
f 154//307 155//307 167//307
f 154//308 167//308 166//308
f 155//309 156//309 168//309
f 155//310 168//310 167//310
f 156//311 145//311 157//311
f 156//312 157//312 168//312
usemtl c2
f 169//313 174//313 173//313
f 170//314 175//314 174//314
f 171//315 176//315 175//315
f 172//316 173//316 176//316
f 173//317 174//317 178//317
f 174//318 175//318 179//318
f 175//319 176//319 180//319
f 176//320 173//320 177//320
f 181//321 186//321 185//321
f 182//322 187//322 186//322
f 183//323 188//323 187//323
f 184//324 185//324 188//324
f 185//325 186//325 190//325
f 186//326 187//326 191//326
f 187//327 188//327 192//327
f 188//328 185//328 189//328
f 193//329 198//329 197//329
f 194//330 199//330 198//330
f 195//331 200//331 199//331
f 196//332 197//332 200//332
f 197//333 198//333 202//333
f 198//334 199//334 203//334
f 199//335 200//335 204//335
f 200//336 197//336 201//336
f 205//337 210//337 209//337
f 206//338 211//338 210//338
f 207//339 212//339 211//339
f 208//340 209//340 212//340
f 209//341 210//341 214//341
f 210//342 211//342 215//342
f 211//343 212//343 216//343
f 212//344 209//344 213//344
f 217//345 222//345 221//345
f 218//346 223//346 222//346
f 219//347 224//347 223//347
f 220//348 221//348 224//348
f 221//349 222//349 226//349
f 222//350 223//350 227//350
f 223//351 224//351 228//351
f 224//352 221//352 225//352
f 229//353 234//353 233//353
f 230//354 235//354 234//354
f 231//355 236//355 235//355
f 232//356 233//356 236//356
f 233//357 234//357 238//357
f 234//358 235//358 239//358
f 235//359 236//359 240//359
f 236//360 233//360 237//360
f 241//361 246//361 245//361
f 242//362 247//362 246//362
f 243//363 248//363 247//363
f 244//364 245//364 248//364
f 245//365 246//365 250//365
f 246//366 247//366 251//366
f 247//367 248//367 252//367
f 248//368 245//368 249//368
f 253//369 258//369 257//369
f 254//370 259//370 258//370
f 255//371 260//371 259//371
f 256//372 257//372 260//372
f 257//373 258//373 262//373
f 258//374 259//374 263//374
f 259//375 260//375 264//375
f 260//376 257//376 261//376
f 265//377 270//377 269//377
f 266//378 271//378 270//378
f 267//379 272//379 271//379
f 268//380 269//380 272//380
f 269//381 270//381 274//381
f 270//382 271//382 275//382
f 271//383 272//383 276//383
f 272//384 269//384 273//384
f 277//385 282//385 281//385
f 278//386 283//386 282//386
f 279//387 284//387 283//387
f 280//388 281//388 284//388
f 281//389 282//389 286//389
f 282//390 283//390 287//390
f 283//391 284//391 288//391
f 284//392 281//392 285//392
f 289//393 294//393 293//393
f 290//394 295//394 294//394
f 291//395 296//395 295//395
f 292//396 293//396 296//396
f 293//397 294//397 298//397
f 294//398 295//398 299//398
f 295//399 296//399 300//399
f 296//400 293//400 297//400
f 301//401 306//401 305//401
f 302//402 307//402 306//402
f 303//403 308//403 307//403
f 304//404 305//404 308//404
f 305//405 306//405 310//405
f 306//406 307//406 311//406
f 307//407 308//407 312//407
f 308//408 305//408 309//408
f 313//409 318//409 317//409
f 314//410 319//410 318//410
f 315//411 320//411 319//411
f 316//412 317//412 320//412
f 317//413 318//413 322//413
f 318//414 319//414 323//414
f 319//415 320//415 324//415
f 320//416 317//416 321//416
f 325//417 330//417 329//417
f 326//418 331//418 330//418
f 327//419 332//419 331//419
f 328//420 329//420 332//420
f 329//421 330//421 334//421
f 330//422 331//422 335//422
f 331//423 332//423 336//423
f 332//424 329//424 333//424
