mtllib Food_Banana.mtl
v -1.1770 -0.0767 0.0000
v -1.1770 -0.0767 0.0000
v -1.1770 -0.0767 0.0000
v -1.1770 -0.0767 0.0000
v -1.1770 -0.0767 0.0000
v -0.8933 -0.1234 0.0000
v -0.9507 -0.2051 0.1586
v -1.0435 -0.3374 0.0980
v -1.0435 -0.3374 -0.0980
v -0.9507 -0.2051 -0.1586
v -0.6646 -0.1955 0.0000
v -0.7256 -0.3189 0.2187
v -0.8243 -0.5188 0.1352
v -0.8243 -0.5188 -0.1352
v -0.7256 -0.3189 -0.2187
v -0.4415 -0.2481 0.0000
v -0.4902 -0.4022 0.2566
v -0.5689 -0.6515 0.1586
v -0.5689 -0.6515 -0.1586
v -0.4902 -0.4022 -0.2566
v -0.2204 -0.2796 0.0000
v -0.2471 -0.4527 0.2782
v -0.2902 -0.7329 0.1720
v -0.2902 -0.7329 -0.1720
v -0.2471 -0.4527 -0.2782
v 0.0000 -0.2900 0.0000
v 0.0000 -0.4697 0.2853
v 0.0000 -0.7603 0.1763
v 0.0000 -0.7603 -0.1763
v 0.0000 -0.4697 -0.2853
v 0.2204 -0.2796 0.0000
v 0.2471 -0.4527 0.2782
v 0.2902 -0.7329 0.1720
v 0.2902 -0.7329 -0.1720
v 0.2471 -0.4527 -0.2782
v 0.4415 -0.2481 0.0000
v 0.4902 -0.4022 0.2566
v 0.5689 -0.6515 0.1586
v 0.5689 -0.6515 -0.1586
v 0.4902 -0.4022 -0.2566
v 0.6646 -0.1955 0.0000
v 0.7256 -0.3189 0.2187
v 0.8243 -0.5188 0.1352
v 0.8243 -0.5188 -0.1352
v 0.7256 -0.3189 -0.2187
v 0.8933 -0.1234 0.0000
v 0.9507 -0.2051 0.1586
v 1.0435 -0.3374 0.0980
v 1.0435 -0.3374 -0.0980
v 0.9507 -0.2051 -0.1586
v 1.1770 -0.0767 0.0000
v 1.1770 -0.0767 0.0000
v 1.1770 -0.0767 0.0000
v 1.1770 -0.0767 -0.0000
v 1.1770 -0.0767 -0.0000
vn 0.1412 0.8582 0.4935
vn -0.5663 0.0199 0.8240
vn -0.8901 -0.4557 0.0000
vn -0.5663 0.0199 -0.8240
vn 0.1412 0.8582 -0.4935
vn 0.2724 0.8116 0.5169
vn 0.2553 0.8098 0.5283
vn -0.3214 -0.1986 0.9259
vn -0.3498 -0.2091 0.9132
vn -0.6376 -0.7704 -0.0000
vn -0.6376 -0.7704 0.0000
vn -0.3396 -0.1841 -0.9224
vn -0.3355 -0.2175 -0.9166
vn 0.2578 0.8177 -0.5147
vn 0.2662 0.8057 -0.5291
vn 0.2076 0.8259 0.5242
vn 0.1944 0.8243 0.5318
vn -0.2294 -0.2769 0.9331
vn -0.2496 -0.2850 0.9254
vn -0.4611 -0.8873 -0.0000
vn -0.4611 -0.8873 0.0000
vn -0.2448 -0.2686 -0.9316
vn -0.2358 -0.2902 -0.9275
vn 0.1957 0.8296 -0.5229
vn 0.2048 0.8215 -0.5321
vn 0.1275 0.8395 0.5282
vn 0.1192 0.8378 0.5328
vn -0.1395 -0.3239 0.9358
vn -0.1515 -0.3301 0.9317
vn -0.2804 -0.9599 -0.0000
vn -0.2804 -0.9599 0.0000
vn -0.1498 -0.3204 -0.9354
vn -0.1417 -0.3319 -0.9326
vn 0.1197 0.8410 -0.5277
vn 0.1266 0.8367 -0.5328
vn 0.0428 0.8464 0.5308
vn 0.0401 0.8455 0.5324
vn -0.0470 -0.3479 0.9363
vn -0.0508 -0.3506 0.9351
vn -0.0942 -0.9956 -0.0000
vn -0.0942 -0.9956 0.0000
vn -0.0506 -0.3474 -0.9364
vn -0.0472 -0.3507 -0.9353
vn 0.0401 0.8466 -0.5307
vn 0.0427 0.8454 -0.5324
vn -0.0427 0.8454 0.5324
vn -0.0401 0.8466 0.5307
vn 0.0472 -0.3507 0.9353
vn 0.0506 -0.3474 0.9364
vn 0.0942 -0.9956 0.0000
vn 0.0942 -0.9956 0.0000
vn 0.0508 -0.3506 -0.9351
vn 0.0470 -0.3479 -0.9363
vn -0.0401 0.8455 -0.5324
vn -0.0428 0.8464 -0.5308
vn -0.1266 0.8367 0.5328
vn -0.1197 0.8410 0.5277
vn 0.1417 -0.3319 0.9326
vn 0.1498 -0.3204 0.9354
vn 0.2804 -0.9599 0.0000
vn 0.2804 -0.9599 0.0000
vn 0.1515 -0.3301 -0.9317
vn 0.1395 -0.3239 -0.9358
vn -0.1192 0.8378 -0.5328
vn -0.1275 0.8395 -0.5282
vn -0.2048 0.8215 0.5321
vn -0.1957 0.8296 0.5229
vn 0.2358 -0.2902 0.9275
vn 0.2448 -0.2686 0.9316
vn 0.4611 -0.8873 0.0000
vn 0.4611 -0.8873 0.0000
vn 0.2496 -0.2850 -0.9254
vn 0.2294 -0.2769 -0.9331
vn -0.1944 0.8243 -0.5318
vn -0.2076 0.8259 -0.5242
vn -0.2662 0.8057 0.5291
vn -0.2578 0.8177 0.5147
vn 0.3355 -0.2175 0.9166
vn 0.3396 -0.1841 0.9224
vn 0.6376 -0.7704 0.0000
vn 0.6376 -0.7704 0.0000
vn 0.3498 -0.2091 -0.9132
vn 0.3214 -0.1986 -0.9259
vn -0.2553 0.8098 -0.5283
vn -0.2724 0.8116 -0.5169
vn -0.1412 0.8582 0.4935
vn -0.1441 0.8758 0.4607
vn 0.5663 0.0199 0.8240
vn 0.8901 -0.4557 0.0000
vn 0.8901 -0.4557 0.0000
vn 0.5663 0.0199 -0.8240
vn 0.5191 0.0549 -0.8529
vn -0.1412 0.8582 -0.4935
vn -0.1657 0.8686 -0.4669
usemtl c0
f 1//1 7//1 6//1
f 2//2 8//2 7//2
f 3//3 9//3 8//3
f 4//4 10//4 9//4
f 5//5 6//5 10//5
f 6//6 7//6 12//6
f 6//7 12//7 11//7
f 7//8 8//8 13//8
f 7//9 13//9 12//9
f 8//10 9//10 14//10
f 8//11 14//11 13//11
f 9//12 10//12 15//12
f 9//13 15//13 14//13
f 10//14 6//14 11//14
f 10//15 11//15 15//15
f 11//16 12//16 17//16
f 11//17 17//17 16//17
f 12//18 13//18 18//18
f 12//19 18//19 17//19
f 13//20 14//20 19//20
f 13//21 19//21 18//21
f 14//22 15//22 20//22
f 14//23 20//23 19//23
f 15//24 11//24 16//24
f 15//25 16//25 20//25
f 16//26 17//26 22//26
f 16//27 22//27 21//27
f 17//28 18//28 23//28
f 17//29 23//29 22//29
f 18//30 19//30 24//30
f 18//31 24//31 23//31
f 19//32 20//32 25//32
f 19//33 25//33 24//33
f 20//34 16//34 21//34
f 20//35 21//35 25//35
f 21//36 22//36 27//36
f 21//37 27//37 26//37
f 22//38 23//38 28//38
f 22//39 28//39 27//39
f 23//40 24//40 29//40
f 23//41 29//41 28//41
f 24//42 25//42 30//42
f 24//43 30//43 29//43
f 25//44 21//44 26//44
f 25//45 26//45 30//45
f 26//46 27//46 32//46
f 26//47 32//47 31//47
f 27//48 28//48 33//48
f 27//49 33//49 32//49
f 28//50 29//50 34//50
f 28//51 34//51 33//51
f 29//52 30//52 35//52
f 29//53 35//53 34//53
f 30//54 26//54 31//54
f 30//55 31//55 35//55
f 31//56 32//56 37//56
f 31//57 37//57 36//57
f 32//58 33//58 38//58
f 32//59 38//59 37//59
f 33//60 34//60 39//60
f 33//61 39//61 38//61
f 34//62 35//62 40//62
f 34//63 40//63 39//63
f 35//64 31//64 36//64
f 35//65 36//65 40//65
f 36//66 37//66 42//66
f 36//67 42//67 41//67
f 37//68 38//68 43//68
f 37//69 43//69 42//69
f 38//70 39//70 44//70
f 38//71 44//71 43//71
f 39//72 40//72 45//72
f 39//73 45//73 44//73
f 40//74 36//74 41//74
f 40//75 41//75 45//75
f 41//76 42//76 47//76
f 41//77 47//77 46//77
f 42//78 43//78 48//78
f 42//79 48//79 47//79
f 43//80 44//80 49//80
f 43//81 49//81 48//81
f 44//82 45//82 50//82
f 44//83 50//83 49//83
f 45//84 41//84 46//84
f 45//85 46//85 50//85
f 46//86 47//86 52//86
f 46//87 52//87 51//87
f 47//88 48//88 53//88
f 48//89 49//89 54//89
f 48//90 54//90 53//90
f 49//91 50//91 55//91
f 49//92 55//92 54//92
f 50//93 46//93 51//93
f 50//94 51//94 55//94
