mtllib Food_Apple.mtl
v 0.0000 -0.8000 0.0000
v 0.0000 -0.8000 0.0000
v 0.0000 -0.8000 0.0000
v 0.0000 -0.8000 0.0000
v 0.0000 -0.8000 0.0000
v 0.0000 -0.8000 0.0000
v 0.0000 -0.8000 0.0000
v 0.0000 -0.8000 0.0000
v 0.0000 -0.8000 0.0000
v 0.3827 -0.8028 0.0000
v 0.2932 -0.8028 0.2460
v 0.0665 -0.8028 0.3769
v -0.1913 -0.8028 0.3314
v -0.3596 -0.8028 0.1309
v -0.3596 -0.8028 -0.1309
v -0.1913 -0.8028 -0.3314
v 0.0665 -0.8028 -0.3769
v 0.2932 -0.8028 -0.2460
v 0.7071 -0.6223 0.0000
v 0.5417 -0.6223 0.4545
v 0.1228 -0.6223 0.6964
v -0.3536 -0.6223 0.6124
v -0.6645 -0.6223 0.2418
v -0.6645 -0.6223 -0.2418
v -0.3536 -0.6223 -0.6124
v 0.1228 -0.6223 -0.6964
v 0.5417 -0.6223 -0.4545
v 0.9239 -0.3368 0.0000
v 0.7077 -0.3368 0.5939
v 0.1604 -0.3368 0.9098
v -0.4619 -0.3368 0.8001
v -0.8682 -0.3368 0.3160
v -0.8682 -0.3368 -0.3160
v -0.4619 -0.3368 -0.8001
v 0.1604 -0.3368 -0.9098
v 0.7077 -0.3368 -0.5939
v 1.0000 -0.0000 0.0000
v 0.7660 -0.0000 0.6428
v 0.1736 -0.0000 0.9848
v -0.5000 -0.0000 0.8660
v -0.9397 -0.0000 0.3420
v -0.9397 -0.0000 -0.3420
v -0.5000 -0.0000 -0.8660
v 0.1736 -0.0000 -0.9848
v 0.7660 -0.0000 -0.6428
v 0.9239 0.3368 0.0000
v 0.7077 0.3368 0.5939
v 0.1604 0.3368 0.9098
v -0.4619 0.3368 0.8001
v -0.8682 0.3368 0.3160
v -0.8682 0.3368 -0.3160
v -0.4619 0.3368 -0.8001
v 0.1604 0.3368 -0.9098
v 0.7077 0.3368 -0.5939
v 0.7071 0.6223 0.0000
v 0.5417 0.6223 0.4545
v 0.1228 0.6223 0.6964
v -0.3536 0.6223 0.6124
v -0.6645 0.6223 0.2418
v -0.6645 0.6223 -0.2418
v -0.3536 0.6223 -0.6124
v 0.1228 0.6223 -0.6964
v 0.5417 0.6223 -0.4545
v 0.3827 0.7673 0.0000
v 0.2932 0.7673 0.2460
v 0.0665 0.7673 0.3769
v -0.1913 0.7673 0.3314
v -0.3596 0.7673 0.1309
v -0.3596 0.7673 -0.1309
v -0.1913 0.7673 -0.3314
v 0.0665 0.7673 -0.3769
v 0.2932 0.7673 -0.2460
v 0.0000 0.7200 0.0000
v 0.0000 0.7200 0.0000
v 0.0000 0.7200 0.0000
v -0.0000 0.7200 0.0000
v -0.0000 0.7200 0.0000
v -0.0000 0.7200 -0.0000
v -0.0000 0.7200 -0.0000
v 0.0000 0.7200 -0.0000
v 0.0000 0.7200 -0.0000
v 0.0491 0.6908 0.0000
v 0.0152 0.6972 0.0476
v -0.0398 0.7075 0.0294
v -0.0398 0.7075 -0.0294
v 0.0152 0.6972 -0.0476
v 0.1091 1.0108 0.0000
v 0.0752 1.0172 0.0476
v 0.0202 1.0275 0.0294
v 0.0202 1.0275 -0.0294
v 0.0752 1.0172 -0.0476
v 0.0000 0.7000 0.0000
v 0.0600 1.0200 0.0000
v 0.3611 0.8347 0.0000
v 0.3611 0.8347 0.0000
v 0.3611 0.8347 0.0000
v 0.3611 0.8347 0.0000
v 0.3611 0.8347 0.0000
v 0.3611 0.8347 0.0000
v 0.6331 0.9891 0.0000
v 0.4918 0.9232 0.1275
v 0.2093 0.7915 0.1275
v 0.0680 0.7256 0.0000
v 0.2093 0.7915 -0.1275
v 0.4918 0.9232 -0.1275
v 0.6120 1.0344 0.0000
v 0.4707 0.9685 0.1275
v 0.1882 0.8368 0.1275
v 0.0469 0.7709 0.0000
v 0.1882 0.8368 -0.1275
v 0.4707 0.9685 -0.1275
v 0.3189 0.9253 0.0000
v 0.3189 0.9253 0.0000
v 0.3189 0.9253 0.0000
v 0.3189 0.9253 0.0000
v 0.3189 0.9253 -0.0000
v 0.3189 0.9253 -0.0000
vn 0.0074 1.0000 0.0027
vn 0.0039 1.0000 0.0068
vn -0.0014 1.0000 0.0077
vn -0.0060 1.0000 0.0051
vn -0.0079 1.0000 0.0000
vn -0.0060 1.0000 -0.0051
vn -0.0014 1.0000 -0.0077
vn 0.0039 1.0000 -0.0068
vn 0.0074 1.0000 -0.0027
vn -0.4789 0.8604 -0.1743
vn -0.4789 0.8604 -0.1743
vn -0.2548 0.8604 -0.4414
vn -0.2548 0.8604 -0.4414
vn 0.0885 0.8604 -0.5019
vn 0.0885 0.8604 -0.5019
vn 0.3904 0.8604 -0.3276
vn 0.3904 0.8604 -0.3276
vn 0.5096 0.8604 -0.0000
vn 0.5096 0.8604 -0.0000
vn 0.3904 0.8604 0.3276
vn 0.3904 0.8604 0.3276
vn 0.0885 0.8604 0.5019
vn 0.0885 0.8604 0.5019
vn -0.2548 0.8604 0.4414
vn -0.2548 0.8604 0.4414
vn -0.4789 0.8604 0.1743
vn -0.4789 0.8604 0.1743
vn -0.7649 0.5808 -0.2784
vn -0.7649 0.5808 -0.2784
vn -0.4070 0.5808 -0.7050
vn -0.4070 0.5808 -0.7050
vn 0.1414 0.5808 -0.8017
vn 0.1414 0.5808 -0.8017
vn 0.6236 0.5808 -0.5233
vn 0.6236 0.5808 -0.5233
vn 0.8140 0.5808 -0.0000
vn 0.8140 0.5808 -0.0000
vn 0.6236 0.5808 0.5233
vn 0.6236 0.5808 0.5233
vn 0.1414 0.5808 0.8017
vn 0.1414 0.5808 0.8017
vn -0.4070 0.5808 0.7050
vn -0.4070 0.5808 0.7050
vn -0.7649 0.5808 0.2784
vn -0.7649 0.5808 0.2784
vn -0.9192 0.2078 -0.3346
vn -0.9192 0.2078 -0.3346
vn -0.4891 0.2078 -0.8471
vn -0.4891 0.2078 -0.8471
vn 0.1699 0.2078 -0.9633
vn 0.1699 0.2078 -0.9633
vn 0.7493 0.2078 -0.6288
vn 0.7493 0.2078 -0.6288
vn 0.9782 0.2078 -0.0000
vn 0.9782 0.2078 -0.0000
vn 0.7493 0.2078 0.6288
vn 0.7493 0.2078 0.6288
vn 0.1699 0.2078 0.9633
vn 0.1699 0.2078 0.9633
vn -0.4891 0.2078 0.8471
vn -0.4891 0.2078 0.8471
vn -0.9192 0.2078 0.3346
vn -0.9192 0.2078 0.3346
vn -0.9192 -0.2078 -0.3346
vn -0.9192 -0.2078 -0.3346
vn -0.4891 -0.2078 -0.8471
vn -0.4891 -0.2078 -0.8471
vn 0.1699 -0.2078 -0.9633
vn 0.1699 -0.2078 -0.9633
vn 0.7493 -0.2078 -0.6288
vn 0.7493 -0.2078 -0.6288
vn 0.9782 -0.2078 -0.0000
vn 0.9782 -0.2078 -0.0000
vn 0.7493 -0.2078 0.6288
vn 0.7493 -0.2078 0.6288
vn 0.1699 -0.2078 0.9633
vn 0.1699 -0.2078 0.9633
vn -0.4891 -0.2078 0.8471
vn -0.4891 -0.2078 0.8471
vn -0.9192 -0.2078 0.3346
vn -0.9192 -0.2078 0.3346
vn -0.7649 -0.5808 -0.2784
vn -0.7649 -0.5808 -0.2784
vn -0.4070 -0.5808 -0.7050
vn -0.4070 -0.5808 -0.7050
vn 0.1414 -0.5808 -0.8017
vn 0.1414 -0.5808 -0.8017
vn 0.6236 -0.5808 -0.5233
vn 0.6236 -0.5808 -0.5233
vn 0.8140 -0.5808 -0.0000
vn 0.8140 -0.5808 -0.0000
vn 0.6236 -0.5808 0.5233
vn 0.6236 -0.5808 0.5233
vn 0.1414 -0.5808 0.8017
vn 0.1414 -0.5808 0.8017
vn -0.4070 -0.5808 0.7050
vn -0.4070 -0.5808 0.7050
vn -0.7649 -0.5808 0.2784
vn -0.7649 -0.5808 0.2784
vn -0.4036 -0.9031 -0.1469
vn -0.4036 -0.9031 -0.1469
vn -0.2148 -0.9031 -0.3720
vn -0.2148 -0.9031 -0.3720
vn 0.0746 -0.9031 -0.4230
vn 0.0746 -0.9031 -0.4230
vn 0.3290 -0.9031 -0.2761
vn 0.3290 -0.9031 -0.2761
vn 0.4295 -0.9031 -0.0000
vn 0.4295 -0.9031 0.0000
vn 0.3290 -0.9031 0.2761
vn 0.3290 -0.9031 0.2761
vn 0.0746 -0.9031 0.4230
vn 0.0746 -0.9031 0.4230
vn -0.2148 -0.9031 0.3720
vn -0.2148 -0.9031 0.3720
vn -0.4036 -0.9031 0.1469
vn -0.4036 -0.9031 0.1469
vn 0.1224 -0.9915 0.0446
vn 0.0651 -0.9915 0.1128
vn -0.0226 -0.9915 0.1283
vn -0.0998 -0.9915 0.0837
vn -0.1303 -0.9915 -0.0000
vn -0.0998 -0.9915 -0.0837
vn -0.0226 -0.9915 -0.1283
vn 0.0651 -0.9915 -0.1128
vn 0.1224 -0.9915 -0.0446
vn -0.7952 0.1491 -0.5878
vn -0.7952 0.1491 -0.5878
vn 0.3037 -0.0569 -0.9511
vn 0.3037 -0.0569 -0.9511
vn 0.9829 -0.1843 -0.0000
vn 0.9829 -0.1843 0.0000
vn 0.3037 -0.0569 0.9511
vn 0.3037 -0.0569 0.9511
vn -0.7952 0.1491 0.5878
vn -0.7952 0.1491 0.5878
vn -0.1843 -0.9829 0.0000
vn -0.1843 -0.9829 -0.0000
vn -0.1843 -0.9829 -0.0000
vn -0.1843 -0.9829 -0.0000
vn -0.1843 -0.9829 -0.0000
vn -0.1843 -0.9829 -0.0000
vn -0.1843 -0.9829 -0.0000
vn -0.1843 -0.9829 0.0000
vn -0.1843 -0.9829 0.0000
vn -0.1843 -0.9829 0.0000
vn -0.4914 0.8655 -0.0973
vn -0.4147 0.8894 -0.1924
vn -0.3472 0.9327 -0.0973
vn -0.3472 0.9327 0.0973
vn -0.4147 0.8894 0.1924
vn -0.4914 0.8655 0.0973
vn -0.5738 -0.2676 -0.7741
vn -0.5738 -0.2676 -0.7741
vn -0.0000 0.0000 -1.0000
vn -0.0000 -0.0000 -1.0000
vn 0.5738 0.2676 -0.7741
vn 0.5738 0.2676 -0.7741
vn 0.5738 0.2676 0.7741
vn 0.5738 0.2676 0.7741
vn 0.0000 0.0000 1.0000
vn -0.0000 0.0000 1.0000
vn -0.5738 -0.2676 0.7741
vn -0.5738 -0.2676 0.7741
vn 0.3472 -0.9327 -0.0973
vn 0.4147 -0.8894 -0.1924
vn 0.4914 -0.8655 -0.0973
vn 0.4914 -0.8655 0.0973
vn 0.4147 -0.8894 0.1924
vn 0.3472 -0.9327 0.0973
usemtl c0
f 1//1 11//1 10//1
f 2//2 12//2 11//2
f 3//3 13//3 12//3
f 4//4 14//4 13//4
f 5//5 15//5 14//5
f 6//6 16//6 15//6
f 7//7 17//7 16//7
f 8//8 18//8 17//8
f 9//9 10//9 18//9
f 10//10 11//10 20//10
f 10//11 20//11 19//11
f 11//12 12//12 21//12
f 11//13 21//13 20//13
f 12//14 13//14 22//14
f 12//15 22//15 21//15
f 13//16 14//16 23//16
f 13//17 23//17 22//17
f 14//18 15//18 24//18
f 14//19 24//19 23//19
f 15//20 16//20 25//20
f 15//21 25//21 24//21
f 16//22 17//22 26//22
f 16//23 26//23 25//23
f 17//24 18//24 27//24
f 17//25 27//25 26//25
f 18//26 10//26 19//26
f 18//27 19//27 27//27
f 19//28 20//28 29//28
f 19//29 29//29 28//29
f 20//30 21//30 30//30
f 20//31 30//31 29//31
f 21//32 22//32 31//32
f 21//33 31//33 30//33
f 22//34 23//34 32//34
f 22//35 32//35 31//35
f 23//36 24//36 33//36
f 23//37 33//37 32//37
f 24//38 25//38 34//38
f 24//39 34//39 33//39
f 25//40 26//40 35//40
f 25//41 35//41 34//41
f 26//42 27//42 36//42
f 26//43 36//43 35//43
f 27//44 19//44 28//44
f 27//45 28//45 36//45
f 28//46 29//46 38//46
f 28//47 38//47 37//47
f 29//48 30//48 39//48
f 29//49 39//49 38//49
f 30//50 31//50 40//50
f 30//51 40//51 39//51
f 31//52 32//52 41//52
f 31//53 41//53 40//53
f 32//54 33//54 42//54
f 32//55 42//55 41//55
f 33//56 34//56 43//56
f 33//57 43//57 42//57
f 34//58 35//58 44//58
f 34//59 44//59 43//59
f 35//60 36//60 45//60
f 35//61 45//61 44//61
f 36//62 28//62 37//62
f 36//63 37//63 45//63
f 37//64 38//64 47//64
f 37//65 47//65 46//65
f 38//66 39//66 48//66
f 38//67 48//67 47//67
f 39//68 40//68 49//68
f 39//69 49//69 48//69
f 40//70 41//70 50//70
f 40//71 50//71 49//71
f 41//72 42//72 51//72
f 41//73 51//73 50//73
f 42//74 43//74 52//74
f 42//75 52//75 51//75
f 43//76 44//76 53//76
f 43//77 53//77 52//77
f 44//78 45//78 54//78
f 44//79 54//79 53//79
f 45//80 37//80 46//80
f 45//81 46//81 54//81
f 46//82 47//82 56//82
f 46//83 56//83 55//83
f 47//84 48//84 57//84
f 47//85 57//85 56//85
f 48//86 49//86 58//86
f 48//87 58//87 57//87
f 49//88 50//88 59//88
f 49//89 59//89 58//89
f 50//90 51//90 60//90
f 50//91 60//91 59//91
f 51//92 52//92 61//92
f 51//93 61//93 60//93
f 52//94 53//94 62//94
f 52//95 62//95 61//95
f 53//96 54//96 63//96
f 53//97 63//97 62//97
f 54//98 46//98 55//98
f 54//99 55//99 63//99
f 55//100 56//100 65//100
f 55//101 65//101 64//101
f 56//102 57//102 66//102
f 56//103 66//103 65//103
f 57//104 58//104 67//104
f 57//105 67//105 66//105
f 58//106 59//106 68//106
f 58//107 68//107 67//107
f 59//108 60//108 69//108
f 59//109 69//109 68//109
f 60//110 61//110 70//110
f 60//111 70//111 69//111
f 61//112 62//112 71//112
f 61//113 71//113 70//113
f 62//114 63//114 72//114
f 62//115 72//115 71//115
f 63//116 55//116 64//116
f 63//117 64//117 72//117
f 64//118 65//118 74//118
f 65//119 66//119 75//119
f 66//120 67//120 76//120
f 67//121 68//121 77//121
f 68//122 69//122 78//122
f 69//123 70//123 79//123
f 70//124 71//124 80//124
f 71//125 72//125 81//125
f 72//126 64//126 73//126
usemtl c1
f 82//127 83//127 88//127
f 82//128 88//128 87//128
f 83//129 84//129 89//129
f 83//130 89//130 88//130
f 84//131 85//131 90//131
f 84//132 90//132 89//132
f 85//133 86//133 91//133
f 85//134 91//134 90//134
f 86//135 82//135 87//135
f 86//136 87//136 91//136
f 92//137 82//137 83//137
f 92//138 83//138 84//138
f 92//139 84//139 85//139
f 92//140 85//140 86//140
f 92//141 86//141 82//141
f 93//142 87//142 88//142
f 93//143 88//143 89//143
f 93//144 89//144 90//144
f 93//145 90//145 91//145
f 93//146 91//146 87//146
usemtl c2
f 94//147 101//147 100//147
f 95//148 102//148 101//148
f 96//149 103//149 102//149
f 97//150 104//150 103//150
f 98//151 105//151 104//151
f 99//152 100//152 105//152
f 100//153 101//153 107//153
f 100//154 107//154 106//154
f 101//155 102//155 108//155
f 101//156 108//156 107//156
f 102//157 103//157 109//157
f 102//158 109//158 108//158
f 103//159 104//159 110//159
f 103//160 110//160 109//160
f 104//161 105//161 111//161
f 104//162 111//162 110//162
f 105//163 100//163 106//163
f 105//164 106//164 111//164
f 106//165 107//165 113//165
f 107//166 108//166 114//166
f 108//167 109//167 115//167
f 109//168 110//168 116//168
f 110//169 111//169 117//169
f 111//170 106//170 112//170
