mtllib Food_Sausage.mtl
v -1.0500 0.3000 -0.4500
v -1.0500 0.3000 -0.4500
v -1.0500 0.3000 -0.4500
v -1.0500 0.3000 -0.4500
v -1.0500 0.3000 -0.4500
v -1.0500 0.3000 -0.4500
v -1.0500 0.3000 -0.4500
v -1.0500 0.3000 -0.4500
v -0.7875 0.5249 -0.4500
v -0.7875 0.4590 -0.2910
v -0.7875 0.3000 -0.2251
v -0.7875 0.1410 -0.2910
v -0.7875 0.0751 -0.4500
v -0.7875 0.1410 -0.6090
v -0.7875 0.3000 -0.6749
v -0.7875 0.4590 -0.6090
v -0.5250 0.5704 -0.4500
v -0.5250 0.4912 -0.2588
v -0.5250 0.3000 -0.1796
v -0.5250 0.1088 -0.2588
v -0.5250 0.0296 -0.4500
v -0.5250 0.1088 -0.6412
v -0.5250 0.3000 -0.7204
v -0.5250 0.4912 -0.6412
v -0.2625 0.5930 -0.4500
v -0.2625 0.5072 -0.2428
v -0.2625 0.3000 -0.1570
v -0.2625 0.0928 -0.2428
v -0.2625 0.0070 -0.4500
v -0.2625 0.0928 -0.6572
v -0.2625 0.3000 -0.7430
v -0.2625 0.5072 -0.6572
v 0.0000 0.6000 -0.4500
v 0.0000 0.5121 -0.2379
v 0.0000 0.3000 -0.1500
v 0.0000 0.0879 -0.2379
v 0.0000 0.0000 -0.4500
v 0.0000 0.0879 -0.6621
v 0.0000 0.3000 -0.7500
v 0.0000 0.5121 -0.6621
v 0.2625 0.5930 -0.4500
v 0.2625 0.5072 -0.2428
v 0.2625 0.3000 -0.1570
v 0.2625 0.0928 -0.2428
v 0.2625 0.0070 -0.4500
v 0.2625 0.0928 -0.6572
v 0.2625 0.3000 -0.7430
v 0.2625 0.5072 -0.6572
v 0.5250 0.5704 -0.4500
v 0.5250 0.4912 -0.2588
v 0.5250 0.3000 -0.1796
v 0.5250 0.1088 -0.2588
v 0.5250 0.0296 -0.4500
v 0.5250 0.1088 -0.6412
v 0.5250 0.3000 -0.7204
v 0.5250 0.4912 -0.6412
v 0.7875 0.5249 -0.4500
v 0.7875 0.4590 -0.2910
v 0.7875 0.3000 -0.2251
v 0.7875 0.1410 -0.2910
v 0.7875 0.0751 -0.4500
v 0.7875 0.1410 -0.6090
v 0.7875 0.3000 -0.6749
v 0.7875 0.4590 -0.6090
v 1.0500 0.3000 -0.4500
v 1.0500 0.3000 -0.4500
v 1.0500 0.3000 -0.4500
v 1.0500 0.3000 -0.4500
v 1.0500 0.3000 -0.4500
v 1.0500 0.3000 -0.4500
v 1.0500 0.3000 -0.4500
v 1.0500 0.3000 -0.4500
v -0.6211 0.5800 -0.6032
v -0.5395 0.5800 -0.6412
v -0.3789 0.5800 -0.2968
v -0.4605 0.5800 -0.2588
v -0.6211 0.6200 -0.6032
v -0.5395 0.6200 -0.6412
v -0.3789 0.6200 -0.2968
v -0.4605 0.6200 -0.2588
v -0.5000 0.5800 -0.4500
v -0.5000 0.6200 -0.4500
v -0.2211 0.5800 -0.6032
v -0.1395 0.5800 -0.6412
v 0.0211 0.5800 -0.2968
v -0.0605 0.5800 -0.2588
v -0.2211 0.6200 -0.6032
v -0.1395 0.6200 -0.6412
v 0.0211 0.6200 -0.2968
v -0.0605 0.6200 -0.2588
v -0.1000 0.5800 -0.4500
v -0.1000 0.6200 -0.4500
v 0.1789 0.5800 -0.6032
v 0.2605 0.5800 -0.6412
v 0.4211 0.5800 -0.2968
v 0.3395 0.5800 -0.2588
v 0.1789 0.6200 -0.6032
v 0.2605 0.6200 -0.6412
v 0.4211 0.6200 -0.2968
v 0.3395 0.6200 -0.2588
v 0.3000 0.5800 -0.4500
v 0.3000 0.6200 -0.4500
v -1.0398 0.3000 0.5961
v -1.0398 0.3000 0.5961
v -1.0398 0.3000 0.5961
v -1.0398 0.3000 0.5961
v -1.0398 0.3000 0.5961
v -1.0398 0.3000 0.5961
v -1.0398 0.3000 0.5961
v -1.0398 0.3000 0.5961
v -0.7798 0.5249 0.5596
v -0.7577 0.4590 0.7171
v -0.7485 0.3000 0.7823
v -0.7577 0.1410 0.7171
v -0.7798 0.0751 0.5596
v -0.8020 0.1410 0.4021
v -0.8111 0.3000 0.3369
v -0.8020 0.4590 0.4021
v -0.5199 0.5704 0.5231
v -0.4933 0.4912 0.7124
v -0.4823 0.3000 0.7908
v -0.4933 0.1088 0.7124
v -0.5199 0.0296 0.5231
v -0.5465 0.1088 0.3337
v -0.5575 0.3000 0.2553
v -0.5465 0.4912 0.3337
v -0.2599 0.5930 0.4865
v -0.2311 0.5072 0.6917
v -0.2192 0.3000 0.7766
v -0.2311 0.0928 0.6917
v -0.2599 0.0070 0.4865
v -0.2888 0.0928 0.2814
v -0.3007 0.3000 0.1964
v -0.2888 0.5072 0.2814
v 0.0000 0.6000 0.4500
v 0.0295 0.5121 0.6601
v 0.0418 0.3000 0.7471
v 0.0295 0.0879 0.6601
v 0.0000 0.0000 0.4500
v -0.0295 0.0879 0.2399
v -0.0418 0.3000 0.1529
v -0.0295 0.5121 0.2399
v 0.2599 0.5930 0.4135
v 0.2888 0.5072 0.6186
v 0.3007 0.3000 0.7036
v 0.2888 0.0928 0.6186
v 0.2599 0.0070 0.4135
v 0.2311 0.0928 0.2083
v 0.2192 0.3000 0.1234
v 0.2311 0.5072 0.2083
v 0.5199 0.5704 0.3769
v 0.5465 0.4912 0.5663
v 0.5575 0.3000 0.6447
v 0.5465 0.1088 0.5663
v 0.5199 0.0296 0.3769
v 0.4933 0.1088 0.1876
v 0.4823 0.3000 0.1092
v 0.4933 0.4912 0.1876
v 0.7798 0.5249 0.3404
v 0.8020 0.4590 0.4979
v 0.8111 0.3000 0.5631
v 0.8020 0.1410 0.4979
v 0.7798 0.0751 0.3404
v 0.7577 0.1410 0.1829
v 0.7485 0.3000 0.1177
v 0.7577 0.4590 0.1829
v 1.0398 0.3000 0.3039
v 1.0398 0.3000 0.3039
v 1.0398 0.3000 0.3039
v 1.0398 0.3000 0.3039
v 1.0398 0.3000 0.3039
v 1.0398 0.3000 0.3039
v 1.0398 0.3000 0.3039
v 1.0398 0.3000 0.3039
v -0.6364 0.5800 0.3847
v -0.5609 0.5800 0.3357
v -0.3539 0.5800 0.6544
v -0.4294 0.5800 0.7034
v -0.6364 0.6200 0.3847
v -0.5609 0.6200 0.3357
v -0.3539 0.6200 0.6544
v -0.4294 0.6200 0.7034
v -0.4951 0.5800 0.5196
v -0.4951 0.6200 0.5196
v -0.2402 0.5800 0.3291
v -0.1648 0.5800 0.2801
v 0.0422 0.5800 0.5988
v -0.0333 0.5800 0.6478
v -0.2402 0.6200 0.3291
v -0.1648 0.6200 0.2801
v 0.0422 0.6200 0.5988
v -0.0333 0.6200 0.6478
v -0.0990 0.5800 0.4639
v -0.0990 0.6200 0.4639
v 0.1559 0.5800 0.2734
v 0.2313 0.5800 0.2244
v 0.4383 0.5800 0.5431
v 0.3628 0.5800 0.5921
v 0.1559 0.6200 0.2734
v 0.2313 0.6200 0.2244
v 0.4383 0.6200 0.5431
v 0.3628 0.6200 0.5921
v 0.2971 0.5800 0.4082
v 0.2971 0.6200 0.4082
vn -0.6206 0.7244 0.3001
vn -0.6206 0.3001 0.7244
vn -0.6206 -0.3001 0.7244
vn -0.6206 -0.7244 0.3001
vn -0.6206 -0.7244 -0.3001
vn -0.6206 -0.3001 -0.7244
vn -0.6206 0.3001 -0.7244
vn -0.6206 0.7244 -0.3001
vn -0.1581 0.9123 0.3779
vn -0.1581 0.9123 0.3779
vn -0.1581 0.3779 0.9123
vn -0.1581 0.3779 0.9123
vn -0.1581 -0.3779 0.9123
vn -0.1581 -0.3779 0.9123
vn -0.1581 -0.9123 0.3779
vn -0.1581 -0.9123 0.3779
vn -0.1581 -0.9123 -0.3779
vn -0.1581 -0.9123 -0.3779
vn -0.1581 -0.3779 -0.9123
vn -0.1581 -0.3779 -0.9123
vn -0.1581 0.3779 -0.9123
vn -0.1581 0.3779 -0.9123
vn -0.1581 0.9123 -0.3779
vn -0.1581 0.9123 -0.3779
vn -0.0792 0.9210 0.3815
vn -0.0792 0.9210 0.3815
vn -0.0792 0.3815 0.9210
vn -0.0792 0.3815 0.9210
vn -0.0792 -0.3815 0.9210
vn -0.0792 -0.3815 0.9210
vn -0.0792 -0.9210 0.3815
vn -0.0792 -0.9210 0.3815
vn -0.0792 -0.9210 -0.3815
vn -0.0792 -0.9210 -0.3815
vn -0.0792 -0.3815 -0.9210
vn -0.0792 -0.3815 -0.9210
vn -0.0792 0.3815 -0.9210
vn -0.0792 0.3815 -0.9210
vn -0.0792 0.9210 -0.3815
vn -0.0792 0.9210 -0.3815
vn -0.0248 0.9236 0.3826
vn -0.0248 0.9236 0.3826
vn -0.0248 0.3826 0.9236
vn -0.0248 0.3826 0.9236
vn -0.0248 -0.3826 0.9236
vn -0.0248 -0.3826 0.9236
vn -0.0248 -0.9236 0.3826
vn -0.0248 -0.9236 0.3826
vn -0.0248 -0.9236 -0.3826
vn -0.0248 -0.9236 -0.3826
vn -0.0248 -0.3826 -0.9236
vn -0.0248 -0.3826 -0.9236
vn -0.0248 0.3826 -0.9236
vn -0.0248 0.3826 -0.9236
vn -0.0248 0.9236 -0.3826
vn -0.0248 0.9236 -0.3826
vn 0.0248 0.9236 0.3826
vn 0.0248 0.9236 0.3826
vn 0.0248 0.3826 0.9236
vn 0.0248 0.3826 0.9236
vn 0.0248 -0.3826 0.9236
vn 0.0248 -0.3826 0.9236
vn 0.0248 -0.9236 0.3826
vn 0.0248 -0.9236 0.3826
vn 0.0248 -0.9236 -0.3826
vn 0.0248 -0.9236 -0.3826
vn 0.0248 -0.3826 -0.9236
vn 0.0248 -0.3826 -0.9236
vn 0.0248 0.3826 -0.9236
vn 0.0248 0.3826 -0.9236
vn 0.0248 0.9236 -0.3826
vn 0.0248 0.9236 -0.3826
vn 0.0792 0.9210 0.3815
vn 0.0792 0.9210 0.3815
vn 0.0792 0.3815 0.9210
vn 0.0792 0.3815 0.9210
vn 0.0792 -0.3815 0.9210
vn 0.0792 -0.3815 0.9210
vn 0.0792 -0.9210 0.3815
vn 0.0792 -0.9210 0.3815
vn 0.0792 -0.9210 -0.3815
vn 0.0792 -0.9210 -0.3815
vn 0.0792 -0.3815 -0.9210
vn 0.0792 -0.3815 -0.9210
vn 0.0792 0.3815 -0.9210
vn 0.0792 0.3815 -0.9210
vn 0.0792 0.9210 -0.3815
vn 0.0792 0.9210 -0.3815
vn 0.1581 0.9123 0.3779
vn 0.1581 0.9123 0.3779
vn 0.1581 0.3779 0.9123
vn 0.1581 0.3779 0.9123
vn 0.1581 -0.3779 0.9123
vn 0.1581 -0.3779 0.9123
vn 0.1581 -0.9123 0.3779
vn 0.1581 -0.9123 0.3779
vn 0.1581 -0.9123 -0.3779
vn 0.1581 -0.9123 -0.3779
vn 0.1581 -0.3779 -0.9123
vn 0.1581 -0.3779 -0.9123
vn 0.1581 0.3779 -0.9123
vn 0.1581 0.3779 -0.9123
vn 0.1581 0.9123 -0.3779
vn 0.1581 0.9123 -0.3779
vn 0.6206 0.7244 0.3001
vn 0.6206 0.7244 0.3001
vn 0.6206 0.3001 0.7244
vn 0.6206 0.3001 0.7244
vn 0.6206 -0.3001 0.7244
vn 0.6206 -0.3001 0.7244
vn 0.6206 -0.7244 0.3001
vn 0.6206 -0.7244 0.3001
vn 0.6206 -0.7244 -0.3001
vn 0.6206 -0.7244 -0.3001
vn 0.6206 -0.3001 -0.7244
vn 0.6206 -0.3001 -0.7244
vn 0.6206 0.3001 -0.7244
vn 0.6206 0.3001 -0.7244
vn 0.6206 0.7244 -0.3001
vn 0.6206 0.7244 -0.3001
vn 0.4226 0.0000 0.9063
vn 0.4226 -0.0000 0.9063
vn 0.0000 1.0000 0.0000
vn 0.0000 -1.0000 0.0000
vn -0.9063 0.0000 0.4226
vn -0.9063 0.0000 0.4226
vn -0.0000 1.0000 0.0000
vn 0.0000 -1.0000 -0.0000
vn -0.4226 0.0000 -0.9063
vn -0.4226 0.0000 -0.9063
vn 0.0000 1.0000 0.0000
vn 0.0000 -1.0000 0.0000
vn 0.9063 0.0000 -0.4226
vn 0.9063 0.0000 -0.4226
vn 0.0000 1.0000 -0.0000
vn -0.0000 -1.0000 0.0000
vn 0.4226 0.0000 0.9063
vn 0.4226 -0.0000 0.9063
vn 0.0000 1.0000 0.0000
vn 0.0000 -1.0000 0.0000
vn -0.9063 0.0000 0.4226
vn -0.9063 0.0000 0.4226
vn -0.0000 1.0000 0.0000
vn 0.0000 -1.0000 -0.0000
vn -0.4226 0.0000 -0.9063
vn -0.4226 0.0000 -0.9063
vn 0.0000 1.0000 0.0000
vn 0.0000 -1.0000 0.0000
vn 0.9063 0.0000 -0.4226
vn 0.9063 0.0000 -0.4226
vn 0.0000 1.0000 -0.0000
vn -0.0000 -1.0000 0.0000
vn 0.4226 0.0000 0.9063
vn 0.4226 -0.0000 0.9063
vn 0.0000 1.0000 0.0000
vn 0.0000 -1.0000 0.0000
vn -0.9063 0.0000 0.4226
vn -0.9063 0.0000 0.4226
vn -0.0000 1.0000 0.0000
vn 0.0000 -1.0000 -0.0000
vn -0.4226 0.0000 -0.9063
vn -0.4226 0.0000 -0.9063
vn 0.0000 1.0000 0.0000
vn 0.0000 -1.0000 0.0000
vn 0.9063 0.0000 -0.4226
vn 0.9063 0.0000 -0.4226
vn 0.0000 1.0000 -0.0000
vn -0.0000 -1.0000 0.0000
vn -0.5728 0.7244 0.3835
vn -0.5138 0.3001 0.8037
vn -0.5138 -0.3001 0.8037
vn -0.5728 -0.7244 0.3835
vn -0.6564 -0.7244 -0.2108
vn -0.7154 -0.3001 -0.6310
vn -0.7154 0.3001 -0.6310
vn -0.6564 0.7244 -0.2108
vn -0.1039 0.9123 0.3962
vn -0.1039 0.9123 0.3962
vn -0.0296 0.3779 0.9254
vn -0.0296 0.3779 0.9254
vn -0.0296 -0.3779 0.9254
vn -0.0296 -0.3779 0.9254
vn -0.1039 -0.9123 0.3962
vn -0.1039 -0.9123 0.3962
vn -0.2091 -0.9123 -0.3522
vn -0.2091 -0.9123 -0.3522
vn -0.2835 -0.3779 -0.8814
vn -0.2835 -0.3779 -0.8814
vn -0.2835 0.3779 -0.8814
vn -0.2835 0.3779 -0.8814
vn -0.2091 0.9123 -0.3522
vn -0.2091 0.9123 -0.3522
vn -0.0254 0.9210 0.3888
vn -0.0254 0.9210 0.3888
vn 0.0497 0.3815 0.9230
vn 0.0497 0.3815 0.9230
vn 0.0497 -0.3815 0.9230
vn 0.0497 -0.3815 0.9230
vn -0.0254 -0.9210 0.3888
vn -0.0254 -0.9210 0.3888
vn -0.1316 -0.9210 -0.3667
vn -0.1316 -0.9210 -0.3667
vn -0.2066 -0.3815 -0.9010
vn -0.2066 -0.3815 -0.9010
vn -0.2066 0.3815 -0.9010
vn -0.2066 0.3815 -0.9010
vn -0.1316 0.9210 -0.3667
vn -0.1316 0.9210 -0.3667
vn 0.0287 0.9236 0.3823
vn 0.0287 0.9236 0.3823
vn 0.1040 0.3826 0.9181
vn 0.1040 0.3826 0.9181
vn 0.1040 -0.3826 0.9181
vn 0.1040 -0.3826 0.9181
vn 0.0287 -0.9236 0.3823
vn 0.0287 -0.9236 0.3823
vn -0.0778 -0.9236 -0.3754
vn -0.0778 -0.9236 -0.3754
vn -0.1531 -0.3826 -0.9112
vn -0.1531 -0.3826 -0.9112
vn -0.1531 0.3826 -0.9112
vn -0.1531 0.3826 -0.9112
vn -0.0778 0.9236 -0.3754
vn -0.0778 0.9236 -0.3754
vn 0.0778 0.9236 0.3754
vn 0.0778 0.9236 0.3754
vn 0.1531 0.3826 0.9112
vn 0.1531 0.3826 0.9112
vn 0.1531 -0.3826 0.9112
vn 0.1531 -0.3826 0.9112
vn 0.0778 -0.9236 0.3754
vn 0.0778 -0.9236 0.3754
vn -0.0287 -0.9236 -0.3823
vn -0.0287 -0.9236 -0.3823
vn -0.1040 -0.3826 -0.9181
vn -0.1040 -0.3826 -0.9181
vn -0.1040 0.3826 -0.9181
vn -0.1040 0.3826 -0.9181
vn -0.0287 0.9236 -0.3823
vn -0.0287 0.9236 -0.3823
vn 0.1316 0.9210 0.3667
vn 0.1316 0.9210 0.3667
vn 0.2066 0.3815 0.9010
vn 0.2066 0.3815 0.9010
vn 0.2066 -0.3815 0.9010
vn 0.2066 -0.3815 0.9010
vn 0.1316 -0.9210 0.3667
vn 0.1316 -0.9210 0.3667
vn 0.0254 -0.9210 -0.3888
vn 0.0254 -0.9210 -0.3888
vn -0.0497 -0.3815 -0.9230
vn -0.0497 -0.3815 -0.9230
vn -0.0497 0.3815 -0.9230
vn -0.0497 0.3815 -0.9230
vn 0.0254 0.9210 -0.3888
vn 0.0254 0.9210 -0.3888
vn 0.2091 0.9123 0.3522
vn 0.2091 0.9123 0.3522
vn 0.2835 0.3779 0.8814
vn 0.2835 0.3779 0.8814
vn 0.2835 -0.3779 0.8814
vn 0.2835 -0.3779 0.8814
vn 0.2091 -0.9123 0.3522
vn 0.2091 -0.9123 0.3522
vn 0.1039 -0.9123 -0.3962
vn 0.1039 -0.9123 -0.3962
vn 0.0296 -0.3779 -0.9254
vn 0.0296 -0.3779 -0.9254
vn 0.0296 0.3779 -0.9254
vn 0.0296 0.3779 -0.9254
vn 0.1039 0.9123 -0.3962
vn 0.1039 0.9123 -0.3962
vn 0.6563 0.7244 0.2108
vn 0.6563 0.7244 0.2108
vn 0.7154 0.3001 0.6310
vn 0.7154 0.3001 0.6310
vn 0.7154 -0.3001 0.6310
vn 0.7154 -0.3001 0.6310
vn 0.6563 -0.7244 0.2108
vn 0.6563 -0.7244 0.2108
vn 0.5728 -0.7244 -0.3835
vn 0.5728 -0.7244 -0.3835
vn 0.5138 -0.3001 -0.8037
vn 0.5138 -0.3001 -0.8037
vn 0.5138 0.3001 -0.8037
vn 0.5138 0.3001 -0.8037
vn 0.5728 0.7244 -0.3835
vn 0.5728 0.7244 -0.3835
vn 0.5446 0.0000 0.8387
vn 0.5446 -0.0000 0.8387
vn 0.0000 1.0000 0.0000
vn 0.0000 -1.0000 0.0000
vn -0.8387 0.0000 0.5446
vn -0.8387 0.0000 0.5446
vn -0.0000 1.0000 0.0000
vn 0.0000 -1.0000 -0.0000
vn -0.5446 0.0000 -0.8387
vn -0.5446 0.0000 -0.8387
vn 0.0000 1.0000 0.0000
vn 0.0000 -1.0000 0.0000
vn 0.8387 0.0000 -0.5446
vn 0.8387 0.0000 -0.5446
vn 0.0000 1.0000 -0.0000
vn -0.0000 -1.0000 0.0000
vn 0.5446 0.0000 0.8387
vn 0.5446 -0.0000 0.8387
vn 0.0000 1.0000 0.0000
vn 0.0000 -1.0000 0.0000
vn -0.8387 0.0000 0.5446
vn -0.8387 0.0000 0.5446
vn -0.0000 1.0000 0.0000
vn 0.0000 -1.0000 -0.0000
vn -0.5446 0.0000 -0.8387
vn -0.5446 0.0000 -0.8387
vn 0.0000 1.0000 0.0000
vn 0.0000 -1.0000 0.0000
vn 0.8387 0.0000 -0.5446
vn 0.8387 0.0000 -0.5446
vn 0.0000 1.0000 -0.0000
vn -0.0000 -1.0000 0.0000
vn 0.5446 0.0000 0.8387
vn 0.5446 -0.0000 0.8387
vn 0.0000 1.0000 0.0000
vn 0.0000 -1.0000 0.0000
vn -0.8387 0.0000 0.5446
vn -0.8387 0.0000 0.5446
vn -0.0000 1.0000 0.0000
vn 0.0000 -1.0000 -0.0000
vn -0.5446 0.0000 -0.8387
vn -0.5446 0.0000 -0.8387
vn 0.0000 1.0000 0.0000
vn 0.0000 -1.0000 0.0000
vn 0.8387 0.0000 -0.5446
vn 0.8387 0.0000 -0.5446
vn 0.0000 1.0000 -0.0000
vn -0.0000 -1.0000 0.0000
usemtl c0
f 1//1 10//1 9//1
f 2//2 11//2 10//2
f 3//3 12//3 11//3
f 4//4 13//4 12//4
f 5//5 14//5 13//5
f 6//6 15//6 14//6
f 7//7 16//7 15//7
f 8//8 9//8 16//8
f 9//9 10//9 18//9
f 9//10 18//10 17//10
f 10//11 11//11 19//11
f 10//12 19//12 18//12
f 11//13 12//13 20//13
f 11//14 20//14 19//14
f 12//15 13//15 21//15
f 12//16 21//16 20//16
f 13//17 14//17 22//17
f 13//18 22//18 21//18
f 14//19 15//19 23//19
f 14//20 23//20 22//20
f 15//21 16//21 24//21
f 15//22 24//22 23//22
f 16//23 9//23 17//23
f 16//24 17//24 24//24
f 17//25 18//25 26//25
f 17//26 26//26 25//26
f 18//27 19//27 27//27
f 18//28 27//28 26//28
f 19//29 20//29 28//29
f 19//30 28//30 27//30
f 20//31 21//31 29//31
f 20//32 29//32 28//32
f 21//33 22//33 30//33
f 21//34 30//34 29//34
f 22//35 23//35 31//35
f 22//36 31//36 30//36
f 23//37 24//37 32//37
f 23//38 32//38 31//38
f 24//39 17//39 25//39
f 24//40 25//40 32//40
f 25//41 26//41 34//41
f 25//42 34//42 33//42
f 26//43 27//43 35//43
f 26//44 35//44 34//44
f 27//45 28//45 36//45
f 27//46 36//46 35//46
f 28//47 29//47 37//47
f 28//48 37//48 36//48
f 29//49 30//49 38//49
f 29//50 38//50 37//50
f 30//51 31//51 39//51
f 30//52 39//52 38//52
f 31//53 32//53 40//53
f 31//54 40//54 39//54
f 32//55 25//55 33//55
f 32//56 33//56 40//56
f 33//57 34//57 42//57
f 33//58 42//58 41//58
f 34//59 35//59 43//59
f 34//60 43//60 42//60
f 35//61 36//61 44//61
f 35//62 44//62 43//62
f 36//63 37//63 45//63
f 36//64 45//64 44//64
f 37//65 38//65 46//65
f 37//66 46//66 45//66
f 38//67 39//67 47//67
f 38//68 47//68 46//68
f 39//69 40//69 48//69
f 39//70 48//70 47//70
f 40//71 33//71 41//71
f 40//72 41//72 48//72
f 41//73 42//73 50//73
f 41//74 50//74 49//74
f 42//75 43//75 51//75
f 42//76 51//76 50//76
f 43//77 44//77 52//77
f 43//78 52//78 51//78
f 44//79 45//79 53//79
f 44//80 53//80 52//80
f 45//81 46//81 54//81
f 45//82 54//82 53//82
f 46//83 47//83 55//83
f 46//84 55//84 54//84
f 47//85 48//85 56//85
f 47//86 56//86 55//86
f 48//87 41//87 49//87
f 48//88 49//88 56//88
f 49//89 50//89 58//89
f 49//90 58//90 57//90
f 50//91 51//91 59//91
f 50//92 59//92 58//92
f 51//93 52//93 60//93
f 51//94 60//94 59//94
f 52//95 53//95 61//95
f 52//96 61//96 60//96
f 53//97 54//97 62//97
f 53//98 62//98 61//98
f 54//99 55//99 63//99
f 54//100 63//100 62//100
f 55//101 56//101 64//101
f 55//102 64//102 63//102
f 56//103 49//103 57//103
f 56//104 57//104 64//104
f 57//105 58//105 66//105
f 57//106 66//106 65//106
f 58//107 59//107 67//107
f 58//108 67//108 66//108
f 59//109 60//109 68//109
f 59//110 68//110 67//110
f 60//111 61//111 69//111
f 60//112 69//112 68//112
f 61//113 62//113 70//113
f 61//114 70//114 69//114
f 62//115 63//115 71//115
f 62//116 71//116 70//116
f 63//117 64//117 72//117
f 63//118 72//118 71//118
f 64//119 57//119 65//119
f 64//120 65//120 72//120
usemtl c1
f 73//121 74//121 78//121
f 73//122 78//122 77//122
f 81//123 74//123 73//123
f 82//124 77//124 78//124
f 74//125 75//125 79//125
f 74//126 79//126 78//126
f 81//127 75//127 74//127
f 82//128 78//128 79//128
f 75//129 76//129 80//129
f 75//130 80//130 79//130
f 81//131 76//131 75//131
f 82//132 79//132 80//132
f 76//133 73//133 77//133
f 76//134 77//134 80//134
f 81//135 73//135 76//135
f 82//136 80//136 77//136
f 83//137 84//137 88//137
f 83//138 88//138 87//138
f 91//139 84//139 83//139
f 92//140 87//140 88//140
f 84//141 85//141 89//141
f 84//142 89//142 88//142
f 91//143 85//143 84//143
f 92//144 88//144 89//144
f 85//145 86//145 90//145
f 85//146 90//146 89//146
f 91//147 86//147 85//147
f 92//148 89//148 90//148
f 86//149 83//149 87//149
f 86//150 87//150 90//150
f 91//151 83//151 86//151
f 92//152 90//152 87//152
f 93//153 94//153 98//153
f 93//154 98//154 97//154
f 101//155 94//155 93//155
f 102//156 97//156 98//156
f 94//157 95//157 99//157
f 94//158 99//158 98//158
f 101//159 95//159 94//159
f 102//160 98//160 99//160
f 95//161 96//161 100//161
f 95//162 100//162 99//162
f 101//163 96//163 95//163
f 102//164 99//164 100//164
f 96//165 93//165 97//165
f 96//166 97//166 100//166
f 101//167 93//167 96//167
f 102//168 100//168 97//168
usemtl c0
f 103//169 112//169 111//169
f 104//170 113//170 112//170
f 105//171 114//171 113//171
f 106//172 115//172 114//172
f 107//173 116//173 115//173
f 108//174 117//174 116//174
f 109//175 118//175 117//175
f 110//176 111//176 118//176
f 111//177 112//177 120//177
f 111//178 120//178 119//178
f 112//179 113//179 121//179
f 112//180 121//180 120//180
f 113//181 114//181 122//181
f 113//182 122//182 121//182
f 114//183 115//183 123//183
f 114//184 123//184 122//184
f 115//185 116//185 124//185
f 115//186 124//186 123//186
f 116//187 117//187 125//187
f 116//188 125//188 124//188
f 117//189 118//189 126//189
f 117//190 126//190 125//190
f 118//191 111//191 119//191
f 118//192 119//192 126//192
f 119//193 120//193 128//193
f 119//194 128//194 127//194
f 120//195 121//195 129//195
f 120//196 129//196 128//196
f 121//197 122//197 130//197
f 121//198 130//198 129//198
f 122//199 123//199 131//199
f 122//200 131//200 130//200
f 123//201 124//201 132//201
f 123//202 132//202 131//202
f 124//203 125//203 133//203
f 124//204 133//204 132//204
f 125//205 126//205 134//205
f 125//206 134//206 133//206
f 126//207 119//207 127//207
f 126//208 127//208 134//208
f 127//209 128//209 136//209
f 127//210 136//210 135//210
f 128//211 129//211 137//211
f 128//212 137//212 136//212
f 129//213 130//213 138//213
f 129//214 138//214 137//214
f 130//215 131//215 139//215
f 130//216 139//216 138//216
f 131//217 132//217 140//217
f 131//218 140//218 139//218
f 132//219 133//219 141//219
f 132//220 141//220 140//220
f 133//221 134//221 142//221
f 133//222 142//222 141//222
f 134//223 127//223 135//223
f 134//224 135//224 142//224
f 135//225 136//225 144//225
f 135//226 144//226 143//226
f 136//227 137//227 145//227
f 136//228 145//228 144//228
f 137//229 138//229 146//229
f 137//230 146//230 145//230
f 138//231 139//231 147//231
f 138//232 147//232 146//232
f 139//233 140//233 148//233
f 139//234 148//234 147//234
f 140//235 141//235 149//235
f 140//236 149//236 148//236
f 141//237 142//237 150//237
f 141//238 150//238 149//238
f 142//239 135//239 143//239
f 142//240 143//240 150//240
f 143//241 144//241 152//241
f 143//242 152//242 151//242
f 144//243 145//243 153//243
f 144//244 153//244 152//244
f 145//245 146//245 154//245
f 145//246 154//246 153//246
f 146//247 147//247 155//247
f 146//248 155//248 154//248
f 147//249 148//249 156//249
f 147//250 156//250 155//250
f 148//251 149//251 157//251
f 148//252 157//252 156//252
f 149//253 150//253 158//253
f 149//254 158//254 157//254
f 150//255 143//255 151//255
f 150//256 151//256 158//256
f 151//257 152//257 160//257
f 151//258 160//258 159//258
f 152//259 153//259 161//259
f 152//260 161//260 160//260
f 153//261 154//261 162//261
f 153//262 162//262 161//262
f 154//263 155//263 163//263
f 154//264 163//264 162//264
f 155//265 156//265 164//265
f 155//266 164//266 163//266
f 156//267 157//267 165//267
f 156//268 165//268 164//268
f 157//269 158//269 166//269
f 157//270 166//270 165//270
f 158//271 151//271 159//271
f 158//272 159//272 166//272
f 159//273 160//273 168//273
f 159//274 168//274 167//274
f 160//275 161//275 169//275
f 160//276 169//276 168//276
f 161//277 162//277 170//277
f 161//278 170//278 169//278
f 162//279 163//279 171//279
f 162//280 171//280 170//280
f 163//281 164//281 172//281
f 163//282 172//282 171//282
f 164//283 165//283 173//283
f 164//284 173//284 172//284
f 165//285 166//285 174//285
f 165//286 174//286 173//286
f 166//287 159//287 167//287
f 166//288 167//288 174//288
usemtl c1
f 175//289 176//289 180//289
f 175//290 180//290 179//290
f 183//291 176//291 175//291
f 184//292 179//292 180//292
f 176//293 177//293 181//293
f 176//294 181//294 180//294
f 183//295 177//295 176//295
f 184//296 180//296 181//296
f 177//297 178//297 182//297
f 177//298 182//298 181//298
f 183//299 178//299 177//299
f 184//300 181//300 182//300
f 178//301 175//301 179//301
f 178//302 179//302 182//302
f 183//303 175//303 178//303
f 184//304 182//304 179//304
f 185//305 186//305 190//305
f 185//306 190//306 189//306
f 193//307 186//307 185//307
f 194//308 189//308 190//308
f 186//309 187//309 191//309
f 186//310 191//310 190//310
f 193//311 187//311 186//311
f 194//312 190//312 191//312
f 187//313 188//313 192//313
f 187//314 192//314 191//314
f 193//315 188//315 187//315
f 194//316 191//316 192//316
f 188//317 185//317 189//317
f 188//318 189//318 192//318
f 193//319 185//319 188//319
f 194//320 192//320 189//320
f 195//321 196//321 200//321
f 195//322 200//322 199//322
f 203//323 196//323 195//323
f 204//324 199//324 200//324
f 196//325 197//325 201//325
f 196//326 201//326 200//326
f 203//327 197//327 196//327
f 204//328 200//328 201//328
f 197//329 198//329 202//329
f 197//330 202//330 201//330
f 203//331 198//331 197//331
f 204//332 201//332 202//332
f 198//333 195//333 199//333
f 198//334 199//334 202//334
f 203//335 195//335 198//335
f 204//336 202//336 199//336
