mtllib Food_Pizza.mtl
v -0.9500 0.0000 -0.9000
v 0.9500 0.0000 -0.9000
v 0.0000 0.0000 1.0500
v -0.9500 0.1600 -0.9000
v 0.9500 0.1600 -0.9000
v 0.0000 0.1600 1.0500
v 0.0000 0.0000 -0.2500
v 0.0000 0.1600 -0.2500
v -1.0000 0.1500 -0.9200
v -1.0000 0.1500 -0.9200
v -1.0000 0.1500 -0.9200
v -1.0000 0.1500 -0.9200
v -1.0000 0.1500 -0.9200
v -1.0000 0.1500 -0.9200
v -1.0000 0.1500 -0.9200
v -1.0000 0.1500 -0.9200
v -0.6667 0.2800 -0.9200
v -0.6667 0.2419 -0.8051
v -0.6667 0.1500 -0.7575
v -0.6667 0.0581 -0.8051
v -0.6667 0.0200 -0.9200
v -0.6667 0.0581 -1.0349
v -0.6667 0.1500 -1.0825
v -0.6667 0.2419 -1.0349
v -0.3333 0.3032 -0.9200
v -0.3333 0.2584 -0.7846
v -0.3333 0.1500 -0.7284
v -0.3333 0.0416 -0.7846
v -0.3333 -0.0032 -0.9200
v -0.3333 0.0416 -1.0554
v -0.3333 0.1500 -1.1116
v -0.3333 0.2584 -1.0554
v 0.0000 0.3100 -0.9200
v 0.0000 0.2631 -0.7786
v 0.0000 0.1500 -0.7200
v 0.0000 0.0369 -0.7786
v 0.0000 -0.0100 -0.9200
v 0.0000 0.0369 -1.0614
v 0.0000 0.1500 -1.1200
v 0.0000 0.2631 -1.0614
v 0.3333 0.3032 -0.9200
v 0.3333 0.2584 -0.7846
v 0.3333 0.1500 -0.7284
v 0.3333 0.0416 -0.7846
v 0.3333 -0.0032 -0.9200
v 0.3333 0.0416 -1.0554
v 0.3333 0.1500 -1.1116
v 0.3333 0.2584 -1.0554
v 0.6667 0.2800 -0.9200
v 0.6667 0.2419 -0.8051
v 0.6667 0.1500 -0.7575
v 0.6667 0.0581 -0.8051
v 0.6667 0.0200 -0.9200
v 0.6667 0.0581 -1.0349
v 0.6667 0.1500 -1.0825
v 0.6667 0.2419 -1.0349
v 1.0000 0.1500 -0.9200
v 1.0000 0.1500 -0.9200
v 1.0000 0.1500 -0.9200
v 1.0000 0.1500 -0.9200
v 1.0000 0.1500 -0.9200
v 1.0000 0.1500 -0.9200
v 1.0000 0.1500 -0.9200
v 1.0000 0.1500 -0.9200
v -0.1400 0.1600 -0.4000
v -0.2015 0.1600 -0.2515
v -0.3500 0.1600 -0.1900
v -0.4985 0.1600 -0.2515
v -0.5600 0.1600 -0.4000
v -0.4985 0.1600 -0.5485
v -0.3500 0.1600 -0.6100
v -0.2015 0.1600 -0.5485
v -0.1400 0.2100 -0.4000
v -0.2015 0.2100 -0.2515
v -0.3500 0.2100 -0.1900
v -0.4985 0.2100 -0.2515
v -0.5600 0.2100 -0.4000
v -0.4985 0.2100 -0.5485
v -0.3500 0.2100 -0.6100
v -0.2015 0.2100 -0.5485
v -0.3500 0.1600 -0.4000
v -0.3500 0.2100 -0.4000
v 0.5600 0.1600 -0.3500
v 0.4985 0.1600 -0.2015
v 0.3500 0.1600 -0.1400
v 0.2015 0.1600 -0.2015
v 0.1400 0.1600 -0.3500
v 0.2015 0.1600 -0.4985
v 0.3500 0.1600 -0.5600
v 0.4985 0.1600 -0.4985
v 0.5600 0.2100 -0.3500
v 0.4985 0.2100 -0.2015
v 0.3500 0.2100 -0.1400
v 0.2015 0.2100 -0.2015
v 0.1400 0.2100 -0.3500
v 0.2015 0.2100 -0.4985
v 0.3500 0.2100 -0.5600
v 0.4985 0.2100 -0.4985
v 0.3500 0.1600 -0.3500
v 0.3500 0.2100 -0.3500
v 0.2100 0.1600 0.2000
v 0.1485 0.1600 0.3485
v 0.0000 0.1600 0.4100
v -0.1485 0.1600 0.3485
v -0.2100 0.1600 0.2000
v -0.1485 0.1600 0.0515
v -0.0000 0.1600 -0.0100
v 0.1485 0.1600 0.0515
v 0.2100 0.2100 0.2000
v 0.1485 0.2100 0.3485
v 0.0000 0.2100 0.4100
v -0.1485 0.2100 0.3485
v -0.2100 0.2100 0.2000
v -0.1485 0.2100 0.0515
v -0.0000 0.2100 -0.0100
v 0.1485 0.2100 0.0515
v 0.0000 0.1600 0.2000
v 0.0000 0.2100 0.2000
v 0.0255 0.1550 -0.6090
v 0.1295 0.1550 -0.6690
v 0.1745 0.1550 -0.5910
v 0.0705 0.1550 -0.5310
v 0.0255 0.2050 -0.6090
v 0.1295 0.2050 -0.6690
v 0.1745 0.2050 -0.5910
v 0.0705 0.2050 -0.5310
v 0.1000 0.1550 -0.6000
v 0.1000 0.2050 -0.6000
v -0.4255 0.1550 -0.4910
v -0.5295 0.1550 -0.4310
v -0.5745 0.1550 -0.5090
v -0.4705 0.1550 -0.5690
v -0.4255 0.2050 -0.4910
v -0.5295 0.2050 -0.4310
v -0.5745 0.2050 -0.5090
v -0.4705 0.2050 -0.5690
v -0.5000 0.1550 -0.5000
v -0.5000 0.2050 -0.5000
v -0.1606 0.1550 0.5258
v -0.0758 0.1550 0.6106
v -0.1394 0.1550 0.6742
v -0.2242 0.1550 0.5894
v -0.1606 0.2050 0.5258
v -0.0758 0.2050 0.6106
v -0.1394 0.2050 0.6742
v -0.2242 0.2050 0.5894
v -0.1500 0.1550 0.6000
v -0.1500 0.2050 0.6000
v 0.1910 0.1550 0.1463
v 0.2221 0.1550 0.0304
v 0.3090 0.1550 0.0537
v 0.2779 0.1550 0.1696
v 0.1910 0.2050 0.1463
v 0.2221 0.2050 0.0304
v 0.3090 0.2050 0.0537
v 0.2779 0.2050 0.1696
v 0.2500 0.1550 0.1000
v 0.2500 0.2050 0.1000
v 0.6200 0.1600 -0.5500
v 0.5850 0.1600 -0.4894
v 0.5150 0.1600 -0.4894
v 0.4800 0.1600 -0.5500
v 0.5150 0.1600 -0.6106
v 0.5850 0.1600 -0.6106
v 0.6200 0.2100 -0.5500
v 0.5850 0.2100 -0.4894
v 0.5150 0.2100 -0.4894
v 0.4800 0.2100 -0.5500
v 0.5150 0.2100 -0.6106
v 0.5850 0.2100 -0.6106
v 0.5500 0.1600 -0.5500
v 0.5500 0.2100 -0.5500
v -0.0300 0.1600 -0.0500
v -0.0650 0.1600 0.0106
v -0.1350 0.1600 0.0106
v -0.1700 0.1600 -0.0500
v -0.1350 0.1600 -0.1106
v -0.0650 0.1600 -0.1106
v -0.0300 0.2100 -0.0500
v -0.0650 0.2100 0.0106
v -0.1350 0.2100 0.0106
v -0.1700 0.2100 -0.0500
v -0.1350 0.2100 -0.1106
v -0.0650 0.2100 -0.1106
v -0.1000 0.1600 -0.0500
v -0.1000 0.2100 -0.0500
v 0.2200 0.1600 0.5000
v 0.1850 0.1600 0.5606
v 0.1150 0.1600 0.5606
v 0.0800 0.1600 0.5000
v 0.1150 0.1600 0.4394
v 0.1850 0.1600 0.4394
v 0.2200 0.2100 0.5000
v 0.1850 0.2100 0.5606
v 0.1150 0.2100 0.5606
v 0.0800 0.2100 0.5000
v 0.1150 0.2100 0.4394
v 0.1850 0.2100 0.4394
v 0.1500 0.1600 0.5000
v 0.1500 0.2100 0.5000
vn 0.0000 0.0000 1.0000
vn 0.0000 0.0000 1.0000
vn 0.0000 1.0000 0.0000
vn 0.0000 -1.0000 -0.0000
vn -0.8990 0.0000 -0.4380
vn -0.8990 0.0000 -0.4380
vn -0.0000 1.0000 0.0000
vn 0.0000 -1.0000 0.0000
vn 0.8990 0.0000 -0.4380
vn 0.8990 0.0000 -0.4380
vn 0.0000 1.0000 -0.0000
vn -0.0000 -1.0000 0.0000
vn -0.3471 0.8902 0.2950
vn -0.3972 0.4220 0.8150
vn -0.3972 -0.4220 0.8150
vn -0.3471 -0.8902 0.2950
vn -0.3471 -0.8902 -0.2950
vn -0.3972 -0.4220 -0.8150
vn -0.3972 0.4220 -0.8150
vn -0.3471 0.8902 -0.2950
vn -0.0662 0.9472 0.3139
vn -0.0662 0.9472 0.3139
vn -0.0773 0.4584 0.8854
vn -0.0773 0.4584 0.8854
vn -0.0773 -0.4584 0.8854
vn -0.0773 -0.4584 0.8854
vn -0.0662 -0.9472 0.3139
vn -0.0662 -0.9472 0.3139
vn -0.0662 -0.9472 -0.3139
vn -0.0662 -0.9472 -0.3139
vn -0.0773 -0.4584 -0.8854
vn -0.0773 -0.4584 -0.8854
vn -0.0773 0.4584 -0.8854
vn -0.0773 0.4584 -0.8854
vn -0.0662 0.9472 -0.3139
vn -0.0662 0.9472 -0.3139
vn -0.0192 0.9491 0.3145
vn -0.0192 0.9491 0.3145
vn -0.0225 0.4597 0.8878
vn -0.0225 0.4597 0.8878
vn -0.0225 -0.4597 0.8878
vn -0.0225 -0.4597 0.8878
vn -0.0192 -0.9491 0.3145
vn -0.0192 -0.9491 0.3145
vn -0.0192 -0.9491 -0.3145
vn -0.0192 -0.9491 -0.3145
vn -0.0225 -0.4597 -0.8878
vn -0.0225 -0.4597 -0.8878
vn -0.0225 0.4597 -0.8878
vn -0.0225 0.4597 -0.8878
vn -0.0192 0.9491 -0.3145
vn -0.0192 0.9491 -0.3145
vn 0.0192 0.9491 0.3145
vn 0.0192 0.9491 0.3145
vn 0.0225 0.4597 0.8878
vn 0.0225 0.4597 0.8878
vn 0.0225 -0.4597 0.8878
vn 0.0225 -0.4597 0.8878
vn 0.0192 -0.9491 0.3145
vn 0.0192 -0.9491 0.3145
vn 0.0192 -0.9491 -0.3145
vn 0.0192 -0.9491 -0.3145
vn 0.0225 -0.4597 -0.8878
vn 0.0225 -0.4597 -0.8878
vn 0.0225 0.4597 -0.8878
vn 0.0225 0.4597 -0.8878
vn 0.0192 0.9491 -0.3145
vn 0.0192 0.9491 -0.3145
vn 0.0662 0.9472 0.3139
vn 0.0662 0.9472 0.3139
vn 0.0773 0.4584 0.8854
vn 0.0773 0.4584 0.8854
vn 0.0773 -0.4584 0.8854
vn 0.0773 -0.4584 0.8854
vn 0.0662 -0.9472 0.3139
vn 0.0662 -0.9472 0.3139
vn 0.0662 -0.9472 -0.3139
vn 0.0662 -0.9472 -0.3139
vn 0.0773 -0.4584 -0.8854
vn 0.0773 -0.4584 -0.8854
vn 0.0773 0.4584 -0.8854
vn 0.0773 0.4584 -0.8854
vn 0.0662 0.9472 -0.3139
vn 0.0662 0.9472 -0.3139
vn 0.3471 0.8902 0.2950
vn 0.3471 0.8902 0.2950
vn 0.3972 0.4220 0.8150
vn 0.3972 0.4220 0.8150
vn 0.3972 -0.4220 0.8150
vn 0.3972 -0.4220 0.8150
vn 0.3471 -0.8902 0.2950
vn 0.3471 -0.8902 0.2950
vn 0.3471 -0.8902 -0.2950
vn 0.3471 -0.8902 -0.2950
vn 0.3972 -0.4220 -0.8150
vn 0.3972 -0.4220 -0.8150
vn 0.3972 0.4220 -0.8150
vn 0.3972 0.4220 -0.8150
vn 0.3471 0.8902 -0.2950
vn 0.3471 0.8902 -0.2950
vn -0.9239 0.0000 -0.3827
vn -0.9239 0.0000 -0.3827
vn -0.3827 0.0000 -0.9239
vn -0.3827 0.0000 -0.9239
vn 0.3827 0.0000 -0.9239
vn 0.3827 0.0000 -0.9239
vn 0.9239 0.0000 -0.3827
vn 0.9239 0.0000 -0.3827
vn 0.9239 0.0000 0.3827
vn 0.9239 -0.0000 0.3827
vn 0.3827 0.0000 0.9239
vn 0.3827 -0.0000 0.9239
vn -0.3827 0.0000 0.9239
vn -0.3827 0.0000 0.9239
vn -0.9239 0.0000 0.3827
vn -0.9239 0.0000 0.3827
vn 0.0000 -1.0000 0.0000
vn 0.0000 -1.0000 0.0000
vn 0.0000 -1.0000 0.0000
vn 0.0000 -1.0000 0.0000
vn -0.0000 -1.0000 0.0000
vn 0.0000 -1.0000 0.0000
vn 0.0000 -1.0000 -0.0000
vn 0.0000 -1.0000 0.0000
vn 0.0000 -1.0000 0.0000
vn 0.0000 -1.0000 0.0000
vn 0.0000 -1.0000 0.0000
vn 0.0000 -1.0000 0.0000
vn -0.0000 -1.0000 0.0000
vn 0.0000 -1.0000 0.0000
vn 0.0000 -1.0000 -0.0000
vn 0.0000 -1.0000 0.0000
vn -0.9239 0.0000 -0.3827
vn -0.9239 0.0000 -0.3827
vn -0.3827 0.0000 -0.9239
vn -0.3827 0.0000 -0.9239
vn 0.3827 0.0000 -0.9239
vn 0.3827 0.0000 -0.9239
vn 0.9239 0.0000 -0.3827
vn 0.9239 0.0000 -0.3827
vn 0.9239 0.0000 0.3827
vn 0.9239 -0.0000 0.3827
vn 0.3827 0.0000 0.9239
vn 0.3827 -0.0000 0.9239
vn -0.3827 0.0000 0.9239
vn -0.3827 0.0000 0.9239
vn -0.9239 0.0000 0.3827
vn -0.9239 0.0000 0.3827
vn 0.0000 -1.0000 0.0000
vn 0.0000 -1.0000 0.0000
vn 0.0000 -1.0000 0.0000
vn 0.0000 -1.0000 0.0000
vn -0.0000 -1.0000 0.0000
vn 0.0000 -1.0000 0.0000
vn 0.0000 -1.0000 -0.0000
vn 0.0000 -1.0000 0.0000
vn 0.0000 -1.0000 0.0000
vn 0.0000 -1.0000 0.0000
vn 0.0000 -1.0000 0.0000
vn 0.0000 -1.0000 0.0000
vn -0.0000 -1.0000 0.0000
vn 0.0000 -1.0000 0.0000
vn 0.0000 -1.0000 -0.0000
vn 0.0000 -1.0000 0.0000
vn -0.9239 0.0000 -0.3827
vn -0.9239 0.0000 -0.3827
vn -0.3827 0.0000 -0.9239
vn -0.3827 0.0000 -0.9239
vn 0.3827 0.0000 -0.9239
vn 0.3827 0.0000 -0.9239
vn 0.9239 0.0000 -0.3827
vn 0.9239 0.0000 -0.3827
vn 0.9239 0.0000 0.3827
vn 0.9239 -0.0000 0.3827
vn 0.3827 0.0000 0.9239
vn 0.3827 -0.0000 0.9239
vn -0.3827 0.0000 0.9239
vn -0.3827 0.0000 0.9239
vn -0.9239 0.0000 0.3827
vn -0.9239 0.0000 0.3827
vn 0.0000 -1.0000 0.0000
vn 0.0000 -1.0000 0.0000
vn 0.0000 -1.0000 0.0000
vn 0.0000 -1.0000 0.0000
vn -0.0000 -1.0000 0.0000
vn 0.0000 -1.0000 0.0000
vn 0.0000 -1.0000 -0.0000
vn 0.0000 -1.0000 0.0000
vn 0.0000 -1.0000 0.0000
vn 0.0000 -1.0000 0.0000
vn 0.0000 -1.0000 0.0000
vn 0.0000 -1.0000 0.0000
vn -0.0000 -1.0000 0.0000
vn 0.0000 -1.0000 0.0000
vn 0.0000 -1.0000 -0.0000
vn 0.0000 -1.0000 0.0000
vn 0.5000 0.0000 0.8660
vn 0.5000 -0.0000 0.8660
vn 0.0000 1.0000 0.0000
vn 0.0000 -1.0000 -0.0000
vn -0.8660 0.0000 0.5000
vn -0.8660 0.0000 0.5000
vn -0.0000 1.0000 0.0000
vn 0.0000 -1.0000 0.0000
vn -0.5000 0.0000 -0.8660
vn -0.5000 0.0000 -0.8660
vn 0.0000 1.0000 -0.0000
vn 0.0000 -1.0000 0.0000
vn 0.8660 0.0000 -0.5000
vn 0.8660 0.0000 -0.5000
vn 0.0000 1.0000 0.0000
vn -0.0000 -1.0000 0.0000
vn -0.5000 0.0000 -0.8660
vn -0.5000 0.0000 -0.8660
vn 0.0000 1.0000 -0.0000
vn 0.0000 -1.0000 0.0000
vn 0.8660 0.0000 -0.5000
vn 0.8660 0.0000 -0.5000
vn 0.0000 1.0000 0.0000
vn -0.0000 -1.0000 0.0000
vn 0.5000 0.0000 0.8660
vn 0.5000 -0.0000 0.8660
vn 0.0000 1.0000 0.0000
vn 0.0000 -1.0000 -0.0000
vn -0.8660 0.0000 0.5000
vn -0.8660 0.0000 0.5000
vn -0.0000 1.0000 0.0000
vn 0.0000 -1.0000 0.0000
vn -0.7071 0.0000 0.7071
vn -0.7071 0.0000 0.7071
vn -0.0000 1.0000 0.0000
vn 0.0000 -1.0000 -0.0000
vn -0.7071 0.0000 -0.7071
vn -0.7071 0.0000 -0.7071
vn 0.0000 1.0000 0.0000
vn 0.0000 -1.0000 0.0000
vn 0.7071 0.0000 -0.7071
vn 0.7071 0.0000 -0.7071
vn 0.0000 1.0000 -0.0000
vn -0.0000 -1.0000 0.0000
vn 0.7071 0.0000 0.7071
vn 0.7071 -0.0000 0.7071
vn 0.0000 1.0000 0.0000
vn 0.0000 -1.0000 0.0000
vn 0.9659 0.0000 0.2588
vn 0.9659 -0.0000 0.2588
vn 0.0000 1.0000 0.0000
vn -0.0000 -1.0000 0.0000
vn -0.2588 0.0000 0.9659
vn -0.2588 0.0000 0.9659
vn 0.0000 1.0000 0.0000
vn 0.0000 -1.0000 -0.0000
vn -0.9659 0.0000 -0.2588
vn -0.9659 0.0000 -0.2588
vn -0.0000 1.0000 0.0000
vn 0.0000 -1.0000 0.0000
vn 0.2588 0.0000 -0.9659
vn 0.2588 0.0000 -0.9659
vn 0.0000 1.0000 -0.0000
vn 0.0000 -1.0000 0.0000
vn -0.8660 0.0000 -0.5000
vn -0.8660 0.0000 -0.5000
vn 0.0000 0.0000 -1.0000
vn 0.0000 0.0000 -1.0000
vn 0.8660 0.0000 -0.5000
vn 0.8660 0.0000 -0.5000
vn 0.8660 0.0000 0.5000
vn 0.8660 -0.0000 0.5000
vn 0.0000 0.0000 1.0000
vn 0.0000 0.0000 1.0000
vn -0.8660 0.0000 0.5000
vn -0.8660 0.0000 0.5000
vn 0.0000 -1.0000 0.0000
vn 0.0000 -1.0000 0.0000
vn 0.0000 -1.0000 0.0000
vn -0.0000 -1.0000 0.0000
vn 0.0000 -1.0000 -0.0000
vn 0.0000 -1.0000 0.0000
vn 0.0000 -1.0000 0.0000
vn 0.0000 -1.0000 0.0000
vn 0.0000 -1.0000 0.0000
vn -0.0000 -1.0000 0.0000
vn 0.0000 -1.0000 -0.0000
vn 0.0000 -1.0000 0.0000
vn -0.8660 0.0000 -0.5000
vn -0.8660 0.0000 -0.5000
vn -0.0000 0.0000 -1.0000
vn -0.0000 0.0000 -1.0000
vn 0.8660 0.0000 -0.5000
vn 0.8660 0.0000 -0.5000
vn 0.8660 0.0000 0.5000
vn 0.8660 -0.0000 0.5000
vn 0.0000 0.0000 1.0000
vn 0.0000 0.0000 1.0000
vn -0.8660 0.0000 0.5000
vn -0.8660 0.0000 0.5000
vn 0.0000 -1.0000 0.0000
vn 0.0000 -1.0000 0.0000
vn 0.0000 -1.0000 0.0000
vn -0.0000 -1.0000 0.0000
vn 0.0000 -1.0000 -0.0000
vn 0.0000 -1.0000 0.0000
vn 0.0000 -1.0000 0.0000
vn 0.0000 -1.0000 0.0000
vn 0.0000 -1.0000 0.0000
vn -0.0000 -1.0000 0.0000
vn 0.0000 -1.0000 -0.0000
vn 0.0000 -1.0000 0.0000
vn -0.8660 0.0000 -0.5000
vn -0.8660 0.0000 -0.5000
vn 0.0000 0.0000 -1.0000
vn 0.0000 0.0000 -1.0000
vn 0.8660 0.0000 -0.5000
vn 0.8660 0.0000 -0.5000
vn 0.8660 0.0000 0.5000
vn 0.8660 -0.0000 0.5000
vn 0.0000 0.0000 1.0000
vn 0.0000 0.0000 1.0000
vn -0.8660 0.0000 0.5000
vn -0.8660 0.0000 0.5000
vn 0.0000 -1.0000 0.0000
vn 0.0000 -1.0000 0.0000
vn 0.0000 -1.0000 0.0000
vn -0.0000 -1.0000 0.0000
vn 0.0000 -1.0000 -0.0000
vn 0.0000 -1.0000 0.0000
vn 0.0000 -1.0000 0.0000
vn 0.0000 -1.0000 0.0000
vn 0.0000 -1.0000 0.0000
vn -0.0000 -1.0000 0.0000
vn 0.0000 -1.0000 -0.0000
vn 0.0000 -1.0000 0.0000
usemtl c0
f 1//1 2//1 5//1
f 1//2 5//2 4//2
f 7//3 2//3 1//3
f 8//4 4//4 5//4
f 2//5 3//5 6//5
f 2//6 6//6 5//6
f 7//7 3//7 2//7
f 8//8 5//8 6//8
f 3//9 1//9 4//9
f 3//10 4//10 6//10
f 7//11 1//11 3//11
f 8//12 6//12 4//12
usemtl c1
f 9//13 18//13 17//13
f 10//14 19//14 18//14
f 11//15 20//15 19//15
f 12//16 21//16 20//16
f 13//17 22//17 21//17
f 14//18 23//18 22//18
f 15//19 24//19 23//19
f 16//20 17//20 24//20
f 17//21 18//21 26//21
f 17//22 26//22 25//22
f 18//23 19//23 27//23
f 18//24 27//24 26//24
f 19//25 20//25 28//25
f 19//26 28//26 27//26
f 20//27 21//27 29//27
f 20//28 29//28 28//28
f 21//29 22//29 30//29
f 21//30 30//30 29//30
f 22//31 23//31 31//31
f 22//32 31//32 30//32
f 23//33 24//33 32//33
f 23//34 32//34 31//34
f 24//35 17//35 25//35
f 24//36 25//36 32//36
f 25//37 26//37 34//37
f 25//38 34//38 33//38
f 26//39 27//39 35//39
f 26//40 35//40 34//40
f 27//41 28//41 36//41
f 27//42 36//42 35//42
f 28//43 29//43 37//43
f 28//44 37//44 36//44
f 29//45 30//45 38//45
f 29//46 38//46 37//46
f 30//47 31//47 39//47
f 30//48 39//48 38//48
f 31//49 32//49 40//49
f 31//50 40//50 39//50
f 32//51 25//51 33//51
f 32//52 33//52 40//52
f 33//53 34//53 42//53
f 33//54 42//54 41//54
f 34//55 35//55 43//55
f 34//56 43//56 42//56
f 35//57 36//57 44//57
f 35//58 44//58 43//58
f 36//59 37//59 45//59
f 36//60 45//60 44//60
f 37//61 38//61 46//61
f 37//62 46//62 45//62
f 38//63 39//63 47//63
f 38//64 47//64 46//64
f 39//65 40//65 48//65
f 39//66 48//66 47//66
f 40//67 33//67 41//67
f 40//68 41//68 48//68
f 41//69 42//69 50//69
f 41//70 50//70 49//70
f 42//71 43//71 51//71
f 42//72 51//72 50//72
f 43//73 44//73 52//73
f 43//74 52//74 51//74
f 44//75 45//75 53//75
f 44//76 53//76 52//76
f 45//77 46//77 54//77
f 45//78 54//78 53//78
f 46//79 47//79 55//79
f 46//80 55//80 54//80
f 47//81 48//81 56//81
f 47//82 56//82 55//82
f 48//83 41//83 49//83
f 48//84 49//84 56//84
f 49//85 50//85 58//85
f 49//86 58//86 57//86
f 50//87 51//87 59//87
f 50//88 59//88 58//88
f 51//89 52//89 60//89
f 51//90 60//90 59//90
f 52//91 53//91 61//91
f 52//92 61//92 60//92
f 53//93 54//93 62//93
f 53//94 62//94 61//94
f 54//95 55//95 63//95
f 54//96 63//96 62//96
f 55//97 56//97 64//97
f 55//98 64//98 63//98
f 56//99 49//99 57//99
f 56//100 57//100 64//100
usemtl c2
f 65//101 66//101 74//101
f 65//102 74//102 73//102
f 66//103 67//103 75//103
f 66//104 75//104 74//104
f 67//105 68//105 76//105
f 67//106 76//106 75//106
f 68//107 69//107 77//107
f 68//108 77//108 76//108
f 69//109 70//109 78//109
f 69//110 78//110 77//110
f 70//111 71//111 79//111
f 70//112 79//112 78//112
f 71//113 72//113 80//113
f 71//114 80//114 79//114
f 72//115 65//115 73//115
f 72//116 73//116 80//116
f 81//117 65//117 66//117
f 81//118 66//118 67//118
f 81//119 67//119 68//119
f 81//120 68//120 69//120
f 81//121 69//121 70//121
f 81//122 70//122 71//122
f 81//123 71//123 72//123
f 81//124 72//124 65//124
f 82//125 73//125 74//125
f 82//126 74//126 75//126
f 82//127 75//127 76//127
f 82//128 76//128 77//128
f 82//129 77//129 78//129
f 82//130 78//130 79//130
f 82//131 79//131 80//131
f 82//132 80//132 73//132
f 83//133 84//133 92//133
f 83//134 92//134 91//134
f 84//135 85//135 93//135
f 84//136 93//136 92//136
f 85//137 86//137 94//137
f 85//138 94//138 93//138
f 86//139 87//139 95//139
f 86//140 95//140 94//140
f 87//141 88//141 96//141
f 87//142 96//142 95//142
f 88//143 89//143 97//143
f 88//144 97//144 96//144
f 89//145 90//145 98//145
f 89//146 98//146 97//146
f 90//147 83//147 91//147
f 90//148 91//148 98//148
f 99//149 83//149 84//149
f 99//150 84//150 85//150
f 99//151 85//151 86//151
f 99//152 86//152 87//152
f 99//153 87//153 88//153
f 99//154 88//154 89//154
f 99//155 89//155 90//155
f 99//156 90//156 83//156
f 100//157 91//157 92//157
f 100//158 92//158 93//158
f 100//159 93//159 94//159
f 100//160 94//160 95//160
f 100//161 95//161 96//161
f 100//162 96//162 97//162
f 100//163 97//163 98//163
f 100//164 98//164 91//164
f 101//165 102//165 110//165
f 101//166 110//166 109//166
f 102//167 103//167 111//167
f 102//168 111//168 110//168
f 103//169 104//169 112//169
f 103//170 112//170 111//170
f 104//171 105//171 113//171
f 104//172 113//172 112//172
f 105//173 106//173 114//173
f 105//174 114//174 113//174
f 106//175 107//175 115//175
f 106//176 115//176 114//176
f 107//177 108//177 116//177
f 107//178 116//178 115//178
f 108//179 101//179 109//179
f 108//180 109//180 116//180
f 117//181 101//181 102//181
f 117//182 102//182 103//182
f 117//183 103//183 104//183
f 117//184 104//184 105//184
f 117//185 105//185 106//185
f 117//186 106//186 107//186
f 117//187 107//187 108//187
f 117//188 108//188 101//188
f 118//189 109//189 110//189
f 118//190 110//190 111//190
f 118//191 111//191 112//191
f 118//192 112//192 113//192
f 118//193 113//193 114//193
f 118//194 114//194 115//194
f 118//195 115//195 116//195
f 118//196 116//196 109//196
usemtl c3
f 119//197 120//197 124//197
f 119//198 124//198 123//198
f 127//199 120//199 119//199
f 128//200 123//200 124//200
f 120//201 121//201 125//201
f 120//202 125//202 124//202
f 127//203 121//203 120//203
f 128//204 124//204 125//204
f 121//205 122//205 126//205
f 121//206 126//206 125//206
f 127//207 122//207 121//207
f 128//208 125//208 126//208
f 122//209 119//209 123//209
f 122//210 123//210 126//210
f 127//211 119//211 122//211
f 128//212 126//212 123//212
f 129//213 130//213 134//213
f 129//214 134//214 133//214
f 137//215 130//215 129//215
f 138//216 133//216 134//216
f 130//217 131//217 135//217
f 130//218 135//218 134//218
f 137//219 131//219 130//219
f 138//220 134//220 135//220
f 131//221 132//221 136//221
f 131//222 136//222 135//222
f 137//223 132//223 131//223
f 138//224 135//224 136//224
f 132//225 129//225 133//225
f 132//226 133//226 136//226
f 137//227 129//227 132//227
f 138//228 136//228 133//228
f 139//229 140//229 144//229
f 139//230 144//230 143//230
f 147//231 140//231 139//231
f 148//232 143//232 144//232
f 140//233 141//233 145//233
f 140//234 145//234 144//234
f 147//235 141//235 140//235
f 148//236 144//236 145//236
f 141//237 142//237 146//237
f 141//238 146//238 145//238
f 147//239 142//239 141//239
f 148//240 145//240 146//240
f 142//241 139//241 143//241
f 142//242 143//242 146//242
f 147//243 139//243 142//243
f 148//244 146//244 143//244
f 149//245 150//245 154//245
f 149//246 154//246 153//246
f 157//247 150//247 149//247
f 158//248 153//248 154//248
f 150//249 151//249 155//249
f 150//250 155//250 154//250
f 157//251 151//251 150//251
f 158//252 154//252 155//252
f 151//253 152//253 156//253
f 151//254 156//254 155//254
f 157//255 152//255 151//255
f 158//256 155//256 156//256
f 152//257 149//257 153//257
f 152//258 153//258 156//258
f 157//259 149//259 152//259
f 158//260 156//260 153//260
usemtl c4
f 159//261 160//261 166//261
f 159//262 166//262 165//262
f 160//263 161//263 167//263
f 160//264 167//264 166//264
f 161//265 162//265 168//265
f 161//266 168//266 167//266
f 162//267 163//267 169//267
f 162//268 169//268 168//268
f 163//269 164//269 170//269
f 163//270 170//270 169//270
f 164//271 159//271 165//271
f 164//272 165//272 170//272
f 171//273 159//273 160//273
f 171//274 160//274 161//274
f 171//275 161//275 162//275
f 171//276 162//276 163//276
f 171//277 163//277 164//277
f 171//278 164//278 159//278
f 172//279 165//279 166//279
f 172//280 166//280 167//280
f 172//281 167//281 168//281
f 172//282 168//282 169//282
f 172//283 169//283 170//283
f 172//284 170//284 165//284
f 173//285 174//285 180//285
f 173//286 180//286 179//286
f 174//287 175//287 181//287
f 174//288 181//288 180//288
f 175//289 176//289 182//289
f 175//290 182//290 181//290
f 176//291 177//291 183//291
f 176//292 183//292 182//292
f 177//293 178//293 184//293
f 177//294 184//294 183//294
f 178//295 173//295 179//295
f 178//296 179//296 184//296
f 185//297 173//297 174//297
f 185//298 174//298 175//298
f 185//299 175//299 176//299
f 185//300 176//300 177//300
f 185//301 177//301 178//301
f 185//302 178//302 173//302
f 186//303 179//303 180//303
f 186//304 180//304 181//304
f 186//305 181//305 182//305
f 186//306 182//306 183//306
f 186//307 183//307 184//307
f 186//308 184//308 179//308
f 187//309 188//309 194//309
f 187//310 194//310 193//310
f 188//311 189//311 195//311
f 188//312 195//312 194//312
f 189//313 190//313 196//313
f 189//314 196//314 195//314
f 190//315 191//315 197//315
f 190//316 197//316 196//316
f 191//317 192//317 198//317
f 191//318 198//318 197//318
f 192//319 187//319 193//319
f 192//320 193//320 198//320
f 199//321 187//321 188//321
f 199//322 188//322 189//322
f 199//323 189//323 190//323
f 199//324 190//324 191//324
f 199//325 191//325 192//325
f 199//326 192//326 187//326
f 200//327 193//327 194//327
f 200//328 194//328 195//328
f 200//329 195//329 196//329
f 200//330 196//330 197//330
f 200//331 197//331 198//331
f 200//332 198//332 193//332
