mtllib Food_Chili.mtl
v -1.1448 0.2271 0.0000
v -1.1646 0.1677 0.1085
v -1.2043 0.0488 0.1085
v -1.2241 -0.0106 0.0000
v -1.2043 0.0488 -0.1085
v -1.1646 0.1677 -0.1085
v -0.8414 0.2861 0.0000
v -0.8682 0.1580 0.2266
v -0.9218 -0.0981 0.2266
v -0.9487 -0.2262 0.0000
v -0.9218 -0.0981 -0.2266
v -0.8682 0.1580 -0.2266
v -0.5763 0.2282 0.0000
v -0.5874 0.1069 0.2111
v -0.6096 -0.1359 0.2111
v -0.6207 -0.2572 0.0000
v -0.6096 -0.1359 -0.2111
v -0.5874 0.1069 -0.2111
v -0.3041 0.1910 0.0000
v -0.3014 0.0832 0.1867
v -0.2962 -0.1323 0.1867
v -0.2936 -0.2401 0.0000
v -0.2962 -0.1323 -0.1867
v -0.3014 0.0832 -0.1867
v -0.0261 0.1857 0.0000
v -0.0130 0.0928 0.1624
v 0.0130 -0.0928 0.1624
v 0.0261 -0.1857 0.0000
v 0.0130 -0.0928 -0.1624
v -0.0130 0.0928 -0.1624
v 0.2538 0.2130 0.0000
v 0.2739 0.1359 0.1380
v 0.3141 -0.0183 0.1380
v 0.3342 -0.0954 0.0000
v 0.3141 -0.0183 -0.1380
v 0.2739 0.1359 -0.1380
v 0.5318 0.2734 0.0000
v 0.5556 0.2122 0.1137
v 0.6031 0.0898 0.1137
v 0.6268 0.0287 0.0000
v 0.6031 0.0898 -0.1137
v 0.5556 0.2122 -0.1137
v 0.8039 0.3667 0.0000
v 0.8280 0.3211 0.0893
v 0.8762 0.2299 0.0893
v 0.9002 0.1843 0.0000
v 0.8762 0.2299 -0.0893
v 0.8280 0.3211 -0.0893
v 1.0663 0.4924 0.0000
v 1.0875 0.4615 0.0650
v 1.1299 0.3996 0.0650
v 1.1511 0.3687 0.0000
v 1.1299 0.3996 -0.0650
v 1.0875 0.4615 -0.0650
v -1.1844 0.1083 0.0000
v 1.1087 0.4305 0.0000
v -1.0922 -0.1223 0.0000
v -1.1244 -0.1484 0.0571
v -1.1766 -0.1906 0.0353
v -1.1766 -0.1906 -0.0353
v -1.1244 -0.1484 -0.0571
v -1.2755 0.1044 0.0000
v -1.3077 0.0783 0.0571
v -1.3599 0.0361 0.0353
v -1.3599 0.0361 -0.0353
v -1.3077 0.0783 -0.0571
v -1.1388 -0.1600 0.0000
v -1.3221 0.0666 0.0000
v -1.1277 -0.2393 0.0000
v -1.1277 -0.2393 0.0000
v -1.1277 -0.2393 0.0000
v -1.1277 -0.2393 0.0000
v -1.1277 -0.2393 0.0000
v -1.0146 -0.1729 0.0000
v -1.0975 -0.1845 0.1153
v -1.2318 -0.2034 0.0713
v -1.2318 -0.2034 -0.0713
v -1.0975 -0.1845 -0.1153
v -1.0285 -0.0739 0.0000
v -1.1114 -0.0855 0.1153
v -1.2457 -0.1044 0.0713
v -1.2457 -0.1044 -0.0713
v -1.1114 -0.0855 -0.1153
v -1.1555 -0.0412 0.0000
v -1.1555 -0.0412 0.0000
v -1.1555 -0.0412 0.0000
v -1.1555 -0.0412 -0.0000
v -1.1555 -0.0412 -0.0000
vn -0.1518 0.8783 0.4533
vn -0.1683 0.8666 0.4698
vn -0.3335 0.1112 0.9362
vn -0.3668 0.0768 0.9271
vn -0.5414 -0.6918 0.4778
vn -0.5534 -0.6954 0.4585
vn -0.5542 -0.6833 -0.4754
vn -0.5472 -0.6993 -0.4599
vn -0.3639 0.1214 -0.9235
vn -0.3518 0.0737 -0.9332
vn -0.1703 0.8770 -0.4492
vn -0.1594 0.8674 -0.4713
vn 0.1819 0.8467 0.5000
vn 0.1850 0.8477 0.4971
vn 0.0484 -0.0101 0.9988
vn 0.0543 -0.0050 0.9985
vn -0.0819 -0.8635 0.4976
vn -0.0795 -0.8624 0.5000
vn -0.0798 -0.8638 -0.4975
vn -0.0817 -0.8622 -0.5000
vn 0.0531 -0.0111 -0.9985
vn 0.0491 -0.0045 -0.9988
vn 0.1846 0.8461 -0.5000
vn 0.1820 0.8483 -0.4973
vn 0.1135 0.8587 0.4997
vn 0.1176 0.8608 0.4952
vn 0.0776 -0.0071 0.9970
vn 0.0850 0.0021 0.9964
vn 0.0455 -0.8671 0.4961
vn 0.0487 -0.8648 0.4998
vn 0.0484 -0.8670 -0.4959
vn 0.0453 -0.8649 -0.4999
vn 0.0842 -0.0077 -0.9964
vn 0.0775 0.0019 -0.9970
vn 0.1173 0.8583 -0.4996
vn 0.1133 0.8612 -0.4955
vn 0.0134 0.8661 0.4997
vn 0.0167 0.8686 0.4953
vn 0.0783 0.0019 0.9969
vn 0.0838 0.0118 0.9964
vn 0.1457 -0.8560 0.4961
vn 0.1483 -0.8533 0.4998
vn 0.1483 -0.8556 -0.4959
vn 0.1454 -0.8538 -0.4998
vn 0.0841 0.0020 -0.9965
vn 0.0771 0.0108 -0.9970
vn 0.0167 0.8661 -0.4996
vn 0.0130 0.8685 -0.4955
vn -0.0869 0.8618 0.4997
vn -0.0844 0.8646 0.4953
vn 0.0779 0.0110 0.9969
vn 0.0814 0.0212 0.9965
vn 0.2440 -0.8333 0.4960
vn 0.2460 -0.8305 0.4998
vn 0.2462 -0.8328 -0.4959
vn 0.2434 -0.8312 -0.4998
vn 0.0828 0.0116 -0.9965
vn 0.0758 0.0198 -0.9969
vn -0.0842 0.8621 -0.4997
vn -0.0876 0.8642 -0.4955
vn -0.1860 0.8460 0.4997
vn -0.1843 0.8489 0.4954
vn 0.0766 0.0200 0.9969
vn 0.0780 0.0303 0.9965
vn 0.3391 -0.7994 0.4960
vn 0.3403 -0.7965 0.4998
vn 0.3408 -0.7987 -0.4959
vn 0.3382 -0.7974 -0.4998
vn 0.0805 0.0210 -0.9965
vn 0.0734 0.0285 -0.9969
vn -0.1838 0.8465 -0.4997
vn -0.1869 0.8482 -0.4956
vn -0.2826 0.8188 0.4997
vn -0.2817 0.8217 0.4955
vn 0.0741 0.0288 0.9968
vn 0.0736 0.0388 0.9965
vn 0.4296 -0.7547 0.4959
vn 0.4301 -0.7518 0.4998
vn 0.4309 -0.7540 -0.4958
vn 0.4285 -0.7527 -0.4998
vn 0.0771 0.0299 -0.9966
vn 0.0700 0.0369 -0.9969
vn -0.2810 0.8194 -0.4997
vn -0.2838 0.8209 -0.4956
vn -0.3754 0.7806 0.4997
vn -0.3753 0.7833 0.4955
vn 0.0707 0.0373 0.9968
vn 0.0682 0.0468 0.9966
vn 0.5142 -0.6997 0.4959
vn 0.5141 -0.6970 0.4998
vn 0.5152 -0.6991 -0.4958
vn 0.5129 -0.6979 -0.4998
vn 0.0728 0.0384 -0.9966
vn 0.0656 0.0450 -0.9968
vn -0.3743 0.7812 -0.4997
vn -0.3768 0.7825 -0.4956
vn 0.9486 -0.3164 -0.0000
vn 0.9486 -0.3164 0.0000
vn 0.9486 -0.3164 0.0000
vn 0.9486 -0.3164 -0.0000
vn 0.9486 -0.3164 -0.0000
vn 0.9486 -0.3164 0.0000
vn 0.8247 0.5656 0.0000
vn 0.8247 0.5656 0.0000
vn 0.8247 0.5656 0.0000
vn 0.8247 0.5656 -0.0000
vn 0.8247 0.5656 -0.0000
vn 0.8247 0.5656 -0.0000
vn -0.6290 -0.5087 -0.5878
vn -0.6290 -0.5087 -0.5878
vn 0.2403 0.1943 -0.9511
vn 0.2403 0.1943 -0.9511
vn 0.7775 0.6288 0.0000
vn 0.7775 0.6288 0.0000
vn 0.2403 0.1943 0.9511
vn 0.2403 0.1943 0.9511
vn -0.6290 -0.5087 0.5878
vn -0.6290 -0.5087 0.5878
vn 0.6288 -0.7775 -0.0000
vn 0.6288 -0.7775 -0.0000
vn 0.6288 -0.7775 0.0000
vn 0.6288 -0.7775 -0.0000
vn 0.6288 -0.7775 -0.0000
vn 0.6288 -0.7775 -0.0000
vn 0.6288 -0.7775 -0.0000
vn 0.6288 -0.7775 0.0000
vn 0.6288 -0.7775 -0.0000
vn 0.6288 -0.7775 -0.0000
vn -0.4878 0.8311 -0.2669
vn 0.0150 0.9018 -0.4319
vn 0.3257 0.9455 0.0000
vn 0.0150 0.9018 0.4319
vn -0.4878 0.8311 0.2669
vn -0.8011 -0.1126 -0.5878
vn -0.8011 -0.1126 -0.5878
vn 0.3060 0.0430 -0.9511
vn 0.3060 0.0430 -0.9511
vn 0.9903 0.1392 0.0000
vn 0.9903 0.1392 0.0000
vn 0.3060 0.0430 0.9511
vn 0.3060 0.0430 0.9511
vn -0.8011 -0.1126 0.5878
vn -0.8011 -0.1126 0.5878
vn -0.2398 -0.9334 -0.2669
vn 0.2630 -0.8627 -0.4319
vn 0.5737 -0.8191 0.0000
vn 0.2630 -0.8627 0.4319
vn -0.2398 -0.9334 0.2669
usemtl c0
f 1//1 2//1 8//1
f 1//2 8//2 7//2
f 2//3 3//3 9//3
f 2//4 9//4 8//4
f 3//5 4//5 10//5
f 3//6 10//6 9//6
f 4//7 5//7 11//7
f 4//8 11//8 10//8
f 5//9 6//9 12//9
f 5//10 12//10 11//10
f 6//11 1//11 7//11
f 6//12 7//12 12//12
f 7//13 8//13 14//13
f 7//14 14//14 13//14
f 8//15 9//15 15//15
f 8//16 15//16 14//16
f 9//17 10//17 16//17
f 9//18 16//18 15//18
f 10//19 11//19 17//19
f 10//20 17//20 16//20
f 11//21 12//21 18//21
f 11//22 18//22 17//22
f 12//23 7//23 13//23
f 12//24 13//24 18//24
f 13//25 14//25 20//25
f 13//26 20//26 19//26
f 14//27 15//27 21//27
f 14//28 21//28 20//28
f 15//29 16//29 22//29
f 15//30 22//30 21//30
f 16//31 17//31 23//31
f 16//32 23//32 22//32
f 17//33 18//33 24//33
f 17//34 24//34 23//34
f 18//35 13//35 19//35
f 18//36 19//36 24//36
f 19//37 20//37 26//37
f 19//38 26//38 25//38
f 20//39 21//39 27//39
f 20//40 27//40 26//40
f 21//41 22//41 28//41
f 21//42 28//42 27//42
f 22//43 23//43 29//43
f 22//44 29//44 28//44
f 23//45 24//45 30//45
f 23//46 30//46 29//46
f 24//47 19//47 25//47
f 24//48 25//48 30//48
f 25//49 26//49 32//49
f 25//50 32//50 31//50
f 26//51 27//51 33//51
f 26//52 33//52 32//52
f 27//53 28//53 34//53
f 27//54 34//54 33//54
f 28//55 29//55 35//55
f 28//56 35//56 34//56
f 29//57 30//57 36//57
f 29//58 36//58 35//58
f 30//59 25//59 31//59
f 30//60 31//60 36//60
f 31//61 32//61 38//61
f 31//62 38//62 37//62
f 32//63 33//63 39//63
f 32//64 39//64 38//64
f 33//65 34//65 40//65
f 33//66 40//66 39//66
f 34//67 35//67 41//67
f 34//68 41//68 40//68
f 35//69 36//69 42//69
f 35//70 42//70 41//70
f 36//71 31//71 37//71
f 36//72 37//72 42//72
f 37//73 38//73 44//73
f 37//74 44//74 43//74
f 38//75 39//75 45//75
f 38//76 45//76 44//76
f 39//77 40//77 46//77
f 39//78 46//78 45//78
f 40//79 41//79 47//79
f 40//80 47//80 46//80
f 41//81 42//81 48//81
f 41//82 48//82 47//82
f 42//83 37//83 43//83
f 42//84 43//84 48//84
f 43//85 44//85 50//85
f 43//86 50//86 49//86
f 44//87 45//87 51//87
f 44//88 51//88 50//88
f 45//89 46//89 52//89
f 45//90 52//90 51//90
f 46//91 47//91 53//91
f 46//92 53//92 52//92
f 47//93 48//93 54//93
f 47//94 54//94 53//94
f 48//95 43//95 49//95
f 48//96 49//96 54//96
f 55//97 1//97 2//97
f 55//98 2//98 3//98
f 55//99 3//99 4//99
f 55//100 4//100 5//100
f 55//101 5//101 6//101
f 55//102 6//102 1//102
f 56//103 49//103 50//103
f 56//104 50//104 51//104
f 56//105 51//105 52//105
f 56//106 52//106 53//106
f 56//107 53//107 54//107
f 56//108 54//108 49//108
usemtl c1
f 57//109 58//109 63//109
f 57//110 63//110 62//110
f 58//111 59//111 64//111
f 58//112 64//112 63//112
f 59//113 60//113 65//113
f 59//114 65//114 64//114
f 60//115 61//115 66//115
f 60//116 66//116 65//116
f 61//117 57//117 62//117
f 61//118 62//118 66//118
f 67//119 57//119 58//119
f 67//120 58//120 59//120
f 67//121 59//121 60//121
f 67//122 60//122 61//122
f 67//123 61//123 57//123
f 68//124 62//124 63//124
f 68//125 63//125 64//125
f 68//126 64//126 65//126
f 68//127 65//127 66//127
f 68//128 66//128 62//128
f 69//129 75//129 74//129
f 70//130 76//130 75//130
f 71//131 77//131 76//131
f 72//132 78//132 77//132
f 73//133 74//133 78//133
f 74//134 75//134 80//134
f 74//135 80//135 79//135
f 75//136 76//136 81//136
f 75//137 81//137 80//137
f 76//138 77//138 82//138
f 76//139 82//139 81//139
f 77//140 78//140 83//140
f 77//141 83//141 82//141
f 78//142 74//142 79//142
f 78//143 79//143 83//143
f 79//144 80//144 85//144
f 80//145 81//145 86//145
f 81//146 82//146 87//146
f 82//147 83//147 88//147
f 83//148 79//148 84//148
