mtllib Food_RedBeanBun.mtl
v 0.0000 0.0000 0.0000
v 0.0000 0.0000 0.0000
v 0.0000 0.0000 0.0000
v 0.0000 0.0000 0.0000
v 0.0000 0.0000 0.0000
v 0.0000 0.0000 0.0000
v 0.0000 0.0000 0.0000
v 0.0000 0.0000 0.0000
v 0.0000 0.0000 0.0000
v 0.0000 0.0000 0.0000
v 0.9500 0.0000 0.0000
v 0.7686 0.0000 0.5584
v 0.2936 0.0000 0.9035
v -0.2936 0.0000 0.9035
v -0.7686 0.0000 0.5584
v -0.9500 0.0000 0.0000
v -0.7686 0.0000 -0.5584
v -0.2936 0.0000 -0.9035
v 0.2936 0.0000 -0.9035
v 0.7686 0.0000 -0.5584
v 1.0200 0.1500 0.0000
v 0.8252 0.1500 0.5995
v 0.3152 0.1500 0.9701
v -0.3152 0.1500 0.9701
v -0.8252 0.1500 0.5995
v -1.0200 0.1500 0.0000
v -0.8252 0.1500 -0.5995
v -0.3152 0.1500 -0.9701
v 0.3152 0.1500 -0.9701
v 0.8252 0.1500 -0.5995
v 0.9000 0.5000 0.0000
v 0.7281 0.5000 0.5290
v 0.2781 0.5000 0.8560
v -0.2781 0.5000 0.8560
v -0.7281 0.5000 0.5290
v -0.9000 0.5000 0.0000
v -0.7281 0.5000 -0.5290
v -0.2781 0.5000 -0.8560
v 0.2781 0.5000 -0.8560
v 0.7281 0.5000 -0.5290
v 0.5500 0.7200 0.0000
v 0.4450 0.7200 0.3233
v 0.1700 0.7200 0.5231
v -0.1700 0.7200 0.5231
v -0.4450 0.7200 0.3233
v -0.5500 0.7200 0.0000
v -0.4450 0.7200 -0.3233
v -0.1700 0.7200 -0.5231
v 0.1700 0.7200 -0.5231
v 0.4450 0.7200 -0.3233
v 0.0000 0.7800 0.0000
v 0.0000 0.7800 0.0000
v 0.0000 0.7800 0.0000
v 0.0000 0.7800 0.0000
v 0.0000 0.7800 0.0000
v 0.0000 0.7800 0.0000
v 0.0000 0.7800 0.0000
v 0.0000 0.7800 0.0000
v 0.0000 0.7800 0.0000
v 0.0000 0.7800 0.0000
v -0.1500 0.7300 0.0000
v -0.1500 0.7300 0.0000
v -0.1500 0.7300 0.0000
v -0.1500 0.7300 0.0000
v -0.0900 0.7600 0.0000
v -0.1500 0.7600 0.0400
v -0.2100 0.7600 0.0000
v -0.1500 0.7600 -0.0400
v -0.1500 0.7900 0.0000
v -0.1500 0.7900 0.0000
v -0.1500 0.7900 0.0000
v -0.1500 0.7900 -0.0000
v 0.1500 0.7300 0.1000
v 0.1500 0.7300 0.1000
v 0.1500 0.7300 0.1000
v 0.1500 0.7300 0.1000
v 0.2100 0.7600 0.1000
v 0.1500 0.7600 0.1400
v 0.0900 0.7600 0.1000
v 0.1500 0.7600 0.0600
v 0.1500 0.7900 0.1000
v 0.1500 0.7900 0.1000
v 0.1500 0.7900 0.1000
v 0.1500 0.7900 0.1000
v 0.0000 0.7300 -0.1500
v 0.0000 0.7300 -0.1500
v 0.0000 0.7300 -0.1500
v 0.0000 0.7300 -0.1500
v 0.0600 0.7600 -0.1500
v 0.0000 0.7600 -0.1100
v -0.0600 0.7600 -0.1500
v -0.0000 0.7600 -0.1900
v 0.0000 0.7900 -0.1500
v 0.0000 0.7900 -0.1500
v -0.0000 0.7900 -0.1500
v -0.0000 0.7900 -0.1500
v 0.0500 0.7300 0.2500
v 0.0500 0.7300 0.2500
v 0.0500 0.7300 0.2500
v 0.0500 0.7300 0.2500
v 0.1100 0.7600 0.2500
v 0.0500 0.7600 0.2900
v -0.0100 0.7600 0.2500
v 0.0500 0.7600 0.2100
v 0.0500 0.7900 0.2500
v 0.0500 0.7900 0.2500
v 0.0500 0.7900 0.2500
v 0.0500 0.7900 0.2500
v -0.2000 0.7300 0.2000
v -0.2000 0.7300 0.2000
v -0.2000 0.7300 0.2000
v -0.2000 0.7300 0.2000
v -0.1400 0.7600 0.2000
v -0.2000 0.7600 0.2400
v -0.2600 0.7600 0.2000
v -0.2000 0.7600 0.1600
v -0.2000 0.7900 0.2000
v -0.2000 0.7900 0.2000
v -0.2000 0.7900 0.2000
v -0.2000 0.7900 0.2000
vn 0.0000 1.0000 0.0000
vn 0.0000 1.0000 0.0000
vn 0.0000 1.0000 -0.0000
vn 0.0000 1.0000 0.0000
vn 0.0000 1.0000 0.0000
vn 0.0000 1.0000 0.0000
vn 0.0000 1.0000 0.0000
vn 0.0000 1.0000 0.0000
vn 0.0000 1.0000 0.0000
vn -0.0000 1.0000 0.0000
vn -0.8693 0.4057 -0.2824
vn -0.8693 0.4057 -0.2824
vn -0.5372 0.4057 -0.7395
vn -0.5372 0.4057 -0.7395
vn -0.0000 0.4057 -0.9140
vn -0.0000 0.4057 -0.9140
vn 0.5372 0.4057 -0.7395
vn 0.5372 0.4057 -0.7395
vn 0.8693 0.4057 -0.2824
vn 0.8693 0.4057 -0.2824
vn 0.8693 0.4057 0.2824
vn 0.8693 0.4057 0.2824
vn 0.5372 0.4057 0.7395
vn 0.5372 0.4057 0.7395
vn 0.0000 0.4057 0.9140
vn 0.0000 0.4057 0.9140
vn -0.5372 0.4057 0.7395
vn -0.5372 0.4057 0.7395
vn -0.8693 0.4057 0.2824
vn -0.8693 0.4057 0.2824
vn -0.9042 -0.3100 -0.2938
vn -0.9042 -0.3100 -0.2938
vn -0.5588 -0.3100 -0.7692
vn -0.5588 -0.3100 -0.7692
vn -0.0000 -0.3100 -0.9507
vn -0.0000 -0.3100 -0.9507
vn 0.5588 -0.3100 -0.7692
vn 0.5588 -0.3100 -0.7692
vn 0.9042 -0.3100 -0.2938
vn 0.9042 -0.3100 -0.2938
vn 0.9042 -0.3100 0.2938
vn 0.9042 -0.3100 0.2938
vn 0.5588 -0.3100 0.7692
vn 0.5588 -0.3100 0.7692
vn 0.0000 -0.3100 0.9507
vn 0.0000 -0.3100 0.9507
vn -0.5588 -0.3100 0.7692
vn -0.5588 -0.3100 0.7692
vn -0.9042 -0.3100 0.2938
vn -0.9042 -0.3100 0.2938
vn -0.5244 -0.8343 -0.1704
vn -0.5244 -0.8343 -0.1704
vn -0.3241 -0.8343 -0.4461
vn -0.3241 -0.8343 -0.4461
vn -0.0000 -0.8343 -0.5514
vn -0.0000 -0.8343 -0.5514
vn 0.3241 -0.8343 -0.4461
vn 0.3241 -0.8343 -0.4461
vn 0.5244 -0.8343 -0.1704
vn 0.5244 -0.8343 -0.1704
vn 0.5244 -0.8343 0.1704
vn 0.5244 -0.8343 0.1704
vn 0.3241 -0.8343 0.4461
vn 0.3241 -0.8343 0.4461
vn 0.0000 -0.8343 0.5514
vn 0.0000 -0.8343 0.5514
vn -0.3241 -0.8343 0.4461
vn -0.3241 -0.8343 0.4461
vn -0.5244 -0.8343 0.1704
vn -0.5244 -0.8343 0.1704
vn -0.1084 -0.9935 -0.0352
vn -0.0670 -0.9935 -0.0922
vn -0.0000 -0.9935 -0.1140
vn 0.0670 -0.9935 -0.0922
vn 0.1084 -0.9935 -0.0352
vn 0.1084 -0.9935 0.0352
vn 0.0670 -0.9935 0.0922
vn 0.0000 -0.9935 0.1140
vn -0.0670 -0.9935 0.0922
vn -0.1084 -0.9935 0.0352
vn -0.3714 0.7428 -0.5571
vn 0.3714 0.7428 -0.5571
vn 0.3714 0.7428 0.5571
vn -0.3714 0.7428 0.5571
vn -0.3714 -0.7428 -0.5571
vn 0.3714 -0.7428 -0.5571
vn 0.3714 -0.7428 0.5571
vn -0.3714 -0.7428 0.5571
vn -0.3714 0.7428 -0.5571
vn 0.3714 0.7428 -0.5571
vn 0.3714 0.7428 0.5571
vn -0.3714 0.7428 0.5571
vn -0.3714 -0.7428 -0.5571
vn 0.3714 -0.7428 -0.5571
vn 0.3714 -0.7428 0.5571
vn -0.3714 -0.7428 0.5571
vn -0.3714 0.7428 -0.5571
vn 0.3714 0.7428 -0.5571
vn 0.3714 0.7428 0.5571
vn -0.3714 0.7428 0.5571
vn -0.3714 -0.7428 -0.5571
vn 0.3714 -0.7428 -0.5571
vn 0.3714 -0.7428 0.5571
vn -0.3714 -0.7428 0.5571
vn -0.3714 0.7428 -0.5571
vn 0.3714 0.7428 -0.5571
vn 0.3714 0.7428 0.5571
vn -0.3714 0.7428 0.5571
vn -0.3714 -0.7428 -0.5571
vn 0.3714 -0.7428 -0.5571
vn 0.3714 -0.7428 0.5571
vn -0.3714 -0.7428 0.5571
vn -0.3714 0.7428 -0.5571
vn 0.3714 0.7428 -0.5571
vn 0.3714 0.7428 0.5571
vn -0.3714 0.7428 0.5571
vn -0.3714 -0.7428 -0.5571
vn 0.3714 -0.7428 -0.5571
vn 0.3714 -0.7428 0.5571
vn -0.3714 -0.7428 0.5571
usemtl c0
f 1//1 12//1 11//1
f 2//2 13//2 12//2
f 3//3 14//3 13//3
f 4//4 15//4 14//4
f 5//5 16//5 15//5
f 6//6 17//6 16//6
f 7//7 18//7 17//7
f 8//8 19//8 18//8
f 9//9 20//9 19//9
f 10//10 11//10 20//10
f 11//11 12//11 22//11
f 11//12 22//12 21//12
f 12//13 13//13 23//13
f 12//14 23//14 22//14
f 13//15 14//15 24//15
f 13//16 24//16 23//16
f 14//17 15//17 25//17
f 14//18 25//18 24//18
f 15//19 16//19 26//19
f 15//20 26//20 25//20
f 16//21 17//21 27//21
f 16//22 27//22 26//22
f 17//23 18//23 28//23
f 17//24 28//24 27//24
f 18//25 19//25 29//25
f 18//26 29//26 28//26
f 19//27 20//27 30//27
f 19//28 30//28 29//28
f 20//29 11//29 21//29
f 20//30 21//30 30//30
f 21//31 22//31 32//31
f 21//32 32//32 31//32
f 22//33 23//33 33//33
f 22//34 33//34 32//34
f 23//35 24//35 34//35
f 23//36 34//36 33//36
f 24//37 25//37 35//37
f 24//38 35//38 34//38
f 25//39 26//39 36//39
f 25//40 36//40 35//40
f 26//41 27//41 37//41
f 26//42 37//42 36//42
f 27//43 28//43 38//43
f 27//44 38//44 37//44
f 28//45 29//45 39//45
f 28//46 39//46 38//46
f 29//47 30//47 40//47
f 29//48 40//48 39//48
f 30//49 21//49 31//49
f 30//50 31//50 40//50
f 31//51 32//51 42//51
f 31//52 42//52 41//52
f 32//53 33//53 43//53
f 32//54 43//54 42//54
f 33//55 34//55 44//55
f 33//56 44//56 43//56
f 34//57 35//57 45//57
f 34//58 45//58 44//58
f 35//59 36//59 46//59
f 35//60 46//60 45//60
f 36//61 37//61 47//61
f 36//62 47//62 46//62
f 37//63 38//63 48//63
f 37//64 48//64 47//64
f 38//65 39//65 49//65
f 38//66 49//66 48//66
f 39//67 40//67 50//67
f 39//68 50//68 49//68
f 40//69 31//69 41//69
f 40//70 41//70 50//70
f 41//71 42//71 52//71
f 42//72 43//72 53//72
f 43//73 44//73 54//73
f 44//74 45//74 55//74
f 45//75 46//75 56//75
f 46//76 47//76 57//76
f 47//77 48//77 58//77
f 48//78 49//78 59//78
f 49//79 50//79 60//79
f 50//80 41//80 51//80
usemtl c1
f 61//81 66//81 65//81
f 62//82 67//82 66//82
f 63//83 68//83 67//83
f 64//84 65//84 68//84
f 65//85 66//85 70//85
f 66//86 67//86 71//86
f 67//87 68//87 72//87
f 68//88 65//88 69//88
f 73//89 78//89 77//89
f 74//90 79//90 78//90
f 75//91 80//91 79//91
f 76//92 77//92 80//92
f 77//93 78//93 82//93
f 78//94 79//94 83//94
f 79//95 80//95 84//95
f 80//96 77//96 81//96
f 85//97 90//97 89//97
f 86//98 91//98 90//98
f 87//99 92//99 91//99
f 88//100 89//100 92//100
f 89//101 90//101 94//101
f 90//102 91//102 95//102
f 91//103 92//103 96//103
f 92//104 89//104 93//104
f 97//105 102//105 101//105
f 98//106 103//106 102//106
f 99//107 104//107 103//107
f 100//108 101//108 104//108
f 101//109 102//109 106//109
f 102//110 103//110 107//110
f 103//111 104//111 108//111
f 104//112 101//112 105//112
f 109//113 114//113 113//113
f 110//114 115//114 114//114
f 111//115 116//115 115//115
f 112//116 113//116 116//116
f 113//117 114//117 118//117
f 114//118 115//118 119//118
f 115//119 116//119 120//119
f 116//120 113//120 117//120
