mtllib Food_Corn.mtl
v -1.0876 -0.5071 0.0000
v -1.0876 -0.5071 0.0000
v -1.0876 -0.5071 0.0000
v -1.0876 -0.5071 0.0000
v -1.0876 -0.5071 0.0000
v -1.0876 -0.5071 0.0000
v -1.0876 -0.5071 0.0000
v -1.0876 -0.5071 0.0000
v -1.0022 -0.1224 0.0000
v -0.9635 -0.2054 0.2210
v -0.8701 -0.4057 0.3126
v -0.7766 -0.6060 0.2210
v -0.7380 -0.6890 0.0000
v -0.7766 -0.6060 -0.2210
v -0.8701 -0.4057 -0.3126
v -0.9635 -0.2054 -0.2210
v -0.8234 0.0621 0.0000
v -0.7733 -0.0452 0.2859
v -0.6525 -0.3043 0.4043
v -0.5317 -0.5634 0.2859
v -0.4817 -0.6707 0.0000
v -0.5317 -0.5634 -0.2859
v -0.6525 -0.3043 -0.4043
v -0.7733 -0.0452 -0.2859
v -0.6292 0.2135 0.0000
v -0.5723 0.0915 0.3248
v -0.4350 -0.2029 0.4594
v -0.2978 -0.4972 0.3248
v -0.2409 -0.6192 0.0000
v -0.2978 -0.4972 -0.3248
v -0.4350 -0.2029 -0.4594
v -0.5723 0.0915 -0.3248
v -0.4246 0.3427 0.0000
v -0.3640 0.2126 0.3465
v -0.2175 -0.1014 0.4901
v -0.0711 -0.4155 0.3465
v -0.0104 -0.5456 0.0000
v -0.0711 -0.4155 -0.3465
v -0.2175 -0.1014 -0.4901
v -0.3640 0.2126 -0.3465
v -0.2113 0.4532 0.0000
v -0.1494 0.3204 0.3536
v -0.0000 0.0000 0.5000
v 0.1494 -0.3204 0.3536
v 0.2113 -0.4532 0.0000
v 0.1494 -0.3204 -0.3536
v 0.0000 -0.0000 -0.5000
v -0.1494 0.3204 -0.3536
v 0.0104 0.5456 0.0000
v 0.0711 0.4155 0.3465
v 0.2175 0.1014 0.4901
v 0.3640 -0.2126 0.3465
v 0.4246 -0.3427 0.0000
v 0.3640 -0.2126 -0.3465
v 0.2175 0.1014 -0.4901
v 0.0711 0.4155 -0.3465
v 0.2409 0.6192 0.0000
v 0.2978 0.4972 0.3248
v 0.4350 0.2029 0.4594
v 0.5723 -0.0915 0.3248
v 0.6292 -0.2135 0.0000
v 0.5723 -0.0915 -0.3248
v 0.4350 0.2029 -0.4594
v 0.2978 0.4972 -0.3248
v 0.4817 0.6707 0.0000
v 0.5317 0.5634 0.2859
v 0.6525 0.3043 0.4043
v 0.7733 0.0452 0.2859
v 0.8234 -0.0621 0.0000
v 0.7733 0.0452 -0.2859
v 0.6525 0.3043 -0.4043
v 0.5317 0.5634 -0.2859
v 0.7380 0.6890 0.0000
v 0.7766 0.6060 0.2210
v 0.8701 0.4057 0.3126
v 0.9635 0.2054 0.2210
v 1.0022 0.1224 0.0000
v 0.9635 0.2054 -0.2210
v 0.8701 0.4057 -0.3126
v 0.7766 0.6060 -0.2210
v 1.0876 0.5071 0.0000
v 1.0876 0.5071 0.0000
v 1.0876 0.5071 0.0000
v 1.0876 0.5071 0.0000
v 1.0876 0.5071 0.0000
v 1.0876 0.5071 -0.0000
v 1.0876 0.5071 -0.0000
v 1.0876 0.5071 -0.0000
v -0.7480 -0.2363 0.0000
v -0.7480 -0.2363 0.0000
v -0.7480 -0.2363 0.0000
v -0.7480 -0.2363 0.0000
v -0.7480 -0.2363 0.0000
v -0.7480 -0.2363 0.0000
v -0.0733 0.0745 0.0000
v -0.4253 -0.0331 0.2400
v -1.1293 -0.2483 0.2400
v -1.4812 -0.3559 0.0000
v -1.1293 -0.2483 -0.2400
v -0.4253 -0.0331 -0.2400
v -0.1318 0.2658 0.0000
v -0.4838 0.1582 0.2400
v -1.1877 -0.0571 0.2400
v -1.5397 -0.1647 0.0000
v -1.1877 -0.0571 -0.2400
v -0.4838 0.1582 -0.2400
v -0.8650 0.1462 0.0000
v -0.8650 0.1462 0.0000
v -0.8650 0.1462 0.0000
v -0.8650 0.1462 0.0000
v -0.8650 0.1462 -0.0000
v -0.8650 0.1462 -0.0000
v -0.6456 -0.3573 0.0866
v -0.6456 -0.3573 0.0866
v -0.6456 -0.3573 0.0866
v -0.6456 -0.3573 0.0866
v -0.6456 -0.3573 0.0866
v -0.6456 -0.3573 0.0866
v 0.0730 -0.1899 0.1732
v -0.2182 -0.4962 0.0532
v -0.9222 -0.7115 0.0532
v -1.3349 -0.6203 0.1732
v -1.0437 -0.3139 0.2932
v -0.3397 -0.0987 0.2932
v 0.1022 -0.2855 0.3464
v -0.1890 -0.5919 0.2264
v -0.8929 -0.8071 0.2264
v -1.3057 -0.7159 0.3464
v -1.0145 -0.4096 0.4664
v -0.3105 -0.1944 0.4664
v -0.5871 -0.5485 0.4330
v -0.5871 -0.5485 0.4330
v -0.5871 -0.5485 0.4330
v -0.5871 -0.5485 0.4330
v -0.5871 -0.5485 0.4330
v -0.5871 -0.5485 0.4330
v -0.6456 -0.3573 -0.0866
v -0.6456 -0.3573 -0.0866
v -0.6456 -0.3573 -0.0866
v -0.6456 -0.3573 -0.0866
v -0.6456 -0.3573 -0.0866
v -0.6456 -0.3573 -0.0866
v 0.0730 -0.1899 -0.1732
v -0.3397 -0.0987 -0.2932
v -1.0437 -0.3139 -0.2932
v -1.3349 -0.6203 -0.1732
v -0.9222 -0.7115 -0.0532
v -0.2182 -0.4962 -0.0532
v 0.1022 -0.2855 -0.3464
v -0.3105 -0.1944 -0.4664
v -1.0145 -0.4096 -0.4664
v -1.3057 -0.7159 -0.3464
v -0.8929 -0.8071 -0.2264
v -0.1890 -0.5919 -0.2264
v -0.5871 -0.5485 -0.4330
v -0.5871 -0.5485 -0.4330
v -0.5871 -0.5485 -0.4330
v -0.5871 -0.5485 -0.4330
v -0.5871 -0.5485 -0.4330
v -0.5871 -0.5485 -0.4330
vn -0.9466 0.2101 0.2446
vn -0.8004 -0.1034 0.5905
vn -0.5937 -0.5467 0.5905
vn -0.4475 -0.8602 0.2446
vn -0.4475 -0.8602 -0.2446
vn -0.5937 -0.5467 -0.5905
vn -0.8004 -0.1034 -0.5905
vn -0.9466 0.2101 -0.2446
vn -0.6698 0.6489 0.3609
vn -0.6698 0.6489 0.3609
vn -0.4541 0.1864 0.8712
vn -0.4541 0.1864 0.8712
vn -0.1491 -0.4677 0.8712
vn -0.1491 -0.4677 0.8712
vn 0.0666 -0.9302 0.3609
vn 0.0666 -0.9302 0.3609
vn 0.0666 -0.9302 -0.3609
vn 0.0666 -0.9302 -0.3609
vn -0.1491 -0.4677 -0.8712
vn -0.1491 -0.4677 -0.8712
vn -0.4541 0.1864 -0.8712
vn -0.4541 0.1864 -0.8712
vn -0.6698 0.6489 -0.3609
vn -0.6698 0.6489 -0.3609
vn -0.5700 0.7314 0.3744
vn -0.5700 0.7314 0.3744
vn -0.3463 0.2516 0.9038
vn -0.3463 0.2516 0.9038
vn -0.0299 -0.4270 0.9038
vn -0.0299 -0.4270 0.9038
vn 0.1939 -0.9068 0.3744
vn 0.1939 -0.9068 0.3744
vn 0.1939 -0.9068 -0.3744
vn 0.1939 -0.9068 -0.3744
vn -0.0299 -0.4270 -0.9038
vn -0.0299 -0.4270 -0.9038
vn -0.3463 0.2516 -0.9038
vn -0.3463 0.2516 -0.9038
vn -0.5700 0.7314 -0.3744
vn -0.5700 0.7314 -0.3744
vn -0.4941 0.7819 0.3800
vn -0.4941 0.7819 0.3800
vn -0.2670 0.2948 0.9175
vn -0.2670 0.2948 0.9175
vn 0.0542 -0.3940 0.9175
vn 0.0542 -0.3940 0.9175
vn 0.2814 -0.8811 0.3800
vn 0.2814 -0.8811 0.3800
vn 0.2814 -0.8811 -0.3800
vn 0.2814 -0.8811 -0.3800
vn 0.0542 -0.3940 -0.9175
vn 0.0542 -0.3940 -0.9175
vn -0.2670 0.2948 -0.9175
vn -0.2670 0.2948 -0.9175
vn -0.4941 0.7819 -0.3800
vn -0.4941 0.7819 -0.3800
vn -0.4248 0.8206 0.3824
vn -0.4248 0.8206 0.3824
vn -0.1963 0.3304 0.9232
vn -0.1963 0.3304 0.9232
vn 0.1270 -0.3627 0.9232
vn 0.1270 -0.3627 0.9232
vn 0.3555 -0.8529 0.3824
vn 0.3555 -0.8529 0.3824
vn 0.3555 -0.8529 -0.3824
vn 0.3555 -0.8529 -0.3824
vn 0.1270 -0.3627 -0.9232
vn 0.1270 -0.3627 -0.9232
vn -0.1963 0.3304 -0.9232
vn -0.1963 0.3304 -0.9232
vn -0.4248 0.8206 -0.3824
vn -0.4248 0.8206 -0.3824
vn -0.3555 0.8529 0.3824
vn -0.3555 0.8529 0.3824
vn -0.1270 0.3627 0.9232
vn -0.1270 0.3627 0.9232
vn 0.1963 -0.3304 0.9232
vn 0.1963 -0.3304 0.9232
vn 0.4248 -0.8206 0.3824
vn 0.4248 -0.8206 0.3824
vn 0.4248 -0.8206 -0.3824
vn 0.4248 -0.8206 -0.3824
vn 0.1963 -0.3304 -0.9232
vn 0.1963 -0.3304 -0.9232
vn -0.1270 0.3627 -0.9232
vn -0.1270 0.3627 -0.9232
vn -0.3555 0.8529 -0.3824
vn -0.3555 0.8529 -0.3824
vn -0.2814 0.8811 0.3800
vn -0.2814 0.8811 0.3800
vn -0.0542 0.3940 0.9175
vn -0.0542 0.3940 0.9175
vn 0.2670 -0.2948 0.9175
vn 0.2670 -0.2948 0.9175
vn 0.4941 -0.7819 0.3800
vn 0.4941 -0.7819 0.3800
vn 0.4941 -0.7819 -0.3800
vn 0.4941 -0.7819 -0.3800
vn 0.2670 -0.2948 -0.9175
vn 0.2670 -0.2948 -0.9175
vn -0.0542 0.3940 -0.9175
vn -0.0542 0.3940 -0.9175
vn -0.2814 0.8811 -0.3800
vn -0.2814 0.8811 -0.3800
vn -0.1939 0.9068 0.3744
vn -0.1939 0.9068 0.3744
vn 0.0299 0.4270 0.9038
vn 0.0299 0.4270 0.9038
vn 0.3463 -0.2516 0.9038
vn 0.3463 -0.2516 0.9038
vn 0.5700 -0.7314 0.3744
vn 0.5700 -0.7314 0.3744
vn 0.5700 -0.7314 -0.3744
vn 0.5700 -0.7314 -0.3744
vn 0.3463 -0.2516 -0.9038
vn 0.3463 -0.2516 -0.9038
vn 0.0299 0.4270 -0.9038
vn 0.0299 0.4270 -0.9038
vn -0.1939 0.9068 -0.3744
vn -0.1939 0.9068 -0.3744
vn -0.0666 0.9302 0.3609
vn -0.0666 0.9302 0.3609
vn 0.1491 0.4677 0.8712
vn 0.1491 0.4677 0.8712
vn 0.4541 -0.1864 0.8712
vn 0.4541 -0.1864 0.8712
vn 0.6698 -0.6489 0.3609
vn 0.6698 -0.6489 0.3609
vn 0.6698 -0.6489 -0.3609
vn 0.6698 -0.6489 -0.3609
vn 0.4541 -0.1864 -0.8712
vn 0.4541 -0.1864 -0.8712
vn 0.1491 0.4677 -0.8712
vn 0.1491 0.4677 -0.8712
vn -0.0666 0.9302 -0.3609
vn -0.0666 0.9302 -0.3609
vn 0.4475 0.8602 0.2446
vn 0.4475 0.8602 0.2446
vn 0.5937 0.5467 0.5905
vn 0.5937 0.5467 0.5905
vn 0.8004 0.1034 0.5905
vn 0.8004 0.1034 0.5905
vn 0.9466 -0.2101 0.2446
vn 0.9466 -0.2101 0.2446
vn 0.9466 -0.2101 -0.2446
vn 0.9466 -0.2101 -0.2446
vn 0.8004 0.1034 -0.5905
vn 0.8004 0.1034 -0.5905
vn 0.5937 0.5467 -0.5905
vn 0.5937 0.5467 -0.5905
vn 0.4475 0.8602 -0.2446
vn 0.4475 0.8602 -0.2446
vn -0.4098 0.8895 -0.2022
vn -0.2699 0.8827 -0.3846
vn -0.1577 0.9666 -0.2022
vn -0.1577 0.9666 0.2022
vn -0.2699 0.8827 0.3846
vn -0.4098 0.8895 0.2022
vn -0.5223 -0.1597 -0.8377
vn -0.5223 -0.1597 -0.8377
vn -0.0000 0.0000 -1.0000
vn -0.0000 0.0000 -1.0000
vn 0.5223 0.1597 -0.8377
vn 0.5223 0.1597 -0.8377
vn 0.5223 0.1597 0.8377
vn 0.5223 0.1597 0.8377
vn -0.0000 0.0000 1.0000
vn -0.0000 0.0000 1.0000
vn -0.5223 -0.1597 0.8377
vn -0.5223 -0.1597 0.8377
vn 0.1577 -0.9666 -0.2022
vn 0.2699 -0.8827 -0.3846
vn 0.4098 -0.8895 -0.2022
vn 0.4098 -0.8895 0.2022
vn 0.2699 -0.8827 0.3846
vn 0.1577 -0.9666 0.2022
vn -0.0354 -0.3351 0.9415
vn 0.0376 -0.1228 0.9917
vn 0.2167 -0.2580 0.9415
vn 0.3191 -0.5929 0.7393
vn 0.2323 -0.7599 0.6071
vn 0.0670 -0.6700 0.7393
vn -0.7344 0.5340 0.4188
vn -0.7344 0.5340 0.4188
vn -0.2532 0.8282 0.5000
vn -0.2532 0.8282 0.5000
vn 0.3102 0.8534 0.4188
vn 0.3102 0.8534 0.4188
vn 0.7344 -0.5340 -0.4188
vn 0.7344 -0.5340 -0.4188
vn 0.2532 -0.8282 -0.5000
vn 0.2532 -0.8282 -0.5000
vn -0.3102 -0.8534 -0.4188
vn -0.3102 -0.8534 -0.4188
vn -0.3191 0.5929 -0.7393
vn -0.2323 0.7599 -0.6071
vn -0.0670 0.6700 -0.7393
vn 0.0354 0.3351 -0.9415
vn -0.0376 0.1228 -0.9917
vn -0.2167 0.2580 -0.9415
vn 0.0670 -0.6700 -0.7393
vn 0.2323 -0.7599 -0.6071
vn 0.3191 -0.5929 -0.7393
vn 0.2167 -0.2580 -0.9415
vn 0.0376 -0.1228 -0.9917
vn -0.0354 -0.3351 -0.9415
vn -0.3102 -0.8534 0.4188
vn -0.3102 -0.8534 0.4188
vn 0.2532 -0.8282 0.5000
vn 0.2532 -0.8282 0.5000
vn 0.7344 -0.5340 0.4188
vn 0.7344 -0.5340 0.4188
vn 0.3102 0.8534 -0.4188
vn 0.3102 0.8534 -0.4188
vn -0.2532 0.8282 -0.5000
vn -0.2532 0.8282 -0.5000
vn -0.7344 0.5340 -0.4188
vn -0.7344 0.5340 -0.4188
vn -0.2167 0.2580 0.9415
vn -0.0376 0.1228 0.9917
vn 0.0354 0.3351 0.9415
vn -0.0670 0.6700 0.7393
vn -0.2323 0.7599 0.6071
vn -0.3191 0.5929 0.7393
usemtl c0
f 1//1 10//1 9//1
f 2//2 11//2 10//2
f 3//3 12//3 11//3
f 4//4 13//4 12//4
f 5//5 14//5 13//5
f 6//6 15//6 14//6
f 7//7 16//7 15//7
f 8//8 9//8 16//8
f 9//9 10//9 18//9
f 9//10 18//10 17//10
f 10//11 11//11 19//11
f 10//12 19//12 18//12
f 11//13 12//13 20//13
f 11//14 20//14 19//14
f 12//15 13//15 21//15
f 12//16 21//16 20//16
f 13//17 14//17 22//17
f 13//18 22//18 21//18
f 14//19 15//19 23//19
f 14//20 23//20 22//20
f 15//21 16//21 24//21
f 15//22 24//22 23//22
f 16//23 9//23 17//23
f 16//24 17//24 24//24
f 17//25 18//25 26//25
f 17//26 26//26 25//26
f 18//27 19//27 27//27
f 18//28 27//28 26//28
f 19//29 20//29 28//29
f 19//30 28//30 27//30
f 20//31 21//31 29//31
f 20//32 29//32 28//32
f 21//33 22//33 30//33
f 21//34 30//34 29//34
f 22//35 23//35 31//35
f 22//36 31//36 30//36
f 23//37 24//37 32//37
f 23//38 32//38 31//38
f 24//39 17//39 25//39
f 24//40 25//40 32//40
f 25//41 26//41 34//41
f 25//42 34//42 33//42
f 26//43 27//43 35//43
f 26//44 35//44 34//44
f 27//45 28//45 36//45
f 27//46 36//46 35//46
f 28//47 29//47 37//47
f 28//48 37//48 36//48
f 29//49 30//49 38//49
f 29//50 38//50 37//50
f 30//51 31//51 39//51
f 30//52 39//52 38//52
f 31//53 32//53 40//53
f 31//54 40//54 39//54
f 32//55 25//55 33//55
f 32//56 33//56 40//56
f 33//57 34//57 42//57
f 33//58 42//58 41//58
f 34//59 35//59 43//59
f 34//60 43//60 42//60
f 35//61 36//61 44//61
f 35//62 44//62 43//62
f 36//63 37//63 45//63
f 36//64 45//64 44//64
f 37//65 38//65 46//65
f 37//66 46//66 45//66
f 38//67 39//67 47//67
f 38//68 47//68 46//68
f 39//69 40//69 48//69
f 39//70 48//70 47//70
f 40//71 33//71 41//71
f 40//72 41//72 48//72
f 41//73 42//73 50//73
f 41//74 50//74 49//74
f 42//75 43//75 51//75
f 42//76 51//76 50//76
f 43//77 44//77 52//77
f 43//78 52//78 51//78
f 44//79 45//79 53//79
f 44//80 53//80 52//80
f 45//81 46//81 54//81
f 45//82 54//82 53//82
f 46//83 47//83 55//83
f 46//84 55//84 54//84
f 47//85 48//85 56//85
f 47//86 56//86 55//86
f 48//87 41//87 49//87
f 48//88 49//88 56//88
f 49//89 50//89 58//89
f 49//90 58//90 57//90
f 50//91 51//91 59//91
f 50//92 59//92 58//92
f 51//93 52//93 60//93
f 51//94 60//94 59//94
f 52//95 53//95 61//95
f 52//96 61//96 60//96
f 53//97 54//97 62//97
f 53//98 62//98 61//98
f 54//99 55//99 63//99
f 54//100 63//100 62//100
f 55//101 56//101 64//101
f 55//102 64//102 63//102
f 56//103 49//103 57//103
f 56//104 57//104 64//104
f 57//105 58//105 66//105
f 57//106 66//106 65//106
f 58//107 59//107 67//107
f 58//108 67//108 66//108
f 59//109 60//109 68//109
f 59//110 68//110 67//110
f 60//111 61//111 69//111
f 60//112 69//112 68//112
f 61//113 62//113 70//113
f 61//114 70//114 69//114
f 62//115 63//115 71//115
f 62//116 71//116 70//116
f 63//117 64//117 72//117
f 63//118 72//118 71//118
f 64//119 57//119 65//119
f 64//120 65//120 72//120
f 65//121 66//121 74//121
f 65//122 74//122 73//122
f 66//123 67//123 75//123
f 66//124 75//124 74//124
f 67//125 68//125 76//125
f 67//126 76//126 75//126
f 68//127 69//127 77//127
f 68//128 77//128 76//128
f 69//129 70//129 78//129
f 69//130 78//130 77//130
f 70//131 71//131 79//131
f 70//132 79//132 78//132
f 71//133 72//133 80//133
f 71//134 80//134 79//134
f 72//135 65//135 73//135
f 72//136 73//136 80//136
f 73//137 74//137 82//137
f 73//138 82//138 81//138
f 74//139 75//139 83//139
f 74//140 83//140 82//140
f 75//141 76//141 84//141
f 75//142 84//142 83//142
f 76//143 77//143 85//143
f 76//144 85//144 84//144
f 77//145 78//145 86//145
f 77//146 86//146 85//146
f 78//147 79//147 87//147
f 78//148 87//148 86//148
f 79//149 80//149 88//149
f 79//150 88//150 87//150
f 80//151 73//151 81//151
f 80//152 81//152 88//152
usemtl c1
f 89//153 96//153 95//153
f 90//154 97//154 96//154
f 91//155 98//155 97//155
f 92//156 99//156 98//156
f 93//157 100//157 99//157
f 94//158 95//158 100//158
f 95//159 96//159 102//159
f 95//160 102//160 101//160
f 96//161 97//161 103//161
f 96//162 103//162 102//162
f 97//163 98//163 104//163
f 97//164 104//164 103//164
f 98//165 99//165 105//165
f 98//166 105//166 104//166
f 99//167 100//167 106//167
f 99//168 106//168 105//168
f 100//169 95//169 101//169
f 100//170 101//170 106//170
f 101//171 102//171 108//171
f 102//172 103//172 109//172
f 103//173 104//173 110//173
f 104//174 105//174 111//174
f 105//175 106//175 112//175
f 106//176 101//176 107//176
f 113//177 120//177 119//177
f 114//178 121//178 120//178
f 115//179 122//179 121//179
f 116//180 123//180 122//180
f 117//181 124//181 123//181
f 118//182 119//182 124//182
f 119//183 120//183 126//183
f 119//184 126//184 125//184
f 120//185 121//185 127//185
f 120//186 127//186 126//186
f 121//187 122//187 128//187
f 121//188 128//188 127//188
f 122//189 123//189 129//189
f 122//190 129//190 128//190
f 123//191 124//191 130//191
f 123//192 130//192 129//192
f 124//193 119//193 125//193
f 124//194 125//194 130//194
f 125//195 126//195 132//195
f 126//196 127//196 133//196
f 127//197 128//197 134//197
f 128//198 129//198 135//198
f 129//199 130//199 136//199
f 130//200 125//200 131//200
f 137//201 144//201 143//201
f 138//202 145//202 144//202
f 139//203 146//203 145//203
f 140//204 147//204 146//204
f 141//205 148//205 147//205
f 142//206 143//206 148//206
f 143//207 144//207 150//207
f 143//208 150//208 149//208
f 144//209 145//209 151//209
f 144//210 151//210 150//210
f 145//211 146//211 152//211
f 145//212 152//212 151//212
f 146//213 147//213 153//213
f 146//214 153//214 152//214
f 147//215 148//215 154//215
f 147//216 154//216 153//216
f 148//217 143//217 149//217
f 148//218 149//218 154//218
f 149//219 150//219 156//219
f 150//220 151//220 157//220
f 151//221 152//221 158//221
f 152//222 153//222 159//222
f 153//223 154//223 160//223
f 154//224 149//224 155//224
