mtllib Food_Cabbage.mtl
v 0.0000 -0.0200 0.0000
v 0.0000 -0.0200 0.0000
v 0.0000 -0.0200 0.0000
v 0.0000 -0.0200 0.0000
v 0.0000 -0.0200 0.0000
v 0.0000 -0.0200 0.0000
v 0.0000 -0.0200 0.0000
v 0.0000 -0.0200 0.0000
v 0.5878 0.1557 0.0000
v 0.4156 0.1557 0.4156
v 0.0000 0.1557 0.5878
v -0.4156 0.1557 0.4156
v -0.5878 0.1557 0.0000
v -0.4156 0.1557 -0.4156
v -0.0000 0.1557 -0.5878
v 0.4156 0.1557 -0.4156
v 0.9511 0.6157 0.0000
v 0.6725 0.6157 0.6725
v 0.0000 0.6157 0.9511
v -0.6725 0.6157 0.6725
v -0.9511 0.6157 0.0000
v -0.6725 0.6157 -0.6725
v -0.0000 0.6157 -0.9511
v 0.6725 0.6157 -0.6725
v 0.9511 1.1843 0.0000
v 0.6725 1.1843 0.6725
v 0.0000 1.1843 0.9511
v -0.6725 1.1843 0.6725
v -0.9511 1.1843 0.0000
v -0.6725 1.1843 -0.6725
v -0.0000 1.1843 -0.9511
v 0.6725 1.1843 -0.6725
v 0.5878 1.6443 0.0000
v 0.4156 1.6443 0.4156
v 0.0000 1.6443 0.5878
v -0.4156 1.6443 0.4156
v -0.5878 1.6443 0.0000
v -0.4156 1.6443 -0.4156
v -0.0000 1.6443 -0.5878
v 0.4156 1.6443 -0.4156
v 0.0000 1.8200 0.0000
v 0.0000 1.8200 0.0000
v 0.0000 1.8200 0.0000
v -0.0000 1.8200 0.0000
v -0.0000 1.8200 0.0000
v -0.0000 1.8200 -0.0000
v -0.0000 1.8200 -0.0000
v 0.0000 1.8200 -0.0000
v 0.6794 0.3670 0.0000
v 0.6794 0.3670 0.0000
v 0.6794 0.3670 0.0000
v 0.6794 0.3670 0.0000
v 0.6794 0.3670 0.0000
v 0.6794 0.3670 0.0000
v 0.6415 0.5085 -0.3889
v 0.7125 0.5275 -0.1945
v 0.7125 0.5275 0.1945
v 0.6415 0.5085 0.3889
v 0.5705 0.4895 0.1945
v 0.5705 0.4895 -0.1945
v 0.5500 0.8500 -0.5500
v 0.6504 0.8769 -0.2750
v 0.6504 0.8769 0.2750
v 0.5500 0.8500 0.5500
v 0.4496 0.8231 0.2750
v 0.4496 0.8231 -0.2750
v 0.4585 1.1915 -0.3889
v 0.5295 1.2105 -0.1945
v 0.5295 1.2105 0.1945
v 0.4585 1.1915 0.3889
v 0.3875 1.1725 0.1945
v 0.3875 1.1725 -0.1945
v 0.4206 1.3330 -0.0000
v 0.4206 1.3330 -0.0000
v 0.4206 1.3330 0.0000
v 0.4206 1.3330 0.0000
v 0.4206 1.3330 0.0000
v 0.4206 1.3330 -0.0000
v 0.1294 0.3670 0.5500
v 0.1294 0.3670 0.5500
v 0.1294 0.3670 0.5500
v 0.1294 0.3670 0.5500
v 0.1294 0.3670 0.5500
v 0.1294 0.3670 0.5500
v 0.4672 0.6092 0.5500
v 0.2793 0.5588 0.6235
v -0.0963 0.4582 0.6235
v -0.2842 0.4078 0.5500
v -0.0963 0.4582 0.4765
v 0.2793 0.5588 0.4765
v 0.5313 0.9924 0.5500
v 0.2656 0.9212 0.6539
v -0.2656 0.7788 0.6539
v -0.5313 0.7076 0.5500
v -0.2656 0.7788 0.4461
v 0.2656 0.9212 0.4461
v 0.2842 1.2922 0.5500
v 0.0963 1.2418 0.6235
v -0.2793 1.1412 0.6235
v -0.4672 1.0908 0.5500
v -0.2793 1.1412 0.4765
v 0.0963 1.2418 0.4765
v -0.1294 1.3330 0.5500
v -0.1294 1.3330 0.5500
v -0.1294 1.3330 0.5500
v -0.1294 1.3330 0.5500
v -0.1294 1.3330 0.5500
v -0.1294 1.3330 0.5500
v -0.4206 0.3670 0.0000
v -0.4206 0.3670 0.0000
v -0.4206 0.3670 0.0000
v -0.4206 0.3670 0.0000
v -0.4206 0.3670 0.0000
v -0.4206 0.3670 0.0000
v -0.4585 0.5085 0.3889
v -0.5295 0.4895 0.1945
v -0.5295 0.4895 -0.1945
v -0.4585 0.5085 -0.3889
v -0.3875 0.5275 -0.1945
v -0.3875 0.5275 0.1945
v -0.5500 0.8500 0.5500
v -0.6504 0.8231 0.2750
v -0.6504 0.8231 -0.2750
v -0.5500 0.8500 -0.5500
v -0.4496 0.8769 -0.2750
v -0.4496 0.8769 0.2750
v -0.6415 1.1915 0.3889
v -0.7125 1.1725 0.1945
v -0.7125 1.1725 -0.1945
v -0.6415 1.1915 -0.3889
v -0.5705 1.2105 -0.1945
v -0.5705 1.2105 0.1945
v -0.6794 1.3330 0.0000
v -0.6794 1.3330 0.0000
v -0.6794 1.3330 0.0000
v -0.6794 1.3330 0.0000
v -0.6794 1.3330 0.0000
v -0.6794 1.3330 0.0000
v 0.1294 0.3670 -0.5500
v 0.1294 0.3670 -0.5500
v 0.1294 0.3670 -0.5500
v 0.1294 0.3670 -0.5500
v 0.1294 0.3670 -0.5500
v 0.1294 0.3670 -0.5500
v -0.2842 0.4078 -0.5500
v -0.0963 0.4582 -0.6235
v 0.2793 0.5588 -0.6235
v 0.4672 0.6092 -0.5500
v 0.2793 0.5588 -0.4765
v -0.0963 0.4582 -0.4765
v -0.5313 0.7076 -0.5500
v -0.2656 0.7788 -0.6539
v 0.2656 0.9212 -0.6539
v 0.5313 0.9924 -0.5500
v 0.2656 0.9212 -0.4461
v -0.2656 0.7788 -0.4461
v -0.4672 1.0908 -0.5500
v -0.2793 1.1412 -0.6235
v 0.0963 1.2418 -0.6235
v 0.2842 1.2922 -0.5500
v 0.0963 1.2418 -0.4765
v -0.2793 1.1412 -0.4765
v -0.1294 1.3330 -0.5500
v -0.1294 1.3330 -0.5500
v -0.1294 1.3330 -0.5500
v -0.1294 1.3330 -0.5500
v -0.1294 1.3330 -0.5500
v -0.1294 1.3330 -0.5500
vn -0.2844 0.9514 -0.1178
vn -0.1178 0.9514 -0.2844
vn 0.1178 0.9514 -0.2844
vn 0.2844 0.9514 -0.1178
vn 0.2844 0.9514 0.1178
vn 0.1178 0.9514 0.2844
vn -0.1178 0.9514 0.2844
vn -0.2844 0.9514 0.1178
vn -0.7463 0.5894 -0.3091
vn -0.7463 0.5894 -0.3091
vn -0.3091 0.5894 -0.7463
vn -0.3091 0.5894 -0.7463
vn 0.3091 0.5894 -0.7463
vn 0.3091 0.5894 -0.7463
vn 0.7463 0.5894 -0.3091
vn 0.7463 0.5894 -0.3091
vn 0.7463 0.5894 0.3091
vn 0.7463 0.5894 0.3091
vn 0.3091 0.5894 0.7463
vn 0.3091 0.5894 0.7463
vn -0.3091 0.5894 0.7463
vn -0.3091 0.5894 0.7463
vn -0.7463 0.5894 0.3091
vn -0.7463 0.5894 0.3091
vn -0.9239 0.0000 -0.3827
vn -0.9239 0.0000 -0.3827
vn -0.3827 0.0000 -0.9239
vn -0.3827 0.0000 -0.9239
vn 0.3827 0.0000 -0.9239
vn 0.3827 0.0000 -0.9239
vn 0.9239 0.0000 -0.3827
vn 0.9239 0.0000 -0.3827
vn 0.9239 0.0000 0.3827
vn 0.9239 0.0000 0.3827
vn 0.3827 0.0000 0.9239
vn 0.3827 -0.0000 0.9239
vn -0.3827 0.0000 0.9239
vn -0.3827 0.0000 0.9239
vn -0.9239 0.0000 0.3827
vn -0.9239 0.0000 0.3827
vn -0.7463 -0.5894 -0.3091
vn -0.7463 -0.5894 -0.3091
vn -0.3091 -0.5894 -0.7463
vn -0.3091 -0.5894 -0.7463
vn 0.3091 -0.5894 -0.7463
vn 0.3091 -0.5894 -0.7463
vn 0.7463 -0.5894 -0.3091
vn 0.7463 -0.5894 -0.3091
vn 0.7463 -0.5894 0.3091
vn 0.7463 -0.5894 0.3091
vn 0.3091 -0.5894 0.7463
vn 0.3091 -0.5894 0.7463
vn -0.3091 -0.5894 0.7463
vn -0.3091 -0.5894 0.7463
vn -0.7463 -0.5894 0.3091
vn -0.7463 -0.5894 0.3091
vn -0.2844 -0.9514 -0.1178
vn -0.1178 -0.9514 -0.2844
vn 0.1178 -0.9514 -0.2844
vn 0.2844 -0.9514 -0.1178
vn 0.2844 -0.9514 0.1178
vn 0.1178 -0.9514 0.2844
vn -0.1178 -0.9514 0.2844
vn -0.2844 -0.9514 0.1178
vn -0.8359 0.4846 0.2577
vn -0.9794 0.2019 0.0000
vn -0.8359 0.4846 -0.2577
vn 0.4816 0.8376 -0.2577
vn 0.7473 0.6645 -0.0000
vn 0.4816 0.8376 0.2577
vn -0.9332 -0.0854 0.3490
vn -0.9332 -0.0854 0.3490
vn -0.9846 -0.1750 0.0000
vn -0.9846 -0.1750 0.0000
vn -0.9332 -0.0854 -0.3490
vn -0.9332 -0.0854 -0.3490
vn 0.8509 0.3926 -0.3490
vn 0.8509 0.3926 -0.3490
vn 0.9402 0.3407 -0.0000
vn 0.9402 0.3407 0.0000
vn 0.8509 0.3926 0.3490
vn 0.8509 0.3926 0.3490
vn -0.8509 -0.3926 0.3490
vn -0.8509 -0.3926 0.3490
vn -0.9402 -0.3407 0.0000
vn -0.9402 -0.3407 0.0000
vn -0.8509 -0.3926 -0.3490
vn -0.8509 -0.3926 -0.3490
vn 0.9332 0.0854 -0.3490
vn 0.9332 0.0854 -0.3490
vn 0.9846 0.1750 0.0000
vn 0.9846 0.1750 0.0000
vn 0.9332 0.0854 0.3490
vn 0.9332 0.0854 0.3490
vn -0.4816 -0.8376 0.2577
vn -0.7473 -0.6645 0.0000
vn -0.4816 -0.8376 -0.2577
vn 0.8359 -0.4846 -0.2577
vn 0.9794 -0.2019 0.0000
vn 0.8359 -0.4846 0.2577
vn -0.4261 0.5944 -0.6820
vn -0.1161 0.4332 -0.8938
vn 0.0718 0.7278 -0.6820
vn 0.0718 0.7278 0.6820
vn -0.1161 0.4332 0.8938
vn -0.4261 0.5944 0.6820
vn -0.3783 0.0633 -0.9235
vn -0.3783 0.0633 -0.9235
vn -0.0222 0.0829 -0.9963
vn -0.0222 0.0829 -0.9963
vn 0.2960 0.2439 -0.9235
vn 0.2960 0.2439 -0.9235
vn 0.2960 0.2439 0.9235
vn 0.2960 0.2439 0.9235
vn -0.0222 0.0829 0.9963
vn -0.0222 0.0829 0.9963
vn -0.3783 0.0633 0.9235
vn -0.3783 0.0633 0.9235
vn -0.2960 -0.2439 -0.9235
vn -0.2960 -0.2439 -0.9235
vn 0.0222 -0.0829 -0.9963
vn 0.0222 -0.0829 -0.9963
vn 0.3783 -0.0633 -0.9235
vn 0.3783 -0.0633 -0.9235
vn 0.3783 -0.0633 0.9235
vn 0.3783 -0.0633 0.9235
vn 0.0222 -0.0829 0.9963
vn 0.0222 -0.0829 0.9963
vn -0.2960 -0.2439 0.9235
vn -0.2960 -0.2439 0.9235
vn -0.0718 -0.7278 -0.6820
vn 0.1161 -0.4332 -0.8938
vn 0.4261 -0.5944 -0.6820
vn 0.4261 -0.5944 0.6820
vn 0.1161 -0.4332 0.8938
vn -0.0718 -0.7278 0.6820
vn 0.4816 0.8376 -0.2577
vn 0.7473 0.6645 0.0000
vn 0.4816 0.8376 0.2577
vn -0.8359 0.4846 0.2577
vn -0.9794 0.2019 0.0000
vn -0.8359 0.4846 -0.2577
vn 0.8509 0.3926 -0.3490
vn 0.8509 0.3926 -0.3490
vn 0.9402 0.3407 0.0000
vn 0.9402 0.3407 -0.0000
vn 0.8509 0.3926 0.3490
vn 0.8509 0.3926 0.3490
vn -0.9332 -0.0854 0.3490
vn -0.9332 -0.0854 0.3490
vn -0.9846 -0.1750 0.0000
vn -0.9846 -0.1750 0.0000
vn -0.9332 -0.0854 -0.3490
vn -0.9332 -0.0854 -0.3490
vn 0.9332 0.0854 -0.3490
vn 0.9332 0.0854 -0.3490
vn 0.9846 0.1750 -0.0000
vn 0.9846 0.1750 0.0000
vn 0.9332 0.0854 0.3490
vn 0.9332 0.0854 0.3490
vn -0.8509 -0.3926 0.3490
vn -0.8509 -0.3926 0.3490
vn -0.9402 -0.3407 0.0000
vn -0.9402 -0.3407 0.0000
vn -0.8509 -0.3926 -0.3490
vn -0.8509 -0.3926 -0.3490
vn 0.8359 -0.4846 -0.2577
vn 0.9794 -0.2019 0.0000
vn 0.8359 -0.4846 0.2577
vn -0.4816 -0.8376 0.2577
vn -0.7473 -0.6645 0.0000
vn -0.4816 -0.8376 -0.2577
vn 0.0718 0.7278 0.6820
vn -0.1161 0.4332 0.8938
vn -0.4261 0.5944 0.6820
vn -0.4261 0.5944 -0.6820
vn -0.1161 0.4332 -0.8938
vn 0.0718 0.7278 -0.6820
vn 0.2960 0.2439 0.9235
vn 0.2960 0.2439 0.9235
vn -0.0222 0.0829 0.9963
vn -0.0222 0.0829 0.9963
vn -0.3783 0.0633 0.9235
vn -0.3783 0.0633 0.9235
vn -0.3783 0.0633 -0.9235
vn -0.3783 0.0633 -0.9235
vn -0.0222 0.0829 -0.9963
vn -0.0222 0.0829 -0.9963
vn 0.2960 0.2439 -0.9235
vn 0.2960 0.2439 -0.9235
vn 0.3783 -0.0633 0.9235
vn 0.3783 -0.0633 0.9235
vn 0.0222 -0.0829 0.9963
vn 0.0222 -0.0829 0.9963
vn -0.2960 -0.2439 0.9235
vn -0.2960 -0.2439 0.9235
vn -0.2960 -0.2439 -0.9235
vn -0.2960 -0.2439 -0.9235
vn 0.0222 -0.0829 -0.9963
vn 0.0222 -0.0829 -0.9963
vn 0.3783 -0.0633 -0.9235
vn 0.3783 -0.0633 -0.9235
vn 0.4261 -0.5944 0.6820
vn 0.1161 -0.4332 0.8938
vn -0.0718 -0.7278 0.6820
vn -0.0718 -0.7278 -0.6820
vn 0.1161 -0.4332 -0.8938
vn 0.4261 -0.5944 -0.6820
usemtl c0
f 1//1 10//1 9//1
f 2//2 11//2 10//2
f 3//3 12//3 11//3
f 4//4 13//4 12//4
f 5//5 14//5 13//5
f 6//6 15//6 14//6
f 7//7 16//7 15//7
f 8//8 9//8 16//8
f 9//9 10//9 18//9
f 9//10 18//10 17//10
f 10//11 11//11 19//11
f 10//12 19//12 18//12
f 11//13 12//13 20//13
f 11//14 20//14 19//14
f 12//15 13//15 21//15
f 12//16 21//16 20//16
f 13//17 14//17 22//17
f 13//18 22//18 21//18
f 14//19 15//19 23//19
f 14//20 23//20 22//20
f 15//21 16//21 24//21
f 15//22 24//22 23//22
f 16//23 9//23 17//23
f 16//24 17//24 24//24
f 17//25 18//25 26//25
f 17//26 26//26 25//26
f 18//27 19//27 27//27
f 18//28 27//28 26//28
f 19//29 20//29 28//29
f 19//30 28//30 27//30
f 20//31 21//31 29//31
f 20//32 29//32 28//32
f 21//33 22//33 30//33
f 21//34 30//34 29//34
f 22//35 23//35 31//35
f 22//36 31//36 30//36
f 23//37 24//37 32//37
f 23//38 32//38 31//38
f 24//39 17//39 25//39
f 24//40 25//40 32//40
f 25//41 26//41 34//41
f 25//42 34//42 33//42
f 26//43 27//43 35//43
f 26//44 35//44 34//44
f 27//45 28//45 36//45
f 27//46 36//46 35//46
f 28//47 29//47 37//47
f 28//48 37//48 36//48
f 29//49 30//49 38//49
f 29//50 38//50 37//50
f 30//51 31//51 39//51
f 30//52 39//52 38//52
f 31//53 32//53 40//53
f 31//54 40//54 39//54
f 32//55 25//55 33//55
f 32//56 33//56 40//56
f 33//57 34//57 42//57
f 34//58 35//58 43//58
f 35//59 36//59 44//59
f 36//60 37//60 45//60
f 37//61 38//61 46//61
f 38//62 39//62 47//62
f 39//63 40//63 48//63
f 40//64 33//64 41//64
usemtl c1
f 49//65 56//65 55//65
f 50//66 57//66 56//66
f 51//67 58//67 57//67
f 52//68 59//68 58//68
f 53//69 60//69 59//69
f 54//70 55//70 60//70
f 55//71 56//71 62//71
f 55//72 62//72 61//72
f 56//73 57//73 63//73
f 56//74 63//74 62//74
f 57//75 58//75 64//75
f 57//76 64//76 63//76
f 58//77 59//77 65//77
f 58//78 65//78 64//78
f 59//79 60//79 66//79
f 59//80 66//80 65//80
f 60//81 55//81 61//81
f 60//82 61//82 66//82
f 61//83 62//83 68//83
f 61//84 68//84 67//84
f 62//85 63//85 69//85
f 62//86 69//86 68//86
f 63//87 64//87 70//87
f 63//88 70//88 69//88
f 64//89 65//89 71//89
f 64//90 71//90 70//90
f 65//91 66//91 72//91
f 65//92 72//92 71//92
f 66//93 61//93 67//93
f 66//94 67//94 72//94
f 67//95 68//95 74//95
f 68//96 69//96 75//96
f 69//97 70//97 76//97
f 70//98 71//98 77//98
f 71//99 72//99 78//99
f 72//100 67//100 73//100
f 79//101 86//101 85//101
f 80//102 87//102 86//102
f 81//103 88//103 87//103
f 82//104 89//104 88//104
f 83//105 90//105 89//105
f 84//106 85//106 90//106
f 85//107 86//107 92//107
f 85//108 92//108 91//108
f 86//109 87//109 93//109
f 86//110 93//110 92//110
f 87//111 88//111 94//111
f 87//112 94//112 93//112
f 88//113 89//113 95//113
f 88//114 95//114 94//114
f 89//115 90//115 96//115
f 89//116 96//116 95//116
f 90//117 85//117 91//117
f 90//118 91//118 96//118
f 91//119 92//119 98//119
f 91//120 98//120 97//120
f 92//121 93//121 99//121
f 92//122 99//122 98//122
f 93//123 94//123 100//123
f 93//124 100//124 99//124
f 94//125 95//125 101//125
f 94//126 101//126 100//126
f 95//127 96//127 102//127
f 95//128 102//128 101//128
f 96//129 91//129 97//129
f 96//130 97//130 102//130
f 97//131 98//131 104//131
f 98//132 99//132 105//132
f 99//133 100//133 106//133
f 100//134 101//134 107//134
f 101//135 102//135 108//135
f 102//136 97//136 103//136
f 109//137 116//137 115//137
f 110//138 117//138 116//138
f 111//139 118//139 117//139
f 112//140 119//140 118//140
f 113//141 120//141 119//141
f 114//142 115//142 120//142
f 115//143 116//143 122//143
f 115//144 122//144 121//144
f 116//145 117//145 123//145
f 116//146 123//146 122//146
f 117//147 118//147 124//147
f 117//148 124//148 123//148
f 118//149 119//149 125//149
f 118//150 125//150 124//150
f 119//151 120//151 126//151
f 119//152 126//152 125//152
f 120//153 115//153 121//153
f 120//154 121//154 126//154
f 121//155 122//155 128//155
f 121//156 128//156 127//156
f 122//157 123//157 129//157
f 122//158 129//158 128//158
f 123//159 124//159 130//159
f 123//160 130//160 129//160
f 124//161 125//161 131//161
f 124//162 131//162 130//162
f 125//163 126//163 132//163
f 125//164 132//164 131//164
f 126//165 121//165 127//165
f 126//166 127//166 132//166
f 127//167 128//167 134//167
f 128//168 129//168 135//168
f 129//169 130//169 136//169
f 130//170 131//170 137//170
f 131//171 132//171 138//171
f 132//172 127//172 133//172
f 139//173 146//173 145//173
f 140//174 147//174 146//174
f 141//175 148//175 147//175
f 142//176 149//176 148//176
f 143//177 150//177 149//177
f 144//178 145//178 150//178
f 145//179 146//179 152//179
f 145//180 152//180 151//180
f 146//181 147//181 153//181
f 146//182 153//182 152//182
f 147//183 148//183 154//183
f 147//184 154//184 153//184
f 148//185 149//185 155//185
f 148//186 155//186 154//186
f 149//187 150//187 156//187
f 149//188 156//188 155//188
f 150//189 145//189 151//189
f 150//190 151//190 156//190
f 151//191 152//191 158//191
f 151//192 158//192 157//192
f 152//193 153//193 159//193
f 152//194 159//194 158//194
f 153//195 154//195 160//195
f 153//196 160//196 159//196
f 154//197 155//197 161//197
f 154//198 161//198 160//198
f 155//199 156//199 162//199
f 155//200 162//200 161//200
f 156//201 151//201 157//201
f 156//202 157//202 162//202
f 157//203 158//203 164//203
f 158//204 159//204 165//204
f 159//205 160//205 166//205
f 160//206 161//206 167//206
f 161//207 162//207 168//207
f 162//208 157//208 163//208
