mtllib Food_Muffin.mtl
v 0.0000 0.0000 0.0000
v 0.0000 0.0000 0.0000
v 0.0000 0.0000 0.0000
v 0.0000 0.0000 0.0000
v 0.0000 0.0000 0.0000
v 0.0000 0.0000 0.0000
v 0.0000 0.0000 0.0000
v 0.0000 0.0000 0.0000
v 0.0000 0.0000 0.0000
v 0.0000 0.0000 0.0000
v 0.4600 0.0000 0.0000
v 0.3721 0.0000 0.2704
v 0.1421 0.0000 0.4375
v -0.1421 0.0000 0.4375
v -0.3721 0.0000 0.2704
v -0.4600 0.0000 0.0000
v -0.3721 0.0000 -0.2704
v -0.1421 0.0000 -0.4375
v 0.1421 0.0000 -0.4375
v 0.3721 0.0000 -0.2704
v 0.7000 0.6200 0.0000
v 0.5663 0.6200 0.4114
v 0.2163 0.6200 0.6657
v -0.2163 0.6200 0.6657
v -0.5663 0.6200 0.4114
v -0.7000 0.6200 0.0000
v -0.5663 0.6200 -0.4114
v -0.2163 0.6200 -0.6657
v 0.2163 0.6200 -0.6657
v 0.5663 0.6200 -0.4114
v 0.0000 0.6200 0.0000
v 0.6800 0.5000 0.0000
v 0.5501 0.5000 0.3997
v 0.2101 0.5000 0.6467
v -0.2101 0.5000 0.6467
v -0.5501 0.5000 0.3997
v -0.6800 0.5000 0.0000
v -0.5501 0.5000 -0.3997
v -0.2101 0.5000 -0.6467
v 0.2101 0.5000 -0.6467
v 0.5501 0.5000 -0.3997
v 0.8600 0.6600 0.0000
v 0.6958 0.6600 0.5055
v 0.2658 0.6600 0.8179
v -0.2658 0.6600 0.8179
v -0.6958 0.6600 0.5055
v -0.8600 0.6600 0.0000
v -0.6958 0.6600 -0.5055
v -0.2658 0.6600 -0.8179
v 0.2658 0.6600 -0.8179
v 0.6958 0.6600 -0.5055
v 0.8800 0.9200 0.0000
v 0.7119 0.9200 0.5173
v 0.2719 0.9200 0.8369
v -0.2719 0.9200 0.8369
v -0.7119 0.9200 0.5173
v -0.8800 0.9200 0.0000
v -0.7119 0.9200 -0.5173
v -0.2719 0.9200 -0.8369
v 0.2719 0.9200 -0.8369
v 0.7119 0.9200 -0.5173
v 0.6200 1.2200 0.0000
v 0.5016 1.2200 0.3644
v 0.1916 1.2200 0.5897
v -0.1916 1.2200 0.5897
v -0.5016 1.2200 0.3644
v -0.6200 1.2200 0.0000
v -0.5016 1.2200 -0.3644
v -0.1916 1.2200 -0.5897
v 0.1916 1.2200 -0.5897
v 0.5016 1.2200 -0.3644
v 0.0000 1.3200 0.0000
v 0.0000 1.3200 0.0000
v 0.0000 1.3200 0.0000
v 0.0000 1.3200 0.0000
v 0.0000 1.3200 0.0000
v 0.0000 1.3200 0.0000
v 0.0000 1.3200 0.0000
v 0.0000 1.3200 0.0000
v 0.0000 1.3200 0.0000
v 0.0000 1.3200 0.0000
v 0.0000 0.5000 0.0000
v -0.3000 1.0600 0.2000
v -0.3000 1.0600 0.2000
v -0.3000 1.0600 0.2000
v -0.3000 1.0600 0.2000
v -0.2100 1.1500 0.2000
v -0.3000 1.1500 0.2900
v -0.3900 1.1500 0.2000
v -0.3000 1.1500 0.1100
v -0.3000 1.2400 0.2000
v -0.3000 1.2400 0.2000
v -0.3000 1.2400 0.2000
v -0.3000 1.2400 0.2000
v 0.3000 1.0100 0.3000
v 0.3000 1.0100 0.3000
v 0.3000 1.0100 0.3000
v 0.3000 1.0100 0.3000
v 0.3900 1.1000 0.3000
v 0.3000 1.1000 0.3900
v 0.2100 1.1000 0.3000
v 0.3000 1.1000 0.2100
v 0.3000 1.1900 0.3000
v 0.3000 1.1900 0.3000
v 0.3000 1.1900 0.3000
v 0.3000 1.1900 0.3000
v 0.0000 1.2100 -0.2000
v 0.0000 1.2100 -0.2000
v 0.0000 1.2100 -0.2000
v 0.0000 1.2100 -0.2000
v 0.0900 1.3000 -0.2000
v 0.0000 1.3000 -0.1100
v -0.0900 1.3000 -0.2000
v -0.0000 1.3000 -0.2900
v 0.0000 1.3900 -0.2000
v 0.0000 1.3900 -0.2000
v -0.0000 1.3900 -0.2000
v -0.0000 1.3900 -0.2000
v 0.4000 0.8100 -0.4000
v 0.4000 0.8100 -0.4000
v 0.4000 0.8100 -0.4000
v 0.4000 0.8100 -0.4000
v 0.4900 0.9000 -0.4000
v 0.4000 0.9000 -0.3100
v 0.3100 0.9000 -0.4000
v 0.4000 0.9000 -0.4900
v 0.4000 0.9900 -0.4000
v 0.4000 0.9900 -0.4000
v 0.4000 0.9900 -0.4000
v 0.4000 0.9900 -0.4000
v -0.5000 0.8100 -0.2000
v -0.5000 0.8100 -0.2000
v -0.5000 0.8100 -0.2000
v -0.5000 0.8100 -0.2000
v -0.4100 0.9000 -0.2000
v -0.5000 0.9000 -0.1100
v -0.5900 0.9000 -0.2000
v -0.5000 0.9000 -0.2900
v -0.5000 0.9900 -0.2000
v -0.5000 0.9900 -0.2000
v -0.5000 0.9900 -0.2000
v -0.5000 0.9900 -0.2000
vn 0.0000 1.0000 0.0000
vn 0.0000 1.0000 0.0000
vn 0.0000 1.0000 -0.0000
vn 0.0000 1.0000 0.0000
vn 0.0000 1.0000 0.0000
vn 0.0000 1.0000 0.0000
vn 0.0000 1.0000 0.0000
vn 0.0000 1.0000 0.0000
vn 0.0000 1.0000 0.0000
vn -0.0000 1.0000 0.0000
vn -0.8925 0.3455 -0.2900
vn -0.8925 0.3455 -0.2900
vn -0.5516 0.3455 -0.7592
vn -0.5516 0.3455 -0.7592
vn -0.0000 0.3455 -0.9384
vn -0.0000 0.3455 -0.9384
vn 0.5516 0.3455 -0.7592
vn 0.5516 0.3455 -0.7592
vn 0.8925 0.3455 -0.2900
vn 0.8925 0.3455 -0.2900
vn 0.8925 0.3455 0.2900
vn 0.8925 0.3455 0.2900
vn 0.5516 0.3455 0.7592
vn 0.5516 0.3455 0.7592
vn 0.0000 0.3455 0.9384
vn 0.0000 0.3455 0.9384
vn -0.5516 0.3455 0.7592
vn -0.5516 0.3455 0.7592
vn -0.8925 0.3455 0.2900
vn -0.8925 0.3455 0.2900
vn 0.0000 -1.0000 0.0000
vn 0.0000 -1.0000 0.0000
vn 0.0000 -1.0000 0.0000
vn 0.0000 -1.0000 0.0000
vn 0.0000 -1.0000 0.0000
vn -0.0000 -1.0000 0.0000
vn 0.0000 -1.0000 0.0000
vn 0.0000 -1.0000 -0.0000
vn 0.0000 -1.0000 0.0000
vn 0.0000 -1.0000 0.0000
vn -0.6494 0.7306 -0.2110
vn -0.6494 0.7306 -0.2110
vn -0.4014 0.7306 -0.5524
vn -0.4014 0.7306 -0.5524
vn 0.0000 0.7306 -0.6828
vn -0.0000 0.7306 -0.6828
vn 0.4014 0.7306 -0.5524
vn 0.4014 0.7306 -0.5524
vn 0.6494 0.7306 -0.2110
vn 0.6494 0.7306 -0.2110
vn 0.6494 0.7306 0.2110
vn 0.6494 0.7306 0.2110
vn 0.4014 0.7306 0.5524
vn 0.4014 0.7306 0.5524
vn -0.0000 0.7306 0.6828
vn 0.0000 0.7306 0.6828
vn -0.4014 0.7306 0.5524
vn -0.4014 0.7306 0.5524
vn -0.6494 0.7306 0.2110
vn -0.6494 0.7306 0.2110
vn -0.9485 0.0730 -0.3082
vn -0.9485 0.0730 -0.3082
vn -0.5862 0.0730 -0.8069
vn -0.5862 0.0730 -0.8069
vn -0.0000 0.0730 -0.9973
vn 0.0000 0.0730 -0.9973
vn 0.5862 0.0730 -0.8069
vn 0.5862 0.0730 -0.8069
vn 0.9485 0.0730 -0.3082
vn 0.9485 0.0730 -0.3082
vn 0.9485 0.0730 0.3082
vn 0.9485 0.0730 0.3082
vn 0.5862 0.0730 0.8069
vn 0.5862 0.0730 0.8069
vn 0.0000 0.0730 0.9973
vn 0.0000 0.0730 0.9973
vn -0.5862 0.0730 0.8069
vn -0.5862 0.0730 0.8069
vn -0.9485 0.0730 0.3082
vn -0.9485 0.0730 0.3082
vn -0.7339 -0.6360 -0.2385
vn -0.7339 -0.6360 -0.2385
vn -0.4536 -0.6360 -0.6243
vn -0.4536 -0.6360 -0.6243
vn -0.0000 -0.6360 -0.7717
vn -0.0000 -0.6360 -0.7717
vn 0.4536 -0.6360 -0.6243
vn 0.4536 -0.6360 -0.6243
vn 0.7339 -0.6360 -0.2385
vn 0.7339 -0.6360 -0.2385
vn 0.7339 -0.6360 0.2385
vn 0.7339 -0.6360 0.2385
vn 0.4536 -0.6360 0.6243
vn 0.4536 -0.6360 0.6243
vn 0.0000 -0.6360 0.7717
vn 0.0000 -0.6360 0.7717
vn -0.4536 -0.6360 0.6243
vn -0.4536 -0.6360 0.6243
vn -0.7339 -0.6360 0.2385
vn -0.7339 -0.6360 0.2385
vn -0.1590 -0.9859 -0.0517
vn -0.0983 -0.9859 -0.1353
vn -0.0000 -0.9859 -0.1672
vn 0.0983 -0.9859 -0.1353
vn 0.1590 -0.9859 -0.0517
vn 0.1590 -0.9859 0.0517
vn 0.0983 -0.9859 0.1353
vn 0.0000 -0.9859 0.1672
vn -0.0983 -0.9859 0.1353
vn -0.1590 -0.9859 0.0517
vn 0.0000 -1.0000 0.0000
vn 0.0000 -1.0000 0.0000
vn 0.0000 -1.0000 0.0000
vn 0.0000 -1.0000 0.0000
vn 0.0000 -1.0000 0.0000
vn -0.0000 -1.0000 0.0000
vn 0.0000 -1.0000 0.0000
vn 0.0000 -1.0000 -0.0000
vn 0.0000 -1.0000 0.0000
vn 0.0000 -1.0000 0.0000
vn -0.5774 0.5774 -0.5774
vn 0.5774 0.5774 -0.5774
vn 0.5774 0.5774 0.5774
vn -0.5774 0.5774 0.5774
vn -0.5774 -0.5774 -0.5774
vn 0.5774 -0.5774 -0.5774
vn 0.5774 -0.5774 0.5774
vn -0.5774 -0.5774 0.5774
vn -0.5774 0.5774 -0.5774
vn 0.5774 0.5774 -0.5774
vn 0.5774 0.5774 0.5774
vn -0.5774 0.5774 0.5774
vn -0.5774 -0.5774 -0.5774
vn 0.5774 -0.5774 -0.5774
vn 0.5774 -0.5774 0.5774
vn -0.5774 -0.5774 0.5774
vn -0.5774 0.5774 -0.5774
vn 0.5774 0.5774 -0.5774
vn 0.5774 0.5774 0.5774
vn -0.5774 0.5774 0.5774
vn -0.5774 -0.5774 -0.5774
vn 0.5774 -0.5774 -0.5774
vn 0.5774 -0.5774 0.5774
vn -0.5774 -0.5774 0.5774
vn -0.5774 0.5774 -0.5774
vn 0.5774 0.5774 -0.5774
vn 0.5774 0.5774 0.5774
vn -0.5774 0.5774 0.5774
vn -0.5774 -0.5774 -0.5774
vn 0.5774 -0.5774 -0.5774
vn 0.5774 -0.5774 0.5774
vn -0.5774 -0.5774 0.5774
vn -0.5774 0.5774 -0.5774
vn 0.5774 0.5774 -0.5774
vn 0.5774 0.5774 0.5774
vn -0.5774 0.5774 0.5774
vn -0.5774 -0.5774 -0.5774
vn 0.5774 -0.5774 -0.5774
vn 0.5774 -0.5774 0.5774
vn -0.5774 -0.5774 0.5774
usemtl c0
f 1//1 12//1 11//1
f 2//2 13//2 12//2
f 3//3 14//3 13//3
f 4//4 15//4 14//4
f 5//5 16//5 15//5
f 6//6 17//6 16//6
f 7//7 18//7 17//7
f 8//8 19//8 18//8
f 9//9 20//9 19//9
f 10//10 11//10 20//10
f 11//11 12//11 22//11
f 11//12 22//12 21//12
f 12//13 13//13 23//13
f 12//14 23//14 22//14
f 13//15 14//15 24//15
f 13//16 24//16 23//16
f 14//17 15//17 25//17
f 14//18 25//18 24//18
f 15//19 16//19 26//19
f 15//20 26//20 25//20
f 16//21 17//21 27//21
f 16//22 27//22 26//22
f 17//23 18//23 28//23
f 17//24 28//24 27//24
f 18//25 19//25 29//25
f 18//26 29//26 28//26
f 19//27 20//27 30//27
f 19//28 30//28 29//28
f 20//29 11//29 21//29
f 20//30 21//30 30//30
f 31//31 21//31 22//31
f 31//32 22//32 23//32
f 31//33 23//33 24//33
f 31//34 24//34 25//34
f 31//35 25//35 26//35
f 31//36 26//36 27//36
f 31//37 27//37 28//37
f 31//38 28//38 29//38
f 31//39 29//39 30//39
f 31//40 30//40 21//40
usemtl c1
f 32//41 33//41 43//41
f 32//42 43//42 42//42
f 33//43 34//43 44//43
f 33//44 44//44 43//44
f 34//45 35//45 45//45
f 34//46 45//46 44//46
f 35//47 36//47 46//47
f 35//48 46//48 45//48
f 36//49 37//49 47//49
f 36//50 47//50 46//50
f 37//51 38//51 48//51
f 37//52 48//52 47//52
f 38//53 39//53 49//53
f 38//54 49//54 48//54
f 39//55 40//55 50//55
f 39//56 50//56 49//56
f 40//57 41//57 51//57
f 40//58 51//58 50//58
f 41//59 32//59 42//59
f 41//60 42//60 51//60
f 42//61 43//61 53//61
f 42//62 53//62 52//62
f 43//63 44//63 54//63
f 43//64 54//64 53//64
f 44//65 45//65 55//65
f 44//66 55//66 54//66
f 45//67 46//67 56//67
f 45//68 56//68 55//68
f 46//69 47//69 57//69
f 46//70 57//70 56//70
f 47//71 48//71 58//71
f 47//72 58//72 57//72
f 48//73 49//73 59//73
f 48//74 59//74 58//74
f 49//75 50//75 60//75
f 49//76 60//76 59//76
f 50//77 51//77 61//77
f 50//78 61//78 60//78
f 51//79 42//79 52//79
f 51//80 52//80 61//80
f 52//81 53//81 63//81
f 52//82 63//82 62//82
f 53//83 54//83 64//83
f 53//84 64//84 63//84
f 54//85 55//85 65//85
f 54//86 65//86 64//86
f 55//87 56//87 66//87
f 55//88 66//88 65//88
f 56//89 57//89 67//89
f 56//90 67//90 66//90
f 57//91 58//91 68//91
f 57//92 68//92 67//92
f 58//93 59//93 69//93
f 58//94 69//94 68//94
f 59//95 60//95 70//95
f 59//96 70//96 69//96
f 60//97 61//97 71//97
f 60//98 71//98 70//98
f 61//99 52//99 62//99
f 61//100 62//100 71//100
f 62//101 63//101 73//101
f 63//102 64//102 74//102
f 64//103 65//103 75//103
f 65//104 66//104 76//104
f 66//105 67//105 77//105
f 67//106 68//106 78//106
f 68//107 69//107 79//107
f 69//108 70//108 80//108
f 70//109 71//109 81//109
f 71//110 62//110 72//110
f 82//111 32//111 33//111
f 82//112 33//112 34//112
f 82//113 34//113 35//113
f 82//114 35//114 36//114
f 82//115 36//115 37//115
f 82//116 37//116 38//116
f 82//117 38//117 39//117
f 82//118 39//118 40//118
f 82//119 40//119 41//119
f 82//120 41//120 32//120
usemtl c2
f 83//121 88//121 87//121
f 84//122 89//122 88//122
f 85//123 90//123 89//123
f 86//124 87//124 90//124
f 87//125 88//125 92//125
f 88//126 89//126 93//126
f 89//127 90//127 94//127
f 90//128 87//128 91//128
f 95//129 100//129 99//129
f 96//130 101//130 100//130
f 97//131 102//131 101//131
f 98//132 99//132 102//132
f 99//133 100//133 104//133
f 100//134 101//134 105//134
f 101//135 102//135 106//135
f 102//136 99//136 103//136
f 107//137 112//137 111//137
f 108//138 113//138 112//138
f 109//139 114//139 113//139
f 110//140 111//140 114//140
f 111//141 112//141 116//141
f 112//142 113//142 117//142
f 113//143 114//143 118//143
f 114//144 111//144 115//144
f 119//145 124//145 123//145
f 120//146 125//146 124//146
f 121//147 126//147 125//147
f 122//148 123//148 126//148
f 123//149 124//149 128//149
f 124//150 125//150 129//150
f 125//151 126//151 130//151
f 126//152 123//152 127//152
f 131//153 136//153 135//153
f 132//154 137//154 136//154
f 133//155 138//155 137//155
f 134//156 135//156 138//156
f 135//157 136//157 140//157
f 136//158 137//158 141//158
f 137//159 138//159 142//159
f 138//160 135//160 139//160
