mtllib Food_Radish.mtl
v 0.7392 -0.8810 0.0000
v 0.7392 -0.8810 0.0000
v 0.7392 -0.8810 0.0000
v 0.7392 -0.8810 0.0000
v 0.7392 -0.8810 0.0000
v 0.7392 -0.8810 0.0000
v 0.7392 -0.8810 0.0000
v 0.7117 -0.7082 0.0000
v 0.6858 -0.7300 0.0704
v 0.6274 -0.7789 0.0877
v 0.5807 -0.8182 0.0390
v 0.5807 -0.8182 -0.0390
v 0.6274 -0.7789 -0.0877
v 0.6858 -0.7300 -0.0704
v 0.4754 -0.1232 0.0000
v 0.3932 -0.1922 0.2228
v 0.2085 -0.3472 0.2779
v 0.0604 -0.4715 0.1237
v 0.0604 -0.4715 -0.1237
v 0.2085 -0.3472 -0.2779
v 0.3932 -0.1922 -0.2228
v -0.0624 0.6656 0.0000
v -0.1720 0.5736 0.2971
v -0.4183 0.3670 0.3705
v -0.6158 0.2013 0.1649
v -0.6158 0.2013 -0.1649
v -0.4183 0.3670 -0.3705
v -0.1720 0.5736 -0.2971
v -0.2844 0.8710 0.0000
v -0.3830 0.7882 0.2674
v -0.6047 0.6022 0.3334
v -0.7824 0.4531 0.1484
v -0.7824 0.4531 -0.1484
v -0.6047 0.6022 -0.3334
v -0.3830 0.7882 -0.2674
v -0.5657 0.6741 0.0000
v -0.5657 0.6741 0.0000
v -0.5657 0.6741 0.0000
v -0.5657 0.6741 0.0000
v -0.5657 0.6741 0.0000
v -0.5657 0.6741 0.0000
v -0.5657 0.6741 0.0000
v -0.4949 0.5899 0.0000
v -0.4949 0.5899 0.0000
v -0.4949 0.5899 0.0000
v -0.4949 0.5899 0.0000
v -0.4949 0.5899 0.0000
v -0.5574 0.7855 0.0000
v -0.5986 0.7509 0.0494
v -0.6654 0.6949 0.0305
v -0.6654 0.6949 -0.0305
v -0.5986 0.7509 -0.0494
v -0.8016 1.0766 0.0000
v -0.8429 1.0420 0.0494
v -0.9096 0.9860 0.0305
v -0.9096 0.9860 -0.0305
v -0.8429 1.0420 -0.0494
v -0.9835 1.1720 0.0000
v -0.9835 1.1720 0.0000
v -0.9835 1.1720 0.0000
v -0.9835 1.1720 -0.0000
v -0.9835 1.1720 -0.0000
v -0.5283 0.5918 0.0000
v -0.5283 0.5918 0.0000
v -0.5283 0.5918 0.0000
v -0.5283 0.5918 0.0000
v -0.5283 0.5918 0.0000
v -0.5200 0.7970 0.0000
v -0.5707 0.7786 0.0494
v -0.6525 0.7488 0.0305
v -0.6525 0.7488 -0.0305
v -0.5707 0.7786 -0.0494
v -0.6500 1.1541 0.0000
v -0.7006 1.1356 0.0494
v -0.7825 1.1058 0.0305
v -0.7825 1.1058 -0.0305
v -0.7006 1.1356 -0.0494
v -0.7882 1.3059 0.0000
v -0.7882 1.3059 0.0000
v -0.7882 1.3059 0.0000
v -0.7882 1.3059 -0.0000
v -0.7882 1.3059 -0.0000
v -0.4911 0.6230 0.0000
v -0.4911 0.6230 0.0000
v -0.4911 0.6230 0.0000
v -0.4911 0.6230 0.0000
v -0.4911 0.6230 0.0000
v -0.6166 0.7855 0.0000
v -0.6436 0.7389 0.0494
v -0.6871 0.6634 0.0305
v -0.6871 0.6634 -0.0305
v -0.6436 0.7389 -0.0494
v -0.9457 0.9755 0.0000
v -0.9726 0.9289 0.0494
v -1.0162 0.8534 0.0305
v -1.0162 0.8534 -0.0305
v -0.9726 0.9289 -0.0494
v -1.1492 1.0030 0.0000
v -1.1492 1.0030 0.0000
v -1.1492 1.0030 0.0000
v -1.1492 1.0030 -0.0000
v -1.1492 1.0030 -0.0000
vn -0.9128 -0.1452 -0.3817
vn -0.4556 0.2385 -0.8576
vn 0.1145 0.7168 -0.6878
vn 0.3682 0.9297 0.0000
vn 0.1145 0.7168 0.6878
vn -0.4556 0.2385 0.8576
vn -0.9128 -0.1452 0.3817
vn -0.8430 -0.3405 -0.4164
vn -0.8430 -0.3405 -0.4164
vn -0.3442 0.0780 -0.9356
vn -0.3442 0.0780 -0.9356
vn 0.2777 0.5999 -0.7503
vn 0.2777 0.5999 -0.7503
vn 0.5545 0.8322 0.0000
vn 0.5545 0.8322 0.0000
vn 0.2777 0.5999 0.7503
vn 0.2777 0.5999 0.7503
vn -0.3442 0.0780 0.9356
vn -0.3442 0.0780 0.9356
vn -0.8430 -0.3405 0.4164
vn -0.8430 -0.3405 0.4164
vn -0.7451 -0.5081 -0.4321
vn -0.7451 -0.5081 -0.4321
vn -0.2275 -0.0737 -0.9710
vn -0.2275 -0.0737 -0.9710
vn 0.4180 0.4679 -0.7787
vn 0.4180 0.4679 -0.7787
vn 0.7053 0.7089 0.0000
vn 0.7053 0.7089 0.0000
vn 0.4180 0.4679 0.7787
vn 0.4180 0.4679 0.7787
vn -0.2275 -0.0737 0.9710
vn -0.2275 -0.0737 0.9710
vn -0.7451 -0.5081 0.4321
vn -0.7451 -0.5081 0.4321
vn -0.6128 -0.6623 -0.4311
vn -0.6128 -0.6623 -0.4311
vn -0.0965 -0.2290 -0.9686
vn -0.0965 -0.2290 -0.9686
vn 0.5474 0.3113 -0.7768
vn 0.5474 0.3113 -0.7768
vn 0.8340 0.5518 -0.0000
vn 0.8340 0.5518 -0.0000
vn 0.5474 0.3113 0.7768
vn 0.5474 0.3113 0.7768
vn -0.0965 -0.2290 0.9686
vn -0.0965 -0.2290 0.9686
vn -0.6128 -0.6623 0.4311
vn -0.6128 -0.6623 0.4311
vn 0.5729 -0.8186 -0.0420
vn 0.6232 -0.7763 -0.0945
vn 0.6860 -0.7236 -0.0758
vn 0.7140 -0.7002 -0.0000
vn 0.6860 -0.7236 0.0758
vn 0.6232 -0.7763 0.0945
vn 0.5729 -0.8186 0.0420
vn -0.6709 -0.2140 -0.7100
vn 0.0156 0.3025 -0.9530
vn 0.5246 0.8514 0.0000
vn 0.0156 0.3025 0.9530
vn -0.6709 -0.2140 0.7100
vn -0.5179 -0.4346 -0.7368
vn -0.5179 -0.4346 -0.7368
vn 0.1622 0.1361 -0.9773
vn 0.1622 0.1361 -0.9773
vn 0.7660 0.6428 0.0000
vn 0.7660 0.6428 0.0000
vn 0.1622 0.1361 0.9773
vn 0.1622 0.1361 0.9773
vn -0.5179 -0.4346 0.7368
vn -0.5179 -0.4346 0.7368
vn -0.3273 -0.6235 -0.7100
vn 0.3006 -0.0371 -0.9530
vn 0.9295 0.3688 0.0000
vn 0.3006 -0.0371 0.9530
vn -0.3273 -0.6235 0.7100
vn -0.7036 0.0283 -0.7100
vn 0.1182 0.2789 -0.9530
vn 0.7841 0.6206 0.0000
vn 0.1182 0.2789 0.9530
vn -0.7036 0.0283 0.7100
vn -0.6353 -0.2312 -0.7368
vn -0.6353 -0.2312 -0.7368
vn 0.1989 0.0724 -0.9773
vn 0.1989 0.0724 -0.9773
vn 0.9397 0.3420 0.0000
vn 0.9397 0.3420 0.0000
vn 0.1989 0.0724 0.9773
vn 0.1989 0.0724 0.9773
vn -0.6353 -0.2312 0.7368
vn -0.6353 -0.2312 0.7368
vn -0.5208 -0.4740 -0.7100
vn 0.2698 -0.1377 -0.9530
vn 0.9996 0.0286 0.0000
vn 0.2698 -0.1377 0.9530
vn -0.5208 -0.4740 0.7100
vn -0.5572 -0.4306 -0.7100
vn -0.0888 0.2896 -0.9530
vn 0.2018 0.9794 0.0000
vn -0.0888 0.2896 0.9530
vn -0.5572 -0.4306 0.7100
vn -0.3380 -0.5855 -0.7368
vn -0.3380 -0.5855 -0.7368
vn 0.1059 0.1833 -0.9773
vn 0.1059 0.1833 -0.9773
vn 0.5000 0.8660 0.0000
vn 0.5000 0.8660 0.0000
vn 0.1059 0.1833 0.9773
vn 0.1059 0.1833 0.9773
vn -0.3380 -0.5855 0.7368
vn -0.3380 -0.5855 0.7368
vn -0.0943 -0.6978 -0.7100
vn 0.2952 0.0679 -0.9530
vn 0.7473 0.6645 0.0000
vn 0.2952 0.0679 0.9530
vn -0.0943 -0.6978 0.7100
usemtl c0
f 1//1 9//1 8//1
f 2//2 10//2 9//2
f 3//3 11//3 10//3
f 4//4 12//4 11//4
f 5//5 13//5 12//5
f 6//6 14//6 13//6
f 7//7 8//7 14//7
f 8//8 9//8 16//8
f 8//9 16//9 15//9
f 9//10 10//10 17//10
f 9//11 17//11 16//11
f 10//12 11//12 18//12
f 10//13 18//13 17//13
f 11//14 12//14 19//14
f 11//15 19//15 18//15
f 12//16 13//16 20//16
f 12//17 20//17 19//17
f 13//18 14//18 21//18
f 13//19 21//19 20//19
f 14//20 8//20 15//20
f 14//21 15//21 21//21
f 15//22 16//22 23//22
f 15//23 23//23 22//23
f 16//24 17//24 24//24
f 16//25 24//25 23//25
f 17//26 18//26 25//26
f 17//27 25//27 24//27
f 18//28 19//28 26//28
f 18//29 26//29 25//29
f 19//30 20//30 27//30
f 19//31 27//31 26//31
f 20//32 21//32 28//32
f 20//33 28//33 27//33
f 21//34 15//34 22//34
f 21//35 22//35 28//35
f 22//36 23//36 30//36
f 22//37 30//37 29//37
f 23//38 24//38 31//38
f 23//39 31//39 30//39
f 24//40 25//40 32//40
f 24//41 32//41 31//41
f 25//42 26//42 33//42
f 25//43 33//43 32//43
f 26//44 27//44 34//44
f 26//45 34//45 33//45
f 27//46 28//46 35//46
f 27//47 35//47 34//47
f 28//48 22//48 29//48
f 28//49 29//49 35//49
f 29//50 30//50 37//50
f 30//51 31//51 38//51
f 31//52 32//52 39//52
f 32//53 33//53 40//53
f 33//54 34//54 41//54
f 34//55 35//55 42//55
f 35//56 29//56 36//56
usemtl c1
f 43//57 49//57 48//57
f 44//58 50//58 49//58
f 45//59 51//59 50//59
f 46//60 52//60 51//60
f 47//61 48//61 52//61
f 48//62 49//62 54//62
f 48//63 54//63 53//63
f 49//64 50//64 55//64
f 49//65 55//65 54//65
f 50//66 51//66 56//66
f 50//67 56//67 55//67
f 51//68 52//68 57//68
f 51//69 57//69 56//69
f 52//70 48//70 53//70
f 52//71 53//71 57//71
f 53//72 54//72 59//72
f 54//73 55//73 60//73
f 55//74 56//74 61//74
f 56//75 57//75 62//75
f 57//76 53//76 58//76
f 63//77 69//77 68//77
f 64//78 70//78 69//78
f 65//79 71//79 70//79
f 66//80 72//80 71//80
f 67//81 68//81 72//81
f 68//82 69//82 74//82
f 68//83 74//83 73//83
f 69//84 70//84 75//84
f 69//85 75//85 74//85
f 70//86 71//86 76//86
f 70//87 76//87 75//87
f 71//88 72//88 77//88
f 71//89 77//89 76//89
f 72//90 68//90 73//90
f 72//91 73//91 77//91
f 73//92 74//92 79//92
f 74//93 75//93 80//93
f 75//94 76//94 81//94
f 76//95 77//95 82//95
f 77//96 73//96 78//96
f 83//97 89//97 88//97
f 84//98 90//98 89//98
f 85//99 91//99 90//99
f 86//100 92//100 91//100
f 87//101 88//101 92//101
f 88//102 89//102 94//102
f 88//103 94//103 93//103
f 89//104 90//104 95//104
f 89//105 95//105 94//105
f 90//106 91//106 96//106
f 90//107 96//107 95//107
f 91//108 92//108 97//108
f 91//109 97//109 96//109
f 92//110 88//110 93//110
f 92//111 93//111 97//111
f 93//112 94//112 99//112
f 94//113 95//113 100//113
f 95//114 96//114 101//114
f 96//115 97//115 102//115
f 97//116 93//116 98//116
