mtllib Food_Cola.mtl
v 0.5600 0.0000 0.0000
v 0.4530 0.0000 0.3292
v 0.1730 0.0000 0.5326
v -0.1730 0.0000 0.5326
v -0.4530 0.0000 0.3292
v -0.5600 0.0000 0.0000
v -0.4530 0.0000 -0.3292
v -0.1730 0.0000 -0.5326
v 0.1730 0.0000 -0.5326
v 0.4530 0.0000 -0.3292
v 0.5600 1.5000 0.0000
v 0.4530 1.5000 0.3292
v 0.1730 1.5000 0.5326
v -0.1730 1.5000 0.5326
v -0.4530 1.5000 0.3292
v -0.5600 1.5000 0.0000
v -0.4530 1.5000 -0.3292
v -0.1730 1.5000 -0.5326
v 0.1730 1.5000 -0.5326
v 0.4530 1.5000 -0.3292
v 0.0000 0.0000 0.0000
v 0.0000 1.5000 0.0000
v 0.5000 1.5000 0.0000
v 0.4045 1.5000 0.2939
v 0.1545 1.5000 0.4755
v -0.1545 1.5000 0.4755
v -0.4045 1.5000 0.2939
v -0.5000 1.5000 0.0000
v -0.4045 1.5000 -0.2939
v -0.1545 1.5000 -0.4755
v 0.1545 1.5000 -0.4755
v 0.4045 1.5000 -0.2939
v 0.5000 1.5600 0.0000
v 0.4045 1.5600 0.2939
v 0.1545 1.5600 0.4755
v -0.1545 1.5600 0.4755
v -0.4045 1.5600 0.2939
v -0.5000 1.5600 0.0000
v -0.4045 1.5600 -0.2939
v -0.1545 1.5600 -0.4755
v 0.1545 1.5600 -0.4755
v 0.4045 1.5600 -0.2939
v 0.0000 1.5000 0.0000
v 0.0000 1.5600 0.0000
v -0.0400 1.5850 -0.0700
v 0.2000 1.5850 -0.0700
v 0.2000 1.5850 0.0700
v -0.0400 1.5850 0.0700
v -0.0400 1.6150 -0.0700
v 0.2000 1.6150 -0.0700
v 0.2000 1.6150 0.0700
v -0.0400 1.6150 0.0700
v 0.0800 1.5850 0.0000
v 0.0800 1.6150 0.0000
v 0.5750 0.4500 0.0000
v 0.4652 0.4500 0.3380
v 0.1777 0.4500 0.5469
v -0.1777 0.4500 0.5469
v -0.4652 0.4500 0.3380
v -0.5750 0.4500 0.0000
v -0.4652 0.4500 -0.3380
v -0.1777 0.4500 -0.5469
v 0.1777 0.4500 -0.5469
v 0.4652 0.4500 -0.3380
v 0.5750 0.9500 0.0000
v 0.4652 0.9500 0.3380
v 0.1777 0.9500 0.5469
v -0.1777 0.9500 0.5469
v -0.4652 0.9500 0.3380
v -0.5750 0.9500 0.0000
v -0.4652 0.9500 -0.3380
v -0.1777 0.9500 -0.5469
v 0.1777 0.9500 -0.5469
v 0.4652 0.9500 -0.3380
v 0.5750 0.9500 0.0000
v 0.4652 0.9500 0.3380
v 0.1777 0.9500 0.5469
v -0.1777 0.9500 0.5469
v -0.4652 0.9500 0.3380
v -0.5750 0.9500 0.0000
v -0.4652 0.9500 -0.3380
v -0.1777 0.9500 -0.5469
v 0.1777 0.9500 -0.5469
v 0.4652 0.9500 -0.3380
v 0.5750 1.1000 0.0000
v 0.4652 1.1000 0.3380
v 0.1777 1.1000 0.5469
v -0.1777 1.1000 0.5469
v -0.4652 1.1000 0.3380
v -0.5750 1.1000 0.0000
v -0.4652 1.1000 -0.3380
v -0.1777 1.1000 -0.5469
v 0.1777 1.1000 -0.5469
v 0.4652 1.1000 -0.3380
vn -0.9511 0.0000 -0.3090
vn -0.9511 0.0000 -0.3090
vn -0.5878 0.0000 -0.8090
vn -0.5878 0.0000 -0.8090
vn -0.0000 0.0000 -1.0000
vn -0.0000 0.0000 -1.0000
vn 0.5878 0.0000 -0.8090
vn 0.5878 0.0000 -0.8090
vn 0.9511 0.0000 -0.3090
vn 0.9511 0.0000 -0.3090
vn 0.9511 0.0000 0.3090
vn 0.9511 -0.0000 0.3090
vn 0.5878 0.0000 0.8090
vn 0.5878 -0.0000 0.8090
vn 0.0000 0.0000 1.0000
vn 0.0000 -0.0000 1.0000
vn -0.5878 0.0000 0.8090
vn -0.5878 0.0000 0.8090
vn -0.9511 0.0000 0.3090
vn -0.9511 0.0000 0.3090
vn 0.0000 -1.0000 0.0000
vn 0.0000 -1.0000 0.0000
vn 0.0000 -1.0000 0.0000
vn 0.0000 -1.0000 0.0000
vn 0.0000 -1.0000 0.0000
vn -0.0000 -1.0000 0.0000
vn 0.0000 -1.0000 0.0000
vn 0.0000 -1.0000 -0.0000
vn 0.0000 -1.0000 0.0000
vn 0.0000 -1.0000 0.0000
vn 0.0000 -1.0000 0.0000
vn 0.0000 -1.0000 0.0000
vn 0.0000 -1.0000 0.0000
vn 0.0000 -1.0000 0.0000
vn 0.0000 -1.0000 0.0000
vn -0.0000 -1.0000 0.0000
vn 0.0000 -1.0000 0.0000
vn 0.0000 -1.0000 -0.0000
vn 0.0000 -1.0000 0.0000
vn 0.0000 -1.0000 0.0000
vn -0.9511 0.0000 -0.3090
vn -0.9511 0.0000 -0.3090
vn -0.5878 0.0000 -0.8090
vn -0.5878 0.0000 -0.8090
vn -0.0000 0.0000 -1.0000
vn -0.0000 0.0000 -1.0000
vn 0.5878 0.0000 -0.8090
vn 0.5878 0.0000 -0.8090
vn 0.9511 0.0000 -0.3090
vn 0.9511 0.0000 -0.3090
vn 0.9511 0.0000 0.3090
vn 0.9511 -0.0000 0.3090
vn 0.5878 0.0000 0.8090
vn 0.5878 -0.0000 0.8090
vn 0.0000 0.0000 1.0000
vn 0.0000 -0.0000 1.0000
vn -0.5878 0.0000 0.8090
vn -0.5878 0.0000 0.8090
vn -0.9511 0.0000 0.3090
vn -0.9511 0.0000 0.3090
vn 0.0000 -1.0000 0.0000
vn 0.0000 -1.0000 0.0000
vn 0.0000 -1.0000 0.0000
vn 0.0000 -1.0000 0.0000
vn 0.0000 -1.0000 0.0000
vn -0.0000 -1.0000 0.0000
vn 0.0000 -1.0000 0.0000
vn 0.0000 -1.0000 -0.0000
vn 0.0000 -1.0000 0.0000
vn 0.0000 -1.0000 0.0000
vn 0.0000 -1.0000 0.0000
vn 0.0000 -1.0000 0.0000
vn 0.0000 -1.0000 0.0000
vn 0.0000 -1.0000 0.0000
vn 0.0000 -1.0000 0.0000
vn -0.0000 -1.0000 0.0000
vn 0.0000 -1.0000 0.0000
vn 0.0000 -1.0000 -0.0000
vn 0.0000 -1.0000 0.0000
vn 0.0000 -1.0000 0.0000
vn 0.0000 0.0000 1.0000
vn 0.0000 0.0000 1.0000
vn 0.0000 1.0000 0.0000
vn 0.0000 -1.0000 -0.0000
vn -1.0000 0.0000 0.0000
vn -1.0000 0.0000 0.0000
vn -0.0000 1.0000 0.0000
vn 0.0000 -1.0000 0.0000
vn 0.0000 0.0000 -1.0000
vn 0.0000 0.0000 -1.0000
vn 0.0000 1.0000 -0.0000
vn 0.0000 -1.0000 0.0000
vn 1.0000 0.0000 0.0000
vn 1.0000 -0.0000 0.0000
vn 0.0000 1.0000 0.0000
vn -0.0000 -1.0000 0.0000
vn -0.9511 0.0000 -0.3090
vn -0.9511 0.0000 -0.3090
vn -0.5878 0.0000 -0.8090
vn -0.5878 0.0000 -0.8090
vn -0.0000 0.0000 -1.0000
vn -0.0000 0.0000 -1.0000
vn 0.5878 0.0000 -0.8090
vn 0.5878 0.0000 -0.8090
vn 0.9511 0.0000 -0.3090
vn 0.9511 0.0000 -0.3090
vn 0.9511 0.0000 0.3090
vn 0.9511 -0.0000 0.3090
vn 0.5878 0.0000 0.8090
vn 0.5878 -0.0000 0.8090
vn 0.0000 0.0000 1.0000
vn 0.0000 -0.0000 1.0000
vn -0.5878 0.0000 0.8090
vn -0.5878 0.0000 0.8090
vn -0.9511 0.0000 0.3090
vn -0.9511 0.0000 0.3090
vn -0.9511 0.0000 -0.3090
vn -0.9511 0.0000 -0.3090
vn -0.5878 0.0000 -0.8090
vn -0.5878 0.0000 -0.8090
vn -0.0000 0.0000 -1.0000
vn -0.0000 0.0000 -1.0000
vn 0.5878 0.0000 -0.8090
vn 0.5878 0.0000 -0.8090
vn 0.9511 0.0000 -0.3090
vn 0.9511 0.0000 -0.3090
vn 0.9511 0.0000 0.3090
vn 0.9511 -0.0000 0.3090
vn 0.5878 0.0000 0.8090
vn 0.5878 -0.0000 0.8090
vn 0.0000 0.0000 1.0000
vn 0.0000 -0.0000 1.0000
vn -0.5878 0.0000 0.8090
vn -0.5878 0.0000 0.8090
vn -0.9511 0.0000 0.3090
vn -0.9511 0.0000 0.3090
usemtl c0
f 1//1 2//1 12//1
f 1//2 12//2 11//2
f 2//3 3//3 13//3
f 2//4 13//4 12//4
f 3//5 4//5 14//5
f 3//6 14//6 13//6
f 4//7 5//7 15//7
f 4//8 15//8 14//8
f 5//9 6//9 16//9
f 5//10 16//10 15//10
f 6//11 7//11 17//11
f 6//12 17//12 16//12
f 7//13 8//13 18//13
f 7//14 18//14 17//14
f 8//15 9//15 19//15
f 8//16 19//16 18//16
f 9//17 10//17 20//17
f 9//18 20//18 19//18
f 10//19 1//19 11//19
f 10//20 11//20 20//20
f 21//21 1//21 2//21
f 21//22 2//22 3//22
f 21//23 3//23 4//23
f 21//24 4//24 5//24
f 21//25 5//25 6//25
f 21//26 6//26 7//26
f 21//27 7//27 8//27
f 21//28 8//28 9//28
f 21//29 9//29 10//29
f 21//30 10//30 1//30
f 22//31 11//31 12//31
f 22//32 12//32 13//32
f 22//33 13//33 14//33
f 22//34 14//34 15//34
f 22//35 15//35 16//35
f 22//36 16//36 17//36
f 22//37 17//37 18//37
f 22//38 18//38 19//38
f 22//39 19//39 20//39
f 22//40 20//40 11//40
usemtl c1
f 23//41 24//41 34//41
f 23//42 34//42 33//42
f 24//43 25//43 35//43
f 24//44 35//44 34//44
f 25//45 26//45 36//45
f 25//46 36//46 35//46
f 26//47 27//47 37//47
f 26//48 37//48 36//48
f 27//49 28//49 38//49
f 27//50 38//50 37//50
f 28//51 29//51 39//51
f 28//52 39//52 38//52
f 29//53 30//53 40//53
f 29//54 40//54 39//54
f 30//55 31//55 41//55
f 30//56 41//56 40//56
f 31//57 32//57 42//57
f 31//58 42//58 41//58
f 32//59 23//59 33//59
f 32//60 33//60 42//60
f 43//61 23//61 24//61
f 43//62 24//62 25//62
f 43//63 25//63 26//63
f 43//64 26//64 27//64
f 43//65 27//65 28//65
f 43//66 28//66 29//66
f 43//67 29//67 30//67
f 43//68 30//68 31//68
f 43//69 31//69 32//69
f 43//70 32//70 23//70
f 44//71 33//71 34//71
f 44//72 34//72 35//72
f 44//73 35//73 36//73
f 44//74 36//74 37//74
f 44//75 37//75 38//75
f 44//76 38//76 39//76
f 44//77 39//77 40//77
f 44//78 40//78 41//78
f 44//79 41//79 42//79
f 44//80 42//80 33//80
f 45//81 46//81 50//81
f 45//82 50//82 49//82
f 53//83 46//83 45//83
f 54//84 49//84 50//84
f 46//85 47//85 51//85
f 46//86 51//86 50//86
f 53//87 47//87 46//87
f 54//88 50//88 51//88
f 47//89 48//89 52//89
f 47//90 52//90 51//90
f 53//91 48//91 47//91
f 54//92 51//92 52//92
f 48//93 45//93 49//93
f 48//94 49//94 52//94
f 53//95 45//95 48//95
f 54//96 52//96 49//96
usemtl c2
f 55//97 56//97 66//97
f 55//98 66//98 65//98
f 56//99 57//99 67//99
f 56//100 67//100 66//100
f 57//101 58//101 68//101
f 57//102 68//102 67//102
f 58//103 59//103 69//103
f 58//104 69//104 68//104
f 59//105 60//105 70//105
f 59//106 70//106 69//106
f 60//107 61//107 71//107
f 60//108 71//108 70//108
f 61//109 62//109 72//109
f 61//110 72//110 71//110
f 62//111 63//111 73//111
f 62//112 73//112 72//112
f 63//113 64//113 74//113
f 63//114 74//114 73//114
f 64//115 55//115 65//115
f 64//116 65//116 74//116
usemtl c3
f 75//117 76//117 86//117
f 75//118 86//118 85//118
f 76//119 77//119 87//119
f 76//120 87//120 86//120
f 77//121 78//121 88//121
f 77//122 88//122 87//122
f 78//123 79//123 89//123
f 78//124 89//124 88//124
f 79//125 80//125 90//125
f 79//126 90//126 89//126
f 80//127 81//127 91//127
f 80//128 91//128 90//128
f 81//129 82//129 92//129
f 81//130 92//130 91//130
f 82//131 83//131 93//131
f 82//132 93//132 92//132
f 83//133 84//133 94//133
f 83//134 94//134 93//134
f 84//135 75//135 85//135
f 84//136 85//136 94//136
