mtllib Food_Candy.mtl
v 0.0000 0.0000 0.0000
v 0.0000 0.0000 0.0000
v 0.0000 0.0000 0.0000
v 0.0000 0.0000 0.0000
v 0.0000 0.0000 0.0000
v 0.0000 0.0000 0.0000
v 0.0000 0.0000 0.0000
v 0.0000 0.0000 0.0000
v 0.4950 0.1464 0.0000
v 0.3500 0.1464 0.2500
v 0.0000 0.1464 0.3536
v -0.3500 0.1464 0.2500
v -0.4950 0.1464 0.0000
v -0.3500 0.1464 -0.2500
v -0.0000 0.1464 -0.3536
v 0.3500 0.1464 -0.2500
v 0.7000 0.5000 0.0000
v 0.4950 0.5000 0.3536
v 0.0000 0.5000 0.5000
v -0.4950 0.5000 0.3536
v -0.7000 0.5000 0.0000
v -0.4950 0.5000 -0.3536
v -0.0000 0.5000 -0.5000
v 0.4950 0.5000 -0.3536
v 0.4950 0.8536 0.0000
v 0.3500 0.8536 0.2500
v 0.0000 0.8536 0.3536
v -0.3500 0.8536 0.2500
v -0.4950 0.8536 0.0000
v -0.3500 0.8536 -0.2500
v -0.0000 0.8536 -0.3536
v 0.3500 0.8536 -0.2500
v 0.0000 1.0000 0.0000
v 0.0000 1.0000 0.0000
v 0.0000 1.0000 0.0000
v -0.0000 1.0000 0.0000
v -0.0000 1.0000 0.0000
v -0.0000 1.0000 -0.0000
v -0.0000 1.0000 -0.0000
v 0.0000 1.0000 -0.0000
v -0.2000 0.0000 0.0000
v -0.2000 0.0000 0.0000
v -0.2000 0.0000 0.0000
v -0.2000 0.0000 0.0000
v -0.2000 0.0000 0.0000
v -0.2000 0.0000 0.0000
v -0.1480 0.2500 0.0000
v -0.1740 0.2500 0.3900
v -0.2260 0.2500 0.3900
v -0.2520 0.2500 0.0000
v -0.2260 0.2500 -0.3900
v -0.1740 0.2500 -0.3900
v -0.1480 0.7500 0.0000
v -0.1740 0.7500 0.3900
v -0.2260 0.7500 0.3900
v -0.2520 0.7500 0.0000
v -0.2260 0.7500 -0.3900
v -0.1740 0.7500 -0.3900
v -0.2000 1.0000 0.0000
v -0.2000 1.0000 0.0000
v -0.2000 1.0000 0.0000
v -0.2000 1.0000 0.0000
v -0.2000 1.0000 -0.0000
v -0.2000 1.0000 -0.0000
v 0.0000 0.0000 0.0000
v 0.0000 0.0000 0.0000
v 0.0000 0.0000 0.0000
v 0.0000 0.0000 0.0000
v 0.0000 0.0000 0.0000
v 0.0000 0.0000 0.0000
v 0.0520 0.2500 0.0000
v 0.0260 0.2500 0.3900
v -0.0260 0.2500 0.3900
v -0.0520 0.2500 0.0000
v -0.0260 0.2500 -0.3900
v 0.0260 0.2500 -0.3900
v 0.0520 0.7500 0.0000
v 0.0260 0.7500 0.3900
v -0.0260 0.7500 0.3900
v -0.0520 0.7500 0.0000
v -0.0260 0.7500 -0.3900
v 0.0260 0.7500 -0.3900
v 0.0000 1.0000 0.0000
v 0.0000 1.0000 0.0000
v -0.0000 1.0000 0.0000
v -0.0000 1.0000 0.0000
v -0.0000 1.0000 -0.0000
v 0.0000 1.0000 -0.0000
v 0.2000 0.0000 0.0000
v 0.2000 0.0000 0.0000
v 0.2000 0.0000 0.0000
v 0.2000 0.0000 0.0000
v 0.2000 0.0000 0.0000
v 0.2000 0.0000 0.0000
v 0.2520 0.2500 0.0000
v 0.2260 0.2500 0.3900
v 0.1740 0.2500 0.3900
v 0.1480 0.2500 0.0000
v 0.1740 0.2500 -0.3900
v 0.2260 0.2500 -0.3900
v 0.2520 0.7500 0.0000
v 0.2260 0.7500 0.3900
v 0.1740 0.7500 0.3900
v 0.1480 0.7500 0.0000
v 0.1740 0.7500 -0.3900
v 0.2260 0.7500 -0.3900
v 0.2000 1.0000 0.0000
v 0.2000 1.0000 0.0000
v 0.2000 1.0000 0.0000
v 0.2000 1.0000 0.0000
v 0.2000 1.0000 -0.0000
v 0.2000 1.0000 -0.0000
v 0.6200 0.1000 0.0000
v 0.6200 0.3000 0.3464
v 0.6200 0.7000 0.3464
v 0.6200 0.9000 0.0000
v 0.6200 0.7000 -0.3464
v 0.6200 0.3000 -0.3464
v 1.2200 0.5000 0.0000
v 1.2200 0.5000 0.0000
v 1.2200 0.5000 0.0000
v 1.2200 0.5000 0.0000
v 1.2200 0.5000 0.0000
v 1.2200 0.5000 0.0000
v 0.6200 0.5000 0.0000
v -0.6200 0.9000 0.0000
v -0.6200 0.7000 0.3464
v -0.6200 0.3000 0.3464
v -0.6200 0.1000 0.0000
v -0.6200 0.3000 -0.3464
v -0.6200 0.7000 -0.3464
v -1.2200 0.5000 0.0000
v -1.2200 0.5000 0.0000
v -1.2200 0.5000 0.0000
v -1.2200 0.5000 0.0000
v -1.2200 0.5000 0.0000
v -1.2200 0.5000 0.0000
v -0.6200 0.5000 0.0000
vn -0.2799 0.9462 -0.1623
vn -0.1125 0.9180 -0.3803
vn 0.1125 0.9180 -0.3803
vn 0.2799 0.9462 -0.1623
vn 0.2799 0.9462 0.1623
vn 0.1125 0.9180 0.3803
vn -0.1125 0.9180 0.3803
vn -0.2799 0.9462 0.1623
vn -0.7732 0.4484 -0.4484
vn -0.7732 0.4484 -0.4484
vn -0.2637 0.3691 -0.8912
vn -0.2637 0.3691 -0.8912
vn 0.2637 0.3691 -0.8912
vn 0.2637 0.3691 -0.8912
vn 0.7732 0.4484 -0.4484
vn 0.7732 0.4484 -0.4484
vn 0.7732 0.4484 0.4484
vn 0.7732 0.4484 0.4484
vn 0.2637 0.3691 0.8912
vn 0.2637 0.3691 0.8912
vn -0.2637 0.3691 0.8912
vn -0.2637 0.3691 0.8912
vn -0.7732 0.4484 0.4484
vn -0.7732 0.4484 0.4484
vn -0.7732 -0.4484 -0.4484
vn -0.7732 -0.4484 -0.4484
vn -0.2637 -0.3691 -0.8912
vn -0.2637 -0.3691 -0.8912
vn 0.2637 -0.3691 -0.8912
vn 0.2637 -0.3691 -0.8912
vn 0.7732 -0.4484 -0.4484
vn 0.7732 -0.4484 -0.4484
vn 0.7732 -0.4484 0.4484
vn 0.7732 -0.4484 0.4484
vn 0.2637 -0.3691 0.8912
vn 0.2637 -0.3691 0.8912
vn -0.2637 -0.3691 0.8912
vn -0.2637 -0.3691 0.8912
vn -0.7732 -0.4484 0.4484
vn -0.7732 -0.4484 0.4484
vn -0.2799 -0.9462 -0.1623
vn -0.1125 -0.9180 -0.3803
vn 0.1125 -0.9180 -0.3803
vn 0.2799 -0.9462 -0.1623
vn 0.2799 -0.9462 0.1623
vn 0.1125 -0.9180 0.3803
vn -0.1125 -0.9180 0.3803
vn -0.2799 -0.9462 0.1623
vn -0.9770 0.2031 -0.0651
vn -0.0000 0.8419 -0.5397
vn 0.9770 0.2031 -0.0651
vn 0.9770 0.2031 0.0651
vn 0.0000 0.8419 0.5397
vn -0.9770 0.2031 0.0651
vn -0.9978 0.0000 -0.0665
vn -0.9978 0.0000 -0.0665
vn -0.0000 0.0000 -1.0000
vn -0.0000 0.0000 -1.0000
vn 0.9978 0.0000 -0.0665
vn 0.9978 0.0000 -0.0665
vn 0.9978 0.0000 0.0665
vn 0.9978 -0.0000 0.0665
vn 0.0000 0.0000 1.0000
vn 0.0000 0.0000 1.0000
vn -0.9978 0.0000 0.0665
vn -0.9978 0.0000 0.0665
vn -0.9770 -0.2031 -0.0651
vn -0.0000 -0.8419 -0.5397
vn 0.9770 -0.2031 -0.0651
vn 0.9770 -0.2031 0.0651
vn 0.0000 -0.8419 0.5397
vn -0.9770 -0.2031 0.0651
vn -0.9770 0.2031 -0.0651
vn -0.0000 0.8419 -0.5397
vn 0.9770 0.2031 -0.0651
vn 0.9770 0.2031 0.0651
vn 0.0000 0.8419 0.5397
vn -0.9770 0.2031 0.0651
vn -0.9978 0.0000 -0.0665
vn -0.9978 0.0000 -0.0665
vn -0.0000 0.0000 -1.0000
vn -0.0000 0.0000 -1.0000
vn 0.9978 0.0000 -0.0665
vn 0.9978 0.0000 -0.0665
vn 0.9978 0.0000 0.0665
vn 0.9978 0.0000 0.0665
vn 0.0000 0.0000 1.0000
vn 0.0000 0.0000 1.0000
vn -0.9978 0.0000 0.0665
vn -0.9978 0.0000 0.0665
vn -0.9770 -0.2031 -0.0651
vn -0.0000 -0.8419 -0.5397
vn 0.9770 -0.2031 -0.0651
vn 0.9770 -0.2031 0.0651
vn 0.0000 -0.8419 0.5397
vn -0.9770 -0.2031 0.0651
vn -0.9770 0.2031 -0.0651
vn -0.0000 0.8419 -0.5397
vn 0.9770 0.2031 -0.0651
vn 0.9770 0.2031 0.0651
vn 0.0000 0.8419 0.5397
vn -0.9770 0.2031 0.0651
vn -0.9978 0.0000 -0.0665
vn -0.9978 0.0000 -0.0665
vn -0.0000 0.0000 -1.0000
vn -0.0000 0.0000 -1.0000
vn 0.9978 0.0000 -0.0665
vn 0.9978 0.0000 -0.0665
vn 0.9978 0.0000 0.0665
vn 0.9978 -0.0000 0.0665
vn 0.0000 0.0000 1.0000
vn 0.0000 0.0000 1.0000
vn -0.9978 0.0000 0.0665
vn -0.9978 0.0000 0.0665
vn -0.9770 -0.2031 -0.0651
vn -0.0000 -0.8419 -0.5397
vn 0.9770 -0.2031 -0.0651
vn 0.9770 -0.2031 0.0651
vn 0.0000 -0.8419 0.5397
vn -0.9770 -0.2031 0.0651
vn -0.5000 0.7500 -0.4330
vn -0.5000 0.0000 -0.8660
vn -0.5000 -0.7500 -0.4330
vn -0.5000 -0.7500 0.4330
vn -0.5000 -0.0000 0.8660
vn -0.5000 0.7500 0.4330
vn -1.0000 0.0000 0.0000
vn -1.0000 0.0000 0.0000
vn -1.0000 0.0000 0.0000
vn -1.0000 0.0000 0.0000
vn -1.0000 0.0000 -0.0000
vn -1.0000 -0.0000 0.0000
vn 0.5000 -0.7500 -0.4330
vn 0.5000 -0.0000 -0.8660
vn 0.5000 0.7500 -0.4330
vn 0.5000 0.7500 0.4330
vn 0.5000 0.0000 0.8660
vn 0.5000 -0.7500 0.4330
vn 1.0000 0.0000 0.0000
vn 1.0000 0.0000 -0.0000
vn 1.0000 0.0000 0.0000
vn 1.0000 0.0000 0.0000
vn 1.0000 0.0000 0.0000
vn 1.0000 -0.0000 0.0000
usemtl c0
f 1//1 10//1 9//1
f 2//2 11//2 10//2
f 3//3 12//3 11//3
f 4//4 13//4 12//4
f 5//5 14//5 13//5
f 6//6 15//6 14//6
f 7//7 16//7 15//7
f 8//8 9//8 16//8
f 9//9 10//9 18//9
f 9//10 18//10 17//10
f 10//11 11//11 19//11
f 10//12 19//12 18//12
f 11//13 12//13 20//13
f 11//14 20//14 19//14
f 12//15 13//15 21//15
f 12//16 21//16 20//16
f 13//17 14//17 22//17
f 13//18 22//18 21//18
f 14//19 15//19 23//19
f 14//20 23//20 22//20
f 15//21 16//21 24//21
f 15//22 24//22 23//22
f 16//23 9//23 17//23
f 16//24 17//24 24//24
f 17//25 18//25 26//25
f 17//26 26//26 25//26
f 18//27 19//27 27//27
f 18//28 27//28 26//28
f 19//29 20//29 28//29
f 19//30 28//30 27//30
f 20//31 21//31 29//31
f 20//32 29//32 28//32
f 21//33 22//33 30//33
f 21//34 30//34 29//34
f 22//35 23//35 31//35
f 22//36 31//36 30//36
f 23//37 24//37 32//37
f 23//38 32//38 31//38
f 24//39 17//39 25//39
f 24//40 25//40 32//40
f 25//41 26//41 34//41
f 26//42 27//42 35//42
f 27//43 28//43 36//43
f 28//44 29//44 37//44
f 29//45 30//45 38//45
f 30//46 31//46 39//46
f 31//47 32//47 40//47
f 32//48 25//48 33//48
usemtl c1
f 41//49 48//49 47//49
f 42//50 49//50 48//50
f 43//51 50//51 49//51
f 44//52 51//52 50//52
f 45//53 52//53 51//53
f 46//54 47//54 52//54
f 47//55 48//55 54//55
f 47//56 54//56 53//56
f 48//57 49//57 55//57
f 48//58 55//58 54//58
f 49//59 50//59 56//59
f 49//60 56//60 55//60
f 50//61 51//61 57//61
f 50//62 57//62 56//62
f 51//63 52//63 58//63
f 51//64 58//64 57//64
f 52//65 47//65 53//65
f 52//66 53//66 58//66
f 53//67 54//67 60//67
f 54//68 55//68 61//68
f 55//69 56//69 62//69
f 56//70 57//70 63//70
f 57//71 58//71 64//71
f 58//72 53//72 59//72
f 65//73 72//73 71//73
f 66//74 73//74 72//74
f 67//75 74//75 73//75
f 68//76 75//76 74//76
f 69//77 76//77 75//77
f 70//78 71//78 76//78
f 71//79 72//79 78//79
f 71//80 78//80 77//80
f 72//81 73//81 79//81
f 72//82 79//82 78//82
f 73//83 74//83 80//83
f 73//84 80//84 79//84
f 74//85 75//85 81//85
f 74//86 81//86 80//86
f 75//87 76//87 82//87
f 75//88 82//88 81//88
f 76//89 71//89 77//89
f 76//90 77//90 82//90
f 77//91 78//91 84//91
f 78//92 79//92 85//92
f 79//93 80//93 86//93
f 80//94 81//94 87//94
f 81//95 82//95 88//95
f 82//96 77//96 83//96
f 89//97 96//97 95//97
f 90//98 97//98 96//98
f 91//99 98//99 97//99
f 92//100 99//100 98//100
f 93//101 100//101 99//101
f 94//102 95//102 100//102
f 95//103 96//103 102//103
f 95//104 102//104 101//104
f 96//105 97//105 103//105
f 96//106 103//106 102//106
f 97//107 98//107 104//107
f 97//108 104//108 103//108
f 98//109 99//109 105//109
f 98//110 105//110 104//110
f 99//111 100//111 106//111
f 99//112 106//112 105//112
f 100//113 95//113 101//113
f 100//114 101//114 106//114
f 101//115 102//115 108//115
f 102//116 103//116 109//116
f 103//117 104//117 110//117
f 104//118 105//118 111//118
f 105//119 106//119 112//119
f 106//120 101//120 107//120
usemtl c2
f 113//121 114//121 120//121
f 114//122 115//122 121//122
f 115//123 116//123 122//123
f 116//124 117//124 123//124
f 117//125 118//125 124//125
f 118//126 113//126 119//126
f 125//127 113//127 114//127
f 125//128 114//128 115//128
f 125//129 115//129 116//129
f 125//130 116//130 117//130
f 125//131 117//131 118//131
f 125//132 118//132 113//132
f 126//133 127//133 133//133
f 127//134 128//134 134//134
f 128//135 129//135 135//135
f 129//136 130//136 136//136
f 130//137 131//137 137//137
f 131//138 126//138 132//138
f 138//139 126//139 127//139
f 138//140 127//140 128//140
f 138//141 128//141 129//141
f 138//142 129//142 130//142
f 138//143 130//143 131//143
f 138//144 131//144 126//144
