mtllib Food_KimchiStew.mtl
v 0.0000 0.0000 0.0000
v 0.0000 0.0000 0.0000
v 0.0000 0.0000 0.0000
v 0.0000 0.0000 0.0000
v 0.0000 0.0000 0.0000
v 0.0000 0.0000 0.0000
v 0.0000 0.0000 0.0000
v 0.0000 0.0000 0.0000
v 0.0000 0.0000 0.0000
v 0.0000 0.0000 0.0000
v 0.0000 0.0000 0.0000
v 0.0000 0.0000 0.0000
v 0.4200 0.0000 0.0000
v 0.3637 0.0000 0.2100
v 0.2100 0.0000 0.3637
v 0.0000 0.0000 0.4200
v -0.2100 0.0000 0.3637
v -0.3637 0.0000 0.2100
v -0.4200 0.0000 0.0000
v -0.3637 0.0000 -0.2100
v -0.2100 0.0000 -0.3637
v -0.0000 0.0000 -0.4200
v 0.2100 0.0000 -0.3637
v 0.3637 0.0000 -0.2100
v 0.5000 0.0500 0.0000
v 0.4330 0.0500 0.2500
v 0.2500 0.0500 0.4330
v 0.0000 0.0500 0.5000
v -0.2500 0.0500 0.4330
v -0.4330 0.0500 0.2500
v -0.5000 0.0500 0.0000
v -0.4330 0.0500 -0.2500
v -0.2500 0.0500 -0.4330
v -0.0000 0.0500 -0.5000
v 0.2500 0.0500 -0.4330
v 0.4330 0.0500 -0.2500
v 0.8000 0.3000 0.0000
v 0.6928 0.3000 0.4000
v 0.4000 0.3000 0.6928
v 0.0000 0.3000 0.8000
v -0.4000 0.3000 0.6928
v -0.6928 0.3000 0.4000
v -0.8000 0.3000 0.0000
v -0.6928 0.3000 -0.4000
v -0.4000 0.3000 -0.6928
v -0.0000 0.3000 -0.8000
v 0.4000 0.3000 -0.6928
v 0.6928 0.3000 -0.4000
v 1.0000 0.7500 0.0000
v 0.8660 0.7500 0.5000
v 0.5000 0.7500 0.8660
v 0.0000 0.7500 1.0000
v -0.5000 0.7500 0.8660
v -0.8660 0.7500 0.5000
v -1.0000 0.7500 0.0000
v -0.8660 0.7500 -0.5000
v -0.5000 0.7500 -0.8660
v -0.0000 0.7500 -1.0000
v 0.5000 0.7500 -0.8660
v 0.8660 0.7500 -0.5000
v 0.9300 0.7300 0.0000
v 0.8054 0.7300 0.4650
v 0.4650 0.7300 0.8054
v 0.0000 0.7300 0.9300
v -0.4650 0.7300 0.8054
v -0.8054 0.7300 0.4650
v -0.9300 0.7300 0.0000
v -0.8054 0.7300 -0.4650
v -0.4650 0.7300 -0.8054
v -0.0000 0.7300 -0.9300
v 0.4650 0.7300 -0.8054
v 0.8054 0.7300 -0.4650
v 1.0200 0.7300 0.0000
v 0.8833 0.7300 0.5100
v 0.5100 0.7300 0.8833
v 0.0000 0.7300 1.0200
v -0.5100 0.7300 0.8833
v -0.8833 0.7300 0.5100
v -1.0200 0.7300 0.0000
v -0.8833 0.7300 -0.5100
v -0.5100 0.7300 -0.8833
v -0.0000 0.7300 -1.0200
v 0.5100 0.7300 -0.8833
v 0.8833 0.7300 -0.5100
v 1.0200 0.8000 0.0000
v 0.8833 0.8000 0.5100
v 0.5100 0.8000 0.8833
v 0.0000 0.8000 1.0200
v -0.5100 0.8000 0.8833
v -0.8833 0.8000 0.5100
v -1.0200 0.8000 0.0000
v -0.8833 0.8000 -0.5100
v -0.5100 0.8000 -0.8833
v -0.0000 0.8000 -1.0200
v 0.5100 0.8000 -0.8833
v 0.8833 0.8000 -0.5100
v 0.9300 0.8000 0.0000
v 0.8054 0.8000 0.4650
v 0.4650 0.8000 0.8054
v 0.0000 0.8000 0.9300
v -0.4650 0.8000 0.8054
v -0.8054 0.8000 0.4650
v -0.9300 0.8000 0.0000
v -0.8054 0.8000 -0.4650
v -0.4650 0.8000 -0.8054
v -0.0000 0.8000 -0.9300
v 0.4650 0.8000 -0.8054
v 0.8054 0.8000 -0.4650
v 0.9400 0.7500 0.0000
v 0.8141 0.7500 0.4700
v 0.4700 0.7500 0.8141
v 0.0000 0.7500 0.9400
v -0.4700 0.7500 0.8141
v -0.8141 0.7500 0.4700
v -0.9400 0.7500 0.0000
v -0.8141 0.7500 -0.4700
v -0.4700 0.7500 -0.8141
v -0.0000 0.7500 -0.9400
v 0.4700 0.7500 -0.8141
v 0.8141 0.7500 -0.4700
v 0.7000 0.2950 0.0000
v 0.6062 0.2950 0.3500
v 0.3500 0.2950 0.6062
v 0.0000 0.2950 0.7000
v -0.3500 0.2950 0.6062
v -0.6062 0.2950 0.3500
v -0.7000 0.2950 0.0000
v -0.6062 0.2950 -0.3500
v -0.3500 0.2950 -0.6062
v -0.0000 0.2950 -0.7000
v 0.3500 0.2950 -0.6062
v 0.6062 0.2950 -0.3500
v 0.0000 0.2250 0.0000
v 0.0000 0.2250 0.0000
v 0.0000 0.2250 0.0000
v 0.0000 0.2250 0.0000
v 0.0000 0.2250 0.0000
v 0.0000 0.2250 0.0000
v 0.0000 0.2250 0.0000
v 0.0000 0.2250 0.0000
v 0.0000 0.2250 0.0000
v 0.0000 0.2250 0.0000
v 0.0000 0.2250 0.0000
v 0.0000 0.2250 0.0000
v 0.8600 0.5250 0.0000
v 0.7448 0.5250 0.4300
v 0.4300 0.5250 0.7448
v 0.0000 0.5250 0.8600
v -0.4300 0.5250 0.7448
v -0.7448 0.5250 0.4300
v -0.8600 0.5250 0.0000
v -0.7448 0.5250 -0.4300
v -0.4300 0.5250 -0.7448
v -0.0000 0.5250 -0.8600
v 0.4300 0.5250 -0.7448
v 0.7448 0.5250 -0.4300
v 0.8600 0.5750 0.0000
v 0.7448 0.5750 0.4300
v 0.4300 0.5750 0.7448
v 0.0000 0.5750 0.8600
v -0.4300 0.5750 0.7448
v -0.7448 0.5750 0.4300
v -0.8600 0.5750 0.0000
v -0.7448 0.5750 -0.4300
v -0.4300 0.5750 -0.7448
v -0.0000 0.5750 -0.8600
v 0.4300 0.5750 -0.7448
v 0.7448 0.5750 -0.4300
v 0.0000 0.5250 0.0000
v 0.0000 0.5750 0.0000
v -0.4622 0.5450 -0.3136
v -0.1864 0.5450 -0.3622
v -0.1378 0.5450 -0.0864
v -0.4136 0.5450 -0.0378
v -0.4622 0.7450 -0.3136
v -0.1864 0.7450 -0.3622
v -0.1378 0.7450 -0.0864
v -0.4136 0.7450 -0.0378
v -0.3000 0.5450 -0.2000
v -0.3000 0.7450 -0.2000
v 0.1088 0.5450 0.0488
v 0.3512 0.5450 -0.0912
v 0.4912 0.5450 0.1512
v 0.2488 0.5450 0.2912
v 0.1088 0.7450 0.0488
v 0.3512 0.7450 -0.0912
v 0.4912 0.7450 0.1512
v 0.2488 0.7450 0.2912
v 0.3000 0.5450 0.1000
v 0.3000 0.7450 0.1000
v -0.1900 0.5450 0.2600
v 0.0900 0.5450 0.2600
v 0.0900 0.5450 0.5400
v -0.1900 0.5450 0.5400
v -0.1900 0.7450 0.2600
v 0.0900 0.7450 0.2600
v 0.0900 0.7450 0.5400
v -0.1900 0.7450 0.5400
v -0.0500 0.5450 0.4000
v -0.0500 0.7450 0.4000
v 0.5472 0.4950 0.5374
v 0.5472 0.4950 0.5374
v 0.5472 0.4950 0.5374
v 0.5472 0.4950 0.5374
v 0.6372 0.5850 0.5374
v 0.5472 0.5850 0.6274
v 0.4572 0.5850 0.5374
v 0.5472 0.5850 0.4474
v 0.5472 0.6750 0.5374
v 0.5472 0.6750 0.5374
v 0.5472 0.6750 0.5374
v 0.5472 0.6750 0.5374
v -0.5321 0.4950 -0.4982
v -0.5321 0.4950 -0.4982
v -0.5321 0.4950 -0.4982
v -0.5321 0.4950 -0.4982
v -0.4421 0.5850 -0.4982
v -0.5321 0.5850 -0.4082
v -0.6221 0.5850 -0.4982
v -0.5321 0.5850 -0.5882
v -0.5321 0.6750 -0.4982
v -0.5321 0.6750 -0.4982
v -0.5321 0.6750 -0.4982
v -0.5321 0.6750 -0.4982
v 0.4026 0.4950 0.2832
v 0.4026 0.4950 0.2832
v 0.4026 0.4950 0.2832
v 0.4026 0.4950 0.2832
v 0.4926 0.5850 0.2832
v 0.4026 0.5850 0.3732
v 0.3126 0.5850 0.2832
v 0.4026 0.5850 0.1932
v 0.4026 0.6750 0.2832
v 0.4026 0.6750 0.2832
v 0.4026 0.6750 0.2832
v 0.4026 0.6750 0.2832
v 0.2037 0.4950 -0.2302
v 0.2037 0.4950 -0.2302
v 0.2037 0.4950 -0.2302
v 0.2037 0.4950 -0.2302
v 0.2937 0.5850 -0.2302
v 0.2037 0.5850 -0.1402
v 0.1137 0.5850 -0.2302
v 0.2037 0.5850 -0.3202
v 0.2037 0.6750 -0.2302
v 0.2037 0.6750 -0.2302
v 0.2037 0.6750 -0.2302
v 0.2037 0.6750 -0.2302
v 0.1271 0.4950 0.1282
v 0.1271 0.4950 0.1282
v 0.1271 0.4950 0.1282
v 0.1271 0.4950 0.1282
v 0.2171 0.5850 0.1282
v 0.1271 0.5850 0.2182
v 0.0371 0.5850 0.1282
v 0.1271 0.5850 0.0382
v 0.1271 0.6750 0.1282
v 0.1271 0.6750 0.1282
v 0.1271 0.6750 0.1282
v 0.1271 0.6750 0.1282
v 0.0974 0.4950 -0.4099
v 0.0974 0.4950 -0.4099
v 0.0974 0.4950 -0.4099
v 0.0974 0.4950 -0.4099
v 0.1874 0.5850 -0.4099
v 0.0974 0.5850 -0.3199
v 0.0074 0.5850 -0.4099
v 0.0974 0.5850 -0.4999
v 0.0974 0.6750 -0.4099
v 0.0974 0.6750 -0.4099
v 0.0974 0.6750 -0.4099
v 0.0974 0.6750 -0.4099
v 0.1500 0.5850 -0.4000
v 0.1155 0.5850 -0.3524
v 0.0595 0.5850 -0.3706
v 0.0595 0.5850 -0.4294
v 0.1155 0.5850 -0.4476
v 0.1500 0.6850 -0.4000
v 0.1155 0.6850 -0.3524
v 0.0595 0.6850 -0.3706
v 0.0595 0.6850 -0.4294
v 0.1155 0.6850 -0.4476
v 0.1000 0.5850 -0.4000
v 0.1000 0.6850 -0.4000
v -0.4500 0.5850 0.3000
v -0.4845 0.5850 0.3476
v -0.5405 0.5850 0.3294
v -0.5405 0.5850 0.2706
v -0.4845 0.5850 0.2524
v -0.4500 0.6850 0.3000
v -0.4845 0.6850 0.3476
v -0.5405 0.6850 0.3294
v -0.5405 0.6850 0.2706
v -0.4845 0.6850 0.2524
v -0.5000 0.5850 0.3000
v -0.5000 0.6850 0.3000
v -0.8300 0.5000 0.0000
v -0.8944 0.3444 0.0000
v -1.0500 0.2800 0.0000
v -1.2056 0.3444 0.0000
v -1.2700 0.5000 0.0000
v -1.2056 0.6556 -0.0000
v -1.0500 0.7200 -0.0000
v -0.8944 0.6556 -0.0000
v -0.8900 0.5000 0.0600
v -0.9369 0.3869 0.0600
v -1.0500 0.3400 0.0600
v -1.1631 0.3869 0.0600
v -1.2100 0.5000 0.0600
v -1.1631 0.6131 0.0600
v -1.0500 0.6600 0.0600
v -0.9369 0.6131 0.0600
v -0.9500 0.5000 0.0000
v -0.9793 0.4293 0.0000
v -1.0500 0.4000 0.0000
v -1.1207 0.4293 0.0000
v -1.1500 0.5000 0.0000
v -1.1207 0.5707 0.0000
v -1.0500 0.6000 0.0000
v -0.9793 0.5707 0.0000
v -0.8900 0.5000 -0.0600
v -0.9369 0.3869 -0.0600
v -1.0500 0.3400 -0.0600
v -1.1631 0.3869 -0.0600
v -1.2100 0.5000 -0.0600
v -1.1631 0.6131 -0.0600
v -1.0500 0.6600 -0.0600
v -0.9369 0.6131 -0.0600
v 1.2700 0.5000 0.0000
v 1.2056 0.3444 0.0000
v 1.0500 0.2800 0.0000
v 0.8944 0.3444 0.0000
v 0.8300 0.5000 0.0000
v 0.8944 0.6556 -0.0000
v 1.0500 0.7200 -0.0000
v 1.2056 0.6556 -0.0000
v 1.2100 0.5000 0.0600
v 1.1631 0.3869 0.0600
v 1.0500 0.3400 0.0600
v 0.9369 0.3869 0.0600
v 0.8900 0.5000 0.0600
v 0.9369 0.6131 0.0600
v 1.0500 0.6600 0.0600
v 1.1631 0.6131 0.0600
v 1.1500 0.5000 0.0000
v 1.1207 0.4293 0.0000
v 1.0500 0.4000 0.0000
v 0.9793 0.4293 0.0000
v 0.9500 0.5000 0.0000
v 0.9793 0.5707 0.0000
v 1.0500 0.6000 0.0000
v 1.1207 0.5707 0.0000
v 1.2100 0.5000 -0.0600
v 1.1631 0.3869 -0.0600
v 1.0500 0.3400 -0.0600
v 0.9369 0.3869 -0.0600
v 0.8900 0.5000 -0.0600
v 0.9369 0.6131 -0.0600
v 1.0500 0.6600 -0.0600
v 1.1631 0.6131 -0.0600
vn 0.0000 1.0000 0.0000
vn 0.0000 1.0000 0.0000
vn 0.0000 1.0000 0.0000
vn 0.0000 1.0000 -0.0000
vn 0.0000 1.0000 0.0000
vn 0.0000 1.0000 0.0000
vn 0.0000 1.0000 0.0000
vn 0.0000 1.0000 0.0000
vn 0.0000 1.0000 0.0000
vn 0.0000 1.0000 0.0000
vn 0.0000 1.0000 0.0000
vn -0.0000 1.0000 0.0000
vn -0.5247 0.8396 -0.1406
vn -0.5247 0.8396 -0.1406
vn -0.3841 0.8396 -0.3841
vn -0.3841 0.8396 -0.3841
vn -0.1406 0.8396 -0.5247
vn -0.1406 0.8396 -0.5247
vn 0.1406 0.8396 -0.5247
vn 0.1406 0.8396 -0.5247
vn 0.3841 0.8396 -0.3841
vn 0.3841 0.8396 -0.3841
vn 0.5247 0.8396 -0.1406
vn 0.5247 0.8396 -0.1406
vn 0.5247 0.8396 0.1406
vn 0.5247 0.8396 0.1406
vn 0.3841 0.8396 0.3841
vn 0.3841 0.8396 0.3841
vn 0.1406 0.8396 0.5247
vn 0.1406 0.8396 0.5247
vn -0.1406 0.8396 0.5247
vn -0.1406 0.8396 0.5247
vn -0.3841 0.8396 0.3841
vn -0.3841 0.8396 0.3841
vn -0.5247 0.8396 0.1406
vn -0.5247 0.8396 0.1406
vn -0.6310 0.7572 -0.1691
vn -0.6310 0.7572 -0.1691
vn -0.4619 0.7572 -0.4619
vn -0.4619 0.7572 -0.4619
vn -0.1691 0.7572 -0.6310
vn -0.1691 0.7572 -0.6310
vn 0.1691 0.7572 -0.6310
vn 0.1691 0.7572 -0.6310
vn 0.4619 0.7572 -0.4619
vn 0.4619 0.7572 -0.4619
vn 0.6310 0.7572 -0.1691
vn 0.6310 0.7572 -0.1691
vn 0.6310 0.7572 0.1691
vn 0.6310 0.7572 0.1691
vn 0.4619 0.7572 0.4619
vn 0.4619 0.7572 0.4619
vn 0.1691 0.7572 0.6310
vn 0.1691 0.7572 0.6310
vn -0.1691 0.7572 0.6310
vn -0.1691 0.7572 0.6310
vn -0.4619 0.7572 0.4619
vn -0.4619 0.7572 0.4619
vn -0.6310 0.7572 0.1691
vn -0.6310 0.7572 0.1691
vn -0.8876 0.3945 -0.2378
vn -0.8876 0.3945 -0.2378
vn -0.6498 0.3945 -0.6498
vn -0.6498 0.3945 -0.6498
vn -0.2378 0.3945 -0.8876
vn -0.2378 0.3945 -0.8876
vn 0.2378 0.3945 -0.8876
vn 0.2378 0.3945 -0.8876
vn 0.6498 0.3945 -0.6498
vn 0.6498 0.3945 -0.6498
vn 0.8876 0.3945 -0.2378
vn 0.8876 0.3945 -0.2378
vn 0.8876 0.3945 0.2378
vn 0.8876 0.3945 0.2378
vn 0.6498 0.3945 0.6498
vn 0.6498 0.3945 0.6498
vn 0.2378 0.3945 0.8876
vn 0.2378 0.3945 0.8876
vn -0.2378 0.3945 0.8876
vn -0.2378 0.3945 0.8876
vn -0.6498 0.3945 0.6498
vn -0.6498 0.3945 0.6498
vn -0.8876 0.3945 0.2378
vn -0.8876 0.3945 0.2378
vn 0.0000 1.0000 0.0000
vn 0.0000 1.0000 -0.0000
vn 0.0000 1.0000 0.0000
vn 0.0000 1.0000 -0.0000
vn 0.0000 1.0000 0.0000
vn 0.0000 1.0000 -0.0000
vn 0.0000 1.0000 0.0000
vn 0.0000 1.0000 -0.0000
vn 0.0000 1.0000 0.0000
vn 0.0000 1.0000 0.0000
vn 0.0000 1.0000 0.0000
vn 0.0000 1.0000 0.0000
vn 0.0000 1.0000 0.0000
vn 0.0000 1.0000 0.0000
vn 0.0000 1.0000 0.0000
vn 0.0000 1.0000 0.0000
vn 0.0000 1.0000 0.0000
vn 0.0000 1.0000 0.0000
vn 0.0000 1.0000 0.0000
vn -0.0000 1.0000 0.0000
vn 0.0000 1.0000 0.0000
vn -0.0000 1.0000 0.0000
vn 0.0000 1.0000 0.0000
vn -0.0000 1.0000 0.0000
vn -0.9659 0.0000 -0.2588
vn -0.9659 0.0000 -0.2588
vn -0.7071 0.0000 -0.7071
vn -0.7071 0.0000 -0.7071
vn -0.2588 0.0000 -0.9659
vn -0.2588 0.0000 -0.9659
vn 0.2588 0.0000 -0.9659
vn 0.2588 0.0000 -0.9659
vn 0.7071 0.0000 -0.7071
vn 0.7071 0.0000 -0.7071
vn 0.9659 0.0000 -0.2588
vn 0.9659 0.0000 -0.2588
vn 0.9659 0.0000 0.2588
vn 0.9659 -0.0000 0.2588
vn 0.7071 0.0000 0.7071
vn 0.7071 -0.0000 0.7071
vn 0.2588 0.0000 0.9659
vn 0.2588 -0.0000 0.9659
vn -0.2588 0.0000 0.9659
vn -0.2588 0.0000 0.9659
vn -0.7071 0.0000 0.7071
vn -0.7071 0.0000 0.7071
vn -0.9659 0.0000 0.2588
vn -0.9659 0.0000 0.2588
vn 0.0000 -1.0000 0.0000
vn 0.0000 -1.0000 0.0000
vn 0.0000 -1.0000 0.0000
vn -0.0000 -1.0000 0.0000
vn 0.0000 -1.0000 0.0000
vn -0.0000 -1.0000 0.0000
vn 0.0000 -1.0000 0.0000
vn 0.0000 -1.0000 0.0000
vn 0.0000 -1.0000 0.0000
vn 0.0000 -1.0000 -0.0000
vn 0.0000 -1.0000 0.0000
vn 0.0000 -1.0000 -0.0000
vn 0.0000 -1.0000 0.0000
vn 0.0000 -1.0000 0.0000
vn 0.0000 -1.0000 0.0000
vn 0.0000 -1.0000 0.0000
vn 0.0000 -1.0000 0.0000
vn 0.0000 -1.0000 0.0000
vn 0.0000 -1.0000 0.0000
vn 0.0000 -1.0000 0.0000
vn 0.0000 -1.0000 0.0000
vn 0.0000 -1.0000 0.0000
vn 0.0000 -1.0000 0.0000
vn 0.0000 -1.0000 0.0000
vn 0.9659 0.0000 0.2588
vn 0.9659 0.0000 0.2588
vn 0.7071 0.0000 0.7071
vn 0.7071 0.0000 0.7071
vn 0.2588 0.0000 0.9659
vn 0.2588 0.0000 0.9659
vn -0.2588 0.0000 0.9659
vn -0.2588 0.0000 0.9659
vn -0.7071 0.0000 0.7071
vn -0.7071 0.0000 0.7071
vn -0.9659 0.0000 0.2588
vn -0.9659 0.0000 0.2588
vn -0.9659 0.0000 -0.2588
vn -0.9659 -0.0000 -0.2588
vn -0.7071 0.0000 -0.7071
vn -0.7071 -0.0000 -0.7071
vn -0.2588 0.0000 -0.9659
vn -0.2588 -0.0000 -0.9659
vn 0.2588 0.0000 -0.9659
vn 0.2588 0.0000 -0.9659
vn 0.7071 0.0000 -0.7071
vn 0.7071 0.0000 -0.7071
vn 0.9659 0.0000 -0.2588
vn 0.9659 0.0000 -0.2588
vn 0.8607 -0.4540 0.2306
vn 0.8607 -0.4540 0.2306
vn 0.6300 -0.4540 0.6300
vn 0.6300 -0.4540 0.6300
vn 0.2306 -0.4540 0.8607
vn 0.2306 -0.4540 0.8607
vn -0.2306 -0.4540 0.8607
vn -0.2306 -0.4540 0.8607
vn -0.6300 -0.4540 0.6300
vn -0.6300 -0.4540 0.6300
vn -0.8607 -0.4540 0.2306
vn -0.8607 -0.4540 0.2306
vn -0.8607 -0.4540 -0.2306
vn -0.8607 -0.4540 -0.2306
vn -0.6300 -0.4540 -0.6300
vn -0.6300 -0.4540 -0.6300
vn -0.2306 -0.4540 -0.8607
vn -0.2306 -0.4540 -0.8607
vn 0.2306 -0.4540 -0.8607
vn 0.2306 -0.4540 -0.8607
vn 0.6300 -0.4540 -0.6300
vn 0.6300 -0.4540 -0.6300
vn 0.8607 -0.4540 -0.2306
vn 0.8607 -0.4540 -0.2306
vn 0.0995 -0.9947 0.0267
vn 0.0728 -0.9947 0.0728
vn 0.0267 -0.9947 0.0995
vn -0.0267 -0.9947 0.0995
vn -0.0728 -0.9947 0.0728
vn -0.0995 -0.9947 0.0267
vn -0.0995 -0.9947 -0.0267
vn -0.0728 -0.9947 -0.0728
vn -0.0267 -0.9947 -0.0995
vn 0.0267 -0.9947 -0.0995
vn 0.0728 -0.9947 -0.0728
vn 0.0995 -0.9947 -0.0267
vn -0.9659 0.0000 -0.2588
vn -0.9659 0.0000 -0.2588
vn -0.7071 0.0000 -0.7071
vn -0.7071 0.0000 -0.7071
vn -0.2588 0.0000 -0.9659
vn -0.2588 0.0000 -0.9659
vn 0.2588 0.0000 -0.9659
vn 0.2588 0.0000 -0.9659
vn 0.7071 0.0000 -0.7071
vn 0.7071 0.0000 -0.7071
vn 0.9659 0.0000 -0.2588
vn 0.9659 0.0000 -0.2588
vn 0.9659 0.0000 0.2588
vn 0.9659 -0.0000 0.2588
vn 0.7071 0.0000 0.7071
vn 0.7071 -0.0000 0.7071
vn 0.2588 0.0000 0.9659
vn 0.2588 -0.0000 0.9659
vn -0.2588 0.0000 0.9659
vn -0.2588 0.0000 0.9659
vn -0.7071 0.0000 0.7071
vn -0.7071 0.0000 0.7071
vn -0.9659 0.0000 0.2588
vn -0.9659 0.0000 0.2588
vn 0.0000 -1.0000 0.0000
vn 0.0000 -1.0000 0.0000
vn 0.0000 -1.0000 0.0000
vn 0.0000 -1.0000 0.0000
vn 0.0000 -1.0000 0.0000
vn 0.0000 -1.0000 0.0000
vn -0.0000 -1.0000 0.0000
vn 0.0000 -1.0000 0.0000
vn 0.0000 -1.0000 0.0000
vn 0.0000 -1.0000 -0.0000
vn 0.0000 -1.0000 0.0000
vn 0.0000 -1.0000 0.0000
vn 0.0000 -1.0000 0.0000
vn 0.0000 -1.0000 0.0000
vn 0.0000 -1.0000 0.0000
vn 0.0000 -1.0000 0.0000
vn 0.0000 -1.0000 0.0000
vn 0.0000 -1.0000 0.0000
vn -0.0000 -1.0000 0.0000
vn 0.0000 -1.0000 0.0000
vn 0.0000 -1.0000 0.0000
vn 0.0000 -1.0000 -0.0000
vn 0.0000 -1.0000 0.0000
vn 0.0000 -1.0000 0.0000
vn 0.1736 0.0000 0.9848
vn 0.1736 -0.0000 0.9848
vn 0.0000 1.0000 0.0000
vn 0.0000 -1.0000 -0.0000
vn -0.9848 0.0000 0.1736
vn -0.9848 0.0000 0.1736
vn -0.0000 1.0000 0.0000
vn 0.0000 -1.0000 0.0000
vn -0.1736 0.0000 -0.9848
vn -0.1736 0.0000 -0.9848
vn 0.0000 1.0000 -0.0000
vn 0.0000 -1.0000 0.0000
vn 0.9848 0.0000 -0.1736
vn 0.9848 0.0000 -0.1736
vn 0.0000 1.0000 0.0000
vn -0.0000 -1.0000 0.0000
vn 0.5000 0.0000 0.8660
vn 0.5000 -0.0000 0.8660
vn 0.0000 1.0000 0.0000
vn 0.0000 -1.0000 -0.0000
vn -0.8660 0.0000 0.5000
vn -0.8660 0.0000 0.5000
vn -0.0000 1.0000 0.0000
vn 0.0000 -1.0000 0.0000
vn -0.5000 0.0000 -0.8660
vn -0.5000 0.0000 -0.8660
vn 0.0000 1.0000 -0.0000
vn 0.0000 -1.0000 0.0000
vn 0.8660 0.0000 -0.5000
vn 0.8660 0.0000 -0.5000
vn 0.0000 1.0000 0.0000
vn -0.0000 -1.0000 0.0000
vn 0.0000 0.0000 1.0000
vn 0.0000 0.0000 1.0000
vn 0.0000 1.0000 0.0000
vn 0.0000 -1.0000 -0.0000
vn -1.0000 0.0000 0.0000
vn -1.0000 0.0000 0.0000
vn -0.0000 1.0000 0.0000
vn 0.0000 -1.0000 0.0000
vn 0.0000 0.0000 -1.0000
vn 0.0000 0.0000 -1.0000
vn 0.0000 1.0000 -0.0000
vn 0.0000 -1.0000 0.0000
vn 1.0000 0.0000 0.0000
vn 1.0000 -0.0000 0.0000
vn 0.0000 1.0000 0.0000
vn -0.0000 -1.0000 0.0000
vn -0.5774 0.5774 -0.5774
vn 0.5774 0.5774 -0.5774
vn 0.5774 0.5774 0.5774
vn -0.5774 0.5774 0.5774
vn -0.5774 -0.5774 -0.5774
vn 0.5774 -0.5774 -0.5774
vn 0.5774 -0.5774 0.5774
vn -0.5774 -0.5774 0.5774
vn -0.5774 0.5774 -0.5774
vn 0.5774 0.5774 -0.5774
vn 0.5774 0.5774 0.5774
vn -0.5774 0.5774 0.5774
vn -0.5774 -0.5774 -0.5774
vn 0.5774 -0.5774 -0.5774
vn 0.5774 -0.5774 0.5774
vn -0.5774 -0.5774 0.5774
vn -0.5774 0.5774 -0.5774
vn 0.5774 0.5774 -0.5774
vn 0.5774 0.5774 0.5774
vn -0.5774 0.5774 0.5774
vn -0.5774 -0.5774 -0.5774
vn 0.5774 -0.5774 -0.5774
vn 0.5774 -0.5774 0.5774
vn -0.5774 -0.5774 0.5774
vn -0.5774 0.5774 -0.5774
vn 0.5774 0.5774 -0.5774
vn 0.5774 0.5774 0.5774
vn -0.5774 0.5774 0.5774
vn -0.5774 -0.5774 -0.5774
vn 0.5774 -0.5774 -0.5774
vn 0.5774 -0.5774 0.5774
vn -0.5774 -0.5774 0.5774
vn -0.5774 0.5774 -0.5774
vn 0.5774 0.5774 -0.5774
vn 0.5774 0.5774 0.5774
vn -0.5774 0.5774 0.5774
vn -0.5774 -0.5774 -0.5774
vn 0.5774 -0.5774 -0.5774
vn 0.5774 -0.5774 0.5774
vn -0.5774 -0.5774 0.5774
vn -0.5774 0.5774 -0.5774
vn 0.5774 0.5774 -0.5774
vn 0.5774 0.5774 0.5774
vn -0.5774 0.5774 0.5774
vn -0.5774 -0.5774 -0.5774
vn 0.5774 -0.5774 -0.5774
vn 0.5774 -0.5774 0.5774
vn -0.5774 -0.5774 0.5774
vn -0.8090 0.0000 -0.5878
vn -0.8090 0.0000 -0.5878
vn 0.3090 0.0000 -0.9511
vn 0.3090 0.0000 -0.9511
vn 1.0000 0.0000 -0.0000
vn 1.0000 0.0000 -0.0000
vn 0.3090 0.0000 0.9511
vn 0.3090 -0.0000 0.9511
vn -0.8090 0.0000 0.5878
vn -0.8090 0.0000 0.5878
vn 0.0000 -1.0000 0.0000
vn 0.0000 -1.0000 0.0000
vn -0.0000 -1.0000 0.0000
vn 0.0000 -1.0000 -0.0000
vn 0.0000 -1.0000 0.0000
vn 0.0000 -1.0000 0.0000
vn 0.0000 -1.0000 0.0000
vn -0.0000 -1.0000 0.0000
vn 0.0000 -1.0000 -0.0000
vn 0.0000 -1.0000 0.0000
vn -0.8090 0.0000 -0.5878
vn -0.8090 0.0000 -0.5878
vn 0.3090 0.0000 -0.9511
vn 0.3090 0.0000 -0.9511
vn 1.0000 0.0000 0.0000
vn 1.0000 -0.0000 0.0000
vn 0.3090 0.0000 0.9511
vn 0.3090 -0.0000 0.9511
vn -0.8090 0.0000 0.5878
vn -0.8090 0.0000 0.5878
vn 0.0000 -1.0000 0.0000
vn 0.0000 -1.0000 0.0000
vn -0.0000 -1.0000 0.0000
vn 0.0000 -1.0000 -0.0000
vn 0.0000 -1.0000 0.0000
vn 0.0000 -1.0000 0.0000
vn 0.0000 -1.0000 0.0000
vn -0.0000 -1.0000 0.0000
vn 0.0000 -1.0000 -0.0000
vn 0.0000 -1.0000 0.0000
vn -0.6786 0.2811 -0.6786
vn -0.6786 0.2811 -0.6786
vn -0.2811 0.6786 -0.6786
vn -0.2811 0.6786 -0.6786
vn 0.2811 0.6786 -0.6786
vn 0.2811 0.6786 -0.6786
vn 0.6786 0.2811 -0.6786
vn 0.6786 0.2811 -0.6786
vn 0.6786 -0.2811 -0.6786
vn 0.6786 -0.2811 -0.6786
vn 0.2811 -0.6786 -0.6786
vn 0.2811 -0.6786 -0.6786
vn -0.2811 -0.6786 -0.6786
vn -0.2811 -0.6786 -0.6786
vn -0.6786 -0.2811 -0.6786
vn -0.6786 -0.2811 -0.6786
vn 0.6786 -0.2811 -0.6786
vn 0.6786 -0.2811 -0.6786
vn 0.2811 -0.6786 -0.6786
vn 0.2811 -0.6786 -0.6786
vn -0.2811 -0.6786 -0.6786
vn -0.2811 -0.6786 -0.6786
vn -0.6786 -0.2811 -0.6786
vn -0.6786 -0.2811 -0.6786
vn -0.6786 0.2811 -0.6786
vn -0.6786 0.2811 -0.6786
vn -0.2811 0.6786 -0.6786
vn -0.2811 0.6786 -0.6786
vn 0.2811 0.6786 -0.6786
vn 0.2811 0.6786 -0.6786
vn 0.6786 0.2811 -0.6786
vn 0.6786 0.2811 -0.6786
vn 0.6786 -0.2811 0.6786
vn 0.6786 -0.2811 0.6786
vn 0.2811 -0.6786 0.6786
vn 0.2811 -0.6786 0.6786
vn -0.2811 -0.6786 0.6786
vn -0.2811 -0.6786 0.6786
vn -0.6786 -0.2811 0.6786
vn -0.6786 -0.2811 0.6786
vn -0.6786 0.2811 0.6786
vn -0.6786 0.2811 0.6786
vn -0.2811 0.6786 0.6786
vn -0.2811 0.6786 0.6786
vn 0.2811 0.6786 0.6786
vn 0.2811 0.6786 0.6786
vn 0.6786 0.2811 0.6786
vn 0.6786 0.2811 0.6786
vn -0.6786 0.2811 0.6786
vn -0.6786 0.2811 0.6786
vn -0.2811 0.6786 0.6786
vn -0.2811 0.6786 0.6786
vn 0.2811 0.6786 0.6786
vn 0.2811 0.6786 0.6786
vn 0.6786 0.2811 0.6786
vn 0.6786 0.2811 0.6786
vn 0.6786 -0.2811 0.6786
vn 0.6786 -0.2811 0.6786
vn 0.2811 -0.6786 0.6786
vn 0.2811 -0.6786 0.6786
vn -0.2811 -0.6786 0.6786
vn -0.2811 -0.6786 0.6786
vn -0.6786 -0.2811 0.6786
vn -0.6786 -0.2811 0.6786
vn -0.6786 0.2811 -0.6786
vn -0.6786 0.2811 -0.6786
vn -0.2811 0.6786 -0.6786
vn -0.2811 0.6786 -0.6786
vn 0.2811 0.6786 -0.6786
vn 0.2811 0.6786 -0.6786
vn 0.6786 0.2811 -0.6786
vn 0.6786 0.2811 -0.6786
vn 0.6786 -0.2811 -0.6786
vn 0.6786 -0.2811 -0.6786
vn 0.2811 -0.6786 -0.6786
vn 0.2811 -0.6786 -0.6786
vn -0.2811 -0.6786 -0.6786
vn -0.2811 -0.6786 -0.6786
vn -0.6786 -0.2811 -0.6786
vn -0.6786 -0.2811 -0.6786
vn 0.6786 -0.2811 -0.6786
vn 0.6786 -0.2811 -0.6786
vn 0.2811 -0.6786 -0.6786
vn 0.2811 -0.6786 -0.6786
vn -0.2811 -0.6786 -0.6786
vn -0.2811 -0.6786 -0.6786
vn -0.6786 -0.2811 -0.6786
vn -0.6786 -0.2811 -0.6786
vn -0.6786 0.2811 -0.6786
vn -0.6786 0.2811 -0.6786
vn -0.2811 0.6786 -0.6786
vn -0.2811 0.6786 -0.6786
vn 0.2811 0.6786 -0.6786
vn 0.2811 0.6786 -0.6786
vn 0.6786 0.2811 -0.6786
vn 0.6786 0.2811 -0.6786
vn 0.6786 -0.2811 0.6786
vn 0.6786 -0.2811 0.6786
vn 0.2811 -0.6786 0.6786
vn 0.2811 -0.6786 0.6786
vn -0.2811 -0.6786 0.6786
vn -0.2811 -0.6786 0.6786
vn -0.6786 -0.2811 0.6786
vn -0.6786 -0.2811 0.6786
vn -0.6786 0.2811 0.6786
vn -0.6786 0.2811 0.6786
vn -0.2811 0.6786 0.6786
vn -0.2811 0.6786 0.6786
vn 0.2811 0.6786 0.6786
vn 0.2811 0.6786 0.6786
vn 0.6786 0.2811 0.6786
vn 0.6786 0.2811 0.6786
vn -0.6786 0.2811 0.6786
vn -0.6786 0.2811 0.6786
vn -0.2811 0.6786 0.6786
vn -0.2811 0.6786 0.6786
vn 0.2811 0.6786 0.6786
vn 0.2811 0.6786 0.6786
vn 0.6786 0.2811 0.6786
vn 0.6786 0.2811 0.6786
vn 0.6786 -0.2811 0.6786
vn 0.6786 -0.2811 0.6786
vn 0.2811 -0.6786 0.6786
vn 0.2811 -0.6786 0.6786
vn -0.2811 -0.6786 0.6786
vn -0.2811 -0.6786 0.6786
vn -0.6786 -0.2811 0.6786
vn -0.6786 -0.2811 0.6786
usemtl c0
f 1//1 14//1 13//1
f 2//2 15//2 14//2
f 3//3 16//3 15//3
f 4//4 17//4 16//4
f 5//5 18//5 17//5
f 6//6 19//6 18//6
f 7//7 20//7 19//7
f 8//8 21//8 20//8
f 9//9 22//9 21//9
f 10//10 23//10 22//10
f 11//11 24//11 23//11
f 12//12 13//12 24//12
f 13//13 14//13 26//13
f 13//14 26//14 25//14
f 14//15 15//15 27//15
f 14//16 27//16 26//16
f 15//17 16//17 28//17
f 15//18 28//18 27//18
f 16//19 17//19 29//19
f 16//20 29//20 28//20
f 17//21 18//21 30//21
f 17//22 30//22 29//22
f 18//23 19//23 31//23
f 18//24 31//24 30//24
f 19//25 20//25 32//25
f 19//26 32//26 31//26
f 20//27 21//27 33//27
f 20//28 33//28 32//28
f 21//29 22//29 34//29
f 21//30 34//30 33//30
f 22//31 23//31 35//31
f 22//32 35//32 34//32
f 23//33 24//33 36//33
f 23//34 36//34 35//34
f 24//35 13//35 25//35
f 24//36 25//36 36//36
f 25//37 26//37 38//37
f 25//38 38//38 37//38
f 26//39 27//39 39//39
f 26//40 39//40 38//40
f 27//41 28//41 40//41
f 27//42 40//42 39//42
f 28//43 29//43 41//43
f 28//44 41//44 40//44
f 29//45 30//45 42//45
f 29//46 42//46 41//46
f 30//47 31//47 43//47
f 30//48 43//48 42//48
f 31//49 32//49 44//49
f 31//50 44//50 43//50
f 32//51 33//51 45//51
f 32//52 45//52 44//52
f 33//53 34//53 46//53
f 33//54 46//54 45//54
f 34//55 35//55 47//55
f 34//56 47//56 46//56
f 35//57 36//57 48//57
f 35//58 48//58 47//58
f 36//59 25//59 37//59
f 36//60 37//60 48//60
f 37//61 38//61 50//61
f 37//62 50//62 49//62
f 38//63 39//63 51//63
f 38//64 51//64 50//64
f 39//65 40//65 52//65
f 39//66 52//66 51//66
f 40//67 41//67 53//67
f 40//68 53//68 52//68
f 41//69 42//69 54//69
f 41//70 54//70 53//70
f 42//71 43//71 55//71
f 42//72 55//72 54//72
f 43//73 44//73 56//73
f 43//74 56//74 55//74
f 44//75 45//75 57//75
f 44//76 57//76 56//76
f 45//77 46//77 58//77
f 45//78 58//78 57//78
f 46//79 47//79 59//79
f 46//80 59//80 58//80
f 47//81 48//81 60//81
f 47//82 60//82 59//82
f 48//83 37//83 49//83
f 48//84 49//84 60//84
usemtl c1
f 61//85 62//85 74//85
f 61//86 74//86 73//86
f 62//87 63//87 75//87
f 62//88 75//88 74//88
f 63//89 64//89 76//89
f 63//90 76//90 75//90
f 64//91 65//91 77//91
f 64//92 77//92 76//92
f 65//93 66//93 78//93
f 65//94 78//94 77//94
f 66//95 67//95 79//95
f 66//96 79//96 78//96
f 67//97 68//97 80//97
f 67//98 80//98 79//98
f 68//99 69//99 81//99
f 68//100 81//100 80//100
f 69//101 70//101 82//101
f 69//102 82//102 81//102
f 70//103 71//103 83//103
f 70//104 83//104 82//104
f 71//105 72//105 84//105
f 71//106 84//106 83//106
f 72//107 61//107 73//107
f 72//108 73//108 84//108
f 73//109 74//109 86//109
f 73//110 86//110 85//110
f 74//111 75//111 87//111
f 74//112 87//112 86//112
f 75//113 76//113 88//113
f 75//114 88//114 87//114
f 76//115 77//115 89//115
f 76//116 89//116 88//116
f 77//117 78//117 90//117
f 77//118 90//118 89//118
f 78//119 79//119 91//119
f 78//120 91//120 90//120
f 79//121 80//121 92//121
f 79//122 92//122 91//122
f 80//123 81//123 93//123
f 80//124 93//124 92//124
f 81//125 82//125 94//125
f 81//126 94//126 93//126
f 82//127 83//127 95//127
f 82//128 95//128 94//128
f 83//129 84//129 96//129
f 83//130 96//130 95//130
f 84//131 73//131 85//131
f 84//132 85//132 96//132
f 85//133 86//133 98//133
f 85//134 98//134 97//134
f 86//135 87//135 99//135
f 86//136 99//136 98//136
f 87//137 88//137 100//137
f 87//138 100//138 99//138
f 88//139 89//139 101//139
f 88//140 101//140 100//140
f 89//141 90//141 102//141
f 89//142 102//142 101//142
f 90//143 91//143 103//143
f 90//144 103//144 102//144
f 91//145 92//145 104//145
f 91//146 104//146 103//146
f 92//147 93//147 105//147
f 92//148 105//148 104//148
f 93//149 94//149 106//149
f 93//150 106//150 105//150
f 94//151 95//151 107//151
f 94//152 107//152 106//152
f 95//153 96//153 108//153
f 95//154 108//154 107//154
f 96//155 85//155 97//155
f 96//156 97//156 108//156
f 97//157 98//157 62//157
f 97//158 62//158 61//158
f 98//159 99//159 63//159
f 98//160 63//160 62//160
f 99//161 100//161 64//161
f 99//162 64//162 63//162
f 100//163 101//163 65//163
f 100//164 65//164 64//164
f 101//165 102//165 66//165
f 101//166 66//166 65//166
f 102//167 103//167 67//167
f 102//168 67//168 66//168
f 103//169 104//169 68//169
f 103//170 68//170 67//170
f 104//171 105//171 69//171
f 104//172 69//172 68//172
f 105//173 106//173 70//173
f 105//174 70//174 69//174
f 106//175 107//175 71//175
f 106//176 71//176 70//176
f 107//177 108//177 72//177
f 107//178 72//178 71//178
f 108//179 97//179 61//179
f 108//180 61//180 72//180
usemtl c2
f 109//181 110//181 122//181
f 109//182 122//182 121//182
f 110//183 111//183 123//183
f 110//184 123//184 122//184
f 111//185 112//185 124//185
f 111//186 124//186 123//186
f 112//187 113//187 125//187
f 112//188 125//188 124//188
f 113//189 114//189 126//189
f 113//190 126//190 125//190
f 114//191 115//191 127//191
f 114//192 127//192 126//192
f 115//193 116//193 128//193
f 115//194 128//194 127//194
f 116//195 117//195 129//195
f 116//196 129//196 128//196
f 117//197 118//197 130//197
f 117//198 130//198 129//198
f 118//199 119//199 131//199
f 118//200 131//200 130//200
f 119//201 120//201 132//201
f 119//202 132//202 131//202
f 120//203 109//203 121//203
f 120//204 121//204 132//204
f 121//205 122//205 134//205
f 122//206 123//206 135//206
f 123//207 124//207 136//207
f 124//208 125//208 137//208
f 125//209 126//209 138//209
f 126//210 127//210 139//210
f 127//211 128//211 140//211
f 128//212 129//212 141//212
f 129//213 130//213 142//213
f 130//214 131//214 143//214
f 131//215 132//215 144//215
f 132//216 121//216 133//216
usemtl c3
f 145//217 146//217 158//217
f 145//218 158//218 157//218
f 146//219 147//219 159//219
f 146//220 159//220 158//220
f 147//221 148//221 160//221
f 147//222 160//222 159//222
f 148//223 149//223 161//223
f 148//224 161//224 160//224
f 149//225 150//225 162//225
f 149//226 162//226 161//226
f 150//227 151//227 163//227
f 150//228 163//228 162//228
f 151//229 152//229 164//229
f 151//230 164//230 163//230
f 152//231 153//231 165//231
f 152//232 165//232 164//232
f 153//233 154//233 166//233
f 153//234 166//234 165//234
f 154//235 155//235 167//235
f 154//236 167//236 166//236
f 155//237 156//237 168//237
f 155//238 168//238 167//238
f 156//239 145//239 157//239
f 156//240 157//240 168//240
f 169//241 145//241 146//241
f 169//242 146//242 147//242
f 169//243 147//243 148//243
f 169//244 148//244 149//244
f 169//245 149//245 150//245
f 169//246 150//246 151//246
f 169//247 151//247 152//247
f 169//248 152//248 153//248
f 169//249 153//249 154//249
f 169//250 154//250 155//250
f 169//251 155//251 156//251
f 169//252 156//252 145//252
f 170//253 157//253 158//253
f 170//254 158//254 159//254
f 170//255 159//255 160//255
f 170//256 160//256 161//256
f 170//257 161//257 162//257
f 170//258 162//258 163//258
f 170//259 163//259 164//259
f 170//260 164//260 165//260
f 170//261 165//261 166//261
f 170//262 166//262 167//262
f 170//263 167//263 168//263
f 170//264 168//264 157//264
usemtl c4
f 171//265 172//265 176//265
f 171//266 176//266 175//266
f 179//267 172//267 171//267
f 180//268 175//268 176//268
f 172//269 173//269 177//269
f 172//270 177//270 176//270
f 179//271 173//271 172//271
f 180//272 176//272 177//272
f 173//273 174//273 178//273
f 173//274 178//274 177//274
f 179//275 174//275 173//275
f 180//276 177//276 178//276
f 174//277 171//277 175//277
f 174//278 175//278 178//278
f 179//279 171//279 174//279
f 180//280 178//280 175//280
f 181//281 182//281 186//281
f 181//282 186//282 185//282
f 189//283 182//283 181//283
f 190//284 185//284 186//284
f 182//285 183//285 187//285
f 182//286 187//286 186//286
f 189//287 183//287 182//287
f 190//288 186//288 187//288
f 183//289 184//289 188//289
f 183//290 188//290 187//290
f 189//291 184//291 183//291
f 190//292 187//292 188//292
f 184//293 181//293 185//293
f 184//294 185//294 188//294
f 189//295 181//295 184//295
f 190//296 188//296 185//296
f 191//297 192//297 196//297
f 191//298 196//298 195//298
f 199//299 192//299 191//299
f 200//300 195//300 196//300
f 192//301 193//301 197//301
f 192//302 197//302 196//302
f 199//303 193//303 192//303
f 200//304 196//304 197//304
f 193//305 194//305 198//305
f 193//306 198//306 197//306
f 199//307 194//307 193//307
f 200//308 197//308 198//308
f 194//309 191//309 195//309
f 194//310 195//310 198//310
f 199//311 191//311 194//311
f 200//312 198//312 195//312
usemtl c5
f 201//313 206//313 205//313
f 202//314 207//314 206//314
f 203//315 208//315 207//315
f 204//316 205//316 208//316
f 205//317 206//317 210//317
f 206//318 207//318 211//318
f 207//319 208//319 212//319
f 208//320 205//320 209//320
f 213//321 218//321 217//321
f 214//322 219//322 218//322
f 215//323 220//323 219//323
f 216//324 217//324 220//324
f 217//325 218//325 222//325
f 218//326 219//326 223//326
f 219//327 220//327 224//327
f 220//328 217//328 221//328
f 225//329 230//329 229//329
f 226//330 231//330 230//330
f 227//331 232//331 231//331
f 228//332 229//332 232//332
f 229//333 230//333 234//333
f 230//334 231//334 235//334
f 231//335 232//335 236//335
f 232//336 229//336 233//336
f 237//337 242//337 241//337
f 238//338 243//338 242//338
f 239//339 244//339 243//339
f 240//340 241//340 244//340
f 241//341 242//341 246//341
f 242//342 243//342 247//342
f 243//343 244//343 248//343
f 244//344 241//344 245//344
f 249//345 254//345 253//345
f 250//346 255//346 254//346
f 251//347 256//347 255//347
f 252//348 253//348 256//348
f 253//349 254//349 258//349
f 254//350 255//350 259//350
f 255//351 256//351 260//351
f 256//352 253//352 257//352
f 261//353 266//353 265//353
f 262//354 267//354 266//354
f 263//355 268//355 267//355
f 264//356 265//356 268//356
f 265//357 266//357 270//357
f 266//358 267//358 271//358
f 267//359 268//359 272//359
f 268//360 265//360 269//360
usemtl c6
f 273//361 274//361 279//361
f 273//362 279//362 278//362
f 274//363 275//363 280//363
f 274//364 280//364 279//364
f 275//365 276//365 281//365
f 275//366 281//366 280//366
f 276//367 277//367 282//367
f 276//368 282//368 281//368
f 277//369 273//369 278//369
f 277//370 278//370 282//370
f 283//371 273//371 274//371
f 283//372 274//372 275//372
f 283//373 275//373 276//373
f 283//374 276//374 277//374
f 283//375 277//375 273//375
f 284//376 278//376 279//376
f 284//377 279//377 280//377
f 284//378 280//378 281//378
f 284//379 281//379 282//379
f 284//380 282//380 278//380
f 285//381 286//381 291//381
f 285//382 291//382 290//382
f 286//383 287//383 292//383
f 286//384 292//384 291//384
f 287//385 288//385 293//385
f 287//386 293//386 292//386
f 288//387 289//387 294//387
f 288//388 294//388 293//388
f 289//389 285//389 290//389
f 289//390 290//390 294//390
f 295//391 285//391 286//391
f 295//392 286//392 287//392
f 295//393 287//393 288//393
f 295//394 288//394 289//394
f 295//395 289//395 285//395
f 296//396 290//396 291//396
f 296//397 291//397 292//397
f 296//398 292//398 293//398
f 296//399 293//399 294//399
f 296//400 294//400 290//400
usemtl c0
f 297//401 298//401 306//401
f 297//402 306//402 305//402
f 298//403 299//403 307//403
f 298//404 307//404 306//404
f 299//405 300//405 308//405
f 299//406 308//406 307//406
f 300//407 301//407 309//407
f 300//408 309//408 308//408
f 301//409 302//409 310//409
f 301//410 310//410 309//410
f 302//411 303//411 311//411
f 302//412 311//412 310//412
f 303//413 304//413 312//413
f 303//414 312//414 311//414
f 304//415 297//415 305//415
f 304//416 305//416 312//416
f 305//417 306//417 314//417
f 305//418 314//418 313//418
f 306//419 307//419 315//419
f 306//420 315//420 314//420
f 307//421 308//421 316//421
f 307//422 316//422 315//422
f 308//423 309//423 317//423
f 308//424 317//424 316//424
f 309//425 310//425 318//425
f 309//426 318//426 317//426
f 310//427 311//427 319//427
f 310//428 319//428 318//428
f 311//429 312//429 320//429
f 311//430 320//430 319//430
f 312//431 305//431 313//431
f 312//432 313//432 320//432
f 313//433 314//433 322//433
f 313//434 322//434 321//434
f 314//435 315//435 323//435
f 314//436 323//436 322//436
f 315//437 316//437 324//437
f 315//438 324//438 323//438
f 316//439 317//439 325//439
f 316//440 325//440 324//440
f 317//441 318//441 326//441
f 317//442 326//442 325//442
f 318//443 319//443 327//443
f 318//444 327//444 326//444
f 319//445 320//445 328//445
f 319//446 328//446 327//446
f 320//447 313//447 321//447
f 320//448 321//448 328//448
f 321//449 322//449 298//449
f 321//450 298//450 297//450
f 322//451 323//451 299//451
f 322//452 299//452 298//452
f 323//453 324//453 300//453
f 323//454 300//454 299//454
f 324//455 325//455 301//455
f 324//456 301//456 300//456
f 325//457 326//457 302//457
f 325//458 302//458 301//458
f 326//459 327//459 303//459
f 326//460 303//460 302//460
f 327//461 328//461 304//461
f 327//462 304//462 303//462
f 328//463 321//463 297//463
f 328//464 297//464 304//464
f 329//465 330//465 338//465
f 329//466 338//466 337//466
f 330//467 331//467 339//467
f 330//468 339//468 338//468
f 331//469 332//469 340//469
f 331//470 340//470 339//470
f 332//471 333//471 341//471
f 332//472 341//472 340//472
f 333//473 334//473 342//473
f 333//474 342//474 341//474
f 334//475 335//475 343//475
f 334//476 343//476 342//476
f 335//477 336//477 344//477
f 335//478 344//478 343//478
f 336//479 329//479 337//479
f 336//480 337//480 344//480
f 337//481 338//481 346//481
f 337//482 346//482 345//482
f 338//483 339//483 347//483
f 338//484 347//484 346//484
f 339//485 340//485 348//485
f 339//486 348//486 347//486
f 340//487 341//487 349//487
f 340//488 349//488 348//488
f 341//489 342//489 350//489
f 341//490 350//490 349//490
f 342//491 343//491 351//491
f 342//492 351//492 350//492
f 343//493 344//493 352//493
f 343//494 352//494 351//494
f 344//495 337//495 345//495
f 344//496 345//496 352//496
f 345//497 346//497 354//497
f 345//498 354//498 353//498
f 346//499 347//499 355//499
f 346//500 355//500 354//500
f 347//501 348//501 356//501
f 347//502 356//502 355//502
f 348//503 349//503 357//503
f 348//504 357//504 356//504
f 349//505 350//505 358//505
f 349//506 358//506 357//506
f 350//507 351//507 359//507
f 350//508 359//508 358//508
f 351//509 352//509 360//509
f 351//510 360//510 359//510
f 352//511 345//511 353//511
f 352//512 353//512 360//512
f 353//513 354//513 330//513
f 353//514 330//514 329//514
f 354//515 355//515 331//515
f 354//516 331//516 330//516
f 355//517 356//517 332//517
f 355//518 332//518 331//518
f 356//519 357//519 333//519
f 356//520 333//520 332//520
f 357//521 358//521 334//521
f 357//522 334//522 333//522
f 358//523 359//523 335//523
f 358//524 335//524 334//524
f 359//525 360//525 336//525
f 359//526 336//526 335//526
f 360//527 353//527 329//527
f 360//528 329//528 336//528
