mtllib Food_Toast.mtl
v -0.6200 -0.6000 -0.6500
v 0.6200 -0.6000 -0.6500
v 0.6200 -0.1000 -0.6500
v 0.8000 0.0600 -0.6500
v 0.7400 0.3800 -0.6500
v 0.4200 0.5400 -0.6500
v 0.0000 0.5800 -0.6500
v -0.4200 0.5400 -0.6500
v -0.7400 0.3800 -0.6500
v -0.8000 0.0600 -0.6500
v -0.6200 -0.1000 -0.6500
v -0.6200 -0.6000 0.6500
v 0.6200 -0.6000 0.6500
v 0.6200 -0.1000 0.6500
v 0.8000 0.0600 0.6500
v 0.7400 0.3800 0.6500
v 0.4200 0.5400 0.6500
v 0.0000 0.5800 0.6500
v -0.4200 0.5400 0.6500
v -0.7400 0.3800 0.6500
v -0.8000 0.0600 0.6500
v -0.6200 -0.1000 0.6500
v 0.0000 0.1036 -0.6500
v 0.0000 0.1036 0.6500
v -0.5332 -0.5230 -0.6700
v 0.5332 -0.5230 -0.6700
v 0.5332 -0.0930 -0.6700
v 0.6880 0.0446 -0.6700
v 0.6364 0.3198 -0.6700
v 0.3612 0.4574 -0.6700
v 0.0000 0.4918 -0.6700
v -0.3612 0.4574 -0.6700
v -0.6364 0.3198 -0.6700
v -0.6880 0.0446 -0.6700
v -0.5332 -0.0930 -0.6700
v -0.5332 -0.5230 0.6700
v 0.5332 -0.5230 0.6700
v 0.5332 -0.0930 0.6700
v 0.6880 0.0446 0.6700
v 0.6364 0.3198 0.6700
v 0.3612 0.4574 0.6700
v 0.0000 0.4918 0.6700
v -0.3612 0.4574 0.6700
v -0.6364 0.3198 0.6700
v -0.6880 0.0446 0.6700
v -0.5332 -0.0930 0.6700
v 0.0000 0.0821 -0.6700
v 0.0000 0.0821 0.6700
v -0.2750 0.2800 0.5500
v 0.2750 0.2800 0.5500
v 0.2750 0.2800 0.8500
v -0.2750 0.2800 0.8500
v -0.2750 0.4200 0.5500
v 0.2750 0.4200 0.5500
v 0.2750 0.4200 0.8500
v -0.2750 0.4200 0.8500
v 0.0000 0.2800 0.7000
v 0.0000 0.4200 0.7000
vn 0.0000 -1.0000 0.0000
vn 0.0000 -1.0000 0.0000
vn 0.0000 -0.0000 -1.0000
vn 0.0000 0.0000 1.0000
vn 1.0000 0.0000 0.0000
vn 1.0000 0.0000 0.0000
vn 0.0000 0.0000 -1.0000
vn 0.0000 0.0000 1.0000
vn 0.6644 -0.7474 0.0000
vn 0.6644 -0.7474 0.0000
vn 0.0000 0.0000 -1.0000
vn 0.0000 0.0000 1.0000
vn 0.9829 0.1843 0.0000
vn 0.9829 0.1843 -0.0000
vn 0.0000 0.0000 -1.0000
vn -0.0000 0.0000 1.0000
vn 0.4472 0.8944 0.0000
vn 0.4472 0.8944 -0.0000
vn 0.0000 0.0000 -1.0000
vn 0.0000 0.0000 1.0000
vn 0.0948 0.9955 0.0000
vn 0.0948 0.9955 -0.0000
vn 0.0000 0.0000 -1.0000
vn 0.0000 0.0000 1.0000
vn -0.0948 0.9955 0.0000
vn -0.0948 0.9955 0.0000
vn 0.0000 0.0000 -1.0000
vn 0.0000 -0.0000 1.0000
vn -0.4472 0.8944 0.0000
vn -0.4472 0.8944 0.0000
vn 0.0000 0.0000 -1.0000
vn 0.0000 0.0000 1.0000
vn -0.9829 0.1843 0.0000
vn -0.9829 0.1843 0.0000
vn -0.0000 0.0000 -1.0000
vn 0.0000 0.0000 1.0000
vn -0.6644 -0.7474 0.0000
vn -0.6644 -0.7474 0.0000
vn 0.0000 0.0000 -1.0000
vn 0.0000 0.0000 1.0000
vn -1.0000 0.0000 0.0000
vn -1.0000 0.0000 0.0000
vn 0.0000 0.0000 -1.0000
vn 0.0000 0.0000 1.0000
vn 0.0000 -1.0000 0.0000
vn 0.0000 -1.0000 0.0000
vn 0.0000 -0.0000 -1.0000
vn 0.0000 0.0000 1.0000
vn 1.0000 0.0000 0.0000
vn 1.0000 0.0000 0.0000
vn 0.0000 0.0000 -1.0000
vn 0.0000 0.0000 1.0000
vn 0.6644 -0.7474 0.0000
vn 0.6644 -0.7474 0.0000
vn 0.0000 0.0000 -1.0000
vn 0.0000 0.0000 1.0000
vn 0.9829 0.1843 0.0000
vn 0.9829 0.1843 -0.0000
vn 0.0000 0.0000 -1.0000
vn -0.0000 0.0000 1.0000
vn 0.4472 0.8944 0.0000
vn 0.4472 0.8944 -0.0000
vn 0.0000 0.0000 -1.0000
vn 0.0000 0.0000 1.0000
vn 0.0948 0.9955 0.0000
vn 0.0948 0.9955 -0.0000
vn 0.0000 0.0000 -1.0000
vn 0.0000 0.0000 1.0000
vn -0.0948 0.9955 0.0000
vn -0.0948 0.9955 0.0000
vn 0.0000 0.0000 -1.0000
vn 0.0000 -0.0000 1.0000
vn -0.4472 0.8944 0.0000
vn -0.4472 0.8944 0.0000
vn 0.0000 0.0000 -1.0000
vn 0.0000 0.0000 1.0000
vn -0.9829 0.1843 0.0000
vn -0.9829 0.1843 0.0000
vn -0.0000 0.0000 -1.0000
vn 0.0000 0.0000 1.0000
vn -0.6644 -0.7474 0.0000
vn -0.6644 -0.7474 0.0000
vn 0.0000 0.0000 -1.0000
vn 0.0000 0.0000 1.0000
vn -1.0000 0.0000 0.0000
vn -1.0000 0.0000 0.0000
vn 0.0000 0.0000 -1.0000
vn 0.0000 0.0000 1.0000
vn 0.0000 0.0000 1.0000
vn 0.0000 0.0000 1.0000
vn 0.0000 1.0000 0.0000
vn 0.0000 -1.0000 -0.0000
vn -1.0000 0.0000 0.0000
vn -1.0000 0.0000 0.0000
vn -0.0000 1.0000 0.0000
vn 0.0000 -1.0000 0.0000
vn 0.0000 0.0000 -1.0000
vn 0.0000 0.0000 -1.0000
vn 0.0000 1.0000 -0.0000
vn 0.0000 -1.0000 0.0000
vn 1.0000 0.0000 0.0000
vn 1.0000 -0.0000 0.0000
vn 0.0000 1.0000 0.0000
vn -0.0000 -1.0000 0.0000
usemtl c0
f 1//1 2//1 13//1
f 1//2 13//2 12//2
f 23//3 2//3 1//3
f 24//4 12//4 13//4
f 2//5 3//5 14//5
f 2//6 14//6 13//6
f 23//7 3//7 2//7
f 24//8 13//8 14//8
f 3//9 4//9 15//9
f 3//10 15//10 14//10
f 23//11 4//11 3//11
f 24//12 14//12 15//12
f 4//13 5//13 16//13
f 4//14 16//14 15//14
f 23//15 5//15 4//15
f 24//16 15//16 16//16
f 5//17 6//17 17//17
f 5//18 17//18 16//18
f 23//19 6//19 5//19
f 24//20 16//20 17//20
f 6//21 7//21 18//21
f 6//22 18//22 17//22
f 23//23 7//23 6//23
f 24//24 17//24 18//24
f 7//25 8//25 19//25
f 7//26 19//26 18//26
f 23//27 8//27 7//27
f 24//28 18//28 19//28
f 8//29 9//29 20//29
f 8//30 20//30 19//30
f 23//31 9//31 8//31
f 24//32 19//32 20//32
f 9//33 10//33 21//33
f 9//34 21//34 20//34
f 23//35 10//35 9//35
f 24//36 20//36 21//36
f 10//37 11//37 22//37
f 10//38 22//38 21//38
f 23//39 11//39 10//39
f 24//40 21//40 22//40
f 11//41 1//41 12//41
f 11//42 12//42 22//42
f 23//43 1//43 11//43
f 24//44 22//44 12//44
usemtl c1
f 25//45 26//45 37//45
f 25//46 37//46 36//46
f 47//47 26//47 25//47
f 48//48 36//48 37//48
f 26//49 27//49 38//49
f 26//50 38//50 37//50
f 47//51 27//51 26//51
f 48//52 37//52 38//52
f 27//53 28//53 39//53
f 27//54 39//54 38//54
f 47//55 28//55 27//55
f 48//56 38//56 39//56
f 28//57 29//57 40//57
f 28//58 40//58 39//58
f 47//59 29//59 28//59
f 48//60 39//60 40//60
f 29//61 30//61 41//61
f 29//62 41//62 40//62
f 47//63 30//63 29//63
f 48//64 40//64 41//64
f 30//65 31//65 42//65
f 30//66 42//66 41//66
f 47//67 31//67 30//67
f 48//68 41//68 42//68
f 31//69 32//69 43//69
f 31//70 43//70 42//70
f 47//71 32//71 31//71
f 48//72 42//72 43//72
f 32//73 33//73 44//73
f 32//74 44//74 43//74
f 47//75 33//75 32//75
f 48//76 43//76 44//76
f 33//77 34//77 45//77
f 33//78 45//78 44//78
f 47//79 34//79 33//79
f 48//80 44//80 45//80
f 34//81 35//81 46//81
f 34//82 46//82 45//82
f 47//83 35//83 34//83
f 48//84 45//84 46//84
f 35//85 25//85 36//85
f 35//86 36//86 46//86
f 47//87 25//87 35//87
f 48//88 46//88 36//88
usemtl c2
f 49//89 50//89 54//89
f 49//90 54//90 53//90
f 57//91 50//91 49//91
f 58//92 53//92 54//92
f 50//93 51//93 55//93
f 50//94 55//94 54//94
f 57//95 51//95 50//95
f 58//96 54//96 55//96
f 51//97 52//97 56//97
f 51//98 56//98 55//98
f 57//99 52//99 51//99
f 58//100 55//100 56//100
f 52//101 49//101 53//101
f 52//102 53//102 56//102
f 57//103 49//103 52//103
f 58//104 56//104 53//104
