mtllib Food_Tofu.mtl
v -0.7500 0.0000 -0.5000
v 0.7500 0.0000 -0.5000
v 0.7500 0.0000 0.5000
v -0.7500 0.0000 0.5000
v -0.7500 0.6000 -0.5000
v 0.7500 0.6000 -0.5000
v 0.7500 0.6000 0.5000
v -0.7500 0.6000 0.5000
v 0.0000 0.0000 0.0000
v 0.0000 0.6000 0.0000
v -0.2800 0.2500 0.5000
v -0.2800 0.2500 0.5000
v -0.2800 0.2500 0.5000
v -0.2800 0.2500 0.5000
v -0.2800 0.2500 0.5000
v -0.2800 0.2500 0.5000
v -0.2194 0.2950 0.5000
v -0.2497 0.2950 0.5225
v -0.3103 0.2950 0.5225
v -0.3406 0.2950 0.5000
v -0.3103 0.2950 0.4775
v -0.2497 0.2950 0.4775
v -0.2194 0.3850 0.5000
v -0.2497 0.3850 0.5225
v -0.3103 0.3850 0.5225
v -0.3406 0.3850 0.5000
v -0.3103 0.3850 0.4775
v -0.2497 0.3850 0.4775
v -0.2800 0.4300 0.5000
v -0.2800 0.4300 0.5000
v -0.2800 0.4300 0.5000
v -0.2800 0.4300 0.5000
v -0.2800 0.4300 0.5000
v -0.2800 0.4300 0.5000
v 0.2800 0.2500 0.5000
v 0.2800 0.2500 0.5000
v 0.2800 0.2500 0.5000
v 0.2800 0.2500 0.5000
v 0.2800 0.2500 0.5000
v 0.2800 0.2500 0.5000
v 0.3406 0.2950 0.5000
v 0.3103 0.2950 0.5225
v 0.2497 0.2950 0.5225
v 0.2194 0.2950 0.5000
v 0.2497 0.2950 0.4775
v 0.3103 0.2950 0.4775
v 0.3406 0.3850 0.5000
v 0.3103 0.3850 0.5225
v 0.2497 0.3850 0.5225
v 0.2194 0.3850 0.5000
v 0.2497 0.3850 0.4775
v 0.3103 0.3850 0.4775
v 0.2800 0.4300 0.5000
v 0.2800 0.4300 0.5000
v 0.2800 0.4300 0.5000
v 0.2800 0.4300 0.5000
v 0.2800 0.4300 0.5000
v 0.2800 0.4300 0.5000
v -0.1000 0.1650 0.4900
v 0.1000 0.1650 0.4900
v 0.1000 0.1650 0.5100
v -0.1000 0.1650 0.5100
v -0.1000 0.1950 0.4900
v 0.1000 0.1950 0.4900
v 0.1000 0.1950 0.5100
v -0.1000 0.1950 0.5100
v 0.0000 0.1650 0.5000
v 0.0000 0.1950 0.5000
vn 0.0000 0.0000 1.0000
vn 0.0000 0.0000 1.0000
vn 0.0000 1.0000 0.0000
vn 0.0000 -1.0000 -0.0000
vn -1.0000 0.0000 0.0000
vn -1.0000 0.0000 0.0000
vn -0.0000 1.0000 0.0000
vn 0.0000 -1.0000 0.0000
vn 0.0000 0.0000 -1.0000
vn 0.0000 0.0000 -1.0000
vn 0.0000 1.0000 -0.0000
vn 0.0000 -1.0000 0.0000
vn 1.0000 0.0000 0.0000
vn 1.0000 -0.0000 0.0000
vn 0.0000 1.0000 0.0000
vn -0.0000 -1.0000 0.0000
vn -0.4648 0.6261 -0.6261
vn 0.0000 0.4472 -0.8944
vn 0.4648 0.6261 -0.6261
vn 0.4648 0.6261 0.6261
vn 0.0000 0.4472 0.8944
vn -0.4648 0.6261 0.6261
vn -0.5960 0.0000 -0.8030
vn -0.5960 0.0000 -0.8030
vn 0.0000 0.0000 -1.0000
vn 0.0000 0.0000 -1.0000
vn 0.5960 0.0000 -0.8030
vn 0.5960 0.0000 -0.8030
vn 0.5960 0.0000 0.8030
vn 0.5960 -0.0000 0.8030
vn 0.0000 0.0000 1.0000
vn 0.0000 0.0000 1.0000
vn -0.5960 0.0000 0.8030
vn -0.5960 0.0000 0.8030
vn -0.4648 -0.6261 -0.6261
vn -0.0000 -0.4472 -0.8944
vn 0.4648 -0.6261 -0.6261
vn 0.4648 -0.6261 0.6261
vn 0.0000 -0.4472 0.8944
vn -0.4648 -0.6261 0.6261
vn -0.4648 0.6261 -0.6261
vn 0.0000 0.4472 -0.8944
vn 0.4648 0.6261 -0.6261
vn 0.4648 0.6261 0.6261
vn 0.0000 0.4472 0.8944
vn -0.4648 0.6261 0.6261
vn -0.5960 0.0000 -0.8030
vn -0.5960 0.0000 -0.8030
vn 0.0000 0.0000 -1.0000
vn 0.0000 0.0000 -1.0000
vn 0.5960 0.0000 -0.8030
vn 0.5960 0.0000 -0.8030
vn 0.5960 0.0000 0.8030
vn 0.5960 -0.0000 0.8030
vn 0.0000 0.0000 1.0000
vn 0.0000 0.0000 1.0000
vn -0.5960 0.0000 0.8030
vn -0.5960 0.0000 0.8030
vn -0.4648 -0.6261 -0.6261
vn -0.0000 -0.4472 -0.8944
vn 0.4648 -0.6261 -0.6261
vn 0.4648 -0.6261 0.6261
vn 0.0000 -0.4472 0.8944
vn -0.4648 -0.6261 0.6261
vn 0.0000 0.0000 1.0000
vn 0.0000 0.0000 1.0000
vn 0.0000 1.0000 0.0000
vn 0.0000 -1.0000 -0.0000
vn -1.0000 0.0000 0.0000
vn -1.0000 0.0000 0.0000
vn -0.0000 1.0000 0.0000
vn 0.0000 -1.0000 0.0000
vn 0.0000 0.0000 -1.0000
vn 0.0000 0.0000 -1.0000
vn 0.0000 1.0000 -0.0000
vn 0.0000 -1.0000 0.0000
vn 1.0000 0.0000 0.0000
vn 1.0000 -0.0000 0.0000
vn 0.0000 1.0000 0.0000
vn -0.0000 -1.0000 0.0000
usemtl c0
f 1//1 2//1 6//1
f 1//2 6//2 5//2
f 9//3 2//3 1//3
f 10//4 5//4 6//4
f 2//5 3//5 7//5
f 2//6 7//6 6//6
f 9//7 3//7 2//7
f 10//8 6//8 7//8
f 3//9 4//9 8//9
f 3//10 8//10 7//10
f 9//11 4//11 3//11
f 10//12 7//12 8//12
f 4//13 1//13 5//13
f 4//14 5//14 8//14
f 9//15 1//15 4//15
f 10//16 8//16 5//16
usemtl c1
f 11//17 18//17 17//17
f 12//18 19//18 18//18
f 13//19 20//19 19//19
f 14//20 21//20 20//20
f 15//21 22//21 21//21
f 16//22 17//22 22//22
f 17//23 18//23 24//23
f 17//24 24//24 23//24
f 18//25 19//25 25//25
f 18//26 25//26 24//26
f 19//27 20//27 26//27
f 19//28 26//28 25//28
f 20//29 21//29 27//29
f 20//30 27//30 26//30
f 21//31 22//31 28//31
f 21//32 28//32 27//32
f 22//33 17//33 23//33
f 22//34 23//34 28//34
f 23//35 24//35 30//35
f 24//36 25//36 31//36
f 25//37 26//37 32//37
f 26//38 27//38 33//38
f 27//39 28//39 34//39
f 28//40 23//40 29//40
f 35//41 42//41 41//41
f 36//42 43//42 42//42
f 37//43 44//43 43//43
f 38//44 45//44 44//44
f 39//45 46//45 45//45
f 40//46 41//46 46//46
f 41//47 42//47 48//47
f 41//48 48//48 47//48
f 42//49 43//49 49//49
f 42//50 49//50 48//50
f 43//51 44//51 50//51
f 43//52 50//52 49//52
f 44//53 45//53 51//53
f 44//54 51//54 50//54
f 45//55 46//55 52//55
f 45//56 52//56 51//56
f 46//57 41//57 47//57
f 46//58 47//58 52//58
f 47//59 48//59 54//59
f 48//60 49//60 55//60
f 49//61 50//61 56//61
f 50//62 51//62 57//62
f 51//63 52//63 58//63
f 52//64 47//64 53//64
f 59//65 60//65 64//65
f 59//66 64//66 63//66
f 67//67 60//67 59//67
f 68//68 63//68 64//68
f 60//69 61//69 65//69
f 60//70 65//70 64//70
f 67//71 61//71 60//71
f 68//72 64//72 65//72
f 61//73 62//73 66//73
f 61//74 66//74 65//74
f 67//75 62//75 61//75
f 68//76 65//76 66//76
f 62//77 59//77 63//77
f 62//78 63//78 66//78
f 67//79 59//79 62//79
f 68//80 66//80 63//80
