mtllib Food_Strawberry.mtl
v 0.0000 -1.0500 0.0000
v 0.0000 -1.0500 0.0000
v 0.0000 -1.0500 0.0000
v 0.0000 -1.0500 0.0000
v 0.0000 -1.0500 0.0000
v 0.0000 -1.0500 0.0000
v 0.0000 -1.0500 0.0000
v 0.0000 -1.0500 0.0000
v 0.3200 -0.8500 0.0000
v 0.2263 -0.8500 0.2263
v 0.0000 -0.8500 0.3200
v -0.2263 -0.8500 0.2263
v -0.3200 -0.8500 0.0000
v -0.2263 -0.8500 -0.2263
v -0.0000 -0.8500 -0.3200
v 0.2263 -0.8500 -0.2263
v 0.6200 -0.4000 0.0000
v 0.4384 -0.4000 0.4384
v 0.0000 -0.4000 0.6200
v -0.4384 -0.4000 0.4384
v -0.6200 -0.4000 0.0000
v -0.4384 -0.4000 -0.4384
v -0.0000 -0.4000 -0.6200
v 0.4384 -0.4000 -0.4384
v 0.8000 0.1500 0.0000
v 0.5657 0.1500 0.5657
v 0.0000 0.1500 0.8000
v -0.5657 0.1500 0.5657
v -0.8000 0.1500 0.0000
v -0.5657 0.1500 -0.5657
v -0.0000 0.1500 -0.8000
v 0.5657 0.1500 -0.5657
v 0.7200 0.6000 0.0000
v 0.5091 0.6000 0.5091
v 0.0000 0.6000 0.7200
v -0.5091 0.6000 0.5091
v -0.7200 0.6000 0.0000
v -0.5091 0.6000 -0.5091
v -0.0000 0.6000 -0.7200
v 0.5091 0.6000 -0.5091
v 0.4000 0.8200 0.0000
v 0.2828 0.8200 0.2828
v 0.0000 0.8200 0.4000
v -0.2828 0.8200 0.2828
v -0.4000 0.8200 0.0000
v -0.2828 0.8200 -0.2828
v -0.0000 0.8200 -0.4000
v 0.2828 0.8200 -0.2828
v 0.0000 0.8000 0.0000
v 0.0000 0.8000 0.0000
v 0.0000 0.8000 0.0000
v 0.0000 0.8000 0.0000
v 0.0000 0.8000 0.0000
v 0.0000 0.8000 0.0000
v 0.0000 0.8000 0.0000
v 0.0000 0.8000 0.0000
v 0.3155 0.7724 0.0000
v 0.3155 0.7724 0.0000
v 0.3155 0.7724 0.0000
v 0.3155 0.7724 0.0000
v 0.3155 0.7724 0.0000
v 0.6042 0.8926 0.0000
v 0.3994 0.8260 0.1153
v 0.0678 0.7183 0.0713
v 0.0678 0.7183 -0.0713
v 0.3994 0.8260 -0.1153
v 0.5888 0.9401 0.0000
v 0.3839 0.8735 0.1153
v 0.0524 0.7658 0.0713
v 0.0524 0.7658 -0.0713
v 0.3839 0.8735 -0.1153
v 0.2845 0.8676 0.0000
v 0.2845 0.8676 0.0000
v 0.2845 0.8676 0.0000
v 0.2845 0.8676 -0.0000
v 0.2845 0.8676 -0.0000
v 0.1655 0.7724 0.2598
v 0.1655 0.7724 0.2598
v 0.1655 0.7724 0.2598
v 0.1655 0.7724 0.2598
v 0.1655 0.7724 0.2598
v 0.3060 0.8444 0.5298
v 0.1086 0.7803 0.4009
v -0.0209 0.7382 0.0770
v 0.0965 0.7763 0.0057
v 0.2985 0.8420 0.2856
v 0.2905 0.8919 0.5298
v 0.0931 0.8278 0.4009
v -0.0364 0.7857 0.0770
v 0.0810 0.8239 0.0057
v 0.2831 0.8895 0.2856
v 0.1345 0.8676 0.2598
v 0.1345 0.8676 0.2598
v 0.1345 0.8676 0.2598
v 0.1345 0.8676 0.2598
v 0.1345 0.8676 0.2598
v -0.1345 0.7724 0.2598
v -0.1345 0.7724 0.2598
v -0.1345 0.7724 0.2598
v -0.1345 0.7724 0.2598
v -0.1345 0.7724 0.2598
v -0.2905 0.7481 0.5298
v -0.2831 0.7505 0.2856
v -0.0810 0.8161 0.0057
v 0.0364 0.8543 0.0770
v -0.0931 0.8122 0.4009
v -0.3060 0.7956 0.5298
v -0.2985 0.7980 0.2856
v -0.0965 0.8637 0.0057
v 0.0209 0.9018 0.0770
v -0.1086 0.8597 0.4009
v -0.1655 0.8676 0.2598
v -0.1655 0.8676 0.2598
v -0.1655 0.8676 0.2598
v -0.1655 0.8676 0.2598
v -0.1655 0.8676 0.2598
v -0.2845 0.7724 0.0000
v -0.2845 0.7724 0.0000
v -0.2845 0.7724 0.0000
v -0.2845 0.7724 0.0000
v -0.2845 0.7724 0.0000
v -0.5888 0.6999 0.0000
v -0.3839 0.7665 -0.1153
v -0.0524 0.8742 -0.0713
v -0.0524 0.8742 0.0713
v -0.3839 0.7665 0.1153
v -0.6042 0.7474 0.0000
v -0.3994 0.8140 -0.1153
v -0.0678 0.9217 -0.0713
v -0.0678 0.9217 0.0713
v -0.3994 0.8140 0.1153
v -0.3155 0.8676 0.0000
v -0.3155 0.8676 0.0000
v -0.3155 0.8676 0.0000
v -0.3155 0.8676 0.0000
v -0.3155 0.8676 0.0000
v -0.1345 0.7724 -0.2598
v -0.1345 0.7724 -0.2598
v -0.1345 0.7724 -0.2598
v -0.1345 0.7724 -0.2598
v -0.1345 0.7724 -0.2598
v -0.2905 0.7481 -0.5298
v -0.0931 0.8122 -0.4009
v 0.0364 0.8543 -0.0770
v -0.0810 0.8161 -0.0057
v -0.2831 0.7505 -0.2856
v -0.3060 0.7956 -0.5298
v -0.1086 0.8597 -0.4009
v 0.0209 0.9018 -0.0770
v -0.0965 0.8637 -0.0057
v -0.2985 0.7980 -0.2856
v -0.1655 0.8676 -0.2598
v -0.1655 0.8676 -0.2598
v -0.1655 0.8676 -0.2598
v -0.1655 0.8676 -0.2598
v -0.1655 0.8676 -0.2598
v 0.1655 0.7724 -0.2598
v 0.1655 0.7724 -0.2598
v 0.1655 0.7724 -0.2598
v 0.1655 0.7724 -0.2598
v 0.1655 0.7724 -0.2598
v 0.3060 0.8444 -0.5298
v 0.2985 0.8420 -0.2856
v 0.0965 0.7763 -0.0057
v -0.0209 0.7382 -0.0770
v 0.1086 0.7803 -0.4009
v 0.2905 0.8919 -0.5298
v 0.2831 0.8895 -0.2856
v 0.0810 0.8239 -0.0057
v -0.0364 0.7857 -0.0770
v 0.0931 0.8278 -0.4009
v 0.1345 0.8676 -0.2598
v 0.1345 0.8676 -0.2598
v 0.1345 0.8676 -0.2598
v 0.1345 0.8676 -0.2598
v 0.1345 0.8676 -0.2598
v 0.4698 -0.5600 -0.1710
v 0.4698 -0.5600 -0.1710
v 0.4698 -0.5600 -0.1710
v 0.4698 -0.5600 -0.1710
v 0.5298 -0.5000 -0.1710
v 0.4698 -0.5000 -0.1110
v 0.4098 -0.5000 -0.1710
v 0.4698 -0.5000 -0.2310
v 0.4698 -0.4400 -0.1710
v 0.4698 -0.4400 -0.1710
v 0.4698 -0.4400 -0.1710
v 0.4698 -0.4400 -0.1710
v 0.3078 -0.5600 0.3940
v 0.3078 -0.5600 0.3940
v 0.3078 -0.5600 0.3940
v 0.3078 -0.5600 0.3940
v 0.3678 -0.5000 0.3940
v 0.3078 -0.5000 0.4540
v 0.2478 -0.5000 0.3940
v 0.3078 -0.5000 0.3340
v 0.3078 -0.4400 0.3940
v 0.3078 -0.4400 0.3940
v 0.3078 -0.4400 0.3940
v 0.3078 -0.4400 0.3940
v -0.2796 -0.5600 0.4145
v -0.2796 -0.5600 0.4145
v -0.2796 -0.5600 0.4145
v -0.2796 -0.5600 0.4145
v -0.2196 -0.5000 0.4145
v -0.2796 -0.5000 0.4745
v -0.3396 -0.5000 0.4145
v -0.2796 -0.5000 0.3545
v -0.2796 -0.4400 0.4145
v -0.2796 -0.4400 0.4145
v -0.2796 -0.4400 0.4145
v -0.2796 -0.4400 0.4145
v -0.4806 -0.5600 -0.1378
v -0.4806 -0.5600 -0.1378
v -0.4806 -0.5600 -0.1378
v -0.4806 -0.5600 -0.1378
v -0.4206 -0.5000 -0.1378
v -0.4806 -0.5000 -0.0778
v -0.5406 -0.5000 -0.1378
v -0.4806 -0.5000 -0.1978
v -0.4806 -0.4400 -0.1378
v -0.4806 -0.4400 -0.1378
v -0.4806 -0.4400 -0.1378
v -0.4806 -0.4400 -0.1378
v -0.0174 -0.5600 -0.4997
v -0.0174 -0.5600 -0.4997
v -0.0174 -0.5600 -0.4997
v -0.0174 -0.5600 -0.4997
v 0.0426 -0.5000 -0.4997
v -0.0174 -0.5000 -0.4397
v -0.0774 -0.5000 -0.4997
v -0.0174 -0.5000 -0.5597
v -0.0174 -0.4400 -0.4997
v -0.0174 -0.4400 -0.4997
v -0.0174 -0.4400 -0.4997
v -0.0174 -0.4400 -0.4997
v 0.7382 -0.1600 -0.0516
v 0.7382 -0.1600 -0.0516
v 0.7382 -0.1600 -0.0516
v 0.7382 -0.1600 -0.0516
v 0.7982 -0.1000 -0.0516
v 0.7382 -0.1000 0.0084
v 0.6782 -0.1000 -0.0516
v 0.7382 -0.1000 -0.1116
v 0.7382 -0.0400 -0.0516
v 0.7382 -0.0400 -0.0516
v 0.7382 -0.0400 -0.0516
v 0.7382 -0.0400 -0.0516
v 0.2772 -0.1600 0.6861
v 0.2772 -0.1600 0.6861
v 0.2772 -0.1600 0.6861
v 0.2772 -0.1600 0.6861
v 0.3372 -0.1000 0.6861
v 0.2772 -0.1000 0.7461
v 0.2172 -0.1000 0.6861
v 0.2772 -0.1000 0.6261
v 0.2772 -0.0400 0.6861
v 0.2772 -0.0400 0.6861
v 0.2772 -0.0400 0.6861
v 0.2772 -0.0400 0.6861
v -0.5669 -0.1600 0.4757
v -0.5669 -0.1600 0.4757
v -0.5669 -0.1600 0.4757
v -0.5669 -0.1600 0.4757
v -0.5069 -0.1000 0.4757
v -0.5669 -0.1000 0.5357
v -0.6269 -0.1000 0.4757
v -0.5669 -0.1000 0.4157
v -0.5669 -0.0400 0.4757
v -0.5669 -0.0400 0.4757
v -0.5669 -0.0400 0.4757
v -0.5669 -0.0400 0.4757
v -0.6276 -0.1600 -0.3921
v -0.6276 -0.1600 -0.3921
v -0.6276 -0.1600 -0.3921
v -0.6276 -0.1600 -0.3921
v -0.5676 -0.1000 -0.3921
v -0.6276 -0.1000 -0.3321
v -0.6876 -0.1000 -0.3921
v -0.6276 -0.1000 -0.4521
v -0.6276 -0.0400 -0.3921
v -0.6276 -0.0400 -0.3921
v -0.6276 -0.0400 -0.3921
v -0.6276 -0.0400 -0.3921
v 0.1790 -0.1600 -0.7180
v 0.1790 -0.1600 -0.7180
v 0.1790 -0.1600 -0.7180
v 0.1790 -0.1600 -0.7180
v 0.2390 -0.1000 -0.7180
v 0.1790 -0.1000 -0.6580
v 0.1190 -0.1000 -0.7180
v 0.1790 -0.1000 -0.7780
v 0.1790 -0.0400 -0.7180
v 0.1790 -0.0400 -0.7180
v 0.1790 -0.0400 -0.7180
v 0.1790 -0.0400 -0.7180
v 0.7630 0.2400 0.1622
v 0.7630 0.2400 0.1622
v 0.7630 0.2400 0.1622
v 0.7630 0.2400 0.1622
v 0.8230 0.3000 0.1622
v 0.7630 0.3000 0.2222
v 0.7030 0.3000 0.1622
v 0.7630 0.3000 0.1022
v 0.7630 0.3600 0.1622
v 0.7630 0.3600 0.1622
v 0.7630 0.3600 0.1622
v 0.7630 0.3600 0.1622
v 0.0815 0.2400 0.7757
v 0.0815 0.2400 0.7757
v 0.0815 0.2400 0.7757
v 0.0815 0.2400 0.7757
v 0.1415 0.3000 0.7757
v 0.0815 0.3000 0.8357
v 0.0215 0.3000 0.7757
v 0.0815 0.3000 0.7157
v 0.0815 0.3600 0.7757
v 0.0815 0.3600 0.7757
v 0.0815 0.3600 0.7757
v 0.0815 0.3600 0.7757
v -0.7126 0.2400 0.3173
v -0.7126 0.2400 0.3173
v -0.7126 0.2400 0.3173
v -0.7126 0.2400 0.3173
v -0.6526 0.3000 0.3173
v -0.7126 0.3000 0.3773
v -0.7726 0.3000 0.3173
v -0.7126 0.3000 0.2573
v -0.7126 0.3600 0.3173
v -0.7126 0.3600 0.3173
v -0.7126 0.3600 0.3173
v -0.7126 0.3600 0.3173
v -0.5219 0.2400 -0.5797
v -0.5219 0.2400 -0.5797
v -0.5219 0.2400 -0.5797
v -0.5219 0.2400 -0.5797
v -0.4619 0.3000 -0.5797
v -0.5219 0.3000 -0.5197
v -0.5819 0.3000 -0.5797
v -0.5219 0.3000 -0.6397
v -0.5219 0.3600 -0.5797
v -0.5219 0.3600 -0.5797
v -0.5219 0.3600 -0.5797
v -0.5219 0.3600 -0.5797
v 0.3900 0.2400 -0.6755
v 0.3900 0.2400 -0.6755
v 0.3900 0.2400 -0.6755
v 0.3900 0.2400 -0.6755
v 0.4500 0.3000 -0.6755
v 0.3900 0.3000 -0.6155
v 0.3300 0.3000 -0.6755
v 0.3900 0.3000 -0.7355
v 0.3900 0.3600 -0.6755
v 0.3900 0.3600 -0.6755
v 0.3900 0.3600 -0.6755
v 0.3900 0.3600 -0.6755
v 0.5378 0.4900 0.2173
v 0.5378 0.4900 0.2173
v 0.5378 0.4900 0.2173
v 0.5378 0.4900 0.2173
v 0.5978 0.5500 0.2173
v 0.5378 0.5500 0.2773
v 0.4778 0.5500 0.2173
v 0.5378 0.5500 0.1573
v 0.5378 0.6100 0.2173
v 0.5378 0.6100 0.2173
v 0.5378 0.6100 0.2173
v 0.5378 0.6100 0.2173
v -0.0405 0.4900 0.5786
v -0.0405 0.4900 0.5786
v -0.0405 0.4900 0.5786
v -0.0405 0.4900 0.5786
v 0.0195 0.5500 0.5786
v -0.0405 0.5500 0.6386
v -0.1005 0.5500 0.5786
v -0.0405 0.5500 0.5186
v -0.0405 0.6100 0.5786
v -0.0405 0.6100 0.5786
v -0.0405 0.6100 0.5786
v -0.0405 0.6100 0.5786
v -0.5628 0.4900 0.1403
v -0.5628 0.4900 0.1403
v -0.5628 0.4900 0.1403
v -0.5628 0.4900 0.1403
v -0.5028 0.5500 0.1403
v -0.5628 0.5500 0.2003
v -0.6228 0.5500 0.1403
v -0.5628 0.5500 0.0803
v -0.5628 0.6100 0.1403
v -0.5628 0.6100 0.1403
v -0.5628 0.6100 0.1403
v -0.5628 0.6100 0.1403
v -0.3074 0.4900 -0.4919
v -0.3074 0.4900 -0.4919
v -0.3074 0.4900 -0.4919
v -0.3074 0.4900 -0.4919
v -0.2474 0.5500 -0.4919
v -0.3074 0.5500 -0.4319
v -0.3674 0.5500 -0.4919
v -0.3074 0.5500 -0.5519
v -0.3074 0.6100 -0.4919
v -0.3074 0.6100 -0.4919
v -0.3074 0.6100 -0.4919
v -0.3074 0.6100 -0.4919
v 0.3728 0.4900 -0.4443
v 0.3728 0.4900 -0.4443
v 0.3728 0.4900 -0.4443
v 0.3728 0.4900 -0.4443
v 0.4328 0.5500 -0.4443
v 0.3728 0.5500 -0.3843
v 0.3128 0.5500 -0.4443
v 0.3728 0.5500 -0.5043
v 0.3728 0.6100 -0.4443
v 0.3728 0.6100 -0.4443
v 0.3728 0.6100 -0.4443
v 0.3728 0.6100 -0.4443
v 0.0500 0.8000 0.0000
v 0.0155 0.8000 0.0476
v -0.0405 0.8000 0.0294
v -0.0405 0.8000 -0.0294
v 0.0155 0.8000 -0.0476
v 0.0500 1.1000 0.0000
v 0.0155 1.1000 0.0476
v -0.0405 1.1000 0.0294
v -0.0405 1.1000 -0.0294
v 0.0155 1.1000 -0.0476
v 0.0000 0.8000 0.0000
v 0.0000 1.1000 0.0000
vn -0.5177 0.8283 -0.2144
vn -0.2144 0.8283 -0.5177
vn 0.2144 0.8283 -0.5177
vn 0.5177 0.8283 -0.2144
vn 0.5177 0.8283 0.2144
vn 0.2144 0.8283 0.5177
vn -0.2144 0.8283 0.5177
vn -0.5177 0.8283 0.2144
vn -0.7866 0.5244 -0.3258
vn -0.7866 0.5244 -0.3258
vn -0.3258 0.5244 -0.7866
vn -0.3258 0.5244 -0.7866
vn 0.3258 0.5244 -0.7866
vn 0.3258 0.5244 -0.7866
vn 0.7866 0.5244 -0.3258
vn 0.7866 0.5244 -0.3258
vn 0.7866 0.5244 0.3258
vn 0.7866 0.5244 0.3258
vn 0.3258 0.5244 0.7866
vn 0.3258 0.5244 0.7866
vn -0.3258 0.5244 0.7866
vn -0.3258 0.5244 0.7866
vn -0.7866 0.5244 0.3258
vn -0.7866 0.5244 0.3258
vn -0.8843 0.2894 -0.3663
vn -0.8843 0.2894 -0.3663
vn -0.3663 0.2894 -0.8843
vn -0.3663 0.2894 -0.8843
vn 0.3663 0.2894 -0.8843
vn 0.3663 0.2894 -0.8843
vn 0.8843 0.2894 -0.3663
vn 0.8843 0.2894 -0.3663
vn 0.8843 0.2894 0.3663
vn 0.8843 0.2894 0.3663
vn 0.3663 0.2894 0.8843
vn 0.3663 0.2894 0.8843
vn -0.3663 0.2894 0.8843
vn -0.3663 0.2894 0.8843
vn -0.8843 0.2894 0.3663
vn -0.8843 0.2894 0.3663
vn -0.9117 -0.1621 -0.3776
vn -0.9117 -0.1621 -0.3776
vn -0.3776 -0.1621 -0.9117
vn -0.3776 -0.1621 -0.9117
vn 0.3776 -0.1621 -0.9117
vn 0.3776 -0.1621 -0.9117
vn 0.9117 -0.1621 -0.3776
vn 0.9117 -0.1621 -0.3776
vn 0.9117 -0.1621 0.3776
vn 0.9117 -0.1621 0.3776
vn 0.3776 -0.1621 0.9117
vn 0.3776 -0.1621 0.9117
vn -0.3776 -0.1621 0.9117
vn -0.3776 -0.1621 0.9117
vn -0.9117 -0.1621 0.3776
vn -0.9117 -0.1621 0.3776
vn -0.5515 -0.8022 -0.2285
vn -0.5515 -0.8022 -0.2285
vn -0.2285 -0.8022 -0.5515
vn -0.2285 -0.8022 -0.5515
vn 0.2285 -0.8022 -0.5515
vn 0.2285 -0.8022 -0.5515
vn 0.5515 -0.8022 -0.2285
vn 0.5515 -0.8022 -0.2285
vn 0.5515 -0.8022 0.2285
vn 0.5515 -0.8022 0.2285
vn 0.2285 -0.8022 0.5515
vn 0.2285 -0.8022 0.5515
vn -0.2285 -0.8022 0.5515
vn -0.2285 -0.8022 0.5515
vn -0.5515 -0.8022 0.2285
vn -0.5515 -0.8022 0.2285
vn 0.0499 -0.9985 0.0207
vn 0.0207 -0.9985 0.0499
vn -0.0207 -0.9985 0.0499
vn -0.0499 -0.9985 0.0207
vn -0.0499 -0.9985 -0.0207
vn -0.0207 -0.9985 -0.0499
vn 0.0207 -0.9985 -0.0499
vn 0.0499 -0.9985 -0.0207
vn -0.3798 0.9132 -0.1477
vn -0.2719 0.9331 -0.2355
vn -0.2137 0.9769 0.0000
vn -0.2719 0.9331 0.2355
vn -0.3798 0.9132 0.1477
vn -0.4488 -0.1458 -0.8816
vn -0.4488 -0.1458 -0.8816
vn 0.1192 0.0387 -0.9921
vn 0.1192 0.0387 -0.9921
vn 0.9511 0.3090 0.0000
vn 0.9511 0.3090 -0.0000
vn 0.1192 0.0387 0.9921
vn 0.1192 0.0387 0.9921
vn -0.4488 -0.1458 0.8816
vn -0.4488 -0.1458 0.8816
vn 0.2295 -0.9620 -0.1477
vn 0.3285 -0.9147 -0.2355
vn 0.4013 -0.9159 -0.0000
vn 0.3285 -0.9147 0.2355
vn 0.2295 -0.9620 0.1477
vn -0.2206 0.9649 -0.1423
vn -0.0921 0.9915 -0.0920
vn -0.2606 0.9617 0.0854
vn -0.4800 0.8655 0.1435
vn -0.4639 0.8859 0.0054
vn 0.5018 0.1630 -0.8495
vn 0.5018 0.1630 -0.8495
vn 0.8768 0.2849 -0.3875
vn 0.8768 0.2849 -0.3875
vn 0.4755 0.1545 0.8660
vn 0.4755 0.1545 0.8660
vn -0.7575 -0.2461 0.6046
vn -0.7575 -0.2461 0.6046
vn -0.9506 -0.3089 0.0321
vn -0.9506 -0.3089 0.0321
vn 0.3887 -0.9103 -0.1423
vn 0.5083 -0.8563 -0.0920
vn 0.3544 -0.9312 0.0854
vn 0.1204 -0.9823 0.1435
vn 0.1454 -0.9894 0.0054
vn -0.1454 0.9894 0.0054
vn -0.1204 0.9823 0.1435
vn -0.3544 0.9312 0.0854
vn -0.5083 0.8563 -0.0920
vn -0.3887 0.9103 -0.1423
vn 0.9506 0.3089 0.0321
vn 0.9506 0.3089 0.0321
vn 0.7575 0.2461 0.6046
vn 0.7575 0.2461 0.6046
vn -0.4755 -0.1545 0.8660
vn -0.4755 -0.1545 0.8660
vn -0.8768 -0.2849 -0.3875
vn -0.8768 -0.2849 -0.3875
vn -0.5018 -0.1630 -0.8495
vn -0.5018 -0.1630 -0.8495
vn 0.4639 -0.8859 0.0054
vn 0.4800 -0.8655 0.1435
vn 0.2606 -0.9617 0.0854
vn 0.0921 -0.9915 -0.0920
vn 0.2206 -0.9649 -0.1423
vn -0.2295 0.9620 0.1477
vn -0.3285 0.9147 0.2355
vn -0.4013 0.9159 0.0000
vn -0.3285 0.9147 -0.2355
vn -0.2295 0.9620 -0.1477
vn 0.4488 0.1458 0.8816
vn 0.4488 0.1458 0.8816
vn -0.1192 -0.0387 0.9921
vn -0.1192 -0.0387 0.9921
vn -0.9511 -0.3090 0.0000
vn -0.9511 -0.3090 0.0000
vn -0.1192 -0.0387 -0.9921
vn -0.1192 -0.0387 -0.9921
vn 0.4488 0.1458 -0.8816
vn 0.4488 0.1458 -0.8816
vn 0.3798 -0.9132 0.1477
vn 0.2719 -0.9331 0.2355
vn 0.2137 -0.9769 -0.0000
vn 0.2719 -0.9331 -0.2355
vn 0.3798 -0.9132 -0.1477
vn -0.3887 0.9103 0.1423
vn -0.5083 0.8563 0.0920
vn -0.3544 0.9312 -0.0854
vn -0.1204 0.9823 -0.1435
vn -0.1454 0.9894 -0.0054
vn -0.5018 -0.1630 0.8495
vn -0.5018 -0.1630 0.8495
vn -0.8768 -0.2849 0.3875
vn -0.8768 -0.2849 0.3875
vn -0.4755 -0.1545 -0.8660
vn -0.4755 -0.1545 -0.8660
vn 0.7575 0.2461 -0.6046
vn 0.7575 0.2461 -0.6046
vn 0.9506 0.3089 -0.0321
vn 0.9506 0.3089 -0.0321
vn 0.2206 -0.9649 0.1423
vn 0.0921 -0.9915 0.0920
vn 0.2606 -0.9617 -0.0854
vn 0.4800 -0.8655 -0.1435
vn 0.4639 -0.8859 -0.0054
vn -0.4639 0.8859 -0.0054
vn -0.4800 0.8655 -0.1435
vn -0.2606 0.9617 -0.0854
vn -0.0921 0.9915 0.0920
vn -0.2206 0.9649 0.1423
vn -0.9506 -0.3089 -0.0321
vn -0.9506 -0.3089 -0.0321
vn -0.7575 -0.2461 -0.6046
vn -0.7575 -0.2461 -0.6046
vn 0.4755 0.1545 -0.8660
vn 0.4755 0.1545 -0.8660
vn 0.8768 0.2849 0.3875
vn 0.8768 0.2849 0.3875
vn 0.5018 0.1630 0.8495
vn 0.5018 0.1630 0.8495
vn 0.1454 -0.9894 -0.0054
vn 0.1204 -0.9823 -0.1435
vn 0.3544 -0.9312 -0.0854
vn 0.5083 -0.8563 0.0920
vn 0.3887 -0.9103 0.1423
vn -0.5774 0.5774 -0.5774
vn 0.5774 0.5774 -0.5774
vn 0.5774 0.5774 0.5774
vn -0.5774 0.5774 0.5774
vn -0.5774 -0.5774 -0.5774
vn 0.5774 -0.5774 -0.5774
vn 0.5774 -0.5774 0.5774
vn -0.5774 -0.5774 0.5774
vn -0.5774 0.5774 -0.5774
vn 0.5774 0.5774 -0.5774
vn 0.5774 0.5774 0.5774
vn -0.5774 0.5774 0.5774
vn -0.5774 -0.5774 -0.5774
vn 0.5774 -0.5774 -0.5774
vn 0.5774 -0.5774 0.5774
vn -0.5774 -0.5774 0.5774
vn -0.5774 0.5774 -0.5774
vn 0.5774 0.5774 -0.5774
vn 0.5774 0.5774 0.5774
vn -0.5774 0.5774 0.5774
vn -0.5774 -0.5774 -0.5774
vn 0.5774 -0.5774 -0.5774
vn 0.5774 -0.5774 0.5774
vn -0.5774 -0.5774 0.5774
vn -0.5774 0.5774 -0.5774
vn 0.5774 0.5774 -0.5774
vn 0.5774 0.5774 0.5774
vn -0.5774 0.5774 0.5774
vn -0.5774 -0.5774 -0.5774
vn 0.5774 -0.5774 -0.5774
vn 0.5774 -0.5774 0.5774
vn -0.5774 -0.5774 0.5774
vn -0.5774 0.5774 -0.5774
vn 0.5774 0.5774 -0.5774
vn 0.5774 0.5774 0.5774
vn -0.5774 0.5774 0.5774
vn -0.5774 -0.5774 -0.5774
vn 0.5774 -0.5774 -0.5774
vn 0.5774 -0.5774 0.5774
vn -0.5774 -0.5774 0.5774
vn -0.5774 0.5774 -0.5774
vn 0.5774 0.5774 -0.5774
vn 0.5774 0.5774 0.5774
vn -0.5774 0.5774 0.5774
vn -0.5774 -0.5774 -0.5774
vn 0.5774 -0.5774 -0.5774
vn 0.5774 -0.5774 0.5774
vn -0.5774 -0.5774 0.5774
vn -0.5774 0.5774 -0.5774
vn 0.5774 0.5774 -0.5774
vn 0.5774 0.5774 0.5774
vn -0.5774 0.5774 0.5774
vn -0.5774 -0.5774 -0.5774
vn 0.5774 -0.5774 -0.5774
vn 0.5774 -0.5774 0.5774
vn -0.5774 -0.5774 0.5774
vn -0.5774 0.5774 -0.5774
vn 0.5774 0.5774 -0.5774
vn 0.5774 0.5774 0.5774
vn -0.5774 0.5774 0.5774
vn -0.5774 -0.5774 -0.5774
vn 0.5774 -0.5774 -0.5774
vn 0.5774 -0.5774 0.5774
vn -0.5774 -0.5774 0.5774
vn -0.5774 0.5774 -0.5774
vn 0.5774 0.5774 -0.5774
vn 0.5774 0.5774 0.5774
vn -0.5774 0.5774 0.5774
vn -0.5774 -0.5774 -0.5774
vn 0.5774 -0.5774 -0.5774
vn 0.5774 -0.5774 0.5774
vn -0.5774 -0.5774 0.5774
vn -0.5774 0.5774 -0.5774
vn 0.5774 0.5774 -0.5774
vn 0.5774 0.5774 0.5774
vn -0.5774 0.5774 0.5774
vn -0.5774 -0.5774 -0.5774
vn 0.5774 -0.5774 -0.5774
vn 0.5774 -0.5774 0.5774
vn -0.5774 -0.5774 0.5774
vn -0.5774 0.5774 -0.5774
vn 0.5774 0.5774 -0.5774
vn 0.5774 0.5774 0.5774
vn -0.5774 0.5774 0.5774
vn -0.5774 -0.5774 -0.5774
vn 0.5774 -0.5774 -0.5774
vn 0.5774 -0.5774 0.5774
vn -0.5774 -0.5774 0.5774
vn -0.5774 0.5774 -0.5774
vn 0.5774 0.5774 -0.5774
vn 0.5774 0.5774 0.5774
vn -0.5774 0.5774 0.5774
vn -0.5774 -0.5774 -0.5774
vn 0.5774 -0.5774 -0.5774
vn 0.5774 -0.5774 0.5774
vn -0.5774 -0.5774 0.5774
vn -0.5774 0.5774 -0.5774
vn 0.5774 0.5774 -0.5774
vn 0.5774 0.5774 0.5774
vn -0.5774 0.5774 0.5774
vn -0.5774 -0.5774 -0.5774
vn 0.5774 -0.5774 -0.5774
vn 0.5774 -0.5774 0.5774
vn -0.5774 -0.5774 0.5774
vn -0.5774 0.5774 -0.5774
vn 0.5774 0.5774 -0.5774
vn 0.5774 0.5774 0.5774
vn -0.5774 0.5774 0.5774
vn -0.5774 -0.5774 -0.5774
vn 0.5774 -0.5774 -0.5774
vn 0.5774 -0.5774 0.5774
vn -0.5774 -0.5774 0.5774
vn -0.5774 0.5774 -0.5774
vn 0.5774 0.5774 -0.5774
vn 0.5774 0.5774 0.5774
vn -0.5774 0.5774 0.5774
vn -0.5774 -0.5774 -0.5774
vn 0.5774 -0.5774 -0.5774
vn 0.5774 -0.5774 0.5774
vn -0.5774 -0.5774 0.5774
vn -0.5774 0.5774 -0.5774
vn 0.5774 0.5774 -0.5774
vn 0.5774 0.5774 0.5774
vn -0.5774 0.5774 0.5774
vn -0.5774 -0.5774 -0.5774
vn 0.5774 -0.5774 -0.5774
vn 0.5774 -0.5774 0.5774
vn -0.5774 -0.5774 0.5774
vn -0.5774 0.5774 -0.5774
vn 0.5774 0.5774 -0.5774
vn 0.5774 0.5774 0.5774
vn -0.5774 0.5774 0.5774
vn -0.5774 -0.5774 -0.5774
vn 0.5774 -0.5774 -0.5774
vn 0.5774 -0.5774 0.5774
vn -0.5774 -0.5774 0.5774
vn -0.5774 0.5774 -0.5774
vn 0.5774 0.5774 -0.5774
vn 0.5774 0.5774 0.5774
vn -0.5774 0.5774 0.5774
vn -0.5774 -0.5774 -0.5774
vn 0.5774 -0.5774 -0.5774
vn 0.5774 -0.5774 0.5774
vn -0.5774 -0.5774 0.5774
vn -0.5774 0.5774 -0.5774
vn 0.5774 0.5774 -0.5774
vn 0.5774 0.5774 0.5774
vn -0.5774 0.5774 0.5774
vn -0.5774 -0.5774 -0.5774
vn 0.5774 -0.5774 -0.5774
vn 0.5774 -0.5774 0.5774
vn -0.5774 -0.5774 0.5774
vn -0.5774 0.5774 -0.5774
vn 0.5774 0.5774 -0.5774
vn 0.5774 0.5774 0.5774
vn -0.5774 0.5774 0.5774
vn -0.5774 -0.5774 -0.5774
vn 0.5774 -0.5774 -0.5774
vn 0.5774 -0.5774 0.5774
vn -0.5774 -0.5774 0.5774
vn -0.8090 0.0000 -0.5878
vn -0.8090 0.0000 -0.5878
vn 0.3090 0.0000 -0.9511
vn 0.3090 0.0000 -0.9511
vn 1.0000 0.0000 -0.0000
vn 1.0000 0.0000 -0.0000
vn 0.3090 0.0000 0.9511
vn 0.3090 -0.0000 0.9511
vn -0.8090 0.0000 0.5878
vn -0.8090 0.0000 0.5878
vn 0.0000 -1.0000 0.0000
vn 0.0000 -1.0000 0.0000
vn -0.0000 -1.0000 0.0000
vn 0.0000 -1.0000 -0.0000
vn 0.0000 -1.0000 0.0000
vn 0.0000 -1.0000 0.0000
vn 0.0000 -1.0000 0.0000
vn -0.0000 -1.0000 0.0000
vn 0.0000 -1.0000 -0.0000
vn 0.0000 -1.0000 0.0000
usemtl c0
f 1//1 10//1 9//1
f 2//2 11//2 10//2
f 3//3 12//3 11//3
f 4//4 13//4 12//4
f 5//5 14//5 13//5
f 6//6 15//6 14//6
f 7//7 16//7 15//7
f 8//8 9//8 16//8
f 9//9 10//9 18//9
f 9//10 18//10 17//10
f 10//11 11//11 19//11
f 10//12 19//12 18//12
f 11//13 12//13 20//13
f 11//14 20//14 19//14
f 12//15 13//15 21//15
f 12//16 21//16 20//16
f 13//17 14//17 22//17
f 13//18 22//18 21//18
f 14//19 15//19 23//19
f 14//20 23//20 22//20
f 15//21 16//21 24//21
f 15//22 24//22 23//22
f 16//23 9//23 17//23
f 16//24 17//24 24//24
f 17//25 18//25 26//25
f 17//26 26//26 25//26
f 18//27 19//27 27//27
f 18//28 27//28 26//28
f 19//29 20//29 28//29
f 19//30 28//30 27//30
f 20//31 21//31 29//31
f 20//32 29//32 28//32
f 21//33 22//33 30//33
f 21//34 30//34 29//34
f 22//35 23//35 31//35
f 22//36 31//36 30//36
f 23//37 24//37 32//37
f 23//38 32//38 31//38
f 24//39 17//39 25//39
f 24//40 25//40 32//40
f 25//41 26//41 34//41
f 25//42 34//42 33//42
f 26//43 27//43 35//43
f 26//44 35//44 34//44
f 27//45 28//45 36//45
f 27//46 36//46 35//46
f 28//47 29//47 37//47
f 28//48 37//48 36//48
f 29//49 30//49 38//49
f 29//50 38//50 37//50
f 30//51 31//51 39//51
f 30//52 39//52 38//52
f 31//53 32//53 40//53
f 31//54 40//54 39//54
f 32//55 25//55 33//55
f 32//56 33//56 40//56
f 33//57 34//57 42//57
f 33//58 42//58 41//58
f 34//59 35//59 43//59
f 34//60 43//60 42//60
f 35//61 36//61 44//61
f 35//62 44//62 43//62
f 36//63 37//63 45//63
f 36//64 45//64 44//64
f 37//65 38//65 46//65
f 37//66 46//66 45//66
f 38//67 39//67 47//67
f 38//68 47//68 46//68
f 39//69 40//69 48//69
f 39//70 48//70 47//70
f 40//71 33//71 41//71
f 40//72 41//72 48//72
f 41//73 42//73 50//73
f 42//74 43//74 51//74
f 43//75 44//75 52//75
f 44//76 45//76 53//76
f 45//77 46//77 54//77
f 46//78 47//78 55//78
f 47//79 48//79 56//79
f 48//80 41//80 49//80
usemtl c1
f 57//81 63//81 62//81
f 58//82 64//82 63//82
f 59//83 65//83 64//83
f 60//84 66//84 65//84
f 61//85 62//85 66//85
f 62//86 63//86 68//86
f 62//87 68//87 67//87
f 63//88 64//88 69//88
f 63//89 69//89 68//89
f 64//90 65//90 70//90
f 64//91 70//91 69//91
f 65//92 66//92 71//92
f 65//93 71//93 70//93
f 66//94 62//94 67//94
f 66//95 67//95 71//95
f 67//96 68//96 73//96
f 68//97 69//97 74//97
f 69//98 70//98 75//98
f 70//99 71//99 76//99
f 71//100 67//100 72//100
f 77//101 83//101 82//101
f 78//102 84//102 83//102
f 79//103 85//103 84//103
f 80//104 86//104 85//104
f 81//105 82//105 86//105
f 82//106 83//106 88//106
f 82//107 88//107 87//107
f 83//108 84//108 89//108
f 83//109 89//109 88//109
f 84//110 85//110 90//110
f 84//111 90//111 89//111
f 85//112 86//112 91//112
f 85//113 91//113 90//113
f 86//114 82//114 87//114
f 86//115 87//115 91//115
f 87//116 88//116 93//116
f 88//117 89//117 94//117
f 89//118 90//118 95//118
f 90//119 91//119 96//119
f 91//120 87//120 92//120
f 97//121 103//121 102//121
f 98//122 104//122 103//122
f 99//123 105//123 104//123
f 100//124 106//124 105//124
f 101//125 102//125 106//125
f 102//126 103//126 108//126
f 102//127 108//127 107//127
f 103//128 104//128 109//128
f 103//129 109//129 108//129
f 104//130 105//130 110//130
f 104//131 110//131 109//131
f 105//132 106//132 111//132
f 105//133 111//133 110//133
f 106//134 102//134 107//134
f 106//135 107//135 111//135
f 107//136 108//136 113//136
f 108//137 109//137 114//137
f 109//138 110//138 115//138
f 110//139 111//139 116//139
f 111//140 107//140 112//140
f 117//141 123//141 122//141
f 118//142 124//142 123//142
f 119//143 125//143 124//143
f 120//144 126//144 125//144
f 121//145 122//145 126//145
f 122//146 123//146 128//146
f 122//147 128//147 127//147
f 123//148 124//148 129//148
f 123//149 129//149 128//149
f 124//150 125//150 130//150
f 124//151 130//151 129//151
f 125//152 126//152 131//152
f 125//153 131//153 130//153
f 126//154 122//154 127//154
f 126//155 127//155 131//155
f 127//156 128//156 133//156
f 128//157 129//157 134//157
f 129//158 130//158 135//158
f 130//159 131//159 136//159
f 131//160 127//160 132//160
f 137//161 143//161 142//161
f 138//162 144//162 143//162
f 139//163 145//163 144//163
f 140//164 146//164 145//164
f 141//165 142//165 146//165
f 142//166 143//166 148//166
f 142//167 148//167 147//167
f 143//168 144//168 149//168
f 143//169 149//169 148//169
f 144//170 145//170 150//170
f 144//171 150//171 149//171
f 145//172 146//172 151//172
f 145//173 151//173 150//173
f 146//174 142//174 147//174
f 146//175 147//175 151//175
f 147//176 148//176 153//176
f 148//177 149//177 154//177
f 149//178 150//178 155//178
f 150//179 151//179 156//179
f 151//180 147//180 152//180
f 157//181 163//181 162//181
f 158//182 164//182 163//182
f 159//183 165//183 164//183
f 160//184 166//184 165//184
f 161//185 162//185 166//185
f 162//186 163//186 168//186
f 162//187 168//187 167//187
f 163//188 164//188 169//188
f 163//189 169//189 168//189
f 164//190 165//190 170//190
f 164//191 170//191 169//191
f 165//192 166//192 171//192
f 165//193 171//193 170//193
f 166//194 162//194 167//194
f 166//195 167//195 171//195
f 167//196 168//196 173//196
f 168//197 169//197 174//197
f 169//198 170//198 175//198
f 170//199 171//199 176//199
f 171//200 167//200 172//200
usemtl c2
f 177//201 182//201 181//201
f 178//202 183//202 182//202
f 179//203 184//203 183//203
f 180//204 181//204 184//204
f 181//205 182//205 186//205
f 182//206 183//206 187//206
f 183//207 184//207 188//207
f 184//208 181//208 185//208
f 189//209 194//209 193//209
f 190//210 195//210 194//210
f 191//211 196//211 195//211
f 192//212 193//212 196//212
f 193//213 194//213 198//213
f 194//214 195//214 199//214
f 195//215 196//215 200//215
f 196//216 193//216 197//216
f 201//217 206//217 205//217
f 202//218 207//218 206//218
f 203//219 208//219 207//219
f 204//220 205//220 208//220
f 205//221 206//221 210//221
f 206//222 207//222 211//222
f 207//223 208//223 212//223
f 208//224 205//224 209//224
f 213//225 218//225 217//225
f 214//226 219//226 218//226
f 215//227 220//227 219//227
f 216//228 217//228 220//228
f 217//229 218//229 222//229
f 218//230 219//230 223//230
f 219//231 220//231 224//231
f 220//232 217//232 221//232
f 225//233 230//233 229//233
f 226//234 231//234 230//234
f 227//235 232//235 231//235
f 228//236 229//236 232//236
f 229//237 230//237 234//237
f 230//238 231//238 235//238
f 231//239 232//239 236//239
f 232//240 229//240 233//240
f 237//241 242//241 241//241
f 238//242 243//242 242//242
f 239//243 244//243 243//243
f 240//244 241//244 244//244
f 241//245 242//245 246//245
f 242//246 243//246 247//246
f 243//247 244//247 248//247
f 244//248 241//248 245//248
f 249//249 254//249 253//249
f 250//250 255//250 254//250
f 251//251 256//251 255//251
f 252//252 253//252 256//252
f 253//253 254//253 258//253
f 254//254 255//254 259//254
f 255//255 256//255 260//255
f 256//256 253//256 257//256
f 261//257 266//257 265//257
f 262//258 267//258 266//258
f 263//259 268//259 267//259
f 264//260 265//260 268//260
f 265//261 266//261 270//261
f 266//262 267//262 271//262
f 267//263 268//263 272//263
f 268//264 265//264 269//264
f 273//265 278//265 277//265
f 274//266 279//266 278//266
f 275//267 280//267 279//267
f 276//268 277//268 280//268
f 277//269 278//269 282//269
f 278//270 279//270 283//270
f 279//271 280//271 284//271
f 280//272 277//272 281//272
f 285//273 290//273 289//273
f 286//274 291//274 290//274
f 287//275 292//275 291//275
f 288//276 289//276 292//276
f 289//277 290//277 294//277
f 290//278 291//278 295//278
f 291//279 292//279 296//279
f 292//280 289//280 293//280
f 297//281 302//281 301//281
f 298//282 303//282 302//282
f 299//283 304//283 303//283
f 300//284 301//284 304//284
f 301//285 302//285 306//285
f 302//286 303//286 307//286
f 303//287 304//287 308//287
f 304//288 301//288 305//288
f 309//289 314//289 313//289
f 310//290 315//290 314//290
f 311//291 316//291 315//291
f 312//292 313//292 316//292
f 313//293 314//293 318//293
f 314//294 315//294 319//294
f 315//295 316//295 320//295
f 316//296 313//296 317//296
f 321//297 326//297 325//297
f 322//298 327//298 326//298
f 323//299 328//299 327//299
f 324//300 325//300 328//300
f 325//301 326//301 330//301
f 326//302 327//302 331//302
f 327//303 328//303 332//303
f 328//304 325//304 329//304
f 333//305 338//305 337//305
f 334//306 339//306 338//306
f 335//307 340//307 339//307
f 336//308 337//308 340//308
f 337//309 338//309 342//309
f 338//310 339//310 343//310
f 339//311 340//311 344//311
f 340//312 337//312 341//312
f 345//313 350//313 349//313
f 346//314 351//314 350//314
f 347//315 352//315 351//315
f 348//316 349//316 352//316
f 349//317 350//317 354//317
f 350//318 351//318 355//318
f 351//319 352//319 356//319
f 352//320 349//320 353//320
f 357//321 362//321 361//321
f 358//322 363//322 362//322
f 359//323 364//323 363//323
f 360//324 361//324 364//324
f 361//325 362//325 366//325
f 362//326 363//326 367//326
f 363//327 364//327 368//327
f 364//328 361//328 365//328
f 369//329 374//329 373//329
f 370//330 375//330 374//330
f 371//331 376//331 375//331
f 372//332 373//332 376//332
f 373//333 374//333 378//333
f 374//334 375//334 379//334
f 375//335 376//335 380//335
f 376//336 373//336 377//336
f 381//337 386//337 385//337
f 382//338 387//338 386//338
f 383//339 388//339 387//339
f 384//340 385//340 388//340
f 385//341 386//341 390//341
f 386//342 387//342 391//342
f 387//343 388//343 392//343
f 388//344 385//344 389//344
f 393//345 398//345 397//345
f 394//346 399//346 398//346
f 395//347 400//347 399//347
f 396//348 397//348 400//348
f 397//349 398//349 402//349
f 398//350 399//350 403//350
f 399//351 400//351 404//351
f 400//352 397//352 401//352
f 405//353 410//353 409//353
f 406//354 411//354 410//354
f 407//355 412//355 411//355
f 408//356 409//356 412//356
f 409//357 410//357 414//357
f 410//358 411//358 415//358
f 411//359 412//359 416//359
f 412//360 409//360 413//360
usemtl c3
f 417//361 418//361 423//361
f 417//362 423//362 422//362
f 418//363 419//363 424//363
f 418//364 424//364 423//364
f 419//365 420//365 425//365
f 419//366 425//366 424//366
f 420//367 421//367 426//367
f 420//368 426//368 425//368
f 421//369 417//369 422//369
f 421//370 422//370 426//370
f 427//371 417//371 418//371
f 427//372 418//372 419//372
f 427//373 419//373 420//373
f 427//374 420//374 421//374
f 427//375 421//375 417//375
f 428//376 422//376 423//376
f 428//377 423//377 424//377
f 428//378 424//378 425//378
f 428//379 425//379 426//379
f 428//380 426//380 422//380
