mtllib Food_Eggplant.mtl
v 0.5000 -0.8660 0.0000
v 0.5000 -0.8660 0.0000
v 0.5000 -0.8660 0.0000
v 0.5000 -0.8660 0.0000
v 0.5000 -0.8660 0.0000
v 0.5000 -0.8660 0.0000
v 0.5000 -0.8660 0.0000
v 0.5000 -0.8660 0.0000
v 0.8214 -0.6227 0.0000
v 0.7199 -0.6813 0.2828
v 0.4750 -0.8227 0.4000
v 0.2301 -0.9641 0.2828
v 0.1286 -1.0227 0.0000
v 0.2301 -0.9641 -0.2828
v 0.4750 -0.8227 -0.4000
v 0.7199 -0.6813 -0.2828
v 0.8196 -0.2196 0.0000
v 0.6674 -0.3075 0.4243
v 0.3000 -0.5196 0.6000
v -0.0674 -0.7317 0.4243
v -0.2196 -0.8196 0.0000
v -0.0674 -0.7317 -0.4243
v 0.3000 -0.5196 -0.6000
v 0.6674 -0.3075 -0.4243
v 0.5023 0.2900 0.0000
v 0.3552 0.2051 0.4101
v 0.0000 0.0000 0.5800
v -0.3552 -0.2051 0.4101
v -0.5023 -0.2900 0.0000
v -0.3552 -0.2051 -0.4101
v -0.0000 -0.0000 -0.5800
v 0.3552 0.2051 -0.4101
v 0.0714 0.6763 0.0000
v -0.0301 0.6177 0.2828
v -0.2750 0.4763 0.4000
v -0.5199 0.3349 0.2828
v -0.6214 0.2763 0.0000
v -0.5199 0.3349 -0.2828
v -0.2750 0.4763 -0.4000
v -0.0301 0.6177 -0.2828
v -0.1575 0.8328 0.0000
v -0.2285 0.7918 0.1980
v -0.4000 0.6928 0.2800
v -0.5715 0.5938 0.1980
v -0.6425 0.5528 0.0000
v -0.5715 0.5938 -0.1980
v -0.4000 0.6928 -0.2800
v -0.2285 0.7918 -0.1980
v -0.4250 0.7361 0.0000
v -0.4250 0.7361 0.0000
v -0.4250 0.7361 0.0000
v -0.4250 0.7361 0.0000
v -0.4250 0.7361 0.0000
v -0.4250 0.7361 0.0000
v -0.4250 0.7361 0.0000
v -0.4250 0.7361 0.0000
v -0.0709 0.8828 0.0000
v -0.2739 0.7656 0.1058
v -0.2983 0.7515 0.3614
v -0.4482 0.6650 0.1712
v -0.6662 0.5391 0.2234
v -0.5559 0.6028 0.0000
v -0.6662 0.5391 -0.2234
v -0.4482 0.6650 -0.1712
v -0.2983 0.7515 -0.3614
v -0.2739 0.7656 -0.1058
v -0.1109 0.9521 0.0000
v -0.3139 0.8349 0.1058
v -0.3383 0.8208 0.3614
v -0.4882 0.7343 0.1712
v -0.7062 0.6084 0.2234
v -0.5959 0.6721 0.0000
v -0.7062 0.6084 -0.2234
v -0.4882 0.7343 -0.1712
v -0.3383 0.8208 -0.3614
v -0.3139 0.8349 -0.1058
v -0.4000 0.6928 0.0000
v -0.4400 0.7621 0.0000
v -0.3587 0.7586 0.0000
v -0.4045 0.7431 0.0666
v -0.4786 0.7180 0.0411
v -0.4786 0.7180 -0.0411
v -0.4045 0.7431 -0.0666
v -0.4567 1.0484 0.0000
v -0.5025 1.0329 0.0666
v -0.5767 1.0078 0.0411
v -0.5767 1.0078 -0.0411
v -0.5025 1.0329 -0.0666
v -0.4250 0.7361 0.0000
v -0.5230 1.0259 0.0000
vn -0.6028 0.7963 -0.0513
vn -0.5399 0.8326 -0.1239
vn -0.4511 0.8839 -0.1239
vn -0.3882 0.9201 -0.0513
vn -0.3882 0.9201 0.0513
vn -0.4511 0.8839 0.1239
vn -0.5399 0.8326 0.1239
vn -0.6028 0.7963 0.0513
vn -0.9410 -0.0042 -0.3384
vn -0.9410 -0.0042 -0.3384
vn -0.5265 0.2351 -0.8170
vn -0.5265 0.2351 -0.8170
vn 0.0596 0.5735 -0.8170
vn 0.0596 0.5735 -0.8170
vn 0.4741 0.8128 -0.3384
vn 0.4741 0.8128 -0.3384
vn 0.4741 0.8128 0.3384
vn 0.4741 0.8128 0.3384
vn 0.0596 0.5735 0.8170
vn 0.0596 0.5735 0.8170
vn -0.5265 0.2351 0.8170
vn -0.5265 0.2351 0.8170
vn -0.9410 -0.0042 0.3384
vn -0.9410 -0.0042 0.3384
vn -0.7843 -0.4884 -0.3825
vn -0.7843 -0.4884 -0.3825
vn -0.3159 -0.2179 -0.9234
vn -0.3159 -0.2179 -0.9234
vn 0.3466 0.1646 -0.9234
vn 0.3466 0.1646 -0.9234
vn 0.8151 0.4351 -0.3825
vn 0.8151 0.4351 -0.3825
vn 0.8151 0.4351 0.3825
vn 0.8151 0.4351 0.3825
vn 0.3466 0.1646 0.9234
vn 0.3466 0.1646 0.9234
vn -0.3159 -0.2179 0.9234
vn -0.3159 -0.2179 0.9234
vn -0.7843 -0.4884 0.3825
vn -0.7843 -0.4884 0.3825
vn -0.6212 -0.6928 -0.3663
vn -0.6212 -0.6928 -0.3663
vn -0.1725 -0.4338 -0.8843
vn -0.1725 -0.4338 -0.8843
vn 0.4619 -0.0675 -0.8843
vn 0.4619 -0.0675 -0.8843
vn 0.9106 0.1915 -0.3663
vn 0.9106 0.1915 -0.3663
vn 0.9106 0.1915 0.3663
vn 0.9106 0.1915 0.3663
vn 0.4619 -0.0675 0.8843
vn 0.4619 -0.0675 0.8843
vn -0.1725 -0.4338 0.8843
vn -0.1725 -0.4338 0.8843
vn -0.6212 -0.6928 0.3663
vn -0.6212 -0.6928 0.3663
vn -0.5287 -0.7734 -0.3498
vn -0.5287 -0.7734 -0.3498
vn -0.1003 -0.5260 -0.8446
vn -0.1003 -0.5260 -0.8446
vn 0.5057 -0.1762 -0.8446
vn 0.5057 -0.1762 -0.8446
vn 0.9341 0.0712 -0.3498
vn 0.9341 0.0712 -0.3498
vn 0.9341 0.0712 0.3498
vn 0.9341 0.0712 0.3498
vn 0.5057 -0.1762 0.8446
vn 0.5057 -0.1762 0.8446
vn -0.1003 -0.5260 0.8446
vn -0.1003 -0.5260 0.8446
vn -0.5287 -0.7734 0.3498
vn -0.5287 -0.7734 0.3498
vn 0.3391 -0.9380 -0.0726
vn 0.4280 -0.8866 -0.1753
vn 0.5538 -0.8140 -0.1753
vn 0.6428 -0.7626 -0.0726
vn 0.6428 -0.7626 0.0726
vn 0.5538 -0.8140 0.1753
vn 0.4280 -0.8866 0.1753
vn 0.3391 -0.9380 0.0726
vn -0.3563 -0.2057 -0.9114
vn -0.3563 -0.2057 -0.9114
vn -0.5000 0.8660 -0.0000
vn 0.5000 -0.8660 -0.0000
vn -0.8608 -0.4970 -0.1097
vn -0.8608 -0.4970 -0.1097
vn -0.5000 0.8660 0.0000
vn 0.5000 -0.8660 0.0000
vn 0.6406 0.3698 -0.6729
vn 0.6406 0.3698 -0.6729
vn -0.5000 0.8660 0.0000
vn 0.5000 -0.8660 0.0000
vn -0.1757 -0.1014 -0.9792
vn -0.1757 -0.1014 -0.9792
vn -0.5000 0.8660 0.0000
vn 0.5000 -0.8660 0.0000
vn 0.7522 0.4343 0.4955
vn 0.7522 0.4343 0.4955
vn -0.5000 0.8660 0.0000
vn 0.5000 -0.8660 0.0000
vn 0.7522 0.4343 -0.4955
vn 0.7522 0.4343 -0.4955
vn -0.5000 0.8660 -0.0000
vn 0.5000 -0.8660 -0.0000
vn -0.1757 -0.1014 0.9792
vn -0.1757 -0.1014 0.9792
vn -0.5000 0.8660 -0.0000
vn 0.5000 -0.8660 -0.0000
vn 0.6406 0.3698 0.6729
vn 0.6406 0.3698 0.6729
vn -0.5000 0.8660 -0.0000
vn 0.5000 -0.8660 -0.0000
vn -0.8608 -0.4970 0.1097
vn -0.8608 -0.4970 0.1097
vn -0.5000 0.8660 0.0000
vn 0.5000 -0.8660 0.0000
vn -0.3563 -0.2057 0.9114
vn -0.3563 -0.2057 0.9114
vn -0.5000 0.8660 0.0000
vn 0.5000 -0.8660 0.0000
vn -0.7664 -0.2592 -0.5878
vn -0.7664 -0.2592 -0.5878
vn 0.2927 0.0990 -0.9511
vn 0.2927 0.0990 -0.9511
vn 0.9473 0.3204 0.0000
vn 0.9473 0.3204 0.0000
vn 0.2927 0.0990 0.9511
vn 0.2927 0.0990 0.9511
vn -0.7664 -0.2592 0.5878
vn -0.7664 -0.2592 0.5878
vn 0.3204 -0.9473 -0.0000
vn 0.3204 -0.9473 -0.0000
vn 0.3204 -0.9473 0.0000
vn 0.3204 -0.9473 0.0000
vn 0.3204 -0.9473 0.0000
vn 0.3204 -0.9473 0.0000
vn 0.3204 -0.9473 0.0000
vn 0.3204 -0.9473 0.0000
vn 0.3204 -0.9473 -0.0000
vn 0.3204 -0.9473 -0.0000
usemtl c0
f 1//1 10//1 9//1
f 2//2 11//2 10//2
f 3//3 12//3 11//3
f 4//4 13//4 12//4
f 5//5 14//5 13//5
f 6//6 15//6 14//6
f 7//7 16//7 15//7
f 8//8 9//8 16//8
f 9//9 10//9 18//9
f 9//10 18//10 17//10
f 10//11 11//11 19//11
f 10//12 19//12 18//12
f 11//13 12//13 20//13
f 11//14 20//14 19//14
f 12//15 13//15 21//15
f 12//16 21//16 20//16
f 13//17 14//17 22//17
f 13//18 22//18 21//18
f 14//19 15//19 23//19
f 14//20 23//20 22//20
f 15//21 16//21 24//21
f 15//22 24//22 23//22
f 16//23 9//23 17//23
f 16//24 17//24 24//24
f 17//25 18//25 26//25
f 17//26 26//26 25//26
f 18//27 19//27 27//27
f 18//28 27//28 26//28
f 19//29 20//29 28//29
f 19//30 28//30 27//30
f 20//31 21//31 29//31
f 20//32 29//32 28//32
f 21//33 22//33 30//33
f 21//34 30//34 29//34
f 22//35 23//35 31//35
f 22//36 31//36 30//36
f 23//37 24//37 32//37
f 23//38 32//38 31//38
f 24//39 17//39 25//39
f 24//40 25//40 32//40
f 25//41 26//41 34//41
f 25//42 34//42 33//42
f 26//43 27//43 35//43
f 26//44 35//44 34//44
f 27//45 28//45 36//45
f 27//46 36//46 35//46
f 28//47 29//47 37//47
f 28//48 37//48 36//48
f 29//49 30//49 38//49
f 29//50 38//50 37//50
f 30//51 31//51 39//51
f 30//52 39//52 38//52
f 31//53 32//53 40//53
f 31//54 40//54 39//54
f 32//55 25//55 33//55
f 32//56 33//56 40//56
f 33//57 34//57 42//57
f 33//58 42//58 41//58
f 34//59 35//59 43//59
f 34//60 43//60 42//60
f 35//61 36//61 44//61
f 35//62 44//62 43//62
f 36//63 37//63 45//63
f 36//64 45//64 44//64
f 37//65 38//65 46//65
f 37//66 46//66 45//66
f 38//67 39//67 47//67
f 38//68 47//68 46//68
f 39//69 40//69 48//69
f 39//70 48//70 47//70
f 40//71 33//71 41//71
f 40//72 41//72 48//72
f 41//73 42//73 50//73
f 42//74 43//74 51//74
f 43//75 44//75 52//75
f 44//76 45//76 53//76
f 45//77 46//77 54//77
f 46//78 47//78 55//78
f 47//79 48//79 56//79
f 48//80 41//80 49//80
usemtl c1
f 57//81 58//81 68//81
f 57//82 68//82 67//82
f 77//83 58//83 57//83
f 78//84 67//84 68//84
f 58//85 59//85 69//85
f 58//86 69//86 68//86
f 77//87 59//87 58//87
f 78//88 68//88 69//88
f 59//89 60//89 70//89
f 59//90 70//90 69//90
f 77//91 60//91 59//91
f 78//92 69//92 70//92
f 60//93 61//93 71//93
f 60//94 71//94 70//94
f 77//95 61//95 60//95
f 78//96 70//96 71//96
f 61//97 62//97 72//97
f 61//98 72//98 71//98
f 77//99 62//99 61//99
f 78//100 71//100 72//100
f 62//101 63//101 73//101
f 62//102 73//102 72//102
f 77//103 63//103 62//103
f 78//104 72//104 73//104
f 63//105 64//105 74//105
f 63//106 74//106 73//106
f 77//107 64//107 63//107
f 78//108 73//108 74//108
f 64//109 65//109 75//109
f 64//110 75//110 74//110
f 77//111 65//111 64//111
f 78//112 74//112 75//112
f 65//113 66//113 76//113
f 65//114 76//114 75//114
f 77//115 66//115 65//115
f 78//116 75//116 76//116
f 66//117 57//117 67//117
f 66//118 67//118 76//118
f 77//119 57//119 66//119
f 78//120 76//120 67//120
usemtl c2
f 79//121 80//121 85//121
f 79//122 85//122 84//122
f 80//123 81//123 86//123
f 80//124 86//124 85//124
f 81//125 82//125 87//125
f 81//126 87//126 86//126
f 82//127 83//127 88//127
f 82//128 88//128 87//128
f 83//129 79//129 84//129
f 83//130 84//130 88//130
f 89//131 79//131 80//131
f 89//132 80//132 81//132
f 89//133 81//133 82//133
f 89//134 82//134 83//134
f 89//135 83//135 79//135
f 90//136 84//136 85//136
f 90//137 85//137 86//137
f 90//138 86//138 87//138
f 90//139 87//139 88//139
f 90//140 88//140 84//140
