mtllib Food_GummyBear.mtl
v 0.0000 -0.6200 0.0000
v 0.0000 -0.6200 0.0000
v 0.0000 -0.6200 0.0000
v 0.0000 -0.6200 0.0000
v 0.0000 -0.6200 0.0000
v 0.0000 -0.6200 0.0000
v 0.0000 -0.6200 0.0000
v 0.0000 -0.6200 0.0000
v 0.3677 -0.4384 0.0000
v 0.2600 -0.4384 0.2100
v 0.0000 -0.4384 0.2970
v -0.2600 -0.4384 0.2100
v -0.3677 -0.4384 0.0000
v -0.2600 -0.4384 -0.2100
v -0.0000 -0.4384 -0.2970
v 0.2600 -0.4384 -0.2100
v 0.5200 -0.0000 0.0000
v 0.3677 -0.0000 0.2970
v 0.0000 -0.0000 0.4200
v -0.3677 -0.0000 0.2970
v -0.5200 -0.0000 0.0000
v -0.3677 -0.0000 -0.2970
v -0.0000 -0.0000 -0.4200
v 0.3677 -0.0000 -0.2970
v 0.3677 0.4384 0.0000
v 0.2600 0.4384 0.2100
v 0.0000 0.4384 0.2970
v -0.2600 0.4384 0.2100
v -0.3677 0.4384 0.0000
v -0.2600 0.4384 -0.2100
v -0.0000 0.4384 -0.2970
v 0.2600 0.4384 -0.2100
v 0.0000 0.6200 0.0000
v 0.0000 0.6200 0.0000
v 0.0000 0.6200 0.0000
v -0.0000 0.6200 0.0000
v -0.0000 0.6200 0.0000
v -0.0000 0.6200 -0.0000
v -0.0000 0.6200 -0.0000
v 0.0000 0.6200 -0.0000
v 0.0000 0.4100 0.0000
v 0.0000 0.4100 0.0000
v 0.0000 0.4100 0.0000
v 0.0000 0.4100 0.0000
v 0.0000 0.4100 0.0000
v 0.0000 0.4100 0.0000
v 0.0000 0.4100 0.0000
v 0.0000 0.4100 0.0000
v 0.3111 0.5389 0.0000
v 0.2200 0.5389 0.2200
v 0.0000 0.5389 0.3111
v -0.2200 0.5389 0.2200
v -0.3111 0.5389 0.0000
v -0.2200 0.5389 -0.2200
v -0.0000 0.5389 -0.3111
v 0.2200 0.5389 -0.2200
v 0.4400 0.8500 0.0000
v 0.3111 0.8500 0.3111
v 0.0000 0.8500 0.4400
v -0.3111 0.8500 0.3111
v -0.4400 0.8500 0.0000
v -0.3111 0.8500 -0.3111
v -0.0000 0.8500 -0.4400
v 0.3111 0.8500 -0.3111
v 0.3111 1.1611 0.0000
v 0.2200 1.1611 0.2200
v 0.0000 1.1611 0.3111
v -0.2200 1.1611 0.2200
v -0.3111 1.1611 0.0000
v -0.2200 1.1611 -0.2200
v -0.0000 1.1611 -0.3111
v 0.2200 1.1611 -0.2200
v 0.0000 1.2900 0.0000
v 0.0000 1.2900 0.0000
v 0.0000 1.2900 0.0000
v -0.0000 1.2900 0.0000
v -0.0000 1.2900 0.0000
v -0.0000 1.2900 -0.0000
v -0.0000 1.2900 -0.0000
v 0.0000 1.2900 -0.0000
v -0.3200 1.0500 0.0000
v -0.3200 1.0500 0.0000
v -0.3200 1.0500 0.0000
v -0.3200 1.0500 0.0000
v -0.3200 1.0500 0.0000
v -0.3200 1.0500 0.0000
v -0.1728 1.1350 0.0000
v -0.2464 1.1350 0.1275
v -0.3936 1.1350 0.1275
v -0.4672 1.1350 0.0000
v -0.3936 1.1350 -0.1275
v -0.2464 1.1350 -0.1275
v -0.1728 1.3050 0.0000
v -0.2464 1.3050 0.1275
v -0.3936 1.3050 0.1275
v -0.4672 1.3050 0.0000
v -0.3936 1.3050 -0.1275
v -0.2464 1.3050 -0.1275
v -0.3200 1.3900 0.0000
v -0.3200 1.3900 0.0000
v -0.3200 1.3900 0.0000
v -0.3200 1.3900 0.0000
v -0.3200 1.3900 -0.0000
v -0.3200 1.3900 -0.0000
v -0.4479 -0.1457 0.0000
v -0.4479 -0.1457 0.0000
v -0.4479 -0.1457 0.0000
v -0.4479 -0.1457 0.0000
v -0.4479 -0.1457 0.0000
v -0.4479 -0.1457 0.0000
v -0.4205 0.0566 0.0000
v -0.4772 0.0169 0.1200
v -0.5907 -0.0626 0.1200
v -0.6475 -0.1023 0.0000
v -0.5907 -0.0626 -0.1200
v -0.4772 0.0169 -0.1200
v -0.5925 0.3023 0.0000
v -0.6493 0.2626 0.1200
v -0.7628 0.1831 0.1200
v -0.8195 0.1434 0.0000
v -0.7628 0.1831 -0.1200
v -0.6493 0.2626 -0.1200
v -0.7921 0.3457 0.0000
v -0.7921 0.3457 0.0000
v -0.7921 0.3457 0.0000
v -0.7921 0.3457 0.0000
v -0.7921 0.3457 -0.0000
v -0.7921 0.3457 -0.0000
v -0.2600 -0.9600 0.0800
v -0.2600 -0.9600 0.0800
v -0.2600 -0.9600 0.0800
v -0.2600 -0.9600 0.0800
v -0.2600 -0.9600 0.0800
v -0.2600 -0.9600 0.0800
v -0.0695 -0.8200 0.0800
v -0.1647 -0.8200 0.2450
v -0.3553 -0.8200 0.2450
v -0.4505 -0.8200 0.0800
v -0.3553 -0.8200 -0.0850
v -0.1647 -0.8200 -0.0850
v -0.0695 -0.5400 0.0800
v -0.1647 -0.5400 0.2450
v -0.3553 -0.5400 0.2450
v -0.4505 -0.5400 0.0800
v -0.3553 -0.5400 -0.0850
v -0.1647 -0.5400 -0.0850
v -0.2600 -0.4000 0.0800
v -0.2600 -0.4000 0.0800
v -0.2600 -0.4000 0.0800
v -0.2600 -0.4000 0.0800
v -0.2600 -0.4000 0.0800
v -0.2600 -0.4000 0.0800
v -0.1500 0.8700 0.4000
v -0.1500 0.8700 0.4000
v -0.1500 0.8700 0.4000
v -0.1500 0.8700 0.4000
v -0.1000 0.9200 0.4000
v -0.1500 0.9200 0.4500
v -0.2000 0.9200 0.4000
v -0.1500 0.9200 0.3500
v -0.1500 0.9700 0.4000
v -0.1500 0.9700 0.4000
v -0.1500 0.9700 0.4000
v -0.1500 0.9700 0.4000
v 0.3200 1.0500 0.0000
v 0.3200 1.0500 0.0000
v 0.3200 1.0500 0.0000
v 0.3200 1.0500 0.0000
v 0.3200 1.0500 0.0000
v 0.3200 1.0500 0.0000
v 0.4672 1.1350 0.0000
v 0.3936 1.1350 0.1275
v 0.2464 1.1350 0.1275
v 0.1728 1.1350 0.0000
v 0.2464 1.1350 -0.1275
v 0.3936 1.1350 -0.1275
v 0.4672 1.3050 0.0000
v 0.3936 1.3050 0.1275
v 0.2464 1.3050 0.1275
v 0.1728 1.3050 0.0000
v 0.2464 1.3050 -0.1275
v 0.3936 1.3050 -0.1275
v 0.3200 1.3900 0.0000
v 0.3200 1.3900 0.0000
v 0.3200 1.3900 0.0000
v 0.3200 1.3900 0.0000
v 0.3200 1.3900 -0.0000
v 0.3200 1.3900 -0.0000
v 0.4479 -0.1457 0.0000
v 0.4479 -0.1457 0.0000
v 0.4479 -0.1457 0.0000
v 0.4479 -0.1457 0.0000
v 0.4479 -0.1457 0.0000
v 0.4479 -0.1457 0.0000
v 0.6475 -0.1023 0.0000
v 0.5907 -0.0626 0.1200
v 0.4772 0.0169 0.1200
v 0.4205 0.0566 0.0000
v 0.4772 0.0169 -0.1200
v 0.5907 -0.0626 -0.1200
v 0.8195 0.1434 0.0000
v 0.7628 0.1831 0.1200
v 0.6493 0.2626 0.1200
v 0.5925 0.3023 0.0000
v 0.6493 0.2626 -0.1200
v 0.7628 0.1831 -0.1200
v 0.7921 0.3457 0.0000
v 0.7921 0.3457 0.0000
v 0.7921 0.3457 0.0000
v 0.7921 0.3457 0.0000
v 0.7921 0.3457 -0.0000
v 0.7921 0.3457 -0.0000
v 0.2600 -0.9600 0.0800
v 0.2600 -0.9600 0.0800
v 0.2600 -0.9600 0.0800
v 0.2600 -0.9600 0.0800
v 0.2600 -0.9600 0.0800
v 0.2600 -0.9600 0.0800
v 0.4505 -0.8200 0.0800
v 0.3553 -0.8200 0.2450
v 0.1647 -0.8200 0.2450
v 0.0695 -0.8200 0.0800
v 0.1647 -0.8200 -0.0850
v 0.3553 -0.8200 -0.0850
v 0.4505 -0.5400 0.0800
v 0.3553 -0.5400 0.2450
v 0.1647 -0.5400 0.2450
v 0.0695 -0.5400 0.0800
v 0.1647 -0.5400 -0.0850
v 0.3553 -0.5400 -0.0850
v 0.2600 -0.4000 0.0800
v 0.2600 -0.4000 0.0800
v 0.2600 -0.4000 0.0800
v 0.2600 -0.4000 0.0800
v 0.2600 -0.4000 0.0800
v 0.2600 -0.4000 0.0800
v 0.1500 0.8700 0.4000
v 0.1500 0.8700 0.4000
v 0.1500 0.8700 0.4000
v 0.1500 0.8700 0.4000
v 0.2000 0.9200 0.4000
v 0.1500 0.9200 0.4500
v 0.1000 0.9200 0.4000
v 0.1500 0.9200 0.3500
v 0.1500 0.9700 0.4000
v 0.1500 0.9700 0.4000
v 0.1500 0.9700 0.4000
v 0.1500 0.9700 0.4000
v 0.0000 0.7000 0.4000
v 0.0000 0.7000 0.4000
v 0.0000 0.7000 0.4000
v 0.0000 0.7000 0.4000
v 0.0000 0.7000 0.4000
v 0.0000 0.7000 0.4000
v 0.1299 0.7500 0.4000
v 0.0650 0.7500 0.4750
v -0.0650 0.7500 0.4750
v -0.1299 0.7500 0.4000
v -0.0650 0.7500 0.3250
v 0.0650 0.7500 0.3250
v 0.1299 0.8500 0.4000
v 0.0650 0.8500 0.4750
v -0.0650 0.8500 0.4750
v -0.1299 0.8500 0.4000
v -0.0650 0.8500 0.3250
v 0.0650 0.8500 0.3250
v 0.0000 0.9000 0.4000
v 0.0000 0.9000 0.4000
v -0.0000 0.9000 0.4000
v -0.0000 0.9000 0.4000
v -0.0000 0.9000 0.4000
v 0.0000 0.9000 0.4000
v -0.2000 0.0700 0.4000
v -0.2000 0.0700 0.4000
v -0.2000 0.0700 0.4000
v -0.2000 0.0700 0.4000
v -0.2000 0.0700 0.4000
v -0.0614 0.2100 0.4000
v -0.1572 0.2100 0.4412
v -0.3121 0.2100 0.4255
v -0.3121 0.2100 0.3745
v -0.1572 0.2100 0.3588
v -0.0614 0.4900 0.4000
v -0.1572 0.4900 0.4412
v -0.3121 0.4900 0.4255
v -0.3121 0.4900 0.3745
v -0.1572 0.4900 0.3588
v -0.2000 0.6300 0.4000
v -0.2000 0.6300 0.4000
v -0.2000 0.6300 0.4000
v -0.2000 0.6300 0.4000
v -0.2000 0.6300 0.4000
vn -0.4318 0.8744 -0.2215
vn -0.1719 0.8404 -0.5139
vn 0.1719 0.8404 -0.5139
vn 0.4318 0.8744 -0.2215
vn 0.4318 0.8744 0.2215
vn 0.1719 0.8404 0.5139
vn -0.1719 0.8404 0.5139
vn -0.4318 0.8744 0.2215
vn -0.8501 0.2953 -0.4360
vn -0.8501 0.2953 -0.4360
vn -0.3066 0.2572 -0.9164
vn -0.3066 0.2572 -0.9164
vn 0.3066 0.2572 -0.9164
vn 0.3066 0.2572 -0.9164
vn 0.8501 0.2953 -0.4360
vn 0.8501 0.2953 -0.4360
vn 0.8501 0.2953 0.4360
vn 0.8501 0.2953 0.4360
vn 0.3066 0.2572 0.9164
vn 0.3066 0.2572 0.9164
vn -0.3066 0.2572 0.9164
vn -0.3066 0.2572 0.9164
vn -0.8501 0.2953 0.4360
vn -0.8501 0.2953 0.4360
vn -0.8501 -0.2953 -0.4360
vn -0.8501 -0.2953 -0.4360
vn -0.3066 -0.2572 -0.9164
vn -0.3066 -0.2572 -0.9164
vn 0.3066 -0.2572 -0.9164
vn 0.3066 -0.2572 -0.9164
vn 0.8501 -0.2953 -0.4360
vn 0.8501 -0.2953 -0.4360
vn 0.8501 -0.2953 0.4360
vn 0.8501 -0.2953 0.4360
vn 0.3066 -0.2572 0.9164
vn 0.3066 -0.2572 0.9164
vn -0.3066 -0.2572 0.9164
vn -0.3066 -0.2572 0.9164
vn -0.8501 -0.2953 0.4360
vn -0.8501 -0.2953 0.4360
vn -0.4318 -0.8744 -0.2215
vn -0.1719 -0.8404 -0.5139
vn 0.1719 -0.8404 -0.5139
vn 0.4318 -0.8744 -0.2215
vn 0.4318 -0.8744 0.2215
vn 0.1719 -0.8404 0.5139
vn -0.1719 -0.8404 0.5139
vn -0.4318 -0.8744 0.2215
vn -0.3780 0.9125 -0.1566
vn -0.1566 0.9125 -0.3780
vn 0.1566 0.9125 -0.3780
vn 0.3780 0.9125 -0.1566
vn 0.3780 0.9125 0.1566
vn 0.1566 0.9125 0.3780
vn -0.1566 0.9125 0.3780
vn -0.3780 0.9125 0.1566
vn -0.8629 0.3574 -0.3574
vn -0.8629 0.3574 -0.3574
vn -0.3574 0.3574 -0.8629
vn -0.3574 0.3574 -0.8629
vn 0.3574 0.3574 -0.8629
vn 0.3574 0.3574 -0.8629
vn 0.8629 0.3574 -0.3574
vn 0.8629 0.3574 -0.3574
vn 0.8629 0.3574 0.3574
vn 0.8629 0.3574 0.3574
vn 0.3574 0.3574 0.8629
vn 0.3574 0.3574 0.8629
vn -0.3574 0.3574 0.8629
vn -0.3574 0.3574 0.8629
vn -0.8629 0.3574 0.3574
vn -0.8629 0.3574 0.3574
vn -0.8629 -0.3574 -0.3574
vn -0.8629 -0.3574 -0.3574
vn -0.3574 -0.3574 -0.8629
vn -0.3574 -0.3574 -0.8629
vn 0.3574 -0.3574 -0.8629
vn 0.3574 -0.3574 -0.8629
vn 0.8629 -0.3574 -0.3574
vn 0.8629 -0.3574 -0.3574
vn 0.8629 -0.3574 0.3574
vn 0.8629 -0.3574 0.3574
vn 0.3574 -0.3574 0.8629
vn 0.3574 -0.3574 0.8629
vn -0.3574 -0.3574 0.8629
vn -0.3574 -0.3574 0.8629
vn -0.8629 -0.3574 0.3574
vn -0.8629 -0.3574 0.3574
vn -0.3780 -0.9125 -0.1566
vn -0.1566 -0.9125 -0.3780
vn 0.1566 -0.9125 -0.3780
vn 0.3780 -0.9125 -0.1566
vn 0.3780 -0.9125 0.1566
vn 0.1566 -0.9125 0.3780
vn -0.1566 -0.9125 0.3780
vn -0.3780 -0.9125 0.1566
vn -0.4804 0.8321 -0.2774
vn 0.0000 0.8321 -0.5547
vn 0.4804 0.8321 -0.2774
vn 0.4804 0.8321 0.2774
vn 0.0000 0.8321 0.5547
vn -0.4804 0.8321 0.2774
vn -0.8660 0.0000 -0.5000
vn -0.8660 0.0000 -0.5000
vn 0.0000 0.0000 -1.0000
vn -0.0000 0.0000 -1.0000
vn 0.8660 0.0000 -0.5000
vn 0.8660 0.0000 -0.5000
vn 0.8660 0.0000 0.5000
vn 0.8660 -0.0000 0.5000
vn 0.0000 0.0000 1.0000
vn 0.0000 0.0000 1.0000
vn -0.8660 0.0000 0.5000
vn -0.8660 0.0000 0.5000
vn -0.4804 -0.8321 -0.2774
vn -0.0000 -0.8321 -0.5547
vn 0.4804 -0.8321 -0.2774
vn 0.4804 -0.8321 0.2774
vn 0.0000 -0.8321 0.5547
vn -0.4804 -0.8321 0.2774
vn -0.9123 0.1238 -0.3904
vn -0.3583 0.5117 -0.7809
vn 0.1956 0.8996 -0.3904
vn 0.1956 0.8996 0.3904
vn -0.3583 0.5117 0.7809
vn -0.9123 0.1238 0.3904
vn -0.7094 -0.4967 -0.5000
vn -0.7094 -0.4967 -0.5000
vn -0.0000 0.0000 -1.0000
vn -0.0000 -0.0000 -1.0000
vn 0.7094 0.4967 -0.5000
vn 0.7094 0.4967 -0.5000
vn 0.7094 0.4967 0.5000
vn 0.7094 0.4967 0.5000
vn 0.0000 0.0000 1.0000
vn 0.0000 0.0000 1.0000
vn -0.7094 -0.4967 0.5000
vn -0.7094 -0.4967 0.5000
vn -0.1956 -0.8996 -0.3904
vn 0.3583 -0.5117 -0.7809
vn 0.9123 -0.1238 -0.3904
vn 0.9123 -0.1238 0.3904
vn 0.3583 -0.5117 0.7809
vn -0.1956 -0.8996 0.3904
vn -0.5603 0.7625 -0.3235
vn 0.0000 0.7625 -0.6470
vn 0.5603 0.7625 -0.3235
vn 0.5603 0.7625 0.3235
vn 0.0000 0.7625 0.6470
vn -0.5603 0.7625 0.3235
vn -0.8660 0.0000 -0.5000
vn -0.8660 0.0000 -0.5000
vn 0.0000 0.0000 -1.0000
vn -0.0000 0.0000 -1.0000
vn 0.8660 0.0000 -0.5000
vn 0.8660 0.0000 -0.5000
vn 0.8660 0.0000 0.5000
vn 0.8660 -0.0000 0.5000
vn 0.0000 0.0000 1.0000
vn 0.0000 0.0000 1.0000
vn -0.8660 0.0000 0.5000
vn -0.8660 0.0000 0.5000
vn -0.5603 -0.7625 -0.3235
vn -0.0000 -0.7625 -0.6470
vn 0.5603 -0.7625 -0.3235
vn 0.5603 -0.7625 0.3235
vn 0.0000 -0.7625 0.6470
vn -0.5603 -0.7625 0.3235
vn -0.5774 0.5774 -0.5774
vn 0.5774 0.5774 -0.5774
vn 0.5774 0.5774 0.5774
vn -0.5774 0.5774 0.5774
vn -0.5774 -0.5774 -0.5774
vn 0.5774 -0.5774 -0.5774
vn 0.5774 -0.5774 0.5774
vn -0.5774 -0.5774 0.5774
vn -0.4804 0.8321 -0.2774
vn 0.0000 0.8321 -0.5547
vn 0.4804 0.8321 -0.2774
vn 0.4804 0.8321 0.2774
vn 0.0000 0.8321 0.5547
vn -0.4804 0.8321 0.2774
vn -0.8660 0.0000 -0.5000
vn -0.8660 0.0000 -0.5000
vn 0.0000 0.0000 -1.0000
vn -0.0000 0.0000 -1.0000
vn 0.8660 0.0000 -0.5000
vn 0.8660 0.0000 -0.5000
vn 0.8660 0.0000 0.5000
vn 0.8660 -0.0000 0.5000
vn 0.0000 0.0000 1.0000
vn 0.0000 0.0000 1.0000
vn -0.8660 0.0000 0.5000
vn -0.8660 0.0000 0.5000
vn -0.4804 -0.8321 -0.2774
vn -0.0000 -0.8321 -0.5547
vn 0.4804 -0.8321 -0.2774
vn 0.4804 -0.8321 0.2774
vn 0.0000 -0.8321 0.5547
vn -0.4804 -0.8321 0.2774
vn -0.1956 0.8996 -0.3904
vn 0.3583 0.5117 -0.7809
vn 0.9123 0.1238 -0.3904
vn 0.9123 0.1238 0.3904
vn 0.3583 0.5117 0.7809
vn -0.1956 0.8996 0.3904
vn -0.7094 0.4967 -0.5000
vn -0.7094 0.4967 -0.5000
vn -0.0000 0.0000 -1.0000
vn -0.0000 0.0000 -1.0000
vn 0.7094 -0.4967 -0.5000
vn 0.7094 -0.4967 -0.5000
vn 0.7094 -0.4967 0.5000
vn 0.7094 -0.4967 0.5000
vn 0.0000 -0.0000 1.0000
vn 0.0000 -0.0000 1.0000
vn -0.7094 0.4967 0.5000
vn -0.7094 0.4967 0.5000
vn -0.9123 -0.1238 -0.3904
vn -0.3583 -0.5117 -0.7809
vn 0.1956 -0.8996 -0.3904
vn 0.1956 -0.8996 0.3904
vn -0.3583 -0.5117 0.7809
vn -0.9123 -0.1238 0.3904
vn -0.5603 0.7625 -0.3235
vn 0.0000 0.7625 -0.6470
vn 0.5603 0.7625 -0.3235
vn 0.5603 0.7625 0.3235
vn 0.0000 0.7625 0.6470
vn -0.5603 0.7625 0.3235
vn -0.8660 0.0000 -0.5000
vn -0.8660 0.0000 -0.5000
vn 0.0000 0.0000 -1.0000
vn -0.0000 0.0000 -1.0000
vn 0.8660 0.0000 -0.5000
vn 0.8660 0.0000 -0.5000
vn 0.8660 0.0000 0.5000
vn 0.8660 -0.0000 0.5000
vn 0.0000 0.0000 1.0000
vn 0.0000 0.0000 1.0000
vn -0.8660 0.0000 0.5000
vn -0.8660 0.0000 0.5000
vn -0.5603 -0.7625 -0.3235
vn -0.0000 -0.7625 -0.6470
vn 0.5603 -0.7625 -0.3235
vn 0.5603 -0.7625 0.3235
vn 0.0000 -0.7625 0.6470
vn -0.5603 -0.7625 0.3235
vn -0.5774 0.5774 -0.5774
vn 0.5774 0.5774 -0.5774
vn 0.5774 0.5774 0.5774
vn -0.5774 0.5774 0.5774
vn -0.5774 -0.5774 -0.5774
vn 0.5774 -0.5774 -0.5774
vn 0.5774 -0.5774 0.5774
vn -0.5774 -0.5774 0.5774
vn -0.3430 0.8911 -0.2970
vn 0.0000 0.8321 -0.5547
vn 0.3430 0.8911 -0.2970
vn 0.3430 0.8911 0.2970
vn 0.0000 0.8321 0.5547
vn -0.3430 0.8911 0.2970
vn -0.7559 0.0000 -0.6547
vn -0.7559 0.0000 -0.6547
vn 0.0000 0.0000 -1.0000
vn 0.0000 0.0000 -1.0000
vn 0.7559 0.0000 -0.6547
vn 0.7559 0.0000 -0.6547
vn 0.7559 0.0000 0.6547
vn 0.7559 0.0000 0.6547
vn 0.0000 0.0000 1.0000
vn 0.0000 0.0000 1.0000
vn -0.7559 0.0000 0.6547
vn -0.7559 0.0000 0.6547
vn -0.3430 -0.8911 -0.2970
vn -0.0000 -0.8321 -0.5547
vn 0.3430 -0.8911 -0.2970
vn 0.3430 -0.8911 0.2970
vn 0.0000 -0.8321 0.5547
vn -0.3430 -0.8911 0.2970
vn -0.3680 0.3642 -0.8555
vn 0.0977 0.2532 -0.9625
vn 0.7806 0.6250 -0.0000
vn 0.0977 0.2532 0.9625
vn -0.3680 0.3642 0.8555
vn -0.3951 0.0000 -0.9186
vn -0.3951 0.0000 -0.9186
vn 0.1010 0.0000 -0.9949
vn 0.1010 0.0000 -0.9949
vn 1.0000 0.0000 -0.0000
vn 1.0000 0.0000 0.0000
vn 0.1010 -0.0000 0.9949
vn 0.1010 -0.0000 0.9949
vn -0.3951 0.0000 0.9186
vn -0.3951 0.0000 0.9186
vn -0.3680 -0.3642 -0.8555
vn 0.0977 -0.2532 -0.9625
vn 0.7806 -0.6250 0.0000
vn 0.0977 -0.2532 0.9625
vn -0.3680 -0.3642 0.8555
usemtl c0
f 1//1 10//1 9//1
f 2//2 11//2 10//2
f 3//3 12//3 11//3
f 4//4 13//4 12//4
f 5//5 14//5 13//5
f 6//6 15//6 14//6
f 7//7 16//7 15//7
f 8//8 9//8 16//8
f 9//9 10//9 18//9
f 9//10 18//10 17//10
f 10//11 11//11 19//11
f 10//12 19//12 18//12
f 11//13 12//13 20//13
f 11//14 20//14 19//14
f 12//15 13//15 21//15
f 12//16 21//16 20//16
f 13//17 14//17 22//17
f 13//18 22//18 21//18
f 14//19 15//19 23//19
f 14//20 23//20 22//20
f 15//21 16//21 24//21
f 15//22 24//22 23//22
f 16//23 9//23 17//23
f 16//24 17//24 24//24
f 17//25 18//25 26//25
f 17//26 26//26 25//26
f 18//27 19//27 27//27
f 18//28 27//28 26//28
f 19//29 20//29 28//29
f 19//30 28//30 27//30
f 20//31 21//31 29//31
f 20//32 29//32 28//32
f 21//33 22//33 30//33
f 21//34 30//34 29//34
f 22//35 23//35 31//35
f 22//36 31//36 30//36
f 23//37 24//37 32//37
f 23//38 32//38 31//38
f 24//39 17//39 25//39
f 24//40 25//40 32//40
f 25//41 26//41 34//41
f 26//42 27//42 35//42
f 27//43 28//43 36//43
f 28//44 29//44 37//44
f 29//45 30//45 38//45
f 30//46 31//46 39//46
f 31//47 32//47 40//47
f 32//48 25//48 33//48
f 41//49 50//49 49//49
f 42//50 51//50 50//50
f 43//51 52//51 51//51
f 44//52 53//52 52//52
f 45//53 54//53 53//53
f 46//54 55//54 54//54
f 47//55 56//55 55//55
f 48//56 49//56 56//56
f 49//57 50//57 58//57
f 49//58 58//58 57//58
f 50//59 51//59 59//59
f 50//60 59//60 58//60
f 51//61 52//61 60//61
f 51//62 60//62 59//62
f 52//63 53//63 61//63
f 52//64 61//64 60//64
f 53//65 54//65 62//65
f 53//66 62//66 61//66
f 54//67 55//67 63//67
f 54//68 63//68 62//68
f 55//69 56//69 64//69
f 55//70 64//70 63//70
f 56//71 49//71 57//71
f 56//72 57//72 64//72
f 57//73 58//73 66//73
f 57//74 66//74 65//74
f 58//75 59//75 67//75
f 58//76 67//76 66//76
f 59//77 60//77 68//77
f 59//78 68//78 67//78
f 60//79 61//79 69//79
f 60//80 69//80 68//80
f 61//81 62//81 70//81
f 61//82 70//82 69//82
f 62//83 63//83 71//83
f 62//84 71//84 70//84
f 63//85 64//85 72//85
f 63//86 72//86 71//86
f 64//87 57//87 65//87
f 64//88 65//88 72//88
f 65//89 66//89 74//89
f 66//90 67//90 75//90
f 67//91 68//91 76//91
f 68//92 69//92 77//92
f 69//93 70//93 78//93
f 70//94 71//94 79//94
f 71//95 72//95 80//95
f 72//96 65//96 73//96
f 81//97 88//97 87//97
f 82//98 89//98 88//98
f 83//99 90//99 89//99
f 84//100 91//100 90//100
f 85//101 92//101 91//101
f 86//102 87//102 92//102
f 87//103 88//103 94//103
f 87//104 94//104 93//104
f 88//105 89//105 95//105
f 88//106 95//106 94//106
f 89//107 90//107 96//107
f 89//108 96//108 95//108
f 90//109 91//109 97//109
f 90//110 97//110 96//110
f 91//111 92//111 98//111
f 91//112 98//112 97//112
f 92//113 87//113 93//113
f 92//114 93//114 98//114
f 93//115 94//115 100//115
f 94//116 95//116 101//116
f 95//117 96//117 102//117
f 96//118 97//118 103//118
f 97//119 98//119 104//119
f 98//120 93//120 99//120
f 105//121 112//121 111//121
f 106//122 113//122 112//122
f 107//123 114//123 113//123
f 108//124 115//124 114//124
f 109//125 116//125 115//125
f 110//126 111//126 116//126
f 111//127 112//127 118//127
f 111//128 118//128 117//128
f 112//129 113//129 119//129
f 112//130 119//130 118//130
f 113//131 114//131 120//131
f 113//132 120//132 119//132
f 114//133 115//133 121//133
f 114//134 121//134 120//134
f 115//135 116//135 122//135
f 115//136 122//136 121//136
f 116//137 111//137 117//137
f 116//138 117//138 122//138
f 117//139 118//139 124//139
f 118//140 119//140 125//140
f 119//141 120//141 126//141
f 120//142 121//142 127//142
f 121//143 122//143 128//143
f 122//144 117//144 123//144
f 129//145 136//145 135//145
f 130//146 137//146 136//146
f 131//147 138//147 137//147
f 132//148 139//148 138//148
f 133//149 140//149 139//149
f 134//150 135//150 140//150
f 135//151 136//151 142//151
f 135//152 142//152 141//152
f 136//153 137//153 143//153
f 136//154 143//154 142//154
f 137//155 138//155 144//155
f 137//156 144//156 143//156
f 138//157 139//157 145//157
f 138//158 145//158 144//158
f 139//159 140//159 146//159
f 139//160 146//160 145//160
f 140//161 135//161 141//161
f 140//162 141//162 146//162
f 141//163 142//163 148//163
f 142//164 143//164 149//164
f 143//165 144//165 150//165
f 144//166 145//166 151//166
f 145//167 146//167 152//167
f 146//168 141//168 147//168
usemtl c1
f 153//169 158//169 157//169
f 154//170 159//170 158//170
f 155//171 160//171 159//171
f 156//172 157//172 160//172
f 157//173 158//173 162//173
f 158//174 159//174 163//174
f 159//175 160//175 164//175
f 160//176 157//176 161//176
usemtl c0
f 165//177 172//177 171//177
f 166//178 173//178 172//178
f 167//179 174//179 173//179
f 168//180 175//180 174//180
f 169//181 176//181 175//181
f 170//182 171//182 176//182
f 171//183 172//183 178//183
f 171//184 178//184 177//184
f 172//185 173//185 179//185
f 172//186 179//186 178//186
f 173//187 174//187 180//187
f 173//188 180//188 179//188
f 174//189 175//189 181//189
f 174//190 181//190 180//190
f 175//191 176//191 182//191
f 175//192 182//192 181//192
f 176//193 171//193 177//193
f 176//194 177//194 182//194
f 177//195 178//195 184//195
f 178//196 179//196 185//196
f 179//197 180//197 186//197
f 180//198 181//198 187//198
f 181//199 182//199 188//199
f 182//200 177//200 183//200
f 189//201 196//201 195//201
f 190//202 197//202 196//202
f 191//203 198//203 197//203
f 192//204 199//204 198//204
f 193//205 200//205 199//205
f 194//206 195//206 200//206
f 195//207 196//207 202//207
f 195//208 202//208 201//208
f 196//209 197//209 203//209
f 196//210 203//210 202//210
f 197//211 198//211 204//211
f 197//212 204//212 203//212
f 198//213 199//213 205//213
f 198//214 205//214 204//214
f 199//215 200//215 206//215
f 199//216 206//216 205//216
f 200//217 195//217 201//217
f 200//218 201//218 206//218
f 201//219 202//219 208//219
f 202//220 203//220 209//220
f 203//221 204//221 210//221
f 204//222 205//222 211//222
f 205//223 206//223 212//223
f 206//224 201//224 207//224
f 213//225 220//225 219//225
f 214//226 221//226 220//226
f 215//227 222//227 221//227
f 216//228 223//228 222//228
f 217//229 224//229 223//229
f 218//230 219//230 224//230
f 219//231 220//231 226//231
f 219//232 226//232 225//232
f 220//233 221//233 227//233
f 220//234 227//234 226//234
f 221//235 222//235 228//235
f 221//236 228//236 227//236
f 222//237 223//237 229//237
f 222//238 229//238 228//238
f 223//239 224//239 230//239
f 223//240 230//240 229//240
f 224//241 219//241 225//241
f 224//242 225//242 230//242
f 225//243 226//243 232//243
f 226//244 227//244 233//244
f 227//245 228//245 234//245
f 228//246 229//246 235//246
f 229//247 230//247 236//247
f 230//248 225//248 231//248
usemtl c1
f 237//249 242//249 241//249
f 238//250 243//250 242//250
f 239//251 244//251 243//251
f 240//252 241//252 244//252
f 241//253 242//253 246//253
f 242//254 243//254 247//254
f 243//255 244//255 248//255
f 244//256 241//256 245//256
usemtl c2
f 249//257 256//257 255//257
f 250//258 257//258 256//258
f 251//259 258//259 257//259
f 252//260 259//260 258//260
f 253//261 260//261 259//261
f 254//262 255//262 260//262
f 255//263 256//263 262//263
f 255//264 262//264 261//264
f 256//265 257//265 263//265
f 256//266 263//266 262//266
f 257//267 258//267 264//267
f 257//268 264//268 263//268
f 258//269 259//269 265//269
f 258//270 265//270 264//270
f 259//271 260//271 266//271
f 259//272 266//272 265//272
f 260//273 255//273 261//273
f 260//274 261//274 266//274
f 261//275 262//275 268//275
f 262//276 263//276 269//276
f 263//277 264//277 270//277
f 264//278 265//278 271//278
f 265//279 266//279 272//279
f 266//280 261//280 267//280
usemtl c3
f 273//281 279//281 278//281
f 274//282 280//282 279//282
f 275//283 281//283 280//283
f 276//284 282//284 281//284
f 277//285 278//285 282//285
f 278//286 279//286 284//286
f 278//287 284//287 283//287
f 279//288 280//288 285//288
f 279//289 285//289 284//289
f 280//290 281//290 286//290
f 280//291 286//291 285//291
f 281//292 282//292 287//292
f 281//293 287//293 286//293
f 282//294 278//294 283//294
f 282//295 283//295 287//295
f 283//296 284//296 289//296
f 284//297 285//297 290//297
f 285//298 286//298 291//298
f 286//299 287//299 292//299
f 287//300 283//300 288//300
