mtllib Food_Onion.mtl
v 0.0000 0.0000 0.0000
v 0.0000 0.0000 0.0000
v 0.0000 0.0000 0.0000
v 0.0000 0.0000 0.0000
v 0.0000 0.0000 0.0000
v 0.0000 0.0000 0.0000
v 0.0000 0.0000 0.0000
v 0.0000 0.0000 0.0000
v 0.5290 0.1528 0.0000
v 0.3741 0.1528 0.3741
v 0.0000 0.1528 0.5290
v -0.3741 0.1528 0.3741
v -0.5290 0.1528 0.0000
v -0.3741 0.1528 -0.3741
v -0.0000 0.1528 -0.5290
v 0.3741 0.1528 -0.3741
v 0.8560 0.5528 0.0000
v 0.6052 0.5528 0.6052
v 0.0000 0.5528 0.8560
v -0.6052 0.5528 0.6052
v -0.8560 0.5528 0.0000
v -0.6052 0.5528 -0.6052
v -0.0000 0.5528 -0.8560
v 0.6052 0.5528 -0.6052
v 0.8560 1.0472 0.0000
v 0.6052 1.0472 0.6052
v 0.0000 1.0472 0.8560
v -0.6052 1.0472 0.6052
v -0.8560 1.0472 0.0000
v -0.6052 1.0472 -0.6052
v -0.0000 1.0472 -0.8560
v 0.6052 1.0472 -0.6052
v 0.5290 1.4472 0.0000
v 0.3741 1.4472 0.3741
v 0.0000 1.4472 0.5290
v -0.3741 1.4472 0.3741
v -0.5290 1.4472 0.0000
v -0.3741 1.4472 -0.3741
v -0.0000 1.4472 -0.5290
v 0.3741 1.4472 -0.3741
v 0.0000 1.6000 0.0000
v 0.0000 1.6000 0.0000
v 0.0000 1.6000 0.0000
v -0.0000 1.6000 0.0000
v -0.0000 1.6000 0.0000
v -0.0000 1.6000 -0.0000
v -0.0000 1.6000 -0.0000
v 0.0000 1.6000 -0.0000
v 0.2800 1.3500 0.0000
v 0.1400 1.3500 0.2425
v -0.1400 1.3500 0.2425
v -0.2800 1.3500 0.0000
v -0.1400 1.3500 -0.2425
v 0.1400 1.3500 -0.2425
v 0.0000 1.9500 0.0000
v 0.0000 1.9500 0.0000
v 0.0000 1.9500 0.0000
v 0.0000 1.9500 0.0000
v 0.0000 1.9500 0.0000
v 0.0000 1.9500 0.0000
v 0.0000 1.3500 0.0000
v -0.1177 0.0765 0.0000
v -0.0364 0.0927 0.1141
v 0.0952 0.1190 0.0705
v 0.0952 0.1190 -0.0705
v -0.0364 0.0927 -0.1141
v -0.0677 -0.1735 0.0000
v 0.0136 -0.1573 0.1141
v 0.1452 -0.1310 0.0705
v 0.1452 -0.1310 -0.0705
v 0.0136 -0.1573 -0.1141
v 0.0000 0.1000 0.0000
v 0.0500 -0.1500 0.0000
vn -0.2757 0.9544 -0.1142
vn -0.1142 0.9544 -0.2757
vn 0.1142 0.9544 -0.2757
vn 0.2757 0.9544 -0.1142
vn 0.2757 0.9544 0.1142
vn 0.1142 0.9544 0.2757
vn -0.1142 0.9544 0.2757
vn -0.2757 0.9544 0.1142
vn -0.7373 0.6026 -0.3054
vn -0.7373 0.6026 -0.3054
vn -0.3054 0.6026 -0.7373
vn -0.3054 0.6026 -0.7373
vn 0.3054 0.6026 -0.7373
vn 0.3054 0.6026 -0.7373
vn 0.7373 0.6026 -0.3054
vn 0.7373 0.6026 -0.3054
vn 0.7373 0.6026 0.3054
vn 0.7373 0.6026 0.3054
vn 0.3054 0.6026 0.7373
vn 0.3054 0.6026 0.7373
vn -0.3054 0.6026 0.7373
vn -0.3054 0.6026 0.7373
vn -0.7373 0.6026 0.3054
vn -0.7373 0.6026 0.3054
vn -0.9239 0.0000 -0.3827
vn -0.9239 0.0000 -0.3827
vn -0.3827 0.0000 -0.9239
vn -0.3827 0.0000 -0.9239
vn 0.3827 0.0000 -0.9239
vn 0.3827 0.0000 -0.9239
vn 0.9239 0.0000 -0.3827
vn 0.9239 0.0000 -0.3827
vn 0.9239 0.0000 0.3827
vn 0.9239 0.0000 0.3827
vn 0.3827 0.0000 0.9239
vn 0.3827 -0.0000 0.9239
vn -0.3827 0.0000 0.9239
vn -0.3827 0.0000 0.9239
vn -0.9239 0.0000 0.3827
vn -0.9239 0.0000 0.3827
vn -0.7373 -0.6026 -0.3054
vn -0.7373 -0.6026 -0.3054
vn -0.3054 -0.6026 -0.7373
vn -0.3054 -0.6026 -0.7373
vn 0.3054 -0.6026 -0.7373
vn 0.3054 -0.6026 -0.7373
vn 0.7373 -0.6026 -0.3054
vn 0.7373 -0.6026 -0.3054
vn 0.7373 -0.6026 0.3054
vn 0.7373 -0.6026 0.3054
vn 0.3054 -0.6026 0.7373
vn 0.3054 -0.6026 0.7373
vn -0.3054 -0.6026 0.7373
vn -0.3054 -0.6026 0.7373
vn -0.7373 -0.6026 0.3054
vn -0.7373 -0.6026 0.3054
vn -0.2757 -0.9544 -0.1142
vn -0.1142 -0.9544 -0.2757
vn 0.1142 -0.9544 -0.2757
vn 0.2757 -0.9544 -0.1142
vn 0.2757 -0.9544 0.1142
vn 0.1142 -0.9544 0.2757
vn -0.1142 -0.9544 0.2757
vn -0.2757 -0.9544 0.1142
vn -0.8029 -0.3747 -0.4636
vn -0.0000 -0.3747 -0.9271
vn 0.8029 -0.3747 -0.4636
vn 0.8029 -0.3747 0.4636
vn 0.0000 -0.3747 0.9271
vn -0.8029 -0.3747 0.4636
vn 0.0000 -1.0000 0.0000
vn 0.0000 -1.0000 0.0000
vn 0.0000 -1.0000 0.0000
vn -0.0000 -1.0000 0.0000
vn 0.0000 -1.0000 -0.0000
vn 0.0000 -1.0000 0.0000
vn 0.7933 0.1587 -0.5878
vn 0.7933 0.1587 -0.5878
vn -0.3030 -0.0606 -0.9511
vn -0.3030 -0.0606 -0.9511
vn -0.9806 -0.1961 -0.0000
vn -0.9806 -0.1961 0.0000
vn -0.3030 -0.0606 0.9511
vn -0.3030 -0.0606 0.9511
vn 0.7933 0.1587 0.5878
vn 0.7933 0.1587 0.5878
vn -0.1961 0.9806 0.0000
vn -0.1961 0.9806 0.0000
vn -0.1961 0.9806 -0.0000
vn -0.1961 0.9806 0.0000
vn -0.1961 0.9806 0.0000
vn -0.1961 0.9806 0.0000
vn -0.1961 0.9806 0.0000
vn -0.1961 0.9806 0.0000
vn -0.1961 0.9806 0.0000
vn -0.1961 0.9806 0.0000
usemtl c0
f 1//1 10//1 9//1
f 2//2 11//2 10//2
f 3//3 12//3 11//3
f 4//4 13//4 12//4
f 5//5 14//5 13//5
f 6//6 15//6 14//6
f 7//7 16//7 15//7
f 8//8 9//8 16//8
f 9//9 10//9 18//9
f 9//10 18//10 17//10
f 10//11 11//11 19//11
f 10//12 19//12 18//12
f 11//13 12//13 20//13
f 11//14 20//14 19//14
f 12//15 13//15 21//15
f 12//16 21//16 20//16
f 13//17 14//17 22//17
f 13//18 22//18 21//18
f 14//19 15//19 23//19
f 14//20 23//20 22//20
f 15//21 16//21 24//21
f 15//22 24//22 23//22
f 16//23 9//23 17//23
f 16//24 17//24 24//24
f 17//25 18//25 26//25
f 17//26 26//26 25//26
f 18//27 19//27 27//27
f 18//28 27//28 26//28
f 19//29 20//29 28//29
f 19//30 28//30 27//30
f 20//31 21//31 29//31
f 20//32 29//32 28//32
f 21//33 22//33 30//33
f 21//34 30//34 29//34
f 22//35 23//35 31//35
f 22//36 31//36 30//36
f 23//37 24//37 32//37
f 23//38 32//38 31//38
f 24//39 17//39 25//39
f 24//40 25//40 32//40
f 25//41 26//41 34//41
f 25//42 34//42 33//42
f 26//43 27//43 35//43
f 26//44 35//44 34//44
f 27//45 28//45 36//45
f 27//46 36//46 35//46
f 28//47 29//47 37//47
f 28//48 37//48 36//48
f 29//49 30//49 38//49
f 29//50 38//50 37//50
f 30//51 31//51 39//51
f 30//52 39//52 38//52
f 31//53 32//53 40//53
f 31//54 40//54 39//54
f 32//55 25//55 33//55
f 32//56 33//56 40//56
f 33//57 34//57 42//57
f 34//58 35//58 43//58
f 35//59 36//59 44//59
f 36//60 37//60 45//60
f 37//61 38//61 46//61
f 38//62 39//62 47//62
f 39//63 40//63 48//63
f 40//64 33//64 41//64
usemtl c1
f 49//65 50//65 56//65
f 50//66 51//66 57//66
f 51//67 52//67 58//67
f 52//68 53//68 59//68
f 53//69 54//69 60//69
f 54//70 49//70 55//70
f 61//71 49//71 50//71
f 61//72 50//72 51//72
f 61//73 51//73 52//73
f 61//74 52//74 53//74
f 61//75 53//75 54//75
f 61//76 54//76 49//76
usemtl c2
f 62//77 63//77 68//77
f 62//78 68//78 67//78
f 63//79 64//79 69//79
f 63//80 69//80 68//80
f 64//81 65//81 70//81
f 64//82 70//82 69//82
f 65//83 66//83 71//83
f 65//84 71//84 70//84
f 66//85 62//85 67//85
f 66//86 67//86 71//86
f 72//87 62//87 63//87
f 72//88 63//88 64//88
f 72//89 64//89 65//89
f 72//90 65//90 66//90
f 72//91 66//91 62//91
f 73//92 67//92 68//92
f 73//93 68//93 69//93
f 73//94 69//94 70//94
f 73//95 70//95 71//95
f 73//96 71//96 67//96
