mtllib Food_Fish.mtl
v -1.0500 0.0000 0.0000
v -1.0500 0.0000 0.0000
v -1.0500 0.0000 0.0000
v -1.0500 0.0000 0.0000
v -1.0500 0.0000 0.0000
v -1.0500 0.0000 0.0000
v -1.0500 0.0000 0.0000
v -1.0500 0.0000 0.0000
v -0.7875 0.2922 0.0000
v -0.7875 0.2066 0.1192
v -0.7875 0.0000 0.1686
v -0.7875 -0.2066 0.1192
v -0.7875 -0.2922 0.0000
v -0.7875 -0.2066 -0.1192
v -0.7875 -0.0000 -0.1686
v -0.7875 0.2066 -0.1192
v -0.5250 0.4224 0.0000
v -0.5250 0.2987 0.1723
v -0.5250 0.0000 0.2437
v -0.5250 -0.2987 0.1723
v -0.5250 -0.4224 0.0000
v -0.5250 -0.2987 -0.1723
v -0.5250 -0.0000 -0.2437
v -0.5250 0.2987 -0.1723
v -0.2625 0.4959 0.0000
v -0.2625 0.3506 0.2023
v -0.2625 0.0000 0.2861
v -0.2625 -0.3506 0.2023
v -0.2625 -0.4959 0.0000
v -0.2625 -0.3506 -0.2023
v -0.2625 -0.0000 -0.2861
v -0.2625 0.3506 -0.2023
v 0.0000 0.5200 0.0000
v 0.0000 0.3677 0.2121
v 0.0000 0.0000 0.3000
v 0.0000 -0.3677 0.2121
v 0.0000 -0.5200 0.0000
v 0.0000 -0.3677 -0.2121
v 0.0000 -0.0000 -0.3000
v 0.0000 0.3677 -0.2121
v 0.2625 0.4959 0.0000
v 0.2625 0.3506 0.2023
v 0.2625 0.0000 0.2861
v 0.2625 -0.3506 0.2023
v 0.2625 -0.4959 0.0000
v 0.2625 -0.3506 -0.2023
v 0.2625 -0.0000 -0.2861
v 0.2625 0.3506 -0.2023
v 0.5250 0.4224 0.0000
v 0.5250 0.2987 0.1723
v 0.5250 0.0000 0.2437
v 0.5250 -0.2987 0.1723
v 0.5250 -0.4224 0.0000
v 0.5250 -0.2987 -0.1723
v 0.5250 -0.0000 -0.2437
v 0.5250 0.2987 -0.1723
v 0.7875 0.2922 0.0000
v 0.7875 0.2066 0.1192
v 0.7875 0.0000 0.1686
v 0.7875 -0.2066 0.1192
v 0.7875 -0.2922 0.0000
v 0.7875 -0.2066 -0.1192
v 0.7875 -0.0000 -0.1686
v 0.7875 0.2066 -0.1192
v 1.0500 0.0000 0.0000
v 1.0500 0.0000 0.0000
v 1.0500 0.0000 0.0000
v 1.0500 -0.0000 0.0000
v 1.0500 -0.0000 0.0000
v 1.0500 -0.0000 -0.0000
v 1.0500 -0.0000 -0.0000
v 1.0500 0.0000 -0.0000
v 0.8500 0.0000 -0.0350
v 1.4500 0.5500 -0.0350
v 1.4500 -0.5500 -0.0350
v 0.8500 0.0000 0.0350
v 1.4500 0.5500 0.0350
v 1.4500 -0.5500 0.0350
v 1.2500 0.0000 -0.0350
v 1.2500 0.0000 0.0350
v -0.3500 0.4800 -0.0300
v 0.2500 0.4800 -0.0300
v -0.0500 0.9800 -0.0300
v -0.3500 0.4800 0.0300
v 0.2500 0.4800 0.0300
v -0.0500 0.9800 0.0300
v -0.0500 0.6467 -0.0300
v -0.0500 0.6467 0.0300
v -0.7500 -0.1800 0.0000
v -0.7500 -0.1800 0.0000
v -0.7500 -0.1800 0.0000
v -0.7500 -0.1800 0.0000
v -0.7500 -0.1800 0.0000
v -0.7500 -0.1800 0.0000
v -0.4900 -0.0491 0.0000
v -0.4900 -0.1146 0.1637
v -0.4900 -0.2454 0.1637
v -0.4900 -0.3109 0.0000
v -0.4900 -0.2454 -0.1637
v -0.4900 -0.1146 -0.1637
v -0.2300 -0.0053 0.0000
v -0.2300 -0.0927 0.2185
v -0.2300 -0.2673 0.2185
v -0.2300 -0.3547 0.0000
v -0.2300 -0.2673 -0.2185
v -0.2300 -0.0927 -0.2185
v 0.0300 -0.0053 0.0000
v 0.0300 -0.0927 0.2185
v 0.0300 -0.2673 0.2185
v 0.0300 -0.3547 0.0000
v 0.0300 -0.2673 -0.2185
v 0.0300 -0.0927 -0.2185
v 0.2900 -0.0491 0.0000
v 0.2900 -0.1146 0.1637
v 0.2900 -0.2454 0.1637
v 0.2900 -0.3109 0.0000
v 0.2900 -0.2454 -0.1637
v 0.2900 -0.1146 -0.1637
v 0.5500 -0.1800 0.0000
v 0.5500 -0.1800 0.0000
v 0.5500 -0.1800 0.0000
v 0.5500 -0.1800 0.0000
v 0.5500 -0.1800 -0.0000
v 0.5500 -0.1800 -0.0000
v -0.7000 0.0500 -0.2700
v -0.7000 0.0500 -0.2700
v -0.7000 0.0500 -0.2700
v -0.7000 0.0500 -0.2700
v -0.7000 0.0500 -0.2700
v -0.6394 0.0850 -0.2700
v -0.6813 0.0850 -0.2123
v -0.7490 0.0850 -0.2344
v -0.7490 0.0850 -0.3056
v -0.6813 0.0850 -0.3277
v -0.6394 0.1550 -0.2700
v -0.6813 0.1550 -0.2123
v -0.7490 0.1550 -0.2344
v -0.7490 0.1550 -0.3056
v -0.6813 0.1550 -0.3277
v -0.7000 0.1900 -0.2700
v -0.7000 0.1900 -0.2700
v -0.7000 0.1900 -0.2700
v -0.7000 0.1900 -0.2700
v -0.7000 0.1900 -0.2700
v -0.7000 0.0500 0.2700
v -0.7000 0.0500 0.2700
v -0.7000 0.0500 0.2700
v -0.7000 0.0500 0.2700
v -0.7000 0.0500 0.2700
v -0.6394 0.0850 0.2700
v -0.6813 0.0850 0.3277
v -0.7490 0.0850 0.3056
v -0.7490 0.0850 0.2344
v -0.6813 0.0850 0.2123
v -0.6394 0.1550 0.2700
v -0.6813 0.1550 0.3277
v -0.7490 0.1550 0.3056
v -0.7490 0.1550 0.2344
v -0.6813 0.1550 0.2123
v -0.7000 0.1900 0.2700
v -0.7000 0.1900 0.2700
v -0.7000 0.1900 0.2700
v -0.7000 0.1900 0.2700
v -0.7000 0.1900 0.2700
vn -0.6707 0.6025 0.4326
vn -0.5298 0.1971 0.8249
vn -0.5298 -0.1971 0.8249
vn -0.6707 -0.6025 0.4326
vn -0.6707 -0.6025 -0.4326
vn -0.5298 -0.1971 -0.8249
vn -0.5298 0.1971 -0.8249
vn -0.6707 0.6025 -0.4326
vn -0.3736 0.7535 0.5410
vn -0.3736 0.7535 0.5410
vn -0.2680 0.2239 0.9370
vn -0.2680 0.2239 0.9370
vn -0.2680 -0.2239 0.9370
vn -0.2680 -0.2239 0.9370
vn -0.3736 -0.7535 0.5410
vn -0.3736 -0.7535 0.5410
vn -0.3736 -0.7535 -0.5410
vn -0.3736 -0.7535 -0.5410
vn -0.2680 -0.2239 -0.9370
vn -0.2680 -0.2239 -0.9370
vn -0.2680 0.2239 -0.9370
vn -0.2680 0.2239 -0.9370
vn -0.3736 0.7535 -0.5410
vn -0.3736 0.7535 -0.5410
vn -0.2218 0.7921 0.5687
vn -0.2218 0.7921 0.5687
vn -0.1552 0.2296 0.9608
vn -0.1552 0.2296 0.9608
vn -0.1552 -0.2296 0.9608
vn -0.1552 -0.2296 0.9608
vn -0.2218 -0.7921 0.5687
vn -0.2218 -0.7921 0.5687
vn -0.2218 -0.7921 -0.5687
vn -0.2218 -0.7921 -0.5687
vn -0.1552 -0.2296 -0.9608
vn -0.1552 -0.2296 -0.9608
vn -0.1552 0.2296 -0.9608
vn -0.1552 0.2296 -0.9608
vn -0.2218 0.7921 -0.5687
vn -0.2218 0.7921 -0.5687
vn -0.0744 0.8101 0.5816
vn -0.0744 0.8101 0.5816
vn -0.0515 0.2321 0.9713
vn -0.0515 0.2321 0.9713
vn -0.0515 -0.2321 0.9713
vn -0.0515 -0.2321 0.9713
vn -0.0744 -0.8101 0.5816
vn -0.0744 -0.8101 0.5816
vn -0.0744 -0.8101 -0.5816
vn -0.0744 -0.8101 -0.5816
vn -0.0515 -0.2321 -0.9713
vn -0.0515 -0.2321 -0.9713
vn -0.0515 0.2321 -0.9713
vn -0.0515 0.2321 -0.9713
vn -0.0744 0.8101 -0.5816
vn -0.0744 0.8101 -0.5816
vn 0.0744 0.8101 0.5816
vn 0.0744 0.8101 0.5816
vn 0.0515 0.2321 0.9713
vn 0.0515 0.2321 0.9713
vn 0.0515 -0.2321 0.9713
vn 0.0515 -0.2321 0.9713
vn 0.0744 -0.8101 0.5816
vn 0.0744 -0.8101 0.5816
vn 0.0744 -0.8101 -0.5816
vn 0.0744 -0.8101 -0.5816
vn 0.0515 -0.2321 -0.9713
vn 0.0515 -0.2321 -0.9713
vn 0.0515 0.2321 -0.9713
vn 0.0515 0.2321 -0.9713
vn 0.0744 0.8101 -0.5816
vn 0.0744 0.8101 -0.5816
vn 0.2218 0.7921 0.5687
vn 0.2218 0.7921 0.5687
vn 0.1552 0.2296 0.9608
vn 0.1552 0.2296 0.9608
vn 0.1552 -0.2296 0.9608
vn 0.1552 -0.2296 0.9608
vn 0.2218 -0.7921 0.5687
vn 0.2218 -0.7921 0.5687
vn 0.2218 -0.7921 -0.5687
vn 0.2218 -0.7921 -0.5687
vn 0.1552 -0.2296 -0.9608
vn 0.1552 -0.2296 -0.9608
vn 0.1552 0.2296 -0.9608
vn 0.1552 0.2296 -0.9608
vn 0.2218 0.7921 -0.5687
vn 0.2218 0.7921 -0.5687
vn 0.3736 0.7535 0.5410
vn 0.3736 0.7535 0.5410
vn 0.2680 0.2239 0.9370
vn 0.2680 0.2239 0.9370
vn 0.2680 -0.2239 0.9370
vn 0.2680 -0.2239 0.9370
vn 0.3736 -0.7535 0.5410
vn 0.3736 -0.7535 0.5410
vn 0.3736 -0.7535 -0.5410
vn 0.3736 -0.7535 -0.5410
vn 0.2680 -0.2239 -0.9370
vn 0.2680 -0.2239 -0.9370
vn 0.2680 0.2239 -0.9370
vn 0.2680 0.2239 -0.9370
vn 0.3736 0.7535 -0.5410
vn 0.3736 0.7535 -0.5410
vn 0.6707 0.6025 0.4326
vn 0.5298 0.1971 0.8249
vn 0.5298 -0.1971 0.8249
vn 0.6707 -0.6025 0.4326
vn 0.6707 -0.6025 -0.4326
vn 0.5298 -0.1971 -0.8249
vn 0.5298 0.1971 -0.8249
vn 0.6707 0.6025 -0.4326
vn 0.6757 -0.7372 0.0000
vn 0.6757 -0.7372 0.0000
vn 0.0000 -0.0000 1.0000
vn 0.0000 0.0000 -1.0000
vn -1.0000 0.0000 0.0000
vn -1.0000 0.0000 0.0000
vn -0.0000 0.0000 1.0000
vn 0.0000 0.0000 -1.0000
vn 0.6757 0.7372 0.0000
vn 0.6757 0.7372 -0.0000
vn 0.0000 0.0000 1.0000
vn -0.0000 -0.0000 -1.0000
vn 0.0000 -1.0000 0.0000
vn 0.0000 -1.0000 0.0000
vn 0.0000 -0.0000 -1.0000
vn 0.0000 0.0000 1.0000
vn 0.8575 0.5145 0.0000
vn 0.8575 0.5145 -0.0000
vn 0.0000 0.0000 -1.0000
vn -0.0000 0.0000 1.0000
vn -0.8575 0.5145 0.0000
vn -0.8575 0.5145 0.0000
vn -0.0000 0.0000 -1.0000
vn 0.0000 -0.0000 1.0000
vn -0.4234 0.8412 0.3362
vn -0.5328 0.0000 0.8462
vn -0.4234 -0.8412 0.3362
vn -0.4234 -0.8412 -0.3362
vn -0.5328 -0.0000 -0.8462
vn -0.4234 0.8412 -0.3362
vn -0.1546 0.9174 0.3667
vn -0.1546 0.9174 0.3667
vn -0.2062 0.0000 0.9785
vn -0.2062 0.0000 0.9785
vn -0.1546 -0.9174 0.3667
vn -0.1546 -0.9174 0.3667
vn -0.1546 -0.9174 -0.3667
vn -0.1546 -0.9174 -0.3667
vn -0.2062 -0.0000 -0.9785
vn -0.2062 -0.0000 -0.9785
vn -0.1546 0.9174 -0.3667
vn -0.1546 0.9174 -0.3667
vn 0.0000 0.9286 0.3712
vn -0.0000 0.9286 0.3712
vn 0.0000 0.0000 1.0000
vn -0.0000 0.0000 1.0000
vn 0.0000 -0.9286 0.3712
vn 0.0000 -0.9286 0.3712
vn 0.0000 -0.9286 -0.3712
vn 0.0000 -0.9286 -0.3712
vn 0.0000 -0.0000 -1.0000
vn 0.0000 -0.0000 -1.0000
vn 0.0000 0.9286 -0.3712
vn 0.0000 0.9286 -0.3712
vn 0.1546 0.9174 0.3667
vn 0.1546 0.9174 0.3667
vn 0.2062 0.0000 0.9785
vn 0.2062 0.0000 0.9785
vn 0.1546 -0.9174 0.3667
vn 0.1546 -0.9174 0.3667
vn 0.1546 -0.9174 -0.3667
vn 0.1546 -0.9174 -0.3667
vn 0.2062 -0.0000 -0.9785
vn 0.2062 -0.0000 -0.9785
vn 0.1546 0.9174 -0.3667
vn 0.1546 0.9174 -0.3667
vn 0.4234 0.8412 0.3362
vn 0.5328 0.0000 0.8462
vn 0.4234 -0.8412 0.3362
vn 0.4234 -0.8412 -0.3362
vn 0.5328 -0.0000 -0.8462
vn 0.4234 0.8412 -0.3362
vn -0.4700 0.8140 -0.3414
vn 0.1795 0.8140 -0.5525
vn 0.5809 0.8140 0.0000
vn 0.1795 0.8140 0.5525
vn -0.4700 0.8140 0.3414
vn -0.8090 0.0000 -0.5878
vn -0.8090 0.0000 -0.5878
vn 0.3090 0.0000 -0.9511
vn 0.3090 0.0000 -0.9511
vn 1.0000 0.0000 0.0000
vn 1.0000 -0.0000 0.0000
vn 0.3090 0.0000 0.9511
vn 0.3090 -0.0000 0.9511
vn -0.8090 0.0000 0.5878
vn -0.8090 0.0000 0.5878
vn -0.4700 -0.8140 -0.3414
vn 0.1795 -0.8140 -0.5525
vn 0.5809 -0.8140 0.0000
vn 0.1795 -0.8140 0.5525
vn -0.4700 -0.8140 0.3414
vn -0.4700 0.8140 -0.3414
vn 0.1795 0.8140 -0.5525
vn 0.5809 0.8140 0.0000
vn 0.1795 0.8140 0.5525
vn -0.4700 0.8140 0.3414
vn -0.8090 0.0000 -0.5878
vn -0.8090 0.0000 -0.5878
vn 0.3090 0.0000 -0.9511
vn 0.3090 0.0000 -0.9511
vn 1.0000 0.0000 0.0000
vn 1.0000 -0.0000 0.0000
vn 0.3090 0.0000 0.9511
vn 0.3090 0.0000 0.9511
vn -0.8090 0.0000 0.5878
vn -0.8090 0.0000 0.5878
vn -0.4700 -0.8140 -0.3414
vn 0.1795 -0.8140 -0.5525
vn 0.5809 -0.8140 0.0000
vn 0.1795 -0.8140 0.5525
vn -0.4700 -0.8140 0.3414
usemtl c0
f 1//1 10//1 9//1
f 2//2 11//2 10//2
f 3//3 12//3 11//3
f 4//4 13//4 12//4
f 5//5 14//5 13//5
f 6//6 15//6 14//6
f 7//7 16//7 15//7
f 8//8 9//8 16//8
f 9//9 10//9 18//9
f 9//10 18//10 17//10
f 10//11 11//11 19//11
f 10//12 19//12 18//12
f 11//13 12//13 20//13
f 11//14 20//14 19//14
f 12//15 13//15 21//15
f 12//16 21//16 20//16
f 13//17 14//17 22//17
f 13//18 22//18 21//18
f 14//19 15//19 23//19
f 14//20 23//20 22//20
f 15//21 16//21 24//21
f 15//22 24//22 23//22
f 16//23 9//23 17//23
f 16//24 17//24 24//24
f 17//25 18//25 26//25
f 17//26 26//26 25//26
f 18//27 19//27 27//27
f 18//28 27//28 26//28
f 19//29 20//29 28//29
f 19//30 28//30 27//30
f 20//31 21//31 29//31
f 20//32 29//32 28//32
f 21//33 22//33 30//33
f 21//34 30//34 29//34
f 22//35 23//35 31//35
f 22//36 31//36 30//36
f 23//37 24//37 32//37
f 23//38 32//38 31//38
f 24//39 17//39 25//39
f 24//40 25//40 32//40
f 25//41 26//41 34//41
f 25//42 34//42 33//42
f 26//43 27//43 35//43
f 26//44 35//44 34//44
f 27//45 28//45 36//45
f 27//46 36//46 35//46
f 28//47 29//47 37//47
f 28//48 37//48 36//48
f 29//49 30//49 38//49
f 29//50 38//50 37//50
f 30//51 31//51 39//51
f 30//52 39//52 38//52
f 31//53 32//53 40//53
f 31//54 40//54 39//54
f 32//55 25//55 33//55
f 32//56 33//56 40//56
f 33//57 34//57 42//57
f 33//58 42//58 41//58
f 34//59 35//59 43//59
f 34//60 43//60 42//60
f 35//61 36//61 44//61
f 35//62 44//62 43//62
f 36//63 37//63 45//63
f 36//64 45//64 44//64
f 37//65 38//65 46//65
f 37//66 46//66 45//66
f 38//67 39//67 47//67
f 38//68 47//68 46//68
f 39//69 40//69 48//69
f 39//70 48//70 47//70
f 40//71 33//71 41//71
f 40//72 41//72 48//72
f 41//73 42//73 50//73
f 41//74 50//74 49//74
f 42//75 43//75 51//75
f 42//76 51//76 50//76
f 43//77 44//77 52//77
f 43//78 52//78 51//78
f 44//79 45//79 53//79
f 44//80 53//80 52//80
f 45//81 46//81 54//81
f 45//82 54//82 53//82
f 46//83 47//83 55//83
f 46//84 55//84 54//84
f 47//85 48//85 56//85
f 47//86 56//86 55//86
f 48//87 41//87 49//87
f 48//88 49//88 56//88
f 49//89 50//89 58//89
f 49//90 58//90 57//90
f 50//91 51//91 59//91
f 50//92 59//92 58//92
f 51//93 52//93 60//93
f 51//94 60//94 59//94
f 52//95 53//95 61//95
f 52//96 61//96 60//96
f 53//97 54//97 62//97
f 53//98 62//98 61//98
f 54//99 55//99 63//99
f 54//100 63//100 62//100
f 55//101 56//101 64//101
f 55//102 64//102 63//102
f 56//103 49//103 57//103
f 56//104 57//104 64//104
f 57//105 58//105 66//105
f 58//106 59//106 67//106
f 59//107 60//107 68//107
f 60//108 61//108 69//108
f 61//109 62//109 70//109
f 62//110 63//110 71//110
f 63//111 64//111 72//111
f 64//112 57//112 65//112
usemtl c1
f 73//113 74//113 77//113
f 73//114 77//114 76//114
f 79//115 74//115 73//115
f 80//116 76//116 77//116
f 74//117 75//117 78//117
f 74//118 78//118 77//118
f 79//119 75//119 74//119
f 80//120 77//120 78//120
f 75//121 73//121 76//121
f 75//122 76//122 78//122
f 79//123 73//123 75//123
f 80//124 78//124 76//124
f 81//125 82//125 85//125
f 81//126 85//126 84//126
f 87//127 82//127 81//127
f 88//128 84//128 85//128
f 82//129 83//129 86//129
f 82//130 86//130 85//130
f 87//131 83//131 82//131
f 88//132 85//132 86//132
f 83//133 81//133 84//133
f 83//134 84//134 86//134
f 87//135 81//135 83//135
f 88//136 86//136 84//136
usemtl c2
f 89//137 96//137 95//137
f 90//138 97//138 96//138
f 91//139 98//139 97//139
f 92//140 99//140 98//140
f 93//141 100//141 99//141
f 94//142 95//142 100//142
f 95//143 96//143 102//143
f 95//144 102//144 101//144
f 96//145 97//145 103//145
f 96//146 103//146 102//146
f 97//147 98//147 104//147
f 97//148 104//148 103//148
f 98//149 99//149 105//149
f 98//150 105//150 104//150
f 99//151 100//151 106//151
f 99//152 106//152 105//152
f 100//153 95//153 101//153
f 100//154 101//154 106//154
f 101//155 102//155 108//155
f 101//156 108//156 107//156
f 102//157 103//157 109//157
f 102//158 109//158 108//158
f 103//159 104//159 110//159
f 103//160 110//160 109//160
f 104//161 105//161 111//161
f 104//162 111//162 110//162
f 105//163 106//163 112//163
f 105//164 112//164 111//164
f 106//165 101//165 107//165
f 106//166 107//166 112//166
f 107//167 108//167 114//167
f 107//168 114//168 113//168
f 108//169 109//169 115//169
f 108//170 115//170 114//170
f 109//171 110//171 116//171
f 109//172 116//172 115//172
f 110//173 111//173 117//173
f 110//174 117//174 116//174
f 111//175 112//175 118//175
f 111//176 118//176 117//176
f 112//177 107//177 113//177
f 112//178 113//178 118//178
f 113//179 114//179 120//179
f 114//180 115//180 121//180
f 115//181 116//181 122//181
f 116//182 117//182 123//182
f 117//183 118//183 124//183
f 118//184 113//184 119//184
usemtl c3
f 125//185 131//185 130//185
f 126//186 132//186 131//186
f 127//187 133//187 132//187
f 128//188 134//188 133//188
f 129//189 130//189 134//189
f 130//190 131//190 136//190
f 130//191 136//191 135//191
f 131//192 132//192 137//192
f 131//193 137//193 136//193
f 132//194 133//194 138//194
f 132//195 138//195 137//195
f 133//196 134//196 139//196
f 133//197 139//197 138//197
f 134//198 130//198 135//198
f 134//199 135//199 139//199
f 135//200 136//200 141//200
f 136//201 137//201 142//201
f 137//202 138//202 143//202
f 138//203 139//203 144//203
f 139//204 135//204 140//204
f 145//205 151//205 150//205
f 146//206 152//206 151//206
f 147//207 153//207 152//207
f 148//208 154//208 153//208
f 149//209 150//209 154//209
f 150//210 151//210 156//210
f 150//211 156//211 155//211
f 151//212 152//212 157//212
f 151//213 157//213 156//213
f 152//214 153//214 158//214
f 152//215 158//215 157//215
f 153//216 154//216 159//216
f 153//217 159//217 158//217
f 154//218 150//218 155//218
f 154//219 155//219 159//219
f 155//220 156//220 161//220
f 156//221 157//221 162//221
f 157//222 158//222 163//222
f 158//223 159//223 164//223
f 159//224 155//224 160//224
