mtllib Food_Cheese.mtl
v -1.0000 0.0000 0.0000
v 1.0000 0.0000 -0.7500
v 1.0000 0.0000 0.7500
v -1.0000 0.6000 0.0000
v 1.0000 0.6000 -0.7500
v 1.0000 0.6000 0.7500
v 0.3333 0.0000 0.0000
v 0.3333 0.6000 0.0000
v 0.4200 0.6000 0.0000
v 0.3600 0.6000 0.1039
v 0.2400 0.6000 0.1039
v 0.1800 0.6000 0.0000
v 0.2400 0.6000 -0.1039
v 0.3600 0.6000 -0.1039
v 0.4200 0.6200 0.0000
v 0.3600 0.6200 0.1039
v 0.2400 0.6200 0.1039
v 0.1800 0.6200 0.0000
v 0.2400 0.6200 -0.1039
v 0.3600 0.6200 -0.1039
v 0.3000 0.6000 0.0000
v 0.3000 0.6200 0.0000
v -0.1800 0.6000 0.0000
v -0.2400 0.6000 0.1039
v -0.3600 0.6000 0.1039
v -0.4200 0.6000 0.0000
v -0.3600 0.6000 -0.1039
v -0.2400 0.6000 -0.1039
v -0.1800 0.6200 0.0000
v -0.2400 0.6200 0.1039
v -0.3600 0.6200 0.1039
v -0.4200 0.6200 0.0000
v -0.3600 0.6200 -0.1039
v -0.2400 0.6200 -0.1039
v -0.3000 0.6000 0.0000
v -0.3000 0.6200 0.0000
v 0.7200 0.6000 0.3000
v 0.6600 0.6000 0.4039
v 0.5400 0.6000 0.4039
v 0.4800 0.6000 0.3000
v 0.5400 0.6000 0.1961
v 0.6600 0.6000 0.1961
v 0.7200 0.6200 0.3000
v 0.6600 0.6200 0.4039
v 0.5400 0.6200 0.4039
v 0.4800 0.6200 0.3000
v 0.5400 0.6200 0.1961
v 0.6600 0.6200 0.1961
v 0.6000 0.6000 0.3000
v 0.6000 0.6200 0.3000
v 0.7700 0.6000 -0.3500
v 0.7100 0.6000 -0.2461
v 0.5900 0.6000 -0.2461
v 0.5300 0.6000 -0.3500
v 0.5900 0.6000 -0.4539
v 0.7100 0.6000 -0.4539
v 0.7700 0.6200 -0.3500
v 0.7100 0.6200 -0.2461
v 0.5900 0.6200 -0.2461
v 0.5300 0.6200 -0.3500
v 0.5900 0.6200 -0.4539
v 0.7100 0.6200 -0.4539
v 0.6500 0.6000 -0.3500
v 0.6500 0.6200 -0.3500
v 1.0000 0.1700 0.0000
v 1.0000 0.1700 0.0000
v 1.0000 0.1700 0.0000
v 1.0000 0.1700 0.0000
v 1.0000 0.1700 0.0000
v 1.0000 0.1700 0.0000
v 1.0260 0.2350 0.0000
v 1.0130 0.2350 0.0975
v 0.9870 0.2350 0.0975
v 0.9740 0.2350 0.0000
v 0.9870 0.2350 -0.0975
v 1.0130 0.2350 -0.0975
v 1.0260 0.3650 0.0000
v 1.0130 0.3650 0.0975
v 0.9870 0.3650 0.0975
v 0.9740 0.3650 0.0000
v 0.9870 0.3650 -0.0975
v 1.0130 0.3650 -0.0975
v 1.0000 0.4300 0.0000
v 1.0000 0.4300 0.0000
v 1.0000 0.4300 0.0000
v 1.0000 0.4300 0.0000
v 1.0000 0.4300 -0.0000
v 1.0000 0.4300 -0.0000
v 0.8500 0.3200 -0.3500
v 0.8500 0.3200 -0.3500
v 0.8500 0.3200 -0.3500
v 0.8500 0.3200 -0.3500
v 0.8500 0.3200 -0.3500
v 0.8500 0.3200 -0.3500
v 0.8760 0.3700 -0.3500
v 0.8630 0.3700 -0.2750
v 0.8370 0.3700 -0.2750
v 0.8240 0.3700 -0.3500
v 0.8370 0.3700 -0.4250
v 0.8630 0.3700 -0.4250
v 0.8760 0.4700 -0.3500
v 0.8630 0.4700 -0.2750
v 0.8370 0.4700 -0.2750
v 0.8240 0.4700 -0.3500
v 0.8370 0.4700 -0.4250
v 0.8630 0.4700 -0.4250
v 0.8500 0.5200 -0.3500
v 0.8500 0.5200 -0.3500
v 0.8500 0.5200 -0.3500
v 0.8500 0.5200 -0.3500
v 0.8500 0.5200 -0.3500
v 0.8500 0.5200 -0.3500
vn 0.3511 0.0000 0.9363
vn 0.3511 -0.0000 0.9363
vn 0.0000 1.0000 0.0000
vn -0.0000 -1.0000 -0.0000
vn -1.0000 0.0000 0.0000
vn -1.0000 0.0000 0.0000
vn -0.0000 1.0000 0.0000
vn 0.0000 -1.0000 0.0000
vn 0.3511 0.0000 -0.9363
vn 0.3511 0.0000 -0.9363
vn 0.0000 1.0000 -0.0000
vn 0.0000 -1.0000 0.0000
vn -0.8660 0.0000 -0.5000
vn -0.8660 0.0000 -0.5000
vn -0.0000 0.0000 -1.0000
vn -0.0000 0.0000 -1.0000
vn 0.8660 0.0000 -0.5000
vn 0.8660 0.0000 -0.5000
vn 0.8660 0.0000 0.5000
vn 0.8660 -0.0000 0.5000
vn 0.0000 0.0000 1.0000
vn 0.0000 -0.0000 1.0000
vn -0.8660 0.0000 0.5000
vn -0.8660 0.0000 0.5000
vn 0.0000 -1.0000 0.0000
vn 0.0000 -1.0000 0.0000
vn 0.0000 -1.0000 0.0000
vn -0.0000 -1.0000 0.0000
vn 0.0000 -1.0000 -0.0000
vn 0.0000 -1.0000 0.0000
vn 0.0000 -1.0000 0.0000
vn 0.0000 -1.0000 0.0000
vn 0.0000 -1.0000 0.0000
vn -0.0000 -1.0000 0.0000
vn 0.0000 -1.0000 -0.0000
vn 0.0000 -1.0000 0.0000
vn -0.8660 0.0000 -0.5000
vn -0.8660 0.0000 -0.5000
vn -0.0000 0.0000 -1.0000
vn -0.0000 0.0000 -1.0000
vn 0.8660 0.0000 -0.5000
vn 0.8660 0.0000 -0.5000
vn 0.8660 0.0000 0.5000
vn 0.8660 -0.0000 0.5000
vn 0.0000 0.0000 1.0000
vn 0.0000 -0.0000 1.0000
vn -0.8660 0.0000 0.5000
vn -0.8660 0.0000 0.5000
vn 0.0000 -1.0000 0.0000
vn 0.0000 -1.0000 0.0000
vn 0.0000 -1.0000 0.0000
vn -0.0000 -1.0000 0.0000
vn 0.0000 -1.0000 -0.0000
vn 0.0000 -1.0000 0.0000
vn 0.0000 -1.0000 0.0000
vn 0.0000 -1.0000 0.0000
vn 0.0000 -1.0000 0.0000
vn -0.0000 -1.0000 0.0000
vn 0.0000 -1.0000 -0.0000
vn 0.0000 -1.0000 0.0000
vn -0.8660 0.0000 -0.5000
vn -0.8660 0.0000 -0.5000
vn 0.0000 0.0000 -1.0000
vn 0.0000 0.0000 -1.0000
vn 0.8660 0.0000 -0.5000
vn 0.8660 0.0000 -0.5000
vn 0.8660 0.0000 0.5000
vn 0.8660 -0.0000 0.5000
vn 0.0000 0.0000 1.0000
vn 0.0000 -0.0000 1.0000
vn -0.8660 0.0000 0.5000
vn -0.8660 0.0000 0.5000
vn 0.0000 -1.0000 0.0000
vn 0.0000 -1.0000 0.0000
vn 0.0000 -1.0000 0.0000
vn -0.0000 -1.0000 0.0000
vn 0.0000 -1.0000 -0.0000
vn 0.0000 -1.0000 0.0000
vn 0.0000 -1.0000 0.0000
vn 0.0000 -1.0000 0.0000
vn 0.0000 -1.0000 0.0000
vn -0.0000 -1.0000 0.0000
vn 0.0000 -1.0000 -0.0000
vn 0.0000 -1.0000 0.0000
vn -0.8660 0.0000 -0.5000
vn -0.8660 0.0000 -0.5000
vn 0.0000 0.0000 -1.0000
vn 0.0000 0.0000 -1.0000
vn 0.8660 0.0000 -0.5000
vn 0.8660 0.0000 -0.5000
vn 0.8660 0.0000 0.5000
vn 0.8660 -0.0000 0.5000
vn 0.0000 0.0000 1.0000
vn 0.0000 -0.0000 1.0000
vn -0.8660 0.0000 0.5000
vn -0.8660 0.0000 0.5000
vn 0.0000 -1.0000 0.0000
vn 0.0000 -1.0000 0.0000
vn 0.0000 -1.0000 0.0000
vn -0.0000 -1.0000 0.0000
vn 0.0000 -1.0000 -0.0000
vn 0.0000 -1.0000 0.0000
vn 0.0000 -1.0000 0.0000
vn 0.0000 -1.0000 0.0000
vn 0.0000 -1.0000 0.0000
vn -0.0000 -1.0000 0.0000
vn 0.0000 -1.0000 -0.0000
vn 0.0000 -1.0000 0.0000
vn -0.9215 0.3683 -0.1228
vn -0.0000 0.8321 -0.5547
vn 0.9215 0.3683 -0.1228
vn 0.9215 0.3683 0.1228
vn 0.0000 0.8321 0.5547
vn -0.9215 0.3683 0.1228
vn -0.9912 0.0000 -0.1321
vn -0.9912 0.0000 -0.1321
vn -0.0000 0.0000 -1.0000
vn -0.0000 0.0000 -1.0000
vn 0.9912 0.0000 -0.1321
vn 0.9912 0.0000 -0.1321
vn 0.9912 0.0000 0.1321
vn 0.9912 -0.0000 0.1321
vn 0.0000 0.0000 1.0000
vn 0.0000 0.0000 1.0000
vn -0.9912 0.0000 0.1321
vn -0.9912 0.0000 0.1321
vn -0.9215 -0.3683 -0.1228
vn -0.0000 -0.8321 -0.5547
vn 0.9215 -0.3683 -0.1228
vn 0.9215 -0.3683 0.1228
vn 0.0000 -0.8321 0.5547
vn -0.9215 -0.3683 0.1228
vn -0.8771 0.4557 -0.1519
vn 0.0000 0.8321 -0.5547
vn 0.8771 0.4557 -0.1519
vn 0.8771 0.4557 0.1519
vn 0.0000 0.8321 0.5547
vn -0.8771 0.4557 0.1519
vn -0.9853 0.0000 -0.1707
vn -0.9853 0.0000 -0.1707
vn 0.0000 0.0000 -1.0000
vn 0.0000 0.0000 -1.0000
vn 0.9853 0.0000 -0.1707
vn 0.9853 0.0000 -0.1707
vn 0.9853 0.0000 0.1707
vn 0.9853 -0.0000 0.1707
vn 0.0000 0.0000 1.0000
vn 0.0000 0.0000 1.0000
vn -0.9853 0.0000 0.1707
vn -0.9853 0.0000 0.1707
vn -0.8771 -0.4557 -0.1519
vn -0.0000 -0.8321 -0.5547
vn 0.8771 -0.4557 -0.1519
vn 0.8771 -0.4557 0.1519
vn 0.0000 -0.8321 0.5547
vn -0.8771 -0.4557 0.1519
usemtl c0
f 1//1 2//1 5//1
f 1//2 5//2 4//2
f 7//3 2//3 1//3
f 8//4 4//4 5//4
f 2//5 3//5 6//5
f 2//6 6//6 5//6
f 7//7 3//7 2//7
f 8//8 5//8 6//8
f 3//9 1//9 4//9
f 3//10 4//10 6//10
f 7//11 1//11 3//11
f 8//12 6//12 4//12
usemtl c1
f 9//13 10//13 16//13
f 9//14 16//14 15//14
f 10//15 11//15 17//15
f 10//16 17//16 16//16
f 11//17 12//17 18//17
f 11//18 18//18 17//18
f 12//19 13//19 19//19
f 12//20 19//20 18//20
f 13//21 14//21 20//21
f 13//22 20//22 19//22
f 14//23 9//23 15//23
f 14//24 15//24 20//24
f 21//25 9//25 10//25
f 21//26 10//26 11//26
f 21//27 11//27 12//27
f 21//28 12//28 13//28
f 21//29 13//29 14//29
f 21//30 14//30 9//30
f 22//31 15//31 16//31
f 22//32 16//32 17//32
f 22//33 17//33 18//33
f 22//34 18//34 19//34
f 22//35 19//35 20//35
f 22//36 20//36 15//36
f 23//37 24//37 30//37
f 23//38 30//38 29//38
f 24//39 25//39 31//39
f 24//40 31//40 30//40
f 25//41 26//41 32//41
f 25//42 32//42 31//42
f 26//43 27//43 33//43
f 26//44 33//44 32//44
f 27//45 28//45 34//45
f 27//46 34//46 33//46
f 28//47 23//47 29//47
f 28//48 29//48 34//48
f 35//49 23//49 24//49
f 35//50 24//50 25//50
f 35//51 25//51 26//51
f 35//52 26//52 27//52
f 35//53 27//53 28//53
f 35//54 28//54 23//54
f 36//55 29//55 30//55
f 36//56 30//56 31//56
f 36//57 31//57 32//57
f 36//58 32//58 33//58
f 36//59 33//59 34//59
f 36//60 34//60 29//60
f 37//61 38//61 44//61
f 37//62 44//62 43//62
f 38//63 39//63 45//63
f 38//64 45//64 44//64
f 39//65 40//65 46//65
f 39//66 46//66 45//66
f 40//67 41//67 47//67
f 40//68 47//68 46//68
f 41//69 42//69 48//69
f 41//70 48//70 47//70
f 42//71 37//71 43//71
f 42//72 43//72 48//72
f 49//73 37//73 38//73
f 49//74 38//74 39//74
f 49//75 39//75 40//75
f 49//76 40//76 41//76
f 49//77 41//77 42//77
f 49//78 42//78 37//78
f 50//79 43//79 44//79
f 50//80 44//80 45//80
f 50//81 45//81 46//81
f 50//82 46//82 47//82
f 50//83 47//83 48//83
f 50//84 48//84 43//84
f 51//85 52//85 58//85
f 51//86 58//86 57//86
f 52//87 53//87 59//87
f 52//88 59//88 58//88
f 53//89 54//89 60//89
f 53//90 60//90 59//90
f 54//91 55//91 61//91
f 54//92 61//92 60//92
f 55//93 56//93 62//93
f 55//94 62//94 61//94
f 56//95 51//95 57//95
f 56//96 57//96 62//96
f 63//97 51//97 52//97
f 63//98 52//98 53//98
f 63//99 53//99 54//99
f 63//100 54//100 55//100
f 63//101 55//101 56//101
f 63//102 56//102 51//102
f 64//103 57//103 58//103
f 64//104 58//104 59//104
f 64//105 59//105 60//105
f 64//106 60//106 61//106
f 64//107 61//107 62//107
f 64//108 62//108 57//108
f 65//109 72//109 71//109
f 66//110 73//110 72//110
f 67//111 74//111 73//111
f 68//112 75//112 74//112
f 69//113 76//113 75//113
f 70//114 71//114 76//114
f 71//115 72//115 78//115
f 71//116 78//116 77//116
f 72//117 73//117 79//117
f 72//118 79//118 78//118
f 73//119 74//119 80//119
f 73//120 80//120 79//120
f 74//121 75//121 81//121
f 74//122 81//122 80//122
f 75//123 76//123 82//123
f 75//124 82//124 81//124
f 76//125 71//125 77//125
f 76//126 77//126 82//126
f 77//127 78//127 84//127
f 78//128 79//128 85//128
f 79//129 80//129 86//129
f 80//130 81//130 87//130
f 81//131 82//131 88//131
f 82//132 77//132 83//132
f 89//133 96//133 95//133
f 90//134 97//134 96//134
f 91//135 98//135 97//135
f 92//136 99//136 98//136
f 93//137 100//137 99//137
f 94//138 95//138 100//138
f 95//139 96//139 102//139
f 95//140 102//140 101//140
f 96//141 97//141 103//141
f 96//142 103//142 102//142
f 97//143 98//143 104//143
f 97//144 104//144 103//144
f 98//145 99//145 105//145
f 98//146 105//146 104//146
f 99//147 100//147 106//147
f 99//148 106//148 105//148
f 100//149 95//149 101//149
f 100//150 101//150 106//150
f 101//151 102//151 108//151
f 102//152 103//152 109//152
f 103//153 104//153 110//153
f 104//154 105//154 111//154
f 105//155 106//155 112//155
f 106//156 101//156 107//156
