mtllib Food_Croissant.mtl
v -1.2716 -0.1040 -0.2703
v -1.2716 -0.1040 -0.2703
v -1.2716 -0.1040 -0.2703
v -1.2716 -0.1040 -0.2703
v -1.2716 -0.1040 -0.2703
v -1.2716 -0.1040 -0.2703
v -1.2716 -0.1040 -0.2703
v -1.2716 -0.1040 -0.2703
v -1.5068 -0.0278 -0.3203
v -1.3963 -0.0278 -0.5013
v -1.2128 -0.0278 -0.5469
v -1.0637 -0.0278 -0.4306
v -1.0364 -0.0278 -0.2203
v -1.1469 -0.0278 -0.0393
v -1.3304 -0.0278 0.0064
v -1.4795 -0.0278 -0.1100
v -1.6042 0.1560 -0.3410
v -1.4479 0.1560 -0.5969
v -1.1884 0.1560 -0.6615
v -0.9776 0.1560 -0.4970
v -0.9390 0.1560 -0.1996
v -1.0952 0.1560 0.0564
v -1.3548 0.1560 0.1210
v -1.5656 0.1560 -0.0436
v -1.5068 0.3398 -0.3203
v -1.3963 0.3398 -0.5013
v -1.2128 0.3398 -0.5469
v -1.0637 0.3398 -0.4306
v -1.0364 0.3398 -0.2203
v -1.1469 0.3398 -0.0393
v -1.3304 0.3398 0.0064
v -1.4795 0.3398 -0.1100
v -1.2716 0.4160 -0.2703
v -1.2716 0.4160 -0.2703
v -1.2716 0.4160 -0.2703
v -1.2716 0.4160 -0.2703
v -1.2716 0.4160 -0.2703
v -1.2716 0.4160 -0.2703
v -1.2716 0.4160 -0.2703
v -1.2716 0.4160 -0.2703
v -1.0244 -0.1440 -0.8004
v -1.0244 -0.1440 -0.8004
v -1.0244 -0.1440 -0.8004
v -1.0244 -0.1440 -0.8004
v -1.0244 -0.1440 -0.8004
v -1.0244 -0.1440 -0.8004
v -1.0244 -0.1440 -0.8004
v -1.0244 -0.1440 -0.8004
v -1.3030 -0.0386 -1.0180
v -1.0983 -0.0386 -1.1119
v -0.8503 -0.0386 -1.0232
v -0.7043 -0.0386 -0.8040
v -0.7458 -0.0386 -0.5827
v -0.9505 -0.0386 -0.4888
v -1.1985 -0.0386 -0.5775
v -1.3445 -0.0386 -0.7967
v -1.4184 0.2160 -1.1082
v -1.1289 0.2160 -1.2409
v -0.7781 0.2160 -1.1156
v -0.5717 0.2160 -0.8056
v -0.6304 0.2160 -0.4925
v -0.9199 0.2160 -0.3598
v -1.2707 0.2160 -0.4852
v -1.4772 0.2160 -0.7951
v -1.3030 0.4706 -1.0180
v -1.0983 0.4706 -1.1119
v -0.8503 0.4706 -1.0232
v -0.7043 0.4706 -0.8040
v -0.7458 0.4706 -0.5827
v -0.9505 0.4706 -0.4888
v -1.1985 0.4706 -0.5775
v -1.3445 0.4706 -0.7967
v -1.0244 0.5760 -0.8004
v -1.0244 0.5760 -0.8004
v -1.0244 0.5760 -0.8004
v -1.0244 0.5760 -0.8004
v -1.0244 0.5760 -0.8004
v -1.0244 0.5760 -0.8004
v -1.0244 0.5760 -0.8004
v -1.0244 0.5760 -0.8004
v -0.5699 -0.1840 -1.1684
v -0.5699 -0.1840 -1.1684
v -0.5699 -0.1840 -1.1684
v -0.5699 -0.1840 -1.1684
v -0.5699 -0.1840 -1.1684
v -0.5699 -0.1840 -1.1684
v -0.5699 -0.1840 -1.1684
v -0.5699 -0.1840 -1.1684
v -0.7745 -0.0493 -1.5879
v -0.5348 -0.0493 -1.5527
v -0.3157 -0.0493 -1.2924
v -0.2455 -0.0493 -0.9595
v -0.3653 -0.0493 -0.7490
v -0.6050 -0.0493 -0.7842
v -0.8241 -0.0493 -1.0444
v -0.8943 -0.0493 -1.3774
v -0.8592 0.2760 -1.7616
v -0.5202 0.2760 -1.7119
v -0.2104 0.2760 -1.3438
v -0.1111 0.2760 -0.8730
v -0.2806 0.2760 -0.5752
v -0.6195 0.2760 -0.6250
v -0.9294 0.2760 -0.9931
v -1.0287 0.2760 -1.4639
v -0.7745 0.6013 -1.5879
v -0.5348 0.6013 -1.5527
v -0.3157 0.6013 -1.2924
v -0.2455 0.6013 -0.9595
v -0.3653 0.6013 -0.7490
v -0.6050 0.6013 -0.7842
v -0.8241 0.6013 -1.0444
v -0.8943 0.6013 -1.3774
v -0.5699 0.7360 -1.1684
v -0.5699 0.7360 -1.1684
v -0.5699 0.7360 -1.1684
v -0.5699 0.7360 -1.1684
v -0.5699 0.7360 -1.1684
v -0.5699 0.7360 -1.1684
v -0.5699 0.7360 -1.1684
v -0.5699 0.7360 -1.1684
v -0.0000 -0.2240 -1.3000
v -0.0000 -0.2240 -1.3000
v -0.0000 -0.2240 -1.3000
v -0.0000 -0.2240 -1.3000
v -0.0000 -0.2240 -1.3000
v -0.0000 -0.2240 -1.3000
v -0.0000 -0.2240 -1.3000
v -0.0000 -0.2240 -1.3000
v -0.0000 -0.0600 -1.8798
v 0.2000 -0.0600 -1.7100
v 0.2828 -0.0600 -1.3000
v 0.2000 -0.0600 -0.8900
v -0.0000 -0.0600 -0.7202
v -0.2000 -0.0600 -0.8900
v -0.2828 -0.0600 -1.3000
v -0.2000 -0.0600 -1.7100
v -0.0000 0.3360 -2.1200
v 0.2828 0.3360 -1.8798
v 0.4000 0.3360 -1.3000
v 0.2828 0.3360 -0.7202
v -0.0000 0.3360 -0.4800
v -0.2828 0.3360 -0.7202
v -0.4000 0.3360 -1.3000
v -0.2828 0.3360 -1.8798
v -0.0000 0.7320 -1.8798
v 0.2000 0.7320 -1.7100
v 0.2828 0.7320 -1.3000
v 0.2000 0.7320 -0.8900
v -0.0000 0.7320 -0.7202
v -0.2000 0.7320 -0.8900
v -0.2828 0.7320 -1.3000
v -0.2000 0.7320 -1.7100
v -0.0000 0.8960 -1.3000
v -0.0000 0.8960 -1.3000
v -0.0000 0.8960 -1.3000
v -0.0000 0.8960 -1.3000
v -0.0000 0.8960 -1.3000
v -0.0000 0.8960 -1.3000
v -0.0000 0.8960 -1.3000
v -0.0000 0.8960 -1.3000
v 0.5699 -0.1840 -1.1684
v 0.5699 -0.1840 -1.1684
v 0.5699 -0.1840 -1.1684
v 0.5699 -0.1840 -1.1684
v 0.5699 -0.1840 -1.1684
v 0.5699 -0.1840 -1.1684
v 0.5699 -0.1840 -1.1684
v 0.5699 -0.1840 -1.1684
v 0.7745 -0.0493 -1.5879
v 0.8943 -0.0493 -1.3774
v 0.8241 -0.0493 -1.0444
v 0.6050 -0.0493 -0.7842
v 0.3653 -0.0493 -0.7490
v 0.2455 -0.0493 -0.9595
v 0.3157 -0.0493 -1.2924
v 0.5348 -0.0493 -1.5527
v 0.8592 0.2760 -1.7616
v 1.0287 0.2760 -1.4639
v 0.9294 0.2760 -0.9931
v 0.6195 0.2760 -0.6250
v 0.2806 0.2760 -0.5752
v 0.1111 0.2760 -0.8730
v 0.2104 0.2760 -1.3438
v 0.5202 0.2760 -1.7119
v 0.7745 0.6013 -1.5879
v 0.8943 0.6013 -1.3774
v 0.8241 0.6013 -1.0444
v 0.6050 0.6013 -0.7842
v 0.3653 0.6013 -0.7490
v 0.2455 0.6013 -0.9595
v 0.3157 0.6013 -1.2924
v 0.5348 0.6013 -1.5527
v 0.5699 0.7360 -1.1684
v 0.5699 0.7360 -1.1684
v 0.5699 0.7360 -1.1684
v 0.5699 0.7360 -1.1684
v 0.5699 0.7360 -1.1684
v 0.5699 0.7360 -1.1684
v 0.5699 0.7360 -1.1684
v 0.5699 0.7360 -1.1684
v 1.0244 -0.1440 -0.8004
v 1.0244 -0.1440 -0.8004
v 1.0244 -0.1440 -0.8004
v 1.0244 -0.1440 -0.8004
v 1.0244 -0.1440 -0.8004
v 1.0244 -0.1440 -0.8004
v 1.0244 -0.1440 -0.8004
v 1.0244 -0.1440 -0.8004
v 1.3030 -0.0386 -1.0180
v 1.3445 -0.0386 -0.7967
v 1.1985 -0.0386 -0.5775
v 0.9505 -0.0386 -0.4888
v 0.7458 -0.0386 -0.5827
v 0.7043 -0.0386 -0.8040
v 0.8503 -0.0386 -1.0232
v 1.0983 -0.0386 -1.1119
v 1.4184 0.2160 -1.1082
v 1.4772 0.2160 -0.7951
v 1.2707 0.2160 -0.4852
v 0.9199 0.2160 -0.3598
v 0.6304 0.2160 -0.4925
v 0.5717 0.2160 -0.8056
v 0.7781 0.2160 -1.1156
v 1.1289 0.2160 -1.2409
v 1.3030 0.4706 -1.0180
v 1.3445 0.4706 -0.7967
v 1.1985 0.4706 -0.5775
v 0.9505 0.4706 -0.4888
v 0.7458 0.4706 -0.5827
v 0.7043 0.4706 -0.8040
v 0.8503 0.4706 -1.0232
v 1.0983 0.4706 -1.1119
v 1.0244 0.5760 -0.8004
v 1.0244 0.5760 -0.8004
v 1.0244 0.5760 -0.8004
v 1.0244 0.5760 -0.8004
v 1.0244 0.5760 -0.8004
v 1.0244 0.5760 -0.8004
v 1.0244 0.5760 -0.8004
v 1.0244 0.5760 -0.8004
v 1.2716 -0.1040 -0.2703
v 1.2716 -0.1040 -0.2703
v 1.2716 -0.1040 -0.2703
v 1.2716 -0.1040 -0.2703
v 1.2716 -0.1040 -0.2703
v 1.2716 -0.1040 -0.2703
v 1.2716 -0.1040 -0.2703
v 1.2716 -0.1040 -0.2703
v 1.5068 -0.0278 -0.3203
v 1.4795 -0.0278 -0.1100
v 1.3304 -0.0278 0.0064
v 1.1469 -0.0278 -0.0393
v 1.0364 -0.0278 -0.2203
v 1.0637 -0.0278 -0.4306
v 1.2128 -0.0278 -0.5469
v 1.3963 -0.0278 -0.5013
v 1.6042 0.1560 -0.3410
v 1.5656 0.1560 -0.0436
v 1.3548 0.1560 0.1210
v 1.0952 0.1560 0.0564
v 0.9390 0.1560 -0.1996
v 0.9776 0.1560 -0.4970
v 1.1884 0.1560 -0.6615
v 1.4479 0.1560 -0.5969
v 1.5068 0.3398 -0.3203
v 1.4795 0.3398 -0.1100
v 1.3304 0.3398 0.0064
v 1.1469 0.3398 -0.0393
v 1.0364 0.3398 -0.2203
v 1.0637 0.3398 -0.4306
v 1.2128 0.3398 -0.5469
v 1.3963 0.3398 -0.5013
v 1.2716 0.4160 -0.2703
v 1.2716 0.4160 -0.2703
v 1.2716 0.4160 -0.2703
v 1.2716 0.4160 -0.2703
v 1.2716 0.4160 -0.2703
v 1.2716 0.4160 -0.2703
v 1.2716 0.4160 -0.2703
v 1.2716 0.4160 -0.2703
vn 0.2717 0.9480 0.1658
vn 0.0693 0.9580 0.2784
vn -0.1766 0.9580 0.2262
vn -0.3157 0.9480 0.0410
vn -0.2717 0.9480 -0.1658
vn -0.0693 0.9580 -0.2784
vn 0.1766 0.9580 -0.2262
vn 0.3157 0.9480 -0.0410
vn 0.7601 0.4550 0.4639
vn 0.7601 0.4550 0.4639
vn 0.2096 0.4971 0.8420
vn 0.2096 0.4971 0.8420
vn -0.5340 0.4971 0.6839
vn -0.5340 0.4971 0.6839
vn -0.8831 0.4550 0.1146
vn -0.8831 0.4550 0.1146
vn -0.7601 0.4550 -0.4639
vn -0.7601 0.4550 -0.4639
vn -0.2096 0.4971 -0.8420
vn -0.2096 0.4971 -0.8420
vn 0.5340 0.4971 -0.6839
vn 0.5340 0.4971 -0.6839
vn 0.8831 0.4550 -0.1146
vn 0.8831 0.4550 -0.1146
vn 0.7601 -0.4550 0.4639
vn 0.7601 -0.4550 0.4639
vn 0.2096 -0.4971 0.8420
vn 0.2096 -0.4971 0.8420
vn -0.5340 -0.4971 0.6839
vn -0.5340 -0.4971 0.6839
vn -0.8831 -0.4550 0.1146
vn -0.8831 -0.4550 0.1146
vn -0.7601 -0.4550 -0.4639
vn -0.7601 -0.4550 -0.4639
vn -0.2096 -0.4971 -0.8420
vn -0.2096 -0.4971 -0.8420
vn 0.5340 -0.4971 -0.6839
vn 0.5340 -0.4971 -0.6839
vn 0.8831 -0.4550 -0.1146
vn 0.8831 -0.4550 -0.1146
vn 0.2717 -0.9480 0.1658
vn 0.0693 -0.9580 0.2784
vn -0.1766 -0.9580 0.2262
vn -0.3157 -0.9480 0.0410
vn -0.2717 -0.9480 -0.1658
vn -0.0693 -0.9580 -0.2784
vn 0.1766 -0.9580 -0.2262
vn 0.3157 -0.9480 -0.0410
vn 0.1327 0.9480 0.2894
vn -0.1230 0.9308 0.3442
vn -0.3042 0.9308 0.2026
vn -0.3129 0.9480 -0.0587
vn -0.1327 0.9480 -0.2894
vn 0.1230 0.9308 -0.3442
vn 0.3042 0.9308 -0.2026
vn 0.3129 0.9480 0.0587
vn 0.3711 0.4549 0.8095
vn 0.3711 0.4549 0.8095
vn -0.3084 0.4003 0.8629
vn -0.3084 0.4003 0.8629
vn -0.7627 0.4003 0.5080
vn -0.7627 0.4003 0.5080
vn -0.8752 0.4549 -0.1642
vn -0.8752 0.4549 -0.1642
vn -0.3711 0.4549 -0.8095
vn -0.3711 0.4549 -0.8095
vn 0.3084 0.4003 -0.8629
vn 0.3084 0.4003 -0.8629
vn 0.7627 0.4003 -0.5080
vn 0.7627 0.4003 -0.5080
vn 0.8752 0.4549 0.1642
vn 0.8752 0.4549 0.1642
vn 0.3711 -0.4549 0.8095
vn 0.3711 -0.4549 0.8095
vn -0.3084 -0.4003 0.8629
vn -0.3084 -0.4003 0.8629
vn -0.7627 -0.4003 0.5080
vn -0.7627 -0.4003 0.5080
vn -0.8752 -0.4549 -0.1642
vn -0.8752 -0.4549 -0.1642
vn -0.3711 -0.4549 -0.8095
vn -0.3711 -0.4549 -0.8095
vn 0.3084 -0.4003 -0.8629
vn 0.3084 -0.4003 -0.8629
vn 0.7627 -0.4003 -0.5080
vn 0.7627 -0.4003 -0.5080
vn 0.8752 -0.4549 0.1642
vn 0.8752 -0.4549 0.1642
vn 0.1327 -0.9480 0.2894
vn -0.1230 -0.9308 0.3442
vn -0.3042 -0.9308 0.2026
vn -0.3129 -0.9480 -0.0587
vn -0.1327 -0.9480 -0.2894
vn 0.1230 -0.9308 -0.3442
vn 0.3042 -0.9308 -0.2026
vn 0.3129 -0.9480 0.0587
vn -0.0479 0.9440 0.3266
vn -0.3372 0.8976 0.2839
vn -0.4313 0.8976 0.0910
vn -0.2869 0.9440 -0.1633
vn 0.0479 0.9440 -0.3266
vn 0.3372 0.8976 -0.2839
vn 0.4313 0.8976 -0.0910
vn 0.2869 0.9440 0.1633
vn -0.1304 0.4405 0.8882
vn -0.1304 0.4405 0.8882
vn -0.7222 0.3298 0.6080
vn -0.7222 0.3298 0.6080
vn -0.9237 0.3298 0.1948
vn -0.9237 0.3298 0.1948
vn -0.7802 0.4405 -0.4441
vn -0.7802 0.4405 -0.4441
vn 0.1304 0.4405 -0.8882
vn 0.1304 0.4405 -0.8882
vn 0.7222 0.3298 -0.6080
vn 0.7222 0.3298 -0.6080
vn 0.9237 0.3298 -0.1948
vn 0.9237 0.3298 -0.1948
vn 0.7802 0.4405 0.4441
vn 0.7802 0.4405 0.4441
vn -0.1304 -0.4405 0.8882
vn -0.1304 -0.4405 0.8882
vn -0.7222 -0.3298 0.6080
vn -0.7222 -0.3298 0.6080
vn -0.9237 -0.3298 0.1948
vn -0.9237 -0.3298 0.1948
vn -0.7802 -0.4405 -0.4441
vn -0.7802 -0.4405 -0.4441
vn 0.1304 -0.4405 -0.8882
vn 0.1304 -0.4405 -0.8882
vn 0.7222 -0.3298 -0.6080
vn 0.7222 -0.3298 -0.6080
vn 0.9237 -0.3298 -0.1948
vn 0.9237 -0.3298 -0.1948
vn 0.7802 -0.4405 0.4441
vn 0.7802 -0.4405 0.4441
vn -0.0479 -0.9440 0.3266
vn -0.3372 -0.8976 0.2839
vn -0.4313 -0.8976 0.0910
vn -0.2869 -0.9440 -0.1633
vn 0.0479 -0.9440 -0.3266
vn 0.3372 -0.8976 -0.2839
vn 0.4313 -0.8976 -0.0910
vn 0.2869 -0.9440 0.1633
vn -0.2252 0.9375 0.2652
vn -0.4991 0.8607 0.1008
vn -0.4991 0.8607 -0.1008
vn -0.2252 0.9375 -0.2652
vn 0.2252 0.9375 -0.2652
vn 0.4991 0.8607 -0.1008
vn 0.4991 0.8607 0.1008
vn 0.2252 0.9375 0.2652
vn -0.5875 0.4197 0.6919
vn -0.5875 0.4197 0.6919
vn -0.9414 0.2785 0.1902
vn -0.9414 0.2785 0.1902
vn -0.9414 0.2785 -0.1902
vn -0.9414 0.2785 -0.1902
vn -0.5875 0.4197 -0.6919
vn -0.5875 0.4197 -0.6919
vn 0.5875 0.4197 -0.6919
vn 0.5875 0.4197 -0.6919
vn 0.9414 0.2785 -0.1902
vn 0.9414 0.2785 -0.1902
vn 0.9414 0.2785 0.1902
vn 0.9414 0.2785 0.1902
vn 0.5875 0.4197 0.6919
vn 0.5875 0.4197 0.6919
vn -0.5875 -0.4197 0.6919
vn -0.5875 -0.4197 0.6919
vn -0.9414 -0.2785 0.1902
vn -0.9414 -0.2785 0.1902
vn -0.9414 -0.2785 -0.1902
vn -0.9414 -0.2785 -0.1902
vn -0.5875 -0.4197 -0.6919
vn -0.5875 -0.4197 -0.6919
vn 0.5875 -0.4197 -0.6919
vn 0.5875 -0.4197 -0.6919
vn 0.9414 -0.2785 -0.1902
vn 0.9414 -0.2785 -0.1902
vn 0.9414 -0.2785 0.1902
vn 0.9414 -0.2785 0.1902
vn 0.5875 -0.4197 0.6919
vn 0.5875 -0.4197 0.6919
vn -0.2252 -0.9375 0.2652
vn -0.4991 -0.8607 0.1008
vn -0.4991 -0.8607 -0.1008
vn -0.2252 -0.9375 -0.2652
vn 0.2252 -0.9375 -0.2652
vn 0.4991 -0.8607 -0.1008
vn 0.4991 -0.8607 0.1008
vn 0.2252 -0.9375 0.2652
vn -0.2869 0.9440 0.1633
vn -0.4313 0.8976 -0.0910
vn -0.3372 0.8976 -0.2839
vn -0.0479 0.9440 -0.3266
vn 0.2869 0.9440 -0.1633
vn 0.4313 0.8976 0.0910
vn 0.3372 0.8976 0.2839
vn 0.0479 0.9440 0.3266
vn -0.7802 0.4405 0.4441
vn -0.7802 0.4405 0.4441
vn -0.9237 0.3298 -0.1948
vn -0.9237 0.3298 -0.1948
vn -0.7222 0.3298 -0.6080
vn -0.7222 0.3298 -0.6080
vn -0.1304 0.4405 -0.8882
vn -0.1304 0.4405 -0.8882
vn 0.7802 0.4405 -0.4441
vn 0.7802 0.4405 -0.4441
vn 0.9237 0.3298 0.1948
vn 0.9237 0.3298 0.1948
vn 0.7222 0.3298 0.6080
vn 0.7222 0.3298 0.6080
vn 0.1304 0.4405 0.8882
vn 0.1304 0.4405 0.8882
vn -0.7802 -0.4405 0.4441
vn -0.7802 -0.4405 0.4441
vn -0.9237 -0.3298 -0.1948
vn -0.9237 -0.3298 -0.1948
vn -0.7222 -0.3298 -0.6080
vn -0.7222 -0.3298 -0.6080
vn -0.1304 -0.4405 -0.8882
vn -0.1304 -0.4405 -0.8882
vn 0.7802 -0.4405 -0.4441
vn 0.7802 -0.4405 -0.4441
vn 0.9237 -0.3298 0.1948
vn 0.9237 -0.3298 0.1948
vn 0.7222 -0.3298 0.6080
vn 0.7222 -0.3298 0.6080
vn 0.1304 -0.4405 0.8882
vn 0.1304 -0.4405 0.8882
vn -0.2869 -0.9440 0.1633
vn -0.4313 -0.8976 -0.0910
vn -0.3372 -0.8976 -0.2839
vn -0.0479 -0.9440 -0.3266
vn 0.2869 -0.9440 -0.1633
vn 0.4313 -0.8976 0.0910
vn 0.3372 -0.8976 0.2839
vn 0.0479 -0.9440 0.3266
vn -0.3129 0.9480 0.0587
vn -0.3042 0.9308 -0.2026
vn -0.1230 0.9308 -0.3442
vn 0.1327 0.9480 -0.2894
vn 0.3129 0.9480 -0.0587
vn 0.3042 0.9308 0.2026
vn 0.1230 0.9308 0.3442
vn -0.1327 0.9480 0.2894
vn -0.8752 0.4549 0.1642
vn -0.8752 0.4549 0.1642
vn -0.7627 0.4003 -0.5080
vn -0.7627 0.4003 -0.5080
vn -0.3084 0.4003 -0.8629
vn -0.3084 0.4003 -0.8629
vn 0.3711 0.4549 -0.8095
vn 0.3711 0.4549 -0.8095
vn 0.8752 0.4549 -0.1642
vn 0.8752 0.4549 -0.1642
vn 0.7627 0.4003 0.5080
vn 0.7627 0.4003 0.5080
vn 0.3084 0.4003 0.8629
vn 0.3084 0.4003 0.8629
vn -0.3711 0.4549 0.8095
vn -0.3711 0.4549 0.8095
vn -0.8752 -0.4549 0.1642
vn -0.8752 -0.4549 0.1642
vn -0.7627 -0.4003 -0.5080
vn -0.7627 -0.4003 -0.5080
vn -0.3084 -0.4003 -0.8629
vn -0.3084 -0.4003 -0.8629
vn 0.3711 -0.4549 -0.8095
vn 0.3711 -0.4549 -0.8095
vn 0.8752 -0.4549 -0.1642
vn 0.8752 -0.4549 -0.1642
vn 0.7627 -0.4003 0.5080
vn 0.7627 -0.4003 0.5080
vn 0.3084 -0.4003 0.8629
vn 0.3084 -0.4003 0.8629
vn -0.3711 -0.4549 0.8095
vn -0.3711 -0.4549 0.8095
vn -0.3129 -0.9480 0.0587
vn -0.3042 -0.9308 -0.2026
vn -0.1230 -0.9308 -0.3442
vn 0.1327 -0.9480 -0.2894
vn 0.3129 -0.9480 -0.0587
vn 0.3042 -0.9308 0.2026
vn 0.1230 -0.9308 0.3442
vn -0.1327 -0.9480 0.2894
vn -0.3157 0.9480 -0.0410
vn -0.1766 0.9580 -0.2262
vn 0.0693 0.9580 -0.2784
vn 0.2717 0.9480 -0.1658
vn 0.3157 0.9480 0.0410
vn 0.1766 0.9580 0.2262
vn -0.0693 0.9580 0.2784
vn -0.2717 0.9480 0.1658
vn -0.8831 0.4550 -0.1146
vn -0.8831 0.4550 -0.1146
vn -0.5340 0.4971 -0.6839
vn -0.5340 0.4971 -0.6839
vn 0.2096 0.4971 -0.8420
vn 0.2096 0.4971 -0.8420
vn 0.7601 0.4550 -0.4639
vn 0.7601 0.4550 -0.4639
vn 0.8831 0.4550 0.1146
vn 0.8831 0.4550 0.1146
vn 0.5340 0.4971 0.6839
vn 0.5340 0.4971 0.6839
vn -0.2096 0.4971 0.8420
vn -0.2096 0.4971 0.8420
vn -0.7601 0.4550 0.4639
vn -0.7601 0.4550 0.4639
vn -0.8831 -0.4550 -0.1146
vn -0.8831 -0.4550 -0.1146
vn -0.5340 -0.4971 -0.6839
vn -0.5340 -0.4971 -0.6839
vn 0.2096 -0.4971 -0.8420
vn 0.2096 -0.4971 -0.8420
vn 0.7601 -0.4550 -0.4639
vn 0.7601 -0.4550 -0.4639
vn 0.8831 -0.4550 0.1146
vn 0.8831 -0.4550 0.1146
vn 0.5340 -0.4971 0.6839
vn 0.5340 -0.4971 0.6839
vn -0.2096 -0.4971 0.8420
vn -0.2096 -0.4971 0.8420
vn -0.7601 -0.4550 0.4639
vn -0.7601 -0.4550 0.4639
vn -0.3157 -0.9480 -0.0410
vn -0.1766 -0.9580 -0.2262
vn 0.0693 -0.9580 -0.2784
vn 0.2717 -0.9480 -0.1658
vn 0.3157 -0.9480 0.0410
vn 0.1766 -0.9580 0.2262
vn -0.0693 -0.9580 0.2784
vn -0.2717 -0.9480 0.1658
usemtl c0
f 1//1 10//1 9//1
f 2//2 11//2 10//2
f 3//3 12//3 11//3
f 4//4 13//4 12//4
f 5//5 14//5 13//5
f 6//6 15//6 14//6
f 7//7 16//7 15//7
f 8//8 9//8 16//8
f 9//9 10//9 18//9
f 9//10 18//10 17//10
f 10//11 11//11 19//11
f 10//12 19//12 18//12
f 11//13 12//13 20//13
f 11//14 20//14 19//14
f 12//15 13//15 21//15
f 12//16 21//16 20//16
f 13//17 14//17 22//17
f 13//18 22//18 21//18
f 14//19 15//19 23//19
f 14//20 23//20 22//20
f 15//21 16//21 24//21
f 15//22 24//22 23//22
f 16//23 9//23 17//23
f 16//24 17//24 24//24
f 17//25 18//25 26//25
f 17//26 26//26 25//26
f 18//27 19//27 27//27
f 18//28 27//28 26//28
f 19//29 20//29 28//29
f 19//30 28//30 27//30
f 20//31 21//31 29//31
f 20//32 29//32 28//32
f 21//33 22//33 30//33
f 21//34 30//34 29//34
f 22//35 23//35 31//35
f 22//36 31//36 30//36
f 23//37 24//37 32//37
f 23//38 32//38 31//38
f 24//39 17//39 25//39
f 24//40 25//40 32//40
f 25//41 26//41 34//41
f 26//42 27//42 35//42
f 27//43 28//43 36//43
f 28//44 29//44 37//44
f 29//45 30//45 38//45
f 30//46 31//46 39//46
f 31//47 32//47 40//47
f 32//48 25//48 33//48
usemtl c1
f 41//49 50//49 49//49
f 42//50 51//50 50//50
f 43//51 52//51 51//51
f 44//52 53//52 52//52
f 45//53 54//53 53//53
f 46//54 55//54 54//54
f 47//55 56//55 55//55
f 48//56 49//56 56//56
f 49//57 50//57 58//57
f 49//58 58//58 57//58
f 50//59 51//59 59//59
f 50//60 59//60 58//60
f 51//61 52//61 60//61
f 51//62 60//62 59//62
f 52//63 53//63 61//63
f 52//64 61//64 60//64
f 53//65 54//65 62//65
f 53//66 62//66 61//66
f 54//67 55//67 63//67
f 54//68 63//68 62//68
f 55//69 56//69 64//69
f 55//70 64//70 63//70
f 56//71 49//71 57//71
f 56//72 57//72 64//72
f 57//73 58//73 66//73
f 57//74 66//74 65//74
f 58//75 59//75 67//75
f 58//76 67//76 66//76
f 59//77 60//77 68//77
f 59//78 68//78 67//78
f 60//79 61//79 69//79
f 60//80 69//80 68//80
f 61//81 62//81 70//81
f 61//82 70//82 69//82
f 62//83 63//83 71//83
f 62//84 71//84 70//84
f 63//85 64//85 72//85
f 63//86 72//86 71//86
f 64//87 57//87 65//87
f 64//88 65//88 72//88
f 65//89 66//89 74//89
f 66//90 67//90 75//90
f 67//91 68//91 76//91
f 68//92 69//92 77//92
f 69//93 70//93 78//93
f 70//94 71//94 79//94
f 71//95 72//95 80//95
f 72//96 65//96 73//96
usemtl c0
f 81//97 90//97 89//97
f 82//98 91//98 90//98
f 83//99 92//99 91//99
f 84//100 93//100 92//100
f 85//101 94//101 93//101
f 86//102 95//102 94//102
f 87//103 96//103 95//103
f 88//104 89//104 96//104
f 89//105 90//105 98//105
f 89//106 98//106 97//106
f 90//107 91//107 99//107
f 90//108 99//108 98//108
f 91//109 92//109 100//109
f 91//110 100//110 99//110
f 92//111 93//111 101//111
f 92//112 101//112 100//112
f 93//113 94//113 102//113
f 93//114 102//114 101//114
f 94//115 95//115 103//115
f 94//116 103//116 102//116
f 95//117 96//117 104//117
f 95//118 104//118 103//118
f 96//119 89//119 97//119
f 96//120 97//120 104//120
f 97//121 98//121 106//121
f 97//122 106//122 105//122
f 98//123 99//123 107//123
f 98//124 107//124 106//124
f 99//125 100//125 108//125
f 99//126 108//126 107//126
f 100//127 101//127 109//127
f 100//128 109//128 108//128
f 101//129 102//129 110//129
f 101//130 110//130 109//130
f 102//131 103//131 111//131
f 102//132 111//132 110//132
f 103//133 104//133 112//133
f 103//134 112//134 111//134
f 104//135 97//135 105//135
f 104//136 105//136 112//136
f 105//137 106//137 114//137
f 106//138 107//138 115//138
f 107//139 108//139 116//139
f 108//140 109//140 117//140
f 109//141 110//141 118//141
f 110//142 111//142 119//142
f 111//143 112//143 120//143
f 112//144 105//144 113//144
usemtl c1
f 121//145 130//145 129//145
f 122//146 131//146 130//146
f 123//147 132//147 131//147
f 124//148 133//148 132//148
f 125//149 134//149 133//149
f 126//150 135//150 134//150
f 127//151 136//151 135//151
f 128//152 129//152 136//152
f 129//153 130//153 138//153
f 129//154 138//154 137//154
f 130//155 131//155 139//155
f 130//156 139//156 138//156
f 131//157 132//157 140//157
f 131//158 140//158 139//158
f 132//159 133//159 141//159
f 132//160 141//160 140//160
f 133//161 134//161 142//161
f 133//162 142//162 141//162
f 134//163 135//163 143//163
f 134//164 143//164 142//164
f 135//165 136//165 144//165
f 135//166 144//166 143//166
f 136//167 129//167 137//167
f 136//168 137//168 144//168
f 137//169 138//169 146//169
f 137//170 146//170 145//170
f 138//171 139//171 147//171
f 138//172 147//172 146//172
f 139//173 140//173 148//173
f 139//174 148//174 147//174
f 140//175 141//175 149//175
f 140//176 149//176 148//176
f 141//177 142//177 150//177
f 141//178 150//178 149//178
f 142//179 143//179 151//179
f 142//180 151//180 150//180
f 143//181 144//181 152//181
f 143//182 152//182 151//182
f 144//183 137//183 145//183
f 144//184 145//184 152//184
f 145//185 146//185 154//185
f 146//186 147//186 155//186
f 147//187 148//187 156//187
f 148//188 149//188 157//188
f 149//189 150//189 158//189
f 150//190 151//190 159//190
f 151//191 152//191 160//191
f 152//192 145//192 153//192
usemtl c0
f 161//193 170//193 169//193
f 162//194 171//194 170//194
f 163//195 172//195 171//195
f 164//196 173//196 172//196
f 165//197 174//197 173//197
f 166//198 175//198 174//198
f 167//199 176//199 175//199
f 168//200 169//200 176//200
f 169//201 170//201 178//201
f 169//202 178//202 177//202
f 170//203 171//203 179//203
f 170//204 179//204 178//204
f 171//205 172//205 180//205
f 171//206 180//206 179//206
f 172//207 173//207 181//207
f 172//208 181//208 180//208
f 173//209 174//209 182//209
f 173//210 182//210 181//210
f 174//211 175//211 183//211
f 174//212 183//212 182//212
f 175//213 176//213 184//213
f 175//214 184//214 183//214
f 176//215 169//215 177//215
f 176//216 177//216 184//216
f 177//217 178//217 186//217
f 177//218 186//218 185//218
f 178//219 179//219 187//219
f 178//220 187//220 186//220
f 179//221 180//221 188//221
f 179//222 188//222 187//222
f 180//223 181//223 189//223
f 180//224 189//224 188//224
f 181//225 182//225 190//225
f 181//226 190//226 189//226
f 182//227 183//227 191//227
f 182//228 191//228 190//228
f 183//229 184//229 192//229
f 183//230 192//230 191//230
f 184//231 177//231 185//231
f 184//232 185//232 192//232
f 185//233 186//233 194//233
f 186//234 187//234 195//234
f 187//235 188//235 196//235
f 188//236 189//236 197//236
f 189//237 190//237 198//237
f 190//238 191//238 199//238
f 191//239 192//239 200//239
f 192//240 185//240 193//240
usemtl c1
f 201//241 210//241 209//241
f 202//242 211//242 210//242
f 203//243 212//243 211//243
f 204//244 213//244 212//244
f 205//245 214//245 213//245
f 206//246 215//246 214//246
f 207//247 216//247 215//247
f 208//248 209//248 216//248
f 209//249 210//249 218//249
f 209//250 218//250 217//250
f 210//251 211//251 219//251
f 210//252 219//252 218//252
f 211//253 212//253 220//253
f 211//254 220//254 219//254
f 212//255 213//255 221//255
f 212//256 221//256 220//256
f 213//257 214//257 222//257
f 213//258 222//258 221//258
f 214//259 215//259 223//259
f 214//260 223//260 222//260
f 215//261 216//261 224//261
f 215//262 224//262 223//262
f 216//263 209//263 217//263
f 216//264 217//264 224//264
f 217//265 218//265 226//265
f 217//266 226//266 225//266
f 218//267 219//267 227//267
f 218//268 227//268 226//268
f 219//269 220//269 228//269
f 219//270 228//270 227//270
f 220//271 221//271 229//271
f 220//272 229//272 228//272
f 221//273 222//273 230//273
f 221//274 230//274 229//274
f 222//275 223//275 231//275
f 222//276 231//276 230//276
f 223//277 224//277 232//277
f 223//278 232//278 231//278
f 224//279 217//279 225//279
f 224//280 225//280 232//280
f 225//281 226//281 234//281
f 226//282 227//282 235//282
f 227//283 228//283 236//283
f 228//284 229//284 237//284
f 229//285 230//285 238//285
f 230//286 231//286 239//286
f 231//287 232//287 240//287
f 232//288 225//288 233//288
usemtl c0
f 241//289 250//289 249//289
f 242//290 251//290 250//290
f 243//291 252//291 251//291
f 244//292 253//292 252//292
f 245//293 254//293 253//293
f 246//294 255//294 254//294
f 247//295 256//295 255//295
f 248//296 249//296 256//296
f 249//297 250//297 258//297
f 249//298 258//298 257//298
f 250//299 251//299 259//299
f 250//300 259//300 258//300
f 251//301 252//301 260//301
f 251//302 260//302 259//302
f 252//303 253//303 261//303
f 252//304 261//304 260//304
f 253//305 254//305 262//305
f 253//306 262//306 261//306
f 254//307 255//307 263//307
f 254//308 263//308 262//308
f 255//309 256//309 264//309
f 255//310 264//310 263//310
f 256//311 249//311 257//311
f 256//312 257//312 264//312
f 257//313 258//313 266//313
f 257//314 266//314 265//314
f 258//315 259//315 267//315
f 258//316 267//316 266//316
f 259//317 260//317 268//317
f 259//318 268//318 267//318
f 260//319 261//319 269//319
f 260//320 269//320 268//320
f 261//321 262//321 270//321
f 261//322 270//322 269//322
f 262//323 263//323 271//323
f 262//324 271//324 270//324
f 263//325 264//325 272//325
f 263//326 272//326 271//326
f 264//327 257//327 265//327
f 264//328 265//328 272//328
f 265//329 266//329 274//329
f 266//330 267//330 275//330
f 267//331 268//331 276//331
f 268//332 269//332 277//332
f 269//333 270//333 278//333
f 270//334 271//334 279//334
f 271//335 272//335 280//335
f 272//336 265//336 273//336
