mtllib Food_Lemon.mtl
v -1.0142 0.2718 0.0000
v -1.0142 0.2718 0.0000
v -1.0142 0.2718 0.0000
v -1.0142 0.2718 0.0000
v -1.0142 0.2718 0.0000
v -1.0142 0.2718 0.0000
v -1.0142 0.2718 0.0000
v -1.0142 0.2718 0.0000
v -0.6508 0.6139 0.0000
v -0.6830 0.4938 0.3002
v -0.7607 0.2038 0.4245
v -0.8384 -0.0861 0.3002
v -0.8705 -0.2062 0.0000
v -0.8384 -0.0861 -0.3002
v -0.7607 0.2038 -0.4245
v -0.6830 0.4938 -0.3002
v -0.3531 0.7106 0.0000
v -0.3982 0.5423 0.4208
v -0.5071 0.1359 0.5950
v -0.6160 -0.2705 0.4208
v -0.6611 -0.4389 0.0000
v -0.6160 -0.2705 -0.4208
v -0.5071 0.1359 -0.5950
v -0.3982 0.5423 -0.4208
v -0.0751 0.7338 0.0000
v -0.1274 0.5388 0.4874
v -0.2536 0.0679 0.6893
v -0.3797 -0.4029 0.4874
v -0.4320 -0.5979 0.0000
v -0.3797 -0.4029 -0.4874
v -0.2536 0.0679 -0.6893
v -0.1274 0.5388 -0.4874
v 0.1863 0.6955 0.0000
v 0.1318 0.4918 0.5091
v 0.0000 0.0000 0.7200
v -0.1318 -0.4918 0.5091
v -0.1863 -0.6955 0.0000
v -0.1318 -0.4918 -0.5091
v -0.0000 -0.0000 -0.7200
v 0.1318 0.4918 -0.5091
v 0.4320 0.5979 0.0000
v 0.3797 0.4029 0.4874
v 0.2536 -0.0679 0.6893
v 0.1274 -0.5388 0.4874
v 0.0751 -0.7338 0.0000
v 0.1274 -0.5388 -0.4874
v 0.2536 -0.0679 -0.6893
v 0.3797 0.4029 -0.4874
v 0.6611 0.4389 0.0000
v 0.6160 0.2705 0.4208
v 0.5071 -0.1359 0.5950
v 0.3982 -0.5423 0.4208
v 0.3531 -0.7106 0.0000
v 0.3982 -0.5423 -0.4208
v 0.5071 -0.1359 -0.5950
v 0.6160 0.2705 -0.4208
v 0.8705 0.2062 0.0000
v 0.8384 0.0861 0.3002
v 0.7607 -0.2038 0.4245
v 0.6830 -0.4938 0.3002
v 0.6508 -0.6139 0.0000
v 0.6830 -0.4938 -0.3002
v 0.7607 -0.2038 -0.4245
v 0.8384 0.0861 -0.3002
v 1.0142 -0.2718 0.0000
v 1.0142 -0.2718 0.0000
v 1.0142 -0.2718 0.0000
v 1.0142 -0.2718 0.0000
v 1.0142 -0.2718 0.0000
v 1.0142 -0.2718 -0.0000
v 1.0142 -0.2718 -0.0000
v 1.0142 -0.2718 -0.0000
v 0.8496 0.3694 0.0000
v 0.8496 0.3694 0.0000
v 0.8496 0.3694 0.0000
v 0.8496 0.3694 0.0000
v 0.8496 0.3694 0.0000
v 0.8496 0.3694 0.0000
v 1.1442 0.4742 0.0000
v 0.9937 0.4339 0.1275
v 0.6925 0.3532 0.1275
v 0.5419 0.3129 0.0000
v 0.6925 0.3532 -0.1275
v 0.9937 0.4339 -0.1275
v 1.1313 0.5225 0.0000
v 0.9807 0.4822 0.1275
v 0.6796 0.4015 0.1275
v 0.5290 0.3612 0.0000
v 0.6796 0.4015 -0.1275
v 0.9807 0.4822 -0.1275
v 0.8237 0.4660 0.0000
v 0.8237 0.4660 0.0000
v 0.8237 0.4660 0.0000
v 0.8237 0.4660 0.0000
v 0.8237 0.4660 -0.0000
v 0.8237 0.4660 -0.0000
vn -0.6697 0.7115 0.2129
vn -0.7476 0.4207 0.5139
vn -0.8578 0.0095 0.5139
vn -0.9357 -0.2813 0.2129
vn -0.9357 -0.2813 -0.2129
vn -0.8578 0.0095 -0.5139
vn -0.7476 0.4207 -0.5139
vn -0.6697 0.7115 -0.2129
vn -0.2920 0.8984 0.3281
vn -0.2920 0.8984 0.3281
vn -0.4122 0.4501 0.7922
vn -0.4122 0.4501 0.7922
vn -0.5820 -0.1838 0.7922
vn -0.5820 -0.1838 0.7922
vn -0.7021 -0.6320 0.3281
vn -0.7021 -0.6320 0.3281
vn -0.7021 -0.6320 -0.3281
vn -0.7021 -0.6320 -0.3281
vn -0.5820 -0.1838 -0.7922
vn -0.5820 -0.1838 -0.7922
vn -0.4122 0.4501 -0.7922
vn -0.4122 0.4501 -0.7922
vn -0.2920 0.8984 -0.3281
vn -0.2920 0.8984 -0.3281
vn -0.0772 0.9285 0.3632
vn -0.0772 0.9285 0.3632
vn -0.2102 0.4323 0.8769
vn -0.2102 0.4323 0.8769
vn -0.3982 -0.2693 0.8769
vn -0.3982 -0.2693 0.8769
vn -0.5311 -0.7655 0.3632
vn -0.5311 -0.7655 0.3632
vn -0.5311 -0.7655 -0.3632
vn -0.5311 -0.7655 -0.3632
vn -0.3982 -0.2693 -0.8769
vn -0.3982 -0.2693 -0.8769
vn -0.2102 0.4323 -0.8769
vn -0.2102 0.4323 -0.8769
vn -0.0772 0.9285 -0.3632
vn -0.0772 0.9285 -0.3632
vn 0.1340 0.9150 0.3805
vn 0.1340 0.9150 0.3805
vn -0.0052 0.3953 0.9185
vn -0.0052 0.3953 0.9185
vn -0.2022 -0.3397 0.9185
vn -0.2022 -0.3397 0.9185
vn -0.3414 -0.8595 0.3805
vn -0.3414 -0.8595 0.3805
vn -0.3414 -0.8595 -0.3805
vn -0.3414 -0.8595 -0.3805
vn -0.2022 -0.3397 -0.9185
vn -0.2022 -0.3397 -0.9185
vn -0.0052 0.3953 -0.9185
vn -0.0052 0.3953 -0.9185
vn 0.1340 0.9150 -0.3805
vn 0.1340 0.9150 -0.3805
vn 0.3414 0.8595 0.3805
vn 0.3414 0.8595 0.3805
vn 0.2022 0.3397 0.9185
vn 0.2022 0.3397 0.9185
vn 0.0052 -0.3953 0.9185
vn 0.0052 -0.3953 0.9185
vn -0.1340 -0.9150 0.3805
vn -0.1340 -0.9150 0.3805
vn -0.1340 -0.9150 -0.3805
vn -0.1340 -0.9150 -0.3805
vn 0.0052 -0.3953 -0.9185
vn 0.0052 -0.3953 -0.9185
vn 0.2022 0.3397 -0.9185
vn 0.2022 0.3397 -0.9185
vn 0.3414 0.8595 -0.3805
vn 0.3414 0.8595 -0.3805
vn 0.5311 0.7655 0.3632
vn 0.5311 0.7655 0.3632
vn 0.3982 0.2693 0.8769
vn 0.3982 0.2693 0.8769
vn 0.2102 -0.4323 0.8769
vn 0.2102 -0.4323 0.8769
vn 0.0772 -0.9285 0.3632
vn 0.0772 -0.9285 0.3632
vn 0.0772 -0.9285 -0.3632
vn 0.0772 -0.9285 -0.3632
vn 0.2102 -0.4323 -0.8769
vn 0.2102 -0.4323 -0.8769
vn 0.3982 0.2693 -0.8769
vn 0.3982 0.2693 -0.8769
vn 0.5311 0.7655 -0.3632
vn 0.5311 0.7655 -0.3632
vn 0.7021 0.6320 0.3281
vn 0.7021 0.6320 0.3281
vn 0.5820 0.1838 0.7922
vn 0.5820 0.1838 0.7922
vn 0.4122 -0.4501 0.7922
vn 0.4122 -0.4501 0.7922
vn 0.2920 -0.8984 0.3281
vn 0.2920 -0.8984 0.3281
vn 0.2920 -0.8984 -0.3281
vn 0.2920 -0.8984 -0.3281
vn 0.4122 -0.4501 -0.7922
vn 0.4122 -0.4501 -0.7922
vn 0.5820 0.1838 -0.7922
vn 0.5820 0.1838 -0.7922
vn 0.7021 0.6320 -0.3281
vn 0.7021 0.6320 -0.3281
vn 0.9357 0.2813 0.2129
vn 0.8578 -0.0095 0.5139
vn 0.7476 -0.4207 0.5139
vn 0.6697 -0.7115 0.2129
vn 0.6697 -0.7115 -0.2129
vn 0.7476 -0.4207 -0.5139
vn 0.8578 -0.0095 -0.5139
vn 0.9357 0.2813 -0.2129
vn -0.3336 0.9377 -0.0973
vn -0.2540 0.9479 -0.1924
vn -0.1799 0.9789 -0.0973
vn -0.1799 0.9789 0.0973
vn -0.2540 0.9479 0.1924
vn -0.3336 0.9377 0.0973
vn -0.6115 -0.1639 -0.7741
vn -0.6115 -0.1639 -0.7741
vn -0.0000 0.0000 -1.0000
vn -0.0000 -0.0000 -1.0000
vn 0.6115 0.1639 -0.7741
vn 0.6115 0.1639 -0.7741
vn 0.6115 0.1639 0.7741
vn 0.6115 0.1639 0.7741
vn 0.0000 0.0000 1.0000
vn -0.0000 0.0000 1.0000
vn -0.6115 -0.1639 0.7741
vn -0.6115 -0.1639 0.7741
vn 0.1799 -0.9789 -0.0973
vn 0.2540 -0.9479 -0.1924
vn 0.3336 -0.9377 -0.0973
vn 0.3336 -0.9377 0.0973
vn 0.2540 -0.9479 0.1924
vn 0.1799 -0.9789 0.0973
usemtl c0
f 1//1 10//1 9//1
f 2//2 11//2 10//2
f 3//3 12//3 11//3
f 4//4 13//4 12//4
f 5//5 14//5 13//5
f 6//6 15//6 14//6
f 7//7 16//7 15//7
f 8//8 9//8 16//8
f 9//9 10//9 18//9
f 9//10 18//10 17//10
f 10//11 11//11 19//11
f 10//12 19//12 18//12
f 11//13 12//13 20//13
f 11//14 20//14 19//14
f 12//15 13//15 21//15
f 12//16 21//16 20//16
f 13//17 14//17 22//17
f 13//18 22//18 21//18
f 14//19 15//19 23//19
f 14//20 23//20 22//20
f 15//21 16//21 24//21
f 15//22 24//22 23//22
f 16//23 9//23 17//23
f 16//24 17//24 24//24
f 17//25 18//25 26//25
f 17//26 26//26 25//26
f 18//27 19//27 27//27
f 18//28 27//28 26//28
f 19//29 20//29 28//29
f 19//30 28//30 27//30
f 20//31 21//31 29//31
f 20//32 29//32 28//32
f 21//33 22//33 30//33
f 21//34 30//34 29//34
f 22//35 23//35 31//35
f 22//36 31//36 30//36
f 23//37 24//37 32//37
f 23//38 32//38 31//38
f 24//39 17//39 25//39
f 24//40 25//40 32//40
f 25//41 26//41 34//41
f 25//42 34//42 33//42
f 26//43 27//43 35//43
f 26//44 35//44 34//44
f 27//45 28//45 36//45
f 27//46 36//46 35//46
f 28//47 29//47 37//47
f 28//48 37//48 36//48
f 29//49 30//49 38//49
f 29//50 38//50 37//50
f 30//51 31//51 39//51
f 30//52 39//52 38//52
f 31//53 32//53 40//53
f 31//54 40//54 39//54
f 32//55 25//55 33//55
f 32//56 33//56 40//56
f 33//57 34//57 42//57
f 33//58 42//58 41//58
f 34//59 35//59 43//59
f 34//60 43//60 42//60
f 35//61 36//61 44//61
f 35//62 44//62 43//62
f 36//63 37//63 45//63
f 36//64 45//64 44//64
f 37//65 38//65 46//65
f 37//66 46//66 45//66
f 38//67 39//67 47//67
f 38//68 47//68 46//68
f 39//69 40//69 48//69
f 39//70 48//70 47//70
f 40//71 33//71 41//71
f 40//72 41//72 48//72
f 41//73 42//73 50//73
f 41//74 50//74 49//74
f 42//75 43//75 51//75
f 42//76 51//76 50//76
f 43//77 44//77 52//77
f 43//78 52//78 51//78
f 44//79 45//79 53//79
f 44//80 53//80 52//80
f 45//81 46//81 54//81
f 45//82 54//82 53//82
f 46//83 47//83 55//83
f 46//84 55//84 54//84
f 47//85 48//85 56//85
f 47//86 56//86 55//86
f 48//87 41//87 49//87
f 48//88 49//88 56//88
f 49//89 50//89 58//89
f 49//90 58//90 57//90
f 50//91 51//91 59//91
f 50//92 59//92 58//92
f 51//93 52//93 60//93
f 51//94 60//94 59//94
f 52//95 53//95 61//95
f 52//96 61//96 60//96
f 53//97 54//97 62//97
f 53//98 62//98 61//98
f 54//99 55//99 63//99
f 54//100 63//100 62//100
f 55//101 56//101 64//101
f 55//102 64//102 63//102
f 56//103 49//103 57//103
f 56//104 57//104 64//104
f 57//105 58//105 66//105
f 58//106 59//106 67//106
f 59//107 60//107 68//107
f 60//108 61//108 69//108
f 61//109 62//109 70//109
f 62//110 63//110 71//110
f 63//111 64//111 72//111
f 64//112 57//112 65//112
usemtl c1
f 73//113 80//113 79//113
f 74//114 81//114 80//114
f 75//115 82//115 81//115
f 76//116 83//116 82//116
f 77//117 84//117 83//117
f 78//118 79//118 84//118
f 79//119 80//119 86//119
f 79//120 86//120 85//120
f 80//121 81//121 87//121
f 80//122 87//122 86//122
f 81//123 82//123 88//123
f 81//124 88//124 87//124
f 82//125 83//125 89//125
f 82//126 89//126 88//126
f 83//127 84//127 90//127
f 83//128 90//128 89//128
f 84//129 79//129 85//129
f 84//130 85//130 90//130
f 85//131 86//131 92//131
f 86//132 87//132 93//132
f 87//133 88//133 94//133
f 88//134 89//134 95//134
f 89//135 90//135 96//135
f 90//136 85//136 91//136
