mtllib Food_Mushroom.mtl
v 0.2000 0.0000 0.0000
v 0.1247 0.0000 0.1564
v -0.0445 0.0000 0.1950
v -0.1802 0.0000 0.0868
v -0.1802 0.0000 -0.0868
v -0.0445 0.0000 -0.1950
v 0.1247 0.0000 -0.1564
v 0.2600 0.5000 0.0000
v 0.1621 0.5000 0.2033
v -0.0579 0.5000 0.2535
v -0.2343 0.5000 0.1128
v -0.2343 0.5000 -0.1128
v -0.0579 0.5000 -0.2535
v 0.1621 0.5000 -0.2033
v 0.3400 0.7500 0.0000
v 0.2120 0.7500 0.2658
v -0.0757 0.7500 0.3315
v -0.3063 0.7500 0.1475
v -0.3063 0.7500 -0.1475
v -0.0757 0.7500 -0.3315
v 0.2120 0.7500 -0.2658
v 0.0000 0.0000 0.0000
v 0.0000 0.7500 0.0000
v 0.0000 0.6200 0.0000
v 0.0000 0.6200 0.0000
v 0.0000 0.6200 0.0000
v 0.0000 0.6200 0.0000
v 0.0000 0.6200 0.0000
v 0.0000 0.6200 0.0000
v 0.0000 0.6200 0.0000
v 0.0000 0.6200 0.0000
v 0.0000 0.6200 0.0000
v 1.0000 0.6200 0.0000
v 0.7660 0.6200 0.6428
v 0.1736 0.6200 0.9848
v -0.5000 0.6200 0.8660
v -0.9397 0.6200 0.3420
v -0.9397 0.6200 -0.3420
v -0.5000 0.6200 -0.8660
v 0.1736 0.6200 -0.9848
v 0.7660 0.6200 -0.6428
v 0.9500 0.8200 0.0000
v 0.7277 0.8200 0.6106
v 0.1650 0.8200 0.9356
v -0.4750 0.8200 0.8227
v -0.8927 0.8200 0.3249
v -0.8927 0.8200 -0.3249
v -0.4750 0.8200 -0.8227
v 0.1650 0.8200 -0.9356
v 0.7277 0.8200 -0.6106
v 0.7000 1.1000 0.0000
v 0.5362 1.1000 0.4500
v 0.1216 1.1000 0.6894
v -0.3500 1.1000 0.6062
v -0.6578 1.1000 0.2394
v -0.6578 1.1000 -0.2394
v -0.3500 1.1000 -0.6062
v 0.1216 1.1000 -0.6894
v 0.5362 1.1000 -0.4500
v 0.3200 1.3000 0.0000
v 0.2451 1.3000 0.2057
v 0.0556 1.3000 0.3151
v -0.1600 1.3000 0.2771
v -0.3007 1.3000 0.1094
v -0.3007 1.3000 -0.1094
v -0.1600 1.3000 -0.2771
v 0.0556 1.3000 -0.3151
v 0.2451 1.3000 -0.2057
v 0.0000 1.3400 0.0000
v 0.0000 1.3400 0.0000
v 0.0000 1.3400 0.0000
v 0.0000 1.3400 0.0000
v 0.0000 1.3400 0.0000
v 0.0000 1.3400 0.0000
v 0.0000 1.3400 0.0000
v 0.0000 1.3400 0.0000
v 0.0000 1.3400 0.0000
v -0.3000 1.1700 0.1000
v -0.3000 1.1700 0.1000
v -0.3000 1.1700 0.1000
v -0.3000 1.1700 0.1000
v -0.3000 1.1700 0.1000
v -0.1788 1.1950 0.1000
v -0.2625 1.1950 0.2153
v -0.3981 1.1950 0.1713
v -0.3981 1.1950 0.0287
v -0.2625 1.1950 -0.0153
v -0.1788 1.2450 0.1000
v -0.2625 1.2450 0.2153
v -0.3981 1.2450 0.1713
v -0.3981 1.2450 0.0287
v -0.2625 1.2450 -0.0153
v -0.3000 1.2700 0.1000
v -0.3000 1.2700 0.1000
v -0.3000 1.2700 0.1000
v -0.3000 1.2700 0.1000
v -0.3000 1.2700 0.1000
v 0.3000 1.1000 0.3000
v 0.3000 1.1000 0.3000
v 0.3000 1.1000 0.3000
v 0.3000 1.1000 0.3000
v 0.3000 1.1000 0.3000
v 0.4212 1.1250 0.3000
v 0.3375 1.1250 0.4153
v 0.2019 1.1250 0.3713
v 0.2019 1.1250 0.2287
v 0.3375 1.1250 0.1847
v 0.4212 1.1750 0.3000
v 0.3375 1.1750 0.4153
v 0.2019 1.1750 0.3713
v 0.2019 1.1750 0.2287
v 0.3375 1.1750 0.1847
v 0.3000 1.2000 0.3000
v 0.3000 1.2000 0.3000
v 0.3000 1.2000 0.3000
v 0.3000 1.2000 0.3000
v 0.3000 1.2000 0.3000
v 0.1000 1.2500 -0.3000
v 0.1000 1.2500 -0.3000
v 0.1000 1.2500 -0.3000
v 0.1000 1.2500 -0.3000
v 0.1000 1.2500 -0.3000
v 0.2212 1.2750 -0.3000
v 0.1375 1.2750 -0.1847
v 0.0019 1.2750 -0.2287
v 0.0019 1.2750 -0.3713
v 0.1375 1.2750 -0.4153
v 0.2212 1.3250 -0.3000
v 0.1375 1.3250 -0.1847
v 0.0019 1.3250 -0.2287
v 0.0019 1.3250 -0.3713
v 0.1375 1.3250 -0.4153
v 0.1000 1.3500 -0.3000
v 0.1000 1.3500 -0.3000
v 0.1000 1.3500 -0.3000
v 0.1000 1.3500 -0.3000
v 0.1000 1.3500 -0.3000
vn -0.8957 0.1075 -0.4314
vn -0.8957 0.1075 -0.4314
vn -0.2212 0.1075 -0.9693
vn -0.2212 0.1075 -0.9693
vn 0.6199 0.1075 -0.7773
vn 0.6199 0.1075 -0.7773
vn 0.9942 0.1075 0.0000
vn 0.9942 0.1075 -0.0000
vn 0.6199 0.1075 0.7773
vn 0.6199 0.1075 0.7773
vn -0.2212 0.1075 0.9693
vn -0.2212 0.1075 0.9693
vn -0.8957 0.1075 0.4314
vn -0.8957 0.1075 0.4314
vn -0.8657 0.2770 -0.4169
vn -0.8657 0.2770 -0.4169
vn -0.2138 0.2770 -0.9368
vn -0.2138 0.2770 -0.9368
vn 0.5991 0.2770 -0.7512
vn 0.5991 0.2770 -0.7512
vn 0.9609 0.2770 -0.0000
vn 0.9609 0.2770 -0.0000
vn 0.5991 0.2770 0.7512
vn 0.5991 0.2770 0.7512
vn -0.2138 0.2770 0.9368
vn -0.2138 0.2770 0.9368
vn -0.8657 0.2770 0.4169
vn -0.8657 0.2770 0.4169
vn 0.0000 -1.0000 0.0000
vn 0.0000 -1.0000 0.0000
vn 0.0000 -1.0000 0.0000
vn -0.0000 -1.0000 0.0000
vn 0.0000 -1.0000 0.0000
vn 0.0000 -1.0000 -0.0000
vn 0.0000 -1.0000 0.0000
vn 0.0000 -1.0000 0.0000
vn 0.0000 -1.0000 0.0000
vn 0.0000 -1.0000 0.0000
vn -0.0000 -1.0000 0.0000
vn 0.0000 -1.0000 0.0000
vn 0.0000 -1.0000 -0.0000
vn 0.0000 -1.0000 0.0000
vn 0.0000 1.0000 0.0000
vn 0.0000 1.0000 0.0000
vn 0.0000 1.0000 -0.0000
vn 0.0000 1.0000 0.0000
vn 0.0000 1.0000 0.0000
vn 0.0000 1.0000 0.0000
vn 0.0000 1.0000 0.0000
vn 0.0000 1.0000 0.0000
vn -0.0000 1.0000 0.0000
vn -0.9148 -0.2287 -0.3330
vn -0.9148 -0.2287 -0.3330
vn -0.4867 -0.2287 -0.8431
vn -0.4867 -0.2287 -0.8431
vn 0.1690 -0.2287 -0.9587
vn 0.1690 -0.2287 -0.9587
vn 0.7457 -0.2287 -0.6258
vn 0.7457 -0.2287 -0.6258
vn 0.9735 -0.2287 -0.0000
vn 0.9735 -0.2287 -0.0000
vn 0.7457 -0.2287 0.6258
vn 0.7457 -0.2287 0.6258
vn 0.1690 -0.2287 0.9587
vn 0.1690 -0.2287 0.9587
vn -0.4867 -0.2287 0.8431
vn -0.4867 -0.2287 0.8431
vn -0.9148 -0.2287 0.3330
vn -0.9148 -0.2287 0.3330
vn -0.7199 -0.6427 -0.2620
vn -0.7199 -0.6427 -0.2620
vn -0.3830 -0.6427 -0.6634
vn -0.3830 -0.6427 -0.6634
vn 0.1330 -0.6427 -0.7544
vn 0.1330 -0.6427 -0.7544
vn 0.5868 -0.6427 -0.4924
vn 0.5868 -0.6427 -0.4924
vn 0.7661 -0.6427 -0.0000
vn 0.7661 -0.6427 0.0000
vn 0.5868 -0.6427 0.4924
vn 0.5868 -0.6427 0.4924
vn 0.1330 -0.6427 0.7544
vn 0.1330 -0.6427 0.7544
vn -0.3830 -0.6427 0.6634
vn -0.3830 -0.6427 0.6634
vn -0.7199 -0.6427 0.2620
vn -0.7199 -0.6427 0.2620
vn -0.4592 -0.8725 -0.1671
vn -0.4592 -0.8725 -0.1671
vn -0.2443 -0.8725 -0.4232
vn -0.2443 -0.8725 -0.4232
vn 0.0849 -0.8725 -0.4812
vn 0.0849 -0.8725 -0.4812
vn 0.3743 -0.8725 -0.3141
vn 0.3743 -0.8725 -0.3141
vn 0.4887 -0.8725 0.0000
vn 0.4887 -0.8725 0.0000
vn 0.3743 -0.8725 0.3141
vn 0.3743 -0.8725 0.3141
vn 0.0849 -0.8725 0.4812
vn 0.0849 -0.8725 0.4812
vn -0.2443 -0.8725 0.4232
vn -0.2443 -0.8725 0.4232
vn -0.4592 -0.8725 0.1671
vn -0.4592 -0.8725 0.1671
vn -0.1239 -0.9913 -0.0451
vn -0.0659 -0.9913 -0.1142
vn 0.0229 -0.9913 -0.1299
vn 0.1010 -0.9913 -0.0848
vn 0.1319 -0.9913 0.0000
vn 0.1010 -0.9913 0.0848
vn 0.0229 -0.9913 0.1299
vn -0.0659 -0.9913 0.1142
vn -0.1239 -0.9913 0.0451
vn -0.1998 0.9690 -0.1452
vn 0.0763 0.9690 -0.2349
vn 0.2470 0.9690 0.0000
vn 0.0763 0.9690 0.2349
vn -0.1998 0.9690 0.1452
vn -0.8090 0.0000 -0.5878
vn -0.8090 0.0000 -0.5878
vn 0.3090 0.0000 -0.9511
vn 0.3090 0.0000 -0.9511
vn 1.0000 0.0000 0.0000
vn 1.0000 0.0000 -0.0000
vn 0.3090 -0.0000 0.9511
vn 0.3090 0.0000 0.9511
vn -0.8090 0.0000 0.5878
vn -0.8090 0.0000 0.5878
vn -0.1998 -0.9690 -0.1452
vn 0.0763 -0.9690 -0.2349
vn 0.2470 -0.9690 -0.0000
vn 0.0763 -0.9690 0.2349
vn -0.1998 -0.9690 0.1452
vn -0.1998 0.9690 -0.1452
vn 0.0763 0.9690 -0.2349
vn 0.2470 0.9690 -0.0000
vn 0.0763 0.9690 0.2349
vn -0.1998 0.9690 0.1452
vn -0.8090 0.0000 -0.5878
vn -0.8090 0.0000 -0.5878
vn 0.3090 0.0000 -0.9511
vn 0.3090 0.0000 -0.9511
vn 1.0000 0.0000 -0.0000
vn 1.0000 0.0000 -0.0000
vn 0.3090 -0.0000 0.9511
vn 0.3090 0.0000 0.9511
vn -0.8090 0.0000 0.5878
vn -0.8090 0.0000 0.5878
vn -0.1998 -0.9690 -0.1452
vn 0.0763 -0.9690 -0.2349
vn 0.2470 -0.9690 -0.0000
vn 0.0763 -0.9690 0.2349
vn -0.1998 -0.9690 0.1452
vn -0.1998 0.9690 -0.1452
vn 0.0763 0.9690 -0.2349
vn 0.2470 0.9690 -0.0000
vn 0.0763 0.9690 0.2349
vn -0.1998 0.9690 0.1452
vn -0.8090 0.0000 -0.5878
vn -0.8090 0.0000 -0.5878
vn 0.3090 0.0000 -0.9511
vn 0.3090 0.0000 -0.9511
vn 1.0000 0.0000 -0.0000
vn 1.0000 0.0000 -0.0000
vn 0.3090 0.0000 0.9511
vn 0.3090 0.0000 0.9511
vn -0.8090 0.0000 0.5878
vn -0.8090 0.0000 0.5878
vn -0.1998 -0.9690 -0.1452
vn 0.0763 -0.9690 -0.2349
vn 0.2470 -0.9690 -0.0000
vn 0.0763 -0.9690 0.2349
vn -0.1998 -0.9690 0.1452
usemtl c0
f 1//1 2//1 9//1
f 1//2 9//2 8//2
f 2//3 3//3 10//3
f 2//4 10//4 9//4
f 3//5 4//5 11//5
f 3//6 11//6 10//6
f 4//7 5//7 12//7
f 4//8 12//8 11//8
f 5//9 6//9 13//9
f 5//10 13//10 12//10
f 6//11 7//11 14//11
f 6//12 14//12 13//12
f 7//13 1//13 8//13
f 7//14 8//14 14//14
f 8//15 9//15 16//15
f 8//16 16//16 15//16
f 9//17 10//17 17//17
f 9//18 17//18 16//18
f 10//19 11//19 18//19
f 10//20 18//20 17//20
f 11//21 12//21 19//21
f 11//22 19//22 18//22
f 12//23 13//23 20//23
f 12//24 20//24 19//24
f 13//25 14//25 21//25
f 13//26 21//26 20//26
f 14//27 8//27 15//27
f 14//28 15//28 21//28
f 22//29 1//29 2//29
f 22//30 2//30 3//30
f 22//31 3//31 4//31
f 22//32 4//32 5//32
f 22//33 5//33 6//33
f 22//34 6//34 7//34
f 22//35 7//35 1//35
f 23//36 15//36 16//36
f 23//37 16//37 17//37
f 23//38 17//38 18//38
f 23//39 18//39 19//39
f 23//40 19//40 20//40
f 23//41 20//41 21//41
f 23//42 21//42 15//42
usemtl c1
f 24//43 34//43 33//43
f 25//44 35//44 34//44
f 26//45 36//45 35//45
f 27//46 37//46 36//46
f 28//47 38//47 37//47
f 29//48 39//48 38//48
f 30//49 40//49 39//49
f 31//50 41//50 40//50
f 32//51 33//51 41//51
f 33//52 34//52 43//52
f 33//53 43//53 42//53
f 34//54 35//54 44//54
f 34//55 44//55 43//55
f 35//56 36//56 45//56
f 35//57 45//57 44//57
f 36//58 37//58 46//58
f 36//59 46//59 45//59
f 37//60 38//60 47//60
f 37//61 47//61 46//61
f 38//62 39//62 48//62
f 38//63 48//63 47//63
f 39//64 40//64 49//64
f 39//65 49//65 48//65
f 40//66 41//66 50//66
f 40//67 50//67 49//67
f 41//68 33//68 42//68
f 41//69 42//69 50//69
f 42//70 43//70 52//70
f 42//71 52//71 51//71
f 43//72 44//72 53//72
f 43//73 53//73 52//73
f 44//74 45//74 54//74
f 44//75 54//75 53//75
f 45//76 46//76 55//76
f 45//77 55//77 54//77
f 46//78 47//78 56//78
f 46//79 56//79 55//79
f 47//80 48//80 57//80
f 47//81 57//81 56//81
f 48//82 49//82 58//82
f 48//83 58//83 57//83
f 49//84 50//84 59//84
f 49//85 59//85 58//85
f 50//86 42//86 51//86
f 50//87 51//87 59//87
f 51//88 52//88 61//88
f 51//89 61//89 60//89
f 52//90 53//90 62//90
f 52//91 62//91 61//91
f 53//92 54//92 63//92
f 53//93 63//93 62//93
f 54//94 55//94 64//94
f 54//95 64//95 63//95
f 55//96 56//96 65//96
f 55//97 65//97 64//97
f 56//98 57//98 66//98
f 56//99 66//99 65//99
f 57//100 58//100 67//100
f 57//101 67//101 66//101
f 58//102 59//102 68//102
f 58//103 68//103 67//103
f 59//104 51//104 60//104
f 59//105 60//105 68//105
f 60//106 61//106 70//106
f 61//107 62//107 71//107
f 62//108 63//108 72//108
f 63//109 64//109 73//109
f 64//110 65//110 74//110
f 65//111 66//111 75//111
f 66//112 67//112 76//112
f 67//113 68//113 77//113
f 68//114 60//114 69//114
usemtl c2
f 78//115 84//115 83//115
f 79//116 85//116 84//116
f 80//117 86//117 85//117
f 81//118 87//118 86//118
f 82//119 83//119 87//119
f 83//120 84//120 89//120
f 83//121 89//121 88//121
f 84//122 85//122 90//122
f 84//123 90//123 89//123
f 85//124 86//124 91//124
f 85//125 91//125 90//125
f 86//126 87//126 92//126
f 86//127 92//127 91//127
f 87//128 83//128 88//128
f 87//129 88//129 92//129
f 88//130 89//130 94//130
f 89//131 90//131 95//131
f 90//132 91//132 96//132
f 91//133 92//133 97//133
f 92//134 88//134 93//134
f 98//135 104//135 103//135
f 99//136 105//136 104//136
f 100//137 106//137 105//137
f 101//138 107//138 106//138
f 102//139 103//139 107//139
f 103//140 104//140 109//140
f 103//141 109//141 108//141
f 104//142 105//142 110//142
f 104//143 110//143 109//143
f 105//144 106//144 111//144
f 105//145 111//145 110//145
f 106//146 107//146 112//146
f 106//147 112//147 111//147
f 107//148 103//148 108//148
f 107//149 108//149 112//149
f 108//150 109//150 114//150
f 109//151 110//151 115//151
f 110//152 111//152 116//152
f 111//153 112//153 117//153
f 112//154 108//154 113//154
f 118//155 124//155 123//155
f 119//156 125//156 124//156
f 120//157 126//157 125//157
f 121//158 127//158 126//158
f 122//159 123//159 127//159
f 123//160 124//160 129//160
f 123//161 129//161 128//161
f 124//162 125//162 130//162
f 124//163 130//163 129//163
f 125//164 126//164 131//164
f 125//165 131//165 130//165
f 126//166 127//166 132//166
f 126//167 132//167 131//167
f 127//168 123//168 128//168
f 127//169 128//169 132//169
f 128//170 129//170 134//170
f 129//171 130//171 135//171
f 130//172 131//172 136//172
f 131//173 132//173 137//173
f 132//174 128//174 133//174
