mtllib Food_Scallion.mtl
v -0.1468 -1.1225 0.0529
v -0.2425 -1.0914 0.0856
v -0.3016 -1.0722 0.0000
v -0.2425 -1.0914 -0.0856
v -0.1468 -1.1225 -0.0529
v 0.0696 -0.4568 0.0529
v -0.0261 -0.4257 0.0856
v -0.0853 -0.4064 0.0000
v -0.0261 -0.4257 -0.0856
v 0.0696 -0.4568 -0.0529
v -0.2160 -1.1000 0.0000
v 0.0003 -0.4343 0.0000
v 0.0773 -0.4593 0.0588
v -0.0291 -0.4247 0.0951
v -0.0948 -0.4034 0.0000
v -0.0291 -0.4247 -0.0951
v 0.0773 -0.4593 -0.0588
v 0.3243 0.1965 0.0823
v 0.1755 0.2448 0.1331
v 0.0835 0.2747 0.0000
v 0.1755 0.2448 -0.1331
v 0.3243 0.1965 -0.0823
v 0.4482 0.7871 0.0353
v 0.3844 0.8078 0.0571
v 0.3450 0.8207 0.0000
v 0.3844 0.8078 -0.0571
v 0.4482 0.7871 -0.0353
v 0.4329 0.8972 0.0000
v 0.4329 0.8972 0.0000
v 0.4329 0.8972 0.0000
v 0.4329 0.8972 0.0000
v 0.4329 0.8972 0.0000
v 0.0003 -0.4343 0.0000
v 0.0900 -1.1000 0.0000
v 0.0278 -1.1000 0.0856
v -0.0728 -1.1000 0.0529
v -0.0728 -1.1000 -0.0529
v 0.0278 -1.1000 -0.0856
v 0.0900 -0.4000 0.0000
v 0.0278 -0.4000 0.0856
v -0.0728 -0.4000 0.0529
v -0.0728 -0.4000 -0.0529
v 0.0278 -0.4000 -0.0856
v 0.0000 -1.1000 0.0000
v 0.0000 -0.4000 0.0000
v 0.1000 -0.4000 0.0000
v 0.0309 -0.4000 0.0951
v -0.0809 -0.4000 0.0588
v -0.0809 -0.4000 -0.0588
v 0.0309 -0.4000 -0.0951
v 0.1400 0.3000 0.0000
v 0.0433 0.3000 0.1331
v -0.1133 0.3000 0.0823
v -0.1133 0.3000 -0.0823
v 0.0433 0.3000 -0.1331
v 0.0600 0.9000 0.0000
v 0.0185 0.9000 0.0571
v -0.0485 0.9000 0.0353
v -0.0485 0.9000 -0.0353
v 0.0185 0.9000 -0.0571
v 0.0000 1.0000 0.0000
v 0.0000 1.0000 0.0000
v 0.0000 1.0000 0.0000
v 0.0000 1.0000 0.0000
v 0.0000 1.0000 0.0000
v 0.0000 -0.4000 0.0000
v 0.2852 -1.0775 -0.0529
v 0.2852 -1.0775 0.0529
v 0.1895 -1.1086 0.0856
v 0.1304 -1.1278 0.0000
v 0.1895 -1.1086 -0.0856
v 0.0689 -0.4118 -0.0529
v 0.0689 -0.4118 0.0529
v -0.0268 -0.4429 0.0856
v -0.0859 -0.4621 0.0000
v -0.0268 -0.4429 -0.0856
v 0.2160 -1.1000 0.0000
v -0.0003 -0.4343 0.0000
v 0.0766 -0.4093 -0.0588
v 0.0766 -0.4093 0.0588
v -0.0297 -0.4438 0.0951
v -0.0954 -0.4652 0.0000
v -0.0297 -0.4438 -0.0951
v -0.1089 0.2665 -0.0823
v -0.1089 0.2665 0.0823
v -0.2578 0.2181 0.1331
v -0.3498 0.1882 0.0000
v -0.2578 0.2181 -0.1331
v -0.3559 0.8171 -0.0353
v -0.3559 0.8171 0.0353
v -0.4197 0.7964 0.0571
v -0.4591 0.7836 0.0000
v -0.4197 0.7964 -0.0571
v -0.4329 0.8972 0.0000
v -0.4329 0.8972 0.0000
v -0.4329 0.8972 0.0000
v -0.4329 0.8972 0.0000
v -0.4329 0.8972 0.0000
v -0.0003 -0.4343 0.0000
vn -0.2939 0.0955 -0.9511
vn -0.2939 0.0955 -0.9511
vn 0.7694 -0.2500 -0.5878
vn 0.7694 -0.2500 -0.5878
vn 0.7694 -0.2500 0.5878
vn 0.7694 -0.2500 0.5878
vn -0.2939 0.0955 0.9511
vn -0.2939 0.0955 0.9511
vn -0.9511 0.3090 0.0000
vn -0.9511 0.3090 0.0000
vn -0.3090 -0.9511 0.0000
vn -0.3090 -0.9511 0.0000
vn -0.3090 -0.9511 -0.0000
vn -0.3090 -0.9511 -0.0000
vn -0.3090 -0.9511 0.0000
vn -0.3090 -0.9511 0.0000
vn -0.3090 -0.9511 0.0000
vn -0.3090 -0.9511 -0.0000
vn -0.3090 -0.9511 -0.0000
vn -0.3090 -0.9511 0.0000
vn -0.2793 0.1393 -0.9500
vn -0.2793 0.1393 -0.9500
vn 0.7829 -0.2058 -0.5872
vn 0.7829 -0.2058 -0.5872
vn 0.7829 -0.2058 0.5872
vn 0.7829 -0.2058 0.5872
vn -0.2793 0.1393 0.9500
vn -0.2793 0.1393 0.9500
vn -0.9358 0.3526 0.0000
vn -0.9358 0.3526 0.0000
vn -0.3253 -0.0071 -0.9456
vn -0.3253 -0.0071 -0.9456
vn 0.7318 -0.3506 -0.5844
vn 0.7318 -0.3506 -0.5844
vn 0.7318 -0.3506 0.5844
vn 0.7318 -0.3506 0.5844
vn -0.3253 -0.0071 0.9456
vn -0.3253 -0.0071 0.9456
vn -0.9787 0.2052 0.0000
vn -0.9787 0.2052 0.0000
vn -0.3993 -0.3294 -0.8556
vn 0.5572 -0.6402 -0.5288
vn 0.5572 -0.6402 0.5288
vn -0.3993 -0.3294 0.8556
vn -0.9905 -0.1373 0.0000
vn -0.3090 -0.9511 0.0000
vn -0.3090 -0.9511 0.0000
vn -0.3090 -0.9511 -0.0000
vn -0.3090 -0.9511 -0.0000
vn -0.3090 -0.9511 0.0000
vn -0.8090 0.0000 -0.5878
vn -0.8090 0.0000 -0.5878
vn 0.3090 0.0000 -0.9511
vn 0.3090 0.0000 -0.9511
vn 1.0000 0.0000 -0.0000
vn 1.0000 0.0000 -0.0000
vn 0.3090 0.0000 0.9511
vn 0.3090 -0.0000 0.9511
vn -0.8090 0.0000 0.5878
vn -0.8090 0.0000 0.5878
vn 0.0000 -1.0000 0.0000
vn 0.0000 -1.0000 0.0000
vn -0.0000 -1.0000 0.0000
vn 0.0000 -1.0000 -0.0000
vn 0.0000 -1.0000 0.0000
vn 0.0000 -1.0000 0.0000
vn 0.0000 -1.0000 0.0000
vn -0.0000 -1.0000 0.0000
vn 0.0000 -1.0000 -0.0000
vn 0.0000 -1.0000 0.0000
vn -0.8082 0.0462 -0.5872
vn -0.8082 0.0462 -0.5872
vn 0.3087 0.0462 -0.9500
vn 0.3087 0.0462 -0.9500
vn 0.9989 0.0462 -0.0000
vn 0.9989 0.0462 -0.0000
vn 0.3087 0.0462 0.9500
vn 0.3087 0.0462 0.9500
vn -0.8082 0.0462 0.5872
vn -0.8082 0.0462 0.5872
vn -0.8044 -0.1072 -0.5844
vn -0.8044 -0.1072 -0.5844
vn 0.3072 -0.1072 -0.9456
vn 0.3072 -0.1072 -0.9456
vn 0.9942 -0.1072 -0.0000
vn 0.9942 -0.1072 0.0000
vn 0.3072 -0.1072 0.9456
vn 0.3072 -0.1072 0.9456
vn -0.8044 -0.1072 0.5844
vn -0.8044 -0.1072 0.5844
vn -0.7278 -0.4367 -0.5288
vn 0.2780 -0.4367 -0.8556
vn 0.8996 -0.4367 -0.0000
vn 0.2780 -0.4367 0.8556
vn -0.7278 -0.4367 0.5288
vn 0.0000 -1.0000 0.0000
vn 0.0000 -1.0000 0.0000
vn -0.0000 -1.0000 0.0000
vn 0.0000 -1.0000 -0.0000
vn 0.0000 -1.0000 0.0000
vn -0.9511 -0.3090 0.0000
vn -0.9511 -0.3090 0.0000
vn -0.2939 -0.0955 -0.9511
vn -0.2939 -0.0955 -0.9511
vn 0.7694 0.2500 -0.5878
vn 0.7694 0.2500 -0.5878
vn 0.7694 0.2500 0.5878
vn 0.7694 0.2500 0.5878
vn -0.2939 -0.0955 0.9511
vn -0.2939 -0.0955 0.9511
vn 0.3090 -0.9511 0.0000
vn 0.3090 -0.9511 -0.0000
vn 0.3090 -0.9511 -0.0000
vn 0.3090 -0.9511 0.0000
vn 0.3090 -0.9511 0.0000
vn 0.3090 -0.9511 0.0000
vn 0.3090 -0.9511 0.0000
vn 0.3090 -0.9511 0.0000
vn 0.3090 -0.9511 -0.0000
vn 0.3090 -0.9511 -0.0000
vn -0.9643 -0.2648 0.0000
vn -0.9643 -0.2648 0.0000
vn -0.3078 -0.0515 -0.9500
vn -0.3078 -0.0515 -0.9500
vn 0.7543 0.2937 -0.5872
vn 0.7543 0.2937 -0.5872
vn 0.7543 0.2937 0.5872
vn 0.7543 0.2937 0.5872
vn -0.3078 -0.0515 0.9500
vn -0.3078 -0.0515 0.9500
vn -0.9124 -0.4092 0.0000
vn -0.9124 -0.4092 0.0000
vn -0.2591 -0.1969 -0.9456
vn -0.2591 -0.1969 -0.9456
vn 0.7981 0.1466 -0.5844
vn 0.7981 0.1466 -0.5844
vn 0.7981 0.1466 0.5844
vn 0.7981 0.1466 0.5844
vn -0.2591 -0.1969 0.9456
vn -0.2591 -0.1969 0.9456
vn -0.7206 -0.6933 0.0000
vn -0.1294 -0.5012 -0.8556
vn 0.8271 -0.1904 -0.5288
vn 0.8271 -0.1904 0.5288
vn -0.1294 -0.5012 0.8556
vn 0.3090 -0.9511 0.0000
vn 0.3090 -0.9511 0.0000
vn 0.3090 -0.9511 0.0000
vn 0.3090 -0.9511 0.0000
vn 0.3090 -0.9511 0.0000
usemtl c0
f 1//1 2//1 7//1
f 1//2 7//2 6//2
f 2//3 3//3 8//3
f 2//4 8//4 7//4
f 3//5 4//5 9//5
f 3//6 9//6 8//6
f 4//7 5//7 10//7
f 4//8 10//8 9//8
f 5//9 1//9 6//9
f 5//10 6//10 10//10
f 11//11 1//11 2//11
f 11//12 2//12 3//12
f 11//13 3//13 4//13
f 11//14 4//14 5//14
f 11//15 5//15 1//15
f 12//16 6//16 7//16
f 12//17 7//17 8//17
f 12//18 8//18 9//18
f 12//19 9//19 10//19
f 12//20 10//20 6//20
usemtl c1
f 13//21 14//21 19//21
f 13//22 19//22 18//22
f 14//23 15//23 20//23
f 14//24 20//24 19//24
f 15//25 16//25 21//25
f 15//26 21//26 20//26
f 16//27 17//27 22//27
f 16//28 22//28 21//28
f 17//29 13//29 18//29
f 17//30 18//30 22//30
f 18//31 19//31 24//31
f 18//32 24//32 23//32
f 19//33 20//33 25//33
f 19//34 25//34 24//34
f 20//35 21//35 26//35
f 20//36 26//36 25//36
f 21//37 22//37 27//37
f 21//38 27//38 26//38
f 22//39 18//39 23//39
f 22//40 23//40 27//40
f 23//41 24//41 29//41
f 24//42 25//42 30//42
f 25//43 26//43 31//43
f 26//44 27//44 32//44
f 27//45 23//45 28//45
f 33//46 13//46 14//46
f 33//47 14//47 15//47
f 33//48 15//48 16//48
f 33//49 16//49 17//49
f 33//50 17//50 13//50
usemtl c0
f 34//51 35//51 40//51
f 34//52 40//52 39//52
f 35//53 36//53 41//53
f 35//54 41//54 40//54
f 36//55 37//55 42//55
f 36//56 42//56 41//56
f 37//57 38//57 43//57
f 37//58 43//58 42//58
f 38//59 34//59 39//59
f 38//60 39//60 43//60
f 44//61 34//61 35//61
f 44//62 35//62 36//62
f 44//63 36//63 37//63
f 44//64 37//64 38//64
f 44//65 38//65 34//65
f 45//66 39//66 40//66
f 45//67 40//67 41//67
f 45//68 41//68 42//68
f 45//69 42//69 43//69
f 45//70 43//70 39//70
usemtl c1
f 46//71 47//71 52//71
f 46//72 52//72 51//72
f 47//73 48//73 53//73
f 47//74 53//74 52//74
f 48//75 49//75 54//75
f 48//76 54//76 53//76
f 49//77 50//77 55//77
f 49//78 55//78 54//78
f 50//79 46//79 51//79
f 50//80 51//80 55//80
f 51//81 52//81 57//81
f 51//82 57//82 56//82
f 52//83 53//83 58//83
f 52//84 58//84 57//84
f 53//85 54//85 59//85
f 53//86 59//86 58//86
f 54//87 55//87 60//87
f 54//88 60//88 59//88
f 55//89 51//89 56//89
f 55//90 56//90 60//90
f 56//91 57//91 62//91
f 57//92 58//92 63//92
f 58//93 59//93 64//93
f 59//94 60//94 65//94
f 60//95 56//95 61//95
f 66//96 46//96 47//96
f 66//97 47//97 48//97
f 66//98 48//98 49//98
f 66//99 49//99 50//99
f 66//100 50//100 46//100
usemtl c0
f 67//101 68//101 73//101
f 67//102 73//102 72//102
f 68//103 69//103 74//103
f 68//104 74//104 73//104
f 69//105 70//105 75//105
f 69//106 75//106 74//106
f 70//107 71//107 76//107
f 70//108 76//108 75//108
f 71//109 67//109 72//109
f 71//110 72//110 76//110
f 77//111 67//111 68//111
f 77//112 68//112 69//112
f 77//113 69//113 70//113
f 77//114 70//114 71//114
f 77//115 71//115 67//115
f 78//116 72//116 73//116
f 78//117 73//117 74//117
f 78//118 74//118 75//118
f 78//119 75//119 76//119
f 78//120 76//120 72//120
usemtl c1
f 79//121 80//121 85//121
f 79//122 85//122 84//122
f 80//123 81//123 86//123
f 80//124 86//124 85//124
f 81//125 82//125 87//125
f 81//126 87//126 86//126
f 82//127 83//127 88//127
f 82//128 88//128 87//128
f 83//129 79//129 84//129
f 83//130 84//130 88//130
f 84//131 85//131 90//131
f 84//132 90//132 89//132
f 85//133 86//133 91//133
f 85//134 91//134 90//134
f 86//135 87//135 92//135
f 86//136 92//136 91//136
f 87//137 88//137 93//137
f 87//138 93//138 92//138
f 88//139 84//139 89//139
f 88//140 89//140 93//140
f 89//141 90//141 95//141
f 90//142 91//142 96//142
f 91//143 92//143 97//143
f 92//144 93//144 98//144
f 93//145 89//145 94//145
f 99//146 79//146 80//146
f 99//147 80//147 81//147
f 99//148 81//148 82//148
f 99//149 82//149 83//149
f 99//150 83//150 79//150
