mtllib Food_Coffee.mtl
v 0.0000 0.0000 0.0000
v 0.0000 0.0000 0.0000
v 0.0000 0.0000 0.0000
v 0.0000 0.0000 0.0000
v 0.0000 0.0000 0.0000
v 0.0000 0.0000 0.0000
v 0.0000 0.0000 0.0000
v 0.0000 0.0000 0.0000
v 0.0000 0.0000 0.0000
v 0.0000 0.0000 0.0000
v 0.5000 0.0000 0.0000
v 0.4045 0.0000 0.2939
v 0.1545 0.0000 0.4755
v -0.1545 0.0000 0.4755
v -0.4045 0.0000 0.2939
v -0.5000 0.0000 0.0000
v -0.4045 0.0000 -0.2939
v -0.1545 0.0000 -0.4755
v 0.1545 0.0000 -0.4755
v 0.4045 0.0000 -0.2939
v 0.6600 1.3000 0.0000
v 0.5340 1.3000 0.3879
v 0.2040 1.3000 0.6277
v -0.2040 1.3000 0.6277
v -0.5340 1.3000 0.3879
v -0.6600 1.3000 0.0000
v -0.5340 1.3000 -0.3879
v -0.2040 1.3000 -0.6277
v 0.2040 1.3000 -0.6277
v 0.5340 1.3000 -0.3879
v 0.0000 1.3000 0.0000
v 0.5457 0.3200 0.0000
v 0.4415 0.3200 0.3208
v 0.1686 0.3200 0.5190
v -0.1686 0.3200 0.5190
v -0.4415 0.3200 0.3208
v -0.5457 0.3200 0.0000
v -0.4415 0.3200 -0.3208
v -0.1686 0.3200 -0.5190
v 0.1686 0.3200 -0.5190
v 0.4415 0.3200 -0.3208
v 0.6120 0.9200 0.0000
v 0.4951 0.9200 0.3597
v 0.1891 0.9200 0.5820
v -0.1891 0.9200 0.5820
v -0.4951 0.9200 0.3597
v -0.6120 0.9200 0.0000
v -0.4951 0.9200 -0.3597
v -0.1891 0.9200 -0.5820
v 0.1891 0.9200 -0.5820
v 0.4951 0.9200 -0.3597
v 0.7200 1.2500 0.0000
v 0.5825 1.2500 0.4232
v 0.2225 1.2500 0.6848
v -0.2225 1.2500 0.6848
v -0.5825 1.2500 0.4232
v -0.7200 1.2500 0.0000
v -0.5825 1.2500 -0.4232
v -0.2225 1.2500 -0.6848
v 0.2225 1.2500 -0.6848
v 0.5825 1.2500 -0.4232
v 0.7400 1.3600 0.0000
v 0.5987 1.3600 0.4350
v 0.2287 1.3600 0.7038
v -0.2287 1.3600 0.7038
v -0.5987 1.3600 0.4350
v -0.7400 1.3600 0.0000
v -0.5987 1.3600 -0.4350
v -0.2287 1.3600 -0.7038
v 0.2287 1.3600 -0.7038
v 0.5987 1.3600 -0.4350
v 0.6000 1.4000 0.0000
v 0.4854 1.4000 0.3527
v 0.1854 1.4000 0.5706
v -0.1854 1.4000 0.5706
v -0.4854 1.4000 0.3527
v -0.6000 1.4000 0.0000
v -0.4854 1.4000 -0.3527
v -0.1854 1.4000 -0.5706
v 0.1854 1.4000 -0.5706
v 0.4854 1.4000 -0.3527
v 0.4200 1.5000 0.0000
v 0.3398 1.5000 0.2469
v 0.1298 1.5000 0.3994
v -0.1298 1.5000 0.3994
v -0.3398 1.5000 0.2469
v -0.4200 1.5000 0.0000
v -0.3398 1.5000 -0.2469
v -0.1298 1.5000 -0.3994
v 0.1298 1.5000 -0.3994
v 0.3398 1.5000 -0.2469
v 0.0000 1.5000 0.0000
v 0.0000 1.5000 0.0000
v 0.0000 1.5000 0.0000
v 0.0000 1.5000 0.0000
v 0.0000 1.5000 0.0000
v 0.0000 1.5000 0.0000
v 0.0000 1.5000 0.0000
v 0.0000 1.5000 0.0000
v 0.0000 1.5000 0.0000
v 0.0000 1.5000 0.0000
v 0.0000 1.2500 0.0000
vn 0.0000 1.0000 0.0000
vn 0.0000 1.0000 0.0000
vn 0.0000 1.0000 -0.0000
vn 0.0000 1.0000 0.0000
vn 0.0000 1.0000 0.0000
vn 0.0000 1.0000 0.0000
vn 0.0000 1.0000 0.0000
vn 0.0000 1.0000 0.0000
vn 0.0000 1.0000 0.0000
vn -0.0000 1.0000 0.0000
vn -0.9446 0.1163 -0.3069
vn -0.9446 0.1163 -0.3069
vn -0.5838 0.1163 -0.8035
vn -0.5838 0.1163 -0.8035
vn -0.0000 0.1163 -0.9932
vn -0.0000 0.1163 -0.9932
vn 0.5838 0.1163 -0.8035
vn 0.5838 0.1163 -0.8035
vn 0.9446 0.1163 -0.3069
vn 0.9446 0.1163 -0.3069
vn 0.9446 0.1163 0.3069
vn 0.9446 0.1163 0.3069
vn 0.5838 0.1163 0.8035
vn 0.5838 0.1163 0.8035
vn 0.0000 0.1163 0.9932
vn 0.0000 0.1163 0.9932
vn -0.5838 0.1163 0.8035
vn -0.5838 0.1163 0.8035
vn -0.9446 0.1163 0.3069
vn -0.9446 0.1163 0.3069
vn 0.0000 -1.0000 0.0000
vn 0.0000 -1.0000 0.0000
vn 0.0000 -1.0000 0.0000
vn 0.0000 -1.0000 0.0000
vn 0.0000 -1.0000 0.0000
vn -0.0000 -1.0000 0.0000
vn 0.0000 -1.0000 0.0000
vn 0.0000 -1.0000 -0.0000
vn 0.0000 -1.0000 0.0000
vn 0.0000 -1.0000 0.0000
vn -0.9458 0.1045 -0.3073
vn -0.9458 0.1045 -0.3073
vn -0.5846 0.1045 -0.8046
vn -0.5846 0.1045 -0.8046
vn -0.0000 0.1045 -0.9945
vn -0.0000 0.1045 -0.9945
vn 0.5846 0.1045 -0.8046
vn 0.5846 0.1045 -0.8046
vn 0.9458 0.1045 -0.3073
vn 0.9458 0.1045 -0.3073
vn 0.9458 0.1045 0.3073
vn 0.9458 0.1045 0.3073
vn 0.5846 0.1045 0.8046
vn 0.5846 0.1045 0.8046
vn 0.0000 0.1045 0.9945
vn 0.0000 0.1045 0.9945
vn -0.5846 0.1045 0.8046
vn -0.5846 0.1045 0.8046
vn -0.9458 0.1045 0.3073
vn -0.9458 0.1045 0.3073
vn -0.9371 0.1704 -0.3045
vn -0.9371 0.1704 -0.3045
vn -0.5792 0.1704 -0.7972
vn -0.5792 0.1704 -0.7972
vn -0.0000 0.1704 -0.9854
vn -0.0000 0.1704 -0.9854
vn 0.5792 0.1704 -0.7972
vn 0.5792 0.1704 -0.7972
vn 0.9371 0.1704 -0.3045
vn 0.9371 0.1704 -0.3045
vn 0.9371 0.1704 0.3045
vn 0.9371 0.1704 0.3045
vn 0.5792 0.1704 0.7972
vn 0.5792 0.1704 0.7972
vn 0.0000 0.1704 0.9854
vn 0.0000 0.1704 0.9854
vn -0.5792 0.1704 0.7972
vn -0.5792 0.1704 0.7972
vn -0.9371 0.1704 0.3045
vn -0.9371 0.1704 0.3045
vn -0.2736 -0.9577 -0.0889
vn -0.2736 -0.9577 -0.0889
vn -0.1691 -0.9577 -0.2328
vn -0.1691 -0.9577 -0.2328
vn -0.0000 -0.9577 -0.2877
vn -0.0000 -0.9577 -0.2877
vn 0.1691 -0.9577 -0.2328
vn 0.1691 -0.9577 -0.2328
vn 0.2736 -0.9577 -0.0889
vn 0.2736 -0.9577 -0.0889
vn 0.2736 -0.9577 0.0889
vn 0.2736 -0.9577 0.0889
vn 0.1691 -0.9577 0.2328
vn 0.1691 -0.9577 0.2328
vn 0.0000 -0.9577 0.2877
vn 0.0000 -0.9577 0.2877
vn -0.1691 -0.9577 0.2328
vn -0.1691 -0.9577 0.2328
vn -0.2736 -0.9577 0.0889
vn -0.2736 -0.9577 0.0889
vn -0.4797 -0.8635 -0.1559
vn -0.4797 -0.8635 -0.1559
vn -0.2965 -0.8635 -0.4081
vn -0.2965 -0.8635 -0.4081
vn -0.0000 -0.8635 -0.5044
vn -0.0000 -0.8635 -0.5044
vn 0.2965 -0.8635 -0.4081
vn 0.2965 -0.8635 -0.4081
vn 0.4797 -0.8635 -0.1559
vn 0.4797 -0.8635 -0.1559
vn 0.4797 -0.8635 0.1559
vn 0.4797 -0.8635 0.1559
vn 0.2965 -0.8635 0.4081
vn 0.2965 -0.8635 0.4081
vn 0.0000 -0.8635 0.5044
vn 0.0000 -0.8635 0.5044
vn -0.2965 -0.8635 0.4081
vn -0.2965 -0.8635 0.4081
vn -0.4797 -0.8635 0.1559
vn -0.4797 -0.8635 0.1559
vn 0.0000 -1.0000 0.0000
vn -0.0000 -1.0000 0.0000
vn -0.0000 -1.0000 0.0000
vn 0.0000 -1.0000 -0.0000
vn 0.0000 -1.0000 -0.0000
vn 0.0000 -1.0000 0.0000
vn 0.0000 -1.0000 0.0000
vn 0.0000 -1.0000 0.0000
vn 0.0000 -1.0000 0.0000
vn 0.0000 -1.0000 0.0000
vn 0.0000 -1.0000 0.0000
vn 0.0000 -1.0000 0.0000
vn 0.0000 -1.0000 0.0000
vn 0.0000 -1.0000 0.0000
vn 0.0000 -1.0000 0.0000
vn -0.0000 -1.0000 0.0000
vn 0.0000 -1.0000 0.0000
vn 0.0000 -1.0000 -0.0000
vn 0.0000 -1.0000 0.0000
vn 0.0000 -1.0000 0.0000
usemtl c0
f 1//1 12//1 11//1
f 2//2 13//2 12//2
f 3//3 14//3 13//3
f 4//4 15//4 14//4
f 5//5 16//5 15//5
f 6//6 17//6 16//6
f 7//7 18//7 17//7
f 8//8 19//8 18//8
f 9//9 20//9 19//9
f 10//10 11//10 20//10
f 11//11 12//11 22//11
f 11//12 22//12 21//12
f 12//13 13//13 23//13
f 12//14 23//14 22//14
f 13//15 14//15 24//15
f 13//16 24//16 23//16
f 14//17 15//17 25//17
f 14//18 25//18 24//18
f 15//19 16//19 26//19
f 15//20 26//20 25//20
f 16//21 17//21 27//21
f 16//22 27//22 26//22
f 17//23 18//23 28//23
f 17//24 28//24 27//24
f 18//25 19//25 29//25
f 18//26 29//26 28//26
f 19//27 20//27 30//27
f 19//28 30//28 29//28
f 20//29 11//29 21//29
f 20//30 21//30 30//30
f 31//31 21//31 22//31
f 31//32 22//32 23//32
f 31//33 23//33 24//33
f 31//34 24//34 25//34
f 31//35 25//35 26//35
f 31//36 26//36 27//36
f 31//37 27//37 28//37
f 31//38 28//38 29//38
f 31//39 29//39 30//39
f 31//40 30//40 21//40
usemtl c1
f 32//41 33//41 43//41
f 32//42 43//42 42//42
f 33//43 34//43 44//43
f 33//44 44//44 43//44
f 34//45 35//45 45//45
f 34//46 45//46 44//46
f 35//47 36//47 46//47
f 35//48 46//48 45//48
f 36//49 37//49 47//49
f 36//50 47//50 46//50
f 37//51 38//51 48//51
f 37//52 48//52 47//52
f 38//53 39//53 49//53
f 38//54 49//54 48//54
f 39//55 40//55 50//55
f 39//56 50//56 49//56
f 40//57 41//57 51//57
f 40//58 51//58 50//58
f 41//59 32//59 42//59
f 41//60 42//60 51//60
usemtl c2
f 52//61 53//61 63//61
f 52//62 63//62 62//62
f 53//63 54//63 64//63
f 53//64 64//64 63//64
f 54//65 55//65 65//65
f 54//66 65//66 64//66
f 55//67 56//67 66//67
f 55//68 66//68 65//68
f 56//69 57//69 67//69
f 56//70 67//70 66//70
f 57//71 58//71 68//71
f 57//72 68//72 67//72
f 58//73 59//73 69//73
f 58//74 69//74 68//74
f 59//75 60//75 70//75
f 59//76 70//76 69//76
f 60//77 61//77 71//77
f 60//78 71//78 70//78
f 61//79 52//79 62//79
f 61//80 62//80 71//80
f 62//81 63//81 73//81
f 62//82 73//82 72//82
f 63//83 64//83 74//83
f 63//84 74//84 73//84
f 64//85 65//85 75//85
f 64//86 75//86 74//86
f 65//87 66//87 76//87
f 65//88 76//88 75//88
f 66//89 67//89 77//89
f 66//90 77//90 76//90
f 67//91 68//91 78//91
f 67//92 78//92 77//92
f 68//93 69//93 79//93
f 68//94 79//94 78//94
f 69//95 70//95 80//95
f 69//96 80//96 79//96
f 70//97 71//97 81//97
f 70//98 81//98 80//98
f 71//99 62//99 72//99
f 71//100 72//100 81//100
f 72//101 73//101 83//101
f 72//102 83//102 82//102
f 73//103 74//103 84//103
f 73//104 84//104 83//104
f 74//105 75//105 85//105
f 74//106 85//106 84//106
f 75//107 76//107 86//107
f 75//108 86//108 85//108
f 76//109 77//109 87//109
f 76//110 87//110 86//110
f 77//111 78//111 88//111
f 77//112 88//112 87//112
f 78//113 79//113 89//113
f 78//114 89//114 88//114
f 79//115 80//115 90//115
f 79//116 90//116 89//116
f 80//117 81//117 91//117
f 80//118 91//118 90//118
f 81//119 72//119 82//119
f 81//120 82//120 91//120
f 82//121 83//121 93//121
f 83//122 84//122 94//122
f 84//123 85//123 95//123
f 85//124 86//124 96//124
f 86//125 87//125 97//125
f 87//126 88//126 98//126
f 88//127 89//127 99//127
f 89//128 90//128 100//128
f 90//129 91//129 101//129
f 91//130 82//130 92//130
f 102//131 52//131 53//131
f 102//132 53//132 54//132
f 102//133 54//133 55//133
f 102//134 55//134 56//134
f 102//135 56//135 57//135
f 102//136 57//136 58//136
f 102//137 58//137 59//137
f 102//138 59//138 60//138
f 102//139 60//139 61//139
f 102//140 61//140 52//140
