mtllib Food_Hotteok.mtl
v 0.0000 0.0000 0.0000
v 0.0000 0.0000 0.0000
v 0.0000 0.0000 0.0000
v 0.0000 0.0000 0.0000
v 0.0000 0.0000 0.0000
v 0.0000 0.0000 0.0000
v 0.0000 0.0000 0.0000
v 0.0000 0.0000 0.0000
v 0.0000 0.0000 0.0000
v 0.0000 0.0000 0.0000
v 0.0000 0.0000 0.0000
v 0.0000 0.0000 0.0000
v 0.9500 0.0000 0.0000
v 0.8227 0.0000 0.4750
v 0.4750 0.0000 0.8227
v 0.0000 0.0000 0.9500
v -0.4750 0.0000 0.8227
v -0.8227 0.0000 0.4750
v -0.9500 0.0000 0.0000
v -0.8227 0.0000 -0.4750
v -0.4750 0.0000 -0.8227
v -0.0000 0.0000 -0.9500
v 0.4750 0.0000 -0.8227
v 0.8227 0.0000 -0.4750
v 1.0400 0.1200 0.0000
v 0.9007 0.1200 0.5200
v 0.5200 0.1200 0.9007
v 0.0000 0.1200 1.0400
v -0.5200 0.1200 0.9007
v -0.9007 0.1200 0.5200
v -1.0400 0.1200 0.0000
v -0.9007 0.1200 -0.5200
v -0.5200 0.1200 -0.9007
v -0.0000 0.1200 -1.0400
v 0.5200 0.1200 -0.9007
v 0.9007 0.1200 -0.5200
v 0.9800 0.2800 0.0000
v 0.8487 0.2800 0.4900
v 0.4900 0.2800 0.8487
v 0.0000 0.2800 0.9800
v -0.4900 0.2800 0.8487
v -0.8487 0.2800 0.4900
v -0.9800 0.2800 0.0000
v -0.8487 0.2800 -0.4900
v -0.4900 0.2800 -0.8487
v -0.0000 0.2800 -0.9800
v 0.4900 0.2800 -0.8487
v 0.8487 0.2800 -0.4900
v 0.6200 0.3600 0.0000
v 0.5369 0.3600 0.3100
v 0.3100 0.3600 0.5369
v 0.0000 0.3600 0.6200
v -0.3100 0.3600 0.5369
v -0.5369 0.3600 0.3100
v -0.6200 0.3600 0.0000
v -0.5369 0.3600 -0.3100
v -0.3100 0.3600 -0.5369
v -0.0000 0.3600 -0.6200
v 0.3100 0.3600 -0.5369
v 0.5369 0.3600 -0.3100
v 0.0000 0.3800 0.0000
v 0.0000 0.3800 0.0000
v 0.0000 0.3800 0.0000
v 0.0000 0.3800 0.0000
v 0.0000 0.3800 0.0000
v 0.0000 0.3800 0.0000
v 0.0000 0.3800 0.0000
v 0.0000 0.3800 0.0000
v 0.0000 0.3800 0.0000
v 0.0000 0.3800 0.0000
v 0.0000 0.3800 0.0000
v 0.0000 0.3800 0.0000
v -0.3826 0.2800 0.6472
v -0.3826 0.2800 0.6472
v -0.3826 0.2800 0.6472
v -0.3826 0.2800 0.6472
v -0.3126 0.3500 0.6472
v -0.3826 0.3500 0.7172
v -0.4526 0.3500 0.6472
v -0.3826 0.3500 0.5772
v -0.3826 0.4200 0.6472
v -0.3826 0.4200 0.6472
v -0.3826 0.4200 0.6472
v -0.3826 0.4200 0.6472
v -0.5231 0.2800 0.2867
v -0.5231 0.2800 0.2867
v -0.5231 0.2800 0.2867
v -0.5231 0.2800 0.2867
v -0.4531 0.3500 0.2867
v -0.5231 0.3500 0.3567
v -0.5931 0.3500 0.2867
v -0.5231 0.3500 0.2167
v -0.5231 0.4200 0.2867
v -0.5231 0.4200 0.2867
v -0.5231 0.4200 0.2867
v -0.5231 0.4200 0.2867
v -0.5807 0.2800 -0.3536
v -0.5807 0.2800 -0.3536
v -0.5807 0.2800 -0.3536
v -0.5807 0.2800 -0.3536
v -0.5107 0.3500 -0.3536
v -0.5807 0.3500 -0.2836
v -0.6507 0.3500 -0.3536
v -0.5807 0.3500 -0.4236
v -0.5807 0.4200 -0.3536
v -0.5807 0.4200 -0.3536
v -0.5807 0.4200 -0.3536
v -0.5807 0.4200 -0.3536
v 0.6988 0.2800 -0.4068
v 0.6988 0.2800 -0.4068
v 0.6988 0.2800 -0.4068
v 0.6988 0.2800 -0.4068
v 0.7688 0.3500 -0.4068
v 0.6988 0.3500 -0.3368
v 0.6288 0.3500 -0.4068
v 0.6988 0.3500 -0.4768
v 0.6988 0.4200 -0.4068
v 0.6988 0.4200 -0.4068
v 0.6988 0.4200 -0.4068
v 0.6988 0.4200 -0.4068
v 0.1986 0.2800 -0.0572
v 0.1986 0.2800 -0.0572
v 0.1986 0.2800 -0.0572
v 0.1986 0.2800 -0.0572
v 0.2686 0.3500 -0.0572
v 0.1986 0.3500 0.0128
v 0.1286 0.3500 -0.0572
v 0.1986 0.3500 -0.1272
v 0.1986 0.4200 -0.0572
v 0.1986 0.4200 -0.0572
v 0.1986 0.4200 -0.0572
v 0.1986 0.4200 -0.0572
v -0.0656 0.2800 -0.0070
v -0.0656 0.2800 -0.0070
v -0.0656 0.2800 -0.0070
v -0.0656 0.2800 -0.0070
v 0.0044 0.3500 -0.0070
v -0.0656 0.3500 0.0630
v -0.1356 0.3500 -0.0070
v -0.0656 0.3500 -0.0770
v -0.0656 0.4200 -0.0070
v -0.0656 0.4200 -0.0070
v -0.0656 0.4200 -0.0070
v -0.0656 0.4200 -0.0070
v -0.4309 0.2800 0.4627
v -0.4309 0.2800 0.4627
v -0.4309 0.2800 0.4627
v -0.4309 0.2800 0.4627
v -0.3609 0.3500 0.4627
v -0.4309 0.3500 0.5327
v -0.5009 0.3500 0.4627
v -0.4309 0.3500 0.3927
v -0.4309 0.4200 0.4627
v -0.4309 0.4200 0.4627
v -0.4309 0.4200 0.4627
v -0.4309 0.4200 0.4627
v -0.5746 0.2800 -0.3721
v -0.5746 0.2800 -0.3721
v -0.5746 0.2800 -0.3721
v -0.5746 0.2800 -0.3721
v -0.5046 0.3500 -0.3721
v -0.5746 0.3500 -0.3021
v -0.6446 0.3500 -0.3721
v -0.5746 0.3500 -0.4421
v -0.5746 0.4200 -0.3721
v -0.5746 0.4200 -0.3721
v -0.5746 0.4200 -0.3721
v -0.5746 0.4200 -0.3721
v -0.6720 0.2800 -0.3265
v -0.6720 0.2800 -0.3265
v -0.6720 0.2800 -0.3265
v -0.6720 0.2800 -0.3265
v -0.6020 0.3500 -0.3265
v -0.6720 0.3500 -0.2565
v -0.7420 0.3500 -0.3265
v -0.6720 0.3500 -0.3965
v -0.6720 0.4200 -0.3265
v -0.6720 0.4200 -0.3265
v -0.6720 0.4200 -0.3265
v -0.6720 0.4200 -0.3265
v 0.1000 0.2900 0.0000
v 0.1000 0.2900 0.0000
v 0.1000 0.2900 0.0000
v 0.1000 0.2900 0.0000
v 0.1000 0.2900 0.0000
v 0.1000 0.2900 0.0000
v 0.1000 0.2900 0.0000
v 0.4637 0.3250 0.0000
v 0.3268 0.3250 0.2844
v 0.0191 0.3250 0.3546
v -0.2277 0.3250 0.1578
v -0.2277 0.3250 -0.1578
v 0.0191 0.3250 -0.3546
v 0.3268 0.3250 -0.2844
v 0.4637 0.3950 0.0000
v 0.3268 0.3950 0.2844
v 0.0191 0.3950 0.3546
v -0.2277 0.3950 0.1578
v -0.2277 0.3950 -0.1578
v 0.0191 0.3950 -0.3546
v 0.3268 0.3950 -0.2844
v 0.1000 0.4300 0.0000
v 0.1000 0.4300 0.0000
v 0.1000 0.4300 0.0000
v 0.1000 0.4300 0.0000
v 0.1000 0.4300 -0.0000
v 0.1000 0.4300 -0.0000
v 0.1000 0.4300 -0.0000
vn 0.0000 1.0000 0.0000
vn 0.0000 1.0000 0.0000
vn 0.0000 1.0000 0.0000
vn 0.0000 1.0000 -0.0000
vn 0.0000 1.0000 0.0000
vn 0.0000 1.0000 0.0000
vn 0.0000 1.0000 0.0000
vn 0.0000 1.0000 0.0000
vn 0.0000 1.0000 0.0000
vn 0.0000 1.0000 0.0000
vn 0.0000 1.0000 0.0000
vn -0.0000 1.0000 0.0000
vn -0.7822 0.5867 -0.2096
vn -0.7822 0.5867 -0.2096
vn -0.5726 0.5867 -0.5726
vn -0.5726 0.5867 -0.5726
vn -0.2096 0.5867 -0.7822
vn -0.2096 0.5867 -0.7822
vn 0.2096 0.5867 -0.7822
vn 0.2096 0.5867 -0.7822
vn 0.5726 0.5867 -0.5726
vn 0.5726 0.5867 -0.5726
vn 0.7822 0.5867 -0.2096
vn 0.7822 0.5867 -0.2096
vn 0.7822 0.5867 0.2096
vn 0.7822 0.5867 0.2096
vn 0.5726 0.5867 0.5726
vn 0.5726 0.5867 0.5726
vn 0.2096 0.5867 0.7822
vn 0.2096 0.5867 0.7822
vn -0.2096 0.5867 0.7822
vn -0.2096 0.5867 0.7822
vn -0.5726 0.5867 0.5726
vn -0.5726 0.5867 0.5726
vn -0.7822 0.5867 0.2096
vn -0.7822 0.5867 0.2096
vn -0.9082 -0.3406 -0.2433
vn -0.9082 -0.3406 -0.2433
vn -0.6648 -0.3406 -0.6648
vn -0.6648 -0.3406 -0.6648
vn -0.2433 -0.3406 -0.9082
vn -0.2433 -0.3406 -0.9082
vn 0.2433 -0.3406 -0.9082
vn 0.2433 -0.3406 -0.9082
vn 0.6648 -0.3406 -0.6648
vn 0.6648 -0.3406 -0.6648
vn 0.9082 -0.3406 -0.2433
vn 0.9082 -0.3406 -0.2433
vn 0.9082 -0.3406 0.2433
vn 0.9082 -0.3406 0.2433
vn 0.6648 -0.3406 0.6648
vn 0.6648 -0.3406 0.6648
vn 0.2433 -0.3406 0.9082
vn 0.2433 -0.3406 0.9082
vn -0.2433 -0.3406 0.9082
vn -0.2433 -0.3406 0.9082
vn -0.6648 -0.3406 0.6648
vn -0.6648 -0.3406 0.6648
vn -0.9082 -0.3406 0.2433
vn -0.9082 -0.3406 0.2433
vn -0.2166 -0.9745 -0.0580
vn -0.2166 -0.9745 -0.0580
vn -0.1585 -0.9745 -0.1585
vn -0.1585 -0.9745 -0.1585
vn -0.0580 -0.9745 -0.2166
vn -0.0580 -0.9745 -0.2166
vn 0.0580 -0.9745 -0.2166
vn 0.0580 -0.9745 -0.2166
vn 0.1585 -0.9745 -0.1585
vn 0.1585 -0.9745 -0.1585
vn 0.2166 -0.9745 -0.0580
vn 0.2166 -0.9745 -0.0580
vn 0.2166 -0.9745 0.0580
vn 0.2166 -0.9745 0.0580
vn 0.1585 -0.9745 0.1585
vn 0.1585 -0.9745 0.1585
vn 0.0580 -0.9745 0.2166
vn 0.0580 -0.9745 0.2166
vn -0.0580 -0.9745 0.2166
vn -0.0580 -0.9745 0.2166
vn -0.1585 -0.9745 0.1585
vn -0.1585 -0.9745 0.1585
vn -0.2166 -0.9745 0.0580
vn -0.2166 -0.9745 0.0580
vn -0.0322 -0.9994 -0.0086
vn -0.0236 -0.9994 -0.0236
vn -0.0086 -0.9994 -0.0322
vn 0.0086 -0.9994 -0.0322
vn 0.0236 -0.9994 -0.0236
vn 0.0322 -0.9994 -0.0086
vn 0.0322 -0.9994 0.0086
vn 0.0236 -0.9994 0.0236
vn 0.0086 -0.9994 0.0322
vn -0.0086 -0.9994 0.0322
vn -0.0236 -0.9994 0.0236
vn -0.0322 -0.9994 0.0086
vn -0.5774 0.5774 -0.5774
vn 0.5774 0.5774 -0.5774
vn 0.5774 0.5774 0.5774
vn -0.5774 0.5774 0.5774
vn -0.5774 -0.5774 -0.5774
vn 0.5774 -0.5774 -0.5774
vn 0.5774 -0.5774 0.5774
vn -0.5774 -0.5774 0.5774
vn -0.5774 0.5774 -0.5774
vn 0.5774 0.5774 -0.5774
vn 0.5774 0.5774 0.5774
vn -0.5774 0.5774 0.5774
vn -0.5774 -0.5774 -0.5774
vn 0.5774 -0.5774 -0.5774
vn 0.5774 -0.5774 0.5774
vn -0.5774 -0.5774 0.5774
vn -0.5774 0.5774 -0.5774
vn 0.5774 0.5774 -0.5774
vn 0.5774 0.5774 0.5774
vn -0.5774 0.5774 0.5774
vn -0.5774 -0.5774 -0.5774
vn 0.5774 -0.5774 -0.5774
vn 0.5774 -0.5774 0.5774
vn -0.5774 -0.5774 0.5774
vn -0.5774 0.5774 -0.5774
vn 0.5774 0.5774 -0.5774
vn 0.5774 0.5774 0.5774
vn -0.5774 0.5774 0.5774
vn -0.5774 -0.5774 -0.5774
vn 0.5774 -0.5774 -0.5774
vn 0.5774 -0.5774 0.5774
vn -0.5774 -0.5774 0.5774
vn -0.5774 0.5774 -0.5774
vn 0.5774 0.5774 -0.5774
vn 0.5774 0.5774 0.5774
vn -0.5774 0.5774 0.5774
vn -0.5774 -0.5774 -0.5774
vn 0.5774 -0.5774 -0.5774
vn 0.5774 -0.5774 0.5774
vn -0.5774 -0.5774 0.5774
vn -0.5774 0.5774 -0.5774
vn 0.5774 0.5774 -0.5774
vn 0.5774 0.5774 0.5774
vn -0.5774 0.5774 0.5774
vn -0.5774 -0.5774 -0.5774
vn 0.5774 -0.5774 -0.5774
vn 0.5774 -0.5774 0.5774
vn -0.5774 -0.5774 0.5774
vn -0.5774 0.5774 -0.5774
vn 0.5774 0.5774 -0.5774
vn 0.5774 0.5774 0.5774
vn -0.5774 0.5774 0.5774
vn -0.5774 -0.5774 -0.5774
vn 0.5774 -0.5774 -0.5774
vn 0.5774 -0.5774 0.5774
vn -0.5774 -0.5774 0.5774
vn -0.5774 0.5774 -0.5774
vn 0.5774 0.5774 -0.5774
vn 0.5774 0.5774 0.5774
vn -0.5774 0.5774 0.5774
vn -0.5774 -0.5774 -0.5774
vn 0.5774 -0.5774 -0.5774
vn 0.5774 -0.5774 0.5774
vn -0.5774 -0.5774 0.5774
vn -0.5774 0.5774 -0.5774
vn 0.5774 0.5774 -0.5774
vn 0.5774 0.5774 0.5774
vn -0.5774 0.5774 0.5774
vn -0.5774 -0.5774 -0.5774
vn 0.5774 -0.5774 -0.5774
vn 0.5774 -0.5774 0.5774
vn -0.5774 -0.5774 0.5774
vn -0.0957 0.9943 -0.0461
vn -0.0236 0.9943 -0.1035
vn 0.0662 0.9943 -0.0830
vn 0.1062 0.9943 -0.0000
vn 0.0662 0.9943 0.0830
vn -0.0236 0.9943 0.1035
vn -0.0957 0.9943 0.0461
vn -0.9010 0.0000 -0.4339
vn -0.9010 0.0000 -0.4339
vn -0.2225 0.0000 -0.9749
vn -0.2225 0.0000 -0.9749
vn 0.6235 0.0000 -0.7818
vn 0.6235 0.0000 -0.7818
vn 1.0000 0.0000 -0.0000
vn 1.0000 0.0000 -0.0000
vn 0.6235 0.0000 0.7818
vn 0.6235 0.0000 0.7818
vn -0.2225 0.0000 0.9749
vn -0.2225 0.0000 0.9749
vn -0.9010 0.0000 0.4339
vn -0.9010 0.0000 0.4339
vn -0.0957 -0.9943 -0.0461
vn -0.0236 -0.9943 -0.1035
vn 0.0662 -0.9943 -0.0830
vn 0.1062 -0.9943 -0.0000
vn 0.0662 -0.9943 0.0830
vn -0.0236 -0.9943 0.1035
vn -0.0957 -0.9943 0.0461
usemtl c0
f 1//1 14//1 13//1
f 2//2 15//2 14//2
f 3//3 16//3 15//3
f 4//4 17//4 16//4
f 5//5 18//5 17//5
f 6//6 19//6 18//6
f 7//7 20//7 19//7
f 8//8 21//8 20//8
f 9//9 22//9 21//9
f 10//10 23//10 22//10
f 11//11 24//11 23//11
f 12//12 13//12 24//12
f 13//13 14//13 26//13
f 13//14 26//14 25//14
f 14//15 15//15 27//15
f 14//16 27//16 26//16
f 15//17 16//17 28//17
f 15//18 28//18 27//18
f 16//19 17//19 29//19
f 16//20 29//20 28//20
f 17//21 18//21 30//21
f 17//22 30//22 29//22
f 18//23 19//23 31//23
f 18//24 31//24 30//24
f 19//25 20//25 32//25
f 19//26 32//26 31//26
f 20//27 21//27 33//27
f 20//28 33//28 32//28
f 21//29 22//29 34//29
f 21//30 34//30 33//30
f 22//31 23//31 35//31
f 22//32 35//32 34//32
f 23//33 24//33 36//33
f 23//34 36//34 35//34
f 24//35 13//35 25//35
f 24//36 25//36 36//36
f 25//37 26//37 38//37
f 25//38 38//38 37//38
f 26//39 27//39 39//39
f 26//40 39//40 38//40
f 27//41 28//41 40//41
f 27//42 40//42 39//42
f 28//43 29//43 41//43
f 28//44 41//44 40//44
f 29//45 30//45 42//45
f 29//46 42//46 41//46
f 30//47 31//47 43//47
f 30//48 43//48 42//48
f 31//49 32//49 44//49
f 31//50 44//50 43//50
f 32//51 33//51 45//51
f 32//52 45//52 44//52
f 33//53 34//53 46//53
f 33//54 46//54 45//54
f 34//55 35//55 47//55
f 34//56 47//56 46//56
f 35//57 36//57 48//57
f 35//58 48//58 47//58
f 36//59 25//59 37//59
f 36//60 37//60 48//60
f 37//61 38//61 50//61
f 37//62 50//62 49//62
f 38//63 39//63 51//63
f 38//64 51//64 50//64
f 39//65 40//65 52//65
f 39//66 52//66 51//66
f 40//67 41//67 53//67
f 40//68 53//68 52//68
f 41//69 42//69 54//69
f 41//70 54//70 53//70
f 42//71 43//71 55//71
f 42//72 55//72 54//72
f 43//73 44//73 56//73
f 43//74 56//74 55//74
f 44//75 45//75 57//75
f 44//76 57//76 56//76
f 45//77 46//77 58//77
f 45//78 58//78 57//78
f 46//79 47//79 59//79
f 46//80 59//80 58//80
f 47//81 48//81 60//81
f 47//82 60//82 59//82
f 48//83 37//83 49//83
f 48//84 49//84 60//84
f 49//85 50//85 62//85
f 50//86 51//86 63//86
f 51//87 52//87 64//87
f 52//88 53//88 65//88
f 53//89 54//89 66//89
f 54//90 55//90 67//90
f 55//91 56//91 68//91
f 56//92 57//92 69//92
f 57//93 58//93 70//93
f 58//94 59//94 71//94
f 59//95 60//95 72//95
f 60//96 49//96 61//96
usemtl c1
f 73//97 78//97 77//97
f 74//98 79//98 78//98
f 75//99 80//99 79//99
f 76//100 77//100 80//100
f 77//101 78//101 82//101
f 78//102 79//102 83//102
f 79//103 80//103 84//103
f 80//104 77//104 81//104
f 85//105 90//105 89//105
f 86//106 91//106 90//106
f 87//107 92//107 91//107
f 88//108 89//108 92//108
f 89//109 90//109 94//109
f 90//110 91//110 95//110
f 91//111 92//111 96//111
f 92//112 89//112 93//112
f 97//113 102//113 101//113
f 98//114 103//114 102//114
f 99//115 104//115 103//115
f 100//116 101//116 104//116
f 101//117 102//117 106//117
f 102//118 103//118 107//118
f 103//119 104//119 108//119
f 104//120 101//120 105//120
f 109//121 114//121 113//121
f 110//122 115//122 114//122
f 111//123 116//123 115//123
f 112//124 113//124 116//124
f 113//125 114//125 118//125
f 114//126 115//126 119//126
f 115//127 116//127 120//127
f 116//128 113//128 117//128
f 121//129 126//129 125//129
f 122//130 127//130 126//130
f 123//131 128//131 127//131
f 124//132 125//132 128//132
f 125//133 126//133 130//133
f 126//134 127//134 131//134
f 127//135 128//135 132//135
f 128//136 125//136 129//136
f 133//137 138//137 137//137
f 134//138 139//138 138//138
f 135//139 140//139 139//139
f 136//140 137//140 140//140
f 137//141 138//141 142//141
f 138//142 139//142 143//142
f 139//143 140//143 144//143
f 140//144 137//144 141//144
f 145//145 150//145 149//145
f 146//146 151//146 150//146
f 147//147 152//147 151//147
f 148//148 149//148 152//148
f 149//149 150//149 154//149
f 150//150 151//150 155//150
f 151//151 152//151 156//151
f 152//152 149//152 153//152
f 157//153 162//153 161//153
f 158//154 163//154 162//154
f 159//155 164//155 163//155
f 160//156 161//156 164//156
f 161//157 162//157 166//157
f 162//158 163//158 167//158
f 163//159 164//159 168//159
f 164//160 161//160 165//160
f 169//161 174//161 173//161
f 170//162 175//162 174//162
f 171//163 176//163 175//163
f 172//164 173//164 176//164
f 173//165 174//165 178//165
f 174//166 175//166 179//166
f 175//167 176//167 180//167
f 176//168 173//168 177//168
usemtl c2
f 181//169 189//169 188//169
f 182//170 190//170 189//170
f 183//171 191//171 190//171
f 184//172 192//172 191//172
f 185//173 193//173 192//173
f 186//174 194//174 193//174
f 187//175 188//175 194//175
f 188//176 189//176 196//176
f 188//177 196//177 195//177
f 189//178 190//178 197//178
f 189//179 197//179 196//179
f 190//180 191//180 198//180
f 190//181 198//181 197//181
f 191//182 192//182 199//182
f 191//183 199//183 198//183
f 192//184 193//184 200//184
f 192//185 200//185 199//185
f 193//186 194//186 201//186
f 193//187 201//187 200//187
f 194//188 188//188 195//188
f 194//189 195//189 201//189
f 195//190 196//190 203//190
f 196//191 197//191 204//191
f 197//192 198//192 205//192
f 198//193 199//193 206//193
f 199//194 200//194 207//194
f 200//195 201//195 208//195
f 201//196 195//196 202//196
