mtllib Food_Bibimbap.mtl
v 0.0000 0.0000 0.0000
v 0.0000 0.0000 0.0000
v 0.0000 0.0000 0.0000
v 0.0000 0.0000 0.0000
v 0.0000 0.0000 0.0000
v 0.0000 0.0000 0.0000
v 0.0000 0.0000 0.0000
v 0.0000 0.0000 0.0000
v 0.0000 0.0000 0.0000
v 0.0000 0.0000 0.0000
v 0.0000 0.0000 0.0000
v 0.0000 0.0000 0.0000
v 0.4200 0.0000 0.0000
v 0.3637 0.0000 0.2100
v 0.2100 0.0000 0.3637
v 0.0000 0.0000 0.4200
v -0.2100 0.0000 0.3637
v -0.3637 0.0000 0.2100
v -0.4200 0.0000 0.0000
v -0.3637 0.0000 -0.2100
v -0.2100 0.0000 -0.3637
v -0.0000 0.0000 -0.4200
v 0.2100 0.0000 -0.3637
v 0.3637 0.0000 -0.2100
v 0.5000 0.0500 0.0000
v 0.4330 0.0500 0.2500
v 0.2500 0.0500 0.4330
v 0.0000 0.0500 0.5000
v -0.2500 0.0500 0.4330
v -0.4330 0.0500 0.2500
v -0.5000 0.0500 0.0000
v -0.4330 0.0500 -0.2500
v -0.2500 0.0500 -0.4330
v -0.0000 0.0500 -0.5000
v 0.2500 0.0500 -0.4330
v 0.4330 0.0500 -0.2500
v 0.8000 0.2800 0.0000
v 0.6928 0.2800 0.4000
v 0.4000 0.2800 0.6928
v 0.0000 0.2800 0.8000
v -0.4000 0.2800 0.6928
v -0.6928 0.2800 0.4000
v -0.8000 0.2800 0.0000
v -0.6928 0.2800 -0.4000
v -0.4000 0.2800 -0.6928
v -0.0000 0.2800 -0.8000
v 0.4000 0.2800 -0.6928
v 0.6928 0.2800 -0.4000
v 1.0000 0.7000 0.0000
v 0.8660 0.7000 0.5000
v 0.5000 0.7000 0.8660
v 0.0000 0.7000 1.0000
v -0.5000 0.7000 0.8660
v -0.8660 0.7000 0.5000
v -1.0000 0.7000 0.0000
v -0.8660 0.7000 -0.5000
v -0.5000 0.7000 -0.8660
v -0.0000 0.7000 -1.0000
v 0.5000 0.7000 -0.8660
v 0.8660 0.7000 -0.5000
v 0.9300 0.6800 0.0000
v 0.8054 0.6800 0.4650
v 0.4650 0.6800 0.8054
v 0.0000 0.6800 0.9300
v -0.4650 0.6800 0.8054
v -0.8054 0.6800 0.4650
v -0.9300 0.6800 0.0000
v -0.8054 0.6800 -0.4650
v -0.4650 0.6800 -0.8054
v -0.0000 0.6800 -0.9300
v 0.4650 0.6800 -0.8054
v 0.8054 0.6800 -0.4650
v 1.0200 0.6800 0.0000
v 0.8833 0.6800 0.5100
v 0.5100 0.6800 0.8833
v 0.0000 0.6800 1.0200
v -0.5100 0.6800 0.8833
v -0.8833 0.6800 0.5100
v -1.0200 0.6800 0.0000
v -0.8833 0.6800 -0.5100
v -0.5100 0.6800 -0.8833
v -0.0000 0.6800 -1.0200
v 0.5100 0.6800 -0.8833
v 0.8833 0.6800 -0.5100
v 1.0200 0.7500 0.0000
v 0.8833 0.7500 0.5100
v 0.5100 0.7500 0.8833
v 0.0000 0.7500 1.0200
v -0.5100 0.7500 0.8833
v -0.8833 0.7500 0.5100
v -1.0200 0.7500 0.0000
v -0.8833 0.7500 -0.5100
v -0.5100 0.7500 -0.8833
v -0.0000 0.7500 -1.0200
v 0.5100 0.7500 -0.8833
v 0.8833 0.7500 -0.5100
v 0.9300 0.7500 0.0000
v 0.8054 0.7500 0.4650
v 0.4650 0.7500 0.8054
v 0.0000 0.7500 0.9300
v -0.4650 0.7500 0.8054
v -0.8054 0.7500 0.4650
v -0.9300 0.7500 0.0000
v -0.8054 0.7500 -0.4650
v -0.4650 0.7500 -0.8054
v -0.0000 0.7500 -0.9300
v 0.4650 0.7500 -0.8054
v 0.8054 0.7500 -0.4650
v 0.9400 0.7000 0.0000
v 0.8141 0.7000 0.4700
v 0.4700 0.7000 0.8141
v 0.0000 0.7000 0.9400
v -0.4700 0.7000 0.8141
v -0.8141 0.7000 0.4700
v -0.9400 0.7000 0.0000
v -0.8141 0.7000 -0.4700
v -0.4700 0.7000 -0.8141
v -0.0000 0.7000 -0.9400
v 0.4700 0.7000 -0.8141
v 0.8141 0.7000 -0.4700
v 0.7000 0.2780 0.0000
v 0.6062 0.2780 0.3500
v 0.3500 0.2780 0.6062
v 0.0000 0.2780 0.7000
v -0.3500 0.2780 0.6062
v -0.6062 0.2780 0.3500
v -0.7000 0.2780 0.0000
v -0.6062 0.2780 -0.3500
v -0.3500 0.2780 -0.6062
v -0.0000 0.2780 -0.7000
v 0.3500 0.2780 -0.6062
v 0.6062 0.2780 -0.3500
v 0.0000 0.2100 0.0000
v 0.0000 0.2100 0.0000
v 0.0000 0.2100 0.0000
v 0.0000 0.2100 0.0000
v 0.0000 0.2100 0.0000
v 0.0000 0.2100 0.0000
v 0.0000 0.2100 0.0000
v 0.0000 0.2100 0.0000
v 0.0000 0.2100 0.0000
v 0.0000 0.2100 0.0000
v 0.0000 0.2100 0.0000
v 0.0000 0.2100 0.0000
v 0.8400 0.4860 0.0000
v 0.7275 0.4860 0.4200
v 0.4200 0.4860 0.7275
v 0.0000 0.4860 0.8400
v -0.4200 0.4860 0.7275
v -0.7275 0.4860 0.4200
v -0.8400 0.4860 0.0000
v -0.7275 0.4860 -0.4200
v -0.4200 0.4860 -0.7275
v -0.0000 0.4860 -0.8400
v 0.4200 0.4860 -0.7275
v 0.7275 0.4860 -0.4200
v 0.8400 0.5260 0.0000
v 0.7275 0.5260 0.4200
v 0.4200 0.5260 0.7275
v 0.0000 0.5260 0.8400
v -0.4200 0.5260 0.7275
v -0.7275 0.5260 0.4200
v -0.8400 0.5260 0.0000
v -0.7275 0.5260 -0.4200
v -0.4200 0.5260 -0.7275
v -0.0000 0.5260 -0.8400
v 0.4200 0.5260 -0.7275
v 0.7275 0.5260 -0.4200
v 0.0000 0.4860 0.0000
v 0.0000 0.5260 0.0000
v 0.7571 0.5060 0.0662
v 0.6850 0.5060 0.3292
v 0.5248 0.5060 0.5498
v 0.2970 0.5060 0.6996
v 0.0000 0.5060 0.0000
v 0.7571 0.6260 0.0662
v 0.6850 0.6260 0.3292
v 0.5248 0.6260 0.5498
v 0.2970 0.6260 0.6996
v 0.0000 0.6260 0.0000
v 0.4528 0.5060 0.3290
v 0.4528 0.6260 0.3290
v 0.1710 0.5060 0.7405
v -0.1014 0.5060 0.7532
v -0.3607 0.5060 0.6690
v -0.5736 0.5060 0.4986
v 0.0000 0.5060 0.0000
v 0.1710 0.6260 0.7405
v -0.1014 0.6260 0.7532
v -0.3607 0.6260 0.6690
v -0.5736 0.6260 0.4986
v 0.0000 0.6260 0.0000
v -0.1729 0.5060 0.5323
v -0.1729 0.6260 0.5323
v -0.6514 0.5060 0.3914
v -0.7477 0.5060 0.1363
v -0.7477 0.5060 -0.1363
v -0.6514 0.5060 -0.3914
v 0.0000 0.5060 0.0000
v -0.6514 0.6260 0.3914
v -0.7477 0.6260 0.1363
v -0.7477 0.6260 -0.1363
v -0.6514 0.6260 -0.3914
v 0.0000 0.6260 0.0000
v -0.5596 0.5060 0.0000
v -0.5596 0.6260 0.0000
v -0.5736 0.5060 -0.4986
v -0.3607 0.5060 -0.6690
v -0.1014 0.5060 -0.7532
v 0.1710 0.5060 -0.7405
v 0.0000 0.5060 0.0000
v -0.5736 0.6260 -0.4986
v -0.3607 0.6260 -0.6690
v -0.1014 0.6260 -0.7532
v 0.1710 0.6260 -0.7405
v 0.0000 0.6260 0.0000
v -0.1729 0.5060 -0.5323
v -0.1729 0.6260 -0.5323
v 0.2970 0.5060 -0.6996
v 0.5248 0.5060 -0.5498
v 0.6850 0.5060 -0.3292
v 0.7571 0.5060 -0.0662
v 0.0000 0.5060 0.0000
v 0.2970 0.6260 -0.6996
v 0.5248 0.6260 -0.5498
v 0.6850 0.6260 -0.3292
v 0.7571 0.6260 -0.0662
v 0.0000 0.6260 0.0000
v 0.4528 0.5060 -0.3290
v 0.4528 0.6260 -0.3290
v 0.4032 0.6260 0.0000
v 0.3175 0.6260 0.2306
v 0.1179 0.6260 0.3629
v -0.1146 0.6260 0.3527
v -0.2912 0.6260 0.2116
v -0.3492 0.6260 0.0000
v -0.2738 0.6260 -0.1989
v -0.1012 0.6260 -0.3116
v 0.0979 0.6260 -0.3013
v 0.3262 0.6260 -0.2370
v 0.4032 0.6960 0.0000
v 0.3175 0.6960 0.2306
v 0.1179 0.6960 0.3629
v -0.1146 0.6960 0.3527
v -0.2912 0.6960 0.2116
v -0.3492 0.6960 0.0000
v -0.2738 0.6960 -0.1989
v -0.1012 0.6960 -0.3116
v 0.0979 0.6960 -0.3013
v 0.3262 0.6960 -0.2370
v 0.0133 0.6260 0.0109
v 0.0133 0.6960 0.0109
v 0.0000 0.5660 0.0000
v 0.0000 0.5660 0.0000
v 0.0000 0.5660 0.0000
v 0.0000 0.5660 0.0000
v 0.0000 0.5660 0.0000
v 0.0000 0.5660 0.0000
v 0.1472 0.6260 0.0000
v 0.0736 0.6260 0.1275
v -0.0736 0.6260 0.1275
v -0.1472 0.6260 0.0000
v -0.0736 0.6260 -0.1275
v 0.0736 0.6260 -0.1275
v 0.1472 0.7460 0.0000
v 0.0736 0.7460 0.1275
v -0.0736 0.7460 0.1275
v -0.1472 0.7460 0.0000
v -0.0736 0.7460 -0.1275
v 0.0736 0.7460 -0.1275
v 0.0000 0.8060 0.0000
v 0.0000 0.8060 0.0000
v -0.0000 0.8060 0.0000
v -0.0000 0.8060 0.0000
v -0.0000 0.8060 -0.0000
v 0.0000 0.8060 -0.0000
v 0.5000 0.5760 0.1000
v 0.5000 0.5760 0.1000
v 0.5000 0.5760 0.1000
v 0.5000 0.5760 0.1000
v 0.5000 0.5760 0.1000
v 0.5606 0.6110 0.1000
v 0.5187 0.6110 0.1577
v 0.4510 0.6110 0.1356
v 0.4510 0.6110 0.0644
v 0.5187 0.6110 0.0423
v 0.5606 0.6810 0.1000
v 0.5187 0.6810 0.1577
v 0.4510 0.6810 0.1356
v 0.4510 0.6810 0.0644
v 0.5187 0.6810 0.0423
v 0.5000 0.7160 0.1000
v 0.5000 0.7160 0.1000
v 0.5000 0.7160 0.1000
v 0.5000 0.7160 0.1000
v 0.5000 0.7160 0.1000
vn 0.0000 1.0000 0.0000
vn 0.0000 1.0000 0.0000
vn 0.0000 1.0000 0.0000
vn 0.0000 1.0000 -0.0000
vn 0.0000 1.0000 0.0000
vn 0.0000 1.0000 0.0000
vn 0.0000 1.0000 0.0000
vn 0.0000 1.0000 0.0000
vn 0.0000 1.0000 0.0000
vn 0.0000 1.0000 0.0000
vn 0.0000 1.0000 0.0000
vn -0.0000 1.0000 0.0000
vn -0.5247 0.8396 -0.1406
vn -0.5247 0.8396 -0.1406
vn -0.3841 0.8396 -0.3841
vn -0.3841 0.8396 -0.3841
vn -0.1406 0.8396 -0.5247
vn -0.1406 0.8396 -0.5247
vn 0.1406 0.8396 -0.5247
vn 0.1406 0.8396 -0.5247
vn 0.3841 0.8396 -0.3841
vn 0.3841 0.8396 -0.3841
vn 0.5247 0.8396 -0.1406
vn 0.5247 0.8396 -0.1406
vn 0.5247 0.8396 0.1406
vn 0.5247 0.8396 0.1406
vn 0.3841 0.8396 0.3841
vn 0.3841 0.8396 0.3841
vn 0.1406 0.8396 0.5247
vn 0.1406 0.8396 0.5247
vn -0.1406 0.8396 0.5247
vn -0.1406 0.8396 0.5247
vn -0.3841 0.8396 0.3841
vn -0.3841 0.8396 0.3841
vn -0.5247 0.8396 0.1406
vn -0.5247 0.8396 0.1406
vn -0.6005 0.7833 -0.1609
vn -0.6005 0.7833 -0.1609
vn -0.4396 0.7833 -0.4396
vn -0.4396 0.7833 -0.4396
vn -0.1609 0.7833 -0.6005
vn -0.1609 0.7833 -0.6005
vn 0.1609 0.7833 -0.6005
vn 0.1609 0.7833 -0.6005
vn 0.4396 0.7833 -0.4396
vn 0.4396 0.7833 -0.4396
vn 0.6005 0.7833 -0.1609
vn 0.6005 0.7833 -0.1609
vn 0.6005 0.7833 0.1609
vn 0.6005 0.7833 0.1609
vn 0.4396 0.7833 0.4396
vn 0.4396 0.7833 0.4396
vn 0.1609 0.7833 0.6005
vn 0.1609 0.7833 0.6005
vn -0.1609 0.7833 0.6005
vn -0.1609 0.7833 0.6005
vn -0.4396 0.7833 0.4396
vn -0.4396 0.7833 0.4396
vn -0.6005 0.7833 0.1609
vn -0.6005 0.7833 0.1609
vn -0.8775 0.4179 -0.2351
vn -0.8775 0.4179 -0.2351
vn -0.6424 0.4179 -0.6424
vn -0.6424 0.4179 -0.6424
vn -0.2351 0.4179 -0.8775
vn -0.2351 0.4179 -0.8775
vn 0.2351 0.4179 -0.8775
vn 0.2351 0.4179 -0.8775
vn 0.6424 0.4179 -0.6424
vn 0.6424 0.4179 -0.6424
vn 0.8775 0.4179 -0.2351
vn 0.8775 0.4179 -0.2351
vn 0.8775 0.4179 0.2351
vn 0.8775 0.4179 0.2351
vn 0.6424 0.4179 0.6424
vn 0.6424 0.4179 0.6424
vn 0.2351 0.4179 0.8775
vn 0.2351 0.4179 0.8775
vn -0.2351 0.4179 0.8775
vn -0.2351 0.4179 0.8775
vn -0.6424 0.4179 0.6424
vn -0.6424 0.4179 0.6424
vn -0.8775 0.4179 0.2351
vn -0.8775 0.4179 0.2351
vn 0.0000 1.0000 0.0000
vn 0.0000 1.0000 -0.0000
vn 0.0000 1.0000 0.0000
vn 0.0000 1.0000 -0.0000
vn 0.0000 1.0000 0.0000
vn 0.0000 1.0000 -0.0000
vn 0.0000 1.0000 0.0000
vn 0.0000 1.0000 -0.0000
vn 0.0000 1.0000 0.0000
vn 0.0000 1.0000 0.0000
vn 0.0000 1.0000 0.0000
vn 0.0000 1.0000 0.0000
vn 0.0000 1.0000 0.0000
vn 0.0000 1.0000 0.0000
vn 0.0000 1.0000 0.0000
vn 0.0000 1.0000 0.0000
vn 0.0000 1.0000 0.0000
vn 0.0000 1.0000 0.0000
vn 0.0000 1.0000 0.0000
vn -0.0000 1.0000 0.0000
vn 0.0000 1.0000 0.0000
vn -0.0000 1.0000 0.0000
vn 0.0000 1.0000 0.0000
vn -0.0000 1.0000 0.0000
vn -0.9659 0.0000 -0.2588
vn -0.9659 0.0000 -0.2588
vn -0.7071 0.0000 -0.7071
vn -0.7071 0.0000 -0.7071
vn -0.2588 0.0000 -0.9659
vn -0.2588 0.0000 -0.9659
vn 0.2588 0.0000 -0.9659
vn 0.2588 0.0000 -0.9659
vn 0.7071 0.0000 -0.7071
vn 0.7071 0.0000 -0.7071
vn 0.9659 0.0000 -0.2588
vn 0.9659 0.0000 -0.2588
vn 0.9659 0.0000 0.2588
vn 0.9659 -0.0000 0.2588
vn 0.7071 0.0000 0.7071
vn 0.7071 -0.0000 0.7071
vn 0.2588 0.0000 0.9659
vn 0.2588 -0.0000 0.9659
vn -0.2588 0.0000 0.9659
vn -0.2588 0.0000 0.9659
vn -0.7071 0.0000 0.7071
vn -0.7071 0.0000 0.7071
vn -0.9659 0.0000 0.2588
vn -0.9659 0.0000 0.2588
vn 0.0000 -1.0000 0.0000
vn 0.0000 -1.0000 0.0000
vn 0.0000 -1.0000 0.0000
vn -0.0000 -1.0000 0.0000
vn 0.0000 -1.0000 0.0000
vn -0.0000 -1.0000 0.0000
vn 0.0000 -1.0000 0.0000
vn 0.0000 -1.0000 0.0000
vn 0.0000 -1.0000 0.0000
vn 0.0000 -1.0000 -0.0000
vn 0.0000 -1.0000 0.0000
vn 0.0000 -1.0000 -0.0000
vn 0.0000 -1.0000 0.0000
vn 0.0000 -1.0000 0.0000
vn 0.0000 -1.0000 0.0000
vn 0.0000 -1.0000 0.0000
vn 0.0000 -1.0000 0.0000
vn 0.0000 -1.0000 0.0000
vn 0.0000 -1.0000 0.0000
vn 0.0000 -1.0000 0.0000
vn 0.0000 -1.0000 0.0000
vn 0.0000 -1.0000 0.0000
vn 0.0000 -1.0000 0.0000
vn 0.0000 -1.0000 0.0000
vn 0.9659 0.0000 0.2588
vn 0.9659 0.0000 0.2588
vn 0.7071 0.0000 0.7071
vn 0.7071 0.0000 0.7071
vn 0.2588 0.0000 0.9659
vn 0.2588 0.0000 0.9659
vn -0.2588 0.0000 0.9659
vn -0.2588 0.0000 0.9659
vn -0.7071 0.0000 0.7071
vn -0.7071 0.0000 0.7071
vn -0.9659 0.0000 0.2588
vn -0.9659 0.0000 0.2588
vn -0.9659 0.0000 -0.2588
vn -0.9659 -0.0000 -0.2588
vn -0.7071 0.0000 -0.7071
vn -0.7071 -0.0000 -0.7071
vn -0.2588 0.0000 -0.9659
vn -0.2588 -0.0000 -0.9659
vn 0.2588 0.0000 -0.9659
vn 0.2588 0.0000 -0.9659
vn 0.7071 0.0000 -0.7071
vn 0.7071 0.0000 -0.7071
vn 0.9659 0.0000 -0.2588
vn 0.9659 0.0000 -0.2588
vn 0.8466 -0.4815 0.2268
vn 0.8466 -0.4815 0.2268
vn 0.6198 -0.4815 0.6198
vn 0.6198 -0.4815 0.6198
vn 0.2268 -0.4815 0.8466
vn 0.2268 -0.4815 0.8466
vn -0.2268 -0.4815 0.8466
vn -0.2268 -0.4815 0.8466
vn -0.6198 -0.4815 0.6198
vn -0.6198 -0.4815 0.6198
vn -0.8466 -0.4815 0.2268
vn -0.8466 -0.4815 0.2268
vn -0.8466 -0.4815 -0.2268
vn -0.8466 -0.4815 -0.2268
vn -0.6198 -0.4815 -0.6198
vn -0.6198 -0.4815 -0.6198
vn -0.2268 -0.4815 -0.8466
vn -0.2268 -0.4815 -0.8466
vn 0.2268 -0.4815 -0.8466
vn 0.2268 -0.4815 -0.8466
vn 0.6198 -0.4815 -0.6198
vn 0.6198 -0.4815 -0.6198
vn 0.8466 -0.4815 -0.2268
vn 0.8466 -0.4815 -0.2268
vn 0.0967 -0.9950 0.0259
vn 0.0708 -0.9950 0.0708
vn 0.0259 -0.9950 0.0967
vn -0.0259 -0.9950 0.0967
vn -0.0708 -0.9950 0.0708
vn -0.0967 -0.9950 0.0259
vn -0.0967 -0.9950 -0.0259
vn -0.0708 -0.9950 -0.0708
vn -0.0259 -0.9950 -0.0967
vn 0.0259 -0.9950 -0.0967
vn 0.0708 -0.9950 -0.0708
vn 0.0967 -0.9950 -0.0259
vn -0.9659 0.0000 -0.2588
vn -0.9659 0.0000 -0.2588
vn -0.7071 0.0000 -0.7071
vn -0.7071 0.0000 -0.7071
vn -0.2588 0.0000 -0.9659
vn -0.2588 0.0000 -0.9659
vn 0.2588 0.0000 -0.9659
vn 0.2588 0.0000 -0.9659
vn 0.7071 0.0000 -0.7071
vn 0.7071 0.0000 -0.7071
vn 0.9659 0.0000 -0.2588
vn 0.9659 0.0000 -0.2588
vn 0.9659 0.0000 0.2588
vn 0.9659 -0.0000 0.2588
vn 0.7071 0.0000 0.7071
vn 0.7071 -0.0000 0.7071
vn 0.2588 0.0000 0.9659
vn 0.2588 -0.0000 0.9659
vn -0.2588 0.0000 0.9659
vn -0.2588 0.0000 0.9659
vn -0.7071 0.0000 0.7071
vn -0.7071 0.0000 0.7071
vn -0.9659 0.0000 0.2588
vn -0.9659 0.0000 0.2588
vn 0.0000 -1.0000 0.0000
vn 0.0000 -1.0000 0.0000
vn 0.0000 -1.0000 0.0000
vn 0.0000 -1.0000 0.0000
vn 0.0000 -1.0000 0.0000
vn 0.0000 -1.0000 0.0000
vn -0.0000 -1.0000 0.0000
vn 0.0000 -1.0000 0.0000
vn 0.0000 -1.0000 0.0000
vn 0.0000 -1.0000 -0.0000
vn 0.0000 -1.0000 0.0000
vn 0.0000 -1.0000 0.0000
vn 0.0000 -1.0000 0.0000
vn 0.0000 -1.0000 0.0000
vn 0.0000 -1.0000 0.0000
vn 0.0000 -1.0000 0.0000
vn 0.0000 -1.0000 0.0000
vn 0.0000 -1.0000 0.0000
vn -0.0000 -1.0000 0.0000
vn 0.0000 -1.0000 0.0000
vn 0.0000 -1.0000 0.0000
vn 0.0000 -1.0000 -0.0000
vn 0.0000 -1.0000 0.0000
vn 0.0000 -1.0000 0.0000
vn -0.9644 0.0000 -0.2644
vn -0.9644 0.0000 -0.2644
vn -0.0000 1.0000 0.0000
vn 0.0000 -1.0000 0.0000
vn -0.8090 0.0000 -0.5878
vn -0.8090 0.0000 -0.5878
vn 0.0000 1.0000 0.0000
vn 0.0000 -1.0000 0.0000
vn -0.5495 0.0000 -0.8355
vn -0.5495 0.0000 -0.8355
vn 0.0000 1.0000 -0.0000
vn 0.0000 -1.0000 0.0000
vn 0.9205 0.0000 -0.3907
vn 0.9205 0.0000 -0.3907
vn 0.0000 1.0000 0.0000
vn -0.0000 -1.0000 0.0000
vn -0.0872 0.0000 0.9962
vn -0.0872 0.0000 0.9962
vn 0.0000 1.0000 0.0000
vn 0.0000 -1.0000 -0.0000
vn -0.0465 0.0000 -0.9989
vn -0.0465 0.0000 -0.9989
vn 0.0000 1.0000 0.0000
vn 0.0000 -1.0000 0.0000
vn 0.3090 0.0000 -0.9511
vn 0.3090 0.0000 -0.9511
vn 0.0000 1.0000 -0.0000
vn 0.0000 -1.0000 0.0000
vn 0.6248 0.0000 -0.7808
vn 0.6248 0.0000 -0.7808
vn 0.0000 1.0000 0.0000
vn -0.0000 -1.0000 0.0000
vn 0.6561 0.0000 0.7547
vn 0.6561 -0.0000 0.7547
vn 0.0000 1.0000 0.0000
vn 0.0000 -1.0000 -0.0000
vn -0.9744 0.0000 0.2250
vn -0.9744 0.0000 0.2250
vn -0.0000 1.0000 0.0000
vn 0.0000 -1.0000 0.0000
vn 0.9356 0.0000 -0.3529
vn 0.9356 0.0000 -0.3529
vn 0.0000 1.0000 0.0000
vn 0.0000 -1.0000 0.0000
vn 1.0000 0.0000 0.0000
vn 1.0000 -0.0000 0.0000
vn 0.0000 1.0000 0.0000
vn -0.0000 -1.0000 0.0000
vn 0.9356 0.0000 0.3529
vn 0.9356 -0.0000 0.3529
vn 0.0000 1.0000 0.0000
vn 0.0000 -1.0000 0.0000
vn -0.5150 0.0000 0.8572
vn -0.5150 0.0000 0.8572
vn 0.0000 1.0000 0.0000
vn 0.0000 -1.0000 -0.0000
vn -0.5150 0.0000 -0.8572
vn -0.5150 0.0000 -0.8572
vn -0.0000 1.0000 -0.0000
vn 0.0000 -1.0000 0.0000
vn 0.6248 0.0000 0.7808
vn 0.6248 -0.0000 0.7808
vn 0.0000 1.0000 0.0000
vn -0.0000 -1.0000 0.0000
vn 0.3090 0.0000 0.9511
vn 0.3090 -0.0000 0.9511
vn 0.0000 1.0000 0.0000
vn 0.0000 -1.0000 -0.0000
vn -0.0465 0.0000 0.9989
vn -0.0465 0.0000 0.9989
vn 0.0000 1.0000 0.0000
vn 0.0000 -1.0000 0.0000
vn -0.9744 0.0000 -0.2250
vn -0.9744 0.0000 -0.2250
vn -0.0000 1.0000 0.0000
vn 0.0000 -1.0000 0.0000
vn 0.6561 0.0000 -0.7547
vn 0.6561 0.0000 -0.7547
vn 0.0000 1.0000 -0.0000
vn 0.0000 -1.0000 0.0000
vn -0.5495 0.0000 0.8355
vn -0.5495 0.0000 0.8355
vn 0.0000 1.0000 0.0000
vn 0.0000 -1.0000 -0.0000
vn -0.8090 0.0000 0.5878
vn -0.8090 0.0000 0.5878
vn 0.0000 1.0000 0.0000
vn 0.0000 -1.0000 0.0000
vn -0.9644 0.0000 0.2644
vn -0.9644 0.0000 0.2644
vn -0.0000 1.0000 0.0000
vn 0.0000 -1.0000 0.0000
vn -0.0872 0.0000 -0.9962
vn -0.0872 0.0000 -0.9962
vn 0.0000 1.0000 -0.0000
vn 0.0000 -1.0000 0.0000
vn 0.9205 0.0000 0.3907
vn 0.9205 -0.0000 0.3907
vn 0.0000 1.0000 0.0000
vn -0.0000 -1.0000 0.0000
vn -0.9373 0.0000 -0.3484
vn -0.9373 0.0000 -0.3484
vn -0.0000 1.0000 0.0000
vn 0.0000 -1.0000 0.0000
vn -0.5525 0.0000 -0.8335
vn -0.5525 0.0000 -0.8335
vn 0.0000 1.0000 0.0000
vn 0.0000 -1.0000 0.0000
vn 0.0441 0.0000 -0.9990
vn 0.0441 0.0000 -0.9990
vn 0.0000 1.0000 -0.0000
vn 0.0000 -1.0000 0.0000
vn 0.6239 0.0000 -0.7815
vn 0.6239 0.0000 -0.7815
vn 0.0000 1.0000 0.0000
vn 0.0000 -1.0000 0.0000
vn 0.9645 0.0000 -0.2642
vn 0.9645 0.0000 -0.2642
vn 0.0000 1.0000 0.0000
vn -0.0000 -1.0000 0.0000
vn 0.9350 0.0000 0.3546
vn 0.9350 -0.0000 0.3546
vn 0.0000 1.0000 0.0000
vn 0.0000 -1.0000 0.0000
vn 0.5467 0.0000 0.8373
vn 0.5467 -0.0000 0.8373
vn 0.0000 1.0000 0.0000
vn 0.0000 -1.0000 0.0000
vn -0.0515 0.0000 0.9987
vn -0.0515 0.0000 0.9987
vn 0.0000 1.0000 0.0000
vn 0.0000 -1.0000 -0.0000
vn -0.2711 0.0000 0.9626
vn -0.2711 0.0000 0.9626
vn 0.0000 1.0000 0.0000
vn 0.0000 -1.0000 0.0000
vn -0.9511 0.0000 0.3090
vn -0.9511 0.0000 0.3090
vn 0.0000 1.0000 0.0000
vn 0.0000 -1.0000 0.0000
vn -0.3688 0.9048 -0.2129
vn 0.0000 0.9048 -0.4258
vn 0.3688 0.9048 -0.2129
vn 0.3688 0.9048 0.2129
vn 0.0000 0.9048 0.4258
vn -0.3688 0.9048 0.2129
vn -0.8660 0.0000 -0.5000
vn -0.8660 0.0000 -0.5000
vn 0.0000 0.0000 -1.0000
vn -0.0000 0.0000 -1.0000
vn 0.8660 0.0000 -0.5000
vn 0.8660 0.0000 -0.5000
vn 0.8660 0.0000 0.5000
vn 0.8660 -0.0000 0.5000
vn 0.0000 0.0000 1.0000
vn 0.0000 0.0000 1.0000
vn -0.8660 0.0000 0.5000
vn -0.8660 0.0000 0.5000
vn -0.3688 -0.9048 -0.2129
vn -0.0000 -0.9048 -0.4258
vn 0.3688 -0.9048 -0.2129
vn 0.3688 -0.9048 0.2129
vn 0.0000 -0.9048 0.4258
vn -0.3688 -0.9048 0.2129
vn -0.4700 0.8140 -0.3414
vn 0.1795 0.8140 -0.5525
vn 0.5809 0.8140 0.0000
vn 0.1795 0.8140 0.5525
vn -0.4700 0.8140 0.3414
vn -0.8090 0.0000 -0.5878
vn -0.8090 0.0000 -0.5878
vn 0.3090 0.0000 -0.9511
vn 0.3090 0.0000 -0.9511
vn 1.0000 0.0000 0.0000
vn 1.0000 -0.0000 0.0000
vn 0.3090 0.0000 0.9511
vn 0.3090 0.0000 0.9511
vn -0.8090 0.0000 0.5878
vn -0.8090 0.0000 0.5878
vn -0.4700 -0.8140 -0.3414
vn 0.1795 -0.8140 -0.5525
vn 0.5809 -0.8140 0.0000
vn 0.1795 -0.8140 0.5525
vn -0.4700 -0.8140 0.3414
usemtl c0
f 1//1 14//1 13//1
f 2//2 15//2 14//2
f 3//3 16//3 15//3
f 4//4 17//4 16//4
f 5//5 18//5 17//5
f 6//6 19//6 18//6
f 7//7 20//7 19//7
f 8//8 21//8 20//8
f 9//9 22//9 21//9
f 10//10 23//10 22//10
f 11//11 24//11 23//11
f 12//12 13//12 24//12
f 13//13 14//13 26//13
f 13//14 26//14 25//14
f 14//15 15//15 27//15
f 14//16 27//16 26//16
f 15//17 16//17 28//17
f 15//18 28//18 27//18
f 16//19 17//19 29//19
f 16//20 29//20 28//20
f 17//21 18//21 30//21
f 17//22 30//22 29//22
f 18//23 19//23 31//23
f 18//24 31//24 30//24
f 19//25 20//25 32//25
f 19//26 32//26 31//26
f 20//27 21//27 33//27
f 20//28 33//28 32//28
f 21//29 22//29 34//29
f 21//30 34//30 33//30
f 22//31 23//31 35//31
f 22//32 35//32 34//32
f 23//33 24//33 36//33
f 23//34 36//34 35//34
f 24//35 13//35 25//35
f 24//36 25//36 36//36
f 25//37 26//37 38//37
f 25//38 38//38 37//38
f 26//39 27//39 39//39
f 26//40 39//40 38//40
f 27//41 28//41 40//41
f 27//42 40//42 39//42
f 28//43 29//43 41//43
f 28//44 41//44 40//44
f 29//45 30//45 42//45
f 29//46 42//46 41//46
f 30//47 31//47 43//47
f 30//48 43//48 42//48
f 31//49 32//49 44//49
f 31//50 44//50 43//50
f 32//51 33//51 45//51
f 32//52 45//52 44//52
f 33//53 34//53 46//53
f 33//54 46//54 45//54
f 34//55 35//55 47//55
f 34//56 47//56 46//56
f 35//57 36//57 48//57
f 35//58 48//58 47//58
f 36//59 25//59 37//59
f 36//60 37//60 48//60
f 37//61 38//61 50//61
f 37//62 50//62 49//62
f 38//63 39//63 51//63
f 38//64 51//64 50//64
f 39//65 40//65 52//65
f 39//66 52//66 51//66
f 40//67 41//67 53//67
f 40//68 53//68 52//68
f 41//69 42//69 54//69
f 41//70 54//70 53//70
f 42//71 43//71 55//71
f 42//72 55//72 54//72
f 43//73 44//73 56//73
f 43//74 56//74 55//74
f 44//75 45//75 57//75
f 44//76 57//76 56//76
f 45//77 46//77 58//77
f 45//78 58//78 57//78
f 46//79 47//79 59//79
f 46//80 59//80 58//80
f 47//81 48//81 60//81
f 47//82 60//82 59//82
f 48//83 37//83 49//83
f 48//84 49//84 60//84
usemtl c1
f 61//85 62//85 74//85
f 61//86 74//86 73//86
f 62//87 63//87 75//87
f 62//88 75//88 74//88
f 63//89 64//89 76//89
f 63//90 76//90 75//90
f 64//91 65//91 77//91
f 64//92 77//92 76//92
f 65//93 66//93 78//93
f 65//94 78//94 77//94
f 66//95 67//95 79//95
f 66//96 79//96 78//96
f 67//97 68//97 80//97
f 67//98 80//98 79//98
f 68//99 69//99 81//99
f 68//100 81//100 80//100
f 69//101 70//101 82//101
f 69//102 82//102 81//102
f 70//103 71//103 83//103
f 70//104 83//104 82//104
f 71//105 72//105 84//105
f 71//106 84//106 83//106
f 72//107 61//107 73//107
f 72//108 73//108 84//108
f 73//109 74//109 86//109
f 73//110 86//110 85//110
f 74//111 75//111 87//111
f 74//112 87//112 86//112
f 75//113 76//113 88//113
f 75//114 88//114 87//114
f 76//115 77//115 89//115
f 76//116 89//116 88//116
f 77//117 78//117 90//117
f 77//118 90//118 89//118
f 78//119 79//119 91//119
f 78//120 91//120 90//120
f 79//121 80//121 92//121
f 79//122 92//122 91//122
f 80//123 81//123 93//123
f 80//124 93//124 92//124
f 81//125 82//125 94//125
f 81//126 94//126 93//126
f 82//127 83//127 95//127
f 82//128 95//128 94//128
f 83//129 84//129 96//129
f 83//130 96//130 95//130
f 84//131 73//131 85//131
f 84//132 85//132 96//132
f 85//133 86//133 98//133
f 85//134 98//134 97//134
f 86//135 87//135 99//135
f 86//136 99//136 98//136
f 87//137 88//137 100//137
f 87//138 100//138 99//138
f 88//139 89//139 101//139
f 88//140 101//140 100//140
f 89//141 90//141 102//141
f 89//142 102//142 101//142
f 90//143 91//143 103//143
f 90//144 103//144 102//144
f 91//145 92//145 104//145
f 91//146 104//146 103//146
f 92//147 93//147 105//147
f 92//148 105//148 104//148
f 93//149 94//149 106//149
f 93//150 106//150 105//150
f 94//151 95//151 107//151
f 94//152 107//152 106//152
f 95//153 96//153 108//153
f 95//154 108//154 107//154
f 96//155 85//155 97//155
f 96//156 97//156 108//156
f 97//157 98//157 62//157
f 97//158 62//158 61//158
f 98//159 99//159 63//159
f 98//160 63//160 62//160
f 99//161 100//161 64//161
f 99//162 64//162 63//162
f 100//163 101//163 65//163
f 100//164 65//164 64//164
f 101//165 102//165 66//165
f 101//166 66//166 65//166
f 102//167 103//167 67//167
f 102//168 67//168 66//168
f 103//169 104//169 68//169
f 103//170 68//170 67//170
f 104//171 105//171 69//171
f 104//172 69//172 68//172
f 105//173 106//173 70//173
f 105//174 70//174 69//174
f 106//175 107//175 71//175
f 106//176 71//176 70//176
f 107//177 108//177 72//177
f 107//178 72//178 71//178
f 108//179 97//179 61//179
f 108//180 61//180 72//180
usemtl c2
f 109//181 110//181 122//181
f 109//182 122//182 121//182
f 110//183 111//183 123//183
f 110//184 123//184 122//184
f 111//185 112//185 124//185
f 111//186 124//186 123//186
f 112//187 113//187 125//187
f 112//188 125//188 124//188
f 113//189 114//189 126//189
f 113//190 126//190 125//190
f 114//191 115//191 127//191
f 114//192 127//192 126//192
f 115//193 116//193 128//193
f 115//194 128//194 127//194
f 116//195 117//195 129//195
f 116//196 129//196 128//196
f 117//197 118//197 130//197
f 117//198 130//198 129//198
f 118//199 119//199 131//199
f 118//200 131//200 130//200
f 119//201 120//201 132//201
f 119//202 132//202 131//202
f 120//203 109//203 121//203
f 120//204 121//204 132//204
f 121//205 122//205 134//205
f 122//206 123//206 135//206
f 123//207 124//207 136//207
f 124//208 125//208 137//208
f 125//209 126//209 138//209
f 126//210 127//210 139//210
f 127//211 128//211 140//211
f 128//212 129//212 141//212
f 129//213 130//213 142//213
f 130//214 131//214 143//214
f 131//215 132//215 144//215
f 132//216 121//216 133//216
f 145//217 146//217 158//217
f 145//218 158//218 157//218
f 146//219 147//219 159//219
f 146//220 159//220 158//220
f 147//221 148//221 160//221
f 147//222 160//222 159//222
f 148//223 149//223 161//223
f 148//224 161//224 160//224
f 149//225 150//225 162//225
f 149//226 162//226 161//226
f 150//227 151//227 163//227
f 150//228 163//228 162//228
f 151//229 152//229 164//229
f 151//230 164//230 163//230
f 152//231 153//231 165//231
f 152//232 165//232 164//232
f 153//233 154//233 166//233
f 153//234 166//234 165//234
f 154//235 155//235 167//235
f 154//236 167//236 166//236
f 155//237 156//237 168//237
f 155//238 168//238 167//238
f 156//239 145//239 157//239
f 156//240 157//240 168//240
f 169//241 145//241 146//241
f 169//242 146//242 147//242
f 169//243 147//243 148//243
f 169//244 148//244 149//244
f 169//245 149//245 150//245
f 169//246 150//246 151//246
f 169//247 151//247 152//247
f 169//248 152//248 153//248
f 169//249 153//249 154//249
f 169//250 154//250 155//250
f 169//251 155//251 156//251
f 169//252 156//252 145//252
f 170//253 157//253 158//253
f 170//254 158//254 159//254
f 170//255 159//255 160//255
f 170//256 160//256 161//256
f 170//257 161//257 162//257
f 170//258 162//258 163//258
f 170//259 163//259 164//259
f 170//260 164//260 165//260
f 170//261 165//261 166//261
f 170//262 166//262 167//262
f 170//263 167//263 168//263
f 170//264 168//264 157//264
usemtl c3
f 171//265 172//265 177//265
f 171//266 177//266 176//266
f 181//267 172//267 171//267
f 182//268 176//268 177//268
f 172//269 173//269 178//269
f 172//270 178//270 177//270
f 181//271 173//271 172//271
f 182//272 177//272 178//272
f 173//273 174//273 179//273
f 173//274 179//274 178//274
f 181//275 174//275 173//275
f 182//276 178//276 179//276
f 174//277 175//277 180//277
f 174//278 180//278 179//278
f 181//279 175//279 174//279
f 182//280 179//280 180//280
f 175//281 171//281 176//281
f 175//282 176//282 180//282
f 181//283 171//283 175//283
f 182//284 180//284 176//284
usemtl c4
f 183//285 184//285 189//285
f 183//286 189//286 188//286
f 193//287 184//287 183//287
f 194//288 188//288 189//288
f 184//289 185//289 190//289
f 184//290 190//290 189//290
f 193//291 185//291 184//291
f 194//292 189//292 190//292
f 185//293 186//293 191//293
f 185//294 191//294 190//294
f 193//295 186//295 185//295
f 194//296 190//296 191//296
f 186//297 187//297 192//297
f 186//298 192//298 191//298
f 193//299 187//299 186//299
f 194//300 191//300 192//300
f 187//301 183//301 188//301
f 187//302 188//302 192//302
f 193//303 183//303 187//303
f 194//304 192//304 188//304
usemtl c5
f 195//305 196//305 201//305
f 195//306 201//306 200//306
f 205//307 196//307 195//307
f 206//308 200//308 201//308
f 196//309 197//309 202//309
f 196//310 202//310 201//310
f 205//311 197//311 196//311
f 206//312 201//312 202//312
f 197//313 198//313 203//313
f 197//314 203//314 202//314
f 205//315 198//315 197//315
f 206//316 202//316 203//316
f 198//317 199//317 204//317
f 198//318 204//318 203//318
f 205//319 199//319 198//319
f 206//320 203//320 204//320
f 199//321 195//321 200//321
f 199//322 200//322 204//322
f 205//323 195//323 199//323
f 206//324 204//324 200//324
usemtl c6
f 207//325 208//325 213//325
f 207//326 213//326 212//326
f 217//327 208//327 207//327
f 218//328 212//328 213//328
f 208//329 209//329 214//329
f 208//330 214//330 213//330
f 217//331 209//331 208//331
f 218//332 213//332 214//332
f 209//333 210//333 215//333
f 209//334 215//334 214//334
f 217//335 210//335 209//335
f 218//336 214//336 215//336
f 210//337 211//337 216//337
f 210//338 216//338 215//338
f 217//339 211//339 210//339
f 218//340 215//340 216//340
f 211//341 207//341 212//341
f 211//342 212//342 216//342
f 217//343 207//343 211//343
f 218//344 216//344 212//344
usemtl c7
f 219//345 220//345 225//345
f 219//346 225//346 224//346
f 229//347 220//347 219//347
f 230//348 224//348 225//348
f 220//349 221//349 226//349
f 220//350 226//350 225//350
f 229//351 221//351 220//351
f 230//352 225//352 226//352
f 221//353 222//353 227//353
f 221//354 227//354 226//354
f 229//355 222//355 221//355
f 230//356 226//356 227//356
f 222//357 223//357 228//357
f 222//358 228//358 227//358
f 229//359 223//359 222//359
f 230//360 227//360 228//360
f 223//361 219//361 224//361
f 223//362 224//362 228//362
f 229//363 219//363 223//363
f 230//364 228//364 224//364
usemtl c8
f 231//365 232//365 242//365
f 231//366 242//366 241//366
f 251//367 232//367 231//367
f 252//368 241//368 242//368
f 232//369 233//369 243//369
f 232//370 243//370 242//370
f 251//371 233//371 232//371
f 252//372 242//372 243//372
f 233//373 234//373 244//373
f 233//374 244//374 243//374
f 251//375 234//375 233//375
f 252//376 243//376 244//376
f 234//377 235//377 245//377
f 234//378 245//378 244//378
f 251//379 235//379 234//379
f 252//380 244//380 245//380
f 235//381 236//381 246//381
f 235//382 246//382 245//382
f 251//383 236//383 235//383
f 252//384 245//384 246//384
f 236//385 237//385 247//385
f 236//386 247//386 246//386
f 251//387 237//387 236//387
f 252//388 246//388 247//388
f 237//389 238//389 248//389
f 237//390 248//390 247//390
f 251//391 238//391 237//391
f 252//392 247//392 248//392
f 238//393 239//393 249//393
f 238//394 249//394 248//394
f 251//395 239//395 238//395
f 252//396 248//396 249//396
f 239//397 240//397 250//397
f 239//398 250//398 249//398
f 251//399 240//399 239//399
f 252//400 249//400 250//400
f 240//401 231//401 241//401
f 240//402 241//402 250//402
f 251//403 231//403 240//403
f 252//404 250//404 241//404
usemtl c9
f 253//405 260//405 259//405
f 254//406 261//406 260//406
f 255//407 262//407 261//407
f 256//408 263//408 262//408
f 257//409 264//409 263//409
f 258//410 259//410 264//410
f 259//411 260//411 266//411
f 259//412 266//412 265//412
f 260//413 261//413 267//413
f 260//414 267//414 266//414
f 261//415 262//415 268//415
f 261//416 268//416 267//416
f 262//417 263//417 269//417
f 262//418 269//418 268//418
f 263//419 264//419 270//419
f 263//420 270//420 269//420
f 264//421 259//421 265//421
f 264//422 265//422 270//422
f 265//423 266//423 272//423
f 266//424 267//424 273//424
f 267//425 268//425 274//425
f 268//426 269//426 275//426
f 269//427 270//427 276//427
f 270//428 265//428 271//428
usemtl c10
f 277//429 283//429 282//429
f 278//430 284//430 283//430
f 279//431 285//431 284//431
f 280//432 286//432 285//432
f 281//433 282//433 286//433
f 282//434 283//434 288//434
f 282//435 288//435 287//435
f 283//436 284//436 289//436
f 283//437 289//437 288//437
f 284//438 285//438 290//438
f 284//439 290//439 289//439
f 285//440 286//440 291//440
f 285//441 291//441 290//441
f 286//442 282//442 287//442
f 286//443 287//443 291//443
f 287//444 288//444 293//444
f 288//445 289//445 294//445
f 289//446 290//446 295//446
f 290//447 291//447 296//447
f 291//448 287//448 292//448
