mtllib Food_FriedChicken.mtl
v -0.5500 -0.1000 0.2000
v -0.5500 -0.1000 0.2000
v -0.5500 -0.1000 0.2000
v -0.5500 -0.1000 0.2000
v -0.5500 -0.1000 0.2000
v -0.5500 -0.1000 0.2000
v -0.5500 -0.1000 0.2000
v -0.0625 0.0464 0.1140
v -0.1933 0.0464 0.4459
v -0.5926 0.0464 0.5925
v -0.9599 0.0464 0.4436
v -1.0185 0.0464 0.1113
v -0.7243 0.0464 -0.1543
v -0.2989 0.0464 -0.1530
v 0.1394 0.4000 0.0784
v -0.0455 0.4000 0.5477
v -0.6103 0.4000 0.7551
v -1.1297 0.4000 0.5445
v -1.2125 0.4000 0.0745
v -0.7965 0.4000 -0.3010
v -0.1949 0.4000 -0.2993
v -0.0625 0.7536 0.1140
v -0.1933 0.7536 0.4459
v -0.5926 0.7536 0.5925
v -0.9599 0.7536 0.4436
v -1.0185 0.7536 0.1113
v -0.7243 0.7536 -0.1543
v -0.2989 0.7536 -0.1530
v -0.5500 0.9000 0.2000
v -0.5500 0.9000 0.2000
v -0.5500 0.9000 0.2000
v -0.5500 0.9000 0.2000
v -0.5500 0.9000 0.2000
v -0.5500 0.9000 0.2000
v -0.5500 0.9000 0.2000
v -0.3500 0.7300 0.3000
v -0.3500 0.7300 0.3000
v -0.3500 0.7300 0.3000
v -0.3500 0.7300 0.3000
v -0.2600 0.8200 0.3000
v -0.3500 0.8200 0.3900
v -0.4400 0.8200 0.3000
v -0.3500 0.8200 0.2100
v -0.3500 0.9100 0.3000
v -0.3500 0.9100 0.3000
v -0.3500 0.9100 0.3000
v -0.3500 0.9100 0.3000
v -0.7500 0.7300 0.1000
v -0.7500 0.7300 0.1000
v -0.7500 0.7300 0.1000
v -0.7500 0.7300 0.1000
v -0.6600 0.8200 0.1000
v -0.7500 0.8200 0.1900
v -0.8400 0.8200 0.1000
v -0.7500 0.8200 0.0100
v -0.7500 0.9100 0.1000
v -0.7500 0.9100 0.1000
v -0.7500 0.9100 0.1000
v -0.7500 0.9100 0.1000
v -0.5500 0.7300 0.4500
v -0.5500 0.7300 0.4500
v -0.5500 0.7300 0.4500
v -0.5500 0.7300 0.4500
v -0.4600 0.8200 0.4500
v -0.5500 0.8200 0.5400
v -0.6400 0.8200 0.4500
v -0.5500 0.8200 0.3600
v -0.5500 0.9100 0.4500
v -0.5500 0.9100 0.4500
v -0.5500 0.9100 0.4500
v -0.5500 0.9100 0.4500
v 0.5500 -0.1000 0.2500
v 0.5500 -0.1000 0.2500
v 0.5500 -0.1000 0.2500
v 0.5500 -0.1000 0.2500
v 0.5500 -0.1000 0.2500
v 0.5500 -0.1000 0.2500
v 0.5500 -0.1000 0.2500
v 1.0018 0.0464 0.4145
v 0.7277 0.0464 0.6383
v 0.3198 0.0464 0.5697
v 0.0852 0.0464 0.2604
v 0.2006 0.0464 -0.0567
v 0.5791 0.0464 -0.1429
v 0.9357 0.0464 0.0668
v 1.1890 0.4000 0.4826
v 0.8013 0.4000 0.7991
v 0.2244 0.4000 0.7021
v -0.1073 0.4000 0.2647
v 0.0559 0.4000 -0.1838
v 0.5912 0.4000 -0.3056
v 1.0955 0.4000 -0.0091
v 1.0018 0.7536 0.4145
v 0.7277 0.7536 0.6383
v 0.3198 0.7536 0.5697
v 0.0852 0.7536 0.2604
v 0.2006 0.7536 -0.0567
v 0.5791 0.7536 -0.1429
v 0.9357 0.7536 0.0668
v 0.5500 0.9000 0.2500
v 0.5500 0.9000 0.2500
v 0.5500 0.9000 0.2500
v 0.5500 0.9000 0.2500
v 0.5500 0.9000 0.2500
v 0.5500 0.9000 0.2500
v 0.5500 0.9000 0.2500
v 0.7500 0.7300 0.3500
v 0.7500 0.7300 0.3500
v 0.7500 0.7300 0.3500
v 0.7500 0.7300 0.3500
v 0.8400 0.8200 0.3500
v 0.7500 0.8200 0.4400
v 0.6600 0.8200 0.3500
v 0.7500 0.8200 0.2600
v 0.7500 0.9100 0.3500
v 0.7500 0.9100 0.3500
v 0.7500 0.9100 0.3500
v 0.7500 0.9100 0.3500
v 0.3500 0.7300 0.1500
v 0.3500 0.7300 0.1500
v 0.3500 0.7300 0.1500
v 0.3500 0.7300 0.1500
v 0.4400 0.8200 0.1500
v 0.3500 0.8200 0.2400
v 0.2600 0.8200 0.1500
v 0.3500 0.8200 0.0600
v 0.3500 0.9100 0.1500
v 0.3500 0.9100 0.1500
v 0.3500 0.9100 0.1500
v 0.3500 0.9100 0.1500
v 0.5500 0.7300 0.5000
v 0.5500 0.7300 0.5000
v 0.5500 0.7300 0.5000
v 0.5500 0.7300 0.5000
v 0.6400 0.8200 0.5000
v 0.5500 0.8200 0.5900
v 0.4600 0.8200 0.5000
v 0.5500 0.8200 0.4100
v 0.5500 0.9100 0.5000
v 0.5500 0.9100 0.5000
v 0.5500 0.9100 0.5000
v 0.5500 0.9100 0.5000
v 0.0000 -0.1000 -0.5000
v 0.0000 -0.1000 -0.5000
v 0.0000 -0.1000 -0.5000
v 0.0000 -0.1000 -0.5000
v 0.0000 -0.1000 -0.5000
v 0.0000 -0.1000 -0.5000
v 0.0000 -0.1000 -0.5000
v 0.5072 0.0464 -0.5444
v 0.3427 0.0464 -0.2248
v -0.0798 0.0464 -0.1124
v -0.4422 0.0464 -0.2919
v -0.4717 0.0464 -0.6281
v -0.1459 0.0464 -0.8678
v 0.2897 0.0464 -0.8306
v 0.7173 0.4000 -0.5628
v 0.4847 0.4000 -0.1108
v -0.1129 0.4000 0.0481
v -0.6254 0.4000 -0.2057
v -0.6670 0.4000 -0.6812
v -0.2063 0.4000 -1.0202
v 0.4097 0.4000 -0.9675
v 0.5072 0.7536 -0.5444
v 0.3427 0.7536 -0.2248
v -0.0798 0.7536 -0.1124
v -0.4422 0.7536 -0.2919
v -0.4717 0.7536 -0.6281
v -0.1459 0.7536 -0.8678
v 0.2897 0.7536 -0.8306
v 0.0000 0.9000 -0.5000
v 0.0000 0.9000 -0.5000
v -0.0000 0.9000 -0.5000
v -0.0000 0.9000 -0.5000
v -0.0000 0.9000 -0.5000
v -0.0000 0.9000 -0.5000
v 0.0000 0.9000 -0.5000
v 0.2000 0.7300 -0.4000
v 0.2000 0.7300 -0.4000
v 0.2000 0.7300 -0.4000
v 0.2000 0.7300 -0.4000
v 0.2900 0.8200 -0.4000
v 0.2000 0.8200 -0.3100
v 0.1100 0.8200 -0.4000
v 0.2000 0.8200 -0.4900
v 0.2000 0.9100 -0.4000
v 0.2000 0.9100 -0.4000
v 0.2000 0.9100 -0.4000
v 0.2000 0.9100 -0.4000
v -0.2000 0.7300 -0.6000
v -0.2000 0.7300 -0.6000
v -0.2000 0.7300 -0.6000
v -0.2000 0.7300 -0.6000
v -0.1100 0.8200 -0.6000
v -0.2000 0.8200 -0.5100
v -0.2900 0.8200 -0.6000
v -0.2000 0.8200 -0.6900
v -0.2000 0.9100 -0.6000
v -0.2000 0.9100 -0.6000
v -0.2000 0.9100 -0.6000
v -0.2000 0.9100 -0.6000
v 0.0000 0.7300 -0.2500
v 0.0000 0.7300 -0.2500
v 0.0000 0.7300 -0.2500
v 0.0000 0.7300 -0.2500
v 0.0900 0.8200 -0.2500
v 0.0000 0.8200 -0.1600
v -0.0900 0.8200 -0.2500
v -0.0000 0.8200 -0.3400
v 0.0000 0.9100 -0.2500
v 0.0000 0.9100 -0.2500
v -0.0000 0.9100 -0.2500
v -0.0000 0.9100 -0.2500
vn -0.3050 0.9447 -0.1202
vn -0.1319 0.9240 -0.3590
vn 0.1352 0.9330 -0.3334
vn 0.3073 0.9501 -0.0542
vn 0.2411 0.9330 0.2671
vn -0.0011 0.9240 0.3825
vn -0.2455 0.9447 0.2173
vn -0.8340 0.4432 -0.3286
vn -0.8340 0.4432 -0.3286
vn -0.3185 0.3829 -0.8672
vn -0.3185 0.3829 -0.8672
vn 0.3433 0.4065 -0.8467
vn 0.3433 0.4065 -0.8467
vn 0.8729 0.4631 -0.1539
vn 0.8729 0.4631 -0.1539
vn 0.6122 0.4065 0.6782
vn 0.6122 0.4065 0.6782
vn -0.0027 0.3829 0.9238
vn -0.0027 0.3829 0.9238
vn -0.6713 0.4432 0.5940
vn -0.6713 0.4432 0.5940
vn -0.8340 -0.4432 -0.3286
vn -0.8340 -0.4432 -0.3286
vn -0.3185 -0.3829 -0.8672
vn -0.3185 -0.3829 -0.8672
vn 0.3433 -0.4065 -0.8467
vn 0.3433 -0.4065 -0.8467
vn 0.8729 -0.4631 -0.1539
vn 0.8729 -0.4631 -0.1539
vn 0.6122 -0.4065 0.6782
vn 0.6122 -0.4065 0.6782
vn -0.0027 -0.3829 0.9238
vn -0.0027 -0.3829 0.9238
vn -0.6713 -0.4432 0.5940
vn -0.6713 -0.4432 0.5940
vn -0.3050 -0.9447 -0.1202
vn -0.1319 -0.9240 -0.3590
vn 0.1352 -0.9330 -0.3334
vn 0.3073 -0.9501 -0.0542
vn 0.2411 -0.9330 0.2671
vn -0.0011 -0.9240 0.3825
vn -0.2455 -0.9447 0.2173
vn -0.5774 0.5774 -0.5774
vn 0.5774 0.5774 -0.5774
vn 0.5774 0.5774 0.5774
vn -0.5774 0.5774 0.5774
vn -0.5774 -0.5774 -0.5774
vn 0.5774 -0.5774 -0.5774
vn 0.5774 -0.5774 0.5774
vn -0.5774 -0.5774 0.5774
vn -0.5774 0.5774 -0.5774
vn 0.5774 0.5774 -0.5774
vn 0.5774 0.5774 0.5774
vn -0.5774 0.5774 0.5774
vn -0.5774 -0.5774 -0.5774
vn 0.5774 -0.5774 -0.5774
vn 0.5774 -0.5774 0.5774
vn -0.5774 -0.5774 0.5774
vn -0.5774 0.5774 -0.5774
vn 0.5774 0.5774 -0.5774
vn 0.5774 0.5774 0.5774
vn -0.5774 0.5774 0.5774
vn -0.5774 -0.5774 -0.5774
vn 0.5774 -0.5774 -0.5774
vn 0.5774 -0.5774 0.5774
vn -0.5774 -0.5774 0.5774
vn -0.2113 0.9425 -0.2588
vn 0.0634 0.9238 -0.3775
vn 0.2888 0.9320 -0.2190
vn 0.3009 0.9473 0.1095
vn 0.0804 0.9320 0.3534
vn -0.1940 0.9238 0.3300
vn -0.3282 0.9425 0.0624
vn -0.5693 0.4357 -0.6972
vn -0.5693 0.4357 -0.6972
vn 0.1531 0.3826 -0.9111
vn 0.1531 0.3826 -0.9111
vn 0.7290 0.4037 -0.5529
vn 0.7290 0.4037 -0.5529
vn 0.8379 0.4526 0.3050
vn 0.8379 0.4526 0.3050
vn 0.2030 0.4037 0.8921
vn 0.2030 0.4037 0.8921
vn -0.4684 0.3826 0.7964
vn -0.4684 0.3826 0.7964
vn -0.8842 0.4357 0.1682
vn -0.8842 0.4357 0.1682
vn -0.5693 -0.4357 -0.6972
vn -0.5693 -0.4357 -0.6972
vn 0.1531 -0.3826 -0.9111
vn 0.1531 -0.3826 -0.9111
vn 0.7290 -0.4037 -0.5529
vn 0.7290 -0.4037 -0.5529
vn 0.8379 -0.4526 0.3050
vn 0.8379 -0.4526 0.3050
vn 0.2030 -0.4037 0.8921
vn 0.2030 -0.4037 0.8921
vn -0.4684 -0.3826 0.7964
vn -0.4684 -0.3826 0.7964
vn -0.8842 -0.4357 0.1682
vn -0.8842 -0.4357 0.1682
vn -0.2113 -0.9425 -0.2588
vn 0.0634 -0.9238 -0.3775
vn 0.2888 -0.9320 -0.2190
vn 0.3009 -0.9473 0.1095
vn 0.0804 -0.9320 0.3534
vn -0.1940 -0.9238 0.3300
vn -0.3282 -0.9425 0.0624
vn -0.5774 0.5774 -0.5774
vn 0.5774 0.5774 -0.5774
vn 0.5774 0.5774 0.5774
vn -0.5774 0.5774 0.5774
vn -0.5774 -0.5774 -0.5774
vn 0.5774 -0.5774 -0.5774
vn 0.5774 -0.5774 0.5774
vn -0.5774 -0.5774 0.5774
vn -0.5774 0.5774 -0.5774
vn 0.5774 0.5774 -0.5774
vn 0.5774 0.5774 0.5774
vn -0.5774 0.5774 0.5774
vn -0.5774 -0.5774 -0.5774
vn 0.5774 -0.5774 -0.5774
vn 0.5774 -0.5774 0.5774
vn -0.5774 -0.5774 0.5774
vn -0.5774 0.5774 -0.5774
vn 0.5774 0.5774 -0.5774
vn 0.5774 0.5774 0.5774
vn -0.5774 0.5774 0.5774
vn -0.5774 -0.5774 -0.5774
vn 0.5774 -0.5774 -0.5774
vn 0.5774 -0.5774 0.5774
vn -0.5774 -0.5774 0.5774
vn -0.2863 0.9468 -0.1473
vn -0.0982 0.9241 -0.3694
vn 0.1586 0.9340 -0.3202
vn 0.3030 0.9526 -0.0265
vn 0.2118 0.9340 0.2878
vn -0.0326 0.9241 0.3808
vn -0.2563 0.9468 0.1948
vn -0.7939 0.4505 -0.4085
vn -0.7939 0.4505 -0.4085
vn -0.2374 0.3832 -0.8927
vn -0.2374 0.3832 -0.8927
vn 0.4050 0.4092 -0.8177
vn 0.4050 0.4092 -0.8177
vn 0.8775 0.4734 -0.0768
vn 0.8775 0.4734 -0.0768
vn 0.5408 0.4092 0.7349
vn 0.5408 0.4092 0.7349
vn -0.0787 0.3832 0.9203
vn -0.0787 0.3832 0.9203
vn -0.7109 0.4505 0.5401
vn -0.7109 0.4505 0.5401
vn -0.7939 -0.4505 -0.4085
vn -0.7939 -0.4505 -0.4085
vn -0.2374 -0.3832 -0.8927
vn -0.2374 -0.3832 -0.8927
vn 0.4050 -0.4092 -0.8177
vn 0.4050 -0.4092 -0.8177
vn 0.8775 -0.4734 -0.0768
vn 0.8775 -0.4734 -0.0768
vn 0.5408 -0.4092 0.7349
vn 0.5408 -0.4092 0.7349
vn -0.0787 -0.3832 0.9203
vn -0.0787 -0.3832 0.9203
vn -0.7109 -0.4505 0.5401
vn -0.7109 -0.4505 0.5401
vn -0.2863 -0.9468 -0.1473
vn -0.0982 -0.9241 -0.3694
vn 0.1586 -0.9340 -0.3202
vn 0.3030 -0.9526 -0.0265
vn 0.2118 -0.9340 0.2878
vn -0.0326 -0.9241 0.3808
vn -0.2563 -0.9468 0.1948
vn -0.5774 0.5774 -0.5774
vn 0.5774 0.5774 -0.5774
vn 0.5774 0.5774 0.5774
vn -0.5774 0.5774 0.5774
vn -0.5774 -0.5774 -0.5774
vn 0.5774 -0.5774 -0.5774
vn 0.5774 -0.5774 0.5774
vn -0.5774 -0.5774 0.5774
vn -0.5774 0.5774 -0.5774
vn 0.5774 0.5774 -0.5774
vn 0.5774 0.5774 0.5774
vn -0.5774 0.5774 0.5774
vn -0.5774 -0.5774 -0.5774
vn 0.5774 -0.5774 -0.5774
vn 0.5774 -0.5774 0.5774
vn -0.5774 -0.5774 0.5774
vn -0.5774 0.5774 -0.5774
vn 0.5774 0.5774 -0.5774
vn 0.5774 0.5774 0.5774
vn -0.5774 0.5774 0.5774
vn -0.5774 -0.5774 -0.5774
vn 0.5774 -0.5774 -0.5774
vn 0.5774 -0.5774 0.5774
vn -0.5774 -0.5774 0.5774
usemtl c0
f 1//1 9//1 8//1
f 2//2 10//2 9//2
f 3//3 11//3 10//3
f 4//4 12//4 11//4
f 5//5 13//5 12//5
f 6//6 14//6 13//6
f 7//7 8//7 14//7
f 8//8 9//8 16//8
f 8//9 16//9 15//9
f 9//10 10//10 17//10
f 9//11 17//11 16//11
f 10//12 11//12 18//12
f 10//13 18//13 17//13
f 11//14 12//14 19//14
f 11//15 19//15 18//15
f 12//16 13//16 20//16
f 12//17 20//17 19//17
f 13//18 14//18 21//18
f 13//19 21//19 20//19
f 14//20 8//20 15//20
f 14//21 15//21 21//21
f 15//22 16//22 23//22
f 15//23 23//23 22//23
f 16//24 17//24 24//24
f 16//25 24//25 23//25
f 17//26 18//26 25//26
f 17//27 25//27 24//27
f 18//28 19//28 26//28
f 18//29 26//29 25//29
f 19//30 20//30 27//30
f 19//31 27//31 26//31
f 20//32 21//32 28//32
f 20//33 28//33 27//33
f 21//34 15//34 22//34
f 21//35 22//35 28//35
f 22//36 23//36 30//36
f 23//37 24//37 31//37
f 24//38 25//38 32//38
f 25//39 26//39 33//39
f 26//40 27//40 34//40
f 27//41 28//41 35//41
f 28//42 22//42 29//42
usemtl c1
f 36//43 41//43 40//43
f 37//44 42//44 41//44
f 38//45 43//45 42//45
f 39//46 40//46 43//46
f 40//47 41//47 45//47
f 41//48 42//48 46//48
f 42//49 43//49 47//49
f 43//50 40//50 44//50
f 48//51 53//51 52//51
f 49//52 54//52 53//52
f 50//53 55//53 54//53
f 51//54 52//54 55//54
f 52//55 53//55 57//55
f 53//56 54//56 58//56
f 54//57 55//57 59//57
f 55//58 52//58 56//58
f 60//59 65//59 64//59
f 61//60 66//60 65//60
f 62//61 67//61 66//61
f 63//62 64//62 67//62
f 64//63 65//63 69//63
f 65//64 66//64 70//64
f 66//65 67//65 71//65
f 67//66 64//66 68//66
usemtl c0
f 72//67 80//67 79//67
f 73//68 81//68 80//68
f 74//69 82//69 81//69
f 75//70 83//70 82//70
f 76//71 84//71 83//71
f 77//72 85//72 84//72
f 78//73 79//73 85//73
f 79//74 80//74 87//74
f 79//75 87//75 86//75
f 80//76 81//76 88//76
f 80//77 88//77 87//77
f 81//78 82//78 89//78
f 81//79 89//79 88//79
f 82//80 83//80 90//80
f 82//81 90//81 89//81
f 83//82 84//82 91//82
f 83//83 91//83 90//83
f 84//84 85//84 92//84
f 84//85 92//85 91//85
f 85//86 79//86 86//86
f 85//87 86//87 92//87
f 86//88 87//88 94//88
f 86//89 94//89 93//89
f 87//90 88//90 95//90
f 87//91 95//91 94//91
f 88//92 89//92 96//92
f 88//93 96//93 95//93
f 89//94 90//94 97//94
f 89//95 97//95 96//95
f 90//96 91//96 98//96
f 90//97 98//97 97//97
f 91//98 92//98 99//98
f 91//99 99//99 98//99
f 92//100 86//100 93//100
f 92//101 93//101 99//101
f 93//102 94//102 101//102
f 94//103 95//103 102//103
f 95//104 96//104 103//104
f 96//105 97//105 104//105
f 97//106 98//106 105//106
f 98//107 99//107 106//107
f 99//108 93//108 100//108
usemtl c1
f 107//109 112//109 111//109
f 108//110 113//110 112//110
f 109//111 114//111 113//111
f 110//112 111//112 114//112
f 111//113 112//113 116//113
f 112//114 113//114 117//114
f 113//115 114//115 118//115
f 114//116 111//116 115//116
f 119//117 124//117 123//117
f 120//118 125//118 124//118
f 121//119 126//119 125//119
f 122//120 123//120 126//120
f 123//121 124//121 128//121
f 124//122 125//122 129//122
f 125//123 126//123 130//123
f 126//124 123//124 127//124
f 131//125 136//125 135//125
f 132//126 137//126 136//126
f 133//127 138//127 137//127
f 134//128 135//128 138//128
f 135//129 136//129 140//129
f 136//130 137//130 141//130
f 137//131 138//131 142//131
f 138//132 135//132 139//132
usemtl c0
f 143//133 151//133 150//133
f 144//134 152//134 151//134
f 145//135 153//135 152//135
f 146//136 154//136 153//136
f 147//137 155//137 154//137
f 148//138 156//138 155//138
f 149//139 150//139 156//139
f 150//140 151//140 158//140
f 150//141 158//141 157//141
f 151//142 152//142 159//142
f 151//143 159//143 158//143
f 152//144 153//144 160//144
f 152//145 160//145 159//145
f 153//146 154//146 161//146
f 153//147 161//147 160//147
f 154//148 155//148 162//148
f 154//149 162//149 161//149
f 155//150 156//150 163//150
f 155//151 163//151 162//151
f 156//152 150//152 157//152
f 156//153 157//153 163//153
f 157//154 158//154 165//154
f 157//155 165//155 164//155
f 158//156 159//156 166//156
f 158//157 166//157 165//157
f 159//158 160//158 167//158
f 159//159 167//159 166//159
f 160//160 161//160 168//160
f 160//161 168//161 167//161
f 161//162 162//162 169//162
f 161//163 169//163 168//163
f 162//164 163//164 170//164
f 162//165 170//165 169//165
f 163//166 157//166 164//166
f 163//167 164//167 170//167
f 164//168 165//168 172//168
f 165//169 166//169 173//169
f 166//170 167//170 174//170
f 167//171 168//171 175//171
f 168//172 169//172 176//172
f 169//173 170//173 177//173
f 170//174 164//174 171//174
usemtl c1
f 178//175 183//175 182//175
f 179//176 184//176 183//176
f 180//177 185//177 184//177
f 181//178 182//178 185//178
f 182//179 183//179 187//179
f 183//180 184//180 188//180
f 184//181 185//181 189//181
f 185//182 182//182 186//182
f 190//183 195//183 194//183
f 191//184 196//184 195//184
f 192//185 197//185 196//185
f 193//186 194//186 197//186
f 194//187 195//187 199//187
f 195//188 196//188 200//188
f 196//189 197//189 201//189
f 197//190 194//190 198//190
f 202//191 207//191 206//191
f 203//192 208//192 207//192
f 204//193 209//193 208//193
f 205//194 206//194 209//194
f 206//195 207//195 211//195
f 207//196 208//196 212//196
f 208//197 209//197 213//197
f 209//198 206//198 210//198
