mtllib Food_Kimbap.mtl
v -0.1000 0.0000 -0.4500
v -0.1955 0.0000 -0.1561
v -0.4455 0.0000 0.0255
v -0.7545 0.0000 0.0255
v -1.0045 0.0000 -0.1561
v -1.1000 0.0000 -0.4500
v -1.0045 0.0000 -0.7439
v -0.7545 0.0000 -0.9255
v -0.4455 0.0000 -0.9255
v -0.1955 0.0000 -0.7439
v -0.1000 0.3400 -0.4500
v -0.1955 0.3400 -0.1561
v -0.4455 0.3400 0.0255
v -0.7545 0.3400 0.0255
v -1.0045 0.3400 -0.1561
v -1.1000 0.3400 -0.4500
v -1.0045 0.3400 -0.7439
v -0.7545 0.3400 -0.9255
v -0.4455 0.3400 -0.9255
v -0.1955 0.3400 -0.7439
v -0.6000 0.0000 -0.4500
v -0.6000 0.3400 -0.4500
v -0.1800 0.0000 -0.4500
v -0.2602 0.0000 -0.2031
v -0.4702 0.0000 -0.0506
v -0.7298 0.0000 -0.0506
v -0.9398 0.0000 -0.2031
v -1.0200 0.0000 -0.4500
v -0.9398 0.0000 -0.6969
v -0.7298 0.0000 -0.8494
v -0.4702 0.0000 -0.8494
v -0.2602 0.0000 -0.6969
v -0.1800 0.3600 -0.4500
v -0.2602 0.3600 -0.2031
v -0.4702 0.3600 -0.0506
v -0.7298 0.3600 -0.0506
v -0.9398 0.3600 -0.2031
v -1.0200 0.3600 -0.4500
v -0.9398 0.3600 -0.6969
v -0.7298 0.3600 -0.8494
v -0.4702 0.3600 -0.8494
v -0.2602 0.3600 -0.6969
v -0.6000 0.0000 -0.4500
v -0.6000 0.3600 -0.4500
v -0.6300 0.0000 -0.5500
v -0.6800 0.0000 -0.4634
v -0.7800 0.0000 -0.4634
v -0.8300 0.0000 -0.5500
v -0.7800 0.0000 -0.6366
v -0.6800 0.0000 -0.6366
v -0.6300 0.3800 -0.5500
v -0.6800 0.3800 -0.4634
v -0.7800 0.3800 -0.4634
v -0.8300 0.3800 -0.5500
v -0.7800 0.3800 -0.6366
v -0.6800 0.3800 -0.6366
v -0.7300 0.0000 -0.5500
v -0.7300 0.3800 -0.5500
v -0.3700 0.0000 -0.5500
v -0.4200 0.0000 -0.4634
v -0.5200 0.0000 -0.4634
v -0.5700 0.0000 -0.5500
v -0.5200 0.0000 -0.6366
v -0.4200 0.0000 -0.6366
v -0.3700 0.3800 -0.5500
v -0.4200 0.3800 -0.4634
v -0.5200 0.3800 -0.4634
v -0.5700 0.3800 -0.5500
v -0.5200 0.3800 -0.6366
v -0.4200 0.3800 -0.6366
v -0.4700 0.0000 -0.5500
v -0.4700 0.3800 -0.5500
v -0.6300 0.0000 -0.3300
v -0.6800 0.0000 -0.2434
v -0.7800 0.0000 -0.2434
v -0.8300 0.0000 -0.3300
v -0.7800 0.0000 -0.4166
v -0.6800 0.0000 -0.4166
v -0.6300 0.3800 -0.3300
v -0.6800 0.3800 -0.2434
v -0.7800 0.3800 -0.2434
v -0.8300 0.3800 -0.3300
v -0.7800 0.3800 -0.4166
v -0.6800 0.3800 -0.4166
v -0.7300 0.0000 -0.3300
v -0.7300 0.3800 -0.3300
v -0.3700 0.0000 -0.3300
v -0.4200 0.0000 -0.2434
v -0.5200 0.0000 -0.2434
v -0.5700 0.0000 -0.3300
v -0.5200 0.0000 -0.4166
v -0.4200 0.0000 -0.4166
v -0.3700 0.3800 -0.3300
v -0.4200 0.3800 -0.2434
v -0.5200 0.3800 -0.2434
v -0.5700 0.3800 -0.3300
v -0.5200 0.3800 -0.4166
v -0.4200 0.3800 -0.4166
v -0.4700 0.0000 -0.3300
v -0.4700 0.3800 -0.3300
v -0.5000 0.0000 -0.4500
v -0.5500 0.0000 -0.3634
v -0.6500 0.0000 -0.3634
v -0.7000 0.0000 -0.4500
v -0.6500 0.0000 -0.5366
v -0.5500 0.0000 -0.5366
v -0.5000 0.3800 -0.4500
v -0.5500 0.3800 -0.3634
v -0.6500 0.3800 -0.3634
v -0.7000 0.3800 -0.4500
v -0.6500 0.3800 -0.5366
v -0.5500 0.3800 -0.5366
v -0.6000 0.0000 -0.4500
v -0.6000 0.3800 -0.4500
v 1.1000 0.0000 -0.4500
v 1.0045 0.0000 -0.1561
v 0.7545 0.0000 0.0255
v 0.4455 0.0000 0.0255
v 0.1955 0.0000 -0.1561
v 0.1000 0.0000 -0.4500
v 0.1955 0.0000 -0.7439
v 0.4455 0.0000 -0.9255
v 0.7545 0.0000 -0.9255
v 1.0045 0.0000 -0.7439
v 1.1000 0.3400 -0.4500
v 1.0045 0.3400 -0.1561
v 0.7545 0.3400 0.0255
v 0.4455 0.3400 0.0255
v 0.1955 0.3400 -0.1561
v 0.1000 0.3400 -0.4500
v 0.1955 0.3400 -0.7439
v 0.4455 0.3400 -0.9255
v 0.7545 0.3400 -0.9255
v 1.0045 0.3400 -0.7439
v 0.6000 0.0000 -0.4500
v 0.6000 0.3400 -0.4500
v 1.0200 0.0000 -0.4500
v 0.9398 0.0000 -0.2031
v 0.7298 0.0000 -0.0506
v 0.4702 0.0000 -0.0506
v 0.2602 0.0000 -0.2031
v 0.1800 0.0000 -0.4500
v 0.2602 0.0000 -0.6969
v 0.4702 0.0000 -0.8494
v 0.7298 0.0000 -0.8494
v 0.9398 0.0000 -0.6969
v 1.0200 0.3600 -0.4500
v 0.9398 0.3600 -0.2031
v 0.7298 0.3600 -0.0506
v 0.4702 0.3600 -0.0506
v 0.2602 0.3600 -0.2031
v 0.1800 0.3600 -0.4500
v 0.2602 0.3600 -0.6969
v 0.4702 0.3600 -0.8494
v 0.7298 0.3600 -0.8494
v 0.9398 0.3600 -0.6969
v 0.6000 0.0000 -0.4500
v 0.6000 0.3600 -0.4500
v 0.5700 0.0000 -0.5500
v 0.5200 0.0000 -0.4634
v 0.4200 0.0000 -0.4634
v 0.3700 0.0000 -0.5500
v 0.4200 0.0000 -0.6366
v 0.5200 0.0000 -0.6366
v 0.5700 0.3800 -0.5500
v 0.5200 0.3800 -0.4634
v 0.4200 0.3800 -0.4634
v 0.3700 0.3800 -0.5500
v 0.4200 0.3800 -0.6366
v 0.5200 0.3800 -0.6366
v 0.4700 0.0000 -0.5500
v 0.4700 0.3800 -0.5500
v 0.8300 0.0000 -0.5500
v 0.7800 0.0000 -0.4634
v 0.6800 0.0000 -0.4634
v 0.6300 0.0000 -0.5500
v 0.6800 0.0000 -0.6366
v 0.7800 0.0000 -0.6366
v 0.8300 0.3800 -0.5500
v 0.7800 0.3800 -0.4634
v 0.6800 0.3800 -0.4634
v 0.6300 0.3800 -0.5500
v 0.6800 0.3800 -0.6366
v 0.7800 0.3800 -0.6366
v 0.7300 0.0000 -0.5500
v 0.7300 0.3800 -0.5500
v 0.5700 0.0000 -0.3300
v 0.5200 0.0000 -0.2434
v 0.4200 0.0000 -0.2434
v 0.3700 0.0000 -0.3300
v 0.4200 0.0000 -0.4166
v 0.5200 0.0000 -0.4166
v 0.5700 0.3800 -0.3300
v 0.5200 0.3800 -0.2434
v 0.4200 0.3800 -0.2434
v 0.3700 0.3800 -0.3300
v 0.4200 0.3800 -0.4166
v 0.5200 0.3800 -0.4166
v 0.4700 0.0000 -0.3300
v 0.4700 0.3800 -0.3300
v 0.8300 0.0000 -0.3300
v 0.7800 0.0000 -0.2434
v 0.6800 0.0000 -0.2434
v 0.6300 0.0000 -0.3300
v 0.6800 0.0000 -0.4166
v 0.7800 0.0000 -0.4166
v 0.8300 0.3800 -0.3300
v 0.7800 0.3800 -0.2434
v 0.6800 0.3800 -0.2434
v 0.6300 0.3800 -0.3300
v 0.6800 0.3800 -0.4166
v 0.7800 0.3800 -0.4166
v 0.7300 0.0000 -0.3300
v 0.7300 0.3800 -0.3300
v 0.7000 0.0000 -0.4500
v 0.6500 0.0000 -0.3634
v 0.5500 0.0000 -0.3634
v 0.5000 0.0000 -0.4500
v 0.5500 0.0000 -0.5366
v 0.6500 0.0000 -0.5366
v 0.7000 0.3800 -0.4500
v 0.6500 0.3800 -0.3634
v 0.5500 0.3800 -0.3634
v 0.5000 0.3800 -0.4500
v 0.5500 0.3800 -0.5366
v 0.6500 0.3800 -0.5366
v 0.6000 0.0000 -0.4500
v 0.6000 0.3800 -0.4500
v 0.5000 0.0000 0.5500
v 0.4045 0.0000 0.8439
v 0.1545 0.0000 1.0255
v -0.1545 0.0000 1.0255
v -0.4045 0.0000 0.8439
v -0.5000 0.0000 0.5500
v -0.4045 0.0000 0.2561
v -0.1545 0.0000 0.0745
v 0.1545 0.0000 0.0745
v 0.4045 0.0000 0.2561
v 0.5000 0.3400 0.5500
v 0.4045 0.3400 0.8439
v 0.1545 0.3400 1.0255
v -0.1545 0.3400 1.0255
v -0.4045 0.3400 0.8439
v -0.5000 0.3400 0.5500
v -0.4045 0.3400 0.2561
v -0.1545 0.3400 0.0745
v 0.1545 0.3400 0.0745
v 0.4045 0.3400 0.2561
v 0.0000 0.0000 0.5500
v 0.0000 0.3400 0.5500
v 0.4200 0.0000 0.5500
v 0.3398 0.0000 0.7969
v 0.1298 0.0000 0.9494
v -0.1298 0.0000 0.9494
v -0.3398 0.0000 0.7969
v -0.4200 0.0000 0.5500
v -0.3398 0.0000 0.3031
v -0.1298 0.0000 0.1506
v 0.1298 0.0000 0.1506
v 0.3398 0.0000 0.3031
v 0.4200 0.3600 0.5500
v 0.3398 0.3600 0.7969
v 0.1298 0.3600 0.9494
v -0.1298 0.3600 0.9494
v -0.3398 0.3600 0.7969
v -0.4200 0.3600 0.5500
v -0.3398 0.3600 0.3031
v -0.1298 0.3600 0.1506
v 0.1298 0.3600 0.1506
v 0.3398 0.3600 0.3031
v 0.0000 0.0000 0.5500
v 0.0000 0.3600 0.5500
v -0.0300 0.0000 0.4500
v -0.0800 0.0000 0.5366
v -0.1800 0.0000 0.5366
v -0.2300 0.0000 0.4500
v -0.1800 0.0000 0.3634
v -0.0800 0.0000 0.3634
v -0.0300 0.3800 0.4500
v -0.0800 0.3800 0.5366
v -0.1800 0.3800 0.5366
v -0.2300 0.3800 0.4500
v -0.1800 0.3800 0.3634
v -0.0800 0.3800 0.3634
v -0.1300 0.0000 0.4500
v -0.1300 0.3800 0.4500
v 0.2300 0.0000 0.4500
v 0.1800 0.0000 0.5366
v 0.0800 0.0000 0.5366
v 0.0300 0.0000 0.4500
v 0.0800 0.0000 0.3634
v 0.1800 0.0000 0.3634
v 0.2300 0.3800 0.4500
v 0.1800 0.3800 0.5366
v 0.0800 0.3800 0.5366
v 0.0300 0.3800 0.4500
v 0.0800 0.3800 0.3634
v 0.1800 0.3800 0.3634
v 0.1300 0.0000 0.4500
v 0.1300 0.3800 0.4500
v -0.0300 0.0000 0.6700
v -0.0800 0.0000 0.7566
v -0.1800 0.0000 0.7566
v -0.2300 0.0000 0.6700
v -0.1800 0.0000 0.5834
v -0.0800 0.0000 0.5834
v -0.0300 0.3800 0.6700
v -0.0800 0.3800 0.7566
v -0.1800 0.3800 0.7566
v -0.2300 0.3800 0.6700
v -0.1800 0.3800 0.5834
v -0.0800 0.3800 0.5834
v -0.1300 0.0000 0.6700
v -0.1300 0.3800 0.6700
v 0.2300 0.0000 0.6700
v 0.1800 0.0000 0.7566
v 0.0800 0.0000 0.7566
v 0.0300 0.0000 0.6700
v 0.0800 0.0000 0.5834
v 0.1800 0.0000 0.5834
v 0.2300 0.3800 0.6700
v 0.1800 0.3800 0.7566
v 0.0800 0.3800 0.7566
v 0.0300 0.3800 0.6700
v 0.0800 0.3800 0.5834
v 0.1800 0.3800 0.5834
v 0.1300 0.0000 0.6700
v 0.1300 0.3800 0.6700
v 0.1000 0.0000 0.5500
v 0.0500 0.0000 0.6366
v -0.0500 0.0000 0.6366
v -0.1000 0.0000 0.5500
v -0.0500 0.0000 0.4634
v 0.0500 0.0000 0.4634
v 0.1000 0.3800 0.5500
v 0.0500 0.3800 0.6366
v -0.0500 0.3800 0.6366
v -0.1000 0.3800 0.5500
v -0.0500 0.3800 0.4634
v 0.0500 0.3800 0.4634
v 0.0000 0.0000 0.5500
v 0.0000 0.3800 0.5500
vn -0.9511 0.0000 -0.3090
vn -0.9511 0.0000 -0.3090
vn -0.5878 0.0000 -0.8090
vn -0.5878 0.0000 -0.8090
vn -0.0000 0.0000 -1.0000
vn -0.0000 0.0000 -1.0000
vn 0.5878 0.0000 -0.8090
vn 0.5878 0.0000 -0.8090
vn 0.9511 0.0000 -0.3090
vn 0.9511 0.0000 -0.3090
vn 0.9511 0.0000 0.3090
vn 0.9511 -0.0000 0.3090
vn 0.5878 0.0000 0.8090
vn 0.5878 -0.0000 0.8090
vn 0.0000 0.0000 1.0000
vn 0.0000 0.0000 1.0000
vn -0.5878 0.0000 0.8090
vn -0.5878 0.0000 0.8090
vn -0.9511 0.0000 0.3090
vn -0.9511 0.0000 0.3090
vn 0.0000 -1.0000 0.0000
vn 0.0000 -1.0000 0.0000
vn 0.0000 -1.0000 0.0000
vn 0.0000 -1.0000 0.0000
vn 0.0000 -1.0000 0.0000
vn -0.0000 -1.0000 0.0000
vn 0.0000 -1.0000 0.0000
vn 0.0000 -1.0000 -0.0000
vn 0.0000 -1.0000 0.0000
vn 0.0000 -1.0000 0.0000
vn 0.0000 -1.0000 0.0000
vn 0.0000 -1.0000 0.0000
vn 0.0000 -1.0000 0.0000
vn 0.0000 -1.0000 0.0000
vn 0.0000 -1.0000 0.0000
vn -0.0000 -1.0000 0.0000
vn 0.0000 -1.0000 0.0000
vn 0.0000 -1.0000 -0.0000
vn 0.0000 -1.0000 0.0000
vn 0.0000 -1.0000 0.0000
vn -0.9511 0.0000 -0.3090
vn -0.9511 0.0000 -0.3090
vn -0.5878 0.0000 -0.8090
vn -0.5878 0.0000 -0.8090
vn -0.0000 0.0000 -1.0000
vn -0.0000 0.0000 -1.0000
vn 0.5878 0.0000 -0.8090
vn 0.5878 0.0000 -0.8090
vn 0.9511 0.0000 -0.3090
vn 0.9511 0.0000 -0.3090
vn 0.9511 0.0000 0.3090
vn 0.9511 -0.0000 0.3090
vn 0.5878 0.0000 0.8090
vn 0.5878 -0.0000 0.8090
vn 0.0000 0.0000 1.0000
vn 0.0000 0.0000 1.0000
vn -0.5878 0.0000 0.8090
vn -0.5878 0.0000 0.8090
vn -0.9511 0.0000 0.3090
vn -0.9511 0.0000 0.3090
vn 0.0000 -1.0000 0.0000
vn 0.0000 -1.0000 0.0000
vn 0.0000 -1.0000 0.0000
vn 0.0000 -1.0000 0.0000
vn 0.0000 -1.0000 0.0000
vn -0.0000 -1.0000 0.0000
vn 0.0000 -1.0000 0.0000
vn 0.0000 -1.0000 -0.0000
vn 0.0000 -1.0000 0.0000
vn 0.0000 -1.0000 0.0000
vn 0.0000 -1.0000 0.0000
vn 0.0000 -1.0000 0.0000
vn 0.0000 -1.0000 0.0000
vn 0.0000 -1.0000 0.0000
vn 0.0000 -1.0000 0.0000
vn -0.0000 -1.0000 0.0000
vn 0.0000 -1.0000 0.0000
vn 0.0000 -1.0000 -0.0000
vn 0.0000 -1.0000 0.0000
vn 0.0000 -1.0000 0.0000
vn -0.8660 0.0000 -0.5000
vn -0.8660 0.0000 -0.5000
vn -0.0000 0.0000 -1.0000
vn -0.0000 0.0000 -1.0000
vn 0.8660 0.0000 -0.5000
vn 0.8660 0.0000 -0.5000
vn 0.8660 0.0000 0.5000
vn 0.8660 -0.0000 0.5000
vn 0.0000 0.0000 1.0000
vn 0.0000 0.0000 1.0000
vn -0.8660 0.0000 0.5000
vn -0.8660 0.0000 0.5000
vn 0.0000 -1.0000 0.0000
vn 0.0000 -1.0000 0.0000
vn 0.0000 -1.0000 0.0000
vn -0.0000 -1.0000 0.0000
vn 0.0000 -1.0000 -0.0000
vn 0.0000 -1.0000 0.0000
vn 0.0000 -1.0000 0.0000
vn 0.0000 -1.0000 0.0000
vn 0.0000 -1.0000 0.0000
vn -0.0000 -1.0000 0.0000
vn 0.0000 -1.0000 -0.0000
vn 0.0000 -1.0000 0.0000
vn -0.8660 0.0000 -0.5000
vn -0.8660 0.0000 -0.5000
vn -0.0000 0.0000 -1.0000
vn -0.0000 0.0000 -1.0000
vn 0.8660 0.0000 -0.5000
vn 0.8660 0.0000 -0.5000
vn 0.8660 0.0000 0.5000
vn 0.8660 -0.0000 0.5000
vn 0.0000 0.0000 1.0000
vn 0.0000 0.0000 1.0000
vn -0.8660 0.0000 0.5000
vn -0.8660 0.0000 0.5000
vn 0.0000 -1.0000 0.0000
vn 0.0000 -1.0000 0.0000
vn 0.0000 -1.0000 0.0000
vn -0.0000 -1.0000 0.0000
vn 0.0000 -1.0000 -0.0000
vn 0.0000 -1.0000 0.0000
vn 0.0000 -1.0000 0.0000
vn 0.0000 -1.0000 0.0000
vn 0.0000 -1.0000 0.0000
vn -0.0000 -1.0000 0.0000
vn 0.0000 -1.0000 -0.0000
vn 0.0000 -1.0000 0.0000
vn -0.8660 0.0000 -0.5000
vn -0.8660 0.0000 -0.5000
vn -0.0000 0.0000 -1.0000
vn -0.0000 0.0000 -1.0000
vn 0.8660 0.0000 -0.5000
vn 0.8660 0.0000 -0.5000
vn 0.8660 0.0000 0.5000
vn 0.8660 -0.0000 0.5000
vn 0.0000 0.0000 1.0000
vn 0.0000 -0.0000 1.0000
vn -0.8660 0.0000 0.5000
vn -0.8660 0.0000 0.5000
vn 0.0000 -1.0000 0.0000
vn 0.0000 -1.0000 0.0000
vn 0.0000 -1.0000 0.0000
vn -0.0000 -1.0000 0.0000
vn 0.0000 -1.0000 -0.0000
vn 0.0000 -1.0000 0.0000
vn 0.0000 -1.0000 0.0000
vn 0.0000 -1.0000 0.0000
vn 0.0000 -1.0000 0.0000
vn -0.0000 -1.0000 0.0000
vn 0.0000 -1.0000 -0.0000
vn 0.0000 -1.0000 0.0000
vn -0.8660 0.0000 -0.5000
vn -0.8660 0.0000 -0.5000
vn -0.0000 0.0000 -1.0000
vn -0.0000 0.0000 -1.0000
vn 0.8660 0.0000 -0.5000
vn 0.8660 0.0000 -0.5000
vn 0.8660 0.0000 0.5000
vn 0.8660 -0.0000 0.5000
vn 0.0000 0.0000 1.0000
vn 0.0000 -0.0000 1.0000
vn -0.8660 0.0000 0.5000
vn -0.8660 0.0000 0.5000
vn 0.0000 -1.0000 0.0000
vn 0.0000 -1.0000 0.0000
vn 0.0000 -1.0000 0.0000
vn -0.0000 -1.0000 0.0000
vn 0.0000 -1.0000 -0.0000
vn 0.0000 -1.0000 0.0000
vn 0.0000 -1.0000 0.0000
vn 0.0000 -1.0000 0.0000
vn 0.0000 -1.0000 0.0000
vn -0.0000 -1.0000 0.0000
vn 0.0000 -1.0000 -0.0000
vn 0.0000 -1.0000 0.0000
vn -0.8660 0.0000 -0.5000
vn -0.8660 0.0000 -0.5000
vn 0.0000 0.0000 -1.0000
vn 0.0000 0.0000 -1.0000
vn 0.8660 0.0000 -0.5000
vn 0.8660 0.0000 -0.5000
vn 0.8660 0.0000 0.5000
vn 0.8660 -0.0000 0.5000
vn 0.0000 0.0000 1.0000
vn 0.0000 0.0000 1.0000
vn -0.8660 0.0000 0.5000
vn -0.8660 0.0000 0.5000
vn 0.0000 -1.0000 0.0000
vn 0.0000 -1.0000 0.0000
vn 0.0000 -1.0000 0.0000
vn -0.0000 -1.0000 0.0000
vn 0.0000 -1.0000 -0.0000
vn 0.0000 -1.0000 0.0000
vn 0.0000 -1.0000 0.0000
vn 0.0000 -1.0000 0.0000
vn 0.0000 -1.0000 0.0000
vn -0.0000 -1.0000 0.0000
vn 0.0000 -1.0000 -0.0000
vn 0.0000 -1.0000 0.0000
vn -0.9511 0.0000 -0.3090
vn -0.9511 0.0000 -0.3090
vn -0.5878 0.0000 -0.8090
vn -0.5878 0.0000 -0.8090
vn -0.0000 0.0000 -1.0000
vn -0.0000 0.0000 -1.0000
vn 0.5878 0.0000 -0.8090
vn 0.5878 0.0000 -0.8090
vn 0.9511 0.0000 -0.3090
vn 0.9511 0.0000 -0.3090
vn 0.9511 0.0000 0.3090
vn 0.9511 -0.0000 0.3090
vn 0.5878 0.0000 0.8090
vn 0.5878 -0.0000 0.8090
vn 0.0000 0.0000 1.0000
vn 0.0000 0.0000 1.0000
vn -0.5878 0.0000 0.8090
vn -0.5878 0.0000 0.8090
vn -0.9511 0.0000 0.3090
vn -0.9511 0.0000 0.3090
vn 0.0000 -1.0000 0.0000
vn 0.0000 -1.0000 0.0000
vn 0.0000 -1.0000 0.0000
vn 0.0000 -1.0000 0.0000
vn 0.0000 -1.0000 0.0000
vn -0.0000 -1.0000 0.0000
vn 0.0000 -1.0000 0.0000
vn 0.0000 -1.0000 -0.0000
vn 0.0000 -1.0000 0.0000
vn 0.0000 -1.0000 0.0000
vn 0.0000 -1.0000 0.0000
vn 0.0000 -1.0000 0.0000
vn 0.0000 -1.0000 0.0000
vn 0.0000 -1.0000 0.0000
vn 0.0000 -1.0000 0.0000
vn -0.0000 -1.0000 0.0000
vn 0.0000 -1.0000 0.0000
vn 0.0000 -1.0000 -0.0000
vn 0.0000 -1.0000 0.0000
vn 0.0000 -1.0000 0.0000
vn -0.9511 0.0000 -0.3090
vn -0.9511 0.0000 -0.3090
vn -0.5878 0.0000 -0.8090
vn -0.5878 0.0000 -0.8090
vn -0.0000 0.0000 -1.0000
vn -0.0000 0.0000 -1.0000
vn 0.5878 0.0000 -0.8090
vn 0.5878 0.0000 -0.8090
vn 0.9511 0.0000 -0.3090
vn 0.9511 0.0000 -0.3090
vn 0.9511 0.0000 0.3090
vn 0.9511 -0.0000 0.3090
vn 0.5878 0.0000 0.8090
vn 0.5878 -0.0000 0.8090
vn 0.0000 0.0000 1.0000
vn 0.0000 0.0000 1.0000
vn -0.5878 0.0000 0.8090
vn -0.5878 0.0000 0.8090
vn -0.9511 0.0000 0.3090
vn -0.9511 0.0000 0.3090
vn 0.0000 -1.0000 0.0000
vn 0.0000 -1.0000 0.0000
vn 0.0000 -1.0000 0.0000
vn 0.0000 -1.0000 0.0000
vn 0.0000 -1.0000 0.0000
vn -0.0000 -1.0000 0.0000
vn 0.0000 -1.0000 0.0000
vn 0.0000 -1.0000 -0.0000
vn 0.0000 -1.0000 0.0000
vn 0.0000 -1.0000 0.0000
vn 0.0000 -1.0000 0.0000
vn 0.0000 -1.0000 0.0000
vn 0.0000 -1.0000 0.0000
vn 0.0000 -1.0000 0.0000
vn 0.0000 -1.0000 0.0000
vn -0.0000 -1.0000 0.0000
vn 0.0000 -1.0000 0.0000
vn 0.0000 -1.0000 -0.0000
vn 0.0000 -1.0000 0.0000
vn 0.0000 -1.0000 0.0000
vn -0.8660 0.0000 -0.5000
vn -0.8660 0.0000 -0.5000
vn -0.0000 0.0000 -1.0000
vn -0.0000 0.0000 -1.0000
vn 0.8660 0.0000 -0.5000
vn 0.8660 0.0000 -0.5000
vn 0.8660 0.0000 0.5000
vn 0.8660 -0.0000 0.5000
vn 0.0000 0.0000 1.0000
vn 0.0000 0.0000 1.0000
vn -0.8660 0.0000 0.5000
vn -0.8660 0.0000 0.5000
vn 0.0000 -1.0000 0.0000
vn 0.0000 -1.0000 0.0000
vn 0.0000 -1.0000 0.0000
vn -0.0000 -1.0000 0.0000
vn 0.0000 -1.0000 -0.0000
vn 0.0000 -1.0000 0.0000
vn 0.0000 -1.0000 0.0000
vn 0.0000 -1.0000 0.0000
vn 0.0000 -1.0000 0.0000
vn -0.0000 -1.0000 0.0000
vn 0.0000 -1.0000 -0.0000
vn 0.0000 -1.0000 0.0000
vn -0.8660 0.0000 -0.5000
vn -0.8660 0.0000 -0.5000
vn -0.0000 0.0000 -1.0000
vn -0.0000 0.0000 -1.0000
vn 0.8660 0.0000 -0.5000
vn 0.8660 0.0000 -0.5000
vn 0.8660 0.0000 0.5000
vn 0.8660 -0.0000 0.5000
vn 0.0000 0.0000 1.0000
vn 0.0000 0.0000 1.0000
vn -0.8660 0.0000 0.5000
vn -0.8660 0.0000 0.5000
vn 0.0000 -1.0000 0.0000
vn 0.0000 -1.0000 0.0000
vn 0.0000 -1.0000 0.0000
vn -0.0000 -1.0000 0.0000
vn 0.0000 -1.0000 -0.0000
vn 0.0000 -1.0000 0.0000
vn 0.0000 -1.0000 0.0000
vn 0.0000 -1.0000 0.0000
vn 0.0000 -1.0000 0.0000
vn -0.0000 -1.0000 0.0000
vn 0.0000 -1.0000 -0.0000
vn 0.0000 -1.0000 0.0000
vn -0.8660 0.0000 -0.5000
vn -0.8660 0.0000 -0.5000
vn -0.0000 0.0000 -1.0000
vn -0.0000 0.0000 -1.0000
vn 0.8660 0.0000 -0.5000
vn 0.8660 0.0000 -0.5000
vn 0.8660 0.0000 0.5000
vn 0.8660 -0.0000 0.5000
vn 0.0000 0.0000 1.0000
vn 0.0000 -0.0000 1.0000
vn -0.8660 0.0000 0.5000
vn -0.8660 0.0000 0.5000
vn 0.0000 -1.0000 0.0000
vn 0.0000 -1.0000 0.0000
vn 0.0000 -1.0000 0.0000
vn -0.0000 -1.0000 0.0000
vn 0.0000 -1.0000 -0.0000
vn 0.0000 -1.0000 0.0000
vn 0.0000 -1.0000 0.0000
vn 0.0000 -1.0000 0.0000
vn 0.0000 -1.0000 0.0000
vn -0.0000 -1.0000 0.0000
vn 0.0000 -1.0000 -0.0000
vn 0.0000 -1.0000 0.0000
vn -0.8660 0.0000 -0.5000
vn -0.8660 0.0000 -0.5000
vn -0.0000 0.0000 -1.0000
vn -0.0000 0.0000 -1.0000
vn 0.8660 0.0000 -0.5000
vn 0.8660 0.0000 -0.5000
vn 0.8660 0.0000 0.5000
vn 0.8660 -0.0000 0.5000
vn 0.0000 0.0000 1.0000
vn 0.0000 -0.0000 1.0000
vn -0.8660 0.0000 0.5000
vn -0.8660 0.0000 0.5000
vn 0.0000 -1.0000 0.0000
vn 0.0000 -1.0000 0.0000
vn 0.0000 -1.0000 0.0000
vn -0.0000 -1.0000 0.0000
vn 0.0000 -1.0000 -0.0000
vn 0.0000 -1.0000 0.0000
vn 0.0000 -1.0000 0.0000
vn 0.0000 -1.0000 0.0000
vn 0.0000 -1.0000 0.0000
vn -0.0000 -1.0000 0.0000
vn 0.0000 -1.0000 -0.0000
vn 0.0000 -1.0000 0.0000
vn -0.8660 0.0000 -0.5000
vn -0.8660 0.0000 -0.5000
vn 0.0000 0.0000 -1.0000
vn 0.0000 0.0000 -1.0000
vn 0.8660 0.0000 -0.5000
vn 0.8660 0.0000 -0.5000
vn 0.8660 0.0000 0.5000
vn 0.8660 -0.0000 0.5000
vn 0.0000 0.0000 1.0000
vn 0.0000 0.0000 1.0000
vn -0.8660 0.0000 0.5000
vn -0.8660 0.0000 0.5000
vn 0.0000 -1.0000 0.0000
vn 0.0000 -1.0000 0.0000
vn 0.0000 -1.0000 0.0000
vn -0.0000 -1.0000 0.0000
vn 0.0000 -1.0000 -0.0000
vn 0.0000 -1.0000 0.0000
vn 0.0000 -1.0000 0.0000
vn 0.0000 -1.0000 0.0000
vn 0.0000 -1.0000 0.0000
vn -0.0000 -1.0000 0.0000
vn 0.0000 -1.0000 -0.0000
vn 0.0000 -1.0000 0.0000
vn -0.9511 0.0000 -0.3090
vn -0.9511 0.0000 -0.3090
vn -0.5878 0.0000 -0.8090
vn -0.5878 0.0000 -0.8090
vn 0.0000 0.0000 -1.0000
vn 0.0000 0.0000 -1.0000
vn 0.5878 0.0000 -0.8090
vn 0.5878 0.0000 -0.8090
vn 0.9511 0.0000 -0.3090
vn 0.9511 0.0000 -0.3090
vn 0.9511 0.0000 0.3090
vn 0.9511 -0.0000 0.3090
vn 0.5878 0.0000 0.8090
vn 0.5878 -0.0000 0.8090
vn 0.0000 0.0000 1.0000
vn 0.0000 -0.0000 1.0000
vn -0.5878 0.0000 0.8090
vn -0.5878 0.0000 0.8090
vn -0.9511 0.0000 0.3090
vn -0.9511 0.0000 0.3090
vn 0.0000 -1.0000 0.0000
vn 0.0000 -1.0000 0.0000
vn 0.0000 -1.0000 0.0000
vn 0.0000 -1.0000 0.0000
vn 0.0000 -1.0000 0.0000
vn -0.0000 -1.0000 0.0000
vn 0.0000 -1.0000 0.0000
vn 0.0000 -1.0000 -0.0000
vn 0.0000 -1.0000 0.0000
vn 0.0000 -1.0000 0.0000
vn 0.0000 -1.0000 0.0000
vn 0.0000 -1.0000 0.0000
vn 0.0000 -1.0000 0.0000
vn 0.0000 -1.0000 0.0000
vn 0.0000 -1.0000 0.0000
vn -0.0000 -1.0000 0.0000
vn 0.0000 -1.0000 0.0000
vn 0.0000 -1.0000 -0.0000
vn 0.0000 -1.0000 0.0000
vn 0.0000 -1.0000 0.0000
vn -0.9511 0.0000 -0.3090
vn -0.9511 0.0000 -0.3090
vn -0.5878 0.0000 -0.8090
vn -0.5878 0.0000 -0.8090
vn 0.0000 0.0000 -1.0000
vn 0.0000 0.0000 -1.0000
vn 0.5878 0.0000 -0.8090
vn 0.5878 0.0000 -0.8090
vn 0.9511 0.0000 -0.3090
vn 0.9511 0.0000 -0.3090
vn 0.9511 0.0000 0.3090
vn 0.9511 -0.0000 0.3090
vn 0.5878 0.0000 0.8090
vn 0.5878 -0.0000 0.8090
vn 0.0000 0.0000 1.0000
vn 0.0000 -0.0000 1.0000
vn -0.5878 0.0000 0.8090
vn -0.5878 0.0000 0.8090
vn -0.9511 0.0000 0.3090
vn -0.9511 0.0000 0.3090
vn 0.0000 -1.0000 0.0000
vn 0.0000 -1.0000 0.0000
vn 0.0000 -1.0000 0.0000
vn 0.0000 -1.0000 0.0000
vn 0.0000 -1.0000 0.0000
vn -0.0000 -1.0000 0.0000
vn 0.0000 -1.0000 0.0000
vn 0.0000 -1.0000 -0.0000
vn 0.0000 -1.0000 0.0000
vn 0.0000 -1.0000 0.0000
vn 0.0000 -1.0000 0.0000
vn 0.0000 -1.0000 0.0000
vn 0.0000 -1.0000 0.0000
vn 0.0000 -1.0000 0.0000
vn 0.0000 -1.0000 0.0000
vn -0.0000 -1.0000 0.0000
vn 0.0000 -1.0000 0.0000
vn 0.0000 -1.0000 -0.0000
vn 0.0000 -1.0000 0.0000
vn 0.0000 -1.0000 0.0000
vn -0.8660 0.0000 -0.5000
vn -0.8660 0.0000 -0.5000
vn 0.0000 0.0000 -1.0000
vn 0.0000 0.0000 -1.0000
vn 0.8660 0.0000 -0.5000
vn 0.8660 0.0000 -0.5000
vn 0.8660 0.0000 0.5000
vn 0.8660 -0.0000 0.5000
vn 0.0000 0.0000 1.0000
vn 0.0000 0.0000 1.0000
vn -0.8660 0.0000 0.5000
vn -0.8660 0.0000 0.5000
vn 0.0000 -1.0000 0.0000
vn 0.0000 -1.0000 0.0000
vn 0.0000 -1.0000 0.0000
vn -0.0000 -1.0000 0.0000
vn 0.0000 -1.0000 -0.0000
vn 0.0000 -1.0000 0.0000
vn 0.0000 -1.0000 0.0000
vn 0.0000 -1.0000 0.0000
vn 0.0000 -1.0000 0.0000
vn -0.0000 -1.0000 0.0000
vn 0.0000 -1.0000 -0.0000
vn 0.0000 -1.0000 0.0000
vn -0.8660 0.0000 -0.5000
vn -0.8660 0.0000 -0.5000
vn 0.0000 0.0000 -1.0000
vn 0.0000 0.0000 -1.0000
vn 0.8660 0.0000 -0.5000
vn 0.8660 0.0000 -0.5000
vn 0.8660 0.0000 0.5000
vn 0.8660 -0.0000 0.5000
vn 0.0000 0.0000 1.0000
vn 0.0000 0.0000 1.0000
vn -0.8660 0.0000 0.5000
vn -0.8660 0.0000 0.5000
vn 0.0000 -1.0000 0.0000
vn 0.0000 -1.0000 0.0000
vn 0.0000 -1.0000 0.0000
vn -0.0000 -1.0000 0.0000
vn 0.0000 -1.0000 -0.0000
vn 0.0000 -1.0000 0.0000
vn 0.0000 -1.0000 0.0000
vn 0.0000 -1.0000 0.0000
vn 0.0000 -1.0000 0.0000
vn -0.0000 -1.0000 0.0000
vn 0.0000 -1.0000 -0.0000
vn 0.0000 -1.0000 0.0000
vn -0.8660 0.0000 -0.5000
vn -0.8660 0.0000 -0.5000
vn 0.0000 0.0000 -1.0000
vn 0.0000 0.0000 -1.0000
vn 0.8660 0.0000 -0.5000
vn 0.8660 0.0000 -0.5000
vn 0.8660 0.0000 0.5000
vn 0.8660 -0.0000 0.5000
vn 0.0000 0.0000 1.0000
vn 0.0000 0.0000 1.0000
vn -0.8660 0.0000 0.5000
vn -0.8660 0.0000 0.5000
vn 0.0000 -1.0000 0.0000
vn 0.0000 -1.0000 0.0000
vn 0.0000 -1.0000 0.0000
vn -0.0000 -1.0000 0.0000
vn 0.0000 -1.0000 -0.0000
vn 0.0000 -1.0000 0.0000
vn 0.0000 -1.0000 0.0000
vn 0.0000 -1.0000 0.0000
vn 0.0000 -1.0000 0.0000
vn -0.0000 -1.0000 0.0000
vn 0.0000 -1.0000 -0.0000
vn 0.0000 -1.0000 0.0000
vn -0.8660 0.0000 -0.5000
vn -0.8660 0.0000 -0.5000
vn 0.0000 0.0000 -1.0000
vn 0.0000 0.0000 -1.0000
vn 0.8660 0.0000 -0.5000
vn 0.8660 0.0000 -0.5000
vn 0.8660 0.0000 0.5000
vn 0.8660 -0.0000 0.5000
vn 0.0000 0.0000 1.0000
vn 0.0000 0.0000 1.0000
vn -0.8660 0.0000 0.5000
vn -0.8660 0.0000 0.5000
vn 0.0000 -1.0000 0.0000
vn 0.0000 -1.0000 0.0000
vn 0.0000 -1.0000 0.0000
vn -0.0000 -1.0000 0.0000
vn 0.0000 -1.0000 -0.0000
vn 0.0000 -1.0000 0.0000
vn 0.0000 -1.0000 0.0000
vn 0.0000 -1.0000 0.0000
vn 0.0000 -1.0000 0.0000
vn -0.0000 -1.0000 0.0000
vn 0.0000 -1.0000 -0.0000
vn 0.0000 -1.0000 0.0000
vn -0.8660 0.0000 -0.5000
vn -0.8660 0.0000 -0.5000
vn 0.0000 0.0000 -1.0000
vn 0.0000 0.0000 -1.0000
vn 0.8660 0.0000 -0.5000
vn 0.8660 0.0000 -0.5000
vn 0.8660 0.0000 0.5000
vn 0.8660 -0.0000 0.5000
vn 0.0000 0.0000 1.0000
vn 0.0000 0.0000 1.0000
vn -0.8660 0.0000 0.5000
vn -0.8660 0.0000 0.5000
vn 0.0000 -1.0000 0.0000
vn 0.0000 -1.0000 0.0000
vn 0.0000 -1.0000 0.0000
vn -0.0000 -1.0000 0.0000
vn 0.0000 -1.0000 -0.0000
vn 0.0000 -1.0000 0.0000
vn 0.0000 -1.0000 0.0000
vn 0.0000 -1.0000 0.0000
vn 0.0000 -1.0000 0.0000
vn -0.0000 -1.0000 0.0000
vn 0.0000 -1.0000 -0.0000
vn 0.0000 -1.0000 0.0000
usemtl c0
f 1//1 2//1 12//1
f 1//2 12//2 11//2
f 2//3 3//3 13//3
f 2//4 13//4 12//4
f 3//5 4//5 14//5
f 3//6 14//6 13//6
f 4//7 5//7 15//7
f 4//8 15//8 14//8
f 5//9 6//9 16//9
f 5//10 16//10 15//10
f 6//11 7//11 17//11
f 6//12 17//12 16//12
f 7//13 8//13 18//13
f 7//14 18//14 17//14
f 8//15 9//15 19//15
f 8//16 19//16 18//16
f 9//17 10//17 20//17
f 9//18 20//18 19//18
f 10//19 1//19 11//19
f 10//20 11//20 20//20
f 21//21 1//21 2//21
f 21//22 2//22 3//22
f 21//23 3//23 4//23
f 21//24 4//24 5//24
f 21//25 5//25 6//25
f 21//26 6//26 7//26
f 21//27 7//27 8//27
f 21//28 8//28 9//28
f 21//29 9//29 10//29
f 21//30 10//30 1//30
f 22//31 11//31 12//31
f 22//32 12//32 13//32
f 22//33 13//33 14//33
f 22//34 14//34 15//34
f 22//35 15//35 16//35
f 22//36 16//36 17//36
f 22//37 17//37 18//37
f 22//38 18//38 19//38
f 22//39 19//39 20//39
f 22//40 20//40 11//40
usemtl c1
f 23//41 24//41 34//41
f 23//42 34//42 33//42
f 24//43 25//43 35//43
f 24//44 35//44 34//44
f 25//45 26//45 36//45
f 25//46 36//46 35//46
f 26//47 27//47 37//47
f 26//48 37//48 36//48
f 27//49 28//49 38//49
f 27//50 38//50 37//50
f 28//51 29//51 39//51
f 28//52 39//52 38//52
f 29//53 30//53 40//53
f 29//54 40//54 39//54
f 30//55 31//55 41//55
f 30//56 41//56 40//56
f 31//57 32//57 42//57
f 31//58 42//58 41//58
f 32//59 23//59 33//59
f 32//60 33//60 42//60
f 43//61 23//61 24//61
f 43//62 24//62 25//62
f 43//63 25//63 26//63
f 43//64 26//64 27//64
f 43//65 27//65 28//65
f 43//66 28//66 29//66
f 43//67 29//67 30//67
f 43//68 30//68 31//68
f 43//69 31//69 32//69
f 43//70 32//70 23//70
f 44//71 33//71 34//71
f 44//72 34//72 35//72
f 44//73 35//73 36//73
f 44//74 36//74 37//74
f 44//75 37//75 38//75
f 44//76 38//76 39//76
f 44//77 39//77 40//77
f 44//78 40//78 41//78
f 44//79 41//79 42//79
f 44//80 42//80 33//80
usemtl c2
f 45//81 46//81 52//81
f 45//82 52//82 51//82
f 46//83 47//83 53//83
f 46//84 53//84 52//84
f 47//85 48//85 54//85
f 47//86 54//86 53//86
f 48//87 49//87 55//87
f 48//88 55//88 54//88
f 49//89 50//89 56//89
f 49//90 56//90 55//90
f 50//91 45//91 51//91
f 50//92 51//92 56//92
f 57//93 45//93 46//93
f 57//94 46//94 47//94
f 57//95 47//95 48//95
f 57//96 48//96 49//96
f 57//97 49//97 50//97
f 57//98 50//98 45//98
f 58//99 51//99 52//99
f 58//100 52//100 53//100
f 58//101 53//101 54//101
f 58//102 54//102 55//102
f 58//103 55//103 56//103
f 58//104 56//104 51//104
usemtl c3
f 59//105 60//105 66//105
f 59//106 66//106 65//106
f 60//107 61//107 67//107
f 60//108 67//108 66//108
f 61//109 62//109 68//109
f 61//110 68//110 67//110
f 62//111 63//111 69//111
f 62//112 69//112 68//112
f 63//113 64//113 70//113
f 63//114 70//114 69//114
f 64//115 59//115 65//115
f 64//116 65//116 70//116
f 71//117 59//117 60//117
f 71//118 60//118 61//118
f 71//119 61//119 62//119
f 71//120 62//120 63//120
f 71//121 63//121 64//121
f 71//122 64//122 59//122
f 72//123 65//123 66//123
f 72//124 66//124 67//124
f 72//125 67//125 68//125
f 72//126 68//126 69//126
f 72//127 69//127 70//127
f 72//128 70//128 65//128
usemtl c4
f 73//129 74//129 80//129
f 73//130 80//130 79//130
f 74//131 75//131 81//131
f 74//132 81//132 80//132
f 75//133 76//133 82//133
f 75//134 82//134 81//134
f 76//135 77//135 83//135
f 76//136 83//136 82//136
f 77//137 78//137 84//137
f 77//138 84//138 83//138
f 78//139 73//139 79//139
f 78//140 79//140 84//140
f 85//141 73//141 74//141
f 85//142 74//142 75//142
f 85//143 75//143 76//143
f 85//144 76//144 77//144
f 85//145 77//145 78//145
f 85//146 78//146 73//146
f 86//147 79//147 80//147
f 86//148 80//148 81//148
f 86//149 81//149 82//149
f 86//150 82//150 83//150
f 86//151 83//151 84//151
f 86//152 84//152 79//152
usemtl c5
f 87//153 88//153 94//153
f 87//154 94//154 93//154
f 88//155 89//155 95//155
f 88//156 95//156 94//156
f 89//157 90//157 96//157
f 89//158 96//158 95//158
f 90//159 91//159 97//159
f 90//160 97//160 96//160
f 91//161 92//161 98//161
f 91//162 98//162 97//162
f 92//163 87//163 93//163
f 92//164 93//164 98//164
f 99//165 87//165 88//165
f 99//166 88//166 89//166
f 99//167 89//167 90//167
f 99//168 90//168 91//168
f 99//169 91//169 92//169
f 99//170 92//170 87//170
f 100//171 93//171 94//171
f 100//172 94//172 95//172
f 100//173 95//173 96//173
f 100//174 96//174 97//174
f 100//175 97//175 98//175
f 100//176 98//176 93//176
usemtl c6
f 101//177 102//177 108//177
f 101//178 108//178 107//178
f 102//179 103//179 109//179
f 102//180 109//180 108//180
f 103//181 104//181 110//181
f 103//182 110//182 109//182
f 104//183 105//183 111//183
f 104//184 111//184 110//184
f 105//185 106//185 112//185
f 105//186 112//186 111//186
f 106//187 101//187 107//187
f 106//188 107//188 112//188
f 113//189 101//189 102//189
f 113//190 102//190 103//190
f 113//191 103//191 104//191
f 113//192 104//192 105//192
f 113//193 105//193 106//193
f 113//194 106//194 101//194
f 114//195 107//195 108//195
f 114//196 108//196 109//196
f 114//197 109//197 110//197
f 114//198 110//198 111//198
f 114//199 111//199 112//199
f 114//200 112//200 107//200
usemtl c0
f 115//201 116//201 126//201
f 115//202 126//202 125//202
f 116//203 117//203 127//203
f 116//204 127//204 126//204
f 117//205 118//205 128//205
f 117//206 128//206 127//206
f 118//207 119//207 129//207
f 118//208 129//208 128//208
f 119//209 120//209 130//209
f 119//210 130//210 129//210
f 120//211 121//211 131//211
f 120//212 131//212 130//212
f 121//213 122//213 132//213
f 121//214 132//214 131//214
f 122//215 123//215 133//215
f 122//216 133//216 132//216
f 123//217 124//217 134//217
f 123//218 134//218 133//218
f 124//219 115//219 125//219
f 124//220 125//220 134//220
f 135//221 115//221 116//221
f 135//222 116//222 117//222
f 135//223 117//223 118//223
f 135//224 118//224 119//224
f 135//225 119//225 120//225
f 135//226 120//226 121//226
f 135//227 121//227 122//227
f 135//228 122//228 123//228
f 135//229 123//229 124//229
f 135//230 124//230 115//230
f 136//231 125//231 126//231
f 136//232 126//232 127//232
f 136//233 127//233 128//233
f 136//234 128//234 129//234
f 136//235 129//235 130//235
f 136//236 130//236 131//236
f 136//237 131//237 132//237
f 136//238 132//238 133//238
f 136//239 133//239 134//239
f 136//240 134//240 125//240
usemtl c1
f 137//241 138//241 148//241
f 137//242 148//242 147//242
f 138//243 139//243 149//243
f 138//244 149//244 148//244
f 139//245 140//245 150//245
f 139//246 150//246 149//246
f 140//247 141//247 151//247
f 140//248 151//248 150//248
f 141//249 142//249 152//249
f 141//250 152//250 151//250
f 142//251 143//251 153//251
f 142//252 153//252 152//252
f 143//253 144//253 154//253
f 143//254 154//254 153//254
f 144//255 145//255 155//255
f 144//256 155//256 154//256
f 145//257 146//257 156//257
f 145//258 156//258 155//258
f 146//259 137//259 147//259
f 146//260 147//260 156//260
f 157//261 137//261 138//261
f 157//262 138//262 139//262
f 157//263 139//263 140//263
f 157//264 140//264 141//264
f 157//265 141//265 142//265
f 157//266 142//266 143//266
f 157//267 143//267 144//267
f 157//268 144//268 145//268
f 157//269 145//269 146//269
f 157//270 146//270 137//270
f 158//271 147//271 148//271
f 158//272 148//272 149//272
f 158//273 149//273 150//273
f 158//274 150//274 151//274
f 158//275 151//275 152//275
f 158//276 152//276 153//276
f 158//277 153//277 154//277
f 158//278 154//278 155//278
f 158//279 155//279 156//279
f 158//280 156//280 147//280
usemtl c2
f 159//281 160//281 166//281
f 159//282 166//282 165//282
f 160//283 161//283 167//283
f 160//284 167//284 166//284
f 161//285 162//285 168//285
f 161//286 168//286 167//286
f 162//287 163//287 169//287
f 162//288 169//288 168//288
f 163//289 164//289 170//289
f 163//290 170//290 169//290
f 164//291 159//291 165//291
f 164//292 165//292 170//292
f 171//293 159//293 160//293
f 171//294 160//294 161//294
f 171//295 161//295 162//295
f 171//296 162//296 163//296
f 171//297 163//297 164//297
f 171//298 164//298 159//298
f 172//299 165//299 166//299
f 172//300 166//300 167//300
f 172//301 167//301 168//301
f 172//302 168//302 169//302
f 172//303 169//303 170//303
f 172//304 170//304 165//304
usemtl c3
f 173//305 174//305 180//305
f 173//306 180//306 179//306
f 174//307 175//307 181//307
f 174//308 181//308 180//308
f 175//309 176//309 182//309
f 175//310 182//310 181//310
f 176//311 177//311 183//311
f 176//312 183//312 182//312
f 177//313 178//313 184//313
f 177//314 184//314 183//314
f 178//315 173//315 179//315
f 178//316 179//316 184//316
f 185//317 173//317 174//317
f 185//318 174//318 175//318
f 185//319 175//319 176//319
f 185//320 176//320 177//320
f 185//321 177//321 178//321
f 185//322 178//322 173//322
f 186//323 179//323 180//323
f 186//324 180//324 181//324
f 186//325 181//325 182//325
f 186//326 182//326 183//326
f 186//327 183//327 184//327
f 186//328 184//328 179//328
usemtl c4
f 187//329 188//329 194//329
f 187//330 194//330 193//330
f 188//331 189//331 195//331
f 188//332 195//332 194//332
f 189//333 190//333 196//333
f 189//334 196//334 195//334
f 190//335 191//335 197//335
f 190//336 197//336 196//336
f 191//337 192//337 198//337
f 191//338 198//338 197//338
f 192//339 187//339 193//339
f 192//340 193//340 198//340
f 199//341 187//341 188//341
f 199//342 188//342 189//342
f 199//343 189//343 190//343
f 199//344 190//344 191//344
f 199//345 191//345 192//345
f 199//346 192//346 187//346
f 200//347 193//347 194//347
f 200//348 194//348 195//348
f 200//349 195//349 196//349
f 200//350 196//350 197//350
f 200//351 197//351 198//351
f 200//352 198//352 193//352
usemtl c5
f 201//353 202//353 208//353
f 201//354 208//354 207//354
f 202//355 203//355 209//355
f 202//356 209//356 208//356
f 203//357 204//357 210//357
f 203//358 210//358 209//358
f 204//359 205//359 211//359
f 204//360 211//360 210//360
f 205//361 206//361 212//361
f 205//362 212//362 211//362
f 206//363 201//363 207//363
f 206//364 207//364 212//364
f 213//365 201//365 202//365
f 213//366 202//366 203//366
f 213//367 203//367 204//367
f 213//368 204//368 205//368
f 213//369 205//369 206//369
f 213//370 206//370 201//370
f 214//371 207//371 208//371
f 214//372 208//372 209//372
f 214//373 209//373 210//373
f 214//374 210//374 211//374
f 214//375 211//375 212//375
f 214//376 212//376 207//376
usemtl c6
f 215//377 216//377 222//377
f 215//378 222//378 221//378
f 216//379 217//379 223//379
f 216//380 223//380 222//380
f 217//381 218//381 224//381
f 217//382 224//382 223//382
f 218//383 219//383 225//383
f 218//384 225//384 224//384
f 219//385 220//385 226//385
f 219//386 226//386 225//386
f 220//387 215//387 221//387
f 220//388 221//388 226//388
f 227//389 215//389 216//389
f 227//390 216//390 217//390
f 227//391 217//391 218//391
f 227//392 218//392 219//392
f 227//393 219//393 220//393
f 227//394 220//394 215//394
f 228//395 221//395 222//395
f 228//396 222//396 223//396
f 228//397 223//397 224//397
f 228//398 224//398 225//398
f 228//399 225//399 226//399
f 228//400 226//400 221//400
usemtl c0
f 229//401 230//401 240//401
f 229//402 240//402 239//402
f 230//403 231//403 241//403
f 230//404 241//404 240//404
f 231//405 232//405 242//405
f 231//406 242//406 241//406
f 232//407 233//407 243//407
f 232//408 243//408 242//408
f 233//409 234//409 244//409
f 233//410 244//410 243//410
f 234//411 235//411 245//411
f 234//412 245//412 244//412
f 235//413 236//413 246//413
f 235//414 246//414 245//414
f 236//415 237//415 247//415
f 236//416 247//416 246//416
f 237//417 238//417 248//417
f 237//418 248//418 247//418
f 238//419 229//419 239//419
f 238//420 239//420 248//420
f 249//421 229//421 230//421
f 249//422 230//422 231//422
f 249//423 231//423 232//423
f 249//424 232//424 233//424
f 249//425 233//425 234//425
f 249//426 234//426 235//426
f 249//427 235//427 236//427
f 249//428 236//428 237//428
f 249//429 237//429 238//429
f 249//430 238//430 229//430
f 250//431 239//431 240//431
f 250//432 240//432 241//432
f 250//433 241//433 242//433
f 250//434 242//434 243//434
f 250//435 243//435 244//435
f 250//436 244//436 245//436
f 250//437 245//437 246//437
f 250//438 246//438 247//438
f 250//439 247//439 248//439
f 250//440 248//440 239//440
usemtl c1
f 251//441 252//441 262//441
f 251//442 262//442 261//442
f 252//443 253//443 263//443
f 252//444 263//444 262//444
f 253//445 254//445 264//445
f 253//446 264//446 263//446
f 254//447 255//447 265//447
f 254//448 265//448 264//448
f 255//449 256//449 266//449
f 255//450 266//450 265//450
f 256//451 257//451 267//451
f 256//452 267//452 266//452
f 257//453 258//453 268//453
f 257//454 268//454 267//454
f 258//455 259//455 269//455
f 258//456 269//456 268//456
f 259//457 260//457 270//457
f 259//458 270//458 269//458
f 260//459 251//459 261//459
f 260//460 261//460 270//460
f 271//461 251//461 252//461
f 271//462 252//462 253//462
f 271//463 253//463 254//463
f 271//464 254//464 255//464
f 271//465 255//465 256//465
f 271//466 256//466 257//466
f 271//467 257//467 258//467
f 271//468 258//468 259//468
f 271//469 259//469 260//469
f 271//470 260//470 251//470
f 272//471 261//471 262//471
f 272//472 262//472 263//472
f 272//473 263//473 264//473
f 272//474 264//474 265//474
f 272//475 265//475 266//475
f 272//476 266//476 267//476
f 272//477 267//477 268//477
f 272//478 268//478 269//478
f 272//479 269//479 270//479
f 272//480 270//480 261//480
usemtl c2
f 273//481 274//481 280//481
f 273//482 280//482 279//482
f 274//483 275//483 281//483
f 274//484 281//484 280//484
f 275//485 276//485 282//485
f 275//486 282//486 281//486
f 276//487 277//487 283//487
f 276//488 283//488 282//488
f 277//489 278//489 284//489
f 277//490 284//490 283//490
f 278//491 273//491 279//491
f 278//492 279//492 284//492
f 285//493 273//493 274//493
f 285//494 274//494 275//494
f 285//495 275//495 276//495
f 285//496 276//496 277//496
f 285//497 277//497 278//497
f 285//498 278//498 273//498
f 286//499 279//499 280//499
f 286//500 280//500 281//500
f 286//501 281//501 282//501
f 286//502 282//502 283//502
f 286//503 283//503 284//503
f 286//504 284//504 279//504
usemtl c3
f 287//505 288//505 294//505
f 287//506 294//506 293//506
f 288//507 289//507 295//507
f 288//508 295//508 294//508
f 289//509 290//509 296//509
f 289//510 296//510 295//510
f 290//511 291//511 297//511
f 290//512 297//512 296//512
f 291//513 292//513 298//513
f 291//514 298//514 297//514
f 292//515 287//515 293//515
f 292//516 293//516 298//516
f 299//517 287//517 288//517
f 299//518 288//518 289//518
f 299//519 289//519 290//519
f 299//520 290//520 291//520
f 299//521 291//521 292//521
f 299//522 292//522 287//522
f 300//523 293//523 294//523
f 300//524 294//524 295//524
f 300//525 295//525 296//525
f 300//526 296//526 297//526
f 300//527 297//527 298//527
f 300//528 298//528 293//528
usemtl c4
f 301//529 302//529 308//529
f 301//530 308//530 307//530
f 302//531 303//531 309//531
f 302//532 309//532 308//532
f 303//533 304//533 310//533
f 303//534 310//534 309//534
f 304//535 305//535 311//535
f 304//536 311//536 310//536
f 305//537 306//537 312//537
f 305//538 312//538 311//538
f 306//539 301//539 307//539
f 306//540 307//540 312//540
f 313//541 301//541 302//541
f 313//542 302//542 303//542
f 313//543 303//543 304//543
f 313//544 304//544 305//544
f 313//545 305//545 306//545
f 313//546 306//546 301//546
f 314//547 307//547 308//547
f 314//548 308//548 309//548
f 314//549 309//549 310//549
f 314//550 310//550 311//550
f 314//551 311//551 312//551
f 314//552 312//552 307//552
usemtl c5
f 315//553 316//553 322//553
f 315//554 322//554 321//554
f 316//555 317//555 323//555
f 316//556 323//556 322//556
f 317//557 318//557 324//557
f 317//558 324//558 323//558
f 318//559 319//559 325//559
f 318//560 325//560 324//560
f 319//561 320//561 326//561
f 319//562 326//562 325//562
f 320//563 315//563 321//563
f 320//564 321//564 326//564
f 327//565 315//565 316//565
f 327//566 316//566 317//566
f 327//567 317//567 318//567
f 327//568 318//568 319//568
f 327//569 319//569 320//569
f 327//570 320//570 315//570
f 328//571 321//571 322//571
f 328//572 322//572 323//572
f 328//573 323//573 324//573
f 328//574 324//574 325//574
f 328//575 325//575 326//575
f 328//576 326//576 321//576
usemtl c6
f 329//577 330//577 336//577
f 329//578 336//578 335//578
f 330//579 331//579 337//579
f 330//580 337//580 336//580
f 331//581 332//581 338//581
f 331//582 338//582 337//582
f 332//583 333//583 339//583
f 332//584 339//584 338//584
f 333//585 334//585 340//585
f 333//586 340//586 339//586
f 334//587 329//587 335//587
f 334//588 335//588 340//588
f 341//589 329//589 330//589
f 341//590 330//590 331//590
f 341//591 331//591 332//591
f 341//592 332//592 333//592
f 341//593 333//593 334//593
f 341//594 334//594 329//594
f 342//595 335//595 336//595
f 342//596 336//596 337//596
f 342//597 337//597 338//597
f 342//598 338//598 339//598
f 342//599 339//599 340//599
f 342//600 340//600 335//600
