mtllib Food_Broccoli.mtl
v 0.1600 0.0000 0.0000
v 0.0800 0.0000 0.1386
v -0.0800 0.0000 0.1386
v -0.1600 0.0000 0.0000
v -0.0800 0.0000 -0.1386
v 0.0800 0.0000 -0.1386
v 0.2600 0.5500 0.0000
v 0.1300 0.5500 0.2252
v -0.1300 0.5500 0.2252
v -0.2600 0.5500 0.0000
v -0.1300 0.5500 -0.2252
v 0.1300 0.5500 -0.2252
v 0.3400 0.9000 0.0000
v 0.1700 0.9000 0.2944
v -0.1700 0.9000 0.2944
v -0.3400 0.9000 0.0000
v -0.1700 0.9000 -0.2944
v 0.1700 0.9000 -0.2944
v 0.0000 0.0000 0.0000
v 0.0000 0.9000 0.0000
v -0.5000 0.6000 0.0000
v -0.5000 0.6000 0.0000
v -0.5000 0.6000 0.0000
v -0.5000 0.6000 0.0000
v -0.5000 0.6000 0.0000
v -0.5000 0.6000 0.0000
v -0.5000 0.6000 0.0000
v -0.1464 0.7464 0.0000
v -0.2796 0.7464 0.2764
v -0.5787 0.7464 0.3447
v -0.8185 0.7464 0.1534
v -0.8185 0.7464 -0.1534
v -0.5787 0.7464 -0.3447
v -0.2796 0.7464 -0.2764
v 0.0000 1.1000 0.0000
v -0.1883 1.1000 0.3909
v -0.6113 1.1000 0.4875
v -0.9505 1.1000 0.2169
v -0.9505 1.1000 -0.2169
v -0.6113 1.1000 -0.4875
v -0.1883 1.1000 -0.3909
v -0.1464 1.4536 0.0000
v -0.2796 1.4536 0.2764
v -0.5787 1.4536 0.3447
v -0.8185 1.4536 0.1534
v -0.8185 1.4536 -0.1534
v -0.5787 1.4536 -0.3447
v -0.2796 1.4536 -0.2764
v -0.5000 1.6000 0.0000
v -0.5000 1.6000 0.0000
v -0.5000 1.6000 0.0000
v -0.5000 1.6000 0.0000
v -0.5000 1.6000 -0.0000
v -0.5000 1.6000 -0.0000
v -0.5000 1.6000 -0.0000
v 0.5000 0.6000 0.1000
v 0.5000 0.6000 0.1000
v 0.5000 0.6000 0.1000
v 0.5000 0.6000 0.1000
v 0.5000 0.6000 0.1000
v 0.5000 0.6000 0.1000
v 0.5000 0.6000 0.1000
v 0.8536 0.7464 0.1000
v 0.7204 0.7464 0.3764
v 0.4213 0.7464 0.4447
v 0.1815 0.7464 0.2534
v 0.1815 0.7464 -0.0534
v 0.4213 0.7464 -0.2447
v 0.7204 0.7464 -0.1764
v 1.0000 1.1000 0.1000
v 0.8117 1.1000 0.4909
v 0.3887 1.1000 0.5875
v 0.0495 1.1000 0.3169
v 0.0495 1.1000 -0.1169
v 0.3887 1.1000 -0.3875
v 0.8117 1.1000 -0.2909
v 0.8536 1.4536 0.1000
v 0.7204 1.4536 0.3764
v 0.4213 1.4536 0.4447
v 0.1815 1.4536 0.2534
v 0.1815 1.4536 -0.0534
v 0.4213 1.4536 -0.2447
v 0.7204 1.4536 -0.1764
v 0.5000 1.6000 0.1000
v 0.5000 1.6000 0.1000
v 0.5000 1.6000 0.1000
v 0.5000 1.6000 0.1000
v 0.5000 1.6000 0.1000
v 0.5000 1.6000 0.1000
v 0.5000 1.6000 0.1000
v 0.0000 0.9000 0.0000
v 0.0000 0.9000 0.0000
v 0.0000 0.9000 0.0000
v 0.0000 0.9000 0.0000
v 0.0000 0.9000 0.0000
v 0.0000 0.9000 0.0000
v 0.0000 0.9000 0.0000
v 0.3889 1.0611 0.0000
v 0.2425 1.0611 0.3041
v -0.0865 1.0611 0.3792
v -0.3504 1.0611 0.1687
v -0.3504 1.0611 -0.1687
v -0.0865 1.0611 -0.3792
v 0.2425 1.0611 -0.3041
v 0.5500 1.4500 0.0000
v 0.3429 1.4500 0.4300
v -0.1224 1.4500 0.5362
v -0.4955 1.4500 0.2386
v -0.4955 1.4500 -0.2386
v -0.1224 1.4500 -0.5362
v 0.3429 1.4500 -0.4300
v 0.3889 1.8389 0.0000
v 0.2425 1.8389 0.3041
v -0.0865 1.8389 0.3792
v -0.3504 1.8389 0.1687
v -0.3504 1.8389 -0.1687
v -0.0865 1.8389 -0.3792
v 0.2425 1.8389 -0.3041
v 0.0000 2.0000 0.0000
v 0.0000 2.0000 0.0000
v -0.0000 2.0000 0.0000
v -0.0000 2.0000 0.0000
v -0.0000 2.0000 -0.0000
v -0.0000 2.0000 -0.0000
v 0.0000 2.0000 -0.0000
v -0.2000 0.6500 0.5000
v -0.2000 0.6500 0.5000
v -0.2000 0.6500 0.5000
v -0.2000 0.6500 0.5000
v -0.2000 0.6500 0.5000
v -0.2000 0.6500 0.5000
v -0.2000 0.6500 0.5000
v 0.1182 0.7818 0.5000
v -0.0016 0.7818 0.7488
v -0.2708 0.7818 0.8102
v -0.4867 0.7818 0.6381
v -0.4867 0.7818 0.3619
v -0.2708 0.7818 0.1898
v -0.0016 0.7818 0.2512
v 0.2500 1.1000 0.5000
v 0.0806 1.1000 0.8518
v -0.3001 1.1000 0.9387
v -0.6054 1.1000 0.6952
v -0.6054 1.1000 0.3048
v -0.3001 1.1000 0.0613
v 0.0806 1.1000 0.1482
v 0.1182 1.4182 0.5000
v -0.0016 1.4182 0.7488
v -0.2708 1.4182 0.8102
v -0.4867 1.4182 0.6381
v -0.4867 1.4182 0.3619
v -0.2708 1.4182 0.1898
v -0.0016 1.4182 0.2512
v -0.2000 1.5500 0.5000
v -0.2000 1.5500 0.5000
v -0.2000 1.5500 0.5000
v -0.2000 1.5500 0.5000
v -0.2000 1.5500 0.5000
v -0.2000 1.5500 0.5000
v -0.2000 1.5500 0.5000
v 0.2500 0.6000 -0.4500
v 0.2500 0.6000 -0.4500
v 0.2500 0.6000 -0.4500
v 0.2500 0.6000 -0.4500
v 0.2500 0.6000 -0.4500
v 0.2500 0.6000 -0.4500
v 0.2500 0.6000 -0.4500
v 0.5682 0.7318 -0.4500
v 0.4484 0.7318 -0.2012
v 0.1792 0.7318 -0.1398
v -0.0367 0.7318 -0.3119
v -0.0367 0.7318 -0.5881
v 0.1792 0.7318 -0.7602
v 0.4484 0.7318 -0.6988
v 0.7000 1.0500 -0.4500
v 0.5306 1.0500 -0.0982
v 0.1499 1.0500 -0.0113
v -0.1554 1.0500 -0.2548
v -0.1554 1.0500 -0.6452
v 0.1499 1.0500 -0.8887
v 0.5306 1.0500 -0.8018
v 0.5682 1.3682 -0.4500
v 0.4484 1.3682 -0.2012
v 0.1792 1.3682 -0.1398
v -0.0367 1.3682 -0.3119
v -0.0367 1.3682 -0.5881
v 0.1792 1.3682 -0.7602
v 0.4484 1.3682 -0.6988
v 0.2500 1.5000 -0.4500
v 0.2500 1.5000 -0.4500
v 0.2500 1.5000 -0.4500
v 0.2500 1.5000 -0.4500
v 0.2500 1.5000 -0.4500
v 0.2500 1.5000 -0.4500
v 0.2500 1.5000 -0.4500
vn -0.8555 0.1555 -0.4939
vn -0.8555 0.1555 -0.4939
vn 0.0000 0.1555 -0.9878
vn -0.0000 0.1555 -0.9878
vn 0.8555 0.1555 -0.4939
vn 0.8555 0.1555 -0.4939
vn 0.8555 0.1555 0.4939
vn 0.8555 0.1555 0.4939
vn 0.0000 0.1555 0.9878
vn 0.0000 0.1555 0.9878
vn -0.8555 0.1555 0.4939
vn -0.8555 0.1555 0.4939
vn -0.8495 0.1942 -0.4905
vn -0.8495 0.1942 -0.4905
vn -0.0000 0.1942 -0.9810
vn 0.0000 0.1942 -0.9810
vn 0.8495 0.1942 -0.4905
vn 0.8495 0.1942 -0.4905
vn 0.8495 0.1942 0.4905
vn 0.8495 0.1942 0.4905
vn 0.0000 0.1942 0.9810
vn 0.0000 0.1942 0.9810
vn -0.8495 0.1942 0.4905
vn -0.8495 0.1942 0.4905
vn 0.0000 -1.0000 0.0000
vn 0.0000 -1.0000 0.0000
vn 0.0000 -1.0000 0.0000
vn -0.0000 -1.0000 0.0000
vn 0.0000 -1.0000 -0.0000
vn 0.0000 -1.0000 0.0000
vn 0.0000 -1.0000 0.0000
vn 0.0000 -1.0000 0.0000
vn 0.0000 -1.0000 0.0000
vn -0.0000 -1.0000 0.0000
vn 0.0000 -1.0000 -0.0000
vn 0.0000 -1.0000 0.0000
vn -0.3763 0.9086 -0.1812
vn -0.0929 0.9086 -0.4072
vn 0.2604 0.9086 -0.3266
vn 0.4177 0.9086 -0.0000
vn 0.2604 0.9086 0.3266
vn -0.0929 0.9086 0.4072
vn -0.3763 0.9086 0.1812
vn -0.8441 0.3496 -0.4065
vn -0.8441 0.3496 -0.4065
vn -0.2085 0.3496 -0.9134
vn -0.2085 0.3496 -0.9134
vn 0.5841 0.3496 -0.7325
vn 0.5841 0.3496 -0.7325
vn 0.9369 0.3496 -0.0000
vn 0.9369 0.3496 0.0000
vn 0.5841 0.3496 0.7325
vn 0.5841 0.3496 0.7325
vn -0.2085 0.3496 0.9134
vn -0.2085 0.3496 0.9134
vn -0.8441 0.3496 0.4065
vn -0.8441 0.3496 0.4065
vn -0.8441 -0.3496 -0.4065
vn -0.8441 -0.3496 -0.4065
vn -0.2085 -0.3496 -0.9134
vn -0.2085 -0.3496 -0.9134
vn 0.5841 -0.3496 -0.7325
vn 0.5841 -0.3496 -0.7325
vn 0.9369 -0.3496 0.0000
vn 0.9369 -0.3496 -0.0000
vn 0.5841 -0.3496 0.7325
vn 0.5841 -0.3496 0.7325
vn -0.2085 -0.3496 0.9134
vn -0.2085 -0.3496 0.9134
vn -0.8441 -0.3496 0.4065
vn -0.8441 -0.3496 0.4065
vn -0.3763 -0.9086 -0.1812
vn -0.0929 -0.9086 -0.4072
vn 0.2604 -0.9086 -0.3266
vn 0.4177 -0.9086 -0.0000
vn 0.2604 -0.9086 0.3266
vn -0.0929 -0.9086 0.4072
vn -0.3763 -0.9086 0.1812
vn -0.3763 0.9086 -0.1812
vn -0.0929 0.9086 -0.4072
vn 0.2604 0.9086 -0.3266
vn 0.4177 0.9086 -0.0000
vn 0.2604 0.9086 0.3266
vn -0.0929 0.9086 0.4072
vn -0.3763 0.9086 0.1812
vn -0.8441 0.3496 -0.4065
vn -0.8441 0.3496 -0.4065
vn -0.2085 0.3496 -0.9134
vn -0.2085 0.3496 -0.9134
vn 0.5841 0.3496 -0.7325
vn 0.5841 0.3496 -0.7325
vn 0.9369 0.3496 -0.0000
vn 0.9369 0.3496 -0.0000
vn 0.5841 0.3496 0.7325
vn 0.5841 0.3496 0.7325
vn -0.2085 0.3496 0.9134
vn -0.2085 0.3496 0.9134
vn -0.8441 0.3496 0.4065
vn -0.8441 0.3496 0.4065
vn -0.8441 -0.3496 -0.4065
vn -0.8441 -0.3496 -0.4065
vn -0.2085 -0.3496 -0.9134
vn -0.2085 -0.3496 -0.9134
vn 0.5841 -0.3496 -0.7325
vn 0.5841 -0.3496 -0.7325
vn 0.9369 -0.3496 -0.0000
vn 0.9369 -0.3496 -0.0000
vn 0.5841 -0.3496 0.7325
vn 0.5841 -0.3496 0.7325
vn -0.2085 -0.3496 0.9134
vn -0.2085 -0.3496 0.9134
vn -0.8441 -0.3496 0.4065
vn -0.8441 -0.3496 0.4065
vn -0.3763 -0.9086 -0.1812
vn -0.0929 -0.9086 -0.4072
vn 0.2604 -0.9086 -0.3266
vn 0.4177 -0.9086 -0.0000
vn 0.2604 -0.9086 0.3266
vn -0.0929 -0.9086 0.4072
vn -0.3763 -0.9086 0.1812
vn -0.3763 0.9086 -0.1812
vn -0.0929 0.9086 -0.4072
vn 0.2604 0.9086 -0.3266
vn 0.4177 0.9086 -0.0000
vn 0.2604 0.9086 0.3266
vn -0.0929 0.9086 0.4072
vn -0.3763 0.9086 0.1812
vn -0.8441 0.3496 -0.4065
vn -0.8441 0.3496 -0.4065
vn -0.2085 0.3496 -0.9134
vn -0.2085 0.3496 -0.9134
vn 0.5841 0.3496 -0.7325
vn 0.5841 0.3496 -0.7325
vn 0.9369 0.3496 -0.0000
vn 0.9369 0.3496 -0.0000
vn 0.5841 0.3496 0.7325
vn 0.5841 0.3496 0.7325
vn -0.2085 0.3496 0.9134
vn -0.2085 0.3496 0.9134
vn -0.8441 0.3496 0.4065
vn -0.8441 0.3496 0.4065
vn -0.8441 -0.3496 -0.4065
vn -0.8441 -0.3496 -0.4065
vn -0.2085 -0.3496 -0.9134
vn -0.2085 -0.3496 -0.9134
vn 0.5841 -0.3496 -0.7325
vn 0.5841 -0.3496 -0.7325
vn 0.9369 -0.3496 -0.0000
vn 0.9369 -0.3496 -0.0000
vn 0.5841 -0.3496 0.7325
vn 0.5841 -0.3496 0.7325
vn -0.2085 -0.3496 0.9134
vn -0.2085 -0.3496 0.9134
vn -0.8441 -0.3496 0.4065
vn -0.8441 -0.3496 0.4065
vn -0.3763 -0.9086 -0.1812
vn -0.0929 -0.9086 -0.4072
vn 0.2604 -0.9086 -0.3266
vn 0.4177 -0.9086 -0.0000
vn 0.2604 -0.9086 0.3266
vn -0.0929 -0.9086 0.4072
vn -0.3763 -0.9086 0.1812
vn -0.3763 0.9086 -0.1812
vn -0.0929 0.9086 -0.4072
vn 0.2604 0.9086 -0.3266
vn 0.4177 0.9086 -0.0000
vn 0.2604 0.9086 0.3266
vn -0.0929 0.9086 0.4072
vn -0.3763 0.9086 0.1812
vn -0.8441 0.3496 -0.4065
vn -0.8441 0.3496 -0.4065
vn -0.2085 0.3496 -0.9134
vn -0.2085 0.3496 -0.9134
vn 0.5841 0.3496 -0.7325
vn 0.5841 0.3496 -0.7325
vn 0.9369 0.3496 -0.0000
vn 0.9369 0.3496 0.0000
vn 0.5841 0.3496 0.7325
vn 0.5841 0.3496 0.7325
vn -0.2085 0.3496 0.9134
vn -0.2085 0.3496 0.9134
vn -0.8441 0.3496 0.4065
vn -0.8441 0.3496 0.4065
vn -0.8441 -0.3496 -0.4065
vn -0.8441 -0.3496 -0.4065
vn -0.2085 -0.3496 -0.9134
vn -0.2085 -0.3496 -0.9134
vn 0.5841 -0.3496 -0.7325
vn 0.5841 -0.3496 -0.7325
vn 0.9369 -0.3496 0.0000
vn 0.9369 -0.3496 -0.0000
vn 0.5841 -0.3496 0.7325
vn 0.5841 -0.3496 0.7325
vn -0.2085 -0.3496 0.9134
vn -0.2085 -0.3496 0.9134
vn -0.8441 -0.3496 0.4065
vn -0.8441 -0.3496 0.4065
vn -0.3763 -0.9086 -0.1812
vn -0.0929 -0.9086 -0.4072
vn 0.2604 -0.9086 -0.3266
vn 0.4177 -0.9086 -0.0000
vn 0.2604 -0.9086 0.3266
vn -0.0929 -0.9086 0.4072
vn -0.3763 -0.9086 0.1812
vn -0.3763 0.9086 -0.1812
vn -0.0929 0.9086 -0.4072
vn 0.2604 0.9086 -0.3266
vn 0.4177 0.9086 -0.0000
vn 0.2604 0.9086 0.3266
vn -0.0929 0.9086 0.4072
vn -0.3763 0.9086 0.1812
vn -0.8441 0.3496 -0.4065
vn -0.8441 0.3496 -0.4065
vn -0.2085 0.3496 -0.9134
vn -0.2085 0.3496 -0.9134
vn 0.5841 0.3496 -0.7325
vn 0.5841 0.3496 -0.7325
vn 0.9369 0.3496 -0.0000
vn 0.9369 0.3496 -0.0000
vn 0.5841 0.3496 0.7325
vn 0.5841 0.3496 0.7325
vn -0.2085 0.3496 0.9134
vn -0.2085 0.3496 0.9134
vn -0.8441 0.3496 0.4065
vn -0.8441 0.3496 0.4065
vn -0.8441 -0.3496 -0.4065
vn -0.8441 -0.3496 -0.4065
vn -0.2085 -0.3496 -0.9134
vn -0.2085 -0.3496 -0.9134
vn 0.5841 -0.3496 -0.7325
vn 0.5841 -0.3496 -0.7325
vn 0.9369 -0.3496 -0.0000
vn 0.9369 -0.3496 -0.0000
vn 0.5841 -0.3496 0.7325
vn 0.5841 -0.3496 0.7325
vn -0.2085 -0.3496 0.9134
vn -0.2085 -0.3496 0.9134
vn -0.8441 -0.3496 0.4065
vn -0.8441 -0.3496 0.4065
vn -0.3763 -0.9086 -0.1812
vn -0.0929 -0.9086 -0.4072
vn 0.2604 -0.9086 -0.3266
vn 0.4177 -0.9086 -0.0000
vn 0.2604 -0.9086 0.3266
vn -0.0929 -0.9086 0.4072
vn -0.3763 -0.9086 0.1812
usemtl c0
f 1//1 2//1 8//1
f 1//2 8//2 7//2
f 2//3 3//3 9//3
f 2//4 9//4 8//4
f 3//5 4//5 10//5
f 3//6 10//6 9//6
f 4//7 5//7 11//7
f 4//8 11//8 10//8
f 5//9 6//9 12//9
f 5//10 12//10 11//10
f 6//11 1//11 7//11
f 6//12 7//12 12//12
f 7//13 8//13 14//13
f 7//14 14//14 13//14
f 8//15 9//15 15//15
f 8//16 15//16 14//16
f 9//17 10//17 16//17
f 9//18 16//18 15//18
f 10//19 11//19 17//19
f 10//20 17//20 16//20
f 11//21 12//21 18//21
f 11//22 18//22 17//22
f 12//23 7//23 13//23
f 12//24 13//24 18//24
f 19//25 1//25 2//25
f 19//26 2//26 3//26
f 19//27 3//27 4//27
f 19//28 4//28 5//28
f 19//29 5//29 6//29
f 19//30 6//30 1//30
f 20//31 13//31 14//31
f 20//32 14//32 15//32
f 20//33 15//33 16//33
f 20//34 16//34 17//34
f 20//35 17//35 18//35
f 20//36 18//36 13//36
usemtl c1
f 21//37 29//37 28//37
f 22//38 30//38 29//38
f 23//39 31//39 30//39
f 24//40 32//40 31//40
f 25//41 33//41 32//41
f 26//42 34//42 33//42
f 27//43 28//43 34//43
f 28//44 29//44 36//44
f 28//45 36//45 35//45
f 29//46 30//46 37//46
f 29//47 37//47 36//47
f 30//48 31//48 38//48
f 30//49 38//49 37//49
f 31//50 32//50 39//50
f 31//51 39//51 38//51
f 32//52 33//52 40//52
f 32//53 40//53 39//53
f 33//54 34//54 41//54
f 33//55 41//55 40//55
f 34//56 28//56 35//56
f 34//57 35//57 41//57
f 35//58 36//58 43//58
f 35//59 43//59 42//59
f 36//60 37//60 44//60
f 36//61 44//61 43//61
f 37//62 38//62 45//62
f 37//63 45//63 44//63
f 38//64 39//64 46//64
f 38//65 46//65 45//65
f 39//66 40//66 47//66
f 39//67 47//67 46//67
f 40//68 41//68 48//68
f 40//69 48//69 47//69
f 41//70 35//70 42//70
f 41//71 42//71 48//71
f 42//72 43//72 50//72
f 43//73 44//73 51//73
f 44//74 45//74 52//74
f 45//75 46//75 53//75
f 46//76 47//76 54//76
f 47//77 48//77 55//77
f 48//78 42//78 49//78
f 56//79 64//79 63//79
f 57//80 65//80 64//80
f 58//81 66//81 65//81
f 59//82 67//82 66//82
f 60//83 68//83 67//83
f 61//84 69//84 68//84
f 62//85 63//85 69//85
f 63//86 64//86 71//86
f 63//87 71//87 70//87
f 64//88 65//88 72//88
f 64//89 72//89 71//89
f 65//90 66//90 73//90
f 65//91 73//91 72//91
f 66//92 67//92 74//92
f 66//93 74//93 73//93
f 67//94 68//94 75//94
f 67//95 75//95 74//95
f 68//96 69//96 76//96
f 68//97 76//97 75//97
f 69//98 63//98 70//98
f 69//99 70//99 76//99
f 70//100 71//100 78//100
f 70//101 78//101 77//101
f 71//102 72//102 79//102
f 71//103 79//103 78//103
f 72//104 73//104 80//104
f 72//105 80//105 79//105
f 73//106 74//106 81//106
f 73//107 81//107 80//107
f 74//108 75//108 82//108
f 74//109 82//109 81//109
f 75//110 76//110 83//110
f 75//111 83//111 82//111
f 76//112 70//112 77//112
f 76//113 77//113 83//113
f 77//114 78//114 85//114
f 78//115 79//115 86//115
f 79//116 80//116 87//116
f 80//117 81//117 88//117
f 81//118 82//118 89//118
f 82//119 83//119 90//119
f 83//120 77//120 84//120
f 91//121 99//121 98//121
f 92//122 100//122 99//122
f 93//123 101//123 100//123
f 94//124 102//124 101//124
f 95//125 103//125 102//125
f 96//126 104//126 103//126
f 97//127 98//127 104//127
f 98//128 99//128 106//128
f 98//129 106//129 105//129
f 99//130 100//130 107//130
f 99//131 107//131 106//131
f 100//132 101//132 108//132
f 100//133 108//133 107//133
f 101//134 102//134 109//134
f 101//135 109//135 108//135
f 102//136 103//136 110//136
f 102//137 110//137 109//137
f 103//138 104//138 111//138
f 103//139 111//139 110//139
f 104//140 98//140 105//140
f 104//141 105//141 111//141
f 105//142 106//142 113//142
f 105//143 113//143 112//143
f 106//144 107//144 114//144
f 106//145 114//145 113//145
f 107//146 108//146 115//146
f 107//147 115//147 114//147
f 108//148 109//148 116//148
f 108//149 116//149 115//149
f 109//150 110//150 117//150
f 109//151 117//151 116//151
f 110//152 111//152 118//152
f 110//153 118//153 117//153
f 111//154 105//154 112//154
f 111//155 112//155 118//155
f 112//156 113//156 120//156
f 113//157 114//157 121//157
f 114//158 115//158 122//158
f 115//159 116//159 123//159
f 116//160 117//160 124//160
f 117//161 118//161 125//161
f 118//162 112//162 119//162
f 126//163 134//163 133//163
f 127//164 135//164 134//164
f 128//165 136//165 135//165
f 129//166 137//166 136//166
f 130//167 138//167 137//167
f 131//168 139//168 138//168
f 132//169 133//169 139//169
f 133//170 134//170 141//170
f 133//171 141//171 140//171
f 134//172 135//172 142//172
f 134//173 142//173 141//173
f 135//174 136//174 143//174
f 135//175 143//175 142//175
f 136//176 137//176 144//176
f 136//177 144//177 143//177
f 137//178 138//178 145//178
f 137//179 145//179 144//179
f 138//180 139//180 146//180
f 138//181 146//181 145//181
f 139//182 133//182 140//182
f 139//183 140//183 146//183
f 140//184 141//184 148//184
f 140//185 148//185 147//185
f 141//186 142//186 149//186
f 141//187 149//187 148//187
f 142//188 143//188 150//188
f 142//189 150//189 149//189
f 143//190 144//190 151//190
f 143//191 151//191 150//191
f 144//192 145//192 152//192
f 144//193 152//193 151//193
f 145//194 146//194 153//194
f 145//195 153//195 152//195
f 146//196 140//196 147//196
f 146//197 147//197 153//197
f 147//198 148//198 155//198
f 148//199 149//199 156//199
f 149//200 150//200 157//200
f 150//201 151//201 158//201
f 151//202 152//202 159//202
f 152//203 153//203 160//203
f 153//204 147//204 154//204
f 161//205 169//205 168//205
f 162//206 170//206 169//206
f 163//207 171//207 170//207
f 164//208 172//208 171//208
f 165//209 173//209 172//209
f 166//210 174//210 173//210
f 167//211 168//211 174//211
f 168//212 169//212 176//212
f 168//213 176//213 175//213
f 169//214 170//214 177//214
f 169//215 177//215 176//215
f 170//216 171//216 178//216
f 170//217 178//217 177//217
f 171//218 172//218 179//218
f 171//219 179//219 178//219
f 172//220 173//220 180//220
f 172//221 180//221 179//221
f 173//222 174//222 181//222
f 173//223 181//223 180//223
f 174//224 168//224 175//224
f 174//225 175//225 181//225
f 175//226 176//226 183//226
f 175//227 183//227 182//227
f 176//228 177//228 184//228
f 176//229 184//229 183//229
f 177//230 178//230 185//230
f 177//231 185//231 184//231
f 178//232 179//232 186//232
f 178//233 186//233 185//233
f 179//234 180//234 187//234
f 179//235 187//235 186//235
f 180//236 181//236 188//236
f 180//237 188//237 187//237
f 181//238 175//238 182//238
f 181//239 182//239 188//239
f 182//240 183//240 190//240
f 183//241 184//241 191//241
f 184//242 185//242 192//242
f 185//243 186//243 193//243
f 186//244 187//244 194//244
f 187//245 188//245 195//245
f 188//246 182//246 189//246
