mtllib Food_BananaMilk.mtl
v 0.0000 0.0000 0.0000
v 0.0000 0.0000 0.0000
v 0.0000 0.0000 0.0000
v 0.0000 0.0000 0.0000
v 0.0000 0.0000 0.0000
v 0.0000 0.0000 0.0000
v 0.0000 0.0000 0.0000
v 0.0000 0.0000 0.0000
v 0.0000 0.0000 0.0000
v 0.6200 0.0000 0.0000
v 0.4749 0.0000 0.3985
v 0.1077 0.0000 0.6106
v -0.3100 0.0000 0.5369
v -0.5826 0.0000 0.2121
v -0.5826 0.0000 -0.2121
v -0.3100 0.0000 -0.5369
v 0.1077 0.0000 -0.6106
v 0.4749 0.0000 -0.3985
v 0.6600 0.1000 0.0000
v 0.5056 0.1000 0.4242
v 0.1146 0.1000 0.6500
v -0.3300 0.1000 0.5716
v -0.6202 0.1000 0.2257
v -0.6202 0.1000 -0.2257
v -0.3300 0.1000 -0.5716
v 0.1146 0.1000 -0.6500
v 0.5056 0.1000 -0.4242
v 0.6600 0.9000 0.0000
v 0.5056 0.9000 0.4242
v 0.1146 0.9000 0.6500
v -0.3300 0.9000 0.5716
v -0.6202 0.9000 0.2257
v -0.6202 0.9000 -0.2257
v -0.3300 0.9000 -0.5716
v 0.1146 0.9000 -0.6500
v 0.5056 0.9000 -0.4242
v 0.5000 1.1000 0.0000
v 0.3830 1.1000 0.3214
v 0.0868 1.1000 0.4924
v -0.2500 1.1000 0.4330
v -0.4698 1.1000 0.1710
v -0.4698 1.1000 -0.1710
v -0.2500 1.1000 -0.4330
v 0.0868 1.1000 -0.4924
v 0.3830 1.1000 -0.3214
v 0.3000 1.2000 0.0000
v 0.2298 1.2000 0.1928
v 0.0521 1.2000 0.2954
v -0.1500 1.2000 0.2598
v -0.2819 1.2000 0.1026
v -0.2819 1.2000 -0.1026
v -0.1500 1.2000 -0.2598
v 0.0521 1.2000 -0.2954
v 0.2298 1.2000 -0.1928
v 0.2800 1.3000 0.0000
v 0.2145 1.3000 0.1800
v 0.0486 1.3000 0.2757
v -0.1400 1.3000 0.2425
v -0.2631 1.3000 0.0958
v -0.2631 1.3000 -0.0958
v -0.1400 1.3000 -0.2425
v 0.0486 1.3000 -0.2757
v 0.2145 1.3000 -0.1800
v 0.0000 1.3000 0.0000
v 0.3000 1.3000 0.0000
v 0.2298 1.3000 0.1928
v 0.0521 1.3000 0.2954
v -0.1500 1.3000 0.2598
v -0.2819 1.3000 0.1026
v -0.2819 1.3000 -0.1026
v -0.1500 1.3000 -0.2598
v 0.0521 1.3000 -0.2954
v 0.2298 1.3000 -0.1928
v 0.3000 1.5000 0.0000
v 0.2298 1.5000 0.1928
v 0.0521 1.5000 0.2954
v -0.1500 1.5000 0.2598
v -0.2819 1.5000 0.1026
v -0.2819 1.5000 -0.1026
v -0.1500 1.5000 -0.2598
v 0.0521 1.5000 -0.2954
v 0.2298 1.5000 -0.1928
v 0.0000 1.3000 0.0000
v 0.0000 1.5000 0.0000
v 0.6800 0.3000 0.0000
v 0.5209 0.3000 0.4371
v 0.1181 0.3000 0.6697
v -0.3400 0.3000 0.5889
v -0.6390 0.3000 0.2326
v -0.6390 0.3000 -0.2326
v -0.3400 0.3000 -0.5889
v 0.1181 0.3000 -0.6697
v 0.5209 0.3000 -0.4371
v 0.6800 0.8000 0.0000
v 0.5209 0.8000 0.4371
v 0.1181 0.8000 0.6697
v -0.3400 0.8000 0.5889
v -0.6390 0.8000 0.2326
v -0.6390 0.8000 -0.2326
v -0.3400 0.8000 -0.5889
v 0.1181 0.8000 -0.6697
v 0.5209 0.8000 -0.4371
v -0.3429 0.5106 0.7000
v -0.3429 0.5106 0.7000
v -0.3429 0.5106 0.7000
v -0.3429 0.5106 0.7000
v -0.3429 0.5106 0.7000
v -0.2198 0.5253 0.7000
v -0.2277 0.4920 0.7336
v -0.2405 0.4381 0.7208
v -0.2405 0.4381 0.6792
v -0.2277 0.4920 0.6664
v -0.1088 0.5215 0.7000
v -0.1141 0.4768 0.7443
v -0.1225 0.4045 0.7273
v -0.1225 0.4045 0.6727
v -0.1141 0.4768 0.6557
v 0.0000 0.5200 0.7000
v 0.0000 0.4716 0.7476
v 0.0000 0.3934 0.7294
v 0.0000 0.3934 0.6706
v 0.0000 0.4716 0.6524
v 0.1088 0.5215 0.7000
v 0.1141 0.4768 0.7443
v 0.1225 0.4045 0.7273
v 0.1225 0.4045 0.6727
v 0.1141 0.4768 0.6557
v 0.2198 0.5253 0.7000
v 0.2277 0.4920 0.7336
v 0.2405 0.4381 0.7208
v 0.2405 0.4381 0.6792
v 0.2277 0.4920 0.6664
v 0.3429 0.5106 0.7000
v 0.3429 0.5106 0.7000
v 0.3429 0.5106 0.7000
v 0.3429 0.5106 0.7000
v 0.3429 0.5106 0.7000
vn 0.0000 1.0000 0.0000
vn 0.0000 1.0000 0.0000
vn 0.0000 1.0000 -0.0000
vn 0.0000 1.0000 0.0000
vn 0.0000 1.0000 0.0000
vn 0.0000 1.0000 0.0000
vn 0.0000 1.0000 0.0000
vn 0.0000 1.0000 0.0000
vn -0.0000 1.0000 0.0000
vn -0.8796 0.3518 -0.3202
vn -0.8796 0.3518 -0.3202
vn -0.4680 0.3518 -0.8107
vn -0.4680 0.3518 -0.8107
vn 0.1625 0.3518 -0.9218
vn 0.1625 0.3518 -0.9218
vn 0.7171 0.3518 -0.6017
vn 0.7171 0.3518 -0.6017
vn 0.9361 0.3518 0.0000
vn 0.9361 0.3518 0.0000
vn 0.7171 0.3518 0.6017
vn 0.7171 0.3518 0.6017
vn 0.1625 0.3518 0.9218
vn 0.1625 0.3518 0.9218
vn -0.4680 0.3518 0.8107
vn -0.4680 0.3518 0.8107
vn -0.8796 0.3518 0.3202
vn -0.8796 0.3518 0.3202
vn -0.9397 0.0000 -0.3420
vn -0.9397 0.0000 -0.3420
vn -0.5000 0.0000 -0.8660
vn -0.5000 0.0000 -0.8660
vn 0.1736 0.0000 -0.9848
vn 0.1736 0.0000 -0.9848
vn 0.7660 0.0000 -0.6428
vn 0.7660 0.0000 -0.6428
vn 1.0000 0.0000 0.0000
vn 1.0000 -0.0000 0.0000
vn 0.7660 0.0000 0.6428
vn 0.7660 -0.0000 0.6428
vn 0.1736 0.0000 0.9848
vn 0.1736 -0.0000 0.9848
vn -0.5000 0.0000 0.8660
vn -0.5000 0.0000 0.8660
vn -0.9397 0.0000 0.3420
vn -0.9397 0.0000 0.3420
vn -0.7511 -0.6009 -0.2734
vn -0.7511 -0.6009 -0.2734
vn -0.3997 -0.6009 -0.6922
vn -0.3997 -0.6009 -0.6922
vn 0.1388 -0.6009 -0.7872
vn 0.1388 -0.6009 -0.7872
vn 0.6123 -0.6009 -0.5138
vn 0.6123 -0.6009 -0.5138
vn 0.7993 -0.6009 0.0000
vn 0.7993 -0.6009 -0.0000
vn 0.6123 -0.6009 0.5138
vn 0.6123 -0.6009 0.5138
vn 0.1388 -0.6009 0.7872
vn 0.1388 -0.6009 0.7872
vn -0.3997 -0.6009 0.6922
vn -0.3997 -0.6009 0.6922
vn -0.7511 -0.6009 0.2734
vn -0.7511 -0.6009 0.2734
vn -0.4414 -0.8828 -0.1607
vn -0.4414 -0.8828 -0.1607
vn -0.2349 -0.8828 -0.4068
vn -0.2349 -0.8828 -0.4068
vn 0.0816 -0.8828 -0.4626
vn 0.0816 -0.8828 -0.4626
vn 0.3598 -0.8828 -0.3019
vn 0.3598 -0.8828 -0.3019
vn 0.4697 -0.8828 -0.0000
vn 0.4697 -0.8828 0.0000
vn 0.3598 -0.8828 0.3019
vn 0.3598 -0.8828 0.3019
vn 0.0816 -0.8828 0.4626
vn 0.0816 -0.8828 0.4626
vn -0.2349 -0.8828 0.4068
vn -0.2349 -0.8828 0.4068
vn -0.4414 -0.8828 0.1607
vn -0.4414 -0.8828 0.1607
vn -0.9235 -0.1847 -0.3361
vn -0.9235 -0.1847 -0.3361
vn -0.4914 -0.1847 -0.8511
vn -0.4914 -0.1847 -0.8511
vn 0.1707 -0.1847 -0.9679
vn 0.1707 -0.1847 -0.9679
vn 0.7529 -0.1847 -0.6317
vn 0.7529 -0.1847 -0.6317
vn 0.9828 -0.1847 0.0000
vn 0.9828 -0.1847 0.0000
vn 0.7529 -0.1847 0.6317
vn 0.7529 -0.1847 0.6317
vn 0.1707 -0.1847 0.9679
vn 0.1707 -0.1847 0.9679
vn -0.4914 -0.1847 0.8511
vn -0.4914 -0.1847 0.8511
vn -0.9235 -0.1847 0.3361
vn -0.9235 -0.1847 0.3361
vn 0.0000 -1.0000 0.0000
vn 0.0000 -1.0000 0.0000
vn 0.0000 -1.0000 0.0000
vn 0.0000 -1.0000 0.0000
vn -0.0000 -1.0000 0.0000
vn 0.0000 -1.0000 0.0000
vn 0.0000 -1.0000 -0.0000
vn 0.0000 -1.0000 0.0000
vn 0.0000 -1.0000 0.0000
vn -0.9397 0.0000 -0.3420
vn -0.9397 0.0000 -0.3420
vn -0.5000 0.0000 -0.8660
vn -0.5000 0.0000 -0.8660
vn 0.1736 0.0000 -0.9848
vn 0.1736 0.0000 -0.9848
vn 0.7660 0.0000 -0.6428
vn 0.7660 0.0000 -0.6428
vn 1.0000 0.0000 0.0000
vn 1.0000 -0.0000 0.0000
vn 0.7660 0.0000 0.6428
vn 0.7660 -0.0000 0.6428
vn 0.1736 0.0000 0.9848
vn 0.1736 -0.0000 0.9848
vn -0.5000 0.0000 0.8660
vn -0.5000 0.0000 0.8660
vn -0.9397 0.0000 0.3420
vn -0.9397 0.0000 0.3420
vn 0.0000 -1.0000 0.0000
vn 0.0000 -1.0000 0.0000
vn 0.0000 -1.0000 0.0000
vn 0.0000 -1.0000 0.0000
vn -0.0000 -1.0000 0.0000
vn 0.0000 -1.0000 0.0000
vn 0.0000 -1.0000 -0.0000
vn 0.0000 -1.0000 0.0000
vn 0.0000 -1.0000 0.0000
vn 0.0000 -1.0000 0.0000
vn 0.0000 -1.0000 0.0000
vn 0.0000 -1.0000 0.0000
vn 0.0000 -1.0000 0.0000
vn -0.0000 -1.0000 0.0000
vn 0.0000 -1.0000 0.0000
vn 0.0000 -1.0000 -0.0000
vn 0.0000 -1.0000 0.0000
vn 0.0000 -1.0000 0.0000
vn -0.9397 0.0000 -0.3420
vn -0.9397 0.0000 -0.3420
vn -0.5000 0.0000 -0.8660
vn -0.5000 0.0000 -0.8660
vn 0.1736 0.0000 -0.9848
vn 0.1736 0.0000 -0.9848
vn 0.7660 0.0000 -0.6428
vn 0.7660 0.0000 -0.6428
vn 1.0000 0.0000 0.0000
vn 1.0000 -0.0000 0.0000
vn 0.7660 0.0000 0.6428
vn 0.7660 -0.0000 0.6428
vn 0.1736 0.0000 0.9848
vn 0.1736 -0.0000 0.9848
vn -0.5000 0.0000 0.8660
vn -0.5000 0.0000 0.8660
vn -0.9397 0.0000 0.3420
vn -0.9397 0.0000 0.3420
vn -0.0853 0.7182 0.6906
vn -0.2996 -0.1534 0.9416
vn -0.5777 -0.8162 0.0000
vn -0.2996 -0.1534 -0.9416
vn -0.0853 0.7182 -0.6906
vn 0.0284 0.7072 0.7065
vn 0.0238 0.7019 0.7119
vn -0.1127 -0.2051 0.9722
vn -0.1191 -0.2127 0.9698
vn -0.2746 -0.9616 -0.0000
vn -0.2746 -0.9616 0.0000
vn -0.1181 -0.2038 -0.9719
vn -0.1149 -0.2132 -0.9702
vn 0.0240 0.7078 -0.7060
vn 0.0272 0.7016 -0.7120
vn 0.0112 0.7028 0.7113
vn 0.0096 0.7010 0.7131
vn -0.0364 -0.2233 0.9741
vn -0.0384 -0.2259 0.9734
vn -0.0901 -0.9959 -0.0000
vn -0.0901 -0.9959 0.0000
vn -0.0383 -0.2231 -0.9740
vn -0.0366 -0.2259 -0.9735
vn 0.0097 0.7029 -0.7112
vn 0.0111 0.7010 -0.7131
vn -0.0111 0.7010 0.7131
vn -0.0097 0.7029 0.7112
vn 0.0366 -0.2259 0.9735
vn 0.0383 -0.2231 0.9740
vn 0.0901 -0.9959 0.0000
vn 0.0901 -0.9959 0.0000
vn 0.0384 -0.2259 -0.9734
vn 0.0364 -0.2233 -0.9741
vn -0.0096 0.7010 -0.7131
vn -0.0112 0.7028 -0.7113
vn -0.0272 0.7016 0.7120
vn -0.0240 0.7078 0.7060
vn 0.1149 -0.2132 0.9702
vn 0.1181 -0.2038 0.9719
vn 0.2746 -0.9616 0.0000
vn 0.2746 -0.9616 0.0000
vn 0.1191 -0.2127 -0.9698
vn 0.1127 -0.2051 -0.9722
vn -0.0238 0.7019 -0.7119
vn -0.0284 0.7072 -0.7065
vn 0.0853 0.7182 0.6906
vn 0.2996 -0.1534 0.9416
vn 0.5777 -0.8162 0.0000
vn 0.2996 -0.1534 -0.9416
vn 0.0853 0.7182 -0.6906
usemtl c0
f 1//1 11//1 10//1
f 2//2 12//2 11//2
f 3//3 13//3 12//3
f 4//4 14//4 13//4
f 5//5 15//5 14//5
f 6//6 16//6 15//6
f 7//7 17//7 16//7
f 8//8 18//8 17//8
f 9//9 10//9 18//9
f 10//10 11//10 20//10
f 10//11 20//11 19//11
f 11//12 12//12 21//12
f 11//13 21//13 20//13
f 12//14 13//14 22//14
f 12//15 22//15 21//15
f 13//16 14//16 23//16
f 13//17 23//17 22//17
f 14//18 15//18 24//18
f 14//19 24//19 23//19
f 15//20 16//20 25//20
f 15//21 25//21 24//21
f 16//22 17//22 26//22
f 16//23 26//23 25//23
f 17//24 18//24 27//24
f 17//25 27//25 26//25
f 18//26 10//26 19//26
f 18//27 19//27 27//27
f 19//28 20//28 29//28
f 19//29 29//29 28//29
f 20//30 21//30 30//30
f 20//31 30//31 29//31
f 21//32 22//32 31//32
f 21//33 31//33 30//33
f 22//34 23//34 32//34
f 22//35 32//35 31//35
f 23//36 24//36 33//36
f 23//37 33//37 32//37
f 24//38 25//38 34//38
f 24//39 34//39 33//39
f 25//40 26//40 35//40
f 25//41 35//41 34//41
f 26//42 27//42 36//42
f 26//43 36//43 35//43
f 27//44 19//44 28//44
f 27//45 28//45 36//45
f 28//46 29//46 38//46
f 28//47 38//47 37//47
f 29//48 30//48 39//48
f 29//49 39//49 38//49
f 30//50 31//50 40//50
f 30//51 40//51 39//51
f 31//52 32//52 41//52
f 31//53 41//53 40//53
f 32//54 33//54 42//54
f 32//55 42//55 41//55
f 33//56 34//56 43//56
f 33//57 43//57 42//57
f 34//58 35//58 44//58
f 34//59 44//59 43//59
f 35//60 36//60 45//60
f 35//61 45//61 44//61
f 36//62 28//62 37//62
f 36//63 37//63 45//63
f 37//64 38//64 47//64
f 37//65 47//65 46//65
f 38//66 39//66 48//66
f 38//67 48//67 47//67
f 39//68 40//68 49//68
f 39//69 49//69 48//69
f 40//70 41//70 50//70
f 40//71 50//71 49//71
f 41//72 42//72 51//72
f 41//73 51//73 50//73
f 42//74 43//74 52//74
f 42//75 52//75 51//75
f 43//76 44//76 53//76
f 43//77 53//77 52//77
f 44//78 45//78 54//78
f 44//79 54//79 53//79
f 45//80 37//80 46//80
f 45//81 46//81 54//81
f 46//82 47//82 56//82
f 46//83 56//83 55//83
f 47//84 48//84 57//84
f 47//85 57//85 56//85
f 48//86 49//86 58//86
f 48//87 58//87 57//87
f 49//88 50//88 59//88
f 49//89 59//89 58//89
f 50//90 51//90 60//90
f 50//91 60//91 59//91
f 51//92 52//92 61//92
f 51//93 61//93 60//93
f 52//94 53//94 62//94
f 52//95 62//95 61//95
f 53//96 54//96 63//96
f 53//97 63//97 62//97
f 54//98 46//98 55//98
f 54//99 55//99 63//99
f 64//100 55//100 56//100
f 64//101 56//101 57//101
f 64//102 57//102 58//102
f 64//103 58//103 59//103
f 64//104 59//104 60//104
f 64//105 60//105 61//105
f 64//106 61//106 62//106
f 64//107 62//107 63//107
f 64//108 63//108 55//108
usemtl c1
f 65//109 66//109 75//109
f 65//110 75//110 74//110
f 66//111 67//111 76//111
f 66//112 76//112 75//112
f 67//113 68//113 77//113
f 67//114 77//114 76//114
f 68//115 69//115 78//115
f 68//116 78//116 77//116
f 69//117 70//117 79//117
f 69//118 79//118 78//118
f 70//119 71//119 80//119
f 70//120 80//120 79//120
f 71//121 72//121 81//121
f 71//122 81//122 80//122
f 72//123 73//123 82//123
f 72//124 82//124 81//124
f 73//125 65//125 74//125
f 73//126 74//126 82//126
f 83//127 65//127 66//127
f 83//128 66//128 67//128
f 83//129 67//129 68//129
f 83//130 68//130 69//130
f 83//131 69//131 70//131
f 83//132 70//132 71//132
f 83//133 71//133 72//133
f 83//134 72//134 73//134
f 83//135 73//135 65//135
f 84//136 74//136 75//136
f 84//137 75//137 76//137
f 84//138 76//138 77//138
f 84//139 77//139 78//139
f 84//140 78//140 79//140
f 84//141 79//141 80//141
f 84//142 80//142 81//142
f 84//143 81//143 82//143
f 84//144 82//144 74//144
usemtl c2
f 85//145 86//145 95//145
f 85//146 95//146 94//146
f 86//147 87//147 96//147
f 86//148 96//148 95//148
f 87//149 88//149 97//149
f 87//150 97//150 96//150
f 88//151 89//151 98//151
f 88//152 98//152 97//152
f 89//153 90//153 99//153
f 89//154 99//154 98//154
f 90//155 91//155 100//155
f 90//156 100//156 99//156
f 91//157 92//157 101//157
f 91//158 101//158 100//158
f 92//159 93//159 102//159
f 92//160 102//160 101//160
f 93//161 85//161 94//161
f 93//162 94//162 102//162
usemtl c3
f 103//163 109//163 108//163
f 104//164 110//164 109//164
f 105//165 111//165 110//165
f 106//166 112//166 111//166
f 107//167 108//167 112//167
f 108//168 109//168 114//168
f 108//169 114//169 113//169
f 109//170 110//170 115//170
f 109//171 115//171 114//171
f 110//172 111//172 116//172
f 110//173 116//173 115//173
f 111//174 112//174 117//174
f 111//175 117//175 116//175
f 112//176 108//176 113//176
f 112//177 113//177 117//177
f 113//178 114//178 119//178
f 113//179 119//179 118//179
f 114//180 115//180 120//180
f 114//181 120//181 119//181
f 115//182 116//182 121//182
f 115//183 121//183 120//183
f 116//184 117//184 122//184
f 116//185 122//185 121//185
f 117//186 113//186 118//186
f 117//187 118//187 122//187
f 118//188 119//188 124//188
f 118//189 124//189 123//189
f 119//190 120//190 125//190
f 119//191 125//191 124//191
f 120//192 121//192 126//192
f 120//193 126//193 125//193
f 121//194 122//194 127//194
f 121//195 127//195 126//195
f 122//196 118//196 123//196
f 122//197 123//197 127//197
f 123//198 124//198 129//198
f 123//199 129//199 128//199
f 124//200 125//200 130//200
f 124//201 130//201 129//201
f 125//202 126//202 131//202
f 125//203 131//203 130//203
f 126//204 127//204 132//204
f 126//205 132//205 131//205
f 127//206 123//206 128//206
f 127//207 128//207 132//207
f 128//208 129//208 134//208
f 129//209 130//209 135//209
f 130//210 131//210 136//210
f 131//211 132//211 137//211
f 132//212 128//212 133//212
