mtllib Food_Ramen.mtl
v 0.0000 0.0000 0.0000
v 0.0000 0.0000 0.0000
v 0.0000 0.0000 0.0000
v 0.0000 0.0000 0.0000
v 0.0000 0.0000 0.0000
v 0.0000 0.0000 0.0000
v 0.0000 0.0000 0.0000
v 0.0000 0.0000 0.0000
v 0.0000 0.0000 0.0000
v 0.0000 0.0000 0.0000
v 0.0000 0.0000 0.0000
v 0.0000 0.0000 0.0000
v 0.4200 0.0000 0.0000
v 0.3637 0.0000 0.2100
v 0.2100 0.0000 0.3637
v 0.0000 0.0000 0.4200
v -0.2100 0.0000 0.3637
v -0.3637 0.0000 0.2100
v -0.4200 0.0000 0.0000
v -0.3637 0.0000 -0.2100
v -0.2100 0.0000 -0.3637
v -0.0000 0.0000 -0.4200
v 0.2100 0.0000 -0.3637
v 0.3637 0.0000 -0.2100
v 0.5000 0.0500 0.0000
v 0.4330 0.0500 0.2500
v 0.2500 0.0500 0.4330
v 0.0000 0.0500 0.5000
v -0.2500 0.0500 0.4330
v -0.4330 0.0500 0.2500
v -0.5000 0.0500 0.0000
v -0.4330 0.0500 -0.2500
v -0.2500 0.0500 -0.4330
v -0.0000 0.0500 -0.5000
v 0.2500 0.0500 -0.4330
v 0.4330 0.0500 -0.2500
v 0.8000 0.2800 0.0000
v 0.6928 0.2800 0.4000
v 0.4000 0.2800 0.6928
v 0.0000 0.2800 0.8000
v -0.4000 0.2800 0.6928
v -0.6928 0.2800 0.4000
v -0.8000 0.2800 0.0000
v -0.6928 0.2800 -0.4000
v -0.4000 0.2800 -0.6928
v -0.0000 0.2800 -0.8000
v 0.4000 0.2800 -0.6928
v 0.6928 0.2800 -0.4000
v 1.0000 0.7000 0.0000
v 0.8660 0.7000 0.5000
v 0.5000 0.7000 0.8660
v 0.0000 0.7000 1.0000
v -0.5000 0.7000 0.8660
v -0.8660 0.7000 0.5000
v -1.0000 0.7000 0.0000
v -0.8660 0.7000 -0.5000
v -0.5000 0.7000 -0.8660
v -0.0000 0.7000 -1.0000
v 0.5000 0.7000 -0.8660
v 0.8660 0.7000 -0.5000
v 0.9300 0.6800 0.0000
v 0.8054 0.6800 0.4650
v 0.4650 0.6800 0.8054
v 0.0000 0.6800 0.9300
v -0.4650 0.6800 0.8054
v -0.8054 0.6800 0.4650
v -0.9300 0.6800 0.0000
v -0.8054 0.6800 -0.4650
v -0.4650 0.6800 -0.8054
v -0.0000 0.6800 -0.9300
v 0.4650 0.6800 -0.8054
v 0.8054 0.6800 -0.4650
v 1.0200 0.6800 0.0000
v 0.8833 0.6800 0.5100
v 0.5100 0.6800 0.8833
v 0.0000 0.6800 1.0200
v -0.5100 0.6800 0.8833
v -0.8833 0.6800 0.5100
v -1.0200 0.6800 0.0000
v -0.8833 0.6800 -0.5100
v -0.5100 0.6800 -0.8833
v -0.0000 0.6800 -1.0200
v 0.5100 0.6800 -0.8833
v 0.8833 0.6800 -0.5100
v 1.0200 0.7500 0.0000
v 0.8833 0.7500 0.5100
v 0.5100 0.7500 0.8833
v 0.0000 0.7500 1.0200
v -0.5100 0.7500 0.8833
v -0.8833 0.7500 0.5100
v -1.0200 0.7500 0.0000
v -0.8833 0.7500 -0.5100
v -0.5100 0.7500 -0.8833
v -0.0000 0.7500 -1.0200
v 0.5100 0.7500 -0.8833
v 0.8833 0.7500 -0.5100
v 0.9300 0.7500 0.0000
v 0.8054 0.7500 0.4650
v 0.4650 0.7500 0.8054
v 0.0000 0.7500 0.9300
v -0.4650 0.7500 0.8054
v -0.8054 0.7500 0.4650
v -0.9300 0.7500 0.0000
v -0.8054 0.7500 -0.4650
v -0.4650 0.7500 -0.8054
v -0.0000 0.7500 -0.9300
v 0.4650 0.7500 -0.8054
v 0.8054 0.7500 -0.4650
v 0.9400 0.7000 0.0000
v 0.8141 0.7000 0.4700
v 0.4700 0.7000 0.8141
v 0.0000 0.7000 0.9400
v -0.4700 0.7000 0.8141
v -0.8141 0.7000 0.4700
v -0.9400 0.7000 0.0000
v -0.8141 0.7000 -0.4700
v -0.4700 0.7000 -0.8141
v -0.0000 0.7000 -0.9400
v 0.4700 0.7000 -0.8141
v 0.8141 0.7000 -0.4700
v 0.7000 0.2780 0.0000
v 0.6062 0.2780 0.3500
v 0.3500 0.2780 0.6062
v 0.0000 0.2780 0.7000
v -0.3500 0.2780 0.6062
v -0.6062 0.2780 0.3500
v -0.7000 0.2780 0.0000
v -0.6062 0.2780 -0.3500
v -0.3500 0.2780 -0.6062
v -0.0000 0.2780 -0.7000
v 0.3500 0.2780 -0.6062
v 0.6062 0.2780 -0.3500
v 0.0000 0.2100 0.0000
v 0.0000 0.2100 0.0000
v 0.0000 0.2100 0.0000
v 0.0000 0.2100 0.0000
v 0.0000 0.2100 0.0000
v 0.0000 0.2100 0.0000
v 0.0000 0.2100 0.0000
v 0.0000 0.2100 0.0000
v 0.0000 0.2100 0.0000
v 0.0000 0.2100 0.0000
v 0.0000 0.2100 0.0000
v 0.0000 0.2100 0.0000
v 0.8600 0.4660 0.0000
v 0.7448 0.4660 0.4300
v 0.4300 0.4660 0.7448
v 0.0000 0.4660 0.8600
v -0.4300 0.4660 0.7448
v -0.7448 0.4660 0.4300
v -0.8600 0.4660 0.0000
v -0.7448 0.4660 -0.4300
v -0.4300 0.4660 -0.7448
v -0.0000 0.4660 -0.8600
v 0.4300 0.4660 -0.7448
v 0.7448 0.4660 -0.4300
v 0.8600 0.5160 0.0000
v 0.7448 0.5160 0.4300
v 0.4300 0.5160 0.7448
v 0.0000 0.5160 0.8600
v -0.4300 0.5160 0.7448
v -0.7448 0.5160 0.4300
v -0.8600 0.5160 0.0000
v -0.7448 0.5160 -0.4300
v -0.4300 0.5160 -0.7448
v -0.0000 0.5160 -0.8600
v 0.4300 0.5160 -0.7448
v 0.7448 0.5160 -0.4300
v 0.0000 0.4660 0.0000
v 0.0000 0.5160 0.0000
v 0.0000 0.2860 0.0000
v 0.0000 0.2860 0.0000
v 0.0000 0.2860 0.0000
v 0.0000 0.2860 0.0000
v 0.0000 0.2860 0.0000
v 0.0000 0.2860 0.0000
v 0.0000 0.2860 0.0000
v 0.0000 0.2860 0.0000
v 0.6062 0.3960 0.0000
v 0.4287 0.3960 0.4287
v 0.0000 0.3960 0.6062
v -0.4287 0.3960 0.4287
v -0.6062 0.3960 0.0000
v -0.4287 0.3960 -0.4287
v -0.0000 0.3960 -0.6062
v 0.4287 0.3960 -0.4287
v 0.6062 0.6160 0.0000
v 0.4287 0.6160 0.4287
v 0.0000 0.6160 0.6062
v -0.4287 0.6160 0.4287
v -0.6062 0.6160 0.0000
v -0.4287 0.6160 -0.4287
v -0.0000 0.6160 -0.6062
v 0.4287 0.6160 -0.4287
v 0.0000 0.7260 0.0000
v 0.0000 0.7260 0.0000
v 0.0000 0.7260 0.0000
v -0.0000 0.7260 0.0000
v -0.0000 0.7260 0.0000
v -0.0000 0.7260 -0.0000
v -0.0000 0.7260 -0.0000
v 0.0000 0.7260 -0.0000
v -0.4260 0.6840 -0.4228
v -0.4548 0.6856 -0.3917
v -0.4540 0.7280 -0.3931
v -0.4252 0.7264 -0.4242
v 0.4540 0.6940 0.3931
v 0.4252 0.6956 0.4242
v 0.4260 0.7380 0.4228
v 0.4548 0.7364 0.3917
v -0.4400 0.7060 -0.4079
v 0.4400 0.7160 0.4079
v 0.1125 0.7102 -0.5901
v 0.0872 0.6763 -0.5934
v 0.0537 0.7018 -0.5983
v 0.0790 0.7357 -0.5950
v -0.0537 0.7202 0.5983
v -0.0790 0.6863 0.5950
v -0.1125 0.7118 0.5901
v -0.0872 0.7457 0.5934
v 0.0831 0.7060 -0.5942
v -0.0831 0.7160 0.5942
v -0.2131 0.6941 -0.5615
v -0.2492 0.6785 -0.5457
v -0.2637 0.7179 -0.5398
v -0.2275 0.7335 -0.5556
v 0.2637 0.7041 0.5398
v 0.2275 0.6885 0.5556
v 0.2131 0.7279 0.5615
v 0.2492 0.7435 0.5457
v -0.2384 0.7060 -0.5506
v 0.2384 0.7160 0.5506
v 0.2194 0.7156 -0.5593
v 0.2015 0.6776 -0.5650
v 0.1655 0.6964 -0.5773
v 0.1834 0.7344 -0.5716
v -0.1655 0.7256 0.5773
v -0.1834 0.6876 0.5716
v -0.2194 0.7064 0.5593
v -0.2015 0.7444 0.5650
v 0.1924 0.7060 -0.5683
v -0.1924 0.7160 0.5683
v 0.2565 0.7175 -0.5432
v 0.2414 0.6783 -0.5492
v 0.2053 0.6945 -0.5644
v 0.2203 0.7337 -0.5585
v -0.2053 0.7275 0.5644
v -0.2203 0.6883 0.5585
v -0.2565 0.7045 0.5432
v -0.2414 0.7437 0.5492
v 0.2309 0.7060 -0.5538
v -0.2309 0.7160 0.5538
v -0.5858 0.6766 -0.1286
v -0.5933 0.6999 -0.0939
v -0.5888 0.7354 -0.1167
v -0.5814 0.7121 -0.1514
v 0.5888 0.6866 0.1167
v 0.5814 0.7099 0.1514
v 0.5858 0.7454 0.1286
v 0.5933 0.7221 0.0939
v -0.5873 0.7060 -0.1226
v 0.5873 0.7160 0.1226
v -0.5992 0.6760 -0.0260
v -0.6007 0.7048 0.0051
v -0.5998 0.7360 -0.0236
v -0.5983 0.7072 -0.0548
v 0.5998 0.6860 0.0236
v 0.5983 0.7148 0.0548
v 0.5992 0.7460 0.0260
v 0.6007 0.7172 -0.0051
v -0.5995 0.7060 -0.0248
v 0.5995 0.7160 0.0248
v 0.5308 0.7322 -0.2805
v 0.5362 0.6913 -0.2703
v 0.5161 0.6798 -0.3059
v 0.5108 0.7207 -0.3161
v -0.5161 0.7422 0.3059
v -0.5108 0.7013 0.3161
v -0.5308 0.6898 0.2805
v -0.5362 0.7307 0.2703
v 0.5235 0.7060 -0.2932
v -0.5235 0.7160 0.2932
v -0.4000 0.4460 0.3000
v -0.4000 0.4460 0.3000
v -0.4000 0.4460 0.3000
v -0.4000 0.4460 0.3000
v -0.4000 0.4460 0.3000
v -0.4000 0.4460 0.3000
v -0.4000 0.4460 0.3000
v -0.1402 0.5560 0.3000
v -0.2380 0.5560 0.4693
v -0.4578 0.5560 0.5111
v -0.6341 0.5560 0.3939
v -0.6341 0.5560 0.2061
v -0.4578 0.5560 0.0889
v -0.2380 0.5560 0.1307
v -0.1402 0.7760 0.3000
v -0.2380 0.7760 0.4693
v -0.4578 0.7760 0.5111
v -0.6341 0.7760 0.3939
v -0.6341 0.7760 0.2061
v -0.4578 0.7760 0.0889
v -0.2380 0.7760 0.1307
v -0.4000 0.8860 0.3000
v -0.4000 0.8860 0.3000
v -0.4000 0.8860 0.3000
v -0.4000 0.8860 0.3000
v -0.4000 0.8860 0.3000
v -0.4000 0.8860 0.3000
v -0.4000 0.8860 0.3000
v -0.4000 0.6460 0.3000
v -0.4000 0.6460 0.3000
v -0.4000 0.6460 0.3000
v -0.4000 0.6460 0.3000
v -0.4000 0.6460 0.3000
v -0.4000 0.6460 0.3000
v -0.2961 0.7060 0.3000
v -0.3480 0.7060 0.3900
v -0.4520 0.7060 0.3900
v -0.5039 0.7060 0.3000
v -0.4520 0.7060 0.2100
v -0.3480 0.7060 0.2100
v -0.2961 0.8260 0.3000
v -0.3480 0.8260 0.3900
v -0.4520 0.8260 0.3900
v -0.5039 0.8260 0.3000
v -0.4520 0.8260 0.2100
v -0.3480 0.8260 0.2100
v -0.4000 0.8860 0.3000
v -0.4000 0.8860 0.3000
v -0.4000 0.8860 0.3000
v -0.4000 0.8860 0.3000
v -0.4000 0.8860 0.3000
v -0.4000 0.8860 0.3000
v 0.6400 0.6460 0.3500
v 0.5697 0.6460 0.5197
v 0.4000 0.6460 0.5900
v 0.2303 0.6460 0.5197
v 0.1600 0.6460 0.3500
v 0.2303 0.6460 0.1803
v 0.4000 0.6460 0.1100
v 0.5697 0.6460 0.1803
v 0.6400 0.7160 0.3500
v 0.5697 0.7160 0.5197
v 0.4000 0.7160 0.5900
v 0.2303 0.7160 0.5197
v 0.1600 0.7160 0.3500
v 0.2303 0.7160 0.1803
v 0.4000 0.7160 0.1100
v 0.5697 0.7160 0.1803
v 0.4000 0.6460 0.3500
v 0.4000 0.7160 0.3500
v 0.4900 0.6460 0.3500
v 0.4450 0.6460 0.4279
v 0.3550 0.6460 0.4279
v 0.3100 0.6460 0.3500
v 0.3550 0.6460 0.2721
v 0.4450 0.6460 0.2721
v 0.4900 0.7260 0.3500
v 0.4450 0.7260 0.4279
v 0.3550 0.7260 0.4279
v 0.3100 0.7260 0.3500
v 0.3550 0.7260 0.2721
v 0.4450 0.7260 0.2721
v 0.4000 0.6460 0.3500
v 0.4000 0.7260 0.3500
v 0.2800 0.6660 -0.3000
v 0.1833 0.6660 -0.0667
v -0.0500 0.6660 0.0300
v -0.2833 0.6660 -0.0667
v -0.3800 0.6660 -0.3000
v -0.2833 0.6660 -0.5333
v -0.0500 0.6660 -0.6300
v 0.1833 0.6660 -0.5333
v 0.2800 0.7160 -0.3000
v 0.1833 0.7160 -0.0667
v -0.0500 0.7160 0.0300
v -0.2833 0.7160 -0.0667
v -0.3800 0.7160 -0.3000
v -0.2833 0.7160 -0.5333
v -0.0500 0.7160 -0.6300
v 0.1833 0.7160 -0.5333
v -0.0500 0.6660 -0.3000
v -0.0500 0.7160 -0.3000
v 0.2152 0.5496 -0.2868
v 0.7507 0.4552 -0.5404
v 0.7632 0.4530 -0.5132
v 0.2277 0.5474 -0.2596
v 0.3368 1.2390 -0.2868
v 0.8723 1.1446 -0.5404
v 0.8848 1.1424 -0.5132
v 0.3493 1.2368 -0.2596
v 0.4892 0.5013 -0.4000
v 0.6108 1.1907 -0.4000
v -0.0500 0.7160 0.0500
v -0.0845 0.7160 0.0976
v -0.1405 0.7160 0.0794
v -0.1405 0.7160 0.0206
v -0.0845 0.7160 0.0024
v -0.0500 0.7960 0.0500
v -0.0845 0.7960 0.0976
v -0.1405 0.7960 0.0794
v -0.1405 0.7960 0.0206
v -0.0845 0.7960 0.0024
v -0.1000 0.7160 0.0500
v -0.1000 0.7960 0.0500
v 0.2500 0.7160 -0.1000
v 0.2155 0.7160 -0.0524
v 0.1595 0.7160 -0.0706
v 0.1595 0.7160 -0.1294
v 0.2155 0.7160 -0.1476
v 0.2500 0.7960 -0.1000
v 0.2155 0.7960 -0.0524
v 0.1595 0.7960 -0.0706
v 0.1595 0.7960 -0.1294
v 0.2155 0.7960 -0.1476
v 0.2000 0.7160 -0.1000
v 0.2000 0.7960 -0.1000
v 0.1000 0.7160 0.5000
v 0.0655 0.7160 0.5476
v 0.0095 0.7160 0.5294
v 0.0095 0.7160 0.4706
v 0.0655 0.7160 0.4524
v 0.1000 0.7960 0.5000
v 0.0655 0.7960 0.5476
v 0.0095 0.7960 0.5294
v 0.0095 0.7960 0.4706
v 0.0655 0.7960 0.4524
v 0.0500 0.7160 0.5000
v 0.0500 0.7960 0.5000
vn 0.0000 1.0000 0.0000
vn 0.0000 1.0000 0.0000
vn 0.0000 1.0000 0.0000
vn 0.0000 1.0000 -0.0000
vn 0.0000 1.0000 0.0000
vn 0.0000 1.0000 0.0000
vn 0.0000 1.0000 0.0000
vn 0.0000 1.0000 0.0000
vn 0.0000 1.0000 0.0000
vn 0.0000 1.0000 0.0000
vn 0.0000 1.0000 0.0000
vn -0.0000 1.0000 0.0000
vn -0.5247 0.8396 -0.1406
vn -0.5247 0.8396 -0.1406
vn -0.3841 0.8396 -0.3841
vn -0.3841 0.8396 -0.3841
vn -0.1406 0.8396 -0.5247
vn -0.1406 0.8396 -0.5247
vn 0.1406 0.8396 -0.5247
vn 0.1406 0.8396 -0.5247
vn 0.3841 0.8396 -0.3841
vn 0.3841 0.8396 -0.3841
vn 0.5247 0.8396 -0.1406
vn 0.5247 0.8396 -0.1406
vn 0.5247 0.8396 0.1406
vn 0.5247 0.8396 0.1406
vn 0.3841 0.8396 0.3841
vn 0.3841 0.8396 0.3841
vn 0.1406 0.8396 0.5247
vn 0.1406 0.8396 0.5247
vn -0.1406 0.8396 0.5247
vn -0.1406 0.8396 0.5247
vn -0.3841 0.8396 0.3841
vn -0.3841 0.8396 0.3841
vn -0.5247 0.8396 0.1406
vn -0.5247 0.8396 0.1406
vn -0.6005 0.7833 -0.1609
vn -0.6005 0.7833 -0.1609
vn -0.4396 0.7833 -0.4396
vn -0.4396 0.7833 -0.4396
vn -0.1609 0.7833 -0.6005
vn -0.1609 0.7833 -0.6005
vn 0.1609 0.7833 -0.6005
vn 0.1609 0.7833 -0.6005
vn 0.4396 0.7833 -0.4396
vn 0.4396 0.7833 -0.4396
vn 0.6005 0.7833 -0.1609
vn 0.6005 0.7833 -0.1609
vn 0.6005 0.7833 0.1609
vn 0.6005 0.7833 0.1609
vn 0.4396 0.7833 0.4396
vn 0.4396 0.7833 0.4396
vn 0.1609 0.7833 0.6005
vn 0.1609 0.7833 0.6005
vn -0.1609 0.7833 0.6005
vn -0.1609 0.7833 0.6005
vn -0.4396 0.7833 0.4396
vn -0.4396 0.7833 0.4396
vn -0.6005 0.7833 0.1609
vn -0.6005 0.7833 0.1609
vn -0.8775 0.4179 -0.2351
vn -0.8775 0.4179 -0.2351
vn -0.6424 0.4179 -0.6424
vn -0.6424 0.4179 -0.6424
vn -0.2351 0.4179 -0.8775
vn -0.2351 0.4179 -0.8775
vn 0.2351 0.4179 -0.8775
vn 0.2351 0.4179 -0.8775
vn 0.6424 0.4179 -0.6424
vn 0.6424 0.4179 -0.6424
vn 0.8775 0.4179 -0.2351
vn 0.8775 0.4179 -0.2351
vn 0.8775 0.4179 0.2351
vn 0.8775 0.4179 0.2351
vn 0.6424 0.4179 0.6424
vn 0.6424 0.4179 0.6424
vn 0.2351 0.4179 0.8775
vn 0.2351 0.4179 0.8775
vn -0.2351 0.4179 0.8775
vn -0.2351 0.4179 0.8775
vn -0.6424 0.4179 0.6424
vn -0.6424 0.4179 0.6424
vn -0.8775 0.4179 0.2351
vn -0.8775 0.4179 0.2351
vn 0.0000 1.0000 0.0000
vn 0.0000 1.0000 -0.0000
vn 0.0000 1.0000 0.0000
vn 0.0000 1.0000 -0.0000
vn 0.0000 1.0000 0.0000
vn 0.0000 1.0000 -0.0000
vn 0.0000 1.0000 0.0000
vn 0.0000 1.0000 -0.0000
vn 0.0000 1.0000 0.0000
vn 0.0000 1.0000 0.0000
vn 0.0000 1.0000 0.0000
vn 0.0000 1.0000 0.0000
vn 0.0000 1.0000 0.0000
vn 0.0000 1.0000 0.0000
vn 0.0000 1.0000 0.0000
vn 0.0000 1.0000 0.0000
vn 0.0000 1.0000 0.0000
vn 0.0000 1.0000 0.0000
vn 0.0000 1.0000 0.0000
vn -0.0000 1.0000 0.0000
vn 0.0000 1.0000 0.0000
vn -0.0000 1.0000 0.0000
vn 0.0000 1.0000 0.0000
vn -0.0000 1.0000 0.0000
vn -0.9659 0.0000 -0.2588
vn -0.9659 0.0000 -0.2588
vn -0.7071 0.0000 -0.7071
vn -0.7071 0.0000 -0.7071
vn -0.2588 0.0000 -0.9659
vn -0.2588 0.0000 -0.9659
vn 0.2588 0.0000 -0.9659
vn 0.2588 0.0000 -0.9659
vn 0.7071 0.0000 -0.7071
vn 0.7071 0.0000 -0.7071
vn 0.9659 0.0000 -0.2588
vn 0.9659 0.0000 -0.2588
vn 0.9659 0.0000 0.2588
vn 0.9659 -0.0000 0.2588
vn 0.7071 0.0000 0.7071
vn 0.7071 -0.0000 0.7071
vn 0.2588 0.0000 0.9659
vn 0.2588 -0.0000 0.9659
vn -0.2588 0.0000 0.9659
vn -0.2588 0.0000 0.9659
vn -0.7071 0.0000 0.7071
vn -0.7071 0.0000 0.7071
vn -0.9659 0.0000 0.2588
vn -0.9659 0.0000 0.2588
vn 0.0000 -1.0000 0.0000
vn 0.0000 -1.0000 0.0000
vn 0.0000 -1.0000 0.0000
vn -0.0000 -1.0000 0.0000
vn 0.0000 -1.0000 0.0000
vn -0.0000 -1.0000 0.0000
vn 0.0000 -1.0000 0.0000
vn 0.0000 -1.0000 0.0000
vn 0.0000 -1.0000 0.0000
vn 0.0000 -1.0000 -0.0000
vn 0.0000 -1.0000 0.0000
vn 0.0000 -1.0000 -0.0000
vn 0.0000 -1.0000 0.0000
vn 0.0000 -1.0000 0.0000
vn 0.0000 -1.0000 0.0000
vn 0.0000 -1.0000 0.0000
vn 0.0000 -1.0000 0.0000
vn 0.0000 -1.0000 0.0000
vn 0.0000 -1.0000 0.0000
vn 0.0000 -1.0000 0.0000
vn 0.0000 -1.0000 0.0000
vn 0.0000 -1.0000 0.0000
vn 0.0000 -1.0000 0.0000
vn 0.0000 -1.0000 0.0000
vn 0.9659 0.0000 0.2588
vn 0.9659 0.0000 0.2588
vn 0.7071 0.0000 0.7071
vn 0.7071 0.0000 0.7071
vn 0.2588 0.0000 0.9659
vn 0.2588 0.0000 0.9659
vn -0.2588 0.0000 0.9659
vn -0.2588 0.0000 0.9659
vn -0.7071 0.0000 0.7071
vn -0.7071 0.0000 0.7071
vn -0.9659 0.0000 0.2588
vn -0.9659 0.0000 0.2588
vn -0.9659 0.0000 -0.2588
vn -0.9659 -0.0000 -0.2588
vn -0.7071 0.0000 -0.7071
vn -0.7071 -0.0000 -0.7071
vn -0.2588 0.0000 -0.9659
vn -0.2588 -0.0000 -0.9659
vn 0.2588 0.0000 -0.9659
vn 0.2588 0.0000 -0.9659
vn 0.7071 0.0000 -0.7071
vn 0.7071 0.0000 -0.7071
vn 0.9659 0.0000 -0.2588
vn 0.9659 0.0000 -0.2588
vn 0.8466 -0.4815 0.2268
vn 0.8466 -0.4815 0.2268
vn 0.6198 -0.4815 0.6198
vn 0.6198 -0.4815 0.6198
vn 0.2268 -0.4815 0.8466
vn 0.2268 -0.4815 0.8466
vn -0.2268 -0.4815 0.8466
vn -0.2268 -0.4815 0.8466
vn -0.6198 -0.4815 0.6198
vn -0.6198 -0.4815 0.6198
vn -0.8466 -0.4815 0.2268
vn -0.8466 -0.4815 0.2268
vn -0.8466 -0.4815 -0.2268
vn -0.8466 -0.4815 -0.2268
vn -0.6198 -0.4815 -0.6198
vn -0.6198 -0.4815 -0.6198
vn -0.2268 -0.4815 -0.8466
vn -0.2268 -0.4815 -0.8466
vn 0.2268 -0.4815 -0.8466
vn 0.2268 -0.4815 -0.8466
vn 0.6198 -0.4815 -0.6198
vn 0.6198 -0.4815 -0.6198
vn 0.8466 -0.4815 -0.2268
vn 0.8466 -0.4815 -0.2268
vn 0.0967 -0.9950 0.0259
vn 0.0708 -0.9950 0.0708
vn 0.0259 -0.9950 0.0967
vn -0.0259 -0.9950 0.0967
vn -0.0708 -0.9950 0.0708
vn -0.0967 -0.9950 0.0259
vn -0.0967 -0.9950 -0.0259
vn -0.0708 -0.9950 -0.0708
vn -0.0259 -0.9950 -0.0967
vn 0.0259 -0.9950 -0.0967
vn 0.0708 -0.9950 -0.0708
vn 0.0967 -0.9950 -0.0259
vn -0.9659 0.0000 -0.2588
vn -0.9659 0.0000 -0.2588
vn -0.7071 0.0000 -0.7071
vn -0.7071 0.0000 -0.7071
vn -0.2588 0.0000 -0.9659
vn -0.2588 0.0000 -0.9659
vn 0.2588 0.0000 -0.9659
vn 0.2588 0.0000 -0.9659
vn 0.7071 0.0000 -0.7071
vn 0.7071 0.0000 -0.7071
vn 0.9659 0.0000 -0.2588
vn 0.9659 0.0000 -0.2588
vn 0.9659 0.0000 0.2588
vn 0.9659 -0.0000 0.2588
vn 0.7071 0.0000 0.7071
vn 0.7071 -0.0000 0.7071
vn 0.2588 0.0000 0.9659
vn 0.2588 -0.0000 0.9659
vn -0.2588 0.0000 0.9659
vn -0.2588 0.0000 0.9659
vn -0.7071 0.0000 0.7071
vn -0.7071 0.0000 0.7071
vn -0.9659 0.0000 0.2588
vn -0.9659 0.0000 0.2588
vn 0.0000 -1.0000 0.0000
vn 0.0000 -1.0000 0.0000
vn 0.0000 -1.0000 0.0000
vn 0.0000 -1.0000 0.0000
vn 0.0000 -1.0000 0.0000
vn 0.0000 -1.0000 0.0000
vn -0.0000 -1.0000 0.0000
vn 0.0000 -1.0000 0.0000
vn 0.0000 -1.0000 0.0000
vn 0.0000 -1.0000 -0.0000
vn 0.0000 -1.0000 0.0000
vn 0.0000 -1.0000 0.0000
vn 0.0000 -1.0000 0.0000
vn 0.0000 -1.0000 0.0000
vn 0.0000 -1.0000 0.0000
vn 0.0000 -1.0000 0.0000
vn 0.0000 -1.0000 0.0000
vn 0.0000 -1.0000 0.0000
vn -0.0000 -1.0000 0.0000
vn 0.0000 -1.0000 0.0000
vn 0.0000 -1.0000 0.0000
vn 0.0000 -1.0000 -0.0000
vn 0.0000 -1.0000 0.0000
vn 0.0000 -1.0000 0.0000
vn -0.1781 0.9813 -0.0738
vn -0.0738 0.9813 -0.1781
vn 0.0738 0.9813 -0.1781
vn 0.1781 0.9813 -0.0738
vn 0.1781 0.9813 0.0738
vn 0.0738 0.9813 0.1781
vn -0.0738 0.9813 0.1781
vn -0.1781 0.9813 0.0738
vn -0.9239 0.0000 -0.3827
vn -0.9239 0.0000 -0.3827
vn -0.3827 0.0000 -0.9239
vn -0.3827 0.0000 -0.9239
vn 0.3827 0.0000 -0.9239
vn 0.3827 0.0000 -0.9239
vn 0.9239 0.0000 -0.3827
vn 0.9239 0.0000 -0.3827
vn 0.9239 0.0000 0.3827
vn 0.9239 0.0000 0.3827
vn 0.3827 0.0000 0.9239
vn 0.3827 0.0000 0.9239
vn -0.3827 0.0000 0.9239
vn -0.3827 0.0000 0.9239
vn -0.9239 0.0000 0.3827
vn -0.9239 0.0000 0.3827
vn -0.1781 -0.9813 -0.0738
vn -0.0738 -0.9813 -0.1781
vn 0.0738 -0.9813 -0.1781
vn 0.1781 -0.9813 -0.0738
vn 0.1781 -0.9813 0.0738
vn 0.0738 -0.9813 0.1781
vn -0.0738 -0.9813 0.1781
vn -0.1781 -0.9813 0.0738
vn 0.0196 0.9993 -0.0334
vn 0.0196 0.9993 -0.0334
vn 0.6796 -0.0378 -0.7326
vn 0.6796 -0.0378 -0.7326
vn -0.0196 -0.9993 0.0334
vn -0.0196 -0.9993 0.0334
vn -0.6796 0.0378 0.7326
vn -0.6796 0.0378 0.7326
vn -0.7333 -0.0083 -0.6798
vn -0.7333 -0.0083 -0.6798
vn -0.7333 -0.0083 -0.6798
vn -0.7333 -0.0083 -0.6798
vn -0.7333 -0.0083 -0.6798
vn -0.7333 -0.0083 -0.6798
vn -0.7333 -0.0083 -0.6798
vn -0.7333 -0.0083 -0.6798
vn -0.7898 0.6023 -0.1155
vn -0.7898 0.6023 -0.1155
vn 0.5975 0.7982 0.0768
vn 0.5975 0.7982 0.0768
vn 0.7898 -0.6023 0.1155
vn 0.7898 -0.6023 0.1155
vn -0.5975 -0.7982 -0.0768
vn -0.5975 -0.7982 -0.0768
vn 0.1385 -0.0083 -0.9903
vn 0.1385 -0.0083 -0.9903
vn 0.1385 -0.0083 -0.9903
vn 0.1385 -0.0083 -0.9903
vn 0.1385 -0.0083 -0.9903
vn 0.1385 -0.0083 -0.9903
vn 0.1385 -0.0083 -0.9903
vn 0.1385 -0.0083 -0.9903
vn -0.3408 0.9298 0.1391
vn -0.3408 0.9298 0.1391
vn 0.8521 0.3680 -0.3722
vn 0.8521 0.3680 -0.3722
vn 0.3408 -0.9298 -0.1391
vn 0.3408 -0.9298 -0.1391
vn -0.8521 -0.3680 0.3722
vn -0.8521 -0.3680 0.3722
vn -0.3973 -0.0083 -0.9177
vn -0.3973 -0.0083 -0.9177
vn -0.3973 -0.0083 -0.9177
vn -0.3973 -0.0083 -0.9177
vn -0.3973 -0.0083 -0.9177
vn -0.3973 -0.0083 -0.9177
vn -0.3973 -0.0083 -0.9177
vn -0.3973 -0.0083 -0.9177
vn -0.8480 0.4430 -0.2910
vn -0.8480 0.4430 -0.2910
vn 0.4220 0.8965 0.1350
vn 0.4220 0.8965 0.1350
vn 0.8480 -0.4430 0.2910
vn 0.8480 -0.4430 0.2910
vn -0.4220 -0.8965 -0.1350
vn -0.4220 -0.8965 -0.1350
vn 0.3207 -0.0083 -0.9471
vn 0.3207 -0.0083 -0.9471
vn 0.3207 -0.0083 -0.9471
vn 0.3207 -0.0083 -0.9471
vn 0.3207 -0.0083 -0.9471
vn 0.3207 -0.0083 -0.9471
vn 0.3207 -0.0083 -0.9471
vn 0.3207 -0.0083 -0.9471
vn -0.8523 0.3806 -0.3587
vn -0.8523 0.3806 -0.3587
vn 0.3543 0.9247 0.1393
vn 0.3543 0.9247 0.1393
vn 0.8523 -0.3806 0.3587
vn 0.8523 -0.3806 0.3587
vn -0.3543 -0.9247 -0.1393
vn -0.3543 -0.9247 -0.1393
vn 0.3848 -0.0083 -0.9230
vn 0.3848 -0.0083 -0.9230
vn 0.3848 -0.0083 -0.9230
vn 0.3848 -0.0083 -0.9230
vn 0.3848 -0.0083 -0.9230
vn 0.3848 -0.0083 -0.9230
vn 0.3848 -0.0083 -0.9230
vn 0.3848 -0.0083 -0.9230
vn 0.1051 0.8367 -0.5375
vn 0.1051 0.8367 -0.5375
vn 0.1755 -0.5476 -0.8181
vn 0.1755 -0.5476 -0.8181
vn -0.1051 -0.8367 0.5375
vn -0.1051 -0.8367 0.5375
vn -0.1755 0.5476 0.8181
vn -0.1755 0.5476 0.8181
vn -0.9789 -0.0083 -0.2044
vn -0.9789 -0.0083 -0.2044
vn -0.9789 -0.0083 -0.2044
vn -0.9789 -0.0083 -0.2044
vn -0.9789 -0.0083 -0.2044
vn -0.9789 -0.0083 -0.2044
vn -0.9789 -0.0083 -0.2044
vn -0.9789 -0.0083 -0.2044
vn 0.0219 0.7357 -0.6769
vn 0.0219 0.7357 -0.6769
vn 0.0361 -0.6772 -0.7349
vn 0.0361 -0.6772 -0.7349
vn -0.0219 -0.7357 0.6769
vn -0.0219 -0.7357 0.6769
vn -0.0361 0.6772 0.7349
vn -0.0361 0.6772 0.7349
vn -0.9991 -0.0083 -0.0414
vn -0.9991 -0.0083 -0.0414
vn -0.9991 -0.0083 -0.0414
vn -0.9991 -0.0083 -0.0414
vn -0.9991 -0.0083 -0.0414
vn -0.9991 -0.0083 -0.0414
vn -0.9991 -0.0083 -0.0414
vn -0.9991 -0.0083 -0.0414
vn -0.4723 -0.2713 -0.8386
vn -0.4723 -0.2713 -0.8386
vn -0.1256 0.9624 -0.2407
vn -0.1256 0.9624 -0.2407
vn 0.4723 0.2713 0.8386
vn 0.4723 0.2713 0.8386
vn 0.1256 -0.9624 0.2407
vn 0.1256 -0.9624 0.2407
vn 0.8724 -0.0083 -0.4887
vn 0.8724 -0.0083 -0.4887
vn 0.8724 -0.0083 -0.4887
vn 0.8724 -0.0083 -0.4887
vn 0.8724 -0.0083 -0.4887
vn 0.8724 -0.0083 -0.4887
vn 0.8724 -0.0083 -0.4887
vn 0.8724 -0.0083 -0.4887
vn -0.3803 0.8983 -0.2198
vn -0.0913 0.8726 -0.4798
vn 0.2590 0.8838 -0.3897
vn 0.4253 0.9050 0.0000
vn 0.2590 0.8838 0.3897
vn -0.0913 0.8726 0.4798
vn -0.3803 0.8983 0.2198
vn -0.8658 0.0000 -0.5004
vn -0.8658 0.0000 -0.5004
vn -0.1869 0.0000 -0.9824
vn -0.1869 0.0000 -0.9824
vn 0.5535 0.0000 -0.8329
vn 0.5535 0.0000 -0.8329
vn 1.0000 0.0000 0.0000
vn 1.0000 0.0000 -0.0000
vn 0.5535 0.0000 0.8329
vn 0.5535 0.0000 0.8329
vn -0.1869 0.0000 0.9824
vn -0.1869 0.0000 0.9824
vn -0.8658 0.0000 0.5004
vn -0.8658 0.0000 0.5004
vn -0.3803 -0.8983 -0.2198
vn -0.0913 -0.8726 -0.4798
vn 0.2590 -0.8838 -0.3897
vn 0.4253 -0.9050 -0.0000
vn 0.2590 -0.8838 0.3897
vn -0.0913 -0.8726 0.4798
vn -0.3803 -0.8983 0.2198
vn -0.4804 0.8321 -0.2774
vn -0.0000 0.8321 -0.5547
vn 0.4804 0.8321 -0.2774
vn 0.4804 0.8321 0.2774
vn 0.0000 0.8321 0.5547
vn -0.4804 0.8321 0.2774
vn -0.8660 0.0000 -0.5000
vn -0.8660 0.0000 -0.5000
vn -0.0000 0.0000 -1.0000
vn 0.0000 0.0000 -1.0000
vn 0.8660 0.0000 -0.5000
vn 0.8660 0.0000 -0.5000
vn 0.8660 0.0000 0.5000
vn 0.8660 -0.0000 0.5000
vn -0.0000 0.0000 1.0000
vn 0.0000 -0.0000 1.0000
vn -0.8660 0.0000 0.5000
vn -0.8660 0.0000 0.5000
vn -0.4804 -0.8321 -0.2774
vn -0.0000 -0.8321 -0.5547
vn 0.4804 -0.8321 -0.2774
vn 0.4804 -0.8321 0.2774
vn 0.0000 -0.8321 0.5547
vn -0.4804 -0.8321 0.2774
vn -0.9239 0.0000 -0.3827
vn -0.9239 0.0000 -0.3827
vn -0.3827 0.0000 -0.9239
vn -0.3827 0.0000 -0.9239
vn 0.3827 0.0000 -0.9239
vn 0.3827 0.0000 -0.9239
vn 0.9239 0.0000 -0.3827
vn 0.9239 0.0000 -0.3827
vn 0.9239 0.0000 0.3827
vn 0.9239 -0.0000 0.3827
vn 0.3827 0.0000 0.9239
vn 0.3827 -0.0000 0.9239
vn -0.3827 0.0000 0.9239
vn -0.3827 0.0000 0.9239
vn -0.9239 0.0000 0.3827
vn -0.9239 0.0000 0.3827
vn 0.0000 -1.0000 0.0000
vn 0.0000 -1.0000 0.0000
vn 0.0000 -1.0000 0.0000
vn 0.0000 -1.0000 0.0000
vn -0.0000 -1.0000 0.0000
vn 0.0000 -1.0000 0.0000
vn 0.0000 -1.0000 -0.0000
vn 0.0000 -1.0000 0.0000
vn 0.0000 -1.0000 0.0000
vn 0.0000 -1.0000 0.0000
vn 0.0000 -1.0000 0.0000
vn 0.0000 -1.0000 0.0000
vn -0.0000 -1.0000 0.0000
vn 0.0000 -1.0000 0.0000
vn 0.0000 -1.0000 -0.0000
vn 0.0000 -1.0000 0.0000
vn -0.8660 0.0000 -0.5000
vn -0.8660 0.0000 -0.5000
vn 0.0000 0.0000 -1.0000
vn 0.0000 0.0000 -1.0000
vn 0.8660 0.0000 -0.5000
vn 0.8660 0.0000 -0.5000
vn 0.8660 0.0000 0.5000
vn 0.8660 -0.0000 0.5000
vn 0.0000 0.0000 1.0000
vn 0.0000 0.0000 1.0000
vn -0.8660 0.0000 0.5000
vn -0.8660 0.0000 0.5000
vn 0.0000 -1.0000 0.0000
vn 0.0000 -1.0000 0.0000
vn 0.0000 -1.0000 0.0000
vn -0.0000 -1.0000 0.0000
vn 0.0000 -1.0000 -0.0000
vn 0.0000 -1.0000 0.0000
vn 0.0000 -1.0000 0.0000
vn 0.0000 -1.0000 0.0000
vn 0.0000 -1.0000 0.0000
vn -0.0000 -1.0000 0.0000
vn 0.0000 -1.0000 -0.0000
vn 0.0000 -1.0000 0.0000
vn -0.9239 0.0000 -0.3827
vn -0.9239 0.0000 -0.3827
vn -0.3827 0.0000 -0.9239
vn -0.3827 0.0000 -0.9239
vn 0.3827 0.0000 -0.9239
vn 0.3827 0.0000 -0.9239
vn 0.9239 0.0000 -0.3827
vn 0.9239 0.0000 -0.3827
vn 0.9239 0.0000 0.3827
vn 0.9239 -0.0000 0.3827
vn 0.3827 0.0000 0.9239
vn 0.3827 -0.0000 0.9239
vn -0.3827 0.0000 0.9239
vn -0.3827 0.0000 0.9239
vn -0.9239 0.0000 0.3827
vn -0.9239 0.0000 0.3827
vn 0.0000 -1.0000 0.0000
vn 0.0000 -1.0000 0.0000
vn 0.0000 -1.0000 0.0000
vn 0.0000 -1.0000 0.0000
vn -0.0000 -1.0000 0.0000
vn 0.0000 -1.0000 0.0000
vn 0.0000 -1.0000 -0.0000
vn 0.0000 -1.0000 0.0000
vn 0.0000 -1.0000 0.0000
vn 0.0000 -1.0000 0.0000
vn 0.0000 -1.0000 0.0000
vn 0.0000 -1.0000 0.0000
vn -0.0000 -1.0000 0.0000
vn 0.0000 -1.0000 0.0000
vn 0.0000 -1.0000 -0.0000
vn 0.0000 -1.0000 0.0000
vn 0.4162 -0.0734 0.9063
vn 0.4162 -0.0734 0.9063
vn 0.1736 0.9848 -0.0000
vn -0.1736 -0.9848 -0.0000
vn -0.8925 0.1574 0.4226
vn -0.8925 0.1574 0.4226
vn 0.1736 0.9848 -0.0000
vn -0.1736 -0.9848 0.0000
vn -0.4162 0.0734 -0.9063
vn -0.4162 0.0734 -0.9063
vn 0.1736 0.9848 0.0000
vn -0.1736 -0.9848 0.0000
vn 0.8925 -0.1574 -0.4226
vn 0.8925 -0.1574 -0.4226
vn 0.1736 0.9848 -0.0000
vn -0.1736 -0.9848 0.0000
vn -0.8090 0.0000 -0.5878
vn -0.8090 0.0000 -0.5878
vn 0.3090 0.0000 -0.9511
vn 0.3090 0.0000 -0.9511
vn 1.0000 0.0000 0.0000
vn 1.0000 -0.0000 0.0000
vn 0.3090 0.0000 0.9511
vn 0.3090 -0.0000 0.9511
vn -0.8090 0.0000 0.5878
vn -0.8090 0.0000 0.5878
vn 0.0000 -1.0000 0.0000
vn 0.0000 -1.0000 0.0000
vn -0.0000 -1.0000 0.0000
vn 0.0000 -1.0000 -0.0000
vn 0.0000 -1.0000 0.0000
vn 0.0000 -1.0000 0.0000
vn 0.0000 -1.0000 0.0000
vn -0.0000 -1.0000 0.0000
vn 0.0000 -1.0000 -0.0000
vn 0.0000 -1.0000 0.0000
vn -0.8090 0.0000 -0.5878
vn -0.8090 0.0000 -0.5878
vn 0.3090 0.0000 -0.9511
vn 0.3090 0.0000 -0.9511
vn 1.0000 0.0000 0.0000
vn 1.0000 -0.0000 0.0000
vn 0.3090 0.0000 0.9511
vn 0.3090 -0.0000 0.9511
vn -0.8090 0.0000 0.5878
vn -0.8090 0.0000 0.5878
vn 0.0000 -1.0000 0.0000
vn 0.0000 -1.0000 0.0000
vn -0.0000 -1.0000 0.0000
vn 0.0000 -1.0000 -0.0000
vn 0.0000 -1.0000 0.0000
vn 0.0000 -1.0000 0.0000
vn 0.0000 -1.0000 0.0000
vn -0.0000 -1.0000 0.0000
vn 0.0000 -1.0000 -0.0000
vn 0.0000 -1.0000 0.0000
vn -0.8090 0.0000 -0.5878
vn -0.8090 0.0000 -0.5878
vn 0.3090 0.0000 -0.9511
vn 0.3090 0.0000 -0.9511
vn 1.0000 0.0000 -0.0000
vn 1.0000 0.0000 -0.0000
vn 0.3090 0.0000 0.9511
vn 0.3090 -0.0000 0.9511
vn -0.8090 0.0000 0.5878
vn -0.8090 0.0000 0.5878
vn 0.0000 -1.0000 0.0000
vn 0.0000 -1.0000 0.0000
vn -0.0000 -1.0000 0.0000
vn 0.0000 -1.0000 -0.0000
vn 0.0000 -1.0000 0.0000
vn 0.0000 -1.0000 0.0000
vn 0.0000 -1.0000 0.0000
vn -0.0000 -1.0000 0.0000
vn 0.0000 -1.0000 -0.0000
vn 0.0000 -1.0000 0.0000
usemtl c0
f 1//1 14//1 13//1
f 2//2 15//2 14//2
f 3//3 16//3 15//3
f 4//4 17//4 16//4
f 5//5 18//5 17//5
f 6//6 19//6 18//6
f 7//7 20//7 19//7
f 8//8 21//8 20//8
f 9//9 22//9 21//9
f 10//10 23//10 22//10
f 11//11 24//11 23//11
f 12//12 13//12 24//12
f 13//13 14//13 26//13
f 13//14 26//14 25//14
f 14//15 15//15 27//15
f 14//16 27//16 26//16
f 15//17 16//17 28//17
f 15//18 28//18 27//18
f 16//19 17//19 29//19
f 16//20 29//20 28//20
f 17//21 18//21 30//21
f 17//22 30//22 29//22
f 18//23 19//23 31//23
f 18//24 31//24 30//24
f 19//25 20//25 32//25
f 19//26 32//26 31//26
f 20//27 21//27 33//27
f 20//28 33//28 32//28
f 21//29 22//29 34//29
f 21//30 34//30 33//30
f 22//31 23//31 35//31
f 22//32 35//32 34//32
f 23//33 24//33 36//33
f 23//34 36//34 35//34
f 24//35 13//35 25//35
f 24//36 25//36 36//36
f 25//37 26//37 38//37
f 25//38 38//38 37//38
f 26//39 27//39 39//39
f 26//40 39//40 38//40
f 27//41 28//41 40//41
f 27//42 40//42 39//42
f 28//43 29//43 41//43
f 28//44 41//44 40//44
f 29//45 30//45 42//45
f 29//46 42//46 41//46
f 30//47 31//47 43//47
f 30//48 43//48 42//48
f 31//49 32//49 44//49
f 31//50 44//50 43//50
f 32//51 33//51 45//51
f 32//52 45//52 44//52
f 33//53 34//53 46//53
f 33//54 46//54 45//54
f 34//55 35//55 47//55
f 34//56 47//56 46//56
f 35//57 36//57 48//57
f 35//58 48//58 47//58
f 36//59 25//59 37//59
f 36//60 37//60 48//60
f 37//61 38//61 50//61
f 37//62 50//62 49//62
f 38//63 39//63 51//63
f 38//64 51//64 50//64
f 39//65 40//65 52//65
f 39//66 52//66 51//66
f 40//67 41//67 53//67
f 40//68 53//68 52//68
f 41//69 42//69 54//69
f 41//70 54//70 53//70
f 42//71 43//71 55//71
f 42//72 55//72 54//72
f 43//73 44//73 56//73
f 43//74 56//74 55//74
f 44//75 45//75 57//75
f 44//76 57//76 56//76
f 45//77 46//77 58//77
f 45//78 58//78 57//78
f 46//79 47//79 59//79
f 46//80 59//80 58//80
f 47//81 48//81 60//81
f 47//82 60//82 59//82
f 48//83 37//83 49//83
f 48//84 49//84 60//84
usemtl c1
f 61//85 62//85 74//85
f 61//86 74//86 73//86
f 62//87 63//87 75//87
f 62//88 75//88 74//88
f 63//89 64//89 76//89
f 63//90 76//90 75//90
f 64//91 65//91 77//91
f 64//92 77//92 76//92
f 65//93 66//93 78//93
f 65//94 78//94 77//94
f 66//95 67//95 79//95
f 66//96 79//96 78//96
f 67//97 68//97 80//97
f 67//98 80//98 79//98
f 68//99 69//99 81//99
f 68//100 81//100 80//100
f 69//101 70//101 82//101
f 69//102 82//102 81//102
f 70//103 71//103 83//103
f 70//104 83//104 82//104
f 71//105 72//105 84//105
f 71//106 84//106 83//106
f 72//107 61//107 73//107
f 72//108 73//108 84//108
f 73//109 74//109 86//109
f 73//110 86//110 85//110
f 74//111 75//111 87//111
f 74//112 87//112 86//112
f 75//113 76//113 88//113
f 75//114 88//114 87//114
f 76//115 77//115 89//115
f 76//116 89//116 88//116
f 77//117 78//117 90//117
f 77//118 90//118 89//118
f 78//119 79//119 91//119
f 78//120 91//120 90//120
f 79//121 80//121 92//121
f 79//122 92//122 91//122
f 80//123 81//123 93//123
f 80//124 93//124 92//124
f 81//125 82//125 94//125
f 81//126 94//126 93//126
f 82//127 83//127 95//127
f 82//128 95//128 94//128
f 83//129 84//129 96//129
f 83//130 96//130 95//130
f 84//131 73//131 85//131
f 84//132 85//132 96//132
f 85//133 86//133 98//133
f 85//134 98//134 97//134
f 86//135 87//135 99//135
f 86//136 99//136 98//136
f 87//137 88//137 100//137
f 87//138 100//138 99//138
f 88//139 89//139 101//139
f 88//140 101//140 100//140
f 89//141 90//141 102//141
f 89//142 102//142 101//142
f 90//143 91//143 103//143
f 90//144 103//144 102//144
f 91//145 92//145 104//145
f 91//146 104//146 103//146
f 92//147 93//147 105//147
f 92//148 105//148 104//148
f 93//149 94//149 106//149
f 93//150 106//150 105//150
f 94//151 95//151 107//151
f 94//152 107//152 106//152
f 95//153 96//153 108//153
f 95//154 108//154 107//154
f 96//155 85//155 97//155
f 96//156 97//156 108//156
f 97//157 98//157 62//157
f 97//158 62//158 61//158
f 98//159 99//159 63//159
f 98//160 63//160 62//160
f 99//161 100//161 64//161
f 99//162 64//162 63//162
f 100//163 101//163 65//163
f 100//164 65//164 64//164
f 101//165 102//165 66//165
f 101//166 66//166 65//166
f 102//167 103//167 67//167
f 102//168 67//168 66//168
f 103//169 104//169 68//169
f 103//170 68//170 67//170
f 104//171 105//171 69//171
f 104//172 69//172 68//172
f 105//173 106//173 70//173
f 105//174 70//174 69//174
f 106//175 107//175 71//175
f 106//176 71//176 70//176
f 107//177 108//177 72//177
f 107//178 72//178 71//178
f 108//179 97//179 61//179
f 108//180 61//180 72//180
usemtl c2
f 109//181 110//181 122//181
f 109//182 122//182 121//182
f 110//183 111//183 123//183
f 110//184 123//184 122//184
f 111//185 112//185 124//185
f 111//186 124//186 123//186
f 112//187 113//187 125//187
f 112//188 125//188 124//188
f 113//189 114//189 126//189
f 113//190 126//190 125//190
f 114//191 115//191 127//191
f 114//192 127//192 126//192
f 115//193 116//193 128//193
f 115//194 128//194 127//194
f 116//195 117//195 129//195
f 116//196 129//196 128//196
f 117//197 118//197 130//197
f 117//198 130//198 129//198
f 118//199 119//199 131//199
f 118//200 131//200 130//200
f 119//201 120//201 132//201
f 119//202 132//202 131//202
f 120//203 109//203 121//203
f 120//204 121//204 132//204
f 121//205 122//205 134//205
f 122//206 123//206 135//206
f 123//207 124//207 136//207
f 124//208 125//208 137//208
f 125//209 126//209 138//209
f 126//210 127//210 139//210
f 127//211 128//211 140//211
f 128//212 129//212 141//212
f 129//213 130//213 142//213
f 130//214 131//214 143//214
f 131//215 132//215 144//215
f 132//216 121//216 133//216
usemtl c3
f 145//217 146//217 158//217
f 145//218 158//218 157//218
f 146//219 147//219 159//219
f 146//220 159//220 158//220
f 147//221 148//221 160//221
f 147//222 160//222 159//222
f 148//223 149//223 161//223
f 148//224 161//224 160//224
f 149//225 150//225 162//225
f 149//226 162//226 161//226
f 150//227 151//227 163//227
f 150//228 163//228 162//228
f 151//229 152//229 164//229
f 151//230 164//230 163//230
f 152//231 153//231 165//231
f 152//232 165//232 164//232
f 153//233 154//233 166//233
f 153//234 166//234 165//234
f 154//235 155//235 167//235
f 154//236 167//236 166//236
f 155//237 156//237 168//237
f 155//238 168//238 167//238
f 156//239 145//239 157//239
f 156//240 157//240 168//240
f 169//241 145//241 146//241
f 169//242 146//242 147//242
f 169//243 147//243 148//243
f 169//244 148//244 149//244
f 169//245 149//245 150//245
f 169//246 150//246 151//246
f 169//247 151//247 152//247
f 169//248 152//248 153//248
f 169//249 153//249 154//249
f 169//250 154//250 155//250
f 169//251 155//251 156//251
f 169//252 156//252 145//252
f 170//253 157//253 158//253
f 170//254 158//254 159//254
f 170//255 159//255 160//255
f 170//256 160//256 161//256
f 170//257 161//257 162//257
f 170//258 162//258 163//258
f 170//259 163//259 164//259
f 170//260 164//260 165//260
f 170//261 165//261 166//261
f 170//262 166//262 167//262
f 170//263 167//263 168//263
f 170//264 168//264 157//264
usemtl c4
f 171//265 180//265 179//265
f 172//266 181//266 180//266
f 173//267 182//267 181//267
f 174//268 183//268 182//268
f 175//269 184//269 183//269
f 176//270 185//270 184//270
f 177//271 186//271 185//271
f 178//272 179//272 186//272
f 179//273 180//273 188//273
f 179//274 188//274 187//274
f 180//275 181//275 189//275
f 180//276 189//276 188//276
f 181//277 182//277 190//277
f 181//278 190//278 189//278
f 182//279 183//279 191//279
f 182//280 191//280 190//280
f 183//281 184//281 192//281
f 183//282 192//282 191//282
f 184//283 185//283 193//283
f 184//284 193//284 192//284
f 185//285 186//285 194//285
f 185//286 194//286 193//286
f 186//287 179//287 187//287
f 186//288 187//288 194//288
f 187//289 188//289 196//289
f 188//290 189//290 197//290
f 189//291 190//291 198//291
f 190//292 191//292 199//292
f 191//293 192//293 200//293
f 192//294 193//294 201//294
f 193//295 194//295 202//295
f 194//296 187//296 195//296
usemtl c5
f 203//297 204//297 208//297
f 203//298 208//298 207//298
f 204//299 205//299 209//299
f 204//300 209//300 208//300
f 205//301 206//301 210//301
f 205//302 210//302 209//302
f 206//303 203//303 207//303
f 206//304 207//304 210//304
f 211//305 203//305 204//305
f 211//306 204//306 205//306
f 211//307 205//307 206//307
f 211//308 206//308 203//308
f 212//309 207//309 208//309
f 212//310 208//310 209//310
f 212//311 209//311 210//311
f 212//312 210//312 207//312
f 213//313 214//313 218//313
f 213//314 218//314 217//314
f 214//315 215//315 219//315
f 214//316 219//316 218//316
f 215//317 216//317 220//317
f 215//318 220//318 219//318
f 216//319 213//319 217//319
f 216//320 217//320 220//320
f 221//321 213//321 214//321
f 221//322 214//322 215//322
f 221//323 215//323 216//323
f 221//324 216//324 213//324
f 222//325 217//325 218//325
f 222//326 218//326 219//326
f 222//327 219//327 220//327
f 222//328 220//328 217//328
f 223//329 224//329 228//329
f 223//330 228//330 227//330
f 224//331 225//331 229//331
f 224//332 229//332 228//332
f 225//333 226//333 230//333
f 225//334 230//334 229//334
f 226//335 223//335 227//335
f 226//336 227//336 230//336
f 231//337 223//337 224//337
f 231//338 224//338 225//338
f 231//339 225//339 226//339
f 231//340 226//340 223//340
f 232//341 227//341 228//341
f 232//342 228//342 229//342
f 232//343 229//343 230//343
f 232//344 230//344 227//344
f 233//345 234//345 238//345
f 233//346 238//346 237//346
f 234//347 235//347 239//347
f 234//348 239//348 238//348
f 235//349 236//349 240//349
f 235//350 240//350 239//350
f 236//351 233//351 237//351
f 236//352 237//352 240//352
f 241//353 233//353 234//353
f 241//354 234//354 235//354
f 241//355 235//355 236//355
f 241//356 236//356 233//356
f 242//357 237//357 238//357
f 242//358 238//358 239//358
f 242//359 239//359 240//359
f 242//360 240//360 237//360
f 243//361 244//361 248//361
f 243//362 248//362 247//362
f 244//363 245//363 249//363
f 244//364 249//364 248//364
f 245//365 246//365 250//365
f 245//366 250//366 249//366
f 246//367 243//367 247//367
f 246//368 247//368 250//368
f 251//369 243//369 244//369
f 251//370 244//370 245//370
f 251//371 245//371 246//371
f 251//372 246//372 243//372
f 252//373 247//373 248//373
f 252//374 248//374 249//374
f 252//375 249//375 250//375
f 252//376 250//376 247//376
f 253//377 254//377 258//377
f 253//378 258//378 257//378
f 254//379 255//379 259//379
f 254//380 259//380 258//380
f 255//381 256//381 260//381
f 255//382 260//382 259//382
f 256//383 253//383 257//383
f 256//384 257//384 260//384
f 261//385 253//385 254//385
f 261//386 254//386 255//386
f 261//387 255//387 256//387
f 261//388 256//388 253//388
f 262//389 257//389 258//389
f 262//390 258//390 259//390
f 262//391 259//391 260//391
f 262//392 260//392 257//392
f 263//393 264//393 268//393
f 263//394 268//394 267//394
f 264//395 265//395 269//395
f 264//396 269//396 268//396
f 265//397 266//397 270//397
f 265//398 270//398 269//398
f 266//399 263//399 267//399
f 266//400 267//400 270//400
f 271//401 263//401 264//401
f 271//402 264//402 265//402
f 271//403 265//403 266//403
f 271//404 266//404 263//404
f 272//405 267//405 268//405
f 272//406 268//406 269//406
f 272//407 269//407 270//407
f 272//408 270//408 267//408
f 273//409 274//409 278//409
f 273//410 278//410 277//410
f 274//411 275//411 279//411
f 274//412 279//412 278//412
f 275//413 276//413 280//413
f 275//414 280//414 279//414
f 276//415 273//415 277//415
f 276//416 277//416 280//416
f 281//417 273//417 274//417
f 281//418 274//418 275//418
f 281//419 275//419 276//419
f 281//420 276//420 273//420
f 282//421 277//421 278//421
f 282//422 278//422 279//422
f 282//423 279//423 280//423
f 282//424 280//424 277//424
usemtl c6
f 283//425 291//425 290//425
f 284//426 292//426 291//426
f 285//427 293//427 292//427
f 286//428 294//428 293//428
f 287//429 295//429 294//429
f 288//430 296//430 295//430
f 289//431 290//431 296//431
f 290//432 291//432 298//432
f 290//433 298//433 297//433
f 291//434 292//434 299//434
f 291//435 299//435 298//435
f 292//436 293//436 300//436
f 292//437 300//437 299//437
f 293//438 294//438 301//438
f 293//439 301//439 300//439
f 294//440 295//440 302//440
f 294//441 302//441 301//441
f 295//442 296//442 303//442
f 295//443 303//443 302//443
f 296//444 290//444 297//444
f 296//445 297//445 303//445
f 297//446 298//446 305//446
f 298//447 299//447 306//447
f 299//448 300//448 307//448
f 300//449 301//449 308//449
f 301//450 302//450 309//450
f 302//451 303//451 310//451
f 303//452 297//452 304//452
usemtl c7
f 311//453 318//453 317//453
f 312//454 319//454 318//454
f 313//455 320//455 319//455
f 314//456 321//456 320//456
f 315//457 322//457 321//457
f 316//458 317//458 322//458
f 317//459 318//459 324//459
f 317//460 324//460 323//460
f 318//461 319//461 325//461
f 318//462 325//462 324//462
f 319//463 320//463 326//463
f 319//464 326//464 325//464
f 320//465 321//465 327//465
f 320//466 327//466 326//466
f 321//467 322//467 328//467
f 321//468 328//468 327//468
f 322//469 317//469 323//469
f 322//470 323//470 328//470
f 323//471 324//471 330//471
f 324//472 325//472 331//472
f 325//473 326//473 332//473
f 326//474 327//474 333//474
f 327//475 328//475 334//475
f 328//476 323//476 329//476
usemtl c8
f 335//477 336//477 344//477
f 335//478 344//478 343//478
f 336//479 337//479 345//479
f 336//480 345//480 344//480
f 337//481 338//481 346//481
f 337//482 346//482 345//482
f 338//483 339//483 347//483
f 338//484 347//484 346//484
f 339//485 340//485 348//485
f 339//486 348//486 347//486
f 340//487 341//487 349//487
f 340//488 349//488 348//488
f 341//489 342//489 350//489
f 341//490 350//490 349//490
f 342//491 335//491 343//491
f 342//492 343//492 350//492
f 351//493 335//493 336//493
f 351//494 336//494 337//494
f 351//495 337//495 338//495
f 351//496 338//496 339//496
f 351//497 339//497 340//497
f 351//498 340//498 341//498
f 351//499 341//499 342//499
f 351//500 342//500 335//500
f 352//501 343//501 344//501
f 352//502 344//502 345//502
f 352//503 345//503 346//503
f 352//504 346//504 347//504
f 352//505 347//505 348//505
f 352//506 348//506 349//506
f 352//507 349//507 350//507
f 352//508 350//508 343//508
usemtl c9
f 353//509 354//509 360//509
f 353//510 360//510 359//510
f 354//511 355//511 361//511
f 354//512 361//512 360//512
f 355//513 356//513 362//513
f 355//514 362//514 361//514
f 356//515 357//515 363//515
f 356//516 363//516 362//516
f 357//517 358//517 364//517
f 357//518 364//518 363//518
f 358//519 353//519 359//519
f 358//520 359//520 364//520
f 365//521 353//521 354//521
f 365//522 354//522 355//522
f 365//523 355//523 356//523
f 365//524 356//524 357//524
f 365//525 357//525 358//525
f 365//526 358//526 353//526
f 366//527 359//527 360//527
f 366//528 360//528 361//528
f 366//529 361//529 362//529
f 366//530 362//530 363//530
f 366//531 363//531 364//531
f 366//532 364//532 359//532
usemtl c10
f 367//533 368//533 376//533
f 367//534 376//534 375//534
f 368//535 369//535 377//535
f 368//536 377//536 376//536
f 369//537 370//537 378//537
f 369//538 378//538 377//538
f 370//539 371//539 379//539
f 370//540 379//540 378//540
f 371//541 372//541 380//541
f 371//542 380//542 379//542
f 372//543 373//543 381//543
f 372//544 381//544 380//544
f 373//545 374//545 382//545
f 373//546 382//546 381//546
f 374//547 367//547 375//547
f 374//548 375//548 382//548
f 383//549 367//549 368//549
f 383//550 368//550 369//550
f 383//551 369//551 370//551
f 383//552 370//552 371//552
f 383//553 371//553 372//553
f 383//554 372//554 373//554
f 383//555 373//555 374//555
f 383//556 374//556 367//556
f 384//557 375//557 376//557
f 384//558 376//558 377//558
f 384//559 377//559 378//559
f 384//560 378//560 379//560
f 384//561 379//561 380//561
f 384//562 380//562 381//562
f 384//563 381//563 382//563
f 384//564 382//564 375//564
usemtl c11
f 385//565 386//565 390//565
f 385//566 390//566 389//566
f 393//567 386//567 385//567
f 394//568 389//568 390//568
f 386//569 387//569 391//569
f 386//570 391//570 390//570
f 393//571 387//571 386//571
f 394//572 390//572 391//572
f 387//573 388//573 392//573
f 387//574 392//574 391//574
f 393//575 388//575 387//575
f 394//576 391//576 392//576
f 388//577 385//577 389//577
f 388//578 389//578 392//578
f 393//579 385//579 388//579
f 394//580 392//580 389//580
usemtl c12
f 395//581 396//581 401//581
f 395//582 401//582 400//582
f 396//583 397//583 402//583
f 396//584 402//584 401//584
f 397//585 398//585 403//585
f 397//586 403//586 402//586
f 398//587 399//587 404//587
f 398//588 404//588 403//588
f 399//589 395//589 400//589
f 399//590 400//590 404//590
f 405//591 395//591 396//591
f 405//592 396//592 397//592
f 405//593 397//593 398//593
f 405//594 398//594 399//594
f 405//595 399//595 395//595
f 406//596 400//596 401//596
f 406//597 401//597 402//597
f 406//598 402//598 403//598
f 406//599 403//599 404//599
f 406//600 404//600 400//600
f 407//601 408//601 413//601
f 407//602 413//602 412//602
f 408//603 409//603 414//603
f 408//604 414//604 413//604
f 409//605 410//605 415//605
f 409//606 415//606 414//606
f 410//607 411//607 416//607
f 410//608 416//608 415//608
f 411//609 407//609 412//609
f 411//610 412//610 416//610
f 417//611 407//611 408//611
f 417//612 408//612 409//612
f 417//613 409//613 410//613
f 417//614 410//614 411//614
f 417//615 411//615 407//615
f 418//616 412//616 413//616
f 418//617 413//617 414//617
f 418//618 414//618 415//618
f 418//619 415//619 416//619
f 418//620 416//620 412//620
f 419//621 420//621 425//621
f 419//622 425//622 424//622
f 420//623 421//623 426//623
f 420//624 426//624 425//624
f 421//625 422//625 427//625
f 421//626 427//626 426//626
f 422//627 423//627 428//627
f 422//628 428//628 427//628
f 423//629 419//629 424//629
f 423//630 424//630 428//630
f 429//631 419//631 420//631
f 429//632 420//632 421//632
f 429//633 421//633 422//633
f 429//634 422//634 423//634
f 429//635 423//635 419//635
f 430//636 424//636 425//636
f 430//637 425//637 426//637
f 430//638 426//638 427//638
f 430//639 427//639 428//639
f 430//640 428//640 424//640
