mtllib Food_Cherry.mtl
v -0.5000 -0.9500 0.0000
v -0.5000 -0.9500 0.0000
v -0.5000 -0.9500 0.0000
v -0.5000 -0.9500 0.0000
v -0.5000 -0.9500 0.0000
v -0.5000 -0.9500 0.0000
v -0.5000 -0.9500 0.0000
v -0.1818 -0.8182 0.0000
v -0.3016 -0.8182 0.2488
v -0.5708 -0.8182 0.3102
v -0.7867 -0.8182 0.1381
v -0.7867 -0.8182 -0.1381
v -0.5708 -0.8182 -0.3102
v -0.3016 -0.8182 -0.2488
v -0.0500 -0.5000 0.0000
v -0.2194 -0.5000 0.3518
v -0.6001 -0.5000 0.4387
v -0.9054 -0.5000 0.1952
v -0.9054 -0.5000 -0.1952
v -0.6001 -0.5000 -0.4387
v -0.2194 -0.5000 -0.3518
v -0.1818 -0.1818 0.0000
v -0.3016 -0.1818 0.2488
v -0.5708 -0.1818 0.3102
v -0.7867 -0.1818 0.1381
v -0.7867 -0.1818 -0.1381
v -0.5708 -0.1818 -0.3102
v -0.3016 -0.1818 -0.2488
v -0.5000 -0.0500 0.0000
v -0.5000 -0.0500 0.0000
v -0.5000 -0.0500 0.0000
v -0.5000 -0.0500 0.0000
v -0.5000 -0.0500 -0.0000
v -0.5000 -0.0500 -0.0000
v -0.5000 -0.0500 -0.0000
v 0.5000 -1.0700 0.1000
v 0.5000 -1.0700 0.1000
v 0.5000 -1.0700 0.1000
v 0.5000 -1.0700 0.1000
v 0.5000 -1.0700 0.1000
v 0.5000 -1.0700 0.1000
v 0.5000 -1.0700 0.1000
v 0.8182 -0.9382 0.1000
v 0.6984 -0.9382 0.3488
v 0.4292 -0.9382 0.4102
v 0.2133 -0.9382 0.2381
v 0.2133 -0.9382 -0.0381
v 0.4292 -0.9382 -0.2102
v 0.6984 -0.9382 -0.1488
v 0.9500 -0.6200 0.1000
v 0.7806 -0.6200 0.4518
v 0.3999 -0.6200 0.5387
v 0.0946 -0.6200 0.2952
v 0.0946 -0.6200 -0.0952
v 0.3999 -0.6200 -0.3387
v 0.7806 -0.6200 -0.2518
v 0.8182 -0.3018 0.1000
v 0.6984 -0.3018 0.3488
v 0.4292 -0.3018 0.4102
v 0.2133 -0.3018 0.2381
v 0.2133 -0.3018 -0.0381
v 0.4292 -0.3018 -0.2102
v 0.6984 -0.3018 -0.1488
v 0.5000 -0.1700 0.1000
v 0.5000 -0.1700 0.1000
v 0.5000 -0.1700 0.1000
v 0.5000 -0.1700 0.1000
v 0.5000 -0.1700 0.1000
v 0.5000 -0.1700 0.1000
v 0.5000 -0.1700 0.1000
v -0.4636 -0.1166 0.0000
v -0.4887 -0.1051 0.0380
v -0.5295 -0.0866 0.0235
v -0.5295 -0.0866 -0.0235
v -0.4887 -0.1051 -0.0380
v 0.0364 0.9834 0.0000
v 0.0113 0.9949 0.0380
v -0.0295 1.0134 0.0235
v -0.0295 1.0134 -0.0235
v 0.0113 0.9949 -0.0380
v -0.5000 -0.1000 0.0000
v 0.0000 1.0000 0.0000
v 0.5369 -0.1847 0.0994
v 0.5108 -0.1923 0.1377
v 0.4698 -0.2106 0.1239
v 0.4705 -0.2142 0.0771
v 0.5120 -0.1982 0.0619
v 0.0369 1.0153 -0.0006
v 0.0108 1.0077 0.0377
v -0.0302 0.9894 0.0239
v -0.0295 0.9858 -0.0229
v 0.0120 1.0018 -0.0381
v 0.5000 -0.2000 0.1000
v 0.0000 1.0000 0.0000
v 0.3171 0.9030 0.0000
v 0.3171 0.9030 0.0000
v 0.3171 0.9030 0.0000
v 0.3171 0.9030 0.0000
v 0.3171 0.9030 0.0000
v 0.6341 1.0450 0.0000
v 0.4091 0.9631 0.1647
v 0.0452 0.8307 0.1018
v 0.0452 0.8307 -0.1018
v 0.4091 0.9631 -0.1647
v 0.6170 1.0920 0.0000
v 0.3920 1.0101 0.1647
v 0.0281 0.8776 0.1018
v 0.0281 0.8776 -0.1018
v 0.3920 1.0101 -0.1647
v 0.2829 0.9970 0.0000
v 0.2829 0.9970 0.0000
v 0.2829 0.9970 0.0000
v 0.2829 0.9970 -0.0000
v 0.2829 0.9970 -0.0000
vn -0.3763 0.9086 -0.1812
vn -0.0929 0.9086 -0.4072
vn 0.2604 0.9086 -0.3266
vn 0.4177 0.9086 0.0000
vn 0.2604 0.9086 0.3266
vn -0.0929 0.9086 0.4072
vn -0.3763 0.9086 0.1812
vn -0.8441 0.3496 -0.4065
vn -0.8441 0.3496 -0.4065
vn -0.2085 0.3496 -0.9134
vn -0.2085 0.3496 -0.9134
vn 0.5841 0.3496 -0.7325
vn 0.5841 0.3496 -0.7325
vn 0.9369 0.3496 0.0000
vn 0.9369 0.3496 -0.0000
vn 0.5841 0.3496 0.7325
vn 0.5841 0.3496 0.7325
vn -0.2085 0.3496 0.9134
vn -0.2085 0.3496 0.9134
vn -0.8441 0.3496 0.4065
vn -0.8441 0.3496 0.4065
vn -0.8441 -0.3496 -0.4065
vn -0.8441 -0.3496 -0.4065
vn -0.2085 -0.3496 -0.9134
vn -0.2085 -0.3496 -0.9134
vn 0.5841 -0.3496 -0.7325
vn 0.5841 -0.3496 -0.7325
vn 0.9369 -0.3496 -0.0000
vn 0.9369 -0.3496 0.0000
vn 0.5841 -0.3496 0.7325
vn 0.5841 -0.3496 0.7325
vn -0.2085 -0.3496 0.9134
vn -0.2085 -0.3496 0.9134
vn -0.8441 -0.3496 0.4065
vn -0.8441 -0.3496 0.4065
vn -0.3763 -0.9086 -0.1812
vn -0.0929 -0.9086 -0.4072
vn 0.2604 -0.9086 -0.3266
vn 0.4177 -0.9086 0.0000
vn 0.2604 -0.9086 0.3266
vn -0.0929 -0.9086 0.4072
vn -0.3763 -0.9086 0.1812
vn -0.3763 0.9086 -0.1812
vn -0.0929 0.9086 -0.4072
vn 0.2604 0.9086 -0.3266
vn 0.4177 0.9086 -0.0000
vn 0.2604 0.9086 0.3266
vn -0.0929 0.9086 0.4072
vn -0.3763 0.9086 0.1812
vn -0.8441 0.3496 -0.4065
vn -0.8441 0.3496 -0.4065
vn -0.2085 0.3496 -0.9134
vn -0.2085 0.3496 -0.9134
vn 0.5841 0.3496 -0.7325
vn 0.5841 0.3496 -0.7325
vn 0.9369 0.3496 -0.0000
vn 0.9369 0.3496 -0.0000
vn 0.5841 0.3496 0.7325
vn 0.5841 0.3496 0.7325
vn -0.2085 0.3496 0.9134
vn -0.2085 0.3496 0.9134
vn -0.8441 0.3496 0.4065
vn -0.8441 0.3496 0.4065
vn -0.8441 -0.3496 -0.4065
vn -0.8441 -0.3496 -0.4065
vn -0.2085 -0.3496 -0.9134
vn -0.2085 -0.3496 -0.9134
vn 0.5841 -0.3496 -0.7325
vn 0.5841 -0.3496 -0.7325
vn 0.9369 -0.3496 -0.0000
vn 0.9369 -0.3496 -0.0000
vn 0.5841 -0.3496 0.7325
vn 0.5841 -0.3496 0.7325
vn -0.2085 -0.3496 0.9134
vn -0.2085 -0.3496 0.9134
vn -0.8441 -0.3496 0.4065
vn -0.8441 -0.3496 0.4065
vn -0.3763 -0.9086 -0.1812
vn -0.0929 -0.9086 -0.4072
vn 0.2604 -0.9086 -0.3266
vn 0.4177 -0.9086 -0.0000
vn 0.2604 -0.9086 0.3266
vn -0.0929 -0.9086 0.4072
vn -0.3763 -0.9086 0.1812
vn -0.7365 0.3348 -0.5878
vn -0.7365 0.3348 -0.5878
vn 0.2813 -0.1279 -0.9511
vn 0.2813 -0.1279 -0.9511
vn 0.9104 -0.4138 0.0000
vn 0.9104 -0.4138 0.0000
vn 0.2813 -0.1279 0.9511
vn 0.2813 -0.1279 0.9511
vn -0.7365 0.3348 0.5878
vn -0.7365 0.3348 0.5878
vn -0.4138 -0.9104 0.0000
vn -0.4138 -0.9104 -0.0000
vn -0.4138 -0.9104 0.0000
vn -0.4138 -0.9104 0.0000
vn -0.4138 -0.9104 -0.0000
vn -0.4138 -0.9104 0.0000
vn -0.4138 -0.9104 0.0000
vn -0.4138 -0.9104 0.0000
vn -0.4138 -0.9104 -0.0000
vn -0.4138 -0.9104 -0.0000
vn -0.7381 -0.3553 -0.5736
vn -0.7381 -0.3553 -0.5736
vn 0.2999 0.0456 -0.9529
vn 0.2999 0.0456 -0.9529
vn 0.9234 0.3835 -0.0153
vn 0.9234 0.3835 -0.0153
vn 0.2708 0.1914 0.9434
vn 0.2708 0.1914 0.9434
vn -0.7561 -0.2652 0.5984
vn -0.7561 -0.2652 0.5984
vn 0.3835 -0.9204 0.0767
vn 0.3835 -0.9204 0.0767
vn 0.3835 -0.9204 0.0767
vn 0.3835 -0.9204 0.0767
vn 0.3835 -0.9204 0.0767
vn 0.3835 -0.9204 0.0767
vn 0.3835 -0.9204 0.0767
vn 0.3835 -0.9204 0.0767
vn 0.3835 -0.9204 0.0767
vn 0.3835 -0.9204 0.0767
vn -0.4066 0.9077 -0.1040
vn -0.3115 0.9354 -0.1672
vn -0.2572 0.9664 0.0000
vn -0.3115 0.9354 0.1672
vn -0.4066 0.9077 0.1040
vn -0.5327 -0.1939 -0.8238
vn -0.5327 -0.1939 -0.8238
vn 0.1507 0.0548 -0.9871
vn 0.1507 0.0548 -0.9871
vn 0.9397 0.3420 -0.0000
vn 0.9397 0.3420 -0.0000
vn 0.1507 0.0548 0.9871
vn 0.1507 0.0548 0.9871
vn -0.5327 -0.1939 0.8238
vn -0.5327 -0.1939 0.8238
vn 0.2720 -0.9567 -0.1040
vn 0.3626 -0.9168 -0.1672
vn 0.4242 -0.9056 -0.0000
vn 0.3626 -0.9168 0.1672
vn 0.2720 -0.9567 0.1040
usemtl c0
f 1//1 9//1 8//1
f 2//2 10//2 9//2
f 3//3 11//3 10//3
f 4//4 12//4 11//4
f 5//5 13//5 12//5
f 6//6 14//6 13//6
f 7//7 8//7 14//7
f 8//8 9//8 16//8
f 8//9 16//9 15//9
f 9//10 10//10 17//10
f 9//11 17//11 16//11
f 10//12 11//12 18//12
f 10//13 18//13 17//13
f 11//14 12//14 19//14
f 11//15 19//15 18//15
f 12//16 13//16 20//16
f 12//17 20//17 19//17
f 13//18 14//18 21//18
f 13//19 21//19 20//19
f 14//20 8//20 15//20
f 14//21 15//21 21//21
f 15//22 16//22 23//22
f 15//23 23//23 22//23
f 16//24 17//24 24//24
f 16//25 24//25 23//25
f 17//26 18//26 25//26
f 17//27 25//27 24//27
f 18//28 19//28 26//28
f 18//29 26//29 25//29
f 19//30 20//30 27//30
f 19//31 27//31 26//31
f 20//32 21//32 28//32
f 20//33 28//33 27//33
f 21//34 15//34 22//34
f 21//35 22//35 28//35
f 22//36 23//36 30//36
f 23//37 24//37 31//37
f 24//38 25//38 32//38
f 25//39 26//39 33//39
f 26//40 27//40 34//40
f 27//41 28//41 35//41
f 28//42 22//42 29//42
usemtl c1
f 36//43 44//43 43//43
f 37//44 45//44 44//44
f 38//45 46//45 45//45
f 39//46 47//46 46//46
f 40//47 48//47 47//47
f 41//48 49//48 48//48
f 42//49 43//49 49//49
f 43//50 44//50 51//50
f 43//51 51//51 50//51
f 44//52 45//52 52//52
f 44//53 52//53 51//53
f 45//54 46//54 53//54
f 45//55 53//55 52//55
f 46//56 47//56 54//56
f 46//57 54//57 53//57
f 47//58 48//58 55//58
f 47//59 55//59 54//59
f 48//60 49//60 56//60
f 48//61 56//61 55//61
f 49//62 43//62 50//62
f 49//63 50//63 56//63
f 50//64 51//64 58//64
f 50//65 58//65 57//65
f 51//66 52//66 59//66
f 51//67 59//67 58//67
f 52//68 53//68 60//68
f 52//69 60//69 59//69
f 53//70 54//70 61//70
f 53//71 61//71 60//71
f 54//72 55//72 62//72
f 54//73 62//73 61//73
f 55//74 56//74 63//74
f 55//75 63//75 62//75
f 56//76 50//76 57//76
f 56//77 57//77 63//77
f 57//78 58//78 65//78
f 58//79 59//79 66//79
f 59//80 60//80 67//80
f 60//81 61//81 68//81
f 61//82 62//82 69//82
f 62//83 63//83 70//83
f 63//84 57//84 64//84
usemtl c2
f 71//85 72//85 77//85
f 71//86 77//86 76//86
f 72//87 73//87 78//87
f 72//88 78//88 77//88
f 73//89 74//89 79//89
f 73//90 79//90 78//90
f 74//91 75//91 80//91
f 74//92 80//92 79//92
f 75//93 71//93 76//93
f 75//94 76//94 80//94
f 81//95 71//95 72//95
f 81//96 72//96 73//96
f 81//97 73//97 74//97
f 81//98 74//98 75//98
f 81//99 75//99 71//99
f 82//100 76//100 77//100
f 82//101 77//101 78//101
f 82//102 78//102 79//102
f 82//103 79//103 80//103
f 82//104 80//104 76//104
f 83//105 84//105 89//105
f 83//106 89//106 88//106
f 84//107 85//107 90//107
f 84//108 90//108 89//108
f 85//109 86//109 91//109
f 85//110 91//110 90//110
f 86//111 87//111 92//111
f 86//112 92//112 91//112
f 87//113 83//113 88//113
f 87//114 88//114 92//114
f 93//115 83//115 84//115
f 93//116 84//116 85//116
f 93//117 85//117 86//117
f 93//118 86//118 87//118
f 93//119 87//119 83//119
f 94//120 88//120 89//120
f 94//121 89//121 90//121
f 94//122 90//122 91//122
f 94//123 91//123 92//123
f 94//124 92//124 88//124
usemtl c3
f 95//125 101//125 100//125
f 96//126 102//126 101//126
f 97//127 103//127 102//127
f 98//128 104//128 103//128
f 99//129 100//129 104//129
f 100//130 101//130 106//130
f 100//131 106//131 105//131
f 101//132 102//132 107//132
f 101//133 107//133 106//133
f 102//134 103//134 108//134
f 102//135 108//135 107//135
f 103//136 104//136 109//136
f 103//137 109//137 108//137
f 104//138 100//138 105//138
f 104//139 105//139 109//139
f 105//140 106//140 111//140
f 106//141 107//141 112//141
f 107//142 108//142 113//142
f 108//143 109//143 114//143
f 109//144 105//144 110//144
