mtllib Food_Pancake.mtl
v 0.9800 0.0000 0.0000
v 0.8487 0.0000 0.4900
v 0.4900 0.0000 0.8487
v 0.0000 0.0000 0.9800
v -0.4900 0.0000 0.8487
v -0.8487 0.0000 0.4900
v -0.9800 0.0000 0.0000
v -0.8487 0.0000 -0.4900
v -0.4900 0.0000 -0.8487
v -0.0000 0.0000 -0.9800
v 0.4900 0.0000 -0.8487
v 0.8487 0.0000 -0.4900
v 0.9800 0.2000 0.0000
v 0.8487 0.2000 0.4900
v 0.4900 0.2000 0.8487
v 0.0000 0.2000 0.9800
v -0.4900 0.2000 0.8487
v -0.8487 0.2000 0.4900
v -0.9800 0.2000 0.0000
v -0.8487 0.2000 -0.4900
v -0.4900 0.2000 -0.8487
v -0.0000 0.2000 -0.9800
v 0.4900 0.2000 -0.8487
v 0.8487 0.2000 -0.4900
v 0.0000 0.0000 0.0000
v 0.0000 0.2000 0.0000
v 0.9300 0.2000 0.0000
v 0.8054 0.2000 0.4650
v 0.4650 0.2000 0.8054
v 0.0000 0.2000 0.9300
v -0.4650 0.2000 0.8054
v -0.8054 0.2000 0.4650
v -0.9300 0.2000 0.0000
v -0.8054 0.2000 -0.4650
v -0.4650 0.2000 -0.8054
v -0.0000 0.2000 -0.9300
v 0.4650 0.2000 -0.8054
v 0.8054 0.2000 -0.4650
v 0.9300 0.2200 0.0000
v 0.8054 0.2200 0.4650
v 0.4650 0.2200 0.8054
v 0.0000 0.2200 0.9300
v -0.4650 0.2200 0.8054
v -0.8054 0.2200 0.4650
v -0.9300 0.2200 0.0000
v -0.8054 0.2200 -0.4650
v -0.4650 0.2200 -0.8054
v -0.0000 0.2200 -0.9300
v 0.4650 0.2200 -0.8054
v 0.8054 0.2200 -0.4650
v 0.0000 0.2000 0.0000
v 0.0000 0.2200 0.0000
v 0.9466 0.2200 -0.2536
v 0.9466 0.2200 0.2536
v 0.6930 0.2200 0.6930
v 0.2536 0.2200 0.9466
v -0.2536 0.2200 0.9466
v -0.6930 0.2200 0.6930
v -0.9466 0.2200 0.2536
v -0.9466 0.2200 -0.2536
v -0.6930 0.2200 -0.6930
v -0.2536 0.2200 -0.9466
v 0.2536 0.2200 -0.9466
v 0.6930 0.2200 -0.6930
v 0.9466 0.4200 -0.2536
v 0.9466 0.4200 0.2536
v 0.6930 0.4200 0.6930
v 0.2536 0.4200 0.9466
v -0.2536 0.4200 0.9466
v -0.6930 0.4200 0.6930
v -0.9466 0.4200 0.2536
v -0.9466 0.4200 -0.2536
v -0.6930 0.4200 -0.6930
v -0.2536 0.4200 -0.9466
v 0.2536 0.4200 -0.9466
v 0.6930 0.4200 -0.6930
v 0.0000 0.2200 0.0000
v 0.0000 0.4200 0.0000
v 0.9300 0.4200 0.0000
v 0.8054 0.4200 0.4650
v 0.4650 0.4200 0.8054
v 0.0000 0.4200 0.9300
v -0.4650 0.4200 0.8054
v -0.8054 0.4200 0.4650
v -0.9300 0.4200 0.0000
v -0.8054 0.4200 -0.4650
v -0.4650 0.4200 -0.8054
v -0.0000 0.4200 -0.9300
v 0.4650 0.4200 -0.8054
v 0.8054 0.4200 -0.4650
v 0.9300 0.4400 0.0000
v 0.8054 0.4400 0.4650
v 0.4650 0.4400 0.8054
v 0.0000 0.4400 0.9300
v -0.4650 0.4400 0.8054
v -0.8054 0.4400 0.4650
v -0.9300 0.4400 0.0000
v -0.8054 0.4400 -0.4650
v -0.4650 0.4400 -0.8054
v -0.0000 0.4400 -0.9300
v 0.4650 0.4400 -0.8054
v 0.8054 0.4400 -0.4650
v 0.0000 0.4200 0.0000
v 0.0000 0.4400 0.0000
v 0.8487 0.4400 -0.4900
v 0.9800 0.4400 -0.0000
v 0.8487 0.4400 0.4900
v 0.4900 0.4400 0.8487
v 0.0000 0.4400 0.9800
v -0.4900 0.4400 0.8487
v -0.8487 0.4400 0.4900
v -0.9800 0.4400 0.0000
v -0.8487 0.4400 -0.4900
v -0.4900 0.4400 -0.8487
v 0.0000 0.4400 -0.9800
v 0.4900 0.4400 -0.8487
v 0.8487 0.6400 -0.4900
v 0.9800 0.6400 -0.0000
v 0.8487 0.6400 0.4900
v 0.4900 0.6400 0.8487
v 0.0000 0.6400 0.9800
v -0.4900 0.6400 0.8487
v -0.8487 0.6400 0.4900
v -0.9800 0.6400 0.0000
v -0.8487 0.6400 -0.4900
v -0.4900 0.6400 -0.8487
v 0.0000 0.6400 -0.9800
v 0.4900 0.6400 -0.8487
v 0.0000 0.4400 0.0000
v 0.0000 0.6400 0.0000
v 0.9300 0.6400 0.0000
v 0.8054 0.6400 0.4650
v 0.4650 0.6400 0.8054
v 0.0000 0.6400 0.9300
v -0.4650 0.6400 0.8054
v -0.8054 0.6400 0.4650
v -0.9300 0.6400 0.0000
v -0.8054 0.6400 -0.4650
v -0.4650 0.6400 -0.8054
v -0.0000 0.6400 -0.9300
v 0.4650 0.6400 -0.8054
v 0.8054 0.6400 -0.4650
v 0.9300 0.6600 0.0000
v 0.8054 0.6600 0.4650
v 0.4650 0.6600 0.8054
v 0.0000 0.6600 0.9300
v -0.4650 0.6600 0.8054
v -0.8054 0.6600 0.4650
v -0.9300 0.6600 0.0000
v -0.8054 0.6600 -0.4650
v -0.4650 0.6600 -0.8054
v -0.0000 0.6600 -0.9300
v 0.4650 0.6600 -0.8054
v 0.8054 0.6600 -0.4650
v 0.0000 0.6400 0.0000
v 0.0000 0.6600 0.0000
v -0.2307 0.6400 -0.1076
v 0.1076 0.6400 -0.2307
v 0.2307 0.6400 0.1076
v -0.1076 0.6400 0.2307
v -0.2307 0.8400 -0.1076
v 0.1076 0.8400 -0.2307
v 0.2307 0.8400 0.1076
v -0.1076 0.8400 0.2307
v 0.0000 0.6400 0.0000
v 0.0000 0.8400 0.0000
v 0.0000 0.5700 0.0000
v 0.0000 0.5700 0.0000
v 0.0000 0.5700 0.0000
v 0.0000 0.5700 0.0000
v 0.0000 0.5700 0.0000
v 0.0000 0.5700 0.0000
v 0.0000 0.5700 0.0000
v 0.0000 0.5700 0.0000
v 0.0000 0.5700 0.0000
v 0.6235 0.6150 0.0000
v 0.4777 0.6150 0.4008
v 0.1083 0.6150 0.6141
v -0.3118 0.6150 0.5400
v -0.5859 0.6150 0.2133
v -0.5859 0.6150 -0.2133
v -0.3118 0.6150 -0.5400
v 0.1083 0.6150 -0.6141
v 0.4777 0.6150 -0.4008
v 0.6235 0.7050 0.0000
v 0.4777 0.7050 0.4008
v 0.1083 0.7050 0.6141
v -0.3118 0.7050 0.5400
v -0.5859 0.7050 0.2133
v -0.5859 0.7050 -0.2133
v -0.3118 0.7050 -0.5400
v 0.1083 0.7050 -0.6141
v 0.4777 0.7050 -0.4008
v 0.0000 0.7500 0.0000
v 0.0000 0.7500 0.0000
v 0.0000 0.7500 0.0000
v -0.0000 0.7500 0.0000
v -0.0000 0.7500 0.0000
v -0.0000 0.7500 -0.0000
v -0.0000 0.7500 -0.0000
v 0.0000 0.7500 -0.0000
v 0.0000 0.7500 -0.0000
v 0.6310 0.6130 0.2078
v 0.6260 0.6154 0.2781
v 0.6909 0.6242 0.3044
v 0.7360 0.6272 0.2503
v 0.6990 0.6203 0.1906
v 0.6686 0.2930 0.2215
v 0.6636 0.2954 0.2918
v 0.7284 0.3042 0.3181
v 0.7736 0.3072 0.2640
v 0.7366 0.3003 0.2043
v 0.6766 0.6200 0.2463
v 0.7142 0.3000 0.2599
v -0.5617 0.6257 0.5217
v -0.4987 0.6172 0.4911
v -0.5087 0.6126 0.4214
v -0.5779 0.6182 0.4090
v -0.6107 0.6263 0.4709
v -0.5923 0.3057 0.5474
v -0.5293 0.2972 0.5168
v -0.5394 0.2926 0.4471
v -0.6086 0.2982 0.4347
v -0.6413 0.3063 0.4966
v -0.5516 0.6200 0.4628
v -0.5822 0.3000 0.4885
v -0.2002 0.6225 -0.7150
v -0.2686 0.6274 -0.7318
v -0.3061 0.6221 -0.6723
v -0.2609 0.6138 -0.6187
v -0.1955 0.6141 -0.6451
v -0.2139 0.3025 -0.7526
v -0.2823 0.3074 -0.7694
v -0.3197 0.3021 -0.7099
v -0.2746 0.2938 -0.6563
v -0.2092 0.2941 -0.6827
v -0.2463 0.6200 -0.6766
v -0.2599 0.3000 -0.7142
vn -0.9659 0.0000 -0.2588
vn -0.9659 0.0000 -0.2588
vn -0.7071 0.0000 -0.7071
vn -0.7071 0.0000 -0.7071
vn -0.2588 0.0000 -0.9659
vn -0.2588 0.0000 -0.9659
vn 0.2588 0.0000 -0.9659
vn 0.2588 0.0000 -0.9659
vn 0.7071 0.0000 -0.7071
vn 0.7071 0.0000 -0.7071
vn 0.9659 0.0000 -0.2588
vn 0.9659 0.0000 -0.2588
vn 0.9659 0.0000 0.2588
vn 0.9659 -0.0000 0.2588
vn 0.7071 0.0000 0.7071
vn 0.7071 -0.0000 0.7071
vn 0.2588 0.0000 0.9659
vn 0.2588 -0.0000 0.9659
vn -0.2588 0.0000 0.9659
vn -0.2588 0.0000 0.9659
vn -0.7071 0.0000 0.7071
vn -0.7071 0.0000 0.7071
vn -0.9659 0.0000 0.2588
vn -0.9659 0.0000 0.2588
vn 0.0000 -1.0000 0.0000
vn 0.0000 -1.0000 0.0000
vn 0.0000 -1.0000 0.0000
vn 0.0000 -1.0000 0.0000
vn 0.0000 -1.0000 0.0000
vn 0.0000 -1.0000 0.0000
vn -0.0000 -1.0000 0.0000
vn 0.0000 -1.0000 0.0000
vn 0.0000 -1.0000 0.0000
vn 0.0000 -1.0000 -0.0000
vn 0.0000 -1.0000 0.0000
vn 0.0000 -1.0000 0.0000
vn 0.0000 -1.0000 0.0000
vn 0.0000 -1.0000 0.0000
vn 0.0000 -1.0000 0.0000
vn 0.0000 -1.0000 0.0000
vn 0.0000 -1.0000 0.0000
vn 0.0000 -1.0000 0.0000
vn -0.0000 -1.0000 0.0000
vn 0.0000 -1.0000 0.0000
vn 0.0000 -1.0000 0.0000
vn 0.0000 -1.0000 -0.0000
vn 0.0000 -1.0000 0.0000
vn 0.0000 -1.0000 0.0000
vn -0.9659 0.0000 -0.2588
vn -0.9659 0.0000 -0.2588
vn -0.7071 0.0000 -0.7071
vn -0.7071 0.0000 -0.7071
vn -0.2588 0.0000 -0.9659
vn -0.2588 0.0000 -0.9659
vn 0.2588 0.0000 -0.9659
vn 0.2588 0.0000 -0.9659
vn 0.7071 0.0000 -0.7071
vn 0.7071 0.0000 -0.7071
vn 0.9659 0.0000 -0.2588
vn 0.9659 0.0000 -0.2588
vn 0.9659 0.0000 0.2588
vn 0.9659 -0.0000 0.2588
vn 0.7071 0.0000 0.7071
vn 0.7071 -0.0000 0.7071
vn 0.2588 0.0000 0.9659
vn 0.2588 -0.0000 0.9659
vn -0.2588 0.0000 0.9659
vn -0.2588 0.0000 0.9659
vn -0.7071 0.0000 0.7071
vn -0.7071 0.0000 0.7071
vn -0.9659 0.0000 0.2588
vn -0.9659 0.0000 0.2588
vn 0.0000 -1.0000 0.0000
vn 0.0000 -1.0000 0.0000
vn 0.0000 -1.0000 0.0000
vn 0.0000 -1.0000 0.0000
vn 0.0000 -1.0000 0.0000
vn 0.0000 -1.0000 0.0000
vn -0.0000 -1.0000 0.0000
vn 0.0000 -1.0000 0.0000
vn 0.0000 -1.0000 0.0000
vn 0.0000 -1.0000 -0.0000
vn 0.0000 -1.0000 0.0000
vn 0.0000 -1.0000 0.0000
vn 0.0000 -1.0000 0.0000
vn 0.0000 -1.0000 0.0000
vn 0.0000 -1.0000 0.0000
vn 0.0000 -1.0000 0.0000
vn 0.0000 -1.0000 0.0000
vn 0.0000 -1.0000 0.0000
vn -0.0000 -1.0000 0.0000
vn 0.0000 -1.0000 0.0000
vn 0.0000 -1.0000 0.0000
vn 0.0000 -1.0000 -0.0000
vn 0.0000 -1.0000 0.0000
vn 0.0000 -1.0000 0.0000
vn -1.0000 0.0000 0.0000
vn -1.0000 0.0000 0.0000
vn -0.8660 0.0000 -0.5000
vn -0.8660 0.0000 -0.5000
vn -0.5000 0.0000 -0.8660
vn -0.5000 0.0000 -0.8660
vn -0.0000 0.0000 -1.0000
vn -0.0000 0.0000 -1.0000
vn 0.5000 0.0000 -0.8660
vn 0.5000 0.0000 -0.8660
vn 0.8660 0.0000 -0.5000
vn 0.8660 0.0000 -0.5000
vn 1.0000 0.0000 -0.0000
vn 1.0000 0.0000 -0.0000
vn 0.8660 0.0000 0.5000
vn 0.8660 -0.0000 0.5000
vn 0.5000 0.0000 0.8660
vn 0.5000 -0.0000 0.8660
vn 0.0000 0.0000 1.0000
vn 0.0000 0.0000 1.0000
vn -0.5000 0.0000 0.8660
vn -0.5000 0.0000 0.8660
vn -0.8660 0.0000 0.5000
vn -0.8660 0.0000 0.5000
vn 0.0000 -1.0000 0.0000
vn 0.0000 -1.0000 0.0000
vn 0.0000 -1.0000 0.0000
vn 0.0000 -1.0000 0.0000
vn 0.0000 -1.0000 0.0000
vn 0.0000 -1.0000 0.0000
vn -0.0000 -1.0000 0.0000
vn 0.0000 -1.0000 0.0000
vn 0.0000 -1.0000 0.0000
vn 0.0000 -1.0000 -0.0000
vn 0.0000 -1.0000 0.0000
vn 0.0000 -1.0000 0.0000
vn 0.0000 -1.0000 0.0000
vn 0.0000 -1.0000 0.0000
vn 0.0000 -1.0000 0.0000
vn 0.0000 -1.0000 0.0000
vn 0.0000 -1.0000 0.0000
vn 0.0000 -1.0000 0.0000
vn -0.0000 -1.0000 0.0000
vn 0.0000 -1.0000 0.0000
vn 0.0000 -1.0000 0.0000
vn 0.0000 -1.0000 -0.0000
vn 0.0000 -1.0000 0.0000
vn 0.0000 -1.0000 0.0000
vn -0.9659 0.0000 -0.2588
vn -0.9659 0.0000 -0.2588
vn -0.7071 0.0000 -0.7071
vn -0.7071 0.0000 -0.7071
vn -0.2588 0.0000 -0.9659
vn -0.2588 0.0000 -0.9659
vn 0.2588 0.0000 -0.9659
vn 0.2588 0.0000 -0.9659
vn 0.7071 0.0000 -0.7071
vn 0.7071 0.0000 -0.7071
vn 0.9659 0.0000 -0.2588
vn 0.9659 0.0000 -0.2588
vn 0.9659 0.0000 0.2588
vn 0.9659 -0.0000 0.2588
vn 0.7071 0.0000 0.7071
vn 0.7071 -0.0000 0.7071
vn 0.2588 0.0000 0.9659
vn 0.2588 -0.0000 0.9659
vn -0.2588 0.0000 0.9659
vn -0.2588 0.0000 0.9659
vn -0.7071 0.0000 0.7071
vn -0.7071 0.0000 0.7071
vn -0.9659 0.0000 0.2588
vn -0.9659 0.0000 0.2588
vn 0.0000 -1.0000 0.0000
vn 0.0000 -1.0000 0.0000
vn 0.0000 -1.0000 0.0000
vn 0.0000 -1.0000 0.0000
vn 0.0000 -1.0000 0.0000
vn 0.0000 -1.0000 0.0000
vn -0.0000 -1.0000 0.0000
vn 0.0000 -1.0000 0.0000
vn 0.0000 -1.0000 0.0000
vn 0.0000 -1.0000 -0.0000
vn 0.0000 -1.0000 0.0000
vn 0.0000 -1.0000 0.0000
vn 0.0000 -1.0000 0.0000
vn 0.0000 -1.0000 0.0000
vn 0.0000 -1.0000 0.0000
vn 0.0000 -1.0000 0.0000
vn 0.0000 -1.0000 0.0000
vn 0.0000 -1.0000 0.0000
vn -0.0000 -1.0000 0.0000
vn 0.0000 -1.0000 0.0000
vn 0.0000 -1.0000 0.0000
vn 0.0000 -1.0000 -0.0000
vn 0.0000 -1.0000 0.0000
vn 0.0000 -1.0000 0.0000
vn -0.9659 0.0000 0.2588
vn -0.9659 0.0000 0.2588
vn -0.9659 0.0000 -0.2588
vn -0.9659 0.0000 -0.2588
vn -0.7071 0.0000 -0.7071
vn -0.7071 0.0000 -0.7071
vn -0.2588 0.0000 -0.9659
vn -0.2588 0.0000 -0.9659
vn 0.2588 0.0000 -0.9659
vn 0.2588 0.0000 -0.9659
vn 0.7071 0.0000 -0.7071
vn 0.7071 0.0000 -0.7071
vn 0.9659 0.0000 -0.2588
vn 0.9659 0.0000 -0.2588
vn 0.9659 0.0000 0.2588
vn 0.9659 -0.0000 0.2588
vn 0.7071 0.0000 0.7071
vn 0.7071 -0.0000 0.7071
vn 0.2588 0.0000 0.9659
vn 0.2588 -0.0000 0.9659
vn -0.2588 0.0000 0.9659
vn -0.2588 0.0000 0.9659
vn -0.7071 0.0000 0.7071
vn -0.7071 0.0000 0.7071
vn 0.0000 -1.0000 0.0000
vn 0.0000 -1.0000 0.0000
vn 0.0000 -1.0000 0.0000
vn 0.0000 -1.0000 0.0000
vn 0.0000 -1.0000 0.0000
vn 0.0000 -1.0000 0.0000
vn 0.0000 -1.0000 0.0000
vn -0.0000 -1.0000 0.0000
vn 0.0000 -1.0000 0.0000
vn 0.0000 -1.0000 -0.0000
vn 0.0000 -1.0000 0.0000
vn 0.0000 -1.0000 0.0000
vn 0.0000 -1.0000 0.0000
vn 0.0000 -1.0000 0.0000
vn 0.0000 -1.0000 0.0000
vn 0.0000 -1.0000 0.0000
vn 0.0000 -1.0000 0.0000
vn 0.0000 -1.0000 0.0000
vn 0.0000 -1.0000 0.0000
vn -0.0000 -1.0000 0.0000
vn 0.0000 -1.0000 0.0000
vn 0.0000 -1.0000 -0.0000
vn 0.0000 -1.0000 0.0000
vn 0.0000 -1.0000 0.0000
vn -0.9659 0.0000 -0.2588
vn -0.9659 0.0000 -0.2588
vn -0.7071 0.0000 -0.7071
vn -0.7071 0.0000 -0.7071
vn -0.2588 0.0000 -0.9659
vn -0.2588 0.0000 -0.9659
vn 0.2588 0.0000 -0.9659
vn 0.2588 0.0000 -0.9659
vn 0.7071 0.0000 -0.7071
vn 0.7071 0.0000 -0.7071
vn 0.9659 0.0000 -0.2588
vn 0.9659 0.0000 -0.2588
vn 0.9659 0.0000 0.2588
vn 0.9659 -0.0000 0.2588
vn 0.7071 0.0000 0.7071
vn 0.7071 -0.0000 0.7071
vn 0.2588 0.0000 0.9659
vn 0.2588 -0.0000 0.9659
vn -0.2588 0.0000 0.9659
vn -0.2588 0.0000 0.9659
vn -0.7071 0.0000 0.7071
vn -0.7071 0.0000 0.7071
vn -0.9659 0.0000 0.2588
vn -0.9659 0.0000 0.2588
vn 0.0000 -1.0000 0.0000
vn 0.0000 -1.0000 0.0000
vn 0.0000 -1.0000 0.0000
vn 0.0000 -1.0000 0.0000
vn 0.0000 -1.0000 0.0000
vn 0.0000 -1.0000 0.0000
vn -0.0000 -1.0000 0.0000
vn 0.0000 -1.0000 0.0000
vn 0.0000 -1.0000 0.0000
vn 0.0000 -1.0000 -0.0000
vn 0.0000 -1.0000 0.0000
vn 0.0000 -1.0000 0.0000
vn 0.0000 -1.0000 0.0000
vn 0.0000 -1.0000 0.0000
vn 0.0000 -1.0000 0.0000
vn 0.0000 -1.0000 0.0000
vn 0.0000 -1.0000 0.0000
vn 0.0000 -1.0000 0.0000
vn -0.0000 -1.0000 0.0000
vn 0.0000 -1.0000 0.0000
vn 0.0000 -1.0000 0.0000
vn 0.0000 -1.0000 -0.0000
vn 0.0000 -1.0000 0.0000
vn 0.0000 -1.0000 0.0000
vn 0.3420 0.0000 0.9397
vn 0.3420 -0.0000 0.9397
vn 0.0000 1.0000 0.0000
vn 0.0000 -1.0000 -0.0000
vn -0.9397 0.0000 0.3420
vn -0.9397 0.0000 0.3420
vn -0.0000 1.0000 0.0000
vn 0.0000 -1.0000 0.0000
vn -0.3420 0.0000 -0.9397
vn -0.3420 0.0000 -0.9397
vn 0.0000 1.0000 -0.0000
vn 0.0000 -1.0000 0.0000
vn 0.9397 0.0000 -0.3420
vn 0.9397 0.0000 -0.3420
vn 0.0000 1.0000 0.0000
vn -0.0000 -1.0000 0.0000
vn -0.0720 0.9971 -0.0262
vn -0.0383 0.9971 -0.0663
vn 0.0133 0.9971 -0.0754
vn 0.0587 0.9971 -0.0492
vn 0.0766 0.9971 -0.0000
vn 0.0587 0.9971 0.0492
vn 0.0133 0.9971 0.0754
vn -0.0383 0.9971 0.0663
vn -0.0720 0.9971 0.0262
vn -0.9397 0.0000 -0.3420
vn -0.9397 0.0000 -0.3420
vn -0.5000 0.0000 -0.8660
vn -0.5000 0.0000 -0.8660
vn 0.1736 0.0000 -0.9848
vn 0.1736 0.0000 -0.9848
vn 0.7660 0.0000 -0.6428
vn 0.7660 0.0000 -0.6428
vn 1.0000 -0.0000 -0.0000
vn 1.0000 0.0000 0.0000
vn 0.7660 0.0000 0.6428
vn 0.7660 0.0000 0.6428
vn 0.1736 0.0000 0.9848
vn 0.1736 0.0000 0.9848
vn -0.5000 0.0000 0.8660
vn -0.5000 0.0000 0.8660
vn -0.9397 0.0000 0.3420
vn -0.9397 0.0000 0.3420
vn -0.0720 -0.9971 -0.0262
vn -0.0383 -0.9971 -0.0663
vn 0.0133 -0.9971 -0.0754
vn 0.0587 -0.9971 -0.0492
vn 0.0766 -0.9971 0.0000
vn 0.0587 -0.9971 0.0492
vn 0.0133 -0.9971 0.0754
vn -0.0383 -0.9971 0.0663
vn -0.0720 -0.9971 0.0262
vn 0.9906 0.1192 0.0672
vn 0.9906 0.1192 0.0672
vn 0.3744 0.0043 -0.9273
vn 0.3744 0.0043 -0.9273
vn -0.7592 -0.1166 -0.6403
vn -0.7592 -0.1166 -0.6403
vn -0.8436 -0.0764 0.5315
vn -0.8436 -0.0764 0.5315
vn 0.2379 0.0694 0.9688
vn 0.2379 0.0694 0.9688
vn -0.1166 0.9923 -0.0424
vn -0.1166 0.9923 -0.0424
vn -0.1166 0.9923 -0.0424
vn -0.1166 0.9923 -0.0424
vn -0.1166 0.9923 -0.0424
vn -0.1166 0.9923 -0.0424
vn -0.1166 0.9923 -0.0424
vn -0.1166 0.9923 -0.0424
vn -0.1166 0.9923 -0.0424
vn -0.1166 0.9923 -0.0424
vn -0.4398 -0.0300 -0.8976
vn -0.4398 -0.0300 -0.8976
vn -0.9853 0.1052 0.1350
vn -0.9853 0.1052 0.1350
vn -0.1691 0.0950 0.9810
vn -0.1691 0.0950 0.9810
vn 0.8807 -0.0465 0.4713
vn 0.8807 -0.0465 0.4713
vn 0.7134 -0.1237 -0.6897
vn 0.7134 -0.1237 -0.6897
vn 0.0950 0.9923 -0.0797
vn 0.0950 0.9923 -0.0797
vn 0.0950 0.9923 -0.0797
vn 0.0950 0.9923 -0.0797
vn 0.0950 0.9923 -0.0797
vn 0.0950 0.9923 -0.0797
vn 0.0950 0.9923 -0.0797
vn 0.0950 0.9923 -0.0797
vn 0.0950 0.9923 -0.0797
vn 0.0950 0.9923 -0.0797
vn -0.2441 -0.1028 0.9643
vn -0.2441 -0.1028 0.9643
vn 0.8460 -0.0977 0.5242
vn 0.8460 -0.0977 0.5242
vn 0.7669 0.0424 -0.6403
vn 0.7669 0.0424 -0.6403
vn -0.3720 0.1240 -0.9199
vn -0.3720 0.1240 -0.9199
vn -0.9968 0.0342 0.0718
vn -0.9968 0.0342 0.0718
vn 0.0424 0.9923 0.1166
vn 0.0424 0.9923 0.1166
vn 0.0424 0.9923 0.1166
vn 0.0424 0.9923 0.1166
vn 0.0424 0.9923 0.1166
vn 0.0424 0.9923 0.1166
vn 0.0424 0.9923 0.1166
vn 0.0424 0.9923 0.1166
vn 0.0424 0.9923 0.1166
vn 0.0424 0.9923 0.1166
usemtl c0
f 1//1 2//1 14//1
f 1//2 14//2 13//2
f 2//3 3//3 15//3
f 2//4 15//4 14//4
f 3//5 4//5 16//5
f 3//6 16//6 15//6
f 4//7 5//7 17//7
f 4//8 17//8 16//8
f 5//9 6//9 18//9
f 5//10 18//10 17//10
f 6//11 7//11 19//11
f 6//12 19//12 18//12
f 7//13 8//13 20//13
f 7//14 20//14 19//14
f 8//15 9//15 21//15
f 8//16 21//16 20//16
f 9//17 10//17 22//17
f 9//18 22//18 21//18
f 10//19 11//19 23//19
f 10//20 23//20 22//20
f 11//21 12//21 24//21
f 11//22 24//22 23//22
f 12//23 1//23 13//23
f 12//24 13//24 24//24
f 25//25 1//25 2//25
f 25//26 2//26 3//26
f 25//27 3//27 4//27
f 25//28 4//28 5//28
f 25//29 5//29 6//29
f 25//30 6//30 7//30
f 25//31 7//31 8//31
f 25//32 8//32 9//32
f 25//33 9//33 10//33
f 25//34 10//34 11//34
f 25//35 11//35 12//35
f 25//36 12//36 1//36
f 26//37 13//37 14//37
f 26//38 14//38 15//38
f 26//39 15//39 16//39
f 26//40 16//40 17//40
f 26//41 17//41 18//41
f 26//42 18//42 19//42
f 26//43 19//43 20//43
f 26//44 20//44 21//44
f 26//45 21//45 22//45
f 26//46 22//46 23//46
f 26//47 23//47 24//47
f 26//48 24//48 13//48
usemtl c1
f 27//49 28//49 40//49
f 27//50 40//50 39//50
f 28//51 29//51 41//51
f 28//52 41//52 40//52
f 29//53 30//53 42//53
f 29//54 42//54 41//54
f 30//55 31//55 43//55
f 30//56 43//56 42//56
f 31//57 32//57 44//57
f 31//58 44//58 43//58
f 32//59 33//59 45//59
f 32//60 45//60 44//60
f 33//61 34//61 46//61
f 33//62 46//62 45//62
f 34//63 35//63 47//63
f 34//64 47//64 46//64
f 35//65 36//65 48//65
f 35//66 48//66 47//66
f 36//67 37//67 49//67
f 36//68 49//68 48//68
f 37//69 38//69 50//69
f 37//70 50//70 49//70
f 38//71 27//71 39//71
f 38//72 39//72 50//72
f 51//73 27//73 28//73
f 51//74 28//74 29//74
f 51//75 29//75 30//75
f 51//76 30//76 31//76
f 51//77 31//77 32//77
f 51//78 32//78 33//78
f 51//79 33//79 34//79
f 51//80 34//80 35//80
f 51//81 35//81 36//81
f 51//82 36//82 37//82
f 51//83 37//83 38//83
f 51//84 38//84 27//84
f 52//85 39//85 40//85
f 52//86 40//86 41//86
f 52//87 41//87 42//87
f 52//88 42//88 43//88
f 52//89 43//89 44//89
f 52//90 44//90 45//90
f 52//91 45//91 46//91
f 52//92 46//92 47//92
f 52//93 47//93 48//93
f 52//94 48//94 49//94
f 52//95 49//95 50//95
f 52//96 50//96 39//96
usemtl c0
f 53//97 54//97 66//97
f 53//98 66//98 65//98
f 54//99 55//99 67//99
f 54//100 67//100 66//100
f 55//101 56//101 68//101
f 55//102 68//102 67//102
f 56//103 57//103 69//103
f 56//104 69//104 68//104
f 57//105 58//105 70//105
f 57//106 70//106 69//106
f 58//107 59//107 71//107
f 58//108 71//108 70//108
f 59//109 60//109 72//109
f 59//110 72//110 71//110
f 60//111 61//111 73//111
f 60//112 73//112 72//112
f 61//113 62//113 74//113
f 61//114 74//114 73//114
f 62//115 63//115 75//115
f 62//116 75//116 74//116
f 63//117 64//117 76//117
f 63//118 76//118 75//118
f 64//119 53//119 65//119
f 64//120 65//120 76//120
f 77//121 53//121 54//121
f 77//122 54//122 55//122
f 77//123 55//123 56//123
f 77//124 56//124 57//124
f 77//125 57//125 58//125
f 77//126 58//126 59//126
f 77//127 59//127 60//127
f 77//128 60//128 61//128
f 77//129 61//129 62//129
f 77//130 62//130 63//130
f 77//131 63//131 64//131
f 77//132 64//132 53//132
f 78//133 65//133 66//133
f 78//134 66//134 67//134
f 78//135 67//135 68//135
f 78//136 68//136 69//136
f 78//137 69//137 70//137
f 78//138 70//138 71//138
f 78//139 71//139 72//139
f 78//140 72//140 73//140
f 78//141 73//141 74//141
f 78//142 74//142 75//142
f 78//143 75//143 76//143
f 78//144 76//144 65//144
usemtl c1
f 79//145 80//145 92//145
f 79//146 92//146 91//146
f 80//147 81//147 93//147
f 80//148 93//148 92//148
f 81//149 82//149 94//149
f 81//150 94//150 93//150
f 82//151 83//151 95//151
f 82//152 95//152 94//152
f 83//153 84//153 96//153
f 83//154 96//154 95//154
f 84//155 85//155 97//155
f 84//156 97//156 96//156
f 85//157 86//157 98//157
f 85//158 98//158 97//158
f 86//159 87//159 99//159
f 86//160 99//160 98//160
f 87//161 88//161 100//161
f 87//162 100//162 99//162
f 88//163 89//163 101//163
f 88//164 101//164 100//164
f 89//165 90//165 102//165
f 89//166 102//166 101//166
f 90//167 79//167 91//167
f 90//168 91//168 102//168
f 103//169 79//169 80//169
f 103//170 80//170 81//170
f 103//171 81//171 82//171
f 103//172 82//172 83//172
f 103//173 83//173 84//173
f 103//174 84//174 85//174
f 103//175 85//175 86//175
f 103//176 86//176 87//176
f 103//177 87//177 88//177
f 103//178 88//178 89//178
f 103//179 89//179 90//179
f 103//180 90//180 79//180
f 104//181 91//181 92//181
f 104//182 92//182 93//182
f 104//183 93//183 94//183
f 104//184 94//184 95//184
f 104//185 95//185 96//185
f 104//186 96//186 97//186
f 104//187 97//187 98//187
f 104//188 98//188 99//188
f 104//189 99//189 100//189
f 104//190 100//190 101//190
f 104//191 101//191 102//191
f 104//192 102//192 91//192
usemtl c0
f 105//193 106//193 118//193
f 105//194 118//194 117//194
f 106//195 107//195 119//195
f 106//196 119//196 118//196
f 107//197 108//197 120//197
f 107//198 120//198 119//198
f 108//199 109//199 121//199
f 108//200 121//200 120//200
f 109//201 110//201 122//201
f 109//202 122//202 121//202
f 110//203 111//203 123//203
f 110//204 123//204 122//204
f 111//205 112//205 124//205
f 111//206 124//206 123//206
f 112//207 113//207 125//207
f 112//208 125//208 124//208
f 113//209 114//209 126//209
f 113//210 126//210 125//210
f 114//211 115//211 127//211
f 114//212 127//212 126//212
f 115//213 116//213 128//213
f 115//214 128//214 127//214
f 116//215 105//215 117//215
f 116//216 117//216 128//216
f 129//217 105//217 106//217
f 129//218 106//218 107//218
f 129//219 107//219 108//219
f 129//220 108//220 109//220
f 129//221 109//221 110//221
f 129//222 110//222 111//222
f 129//223 111//223 112//223
f 129//224 112//224 113//224
f 129//225 113//225 114//225
f 129//226 114//226 115//226
f 129//227 115//227 116//227
f 129//228 116//228 105//228
f 130//229 117//229 118//229
f 130//230 118//230 119//230
f 130//231 119//231 120//231
f 130//232 120//232 121//232
f 130//233 121//233 122//233
f 130//234 122//234 123//234
f 130//235 123//235 124//235
f 130//236 124//236 125//236
f 130//237 125//237 126//237
f 130//238 126//238 127//238
f 130//239 127//239 128//239
f 130//240 128//240 117//240
usemtl c1
f 131//241 132//241 144//241
f 131//242 144//242 143//242
f 132//243 133//243 145//243
f 132//244 145//244 144//244
f 133//245 134//245 146//245
f 133//246 146//246 145//246
f 134//247 135//247 147//247
f 134//248 147//248 146//248
f 135//249 136//249 148//249
f 135//250 148//250 147//250
f 136//251 137//251 149//251
f 136//252 149//252 148//252
f 137//253 138//253 150//253
f 137//254 150//254 149//254
f 138//255 139//255 151//255
f 138//256 151//256 150//256
f 139//257 140//257 152//257
f 139//258 152//258 151//258
f 140//259 141//259 153//259
f 140//260 153//260 152//260
f 141//261 142//261 154//261
f 141//262 154//262 153//262
f 142//263 131//263 143//263
f 142//264 143//264 154//264
f 155//265 131//265 132//265
f 155//266 132//266 133//266
f 155//267 133//267 134//267
f 155//268 134//268 135//268
f 155//269 135//269 136//269
f 155//270 136//270 137//270
f 155//271 137//271 138//271
f 155//272 138//272 139//272
f 155//273 139//273 140//273
f 155//274 140//274 141//274
f 155//275 141//275 142//275
f 155//276 142//276 131//276
f 156//277 143//277 144//277
f 156//278 144//278 145//278
f 156//279 145//279 146//279
f 156//280 146//280 147//280
f 156//281 147//281 148//281
f 156//282 148//282 149//282
f 156//283 149//283 150//283
f 156//284 150//284 151//284
f 156//285 151//285 152//285
f 156//286 152//286 153//286
f 156//287 153//287 154//287
f 156//288 154//288 143//288
usemtl c2
f 157//289 158//289 162//289
f 157//290 162//290 161//290
f 165//291 158//291 157//291
f 166//292 161//292 162//292
f 158//293 159//293 163//293
f 158//294 163//294 162//294
f 165//295 159//295 158//295
f 166//296 162//296 163//296
f 159//297 160//297 164//297
f 159//298 164//298 163//298
f 165//299 160//299 159//299
f 166//300 163//300 164//300
f 160//301 157//301 161//301
f 160//302 161//302 164//302
f 165//303 157//303 160//303
f 166//304 164//304 161//304
usemtl c3
f 167//305 177//305 176//305
f 168//306 178//306 177//306
f 169//307 179//307 178//307
f 170//308 180//308 179//308
f 171//309 181//309 180//309
f 172//310 182//310 181//310
f 173//311 183//311 182//311
f 174//312 184//312 183//312
f 175//313 176//313 184//313
f 176//314 177//314 186//314
f 176//315 186//315 185//315
f 177//316 178//316 187//316
f 177//317 187//317 186//317
f 178//318 179//318 188//318
f 178//319 188//319 187//319
f 179//320 180//320 189//320
f 179//321 189//321 188//321
f 180//322 181//322 190//322
f 180//323 190//323 189//323
f 181//324 182//324 191//324
f 181//325 191//325 190//325
f 182//326 183//326 192//326
f 182//327 192//327 191//327
f 183//328 184//328 193//328
f 183//329 193//329 192//329
f 184//330 176//330 185//330
f 184//331 185//331 193//331
f 185//332 186//332 195//332
f 186//333 187//333 196//333
f 187//334 188//334 197//334
f 188//335 189//335 198//335
f 189//336 190//336 199//336
f 190//337 191//337 200//337
f 191//338 192//338 201//338
f 192//339 193//339 202//339
f 193//340 185//340 194//340
f 203//341 204//341 209//341
f 203//342 209//342 208//342
f 204//343 205//343 210//343
f 204//344 210//344 209//344
f 205//345 206//345 211//345
f 205//346 211//346 210//346
f 206//347 207//347 212//347
f 206//348 212//348 211//348
f 207//349 203//349 208//349
f 207//350 208//350 212//350
f 213//351 203//351 204//351
f 213//352 204//352 205//352
f 213//353 205//353 206//353
f 213//354 206//354 207//354
f 213//355 207//355 203//355
f 214//356 208//356 209//356
f 214//357 209//357 210//357
f 214//358 210//358 211//358
f 214//359 211//359 212//359
f 214//360 212//360 208//360
f 215//361 216//361 221//361
f 215//362 221//362 220//362
f 216//363 217//363 222//363
f 216//364 222//364 221//364
f 217//365 218//365 223//365
f 217//366 223//366 222//366
f 218//367 219//367 224//367
f 218//368 224//368 223//368
f 219//369 215//369 220//369
f 219//370 220//370 224//370
f 225//371 215//371 216//371
f 225//372 216//372 217//372
f 225//373 217//373 218//373
f 225//374 218//374 219//374
f 225//375 219//375 215//375
f 226//376 220//376 221//376
f 226//377 221//377 222//377
f 226//378 222//378 223//378
f 226//379 223//379 224//379
f 226//380 224//380 220//380
f 227//381 228//381 233//381
f 227//382 233//382 232//382
f 228//383 229//383 234//383
f 228//384 234//384 233//384
f 229//385 230//385 235//385
f 229//386 235//386 234//386
f 230//387 231//387 236//387
f 230//388 236//388 235//388
f 231//389 227//389 232//389
f 231//390 232//390 236//390
f 237//391 227//391 228//391
f 237//392 228//392 229//392
f 237//393 229//393 230//393
f 237//394 230//394 231//394
f 237//395 231//395 227//395
f 238//396 232//396 233//396
f 238//397 233//397 234//397
f 238//398 234//398 235//398
f 238//399 235//399 236//399
f 238//400 236//400 232//400
