mtllib Food_Bungeoppang.mtl
v -1.1848 -0.1736 0.0000
v -1.1848 -0.1736 0.0000
v -1.1848 -0.1736 0.0000
v -1.1848 -0.1736 0.0000
v -1.1848 -0.1736 0.0000
v -1.1848 -0.1736 0.0000
v -1.1848 -0.1736 0.0000
v -1.1848 -0.1736 0.0000
v -1.0021 0.2298 0.0000
v -0.9835 0.1243 0.1584
v -0.9386 -0.1302 0.2241
v -0.8937 -0.3848 0.1584
v -0.8751 -0.4902 0.0000
v -0.8937 -0.3848 -0.1584
v -0.9386 -0.1302 -0.2241
v -0.9835 0.1243 -0.1584
v -0.7814 0.4178 0.0000
v -0.7553 0.2700 0.2221
v -0.6924 -0.0868 0.3141
v -0.6295 -0.4436 0.2221
v -0.6034 -0.5914 0.0000
v -0.6295 -0.4436 -0.2221
v -0.6924 -0.0868 -0.3141
v -0.7553 0.2700 -0.2221
v -0.5493 0.5412 0.0000
v -0.5191 0.3699 0.2573
v -0.4462 -0.0434 0.3638
v -0.3733 -0.4568 0.2573
v -0.3431 -0.6280 0.0000
v -0.3733 -0.4568 -0.2573
v -0.4462 -0.0434 -0.3638
v -0.5191 0.3699 -0.2573
v -0.3077 0.6106 0.0000
v -0.2761 0.4317 0.2687
v -0.2000 0.0000 0.3800
v -0.1239 -0.4317 0.2687
v -0.0923 -0.6106 0.0000
v -0.1239 -0.4317 -0.2687
v -0.2000 -0.0000 -0.3800
v -0.2761 0.4317 -0.2687
v -0.0569 0.6280 0.0000
v -0.0267 0.4568 0.2573
v 0.0462 0.0434 0.3638
v 0.1191 -0.3699 0.2573
v 0.1493 -0.5412 0.0000
v 0.1191 -0.3699 -0.2573
v 0.0462 0.0434 -0.3638
v -0.0267 0.4568 -0.2573
v 0.2034 0.5914 0.0000
v 0.2295 0.4436 0.2221
v 0.2924 0.0868 0.3141
v 0.3553 -0.2700 0.2221
v 0.3814 -0.4178 0.0000
v 0.3553 -0.2700 -0.2221
v 0.2924 0.0868 -0.3141
v 0.2295 0.4436 -0.2221
v 0.4751 0.4902 0.0000
v 0.4937 0.3848 0.1584
v 0.5386 0.1302 0.2241
v 0.5835 -0.1243 0.1584
v 0.6021 -0.2298 0.0000
v 0.5835 -0.1243 -0.1584
v 0.5386 0.1302 -0.2241
v 0.4937 0.3848 -0.1584
v 0.7848 0.1736 0.0000
v 0.7848 0.1736 0.0000
v 0.7848 0.1736 0.0000
v 0.7848 0.1736 0.0000
v 0.7848 0.1736 0.0000
v 0.7848 0.1736 -0.0000
v 0.7848 0.1736 -0.0000
v 0.7848 0.1736 -0.0000
v 0.5878 0.1389 -0.0700
v 1.2223 0.8600 -0.0700
v 1.4306 -0.3217 -0.0700
v 0.5878 0.1389 0.0700
v 1.2223 0.8600 0.0700
v 1.4306 -0.3217 0.0700
v 1.0803 0.2257 -0.0700
v 1.0803 0.2257 0.0700
v -0.8592 -0.0045 -0.3600
v -0.8592 -0.0045 -0.3600
v -0.8592 -0.0045 -0.3600
v -0.8592 -0.0045 -0.3600
v -0.8592 -0.0045 -0.3600
v -0.8056 0.0405 -0.3600
v -0.8469 0.0332 -0.3023
v -0.9136 0.0214 -0.3244
v -0.9136 0.0214 -0.3956
v -0.8469 0.0332 -0.4177
v -0.8178 0.1094 -0.3600
v -0.8590 0.1021 -0.3023
v -0.9258 0.0903 -0.3244
v -0.9258 0.0903 -0.3956
v -0.8590 0.1021 -0.4177
v -0.8835 0.1333 -0.3600
v -0.8835 0.1333 -0.3600
v -0.8835 0.1333 -0.3600
v -0.8835 0.1333 -0.3600
v -0.8835 0.1333 -0.3600
v -0.8592 -0.0045 0.3600
v -0.8592 -0.0045 0.3600
v -0.8592 -0.0045 0.3600
v -0.8592 -0.0045 0.3600
v -0.8592 -0.0045 0.3600
v -0.8056 0.0405 0.3600
v -0.8469 0.0332 0.4177
v -0.9136 0.0214 0.3956
v -0.9136 0.0214 0.3244
v -0.8469 0.0332 0.3023
v -0.8178 0.1094 0.3600
v -0.8590 0.1021 0.4177
v -0.9258 0.0903 0.3956
v -0.9258 0.0903 0.3244
v -0.8590 0.1021 0.3023
v -0.8835 0.1333 0.3600
v -0.8835 0.1333 0.3600
v -0.8835 0.1333 0.3600
v -0.8835 0.1333 0.3600
v -0.8835 0.1333 0.3600
v -0.2602 -0.2611 0.3750
v -0.2239 -0.2442 0.3750
v -0.2239 -0.2442 0.3950
v -0.2602 -0.2611 0.3950
v -0.4715 0.1921 0.3750
v -0.4352 0.2090 0.3750
v -0.4352 0.2090 0.3950
v -0.4715 0.1921 0.3950
v -0.2421 -0.2526 0.3850
v -0.4534 0.2005 0.3850
v 0.0352 -0.2090 0.3750
v 0.0715 -0.1921 0.3750
v 0.0715 -0.1921 0.3950
v 0.0352 -0.2090 0.3950
v -0.1761 0.2442 0.3750
v -0.1398 0.2611 0.3750
v -0.1398 0.2611 0.3950
v -0.1761 0.2442 0.3950
v 0.0534 -0.2005 0.3850
v -0.1579 0.2526 0.3850
v 0.3307 -0.1569 0.3750
v 0.3669 -0.1400 0.3750
v 0.3669 -0.1400 0.3950
v 0.3307 -0.1569 0.3950
v 0.1194 0.2963 0.3750
v 0.1556 0.3132 0.3750
v 0.1556 0.3132 0.3950
v 0.1194 0.2963 0.3950
v 0.3488 -0.1484 0.3850
v 0.1375 0.3047 0.3850
vn -0.8511 0.3855 0.3564
vn -0.6781 0.0691 0.7317
vn -0.6136 -0.2968 0.7317
vn -0.6679 -0.6533 0.3564
vn -0.6679 -0.6533 -0.3564
vn -0.6136 -0.2968 -0.7317
vn -0.6781 0.0691 -0.7317
vn -0.8511 0.3855 -0.3564
vn -0.5603 0.6577 0.5035
vn -0.5603 0.6577 0.5035
vn -0.3648 0.1716 0.9151
vn -0.3648 0.1716 0.9151
vn -0.2841 -0.2860 0.9151
vn -0.2841 -0.2860 0.9151
vn -0.3016 -0.8097 0.5035
vn -0.3016 -0.8097 0.5035
vn -0.3016 -0.8097 -0.5035
vn -0.3016 -0.8097 -0.5035
vn -0.2841 -0.2860 -0.9151
vn -0.2841 -0.2860 -0.9151
vn -0.3648 0.1716 -0.9151
vn -0.3648 0.1716 -0.9151
vn -0.5603 0.6577 -0.5035
vn -0.5603 0.6577 -0.5035
vn -0.3948 0.7428 0.5407
vn -0.3948 0.7428 0.5407
vn -0.2285 0.2051 0.9517
vn -0.2285 0.2051 0.9517
vn -0.1446 -0.2708 0.9517
vn -0.1446 -0.2708 0.9517
vn -0.1169 -0.8330 0.5407
vn -0.1169 -0.8330 0.5407
vn -0.1169 -0.8330 -0.5407
vn -0.1169 -0.8330 -0.5407
vn -0.1446 -0.2708 -0.9517
vn -0.1446 -0.2708 -0.9517
vn -0.2285 0.2051 -0.9517
vn -0.2285 0.2051 -0.9517
vn -0.3948 0.7428 -0.5407
vn -0.3948 0.7428 -0.5407
vn -0.2292 0.7977 0.5578
vn -0.2292 0.7977 0.5578
vn -0.1043 0.2310 0.9673
vn -0.1043 0.2310 0.9673
vn -0.0191 -0.2527 0.9673
vn -0.0191 -0.2527 0.9673
vn 0.0574 -0.8280 0.5578
vn 0.0574 -0.8280 0.5578
vn 0.0574 -0.8280 -0.5578
vn 0.0574 -0.8280 -0.5578
vn -0.0191 -0.2527 -0.9673
vn -0.0191 -0.2527 -0.9673
vn -0.1043 0.2310 -0.9673
vn -0.1043 0.2310 -0.9673
vn -0.2292 0.7977 -0.5578
vn -0.2292 0.7977 -0.5578
vn -0.0574 0.8280 0.5578
vn -0.0574 0.8280 0.5578
vn 0.0191 0.2527 0.9673
vn 0.0191 0.2527 0.9673
vn 0.1043 -0.2310 0.9673
vn 0.1043 -0.2310 0.9673
vn 0.2292 -0.7977 0.5578
vn 0.2292 -0.7977 0.5578
vn 0.2292 -0.7977 -0.5578
vn 0.2292 -0.7977 -0.5578
vn 0.1043 -0.2310 -0.9673
vn 0.1043 -0.2310 -0.9673
vn 0.0191 0.2527 -0.9673
vn 0.0191 0.2527 -0.9673
vn -0.0574 0.8280 -0.5578
vn -0.0574 0.8280 -0.5578
vn 0.1169 0.8330 0.5407
vn 0.1169 0.8330 0.5407
vn 0.1446 0.2708 0.9517
vn 0.1446 0.2708 0.9517
vn 0.2285 -0.2051 0.9517
vn 0.2285 -0.2051 0.9517
vn 0.3948 -0.7428 0.5407
vn 0.3948 -0.7428 0.5407
vn 0.3948 -0.7428 -0.5407
vn 0.3948 -0.7428 -0.5407
vn 0.2285 -0.2051 -0.9517
vn 0.2285 -0.2051 -0.9517
vn 0.1446 0.2708 -0.9517
vn 0.1446 0.2708 -0.9517
vn 0.1169 0.8330 -0.5407
vn 0.1169 0.8330 -0.5407
vn 0.3016 0.8097 0.5035
vn 0.3016 0.8097 0.5035
vn 0.2841 0.2860 0.9151
vn 0.2841 0.2860 0.9151
vn 0.3648 -0.1716 0.9151
vn 0.3648 -0.1716 0.9151
vn 0.5603 -0.6577 0.5035
vn 0.5603 -0.6577 0.5035
vn 0.5603 -0.6577 -0.5035
vn 0.5603 -0.6577 -0.5035
vn 0.3648 -0.1716 -0.9151
vn 0.3648 -0.1716 -0.9151
vn 0.2841 0.2860 -0.9151
vn 0.2841 0.2860 -0.9151
vn 0.3016 0.8097 -0.5035
vn 0.3016 0.8097 -0.5035
vn 0.6679 0.6533 0.3564
vn 0.6136 0.2968 0.7317
vn 0.6781 -0.0691 0.7317
vn 0.8511 -0.3855 0.3564
vn 0.8511 -0.3855 -0.3564
vn 0.6781 -0.0691 -0.7317
vn 0.6136 0.2968 -0.7317
vn 0.6679 0.6533 -0.3564
vn 0.7508 -0.6605 0.0000
vn 0.7508 -0.6605 0.0000
vn 0.0000 -0.0000 1.0000
vn -0.0000 0.0000 -1.0000
vn -0.9848 -0.1736 0.0000
vn -0.9848 -0.1736 0.0000
vn -0.0000 0.0000 1.0000
vn 0.0000 0.0000 -1.0000
vn 0.4796 0.8775 0.0000
vn 0.4796 0.8775 -0.0000
vn 0.0000 0.0000 1.0000
vn 0.0000 -0.0000 -1.0000
vn -0.6042 0.7200 -0.3414
vn 0.0354 0.8328 -0.5525
vn 0.4307 0.9025 0.0000
vn 0.0354 0.8328 0.5525
vn -0.6042 0.7200 0.3414
vn -0.7967 -0.1405 -0.5878
vn -0.7967 -0.1405 -0.5878
vn 0.3043 0.0537 -0.9511
vn 0.3043 0.0537 -0.9511
vn 0.9848 0.1736 0.0000
vn 0.9848 0.1736 0.0000
vn 0.3043 0.0537 0.9511
vn 0.3043 0.0537 0.9511
vn -0.7967 -0.1405 0.5878
vn -0.7967 -0.1405 0.5878
vn -0.3215 -0.8832 -0.3414
vn 0.3181 -0.7704 -0.5525
vn 0.7134 -0.7007 0.0000
vn 0.3181 -0.7704 0.5525
vn -0.3215 -0.8832 0.3414
vn -0.6042 0.7200 -0.3414
vn 0.0354 0.8328 -0.5525
vn 0.4307 0.9025 0.0000
vn 0.0354 0.8328 0.5525
vn -0.6042 0.7200 0.3414
vn -0.7967 -0.1405 -0.5878
vn -0.7967 -0.1405 -0.5878
vn 0.3043 0.0537 -0.9511
vn 0.3043 0.0537 -0.9511
vn 0.9848 0.1736 0.0000
vn 0.9848 0.1736 0.0000
vn 0.3043 0.0537 0.9511
vn 0.3043 0.0537 0.9511
vn -0.7967 -0.1405 0.5878
vn -0.7967 -0.1405 0.5878
vn -0.3215 -0.8832 -0.3414
vn 0.3181 -0.7704 -0.5525
vn 0.7134 -0.7007 0.0000
vn 0.3181 -0.7704 0.5525
vn -0.3215 -0.8832 0.3414
vn 0.0000 -0.0000 1.0000
vn 0.0000 0.0000 1.0000
vn -0.4226 0.9063 -0.0000
vn 0.4226 -0.9063 -0.0000
vn -0.9063 -0.4226 0.0000
vn -0.9063 -0.4226 0.0000
vn -0.4226 0.9063 0.0000
vn 0.4226 -0.9063 0.0000
vn -0.0000 0.0000 -1.0000
vn 0.0000 0.0000 -1.0000
vn -0.4226 0.9063 0.0000
vn 0.4226 -0.9063 0.0000
vn 0.9063 0.4226 0.0000
vn 0.9063 0.4226 0.0000
vn -0.4226 0.9063 0.0000
vn 0.4226 -0.9063 0.0000
vn 0.0000 -0.0000 1.0000
vn 0.0000 0.0000 1.0000
vn -0.4226 0.9063 -0.0000
vn 0.4226 -0.9063 -0.0000
vn -0.9063 -0.4226 0.0000
vn -0.9063 -0.4226 0.0000
vn -0.4226 0.9063 0.0000
vn 0.4226 -0.9063 0.0000
vn -0.0000 0.0000 -1.0000
vn 0.0000 0.0000 -1.0000
vn -0.4226 0.9063 0.0000
vn 0.4226 -0.9063 0.0000
vn 0.9063 0.4226 0.0000
vn 0.9063 0.4226 0.0000
vn -0.4226 0.9063 0.0000
vn 0.4226 -0.9063 0.0000
vn 0.0000 -0.0000 1.0000
vn 0.0000 0.0000 1.0000
vn -0.4226 0.9063 -0.0000
vn 0.4226 -0.9063 -0.0000
vn -0.9063 -0.4226 0.0000
vn -0.9063 -0.4226 0.0000
vn -0.4226 0.9063 0.0000
vn 0.4226 -0.9063 0.0000
vn -0.0000 0.0000 -1.0000
vn 0.0000 0.0000 -1.0000
vn -0.4226 0.9063 0.0000
vn 0.4226 -0.9063 0.0000
vn 0.9063 0.4226 0.0000
vn 0.9063 0.4226 0.0000
vn -0.4226 0.9063 0.0000
vn 0.4226 -0.9063 0.0000
usemtl c0
f 1//1 10//1 9//1
f 2//2 11//2 10//2
f 3//3 12//3 11//3
f 4//4 13//4 12//4
f 5//5 14//5 13//5
f 6//6 15//6 14//6
f 7//7 16//7 15//7
f 8//8 9//8 16//8
f 9//9 10//9 18//9
f 9//10 18//10 17//10
f 10//11 11//11 19//11
f 10//12 19//12 18//12
f 11//13 12//13 20//13
f 11//14 20//14 19//14
f 12//15 13//15 21//15
f 12//16 21//16 20//16
f 13//17 14//17 22//17
f 13//18 22//18 21//18
f 14//19 15//19 23//19
f 14//20 23//20 22//20
f 15//21 16//21 24//21
f 15//22 24//22 23//22
f 16//23 9//23 17//23
f 16//24 17//24 24//24
f 17//25 18//25 26//25
f 17//26 26//26 25//26
f 18//27 19//27 27//27
f 18//28 27//28 26//28
f 19//29 20//29 28//29
f 19//30 28//30 27//30
f 20//31 21//31 29//31
f 20//32 29//32 28//32
f 21//33 22//33 30//33
f 21//34 30//34 29//34
f 22//35 23//35 31//35
f 22//36 31//36 30//36
f 23//37 24//37 32//37
f 23//38 32//38 31//38
f 24//39 17//39 25//39
f 24//40 25//40 32//40
f 25//41 26//41 34//41
f 25//42 34//42 33//42
f 26//43 27//43 35//43
f 26//44 35//44 34//44
f 27//45 28//45 36//45
f 27//46 36//46 35//46
f 28//47 29//47 37//47
f 28//48 37//48 36//48
f 29//49 30//49 38//49
f 29//50 38//50 37//50
f 30//51 31//51 39//51
f 30//52 39//52 38//52
f 31//53 32//53 40//53
f 31//54 40//54 39//54
f 32//55 25//55 33//55
f 32//56 33//56 40//56
f 33//57 34//57 42//57
f 33//58 42//58 41//58
f 34//59 35//59 43//59
f 34//60 43//60 42//60
f 35//61 36//61 44//61
f 35//62 44//62 43//62
f 36//63 37//63 45//63
f 36//64 45//64 44//64
f 37//65 38//65 46//65
f 37//66 46//66 45//66
f 38//67 39//67 47//67
f 38//68 47//68 46//68
f 39//69 40//69 48//69
f 39//70 48//70 47//70
f 40//71 33//71 41//71
f 40//72 41//72 48//72
f 41//73 42//73 50//73
f 41//74 50//74 49//74
f 42//75 43//75 51//75
f 42//76 51//76 50//76
f 43//77 44//77 52//77
f 43//78 52//78 51//78
f 44//79 45//79 53//79
f 44//80 53//80 52//80
f 45//81 46//81 54//81
f 45//82 54//82 53//82
f 46//83 47//83 55//83
f 46//84 55//84 54//84
f 47//85 48//85 56//85
f 47//86 56//86 55//86
f 48//87 41//87 49//87
f 48//88 49//88 56//88
f 49//89 50//89 58//89
f 49//90 58//90 57//90
f 50//91 51//91 59//91
f 50//92 59//92 58//92
f 51//93 52//93 60//93
f 51//94 60//94 59//94
f 52//95 53//95 61//95
f 52//96 61//96 60//96
f 53//97 54//97 62//97
f 53//98 62//98 61//98
f 54//99 55//99 63//99
f 54//100 63//100 62//100
f 55//101 56//101 64//101
f 55//102 64//102 63//102
f 56//103 49//103 57//103
f 56//104 57//104 64//104
f 57//105 58//105 66//105
f 58//106 59//106 67//106
f 59//107 60//107 68//107
f 60//108 61//108 69//108
f 61//109 62//109 70//109
f 62//110 63//110 71//110
f 63//111 64//111 72//111
f 64//112 57//112 65//112
usemtl c1
f 73//113 74//113 77//113
f 73//114 77//114 76//114
f 79//115 74//115 73//115
f 80//116 76//116 77//116
f 74//117 75//117 78//117
f 74//118 78//118 77//118
f 79//119 75//119 74//119
f 80//120 77//120 78//120
f 75//121 73//121 76//121
f 75//122 76//122 78//122
f 79//123 73//123 75//123
f 80//124 78//124 76//124
usemtl c2
f 81//125 87//125 86//125
f 82//126 88//126 87//126
f 83//127 89//127 88//127
f 84//128 90//128 89//128
f 85//129 86//129 90//129
f 86//130 87//130 92//130
f 86//131 92//131 91//131
f 87//132 88//132 93//132
f 87//133 93//133 92//133
f 88//134 89//134 94//134
f 88//135 94//135 93//135
f 89//136 90//136 95//136
f 89//137 95//137 94//137
f 90//138 86//138 91//138
f 90//139 91//139 95//139
f 91//140 92//140 97//140
f 92//141 93//141 98//141
f 93//142 94//142 99//142
f 94//143 95//143 100//143
f 95//144 91//144 96//144
f 101//145 107//145 106//145
f 102//146 108//146 107//146
f 103//147 109//147 108//147
f 104//148 110//148 109//148
f 105//149 106//149 110//149
f 106//150 107//150 112//150
f 106//151 112//151 111//151
f 107//152 108//152 113//152
f 107//153 113//153 112//153
f 108//154 109//154 114//154
f 108//155 114//155 113//155
f 109//156 110//156 115//156
f 109//157 115//157 114//157
f 110//158 106//158 111//158
f 110//159 111//159 115//159
f 111//160 112//160 117//160
f 112//161 113//161 118//161
f 113//162 114//162 119//162
f 114//163 115//163 120//163
f 115//164 111//164 116//164
usemtl c3
f 121//165 122//165 126//165
f 121//166 126//166 125//166
f 129//167 122//167 121//167
f 130//168 125//168 126//168
f 122//169 123//169 127//169
f 122//170 127//170 126//170
f 129//171 123//171 122//171
f 130//172 126//172 127//172
f 123//173 124//173 128//173
f 123//174 128//174 127//174
f 129//175 124//175 123//175
f 130//176 127//176 128//176
f 124//177 121//177 125//177
f 124//178 125//178 128//178
f 129//179 121//179 124//179
f 130//180 128//180 125//180
f 131//181 132//181 136//181
f 131//182 136//182 135//182
f 139//183 132//183 131//183
f 140//184 135//184 136//184
f 132//185 133//185 137//185
f 132//186 137//186 136//186
f 139//187 133//187 132//187
f 140//188 136//188 137//188
f 133//189 134//189 138//189
f 133//190 138//190 137//190
f 139//191 134//191 133//191
f 140//192 137//192 138//192
f 134//193 131//193 135//193
f 134//194 135//194 138//194
f 139//195 131//195 134//195
f 140//196 138//196 135//196
f 141//197 142//197 146//197
f 141//198 146//198 145//198
f 149//199 142//199 141//199
f 150//200 145//200 146//200
f 142//201 143//201 147//201
f 142//202 147//202 146//202
f 149//203 143//203 142//203
f 150//204 146//204 147//204
f 143//205 144//205 148//205
f 143//206 148//206 147//206
f 149//207 144//207 143//207
f 150//208 147//208 148//208
f 144//209 141//209 145//209
f 144//210 145//210 148//210
f 149//211 141//211 144//211
f 150//212 148//212 145//212
