mtllib Food_Pear.mtl
v 0.0000 -1.0000 0.0000
v 0.0000 -1.0000 0.0000
v 0.0000 -1.0000 0.0000
v 0.0000 -1.0000 0.0000
v 0.0000 -1.0000 0.0000
v 0.0000 -1.0000 0.0000
v 0.0000 -1.0000 0.0000
v 0.0000 -1.0000 0.0000
v 0.0000 -1.0000 0.0000
v 0.3500 -0.9700 0.0000
v 0.2681 -0.9700 0.2250
v 0.0608 -0.9700 0.3447
v -0.1750 -0.9700 0.3031
v -0.3289 -0.9700 0.1197
v -0.3289 -0.9700 -0.1197
v -0.1750 -0.9700 -0.3031
v 0.0608 -0.9700 -0.3447
v 0.2681 -0.9700 -0.2250
v 0.7000 -0.7500 0.0000
v 0.5362 -0.7500 0.4500
v 0.1216 -0.7500 0.6894
v -0.3500 -0.7500 0.6062
v -0.6578 -0.7500 0.2394
v -0.6578 -0.7500 -0.2394
v -0.3500 -0.7500 -0.6062
v 0.1216 -0.7500 -0.6894
v 0.5362 -0.7500 -0.4500
v 0.8600 -0.3500 0.0000
v 0.6588 -0.3500 0.5528
v 0.1493 -0.3500 0.8469
v -0.4300 -0.3500 0.7448
v -0.8081 -0.3500 0.2941
v -0.8081 -0.3500 -0.2941
v -0.4300 -0.3500 -0.7448
v 0.1493 -0.3500 -0.8469
v 0.6588 -0.3500 -0.5528
v 0.7400 0.1000 0.0000
v 0.5669 0.1000 0.4757
v 0.1285 0.1000 0.7288
v -0.3700 0.1000 0.6409
v -0.6954 0.1000 0.2531
v -0.6954 0.1000 -0.2531
v -0.3700 0.1000 -0.6409
v 0.1285 0.1000 -0.7288
v 0.5669 0.1000 -0.4757
v 0.5000 0.4200 0.0000
v 0.3830 0.4200 0.3214
v 0.0868 0.4200 0.4924
v -0.2500 0.4200 0.4330
v -0.4698 0.4200 0.1710
v -0.4698 0.4200 -0.1710
v -0.2500 0.4200 -0.4330
v 0.0868 0.4200 -0.4924
v 0.3830 0.4200 -0.3214
v 0.3000 0.7200 0.0000
v 0.2298 0.7200 0.1928
v 0.0521 0.7200 0.2954
v -0.1500 0.7200 0.2598
v -0.2819 0.7200 0.1026
v -0.2819 0.7200 -0.1026
v -0.1500 0.7200 -0.2598
v 0.0521 0.7200 -0.2954
v 0.2298 0.7200 -0.1928
v 0.2200 0.9800 0.0000
v 0.1685 0.9800 0.1414
v 0.0382 0.9800 0.2167
v -0.1100 0.9800 0.1905
v -0.2067 0.9800 0.0752
v -0.2067 0.9800 -0.0752
v -0.1100 0.9800 -0.1905
v 0.0382 0.9800 -0.2167
v 0.1685 0.9800 -0.1414
v 0.0000 1.0200 0.0000
v 0.0000 1.0200 0.0000
v 0.0000 1.0200 0.0000
v 0.0000 1.0200 0.0000
v 0.0000 1.0200 0.0000
v 0.0000 1.0200 0.0000
v 0.0000 1.0200 0.0000
v 0.0000 1.0200 0.0000
v 0.0000 1.0200 0.0000
v 0.0489 0.9694 0.0000
v 0.0151 0.9767 0.0476
v -0.0395 0.9885 0.0294
v -0.0395 0.9885 -0.0294
v 0.0151 0.9767 -0.0476
v 0.1289 1.3394 0.0000
v 0.0951 1.3467 0.0476
v 0.0405 1.3585 0.0294
v 0.0405 1.3585 -0.0294
v 0.0951 1.3467 -0.0476
v 0.0000 0.9800 0.0000
v 0.0800 1.3500 0.0000
v 0.3811 1.1547 0.0000
v 0.3811 1.1547 0.0000
v 0.3811 1.1547 0.0000
v 0.3811 1.1547 0.0000
v 0.3811 1.1547 0.0000
v 0.6531 1.3091 0.0000
v 0.4579 1.2181 0.1400
v 0.1420 1.0707 0.0865
v 0.1420 1.0707 -0.0865
v 0.4579 1.2181 -0.1400
v 0.6320 1.3544 0.0000
v 0.4368 1.2634 0.1400
v 0.1208 1.1161 0.0865
v 0.1208 1.1161 -0.0865
v 0.4368 1.2634 -0.1400
v 0.3389 1.2453 0.0000
v 0.3389 1.2453 0.0000
v 0.3389 1.2453 0.0000
v 0.3389 1.2453 -0.0000
v 0.3389 1.2453 -0.0000
vn -0.0854 0.9959 -0.0311
vn -0.0454 0.9959 -0.0787
vn 0.0158 0.9959 -0.0895
vn 0.0696 0.9959 -0.0584
vn 0.0908 0.9959 0.0000
vn 0.0696 0.9959 0.0584
vn 0.0158 0.9959 0.0895
vn -0.0454 0.9959 0.0787
vn -0.0854 0.9959 0.0311
vn -0.5225 0.8312 -0.1902
vn -0.5225 0.8312 -0.1902
vn -0.2780 0.8312 -0.4815
vn -0.2780 0.8312 -0.4815
vn 0.0965 0.8312 -0.5475
vn 0.0965 0.8312 -0.5475
vn 0.4259 0.8312 -0.3574
vn 0.4259 0.8312 -0.3574
vn 0.5560 0.8312 0.0000
vn 0.5560 0.8312 0.0000
vn 0.4259 0.8312 0.3574
vn 0.4259 0.8312 0.3574
vn 0.0965 0.8312 0.5475
vn 0.0965 0.8312 0.5475
vn -0.2780 0.8312 0.4815
vn -0.2780 0.8312 0.4815
vn -0.5225 0.8312 0.1902
vn -0.5225 0.8312 0.1902
vn -0.8796 0.3518 -0.3202
vn -0.8796 0.3518 -0.3202
vn -0.4680 0.3518 -0.8107
vn -0.4680 0.3518 -0.8107
vn 0.1625 0.3518 -0.9218
vn 0.1625 0.3518 -0.9218
vn 0.7171 0.3518 -0.6017
vn 0.7171 0.3518 -0.6017
vn 0.9361 0.3518 0.0000
vn 0.9361 0.3518 -0.0000
vn 0.7171 0.3518 0.6017
vn 0.7171 0.3518 0.6017
vn 0.1625 0.3518 0.9218
vn 0.1625 0.3518 0.9218
vn -0.4680 0.3518 0.8107
vn -0.4680 0.3518 0.8107
vn -0.8796 0.3518 0.3202
vn -0.8796 0.3518 0.3202
vn -0.9115 -0.2431 -0.3318
vn -0.9115 -0.2431 -0.3318
vn -0.4850 -0.2431 -0.8401
vn -0.4850 -0.2431 -0.8401
vn 0.1684 -0.2431 -0.9553
vn 0.1684 -0.2431 -0.9553
vn 0.7431 -0.2431 -0.6235
vn 0.7431 -0.2431 -0.6235
vn 0.9700 -0.2431 -0.0000
vn 0.9700 -0.2431 0.0000
vn 0.7431 -0.2431 0.6235
vn 0.7431 -0.2431 0.6235
vn 0.1684 -0.2431 0.9553
vn 0.1684 -0.2431 0.9553
vn -0.4850 -0.2431 0.8401
vn -0.4850 -0.2431 0.8401
vn -0.9115 -0.2431 0.3318
vn -0.9115 -0.2431 0.3318
vn -0.7681 -0.5761 -0.2796
vn -0.7681 -0.5761 -0.2796
vn -0.4087 -0.5761 -0.7079
vn -0.4087 -0.5761 -0.7079
vn 0.1419 -0.5761 -0.8050
vn 0.1419 -0.5761 -0.8050
vn 0.6262 -0.5761 -0.5254
vn 0.6262 -0.5761 -0.5254
vn 0.8174 -0.5761 0.0000
vn 0.8174 -0.5761 -0.0000
vn 0.6262 -0.5761 0.5254
vn 0.6262 -0.5761 0.5254
vn 0.1419 -0.5761 0.8050
vn 0.1419 -0.5761 0.8050
vn -0.4087 -0.5761 0.7079
vn -0.4087 -0.5761 0.7079
vn -0.7681 -0.5761 0.2796
vn -0.7681 -0.5761 0.2796
vn -0.7963 -0.5309 -0.2898
vn -0.7963 -0.5309 -0.2898
vn -0.4237 -0.5309 -0.7339
vn -0.4237 -0.5309 -0.7339
vn 0.1472 -0.5309 -0.8346
vn 0.1472 -0.5309 -0.8346
vn 0.6492 -0.5309 -0.5447
vn 0.6492 -0.5309 -0.5447
vn 0.8474 -0.5309 -0.0000
vn 0.8474 -0.5309 0.0000
vn 0.6492 -0.5309 0.5447
vn 0.6492 -0.5309 0.5447
vn 0.1472 -0.5309 0.8346
vn 0.1472 -0.5309 0.8346
vn -0.4237 -0.5309 0.7339
vn -0.4237 -0.5309 0.7339
vn -0.7963 -0.5309 0.2898
vn -0.7963 -0.5309 0.2898
vn -0.9027 -0.2778 -0.3286
vn -0.9027 -0.2778 -0.3286
vn -0.4803 -0.2778 -0.8319
vn -0.4803 -0.2778 -0.8319
vn 0.1668 -0.2778 -0.9461
vn 0.1668 -0.2778 -0.9461
vn 0.7359 -0.2778 -0.6175
vn 0.7359 -0.2778 -0.6175
vn 0.9607 -0.2778 0.0000
vn 0.9607 -0.2778 -0.0000
vn 0.7359 -0.2778 0.6175
vn 0.7359 -0.2778 0.6175
vn 0.1668 -0.2778 0.9461
vn 0.1668 -0.2778 0.9461
vn -0.4803 -0.2778 0.8319
vn -0.4803 -0.2778 0.8319
vn -0.9027 -0.2778 0.3286
vn -0.9027 -0.2778 0.3286
vn -0.1785 -0.9818 -0.0650
vn -0.0950 -0.9818 -0.1645
vn 0.0330 -0.9818 -0.1871
vn 0.1455 -0.9818 -0.1221
vn 0.1900 -0.9818 -0.0000
vn 0.1455 -0.9818 0.1221
vn 0.0330 -0.9818 0.1871
vn -0.0950 -0.9818 0.1645
vn -0.1785 -0.9818 0.0650
vn -0.7907 0.1710 -0.5878
vn -0.7907 0.1710 -0.5878
vn 0.3020 -0.0653 -0.9511
vn 0.3020 -0.0653 -0.9511
vn 0.9774 -0.2113 -0.0000
vn 0.9774 -0.2113 -0.0000
vn 0.3020 -0.0653 0.9511
vn 0.3020 -0.0653 0.9511
vn -0.7907 0.1710 0.5878
vn -0.7907 0.1710 0.5878
vn -0.2113 -0.9774 -0.0000
vn -0.2113 -0.9774 -0.0000
vn -0.2113 -0.9774 0.0000
vn -0.2113 -0.9774 0.0000
vn -0.2113 -0.9774 0.0000
vn -0.2113 -0.9774 0.0000
vn -0.2113 -0.9774 0.0000
vn -0.2113 -0.9774 0.0000
vn -0.2113 -0.9774 -0.0000
vn -0.2113 -0.9774 -0.0000
vn -0.4900 0.8631 -0.1221
vn -0.3870 0.9011 -0.1957
vn -0.3312 0.9436 0.0000
vn -0.3870 0.9011 0.1957
vn -0.4900 0.8631 0.1221
vn -0.4939 -0.2303 -0.8385
vn -0.4939 -0.2303 -0.8385
vn 0.1375 0.0641 -0.9884
vn 0.1375 0.0641 -0.9884
vn 0.9063 0.4226 0.0000
vn 0.9063 0.4226 -0.0000
vn 0.1375 0.0641 0.9884
vn 0.1375 0.0641 0.9884
vn -0.4939 -0.2303 0.8385
vn -0.4939 -0.2303 0.8385
vn 0.3462 -0.9302 -0.1221
vn 0.4415 -0.8757 -0.1957
vn 0.5100 -0.8602 -0.0000
vn 0.4415 -0.8757 0.1957
vn 0.3462 -0.9302 0.1221
usemtl c0
f 1//1 11//1 10//1
f 2//2 12//2 11//2
f 3//3 13//3 12//3
f 4//4 14//4 13//4
f 5//5 15//5 14//5
f 6//6 16//6 15//6
f 7//7 17//7 16//7
f 8//8 18//8 17//8
f 9//9 10//9 18//9
f 10//10 11//10 20//10
f 10//11 20//11 19//11
f 11//12 12//12 21//12
f 11//13 21//13 20//13
f 12//14 13//14 22//14
f 12//15 22//15 21//15
f 13//16 14//16 23//16
f 13//17 23//17 22//17
f 14//18 15//18 24//18
f 14//19 24//19 23//19
f 15//20 16//20 25//20
f 15//21 25//21 24//21
f 16//22 17//22 26//22
f 16//23 26//23 25//23
f 17//24 18//24 27//24
f 17//25 27//25 26//25
f 18//26 10//26 19//26
f 18//27 19//27 27//27
f 19//28 20//28 29//28
f 19//29 29//29 28//29
f 20//30 21//30 30//30
f 20//31 30//31 29//31
f 21//32 22//32 31//32
f 21//33 31//33 30//33
f 22//34 23//34 32//34
f 22//35 32//35 31//35
f 23//36 24//36 33//36
f 23//37 33//37 32//37
f 24//38 25//38 34//38
f 24//39 34//39 33//39
f 25//40 26//40 35//40
f 25//41 35//41 34//41
f 26//42 27//42 36//42
f 26//43 36//43 35//43
f 27//44 19//44 28//44
f 27//45 28//45 36//45
f 28//46 29//46 38//46
f 28//47 38//47 37//47
f 29//48 30//48 39//48
f 29//49 39//49 38//49
f 30//50 31//50 40//50
f 30//51 40//51 39//51
f 31//52 32//52 41//52
f 31//53 41//53 40//53
f 32//54 33//54 42//54
f 32//55 42//55 41//55
f 33//56 34//56 43//56
f 33//57 43//57 42//57
f 34//58 35//58 44//58
f 34//59 44//59 43//59
f 35//60 36//60 45//60
f 35//61 45//61 44//61
f 36//62 28//62 37//62
f 36//63 37//63 45//63
f 37//64 38//64 47//64
f 37//65 47//65 46//65
f 38//66 39//66 48//66
f 38//67 48//67 47//67
f 39//68 40//68 49//68
f 39//69 49//69 48//69
f 40//70 41//70 50//70
f 40//71 50//71 49//71
f 41//72 42//72 51//72
f 41//73 51//73 50//73
f 42//74 43//74 52//74
f 42//75 52//75 51//75
f 43//76 44//76 53//76
f 43//77 53//77 52//77
f 44//78 45//78 54//78
f 44//79 54//79 53//79
f 45//80 37//80 46//80
f 45//81 46//81 54//81
f 46//82 47//82 56//82
f 46//83 56//83 55//83
f 47//84 48//84 57//84
f 47//85 57//85 56//85
f 48//86 49//86 58//86
f 48//87 58//87 57//87
f 49//88 50//88 59//88
f 49//89 59//89 58//89
f 50//90 51//90 60//90
f 50//91 60//91 59//91
f 51//92 52//92 61//92
f 51//93 61//93 60//93
f 52//94 53//94 62//94
f 52//95 62//95 61//95
f 53//96 54//96 63//96
f 53//97 63//97 62//97
f 54//98 46//98 55//98
f 54//99 55//99 63//99
f 55//100 56//100 65//100
f 55//101 65//101 64//101
f 56//102 57//102 66//102
f 56//103 66//103 65//103
f 57//104 58//104 67//104
f 57//105 67//105 66//105
f 58//106 59//106 68//106
f 58//107 68//107 67//107
f 59//108 60//108 69//108
f 59//109 69//109 68//109
f 60//110 61//110 70//110
f 60//111 70//111 69//111
f 61//112 62//112 71//112
f 61//113 71//113 70//113
f 62//114 63//114 72//114
f 62//115 72//115 71//115
f 63//116 55//116 64//116
f 63//117 64//117 72//117
f 64//118 65//118 74//118
f 65//119 66//119 75//119
f 66//120 67//120 76//120
f 67//121 68//121 77//121
f 68//122 69//122 78//122
f 69//123 70//123 79//123
f 70//124 71//124 80//124
f 71//125 72//125 81//125
f 72//126 64//126 73//126
usemtl c1
f 82//127 83//127 88//127
f 82//128 88//128 87//128
f 83//129 84//129 89//129
f 83//130 89//130 88//130
f 84//131 85//131 90//131
f 84//132 90//132 89//132
f 85//133 86//133 91//133
f 85//134 91//134 90//134
f 86//135 82//135 87//135
f 86//136 87//136 91//136
f 92//137 82//137 83//137
f 92//138 83//138 84//138
f 92//139 84//139 85//139
f 92//140 85//140 86//140
f 92//141 86//141 82//141
f 93//142 87//142 88//142
f 93//143 88//143 89//143
f 93//144 89//144 90//144
f 93//145 90//145 91//145
f 93//146 91//146 87//146
usemtl c2
f 94//147 100//147 99//147
f 95//148 101//148 100//148
f 96//149 102//149 101//149
f 97//150 103//150 102//150
f 98//151 99//151 103//151
f 99//152 100//152 105//152
f 99//153 105//153 104//153
f 100//154 101//154 106//154
f 100//155 106//155 105//155
f 101//156 102//156 107//156
f 101//157 107//157 106//157
f 102//158 103//158 108//158
f 102//159 108//159 107//159
f 103//160 99//160 104//160
f 103//161 104//161 108//161
f 104//162 105//162 110//162
f 105//163 106//163 111//163
f 106//164 107//164 112//164
f 107//165 108//165 113//165
f 108//166 104//166 109//166
