mtllib Food_Mandu.mtl
v -0.5000 -0.2000 0.2000
v -0.5000 -0.2000 0.2000
v -0.5000 -0.2000 0.2000
v -0.5000 -0.2000 0.2000
v -0.5000 -0.2000 0.2000
v -0.5000 -0.2000 0.2000
v -0.5000 -0.2000 0.2000
v -0.5000 -0.2000 0.2000
v 0.1147 -0.0536 0.0353
v 0.0201 -0.0536 0.4023
v -0.3792 -0.0536 0.6508
v -0.8493 -0.0536 0.6352
v -1.1147 -0.0536 0.3647
v -1.0201 -0.0536 -0.0023
v -0.6208 -0.0536 -0.2508
v -0.1507 -0.0536 -0.2352
v 0.3693 0.3000 -0.0329
v 0.2355 0.3000 0.4861
v -0.3292 0.3000 0.8375
v -0.9939 0.3000 0.8155
v -1.3693 0.3000 0.4329
v -1.2355 0.3000 -0.0861
v -0.6708 0.3000 -0.4375
v -0.0061 0.3000 -0.4155
v 0.1147 0.6536 0.0353
v 0.0201 0.6536 0.4023
v -0.3792 0.6536 0.6508
v -0.8493 0.6536 0.6352
v -1.1147 0.6536 0.3647
v -1.0201 0.6536 -0.0023
v -0.6208 0.6536 -0.2508
v -0.1507 0.6536 -0.2352
v -0.5000 0.8000 0.2000
v -0.5000 0.8000 0.2000
v -0.5000 0.8000 0.2000
v -0.5000 0.8000 0.2000
v -0.5000 0.8000 0.2000
v -0.5000 0.8000 0.2000
v -0.5000 0.8000 0.2000
v -0.5000 0.8000 0.2000
v -1.0796 0.3378 0.3553
v -1.0796 0.3378 0.3553
v -1.0796 0.3378 0.3553
v -1.0796 0.3378 0.3553
v -1.0796 0.3378 0.3553
v -0.9708 0.3978 0.3262
v -1.0268 0.3978 0.4179
v -1.1557 0.3978 0.4231
v -1.1794 0.3978 0.3346
v -1.0651 0.3978 0.2747
v -0.9708 0.5178 0.3262
v -1.0268 0.5178 0.4179
v -1.1557 0.5178 0.4231
v -1.1794 0.5178 0.3346
v -1.0651 0.5178 0.2747
v -1.0796 0.5778 0.3553
v -1.0796 0.5778 0.3553
v -1.0796 0.5778 0.3553
v -1.0796 0.5778 0.3553
v -1.0796 0.5778 0.3553
v -0.8477 0.4800 0.2932
v -0.8477 0.4800 0.2932
v -0.8477 0.4800 0.2932
v -0.8477 0.4800 0.2932
v -0.8477 0.4800 0.2932
v -0.7390 0.5400 0.2640
v -0.7949 0.5400 0.3558
v -0.9239 0.5400 0.3610
v -0.9476 0.5400 0.2725
v -0.8333 0.5400 0.2126
v -0.7390 0.6600 0.2640
v -0.7949 0.6600 0.3558
v -0.9239 0.6600 0.3610
v -0.9476 0.6600 0.2725
v -0.8333 0.6600 0.2126
v -0.8477 0.7200 0.2932
v -0.8477 0.7200 0.2932
v -0.8477 0.7200 0.2932
v -0.8477 0.7200 0.2932
v -0.8477 0.7200 0.2932
v -0.6159 0.5511 0.2311
v -0.6159 0.5511 0.2311
v -0.6159 0.5511 0.2311
v -0.6159 0.5511 0.2311
v -0.6159 0.5511 0.2311
v -0.5072 0.6111 0.2019
v -0.5631 0.6111 0.2937
v -0.6920 0.6111 0.2989
v -0.7157 0.6111 0.2104
v -0.6015 0.6111 0.1505
v -0.5072 0.7311 0.2019
v -0.5631 0.7311 0.2937
v -0.6920 0.7311 0.2989
v -0.7157 0.7311 0.2104
v -0.6015 0.7311 0.1505
v -0.6159 0.7911 0.2311
v -0.6159 0.7911 0.2311
v -0.6159 0.7911 0.2311
v -0.6159 0.7911 0.2311
v -0.6159 0.7911 0.2311
v -0.3841 0.5511 0.1689
v -0.3841 0.5511 0.1689
v -0.3841 0.5511 0.1689
v -0.3841 0.5511 0.1689
v -0.3841 0.5511 0.1689
v -0.2753 0.6111 0.1398
v -0.3313 0.6111 0.2315
v -0.4602 0.6111 0.2368
v -0.4839 0.6111 0.1483
v -0.3697 0.6111 0.0883
v -0.2753 0.7311 0.1398
v -0.3313 0.7311 0.2315
v -0.4602 0.7311 0.2368
v -0.4839 0.7311 0.1483
v -0.3697 0.7311 0.0883
v -0.3841 0.7911 0.1689
v -0.3841 0.7911 0.1689
v -0.3841 0.7911 0.1689
v -0.3841 0.7911 0.1689
v -0.3841 0.7911 0.1689
v -0.1523 0.4800 0.1068
v -0.1523 0.4800 0.1068
v -0.1523 0.4800 0.1068
v -0.1523 0.4800 0.1068
v -0.1523 0.4800 0.1068
v -0.0435 0.5400 0.0777
v -0.0995 0.5400 0.1694
v -0.2284 0.5400 0.1747
v -0.2521 0.5400 0.0861
v -0.1378 0.5400 0.0262
v -0.0435 0.6600 0.0777
v -0.0995 0.6600 0.1694
v -0.2284 0.6600 0.1747
v -0.2521 0.6600 0.0861
v -0.1378 0.6600 0.0262
v -0.1523 0.7200 0.1068
v -0.1523 0.7200 0.1068
v -0.1523 0.7200 0.1068
v -0.1523 0.7200 0.1068
v -0.1523 0.7200 0.1068
v 0.0796 0.3378 0.0447
v 0.0796 0.3378 0.0447
v 0.0796 0.3378 0.0447
v 0.0796 0.3378 0.0447
v 0.0796 0.3378 0.0447
v 0.1883 0.3978 0.0156
v 0.1323 0.3978 0.1073
v 0.0034 0.3978 0.1125
v -0.0203 0.3978 0.0240
v 0.0940 0.3978 -0.0359
v 0.1883 0.5178 0.0156
v 0.1323 0.5178 0.1073
v 0.0034 0.5178 0.1125
v -0.0203 0.5178 0.0240
v 0.0940 0.5178 -0.0359
v 0.0796 0.5778 0.0447
v 0.0796 0.5778 0.0447
v 0.0796 0.5778 0.0447
v 0.0796 0.5778 0.0447
v 0.0796 0.5778 0.0447
v 0.7500 -0.1700 -0.3500
v 0.7500 -0.1700 -0.3500
v 0.7500 -0.1700 -0.3500
v 0.7500 -0.1700 -0.3500
v 0.7500 -0.1700 -0.3500
v 0.7500 -0.1700 -0.3500
v 0.7500 -0.1700 -0.3500
v 0.7500 -0.1700 -0.3500
v 1.2403 -0.0455 -0.1214
v 0.9781 -0.0455 0.0659
v 0.5824 -0.0455 0.0095
v 0.2848 -0.0455 -0.2574
v 0.2597 -0.0455 -0.5786
v 0.5219 -0.0455 -0.7659
v 0.9176 -0.0455 -0.7095
v 1.2152 -0.0455 -0.4426
v 1.4433 0.2550 -0.0267
v 1.0726 0.2550 0.2381
v 0.5129 0.2550 0.1584
v 0.0921 0.2550 -0.2191
v 0.0567 0.2550 -0.6733
v 0.4274 0.2550 -0.9381
v 0.9871 0.2550 -0.8584
v 1.4079 0.2550 -0.4809
v 1.2403 0.5555 -0.1214
v 0.9781 0.5555 0.0659
v 0.5824 0.5555 0.0095
v 0.2848 0.5555 -0.2574
v 0.2597 0.5555 -0.5786
v 0.5219 0.5555 -0.7659
v 0.9176 0.5555 -0.7095
v 1.2152 0.5555 -0.4426
v 0.7500 0.6800 -0.3500
v 0.7500 0.6800 -0.3500
v 0.7500 0.6800 -0.3500
v 0.7500 0.6800 -0.3500
v 0.7500 0.6800 -0.3500
v 0.7500 0.6800 -0.3500
v 0.7500 0.6800 -0.3500
v 0.7500 0.6800 -0.3500
v 0.2878 0.2871 -0.5655
v 0.2878 0.2871 -0.5655
v 0.2878 0.2871 -0.5655
v 0.2878 0.2871 -0.5655
v 0.2878 0.2871 -0.5655
v 0.3745 0.3381 -0.5251
v 0.2880 0.3381 -0.4959
v 0.2012 0.3381 -0.5630
v 0.2341 0.3381 -0.6335
v 0.3412 0.3381 -0.6101
v 0.3745 0.4401 -0.5251
v 0.2880 0.4401 -0.4959
v 0.2012 0.4401 -0.5630
v 0.2341 0.4401 -0.6335
v 0.3412 0.4401 -0.6101
v 0.2878 0.4911 -0.5655
v 0.2878 0.4911 -0.5655
v 0.2878 0.4911 -0.5655
v 0.2878 0.4911 -0.5655
v 0.2878 0.4911 -0.5655
v 0.4727 0.4080 -0.4793
v 0.4727 0.4080 -0.4793
v 0.4727 0.4080 -0.4793
v 0.4727 0.4080 -0.4793
v 0.4727 0.4080 -0.4793
v 0.5594 0.4590 -0.4389
v 0.4728 0.4590 -0.4097
v 0.3860 0.4590 -0.4767
v 0.4190 0.4590 -0.5473
v 0.5261 0.4590 -0.5239
v 0.5594 0.5610 -0.4389
v 0.4728 0.5610 -0.4097
v 0.3860 0.5610 -0.4767
v 0.4190 0.5610 -0.5473
v 0.5261 0.5610 -0.5239
v 0.4727 0.6120 -0.4793
v 0.4727 0.6120 -0.4793
v 0.4727 0.6120 -0.4793
v 0.4727 0.6120 -0.4793
v 0.4727 0.6120 -0.4793
v 0.6576 0.4684 -0.3931
v 0.6576 0.4684 -0.3931
v 0.6576 0.4684 -0.3931
v 0.6576 0.4684 -0.3931
v 0.6576 0.4684 -0.3931
v 0.7443 0.5194 -0.3527
v 0.6577 0.5194 -0.3235
v 0.5709 0.5194 -0.3905
v 0.6038 0.5194 -0.4611
v 0.7110 0.5194 -0.4377
v 0.7443 0.6214 -0.3527
v 0.6577 0.6214 -0.3235
v 0.5709 0.6214 -0.3905
v 0.6038 0.6214 -0.4611
v 0.7110 0.6214 -0.4377
v 0.6576 0.6724 -0.3931
v 0.6576 0.6724 -0.3931
v 0.6576 0.6724 -0.3931
v 0.6576 0.6724 -0.3931
v 0.6576 0.6724 -0.3931
v 0.8424 0.4684 -0.3069
v 0.8424 0.4684 -0.3069
v 0.8424 0.4684 -0.3069
v 0.8424 0.4684 -0.3069
v 0.8424 0.4684 -0.3069
v 0.9292 0.5194 -0.2665
v 0.8426 0.5194 -0.2373
v 0.7558 0.5194 -0.3043
v 0.7887 0.5194 -0.3749
v 0.8959 0.5194 -0.3515
v 0.9292 0.6214 -0.2665
v 0.8426 0.6214 -0.2373
v 0.7558 0.6214 -0.3043
v 0.7887 0.6214 -0.3749
v 0.8959 0.6214 -0.3515
v 0.8424 0.6724 -0.3069
v 0.8424 0.6724 -0.3069
v 0.8424 0.6724 -0.3069
v 0.8424 0.6724 -0.3069
v 0.8424 0.6724 -0.3069
v 1.0273 0.4080 -0.2207
v 1.0273 0.4080 -0.2207
v 1.0273 0.4080 -0.2207
v 1.0273 0.4080 -0.2207
v 1.0273 0.4080 -0.2207
v 1.1141 0.4590 -0.1802
v 1.0275 0.4590 -0.1511
v 0.9407 0.4590 -0.2181
v 0.9736 0.4590 -0.2887
v 1.0808 0.4590 -0.2653
v 1.1141 0.5610 -0.1802
v 1.0275 0.5610 -0.1511
v 0.9407 0.5610 -0.2181
v 0.9736 0.5610 -0.2887
v 1.0808 0.5610 -0.2653
v 1.0273 0.6120 -0.2207
v 1.0273 0.6120 -0.2207
v 1.0273 0.6120 -0.2207
v 1.0273 0.6120 -0.2207
v 1.0273 0.6120 -0.2207
v 1.2122 0.2871 -0.1345
v 1.2122 0.2871 -0.1345
v 1.2122 0.2871 -0.1345
v 1.2122 0.2871 -0.1345
v 1.2122 0.2871 -0.1345
v 1.2989 0.3381 -0.0940
v 1.2124 0.3381 -0.0649
v 1.1256 0.3381 -0.1319
v 1.1585 0.3381 -0.2025
v 1.2656 0.3381 -0.1791
v 1.2989 0.4401 -0.0940
v 1.2124 0.4401 -0.0649
v 1.1256 0.4401 -0.1319
v 1.1585 0.4401 -0.2025
v 1.2656 0.4401 -0.1791
v 1.2122 0.4911 -0.1345
v 1.2122 0.4911 -0.1345
v 1.2122 0.4911 -0.1345
v 1.2122 0.4911 -0.1345
v 1.2122 0.4911 -0.1345
vn -0.2474 0.9668 -0.0638
vn -0.1647 0.9502 -0.2646
vn 0.0103 0.9502 -0.3115
vn 0.1824 0.9668 -0.1790
vn 0.2474 0.9668 0.0638
vn 0.1647 0.9502 0.2646
vn -0.0103 0.9502 0.3115
vn -0.1824 0.9668 0.1790
vn -0.8122 0.5445 -0.2094
vn -0.8122 0.5445 -0.2094
vn -0.4682 0.4636 -0.7523
vn -0.4682 0.4636 -0.7523
vn 0.0293 0.4636 -0.8856
vn 0.0293 0.4636 -0.8856
vn 0.5987 0.5445 -0.5875
vn 0.5987 0.5445 -0.5875
vn 0.8122 0.5445 0.2094
vn 0.8122 0.5445 0.2094
vn 0.4682 0.4636 0.7523
vn 0.4682 0.4636 0.7523
vn -0.0293 0.4636 0.8856
vn -0.0293 0.4636 0.8856
vn -0.5987 0.5445 0.5875
vn -0.5987 0.5445 0.5875
vn -0.8122 -0.5445 -0.2094
vn -0.8122 -0.5445 -0.2094
vn -0.4682 -0.4636 -0.7523
vn -0.4682 -0.4636 -0.7523
vn 0.0293 -0.4636 -0.8856
vn 0.0293 -0.4636 -0.8856
vn 0.5987 -0.5445 -0.5875
vn 0.5987 -0.5445 -0.5875
vn 0.8122 -0.5445 0.2094
vn 0.8122 -0.5445 0.2094
vn 0.4682 -0.4636 0.7523
vn 0.4682 -0.4636 0.7523
vn -0.0293 -0.4636 0.8856
vn -0.0293 -0.4636 0.8856
vn -0.5987 -0.5445 0.5875
vn -0.5987 -0.5445 0.5875
vn -0.2474 -0.9668 -0.0638
vn -0.1647 -0.9502 -0.2646
vn 0.0103 -0.9502 -0.3115
vn 0.1824 -0.9668 -0.1790
vn 0.2474 -0.9668 0.0638
vn 0.1647 -0.9502 0.2646
vn -0.0103 -0.9502 0.3115
vn -0.1824 -0.9668 0.1790
vn -0.5219 0.7914 -0.3184
vn -0.0276 0.7332 -0.6795
vn 0.5314 0.8351 -0.1424
vn 0.3159 0.7332 0.6022
vn -0.2928 0.7914 0.5367
vn -0.8537 0.0000 -0.5207
vn -0.8537 0.0000 -0.5207
vn -0.0405 0.0000 -0.9992
vn -0.0405 0.0000 -0.9992
vn 0.9659 0.0000 -0.2588
vn 0.9659 0.0000 -0.2588
vn 0.4645 0.0000 0.8856
vn 0.4645 -0.0000 0.8856
vn -0.4790 0.0000 0.8778
vn -0.4790 0.0000 0.8778
vn -0.5219 -0.7914 -0.3184
vn -0.0276 -0.7332 -0.6795
vn 0.5314 -0.8351 -0.1424
vn 0.3159 -0.7332 0.6022
vn -0.2928 -0.7914 0.5367
vn -0.5219 0.7914 -0.3184
vn -0.0276 0.7332 -0.6795
vn 0.5314 0.8351 -0.1424
vn 0.3159 0.7332 0.6022
vn -0.2928 0.7914 0.5367
vn -0.8537 0.0000 -0.5207
vn -0.8537 0.0000 -0.5207
vn -0.0405 0.0000 -0.9992
vn -0.0405 0.0000 -0.9992
vn 0.9659 -0.0000 -0.2588
vn 0.9659 0.0000 -0.2588
vn 0.4645 0.0000 0.8856
vn 0.4645 0.0000 0.8856
vn -0.4790 0.0000 0.8778
vn -0.4790 0.0000 0.8778
vn -0.5219 -0.7914 -0.3184
vn -0.0276 -0.7332 -0.6795
vn 0.5314 -0.8351 -0.1424
vn 0.3159 -0.7332 0.6022
vn -0.2928 -0.7914 0.5367
vn -0.5219 0.7914 -0.3184
vn -0.0276 0.7332 -0.6795
vn 0.5314 0.8351 -0.1424
vn 0.3159 0.7332 0.6022
vn -0.2928 0.7914 0.5367
vn -0.8537 0.0000 -0.5207
vn -0.8537 0.0000 -0.5207
vn -0.0405 0.0000 -0.9992
vn -0.0405 0.0000 -0.9992
vn 0.9659 0.0000 -0.2588
vn 0.9659 0.0000 -0.2588
vn 0.4645 0.0000 0.8856
vn 0.4645 0.0000 0.8856
vn -0.4790 0.0000 0.8778
vn -0.4790 0.0000 0.8778
vn -0.5219 -0.7914 -0.3184
vn -0.0276 -0.7332 -0.6795
vn 0.5314 -0.8351 -0.1424
vn 0.3159 -0.7332 0.6022
vn -0.2928 -0.7914 0.5367
vn -0.5219 0.7914 -0.3184
vn -0.0276 0.7332 -0.6795
vn 0.5314 0.8351 -0.1424
vn 0.3159 0.7332 0.6022
vn -0.2928 0.7914 0.5367
vn -0.8537 0.0000 -0.5207
vn -0.8537 -0.0000 -0.5207
vn -0.0405 0.0000 -0.9992
vn -0.0405 0.0000 -0.9992
vn 0.9659 0.0000 -0.2588
vn 0.9659 0.0000 -0.2588
vn 0.4645 0.0000 0.8856
vn 0.4645 -0.0000 0.8856
vn -0.4790 0.0000 0.8778
vn -0.4790 -0.0000 0.8778
vn -0.5219 -0.7914 -0.3184
vn -0.0276 -0.7332 -0.6795
vn 0.5314 -0.8351 -0.1424
vn 0.3159 -0.7332 0.6022
vn -0.2928 -0.7914 0.5367
vn -0.5219 0.7914 -0.3184
vn -0.0276 0.7332 -0.6795
vn 0.5314 0.8351 -0.1424
vn 0.3159 0.7332 0.6022
vn -0.2928 0.7914 0.5367
vn -0.8537 0.0000 -0.5207
vn -0.8537 0.0000 -0.5207
vn -0.0405 0.0000 -0.9992
vn -0.0405 0.0000 -0.9992
vn 0.9659 0.0000 -0.2588
vn 0.9659 0.0000 -0.2588
vn 0.4645 0.0000 0.8856
vn 0.4645 0.0000 0.8856
vn -0.4790 0.0000 0.8778
vn -0.4790 0.0000 0.8778
vn -0.5219 -0.7914 -0.3184
vn -0.0276 -0.7332 -0.6795
vn 0.5314 -0.8351 -0.1424
vn 0.3159 -0.7332 0.6022
vn -0.2928 -0.7914 0.5367
vn -0.5219 0.7914 -0.3184
vn -0.0276 0.7332 -0.6795
vn 0.5314 0.8351 -0.1424
vn 0.3159 0.7332 0.6022
vn -0.2928 0.7914 0.5367
vn -0.8537 0.0000 -0.5207
vn -0.8537 0.0000 -0.5207
vn -0.0405 0.0000 -0.9992
vn -0.0405 0.0000 -0.9992
vn 0.9659 0.0000 -0.2588
vn 0.9659 0.0000 -0.2588
vn 0.4645 0.0000 0.8856
vn 0.4645 -0.0000 0.8856
vn -0.4790 0.0000 0.8778
vn -0.4790 0.0000 0.8778
vn -0.5219 -0.7914 -0.3184
vn -0.0276 -0.7332 -0.6795
vn 0.5314 -0.8351 -0.1424
vn 0.3159 -0.7332 0.6022
vn -0.2928 -0.7914 0.5367
vn -0.1485 0.9668 -0.2079
vn 0.0439 0.9502 -0.3085
vn 0.2081 0.9502 -0.2320
vn 0.2547 0.9668 -0.0199
vn 0.1485 0.9668 0.2079
vn -0.0439 0.9502 0.3085
vn -0.2081 0.9502 0.2320
vn -0.2547 0.9668 0.0199
vn -0.4876 0.5445 -0.6825
vn -0.4876 0.5445 -0.6825
vn 0.1249 0.4636 -0.8772
vn 0.1249 0.4636 -0.8772
vn 0.5917 0.4636 -0.6595
vn 0.5917 0.4636 -0.6595
vn 0.8362 0.5445 -0.0652
vn 0.8362 0.5445 -0.0652
vn 0.4876 0.5445 0.6825
vn 0.4876 0.5445 0.6825
vn -0.1249 0.4636 0.8772
vn -0.1249 0.4636 0.8772
vn -0.5917 0.4636 0.6595
vn -0.5917 0.4636 0.6595
vn -0.8362 0.5445 0.0652
vn -0.8362 0.5445 0.0652
vn -0.4876 -0.5445 -0.6825
vn -0.4876 -0.5445 -0.6825
vn 0.1249 -0.4636 -0.8772
vn 0.1249 -0.4636 -0.8772
vn 0.5917 -0.4636 -0.6595
vn 0.5917 -0.4636 -0.6595
vn 0.8362 -0.5445 -0.0652
vn 0.8362 -0.5445 -0.0652
vn 0.4876 -0.5445 0.6825
vn 0.4876 -0.5445 0.6825
vn -0.1249 -0.4636 0.8772
vn -0.1249 -0.4636 0.8772
vn -0.5917 -0.4636 0.6595
vn -0.5917 -0.4636 0.6595
vn -0.8362 -0.5445 0.0652
vn -0.8362 -0.5445 0.0652
vn -0.1485 -0.9668 -0.2079
vn 0.0439 -0.9502 -0.3085
vn 0.2081 -0.9502 -0.2320
vn 0.2547 -0.9668 -0.0199
vn 0.1485 -0.9668 0.2079
vn -0.0439 -0.9502 0.3085
vn -0.2081 -0.9502 0.2320
vn -0.2547 -0.9668 0.0199
vn -0.1952 0.7914 -0.5794
vn 0.4157 0.7332 -0.5382
vn 0.4986 0.8351 0.2325
vn -0.1451 0.7332 0.6644
vn -0.5693 0.7914 0.2229
vn -0.3193 0.0000 -0.9477
vn -0.3193 0.0000 -0.9477
vn 0.6112 0.0000 -0.7915
vn 0.6112 0.0000 -0.7915
vn 0.9063 0.0000 0.4226
vn 0.9063 -0.0000 0.4226
vn -0.2134 0.0000 0.9770
vn -0.2134 0.0000 0.9770
vn -0.9312 0.0000 0.3646
vn -0.9312 0.0000 0.3646
vn -0.1952 -0.7914 -0.5794
vn 0.4157 -0.7332 -0.5382
vn 0.4986 -0.8351 0.2325
vn -0.1451 -0.7332 0.6644
vn -0.5693 -0.7914 0.2229
vn -0.1952 0.7914 -0.5794
vn 0.4157 0.7332 -0.5382
vn 0.4986 0.8351 0.2325
vn -0.1451 0.7332 0.6644
vn -0.5693 0.7914 0.2229
vn -0.3193 0.0000 -0.9477
vn -0.3193 0.0000 -0.9477
vn 0.6112 0.0000 -0.7915
vn 0.6112 0.0000 -0.7915
vn 0.9063 0.0000 0.4226
vn 0.9063 0.0000 0.4226
vn -0.2134 0.0000 0.9770
vn -0.2134 -0.0000 0.9770
vn -0.9312 -0.0000 0.3646
vn -0.9312 0.0000 0.3646
vn -0.1952 -0.7914 -0.5794
vn 0.4157 -0.7332 -0.5382
vn 0.4986 -0.8351 0.2325
vn -0.1451 -0.7332 0.6644
vn -0.5693 -0.7914 0.2229
vn -0.1952 0.7914 -0.5794
vn 0.4157 0.7332 -0.5382
vn 0.4986 0.8351 0.2325
vn -0.1451 0.7332 0.6644
vn -0.5693 0.7914 0.2229
vn -0.3193 0.0000 -0.9477
vn -0.3193 0.0000 -0.9477
vn 0.6112 0.0000 -0.7915
vn 0.6112 0.0000 -0.7915
vn 0.9063 0.0000 0.4226
vn 0.9063 -0.0000 0.4226
vn -0.2134 0.0000 0.9770
vn -0.2134 0.0000 0.9770
vn -0.9312 0.0000 0.3646
vn -0.9312 0.0000 0.3646
vn -0.1952 -0.7914 -0.5794
vn 0.4157 -0.7332 -0.5382
vn 0.4986 -0.8351 0.2325
vn -0.1451 -0.7332 0.6644
vn -0.5693 -0.7914 0.2229
vn -0.1952 0.7914 -0.5794
vn 0.4157 0.7332 -0.5382
vn 0.4986 0.8351 0.2325
vn -0.1451 0.7332 0.6644
vn -0.5693 0.7914 0.2229
vn -0.3193 0.0000 -0.9477
vn -0.3193 0.0000 -0.9477
vn 0.6112 0.0000 -0.7915
vn 0.6112 0.0000 -0.7915
vn 0.9063 0.0000 0.4226
vn 0.9063 -0.0000 0.4226
vn -0.2134 0.0000 0.9770
vn -0.2134 0.0000 0.9770
vn -0.9312 0.0000 0.3646
vn -0.9312 0.0000 0.3646
vn -0.1952 -0.7914 -0.5794
vn 0.4157 -0.7332 -0.5382
vn 0.4986 -0.8351 0.2325
vn -0.1451 -0.7332 0.6644
vn -0.5693 -0.7914 0.2229
vn -0.1952 0.7914 -0.5794
vn 0.4157 0.7332 -0.5382
vn 0.4986 0.8351 0.2325
vn -0.1451 0.7332 0.6644
vn -0.5693 0.7914 0.2229
vn -0.3193 0.0000 -0.9477
vn -0.3193 0.0000 -0.9477
vn 0.6112 0.0000 -0.7915
vn 0.6112 0.0000 -0.7915
vn 0.9063 0.0000 0.4226
vn 0.9063 -0.0000 0.4226
vn -0.2134 -0.0000 0.9770
vn -0.2134 0.0000 0.9770
vn -0.9312 0.0000 0.3646
vn -0.9312 -0.0000 0.3646
vn -0.1952 -0.7914 -0.5794
vn 0.4157 -0.7332 -0.5382
vn 0.4986 -0.8351 0.2325
vn -0.1451 -0.7332 0.6644
vn -0.5693 -0.7914 0.2229
vn -0.1952 0.7914 -0.5794
vn 0.4157 0.7332 -0.5382
vn 0.4986 0.8351 0.2325
vn -0.1451 0.7332 0.6644
vn -0.5693 0.7914 0.2229
vn -0.3193 0.0000 -0.9477
vn -0.3193 0.0000 -0.9477
vn 0.6112 0.0000 -0.7915
vn 0.6112 0.0000 -0.7915
vn 0.9063 0.0000 0.4226
vn 0.9063 0.0000 0.4226
vn -0.2134 0.0000 0.9770
vn -0.2134 0.0000 0.9770
vn -0.9312 0.0000 0.3646
vn -0.9312 0.0000 0.3646
vn -0.1952 -0.7914 -0.5794
vn 0.4157 -0.7332 -0.5382
vn 0.4986 -0.8351 0.2325
vn -0.1451 -0.7332 0.6644
vn -0.5693 -0.7914 0.2229
usemtl c0
f 1//1 10//1 9//1
f 2//2 11//2 10//2
f 3//3 12//3 11//3
f 4//4 13//4 12//4
f 5//5 14//5 13//5
f 6//6 15//6 14//6
f 7//7 16//7 15//7
f 8//8 9//8 16//8
f 9//9 10//9 18//9
f 9//10 18//10 17//10
f 10//11 11//11 19//11
f 10//12 19//12 18//12
f 11//13 12//13 20//13
f 11//14 20//14 19//14
f 12//15 13//15 21//15
f 12//16 21//16 20//16
f 13//17 14//17 22//17
f 13//18 22//18 21//18
f 14//19 15//19 23//19
f 14//20 23//20 22//20
f 15//21 16//21 24//21
f 15//22 24//22 23//22
f 16//23 9//23 17//23
f 16//24 17//24 24//24
f 17//25 18//25 26//25
f 17//26 26//26 25//26
f 18//27 19//27 27//27
f 18//28 27//28 26//28
f 19//29 20//29 28//29
f 19//30 28//30 27//30
f 20//31 21//31 29//31
f 20//32 29//32 28//32
f 21//33 22//33 30//33
f 21//34 30//34 29//34
f 22//35 23//35 31//35
f 22//36 31//36 30//36
f 23//37 24//37 32//37
f 23//38 32//38 31//38
f 24//39 17//39 25//39
f 24//40 25//40 32//40
f 25//41 26//41 34//41
f 26//42 27//42 35//42
f 27//43 28//43 36//43
f 28//44 29//44 37//44
f 29//45 30//45 38//45
f 30//46 31//46 39//46
f 31//47 32//47 40//47
f 32//48 25//48 33//48
usemtl c1
f 41//49 47//49 46//49
f 42//50 48//50 47//50
f 43//51 49//51 48//51
f 44//52 50//52 49//52
f 45//53 46//53 50//53
f 46//54 47//54 52//54
f 46//55 52//55 51//55
f 47//56 48//56 53//56
f 47//57 53//57 52//57
f 48//58 49//58 54//58
f 48//59 54//59 53//59
f 49//60 50//60 55//60
f 49//61 55//61 54//61
f 50//62 46//62 51//62
f 50//63 51//63 55//63
f 51//64 52//64 57//64
f 52//65 53//65 58//65
f 53//66 54//66 59//66
f 54//67 55//67 60//67
f 55//68 51//68 56//68
f 61//69 67//69 66//69
f 62//70 68//70 67//70
f 63//71 69//71 68//71
f 64//72 70//72 69//72
f 65//73 66//73 70//73
f 66//74 67//74 72//74
f 66//75 72//75 71//75
f 67//76 68//76 73//76
f 67//77 73//77 72//77
f 68//78 69//78 74//78
f 68//79 74//79 73//79
f 69//80 70//80 75//80
f 69//81 75//81 74//81
f 70//82 66//82 71//82
f 70//83 71//83 75//83
f 71//84 72//84 77//84
f 72//85 73//85 78//85
f 73//86 74//86 79//86
f 74//87 75//87 80//87
f 75//88 71//88 76//88
f 81//89 87//89 86//89
f 82//90 88//90 87//90
f 83//91 89//91 88//91
f 84//92 90//92 89//92
f 85//93 86//93 90//93
f 86//94 87//94 92//94
f 86//95 92//95 91//95
f 87//96 88//96 93//96
f 87//97 93//97 92//97
f 88//98 89//98 94//98
f 88//99 94//99 93//99
f 89//100 90//100 95//100
f 89//101 95//101 94//101
f 90//102 86//102 91//102
f 90//103 91//103 95//103
f 91//104 92//104 97//104
f 92//105 93//105 98//105
f 93//106 94//106 99//106
f 94//107 95//107 100//107
f 95//108 91//108 96//108
f 101//109 107//109 106//109
f 102//110 108//110 107//110
f 103//111 109//111 108//111
f 104//112 110//112 109//112
f 105//113 106//113 110//113
f 106//114 107//114 112//114
f 106//115 112//115 111//115
f 107//116 108//116 113//116
f 107//117 113//117 112//117
f 108//118 109//118 114//118
f 108//119 114//119 113//119
f 109//120 110//120 115//120
f 109//121 115//121 114//121
f 110//122 106//122 111//122
f 110//123 111//123 115//123
f 111//124 112//124 117//124
f 112//125 113//125 118//125
f 113//126 114//126 119//126
f 114//127 115//127 120//127
f 115//128 111//128 116//128
f 121//129 127//129 126//129
f 122//130 128//130 127//130
f 123//131 129//131 128//131
f 124//132 130//132 129//132
f 125//133 126//133 130//133
f 126//134 127//134 132//134
f 126//135 132//135 131//135
f 127//136 128//136 133//136
f 127//137 133//137 132//137
f 128//138 129//138 134//138
f 128//139 134//139 133//139
f 129//140 130//140 135//140
f 129//141 135//141 134//141
f 130//142 126//142 131//142
f 130//143 131//143 135//143
f 131//144 132//144 137//144
f 132//145 133//145 138//145
f 133//146 134//146 139//146
f 134//147 135//147 140//147
f 135//148 131//148 136//148
f 141//149 147//149 146//149
f 142//150 148//150 147//150
f 143//151 149//151 148//151
f 144//152 150//152 149//152
f 145//153 146//153 150//153
f 146//154 147//154 152//154
f 146//155 152//155 151//155
f 147//156 148//156 153//156
f 147//157 153//157 152//157
f 148//158 149//158 154//158
f 148//159 154//159 153//159
f 149//160 150//160 155//160
f 149//161 155//161 154//161
f 150//162 146//162 151//162
f 150//163 151//163 155//163
f 151//164 152//164 157//164
f 152//165 153//165 158//165
f 153//166 154//166 159//166
f 154//167 155//167 160//167
f 155//168 151//168 156//168
usemtl c0
f 161//169 170//169 169//169
f 162//170 171//170 170//170
f 163//171 172//171 171//171
f 164//172 173//172 172//172
f 165//173 174//173 173//173
f 166//174 175//174 174//174
f 167//175 176//175 175//175
f 168//176 169//176 176//176
f 169//177 170//177 178//177
f 169//178 178//178 177//178
f 170//179 171//179 179//179
f 170//180 179//180 178//180
f 171//181 172//181 180//181
f 171//182 180//182 179//182
f 172//183 173//183 181//183
f 172//184 181//184 180//184
f 173//185 174//185 182//185
f 173//186 182//186 181//186
f 174//187 175//187 183//187
f 174//188 183//188 182//188
f 175//189 176//189 184//189
f 175//190 184//190 183//190
f 176//191 169//191 177//191
f 176//192 177//192 184//192
f 177//193 178//193 186//193
f 177//194 186//194 185//194
f 178//195 179//195 187//195
f 178//196 187//196 186//196
f 179//197 180//197 188//197
f 179//198 188//198 187//198
f 180//199 181//199 189//199
f 180//200 189//200 188//200
f 181//201 182//201 190//201
f 181//202 190//202 189//202
f 182//203 183//203 191//203
f 182//204 191//204 190//204
f 183//205 184//205 192//205
f 183//206 192//206 191//206
f 184//207 177//207 185//207
f 184//208 185//208 192//208
f 185//209 186//209 194//209
f 186//210 187//210 195//210
f 187//211 188//211 196//211
f 188//212 189//212 197//212
f 189//213 190//213 198//213
f 190//214 191//214 199//214
f 191//215 192//215 200//215
f 192//216 185//216 193//216
usemtl c1
f 201//217 207//217 206//217
f 202//218 208//218 207//218
f 203//219 209//219 208//219
f 204//220 210//220 209//220
f 205//221 206//221 210//221
f 206//222 207//222 212//222
f 206//223 212//223 211//223
f 207//224 208//224 213//224
f 207//225 213//225 212//225
f 208//226 209//226 214//226
f 208//227 214//227 213//227
f 209//228 210//228 215//228
f 209//229 215//229 214//229
f 210//230 206//230 211//230
f 210//231 211//231 215//231
f 211//232 212//232 217//232
f 212//233 213//233 218//233
f 213//234 214//234 219//234
f 214//235 215//235 220//235
f 215//236 211//236 216//236
f 221//237 227//237 226//237
f 222//238 228//238 227//238
f 223//239 229//239 228//239
f 224//240 230//240 229//240
f 225//241 226//241 230//241
f 226//242 227//242 232//242
f 226//243 232//243 231//243
f 227//244 228//244 233//244
f 227//245 233//245 232//245
f 228//246 229//246 234//246
f 228//247 234//247 233//247
f 229//248 230//248 235//248
f 229//249 235//249 234//249
f 230//250 226//250 231//250
f 230//251 231//251 235//251
f 231//252 232//252 237//252
f 232//253 233//253 238//253
f 233//254 234//254 239//254
f 234//255 235//255 240//255
f 235//256 231//256 236//256
f 241//257 247//257 246//257
f 242//258 248//258 247//258
f 243//259 249//259 248//259
f 244//260 250//260 249//260
f 245//261 246//261 250//261
f 246//262 247//262 252//262
f 246//263 252//263 251//263
f 247//264 248//264 253//264
f 247//265 253//265 252//265
f 248//266 249//266 254//266
f 248//267 254//267 253//267
f 249//268 250//268 255//268
f 249//269 255//269 254//269
f 250//270 246//270 251//270
f 250//271 251//271 255//271
f 251//272 252//272 257//272
f 252//273 253//273 258//273
f 253//274 254//274 259//274
f 254//275 255//275 260//275
f 255//276 251//276 256//276
f 261//277 267//277 266//277
f 262//278 268//278 267//278
f 263//279 269//279 268//279
f 264//280 270//280 269//280
f 265//281 266//281 270//281
f 266//282 267//282 272//282
f 266//283 272//283 271//283
f 267//284 268//284 273//284
f 267//285 273//285 272//285
f 268//286 269//286 274//286
f 268//287 274//287 273//287
f 269//288 270//288 275//288
f 269//289 275//289 274//289
f 270//290 266//290 271//290
f 270//291 271//291 275//291
f 271//292 272//292 277//292
f 272//293 273//293 278//293
f 273//294 274//294 279//294
f 274//295 275//295 280//295
f 275//296 271//296 276//296
f 281//297 287//297 286//297
f 282//298 288//298 287//298
f 283//299 289//299 288//299
f 284//300 290//300 289//300
f 285//301 286//301 290//301
f 286//302 287//302 292//302
f 286//303 292//303 291//303
f 287//304 288//304 293//304
f 287//305 293//305 292//305
f 288//306 289//306 294//306
f 288//307 294//307 293//307
f 289//308 290//308 295//308
f 289//309 295//309 294//309
f 290//310 286//310 291//310
f 290//311 291//311 295//311
f 291//312 292//312 297//312
f 292//313 293//313 298//313
f 293//314 294//314 299//314
f 294//315 295//315 300//315
f 295//316 291//316 296//316
f 301//317 307//317 306//317
f 302//318 308//318 307//318
f 303//319 309//319 308//319
f 304//320 310//320 309//320
f 305//321 306//321 310//321
f 306//322 307//322 312//322
f 306//323 312//323 311//323
f 307//324 308//324 313//324
f 307//325 313//325 312//325
f 308//326 309//326 314//326
f 308//327 314//327 313//327
f 309//328 310//328 315//328
f 309//329 315//329 314//329
f 310//330 306//330 311//330
f 310//331 311//331 315//331
f 311//332 312//332 317//332
f 312//333 313//333 318//333
f 313//334 314//334 319//334
f 314//335 315//335 320//335
f 315//336 311//336 316//336
