mtllib Food_PorkCutlet.mtl
v -0.9300 0.0000 -0.7500
v -0.5100 0.0000 -0.7500
v -0.5100 0.0000 0.7500
v -0.9300 0.0000 0.7500
v -0.9300 0.3600 -0.7500
v -0.5100 0.3600 -0.7500
v -0.5100 0.3600 0.7500
v -0.9300 0.3600 0.7500
v -0.7200 0.0000 0.0000
v -0.7200 0.3600 0.0000
v -0.8800 0.0500 0.7400
v -0.5600 0.0500 0.7400
v -0.5600 0.0500 0.7600
v -0.8800 0.0500 0.7600
v -0.8800 0.3100 0.7400
v -0.5600 0.3100 0.7400
v -0.5600 0.3100 0.7600
v -0.8800 0.3100 0.7600
v -0.7200 0.0500 0.7500
v -0.7200 0.3100 0.7500
v -0.4500 0.0000 -0.7500
v -0.0300 0.0000 -0.7500
v -0.0300 0.0000 0.7500
v -0.4500 0.0000 0.7500
v -0.4500 0.3600 -0.7500
v -0.0300 0.3600 -0.7500
v -0.0300 0.3600 0.7500
v -0.4500 0.3600 0.7500
v -0.2400 0.0000 0.0000
v -0.2400 0.3600 0.0000
v -0.4000 0.0500 0.7400
v -0.0800 0.0500 0.7400
v -0.0800 0.0500 0.7600
v -0.4000 0.0500 0.7600
v -0.4000 0.3100 0.7400
v -0.0800 0.3100 0.7400
v -0.0800 0.3100 0.7600
v -0.4000 0.3100 0.7600
v -0.2400 0.0500 0.7500
v -0.2400 0.3100 0.7500
v 0.0300 0.0000 -0.7500
v 0.4500 0.0000 -0.7500
v 0.4500 0.0000 0.7500
v 0.0300 0.0000 0.7500
v 0.0300 0.3600 -0.7500
v 0.4500 0.3600 -0.7500
v 0.4500 0.3600 0.7500
v 0.0300 0.3600 0.7500
v 0.2400 0.0000 0.0000
v 0.2400 0.3600 0.0000
v 0.0800 0.0500 0.7400
v 0.4000 0.0500 0.7400
v 0.4000 0.0500 0.7600
v 0.0800 0.0500 0.7600
v 0.0800 0.3100 0.7400
v 0.4000 0.3100 0.7400
v 0.4000 0.3100 0.7600
v 0.0800 0.3100 0.7600
v 0.2400 0.0500 0.7500
v 0.2400 0.3100 0.7500
v 0.5100 0.0000 -0.7500
v 0.9300 0.0000 -0.7500
v 0.9300 0.0000 0.7500
v 0.5100 0.0000 0.7500
v 0.5100 0.3600 -0.7500
v 0.9300 0.3600 -0.7500
v 0.9300 0.3600 0.7500
v 0.5100 0.3600 0.7500
v 0.7200 0.0000 0.0000
v 0.7200 0.3600 0.0000
v 0.5600 0.0500 0.7400
v 0.8800 0.0500 0.7400
v 0.8800 0.0500 0.7600
v 0.5600 0.0500 0.7600
v 0.5600 0.3100 0.7400
v 0.8800 0.3100 0.7400
v 0.8800 0.3100 0.7600
v 0.5600 0.3100 0.7600
v 0.7200 0.0500 0.7500
v 0.7200 0.3100 0.7500
v 0.9000 0.0300 -0.7000
v 0.9000 0.0300 -0.7000
v 0.9000 0.0300 -0.7000
v 0.9000 0.0300 -0.7000
v 0.9000 0.0300 -0.7000
v 0.9000 0.0300 -0.7000
v 1.1441 0.0650 -0.7889
v 1.0734 0.0650 -0.6035
v 0.8292 0.0650 -0.5146
v 0.6559 0.0650 -0.6111
v 0.7266 0.0650 -0.7965
v 0.9708 0.0650 -0.8854
v 1.1441 0.1350 -0.7889
v 1.0734 0.1350 -0.6035
v 0.8292 0.1350 -0.5146
v 0.6559 0.1350 -0.6111
v 0.7266 0.1350 -0.7965
v 0.9708 0.1350 -0.8854
v 0.9000 0.1700 -0.7000
v 0.9000 0.1700 -0.7000
v 0.9000 0.1700 -0.7000
v 0.9000 0.1700 -0.7000
v 0.9000 0.1700 -0.7000
v 0.9000 0.1700 -0.7000
v 1.0500 0.0300 -0.3000
v 1.0500 0.0300 -0.3000
v 1.0500 0.0300 -0.3000
v 1.0500 0.0300 -0.3000
v 1.0500 0.0300 -0.3000
v 1.0500 0.0300 -0.3000
v 1.2941 0.0650 -0.2111
v 1.1208 0.0650 -0.1146
v 0.8766 0.0650 -0.2035
v 0.8059 0.0650 -0.3889
v 0.9792 0.0650 -0.4854
v 1.2234 0.0650 -0.3965
v 1.2941 0.1350 -0.2111
v 1.1208 0.1350 -0.1146
v 0.8766 0.1350 -0.2035
v 0.8059 0.1350 -0.3889
v 0.9792 0.1350 -0.4854
v 1.2234 0.1350 -0.3965
v 1.0500 0.1700 -0.3000
v 1.0500 0.1700 -0.3000
v 1.0500 0.1700 -0.3000
v 1.0500 0.1700 -0.3000
v 1.0500 0.1700 -0.3000
v 1.0500 0.1700 -0.3000
v 0.8500 0.0300 -0.4000
v 0.8500 0.0300 -0.4000
v 0.8500 0.0300 -0.4000
v 0.8500 0.0300 -0.4000
v 0.8500 0.0300 -0.4000
v 0.8500 0.0300 -0.4000
v 0.9799 0.0650 -0.6250
v 1.0449 0.0650 -0.4375
v 0.9150 0.0650 -0.2125
v 0.7201 0.0650 -0.1750
v 0.6551 0.0650 -0.3625
v 0.7850 0.0650 -0.5875
v 0.9799 0.1350 -0.6250
v 1.0449 0.1350 -0.4375
v 0.9150 0.1350 -0.2125
v 0.7201 0.1350 -0.1750
v 0.6551 0.1350 -0.3625
v 0.7850 0.1350 -0.5875
v 0.8500 0.1700 -0.4000
v 0.8500 0.1700 -0.4000
v 0.8500 0.1700 -0.4000
v 0.8500 0.1700 -0.4000
v 0.8500 0.1700 -0.4000
v 0.8500 0.1700 -0.4000
vn 0.0000 0.0000 1.0000
vn 0.0000 0.0000 1.0000
vn 0.0000 1.0000 0.0000
vn 0.0000 -1.0000 -0.0000
vn -1.0000 0.0000 0.0000
vn -1.0000 0.0000 0.0000
vn -0.0000 1.0000 0.0000
vn 0.0000 -1.0000 0.0000
vn 0.0000 0.0000 -1.0000
vn 0.0000 0.0000 -1.0000
vn 0.0000 1.0000 -0.0000
vn 0.0000 -1.0000 0.0000
vn 1.0000 0.0000 0.0000
vn 1.0000 -0.0000 0.0000
vn 0.0000 1.0000 0.0000
vn -0.0000 -1.0000 0.0000
vn 0.0000 0.0000 1.0000
vn 0.0000 0.0000 1.0000
vn 0.0000 1.0000 0.0000
vn 0.0000 -1.0000 -0.0000
vn -1.0000 0.0000 0.0000
vn -1.0000 0.0000 0.0000
vn -0.0000 1.0000 0.0000
vn 0.0000 -1.0000 0.0000
vn 0.0000 0.0000 -1.0000
vn 0.0000 0.0000 -1.0000
vn 0.0000 1.0000 -0.0000
vn 0.0000 -1.0000 0.0000
vn 1.0000 0.0000 0.0000
vn 1.0000 -0.0000 0.0000
vn 0.0000 1.0000 0.0000
vn -0.0000 -1.0000 0.0000
vn 0.0000 0.0000 1.0000
vn 0.0000 0.0000 1.0000
vn 0.0000 1.0000 0.0000
vn 0.0000 -1.0000 -0.0000
vn -1.0000 0.0000 0.0000
vn -1.0000 0.0000 0.0000
vn -0.0000 1.0000 0.0000
vn 0.0000 -1.0000 0.0000
vn 0.0000 0.0000 -1.0000
vn 0.0000 0.0000 -1.0000
vn 0.0000 1.0000 -0.0000
vn 0.0000 -1.0000 0.0000
vn 1.0000 0.0000 0.0000
vn 1.0000 -0.0000 0.0000
vn 0.0000 1.0000 0.0000
vn -0.0000 -1.0000 0.0000
vn 0.0000 0.0000 1.0000
vn 0.0000 0.0000 1.0000
vn 0.0000 1.0000 0.0000
vn 0.0000 -1.0000 -0.0000
vn -1.0000 0.0000 0.0000
vn -1.0000 0.0000 0.0000
vn -0.0000 1.0000 0.0000
vn 0.0000 -1.0000 0.0000
vn 0.0000 0.0000 -1.0000
vn 0.0000 0.0000 -1.0000
vn 0.0000 1.0000 -0.0000
vn 0.0000 -1.0000 0.0000
vn 1.0000 0.0000 0.0000
vn 1.0000 -0.0000 0.0000
vn 0.0000 1.0000 0.0000
vn -0.0000 -1.0000 0.0000
vn 0.0000 0.0000 1.0000
vn 0.0000 0.0000 1.0000
vn 0.0000 1.0000 0.0000
vn 0.0000 -1.0000 -0.0000
vn -1.0000 0.0000 0.0000
vn -1.0000 0.0000 0.0000
vn -0.0000 1.0000 0.0000
vn 0.0000 -1.0000 0.0000
vn 0.0000 0.0000 -1.0000
vn 0.0000 0.0000 -1.0000
vn 0.0000 1.0000 -0.0000
vn 0.0000 -1.0000 0.0000
vn 1.0000 0.0000 0.0000
vn 1.0000 -0.0000 0.0000
vn 0.0000 1.0000 0.0000
vn -0.0000 -1.0000 0.0000
vn 0.0000 0.0000 1.0000
vn 0.0000 0.0000 1.0000
vn 0.0000 1.0000 0.0000
vn 0.0000 -1.0000 -0.0000
vn -1.0000 0.0000 0.0000
vn -1.0000 0.0000 0.0000
vn -0.0000 1.0000 0.0000
vn 0.0000 -1.0000 0.0000
vn 0.0000 0.0000 -1.0000
vn 0.0000 0.0000 -1.0000
vn 0.0000 1.0000 -0.0000
vn 0.0000 -1.0000 0.0000
vn 1.0000 0.0000 0.0000
vn 1.0000 -0.0000 0.0000
vn 0.0000 1.0000 0.0000
vn -0.0000 -1.0000 0.0000
vn 0.0000 0.0000 1.0000
vn 0.0000 0.0000 1.0000
vn 0.0000 1.0000 0.0000
vn 0.0000 -1.0000 -0.0000
vn -1.0000 0.0000 0.0000
vn -1.0000 0.0000 0.0000
vn -0.0000 1.0000 0.0000
vn 0.0000 -1.0000 0.0000
vn 0.0000 0.0000 -1.0000
vn 0.0000 0.0000 -1.0000
vn 0.0000 1.0000 -0.0000
vn 0.0000 -1.0000 0.0000
vn 1.0000 0.0000 0.0000
vn 1.0000 -0.0000 0.0000
vn 0.0000 1.0000 0.0000
vn -0.0000 -1.0000 0.0000
vn 0.0000 0.0000 1.0000
vn 0.0000 0.0000 1.0000
vn 0.0000 1.0000 0.0000
vn 0.0000 -1.0000 -0.0000
vn -1.0000 0.0000 0.0000
vn -1.0000 0.0000 0.0000
vn -0.0000 1.0000 0.0000
vn 0.0000 -1.0000 0.0000
vn 0.0000 0.0000 -1.0000
vn 0.0000 0.0000 -1.0000
vn 0.0000 1.0000 -0.0000
vn 0.0000 -1.0000 0.0000
vn 1.0000 0.0000 0.0000
vn 1.0000 -0.0000 0.0000
vn 0.0000 1.0000 0.0000
vn -0.0000 -1.0000 0.0000
vn -0.1639 0.9845 -0.0626
vn -0.0777 0.9738 -0.2135
vn 0.0853 0.9845 -0.1533
vn 0.1639 0.9845 0.0626
vn 0.0777 0.9738 0.2135
vn -0.0853 0.9845 0.1533
vn -0.9342 0.0000 -0.3566
vn -0.9342 0.0000 -0.3566
vn -0.3420 0.0000 -0.9397
vn -0.3420 0.0000 -0.9397
vn 0.4864 0.0000 -0.8737
vn 0.4864 0.0000 -0.8737
vn 0.9342 0.0000 0.3566
vn 0.9342 -0.0000 0.3566
vn 0.3420 0.0000 0.9397
vn 0.3420 0.0000 0.9397
vn -0.4864 0.0000 0.8737
vn -0.4864 0.0000 0.8737
vn -0.1639 -0.9845 -0.0626
vn -0.0777 -0.9738 -0.2135
vn 0.0853 -0.9845 -0.1533
vn 0.1639 -0.9845 0.0626
vn 0.0777 -0.9738 0.2135
vn -0.0853 -0.9845 0.1533
vn -0.0853 0.9845 -0.1533
vn 0.0777 0.9738 -0.2135
vn 0.1639 0.9845 -0.0626
vn 0.0853 0.9845 0.1533
vn -0.0777 0.9738 0.2135
vn -0.1639 0.9845 0.0626
vn -0.4864 0.0000 -0.8737
vn -0.4864 0.0000 -0.8737
vn 0.3420 -0.0000 -0.9397
vn 0.3420 0.0000 -0.9397
vn 0.9342 0.0000 -0.3566
vn 0.9342 -0.0000 -0.3566
vn 0.4864 0.0000 0.8737
vn 0.4864 -0.0000 0.8737
vn -0.3420 0.0000 0.9397
vn -0.3420 0.0000 0.9397
vn -0.9342 0.0000 0.3566
vn -0.9342 0.0000 0.3566
vn -0.0853 -0.9845 -0.1533
vn 0.0777 -0.9738 -0.2135
vn 0.1639 -0.9845 -0.0626
vn 0.0853 -0.9845 0.1533
vn -0.0777 -0.9738 0.2135
vn -0.1639 -0.9845 0.0626
vn -0.1658 0.9845 0.0574
vn -0.1968 0.9738 -0.1136
vn -0.0332 0.9845 -0.1723
vn 0.1658 0.9845 -0.0574
vn 0.1968 0.9738 0.1136
vn 0.0332 0.9845 0.1723
vn -0.9449 0.0000 0.3273
vn -0.9449 0.0000 0.3273
vn -0.8660 0.0000 -0.5000
vn -0.8660 0.0000 -0.5000
vn -0.1890 0.0000 -0.9820
vn -0.1890 0.0000 -0.9820
vn 0.9449 0.0000 -0.3273
vn 0.9449 0.0000 -0.3273
vn 0.8660 0.0000 0.5000
vn 0.8660 -0.0000 0.5000
vn 0.1890 0.0000 0.9820
vn 0.1890 0.0000 0.9820
vn -0.1658 -0.9845 0.0574
vn -0.1968 -0.9738 -0.1136
vn -0.0332 -0.9845 -0.1723
vn 0.1658 -0.9845 -0.0574
vn 0.1968 -0.9738 0.1136
vn 0.0332 -0.9845 0.1723
usemtl c0
f 1//1 2//1 6//1
f 1//2 6//2 5//2
f 9//3 2//3 1//3
f 10//4 5//4 6//4
f 2//5 3//5 7//5
f 2//6 7//6 6//6
f 9//7 3//7 2//7
f 10//8 6//8 7//8
f 3//9 4//9 8//9
f 3//10 8//10 7//10
f 9//11 4//11 3//11
f 10//12 7//12 8//12
f 4//13 1//13 5//13
f 4//14 5//14 8//14
f 9//15 1//15 4//15
f 10//16 8//16 5//16
usemtl c1
f 11//17 12//17 16//17
f 11//18 16//18 15//18
f 19//19 12//19 11//19
f 20//20 15//20 16//20
f 12//21 13//21 17//21
f 12//22 17//22 16//22
f 19//23 13//23 12//23
f 20//24 16//24 17//24
f 13//25 14//25 18//25
f 13//26 18//26 17//26
f 19//27 14//27 13//27
f 20//28 17//28 18//28
f 14//29 11//29 15//29
f 14//30 15//30 18//30
f 19//31 11//31 14//31
f 20//32 18//32 15//32
usemtl c0
f 21//33 22//33 26//33
f 21//34 26//34 25//34
f 29//35 22//35 21//35
f 30//36 25//36 26//36
f 22//37 23//37 27//37
f 22//38 27//38 26//38
f 29//39 23//39 22//39
f 30//40 26//40 27//40
f 23//41 24//41 28//41
f 23//42 28//42 27//42
f 29//43 24//43 23//43
f 30//44 27//44 28//44
f 24//45 21//45 25//45
f 24//46 25//46 28//46
f 29//47 21//47 24//47
f 30//48 28//48 25//48
usemtl c1
f 31//49 32//49 36//49
f 31//50 36//50 35//50
f 39//51 32//51 31//51
f 40//52 35//52 36//52
f 32//53 33//53 37//53
f 32//54 37//54 36//54
f 39//55 33//55 32//55
f 40//56 36//56 37//56
f 33//57 34//57 38//57
f 33//58 38//58 37//58
f 39//59 34//59 33//59
f 40//60 37//60 38//60
f 34//61 31//61 35//61
f 34//62 35//62 38//62
f 39//63 31//63 34//63
f 40//64 38//64 35//64
usemtl c0
f 41//65 42//65 46//65
f 41//66 46//66 45//66
f 49//67 42//67 41//67
f 50//68 45//68 46//68
f 42//69 43//69 47//69
f 42//70 47//70 46//70
f 49//71 43//71 42//71
f 50//72 46//72 47//72
f 43//73 44//73 48//73
f 43//74 48//74 47//74
f 49//75 44//75 43//75
f 50//76 47//76 48//76
f 44//77 41//77 45//77
f 44//78 45//78 48//78
f 49//79 41//79 44//79
f 50//80 48//80 45//80
usemtl c1
f 51//81 52//81 56//81
f 51//82 56//82 55//82
f 59//83 52//83 51//83
f 60//84 55//84 56//84
f 52//85 53//85 57//85
f 52//86 57//86 56//86
f 59//87 53//87 52//87
f 60//88 56//88 57//88
f 53//89 54//89 58//89
f 53//90 58//90 57//90
f 59//91 54//91 53//91
f 60//92 57//92 58//92
f 54//93 51//93 55//93
f 54//94 55//94 58//94
f 59//95 51//95 54//95
f 60//96 58//96 55//96
usemtl c0
f 61//97 62//97 66//97
f 61//98 66//98 65//98
f 69//99 62//99 61//99
f 70//100 65//100 66//100
f 62//101 63//101 67//101
f 62//102 67//102 66//102
f 69//103 63//103 62//103
f 70//104 66//104 67//104
f 63//105 64//105 68//105
f 63//106 68//106 67//106
f 69//107 64//107 63//107
f 70//108 67//108 68//108
f 64//109 61//109 65//109
f 64//110 65//110 68//110
f 69//111 61//111 64//111
f 70//112 68//112 65//112
usemtl c1
f 71//113 72//113 76//113
f 71//114 76//114 75//114
f 79//115 72//115 71//115
f 80//116 75//116 76//116
f 72//117 73//117 77//117
f 72//118 77//118 76//118
f 79//119 73//119 72//119
f 80//120 76//120 77//120
f 73//121 74//121 78//121
f 73//122 78//122 77//122
f 79//123 74//123 73//123
f 80//124 77//124 78//124
f 74//125 71//125 75//125
f 74//126 75//126 78//126
f 79//127 71//127 74//127
f 80//128 78//128 75//128
usemtl c2
f 81//129 88//129 87//129
f 82//130 89//130 88//130
f 83//131 90//131 89//131
f 84//132 91//132 90//132
f 85//133 92//133 91//133
f 86//134 87//134 92//134
f 87//135 88//135 94//135
f 87//136 94//136 93//136
f 88//137 89//137 95//137
f 88//138 95//138 94//138
f 89//139 90//139 96//139
f 89//140 96//140 95//140
f 90//141 91//141 97//141
f 90//142 97//142 96//142
f 91//143 92//143 98//143
f 91//144 98//144 97//144
f 92//145 87//145 93//145
f 92//146 93//146 98//146
f 93//147 94//147 100//147
f 94//148 95//148 101//148
f 95//149 96//149 102//149
f 96//150 97//150 103//150
f 97//151 98//151 104//151
f 98//152 93//152 99//152
f 105//153 112//153 111//153
f 106//154 113//154 112//154
f 107//155 114//155 113//155
f 108//156 115//156 114//156
f 109//157 116//157 115//157
f 110//158 111//158 116//158
f 111//159 112//159 118//159
f 111//160 118//160 117//160
f 112//161 113//161 119//161
f 112//162 119//162 118//162
f 113//163 114//163 120//163
f 113//164 120//164 119//164
f 114//165 115//165 121//165
f 114//166 121//166 120//166
f 115//167 116//167 122//167
f 115//168 122//168 121//168
f 116//169 111//169 117//169
f 116//170 117//170 122//170
f 117//171 118//171 124//171
f 118//172 119//172 125//172
f 119//173 120//173 126//173
f 120//174 121//174 127//174
f 121//175 122//175 128//175
f 122//176 117//176 123//176
f 129//177 136//177 135//177
f 130//178 137//178 136//178
f 131//179 138//179 137//179
f 132//180 139//180 138//180
f 133//181 140//181 139//181
f 134//182 135//182 140//182
f 135//183 136//183 142//183
f 135//184 142//184 141//184
f 136//185 137//185 143//185
f 136//186 143//186 142//186
f 137//187 138//187 144//187
f 137//188 144//188 143//188
f 138//189 139//189 145//189
f 138//190 145//190 144//190
f 139//191 140//191 146//191
f 139//192 146//192 145//192
f 140//193 135//193 141//193
f 140//194 141//194 146//194
f 141//195 142//195 148//195
f 142//196 143//196 149//196
f 143//197 144//197 150//197
f 144//198 145//198 151//198
f 145//199 146//199 152//199
f 146//200 141//200 147//200
