mtllib Food_Cucumber.mtl
v -1.1413 0.3708 0.0000
v -1.1413 0.3708 0.0000
v -1.1413 0.3708 0.0000
v -1.1413 0.3708 0.0000
v -1.1413 0.3708 0.0000
v -1.1413 0.3708 0.0000
v -1.1413 0.3708 0.0000
v -0.7804 0.5107 0.0000
v -0.8088 0.4231 0.1912
v -0.8728 0.2264 0.2384
v -0.9240 0.0686 0.1061
v -0.9240 0.0686 -0.1061
v -0.8728 0.2264 -0.2384
v -0.8088 0.4231 -0.1912
v -0.4809 0.4616 0.0000
v -0.5147 0.3576 0.2270
v -0.5906 0.1240 0.2831
v -0.6515 -0.0634 0.1260
v -0.6515 -0.0634 -0.1260
v -0.5906 0.1240 -0.2831
v -0.5147 0.3576 -0.2270
v -0.1886 0.3904 0.0000
v -0.2250 0.2783 0.2447
v -0.3068 0.0265 0.3051
v -0.3725 -0.1755 0.1358
v -0.3725 -0.1755 -0.1358
v -0.3068 0.0265 -0.3051
v -0.2250 0.2783 -0.2447
v 0.0989 0.3043 0.0000
v 0.0617 0.1898 0.2502
v -0.0220 -0.0677 0.3120
v -0.0891 -0.2742 0.1388
v -0.0891 -0.2742 -0.1388
v -0.0220 -0.0677 -0.3120
v 0.0617 0.1898 -0.2502
v 0.3820 0.2050 0.0000
v 0.3456 0.0929 0.2447
v 0.2638 -0.1589 0.3051
v 0.1982 -0.3609 0.1358
v 0.1982 -0.3609 -0.1358
v 0.2638 -0.1589 -0.3051
v 0.3456 0.0929 -0.2447
v 0.6604 0.0908 0.0000
v 0.6266 -0.0132 0.2270
v 0.5507 -0.2469 0.2831
v 0.4898 -0.4343 0.1260
v 0.4898 -0.4343 -0.1260
v 0.5507 -0.2469 -0.2831
v 0.6266 -0.0132 -0.2270
v 0.9315 -0.0455 0.0000
v 0.9031 -0.1331 0.1912
v 0.8391 -0.3299 0.2384
v 0.7879 -0.4877 0.1061
v 0.7879 -0.4877 -0.1061
v 0.8391 -0.3299 -0.2384
v 0.9031 -0.1331 -0.1912
v 1.1413 -0.3708 0.0000
v 1.1413 -0.3708 0.0000
v 1.1413 -0.3708 0.0000
v 1.1413 -0.3708 0.0000
v 1.1413 -0.3708 -0.0000
v 1.1413 -0.3708 -0.0000
v 1.1413 -0.3708 -0.0000
v -0.4934 0.4232 0.1000
v -0.4934 0.4232 0.1000
v -0.4934 0.4232 0.1000
v -0.4934 0.4232 0.1000
v -0.4304 0.4553 0.1000
v -0.4779 0.4707 0.1500
v -0.5255 0.4862 0.1000
v -0.4779 0.4707 0.0500
v -0.4625 0.5183 0.1000
v -0.4625 0.5183 0.1000
v -0.4625 0.5183 0.1000
v -0.4625 0.5183 0.1000
v -0.0179 0.2687 0.1000
v -0.0179 0.2687 0.1000
v -0.0179 0.2687 0.1000
v -0.0179 0.2687 0.1000
v 0.0452 0.3008 0.1000
v -0.0024 0.3162 0.1500
v -0.0500 0.3317 0.1000
v -0.0024 0.3162 0.0500
v 0.0131 0.3638 0.1000
v 0.0131 0.3638 0.1000
v 0.0131 0.3638 0.1000
v 0.0131 0.3638 0.1000
v 0.5528 0.0833 0.1000
v 0.5528 0.0833 0.1000
v 0.5528 0.0833 0.1000
v 0.5528 0.0833 0.1000
v 0.6158 0.1154 0.1000
v 0.5682 0.1308 0.1500
v 0.5207 0.1463 0.1000
v 0.5682 0.1308 0.0500
v 0.5837 0.1784 0.1000
v 0.5837 0.1784 0.1000
v 0.5837 0.1784 0.1000
v 0.5837 0.1784 0.1000
vn -0.3386 0.8735 0.3497
vn -0.5075 0.3535 0.7858
vn -0.7182 -0.2950 0.6302
vn -0.8120 -0.5836 0.0000
vn -0.7182 -0.2950 -0.6302
vn -0.5075 0.3535 -0.7858
vn -0.3386 0.8735 -0.3497
vn 0.1460 0.8910 0.4298
vn 0.1460 0.8910 0.4298
vn -0.0617 0.2518 0.9658
vn -0.0617 0.2518 0.9658
vn -0.3207 -0.5453 0.7745
vn -0.3207 -0.5453 0.7745
vn -0.4359 -0.9000 0.0000
vn -0.4359 -0.9000 0.0000
vn -0.3207 -0.5453 -0.7745
vn -0.3207 -0.5453 -0.7745
vn -0.0617 0.2518 -0.9658
vn -0.0617 0.2518 -0.9658
vn 0.1460 0.8910 -0.4298
vn 0.1460 0.8910 -0.4298
vn 0.2134 0.8758 0.4329
vn 0.2134 0.8758 0.4329
vn 0.0043 0.2321 0.9727
vn 0.0043 0.2321 0.9727
vn -0.2566 -0.5707 0.7800
vn -0.2566 -0.5707 0.7800
vn -0.3726 -0.9280 -0.0000
vn -0.3726 -0.9280 0.0000
vn -0.2566 -0.5707 -0.7800
vn -0.2566 -0.5707 -0.7800
vn 0.0043 0.2321 -0.9727
vn 0.0043 0.2321 -0.9727
vn 0.2134 0.8758 -0.4329
vn 0.2134 0.8758 -0.4329
vn 0.2583 0.8632 0.4338
vn 0.2583 0.8632 0.4338
vn 0.0487 0.2181 0.9747
vn 0.0487 0.2181 0.9747
vn -0.2127 -0.5863 0.7817
vn -0.2127 -0.5863 0.7817
vn -0.3290 -0.9443 0.0000
vn -0.3290 -0.9443 0.0000
vn -0.2127 -0.5863 -0.7817
vn -0.2127 -0.5863 -0.7817
vn 0.0487 0.2181 -0.9747
vn 0.0487 0.2181 -0.9747
vn 0.2583 0.8632 -0.4338
vn 0.2583 0.8632 -0.4338
vn 0.2984 0.8502 0.4338
vn 0.2984 0.8502 0.4338
vn 0.0888 0.2051 0.9747
vn 0.0888 0.2051 0.9747
vn -0.1726 -0.5994 0.7817
vn -0.1726 -0.5994 0.7817
vn -0.2889 -0.9574 -0.0000
vn -0.2889 -0.9574 0.0000
vn -0.1726 -0.5994 -0.7817
vn -0.1726 -0.5994 -0.7817
vn 0.0888 0.2051 -0.9747
vn 0.0888 0.2051 -0.9747
vn 0.2984 0.8502 -0.4338
vn 0.2984 0.8502 -0.4338
vn 0.3421 0.8340 0.4329
vn 0.3421 0.8340 0.4329
vn 0.1329 0.1902 0.9727
vn 0.1329 0.1902 0.9727
vn -0.1279 -0.6125 0.7800
vn -0.1279 -0.6125 0.7800
vn -0.2440 -0.9698 0.0000
vn -0.2440 -0.9698 0.0000
vn -0.1279 -0.6125 -0.7800
vn -0.1279 -0.6125 -0.7800
vn 0.1329 0.1902 -0.9727
vn 0.1329 0.1902 -0.9727
vn 0.3421 0.8340 -0.4329
vn 0.3421 0.8340 -0.4329
vn 0.4056 0.8067 0.4298
vn 0.4056 0.8067 0.4298
vn 0.1979 0.1675 0.9658
vn 0.1979 0.1675 0.9658
vn -0.0611 -0.6296 0.7745
vn -0.0611 -0.6296 0.7745
vn -0.1763 -0.9843 -0.0000
vn -0.1763 -0.9843 0.0000
vn -0.0611 -0.6296 -0.7745
vn -0.0611 -0.6296 -0.7745
vn 0.1979 0.1675 -0.9658
vn 0.1979 0.1675 -0.9658
vn 0.4056 0.8067 -0.4298
vn 0.4056 0.8067 -0.4298
vn 0.7873 0.5077 0.3497
vn 0.7873 0.5077 0.3497
vn 0.6184 -0.0123 0.7858
vn 0.6184 -0.0123 0.7858
vn 0.4076 -0.6609 0.6302
vn 0.4076 -0.6609 0.6302
vn 0.3139 -0.9495 0.0000
vn 0.3139 -0.9495 0.0000
vn 0.4076 -0.6609 -0.6302
vn 0.4076 -0.6609 -0.6302
vn 0.6184 -0.0123 -0.7858
vn 0.6184 -0.0123 -0.7858
vn 0.7873 0.5077 -0.3497
vn 0.7873 0.5077 -0.3497
vn -0.3707 0.7275 -0.5774
vn 0.7275 0.3707 -0.5774
vn 0.7275 0.3707 0.5774
vn -0.3707 0.7275 0.5774
vn -0.7275 -0.3707 -0.5774
vn 0.3707 -0.7275 -0.5774
vn 0.3707 -0.7275 0.5774
vn -0.7275 -0.3707 0.5774
vn -0.3707 0.7275 -0.5774
vn 0.7275 0.3707 -0.5774
vn 0.7275 0.3707 0.5774
vn -0.3707 0.7275 0.5774
vn -0.7275 -0.3707 -0.5774
vn 0.3707 -0.7275 -0.5774
vn 0.3707 -0.7275 0.5774
vn -0.7275 -0.3707 0.5774
vn -0.3707 0.7275 -0.5774
vn 0.7275 0.3707 -0.5774
vn 0.7275 0.3707 0.5774
vn -0.3707 0.7275 0.5774
vn -0.7275 -0.3707 -0.5774
vn 0.3707 -0.7275 -0.5774
vn 0.3707 -0.7275 0.5774
vn -0.7275 -0.3707 0.5774
usemtl c0
f 1//1 9//1 8//1
f 2//2 10//2 9//2
f 3//3 11//3 10//3
f 4//4 12//4 11//4
f 5//5 13//5 12//5
f 6//6 14//6 13//6
f 7//7 8//7 14//7
f 8//8 9//8 16//8
f 8//9 16//9 15//9
f 9//10 10//10 17//10
f 9//11 17//11 16//11
f 10//12 11//12 18//12
f 10//13 18//13 17//13
f 11//14 12//14 19//14
f 11//15 19//15 18//15
f 12//16 13//16 20//16
f 12//17 20//17 19//17
f 13//18 14//18 21//18
f 13//19 21//19 20//19
f 14//20 8//20 15//20
f 14//21 15//21 21//21
f 15//22 16//22 23//22
f 15//23 23//23 22//23
f 16//24 17//24 24//24
f 16//25 24//25 23//25
f 17//26 18//26 25//26
f 17//27 25//27 24//27
f 18//28 19//28 26//28
f 18//29 26//29 25//29
f 19//30 20//30 27//30
f 19//31 27//31 26//31
f 20//32 21//32 28//32
f 20//33 28//33 27//33
f 21//34 15//34 22//34
f 21//35 22//35 28//35
f 22//36 23//36 30//36
f 22//37 30//37 29//37
f 23//38 24//38 31//38
f 23//39 31//39 30//39
f 24//40 25//40 32//40
f 24//41 32//41 31//41
f 25//42 26//42 33//42
f 25//43 33//43 32//43
f 26//44 27//44 34//44
f 26//45 34//45 33//45
f 27//46 28//46 35//46
f 27//47 35//47 34//47
f 28//48 22//48 29//48
f 28//49 29//49 35//49
f 29//50 30//50 37//50
f 29//51 37//51 36//51
f 30//52 31//52 38//52
f 30//53 38//53 37//53
f 31//54 32//54 39//54
f 31//55 39//55 38//55
f 32//56 33//56 40//56
f 32//57 40//57 39//57
f 33//58 34//58 41//58
f 33//59 41//59 40//59
f 34//60 35//60 42//60
f 34//61 42//61 41//61
f 35//62 29//62 36//62
f 35//63 36//63 42//63
f 36//64 37//64 44//64
f 36//65 44//65 43//65
f 37//66 38//66 45//66
f 37//67 45//67 44//67
f 38//68 39//68 46//68
f 38//69 46//69 45//69
f 39//70 40//70 47//70
f 39//71 47//71 46//71
f 40//72 41//72 48//72
f 40//73 48//73 47//73
f 41//74 42//74 49//74
f 41//75 49//75 48//75
f 42//76 36//76 43//76
f 42//77 43//77 49//77
f 43//78 44//78 51//78
f 43//79 51//79 50//79
f 44//80 45//80 52//80
f 44//81 52//81 51//81
f 45//82 46//82 53//82
f 45//83 53//83 52//83
f 46//84 47//84 54//84
f 46//85 54//85 53//85
f 47//86 48//86 55//86
f 47//87 55//87 54//87
f 48//88 49//88 56//88
f 48//89 56//89 55//89
f 49//90 43//90 50//90
f 49//91 50//91 56//91
f 50//92 51//92 58//92
f 50//93 58//93 57//93
f 51//94 52//94 59//94
f 51//95 59//95 58//95
f 52//96 53//96 60//96
f 52//97 60//97 59//97
f 53//98 54//98 61//98
f 53//99 61//99 60//99
f 54//100 55//100 62//100
f 54//101 62//101 61//101
f 55//102 56//102 63//102
f 55//103 63//103 62//103
f 56//104 50//104 57//104
f 56//105 57//105 63//105
usemtl c1
f 64//106 69//106 68//106
f 65//107 70//107 69//107
f 66//108 71//108 70//108
f 67//109 68//109 71//109
f 68//110 69//110 73//110
f 69//111 70//111 74//111
f 70//112 71//112 75//112
f 71//113 68//113 72//113
f 76//114 81//114 80//114
f 77//115 82//115 81//115
f 78//116 83//116 82//116
f 79//117 80//117 83//117
f 80//118 81//118 85//118
f 81//119 82//119 86//119
f 82//120 83//120 87//120
f 83//121 80//121 84//121
f 88//122 93//122 92//122
f 89//123 94//123 93//123
f 90//124 95//124 94//124
f 91//125 92//125 95//125
f 92//126 93//126 97//126
f 93//127 94//127 98//127
f 94//128 95//128 99//128
f 95//129 92//129 96//129
