mtllib Food_Lollipop.mtl
v 0.9000 0.4500 -0.1000
v 0.8803 0.6371 -0.1000
v 0.8222 0.8161 -0.1000
v 0.7281 0.9790 -0.1000
v 0.0000 0.4500 -0.1000
v 0.9000 0.4500 0.1000
v 0.8803 0.6371 0.1000
v 0.8222 0.8161 0.1000
v 0.7281 0.9790 0.1000
v 0.0000 0.4500 0.1000
v 0.6661 0.6664 -0.1000
v 0.6661 0.6664 0.1000
v 0.7281 0.9790 -0.1000
v 0.6022 1.1188 -0.1000
v 0.4500 1.2294 -0.1000
v 0.2781 1.3060 -0.1000
v 0.0000 0.4500 -0.1000
v 0.7281 0.9790 0.1000
v 0.6022 1.1188 0.1000
v 0.4500 1.2294 0.1000
v 0.2781 1.3060 0.1000
v 0.0000 0.4500 0.1000
v 0.4117 1.0166 -0.1000
v 0.4117 1.0166 0.1000
v 0.2781 1.3060 -0.1000
v 0.0941 1.3451 -0.1000
v -0.0941 1.3451 -0.1000
v -0.2781 1.3060 -0.1000
v 0.0000 0.4500 -0.1000
v 0.2781 1.3060 0.1000
v 0.0941 1.3451 0.1000
v -0.0941 1.3451 0.1000
v -0.2781 1.3060 0.1000
v 0.0000 0.4500 0.1000
v 0.0000 1.1504 -0.1000
v 0.0000 1.1504 0.1000
v -0.2781 1.3060 -0.1000
v -0.4500 1.2294 -0.1000
v -0.6022 1.1188 -0.1000
v -0.7281 0.9790 -0.1000
v 0.0000 0.4500 -0.1000
v -0.2781 1.3060 0.1000
v -0.4500 1.2294 0.1000
v -0.6022 1.1188 0.1000
v -0.7281 0.9790 0.1000
v 0.0000 0.4500 0.1000
v -0.4117 1.0166 -0.1000
v -0.4117 1.0166 0.1000
v -0.7281 0.9790 -0.1000
v -0.8222 0.8161 -0.1000
v -0.8803 0.6371 -0.1000
v -0.9000 0.4500 -0.1000
v 0.0000 0.4500 -0.1000
v -0.7281 0.9790 0.1000
v -0.8222 0.8161 0.1000
v -0.8803 0.6371 0.1000
v -0.9000 0.4500 0.1000
v 0.0000 0.4500 0.1000
v -0.6661 0.6664 -0.1000
v -0.6661 0.6664 0.1000
v -0.9000 0.4500 -0.1000
v -0.8803 0.2629 -0.1000
v -0.8222 0.0839 -0.1000
v -0.7281 -0.0790 -0.1000
v 0.0000 0.4500 -0.1000
v -0.9000 0.4500 0.1000
v -0.8803 0.2629 0.1000
v -0.8222 0.0839 0.1000
v -0.7281 -0.0790 0.1000
v 0.0000 0.4500 0.1000
v -0.6661 0.2336 -0.1000
v -0.6661 0.2336 0.1000
v -0.7281 -0.0790 -0.1000
v -0.6022 -0.2188 -0.1000
v -0.4500 -0.3294 -0.1000
v -0.2781 -0.4060 -0.1000
v 0.0000 0.4500 -0.1000
v -0.7281 -0.0790 0.1000
v -0.6022 -0.2188 0.1000
v -0.4500 -0.3294 0.1000
v -0.2781 -0.4060 0.1000
v 0.0000 0.4500 0.1000
v -0.4117 -0.1166 -0.1000
v -0.4117 -0.1166 0.1000
v -0.2781 -0.4060 -0.1000
v -0.0941 -0.4451 -0.1000
v 0.0941 -0.4451 -0.1000
v 0.2781 -0.4060 -0.1000
v 0.0000 0.4500 -0.1000
v -0.2781 -0.4060 0.1000
v -0.0941 -0.4451 0.1000
v 0.0941 -0.4451 0.1000
v 0.2781 -0.4060 0.1000
v 0.0000 0.4500 0.1000
v -0.0000 -0.2504 -0.1000
v -0.0000 -0.2504 0.1000
v 0.2781 -0.4060 -0.1000
v 0.4500 -0.3294 -0.1000
v 0.6022 -0.2188 -0.1000
v 0.7281 -0.0790 -0.1000
v 0.0000 0.4500 -0.1000
v 0.2781 -0.4060 0.1000
v 0.4500 -0.3294 0.1000
v 0.6022 -0.2188 0.1000
v 0.7281 -0.0790 0.1000
v 0.0000 0.4500 0.1000
v 0.4117 -0.1166 -0.1000
v 0.4117 -0.1166 0.1000
v 0.7281 -0.0790 -0.1000
v 0.8222 0.0839 -0.1000
v 0.8803 0.2629 -0.1000
v 0.9000 0.4500 -0.1000
v 0.0000 0.4500 -0.1000
v 0.7281 -0.0790 0.1000
v 0.8222 0.0839 0.1000
v 0.8803 0.2629 0.1000
v 0.9000 0.4500 0.1000
v 0.0000 0.4500 0.1000
v 0.6661 0.2336 -0.1000
v 0.6661 0.2336 0.1000
v 0.0600 -0.4500 0.0000
v 0.0185 -0.4500 -0.0571
v -0.0485 -0.4500 -0.0353
v -0.0485 -0.4500 0.0353
v 0.0185 -0.4500 0.0571
v 0.0600 -1.6000 0.0000
v 0.0185 -1.6000 -0.0571
v -0.0485 -1.6000 -0.0353
v -0.0485 -1.6000 0.0353
v 0.0185 -1.6000 0.0571
v 0.0000 -0.4500 0.0000
v 0.0000 -1.6000 0.0000
vn 0.9945 0.1045 0.0000
vn 0.9945 0.1045 -0.0000
vn 0.0000 0.0000 -1.0000
vn 0.0000 0.0000 1.0000
vn 0.9511 0.3090 0.0000
vn 0.9511 0.3090 -0.0000
vn 0.0000 0.0000 -1.0000
vn -0.0000 0.0000 1.0000
vn 0.8660 0.5000 0.0000
vn 0.8660 0.5000 -0.0000
vn 0.0000 0.0000 -1.0000
vn 0.0000 0.0000 1.0000
vn -0.5878 0.8090 0.0000
vn -0.5878 0.8090 0.0000
vn -0.0000 0.0000 -1.0000
vn 0.0000 -0.0000 1.0000
vn 0.0000 -1.0000 0.0000
vn 0.0000 -1.0000 0.0000
vn 0.0000 -0.0000 -1.0000
vn 0.0000 0.0000 1.0000
vn 0.7431 0.6691 0.0000
vn 0.7431 0.6691 -0.0000
vn 0.0000 0.0000 -1.0000
vn -0.0000 0.0000 1.0000
vn 0.5878 0.8090 0.0000
vn 0.5878 0.8090 -0.0000
vn 0.0000 0.0000 -1.0000
vn 0.0000 0.0000 1.0000
vn 0.4067 0.9135 0.0000
vn 0.4067 0.9135 -0.0000
vn 0.0000 0.0000 -1.0000
vn 0.0000 -0.0000 1.0000
vn -0.9511 0.3090 0.0000
vn -0.9511 0.3090 0.0000
vn -0.0000 0.0000 -1.0000
vn 0.0000 0.0000 1.0000
vn 0.5878 -0.8090 0.0000
vn 0.5878 -0.8090 0.0000
vn 0.0000 -0.0000 -1.0000
vn 0.0000 0.0000 1.0000
vn 0.2079 0.9781 0.0000
vn 0.2079 0.9781 -0.0000
vn 0.0000 0.0000 -1.0000
vn 0.0000 0.0000 1.0000
vn 0.0000 1.0000 0.0000
vn 0.0000 1.0000 -0.0000
vn 0.0000 0.0000 -1.0000
vn 0.0000 -0.0000 1.0000
vn -0.2079 0.9781 0.0000
vn -0.2079 0.9781 0.0000
vn 0.0000 0.0000 -1.0000
vn 0.0000 0.0000 1.0000
vn -0.9511 -0.3090 0.0000
vn -0.9511 -0.3090 0.0000
vn -0.0000 0.0000 -1.0000
vn 0.0000 0.0000 1.0000
vn 0.9511 -0.3090 0.0000
vn 0.9511 -0.3090 0.0000
vn 0.0000 -0.0000 -1.0000
vn -0.0000 0.0000 1.0000
vn -0.4067 0.9135 0.0000
vn -0.4067 0.9135 0.0000
vn 0.0000 0.0000 -1.0000
vn 0.0000 -0.0000 1.0000
vn -0.5878 0.8090 0.0000
vn -0.5878 0.8090 0.0000
vn 0.0000 0.0000 -1.0000
vn 0.0000 0.0000 1.0000
vn -0.7431 0.6691 0.0000
vn -0.7431 0.6691 0.0000
vn -0.0000 0.0000 -1.0000
vn 0.0000 0.0000 1.0000
vn -0.5878 -0.8090 0.0000
vn -0.5878 -0.8090 0.0000
vn 0.0000 -0.0000 -1.0000
vn 0.0000 0.0000 1.0000
vn 0.9511 0.3090 0.0000
vn 0.9511 0.3090 -0.0000
vn 0.0000 0.0000 -1.0000
vn -0.0000 0.0000 1.0000
vn -0.8660 0.5000 0.0000
vn -0.8660 0.5000 0.0000
vn 0.0000 0.0000 -1.0000
vn 0.0000 0.0000 1.0000
vn -0.9511 0.3090 0.0000
vn -0.9511 0.3090 0.0000
vn -0.0000 0.0000 -1.0000
vn 0.0000 0.0000 1.0000
vn -0.9945 0.1045 0.0000
vn -0.9945 0.1045 0.0000
vn 0.0000 0.0000 -1.0000
vn 0.0000 0.0000 1.0000
vn -0.0000 -1.0000 0.0000
vn -0.0000 -1.0000 0.0000
vn 0.0000 -0.0000 -1.0000
vn 0.0000 0.0000 1.0000
vn 0.5878 0.8090 0.0000
vn 0.5878 0.8090 -0.0000
vn 0.0000 0.0000 -1.0000
vn -0.0000 -0.0000 1.0000
vn -0.9945 -0.1045 0.0000
vn -0.9945 -0.1045 0.0000
vn 0.0000 0.0000 -1.0000
vn 0.0000 0.0000 1.0000
vn -0.9511 -0.3090 0.0000
vn -0.9511 -0.3090 0.0000
vn -0.0000 0.0000 -1.0000
vn 0.0000 0.0000 1.0000
vn -0.8660 -0.5000 0.0000
vn -0.8660 -0.5000 0.0000
vn 0.0000 0.0000 -1.0000
vn 0.0000 0.0000 1.0000
vn 0.5878 -0.8090 0.0000
vn 0.5878 -0.8090 0.0000
vn 0.0000 -0.0000 -1.0000
vn -0.0000 0.0000 1.0000
vn 0.0000 1.0000 0.0000
vn 0.0000 1.0000 -0.0000
vn 0.0000 0.0000 -1.0000
vn 0.0000 -0.0000 1.0000
vn -0.7431 -0.6691 0.0000
vn -0.7431 -0.6691 0.0000
vn -0.0000 0.0000 -1.0000
vn 0.0000 0.0000 1.0000
vn -0.5878 -0.8090 0.0000
vn -0.5878 -0.8090 0.0000
vn 0.0000 0.0000 -1.0000
vn 0.0000 0.0000 1.0000
vn -0.4067 -0.9135 0.0000
vn -0.4067 -0.9135 0.0000
vn 0.0000 -0.0000 -1.0000
vn 0.0000 0.0000 1.0000
vn 0.9511 -0.3090 0.0000
vn 0.9511 -0.3090 0.0000
vn 0.0000 0.0000 -1.0000
vn -0.0000 0.0000 1.0000
vn -0.5878 0.8090 0.0000
vn -0.5878 0.8090 0.0000
vn 0.0000 0.0000 -1.0000
vn 0.0000 -0.0000 1.0000
vn -0.2079 -0.9781 0.0000
vn -0.2079 -0.9781 0.0000
vn 0.0000 0.0000 -1.0000
vn 0.0000 0.0000 1.0000
vn 0.0000 -1.0000 0.0000
vn 0.0000 -1.0000 0.0000
vn 0.0000 -0.0000 -1.0000
vn 0.0000 0.0000 1.0000
vn 0.2079 -0.9781 0.0000
vn 0.2079 -0.9781 0.0000
vn 0.0000 0.0000 -1.0000
vn 0.0000 0.0000 1.0000
vn 0.9511 0.3090 0.0000
vn 0.9511 0.3090 -0.0000
vn 0.0000 0.0000 -1.0000
vn -0.0000 0.0000 1.0000
vn -0.9511 0.3090 0.0000
vn -0.9511 0.3090 0.0000
vn -0.0000 0.0000 -1.0000
vn 0.0000 -0.0000 1.0000
vn 0.4067 -0.9135 0.0000
vn 0.4067 -0.9135 0.0000
vn 0.0000 -0.0000 -1.0000
vn 0.0000 0.0000 1.0000
vn 0.5878 -0.8090 0.0000
vn 0.5878 -0.8090 0.0000
vn 0.0000 0.0000 -1.0000
vn 0.0000 0.0000 1.0000
vn 0.7431 -0.6691 0.0000
vn 0.7431 -0.6691 0.0000
vn 0.0000 0.0000 -1.0000
vn -0.0000 0.0000 1.0000
vn 0.5878 0.8090 0.0000
vn 0.5878 0.8090 -0.0000
vn 0.0000 0.0000 -1.0000
vn 0.0000 -0.0000 1.0000
vn -0.9511 -0.3090 0.0000
vn -0.9511 -0.3090 0.0000
vn -0.0000 0.0000 -1.0000
vn 0.0000 0.0000 1.0000
vn 0.8660 -0.5000 0.0000
vn 0.8660 -0.5000 0.0000
vn 0.0000 0.0000 -1.0000
vn 0.0000 0.0000 1.0000
vn 0.9511 -0.3090 0.0000
vn 0.9511 -0.3090 0.0000
vn 0.0000 0.0000 -1.0000
vn -0.0000 0.0000 1.0000
vn 0.9945 -0.1045 0.0000
vn 0.9945 -0.1045 0.0000
vn 0.0000 0.0000 -1.0000
vn 0.0000 0.0000 1.0000
vn 0.0000 1.0000 0.0000
vn 0.0000 1.0000 -0.0000
vn 0.0000 0.0000 -1.0000
vn 0.0000 -0.0000 1.0000
vn -0.5878 -0.8090 0.0000
vn -0.5878 -0.8090 0.0000
vn -0.0000 -0.0000 -1.0000
vn 0.0000 0.0000 1.0000
vn -0.8090 0.0000 0.5878
vn -0.8090 0.0000 0.5878
vn 0.3090 0.0000 0.9511
vn 0.3090 0.0000 0.9511
vn 1.0000 0.0000 0.0000
vn 1.0000 0.0000 0.0000
vn 0.3090 -0.0000 -0.9511
vn 0.3090 -0.0000 -0.9511
vn -0.8090 -0.0000 -0.5878
vn -0.8090 -0.0000 -0.5878
vn -0.0000 1.0000 0.0000
vn 0.0000 1.0000 0.0000
vn 0.0000 1.0000 0.0000
vn 0.0000 1.0000 -0.0000
vn 0.0000 1.0000 0.0000
vn -0.0000 1.0000 0.0000
vn 0.0000 1.0000 0.0000
vn 0.0000 1.0000 0.0000
vn 0.0000 1.0000 -0.0000
vn 0.0000 1.0000 0.0000
usemtl c0
f 1//1 2//1 7//1
f 1//2 7//2 6//2
f 11//3 2//3 1//3
f 12//4 6//4 7//4
f 2//5 3//5 8//5
f 2//6 8//6 7//6
f 11//7 3//7 2//7
f 12//8 7//8 8//8
f 3//9 4//9 9//9
f 3//10 9//10 8//10
f 11//11 4//11 3//11
f 12//12 8//12 9//12
f 4//13 5//13 10//13
f 4//14 10//14 9//14
f 11//15 5//15 4//15
f 12//16 9//16 10//16
f 5//17 1//17 6//17
f 5//18 6//18 10//18
f 11//19 1//19 5//19
f 12//20 10//20 6//20
usemtl c1
f 13//21 14//21 19//21
f 13//22 19//22 18//22
f 23//23 14//23 13//23
f 24//24 18//24 19//24
f 14//25 15//25 20//25
f 14//26 20//26 19//26
f 23//27 15//27 14//27
f 24//28 19//28 20//28
f 15//29 16//29 21//29
f 15//30 21//30 20//30
f 23//31 16//31 15//31
f 24//32 20//32 21//32
f 16//33 17//33 22//33
f 16//34 22//34 21//34
f 23//35 17//35 16//35
f 24//36 21//36 22//36
f 17//37 13//37 18//37
f 17//38 18//38 22//38
f 23//39 13//39 17//39
f 24//40 22//40 18//40
usemtl c0
f 25//41 26//41 31//41
f 25//42 31//42 30//42
f 35//43 26//43 25//43
f 36//44 30//44 31//44
f 26//45 27//45 32//45
f 26//46 32//46 31//46
f 35//47 27//47 26//47
f 36//48 31//48 32//48
f 27//49 28//49 33//49
f 27//50 33//50 32//50
f 35//51 28//51 27//51
f 36//52 32//52 33//52
f 28//53 29//53 34//53
f 28//54 34//54 33//54
f 35//55 29//55 28//55
f 36//56 33//56 34//56
f 29//57 25//57 30//57
f 29//58 30//58 34//58
f 35//59 25//59 29//59
f 36//60 34//60 30//60
usemtl c1
f 37//61 38//61 43//61
f 37//62 43//62 42//62
f 47//63 38//63 37//63
f 48//64 42//64 43//64
f 38//65 39//65 44//65
f 38//66 44//66 43//66
f 47//67 39//67 38//67
f 48//68 43//68 44//68
f 39//69 40//69 45//69
f 39//70 45//70 44//70
f 47//71 40//71 39//71
f 48//72 44//72 45//72
f 40//73 41//73 46//73
f 40//74 46//74 45//74
f 47//75 41//75 40//75
f 48//76 45//76 46//76
f 41//77 37//77 42//77
f 41//78 42//78 46//78
f 47//79 37//79 41//79
f 48//80 46//80 42//80
usemtl c0
f 49//81 50//81 55//81
f 49//82 55//82 54//82
f 59//83 50//83 49//83
f 60//84 54//84 55//84
f 50//85 51//85 56//85
f 50//86 56//86 55//86
f 59//87 51//87 50//87
f 60//88 55//88 56//88
f 51//89 52//89 57//89
f 51//90 57//90 56//90
f 59//91 52//91 51//91
f 60//92 56//92 57//92
f 52//93 53//93 58//93
f 52//94 58//94 57//94
f 59//95 53//95 52//95
f 60//96 57//96 58//96
f 53//97 49//97 54//97
f 53//98 54//98 58//98
f 59//99 49//99 53//99
f 60//100 58//100 54//100
usemtl c1
f 61//101 62//101 67//101
f 61//102 67//102 66//102
f 71//103 62//103 61//103
f 72//104 66//104 67//104
f 62//105 63//105 68//105
f 62//106 68//106 67//106
f 71//107 63//107 62//107
f 72//108 67//108 68//108
f 63//109 64//109 69//109
f 63//110 69//110 68//110
f 71//111 64//111 63//111
f 72//112 68//112 69//112
f 64//113 65//113 70//113
f 64//114 70//114 69//114
f 71//115 65//115 64//115
f 72//116 69//116 70//116
f 65//117 61//117 66//117
f 65//118 66//118 70//118
f 71//119 61//119 65//119
f 72//120 70//120 66//120
usemtl c0
f 73//121 74//121 79//121
f 73//122 79//122 78//122
f 83//123 74//123 73//123
f 84//124 78//124 79//124
f 74//125 75//125 80//125
f 74//126 80//126 79//126
f 83//127 75//127 74//127
f 84//128 79//128 80//128
f 75//129 76//129 81//129
f 75//130 81//130 80//130
f 83//131 76//131 75//131
f 84//132 80//132 81//132
f 76//133 77//133 82//133
f 76//134 82//134 81//134
f 83//135 77//135 76//135
f 84//136 81//136 82//136
f 77//137 73//137 78//137
f 77//138 78//138 82//138
f 83//139 73//139 77//139
f 84//140 82//140 78//140
usemtl c1
f 85//141 86//141 91//141
f 85//142 91//142 90//142
f 95//143 86//143 85//143
f 96//144 90//144 91//144
f 86//145 87//145 92//145
f 86//146 92//146 91//146
f 95//147 87//147 86//147
f 96//148 91//148 92//148
f 87//149 88//149 93//149
f 87//150 93//150 92//150
f 95//151 88//151 87//151
f 96//152 92//152 93//152
f 88//153 89//153 94//153
f 88//154 94//154 93//154
f 95//155 89//155 88//155
f 96//156 93//156 94//156
f 89//157 85//157 90//157
f 89//158 90//158 94//158
f 95//159 85//159 89//159
f 96//160 94//160 90//160
usemtl c0
f 97//161 98//161 103//161
f 97//162 103//162 102//162
f 107//163 98//163 97//163
f 108//164 102//164 103//164
f 98//165 99//165 104//165
f 98//166 104//166 103//166
f 107//167 99//167 98//167
f 108//168 103//168 104//168
f 99//169 100//169 105//169
f 99//170 105//170 104//170
f 107//171 100//171 99//171
f 108//172 104//172 105//172
f 100//173 101//173 106//173
f 100//174 106//174 105//174
f 107//175 101//175 100//175
f 108//176 105//176 106//176
f 101//177 97//177 102//177
f 101//178 102//178 106//178
f 107//179 97//179 101//179
f 108//180 106//180 102//180
usemtl c1
f 109//181 110//181 115//181
f 109//182 115//182 114//182
f 119//183 110//183 109//183
f 120//184 114//184 115//184
f 110//185 111//185 116//185
f 110//186 116//186 115//186
f 119//187 111//187 110//187
f 120//188 115//188 116//188
f 111//189 112//189 117//189
f 111//190 117//190 116//190
f 119//191 112//191 111//191
f 120//192 116//192 117//192
f 112//193 113//193 118//193
f 112//194 118//194 117//194
f 119//195 113//195 112//195
f 120//196 117//196 118//196
f 113//197 109//197 114//197
f 113//198 114//198 118//198
f 119//199 109//199 113//199
f 120//200 118//200 114//200
usemtl c2
f 121//201 122//201 127//201
f 121//202 127//202 126//202
f 122//203 123//203 128//203
f 122//204 128//204 127//204
f 123//205 124//205 129//205
f 123//206 129//206 128//206
f 124//207 125//207 130//207
f 124//208 130//208 129//208
f 125//209 121//209 126//209
f 125//210 126//210 130//210
f 131//211 121//211 122//211
f 131//212 122//212 123//212
f 131//213 123//213 124//213
f 131//214 124//214 125//214
f 131//215 125//215 121//215
f 132//216 126//216 127//216
f 132//217 127//217 128//217
f 132//218 128//218 129//218
f 132//219 129//219 130//219
f 132//220 130//220 126//220
