mtllib Food_CakeSlice.mtl
v -1.0000 0.0000 0.0000
v 0.9500 0.0000 -0.7000
v 0.9500 0.0000 0.7000
v -1.0000 0.3000 0.0000
v 0.9500 0.3000 -0.7000
v 0.9500 0.3000 0.7000
v 0.3000 0.0000 0.0000
v 0.3000 0.3000 0.0000
v -1.0000 0.3000 0.0000
v 0.9500 0.3000 -0.7000
v 0.9500 0.3000 0.7000
v -1.0000 0.3800 0.0000
v 0.9500 0.3800 -0.7000
v 0.9500 0.3800 0.7000
v 0.3000 0.3000 0.0000
v 0.3000 0.3800 0.0000
v -1.0000 0.3800 0.0000
v 0.9500 0.3800 -0.7000
v 0.9500 0.3800 0.7000
v -1.0000 0.6800 0.0000
v 0.9500 0.6800 -0.7000
v 0.9500 0.6800 0.7000
v 0.3000 0.3800 0.0000
v 0.3000 0.6800 0.0000
v -1.0000 0.6800 0.0000
v 0.9500 0.6800 -0.7000
v 0.9500 0.6800 0.7000
v -1.0000 0.7800 0.0000
v 0.9500 0.7800 -0.7000
v 0.9500 0.7800 0.7000
v 0.3000 0.6800 0.0000
v 0.3000 0.7800 0.0000
v -1.0260 0.7800 0.0000
v 0.9630 0.7800 -0.7140
v 0.9630 0.7800 0.7140
v -1.0260 0.8800 0.0000
v 0.9630 0.8800 -0.7140
v 0.9630 0.8800 0.7140
v 0.3000 0.7800 0.0000
v 0.3000 0.8800 0.0000
v 0.5500 0.7800 0.0000
v 0.5500 0.7800 0.0000
v 0.5500 0.7800 0.0000
v 0.5500 0.7800 0.0000
v 0.5500 0.7800 0.0000
v 0.5500 0.7800 0.0000
v 0.5500 0.7800 0.0000
v 0.7578 0.8500 0.0000
v 0.6796 0.8500 0.1625
v 0.5037 0.8500 0.2026
v 0.3627 0.8500 0.0902
v 0.3627 0.8500 -0.0902
v 0.5037 0.8500 -0.2026
v 0.6796 0.8500 -0.1625
v 0.7578 0.9900 0.0000
v 0.6796 0.9900 0.1625
v 0.5037 0.9900 0.2026
v 0.3627 0.9900 0.0902
v 0.3627 0.9900 -0.0902
v 0.5037 0.9900 -0.2026
v 0.6796 0.9900 -0.1625
v 0.5500 1.0600 0.0000
v 0.5500 1.0600 0.0000
v 0.5500 1.0600 0.0000
v 0.5500 1.0600 0.0000
v 0.5500 1.0600 -0.0000
v 0.5500 1.0600 -0.0000
v 0.5500 1.0600 -0.0000
v 0.5500 0.8600 0.0000
v 0.5500 0.8600 0.0000
v 0.5500 0.8600 0.0000
v 0.5500 0.8600 0.0000
v 0.5500 0.8600 0.0000
v 0.5500 0.8600 0.0000
v 0.5500 0.8600 0.0000
v 0.7338 0.9479 0.0000
v 0.6646 0.9479 0.1437
v 0.5091 0.9479 0.1792
v 0.3844 0.9479 0.0798
v 0.3844 0.9479 -0.0798
v 0.5091 0.9479 -0.1792
v 0.6646 0.9479 -0.1437
v 0.8100 1.1600 0.0000
v 0.7121 1.1600 0.2033
v 0.4921 1.1600 0.2535
v 0.3157 1.1600 0.1128
v 0.3157 1.1600 -0.1128
v 0.4921 1.1600 -0.2535
v 0.7121 1.1600 -0.2033
v 0.7338 1.3721 0.0000
v 0.6646 1.3721 0.1437
v 0.5091 1.3721 0.1792
v 0.3844 1.3721 0.0798
v 0.3844 1.3721 -0.0798
v 0.5091 1.3721 -0.1792
v 0.6646 1.3721 -0.1437
v 0.5500 1.4600 0.0000
v 0.5500 1.4600 0.0000
v 0.5500 1.4600 0.0000
v 0.5500 1.4600 0.0000
v 0.5500 1.4600 -0.0000
v 0.5500 1.4600 -0.0000
v 0.5500 1.4600 -0.0000
vn 0.3379 0.0000 0.9412
vn 0.3379 -0.0000 0.9412
vn 0.0000 1.0000 0.0000
vn -0.0000 -1.0000 -0.0000
vn -1.0000 0.0000 0.0000
vn -1.0000 0.0000 0.0000
vn -0.0000 1.0000 0.0000
vn 0.0000 -1.0000 0.0000
vn 0.3379 0.0000 -0.9412
vn 0.3379 0.0000 -0.9412
vn 0.0000 1.0000 -0.0000
vn 0.0000 -1.0000 0.0000
vn 0.3379 0.0000 0.9412
vn 0.3379 -0.0000 0.9412
vn 0.0000 1.0000 0.0000
vn -0.0000 -1.0000 -0.0000
vn -1.0000 0.0000 0.0000
vn -1.0000 0.0000 0.0000
vn -0.0000 1.0000 0.0000
vn 0.0000 -1.0000 0.0000
vn 0.3379 0.0000 -0.9412
vn 0.3379 0.0000 -0.9412
vn 0.0000 1.0000 -0.0000
vn 0.0000 -1.0000 0.0000
vn 0.3379 0.0000 0.9412
vn 0.3379 -0.0000 0.9412
vn 0.0000 1.0000 0.0000
vn -0.0000 -1.0000 -0.0000
vn -1.0000 0.0000 0.0000
vn -1.0000 0.0000 0.0000
vn -0.0000 1.0000 0.0000
vn 0.0000 -1.0000 0.0000
vn 0.3379 0.0000 -0.9412
vn 0.3379 0.0000 -0.9412
vn 0.0000 1.0000 -0.0000
vn 0.0000 -1.0000 0.0000
vn 0.3379 0.0000 0.9412
vn 0.3379 -0.0000 0.9412
vn 0.0000 1.0000 0.0000
vn -0.0000 -1.0000 -0.0000
vn -1.0000 0.0000 0.0000
vn -1.0000 0.0000 0.0000
vn -0.0000 1.0000 0.0000
vn 0.0000 -1.0000 0.0000
vn 0.3379 0.0000 -0.9412
vn 0.3379 0.0000 -0.9412
vn 0.0000 1.0000 -0.0000
vn 0.0000 -1.0000 0.0000
vn 0.3379 0.0000 0.9412
vn 0.3379 -0.0000 0.9412
vn 0.0000 1.0000 0.0000
vn -0.0000 -1.0000 -0.0000
vn -1.0000 0.0000 0.0000
vn -1.0000 0.0000 0.0000
vn -0.0000 1.0000 0.0000
vn 0.0000 -1.0000 0.0000
vn 0.3379 0.0000 -0.9412
vn 0.3379 0.0000 -0.9412
vn 0.0000 1.0000 -0.0000
vn 0.0000 -1.0000 0.0000
vn -0.3155 0.9367 -0.1519
vn -0.0779 0.9367 -0.3414
vn 0.2183 0.9367 -0.2738
vn 0.3501 0.9367 -0.0000
vn 0.2183 0.9367 0.2738
vn -0.0779 0.9367 0.3414
vn -0.3155 0.9367 0.1519
vn -0.9010 0.0000 -0.4339
vn -0.9010 0.0000 -0.4339
vn -0.2225 0.0000 -0.9749
vn -0.2225 0.0000 -0.9749
vn 0.6235 0.0000 -0.7818
vn 0.6235 0.0000 -0.7818
vn 1.0000 0.0000 -0.0000
vn 1.0000 0.0000 -0.0000
vn 0.6235 0.0000 0.7818
vn 0.6235 0.0000 0.7818
vn -0.2225 0.0000 0.9749
vn -0.2225 0.0000 0.9749
vn -0.9010 0.0000 0.4339
vn -0.9010 0.0000 0.4339
vn -0.3155 -0.9367 -0.1519
vn -0.0779 -0.9367 -0.3414
vn 0.2183 -0.9367 -0.2738
vn 0.3501 -0.9367 -0.0000
vn 0.2183 -0.9367 0.2738
vn -0.0779 -0.9367 0.3414
vn -0.3155 -0.9367 0.1519
vn -0.4222 0.8834 -0.2033
vn -0.1043 0.8834 -0.4569
vn 0.2922 0.8834 -0.3664
vn 0.4686 0.8834 0.0000
vn 0.2922 0.8834 0.3664
vn -0.1043 0.8834 0.4569
vn -0.4222 0.8834 0.2033
vn -0.8572 0.3077 -0.4128
vn -0.8572 0.3077 -0.4128
vn -0.2117 0.3077 -0.9276
vn -0.2117 0.3077 -0.9276
vn 0.5932 0.3077 -0.7439
vn 0.5932 0.3077 -0.7439
vn 0.9515 0.3077 0.0000
vn 0.9515 0.3077 0.0000
vn 0.5932 0.3077 0.7439
vn 0.5932 0.3077 0.7439
vn -0.2117 0.3077 0.9276
vn -0.2117 0.3077 0.9276
vn -0.8572 0.3077 0.4128
vn -0.8572 0.3077 0.4128
vn -0.8572 -0.3077 -0.4128
vn -0.8572 -0.3077 -0.4128
vn -0.2117 -0.3077 -0.9276
vn -0.2117 -0.3077 -0.9276
vn 0.5932 -0.3077 -0.7439
vn 0.5932 -0.3077 -0.7439
vn 0.9515 -0.3077 0.0000
vn 0.9515 -0.3077 0.0000
vn 0.5932 -0.3077 0.7439
vn 0.5932 -0.3077 0.7439
vn -0.2117 -0.3077 0.9276
vn -0.2117 -0.3077 0.9276
vn -0.8572 -0.3077 0.4128
vn -0.8572 -0.3077 0.4128
vn -0.4222 -0.8834 -0.2033
vn -0.1043 -0.8834 -0.4569
vn 0.2922 -0.8834 -0.3664
vn 0.4686 -0.8834 0.0000
vn 0.2922 -0.8834 0.3664
vn -0.1043 -0.8834 0.4569
vn -0.4222 -0.8834 0.2033
usemtl c0
f 1//1 2//1 5//1
f 1//2 5//2 4//2
f 7//3 2//3 1//3
f 8//4 4//4 5//4
f 2//5 3//5 6//5
f 2//6 6//6 5//6
f 7//7 3//7 2//7
f 8//8 5//8 6//8
f 3//9 1//9 4//9
f 3//10 4//10 6//10
f 7//11 1//11 3//11
f 8//12 6//12 4//12
usemtl c1
f 9//13 10//13 13//13
f 9//14 13//14 12//14
f 15//15 10//15 9//15
f 16//16 12//16 13//16
f 10//17 11//17 14//17
f 10//18 14//18 13//18
f 15//19 11//19 10//19
f 16//20 13//20 14//20
f 11//21 9//21 12//21
f 11//22 12//22 14//22
f 15//23 9//23 11//23
f 16//24 14//24 12//24
usemtl c0
f 17//25 18//25 21//25
f 17//26 21//26 20//26
f 23//27 18//27 17//27
f 24//28 20//28 21//28
f 18//29 19//29 22//29
f 18//30 22//30 21//30
f 23//31 19//31 18//31
f 24//32 21//32 22//32
f 19//33 17//33 20//33
f 19//34 20//34 22//34
f 23//35 17//35 19//35
f 24//36 22//36 20//36
usemtl c2
f 25//37 26//37 29//37
f 25//38 29//38 28//38
f 31//39 26//39 25//39
f 32//40 28//40 29//40
f 26//41 27//41 30//41
f 26//42 30//42 29//42
f 31//43 27//43 26//43
f 32//44 29//44 30//44
f 27//45 25//45 28//45
f 27//46 28//46 30//46
f 31//47 25//47 27//47
f 32//48 30//48 28//48
usemtl c3
f 33//49 34//49 37//49
f 33//50 37//50 36//50
f 39//51 34//51 33//51
f 40//52 36//52 37//52
f 34//53 35//53 38//53
f 34//54 38//54 37//54
f 39//55 35//55 34//55
f 40//56 37//56 38//56
f 35//57 33//57 36//57
f 35//58 36//58 38//58
f 39//59 33//59 35//59
f 40//60 38//60 36//60
usemtl c4
f 41//61 49//61 48//61
f 42//62 50//62 49//62
f 43//63 51//63 50//63
f 44//64 52//64 51//64
f 45//65 53//65 52//65
f 46//66 54//66 53//66
f 47//67 48//67 54//67
f 48//68 49//68 56//68
f 48//69 56//69 55//69
f 49//70 50//70 57//70
f 49//71 57//71 56//71
f 50//72 51//72 58//72
f 50//73 58//73 57//73
f 51//74 52//74 59//74
f 51//75 59//75 58//75
f 52//76 53//76 60//76
f 52//77 60//77 59//77
f 53//78 54//78 61//78
f 53//79 61//79 60//79
f 54//80 48//80 55//80
f 54//81 55//81 61//81
f 55//82 56//82 63//82
f 56//83 57//83 64//83
f 57//84 58//84 65//84
f 58//85 59//85 66//85
f 59//86 60//86 67//86
f 60//87 61//87 68//87
f 61//88 55//88 62//88
usemtl c5
f 69//89 77//89 76//89
f 70//90 78//90 77//90
f 71//91 79//91 78//91
f 72//92 80//92 79//92
f 73//93 81//93 80//93
f 74//94 82//94 81//94
f 75//95 76//95 82//95
f 76//96 77//96 84//96
f 76//97 84//97 83//97
f 77//98 78//98 85//98
f 77//99 85//99 84//99
f 78//100 79//100 86//100
f 78//101 86//101 85//101
f 79//102 80//102 87//102
f 79//103 87//103 86//103
f 80//104 81//104 88//104
f 80//105 88//105 87//105
f 81//106 82//106 89//106
f 81//107 89//107 88//107
f 82//108 76//108 83//108
f 82//109 83//109 89//109
f 83//110 84//110 91//110
f 83//111 91//111 90//111
f 84//112 85//112 92//112
f 84//113 92//113 91//113
f 85//114 86//114 93//114
f 85//115 93//115 92//115
f 86//116 87//116 94//116
f 86//117 94//117 93//117
f 87//118 88//118 95//118
f 87//119 95//119 94//119
f 88//120 89//120 96//120
f 88//121 96//121 95//121
f 89//122 83//122 90//122
f 89//123 90//123 96//123
f 90//124 91//124 98//124
f 91//125 92//125 99//125
f 92//126 93//126 100//126
f 93//127 94//127 101//127
f 94//128 95//128 102//128
f 95//129 96//129 103//129
f 96//130 90//130 97//130
