mtllib Food_RiceBowl.mtl
v 0.0000 0.0000 0.0000
v 0.0000 0.0000 0.0000
v 0.0000 0.0000 0.0000
v 0.0000 0.0000 0.0000
v 0.0000 0.0000 0.0000
v 0.0000 0.0000 0.0000
v 0.0000 0.0000 0.0000
v 0.0000 0.0000 0.0000
v 0.0000 0.0000 0.0000
v 0.0000 0.0000 0.0000
v 0.0000 0.0000 0.0000
v 0.0000 0.0000 0.0000
v 0.4200 0.0000 0.0000
v 0.3637 0.0000 0.2100
v 0.2100 0.0000 0.3637
v 0.0000 0.0000 0.4200
v -0.2100 0.0000 0.3637
v -0.3637 0.0000 0.2100
v -0.4200 0.0000 0.0000
v -0.3637 0.0000 -0.2100
v -0.2100 0.0000 -0.3637
v -0.0000 0.0000 -0.4200
v 0.2100 0.0000 -0.3637
v 0.3637 0.0000 -0.2100
v 0.5000 0.0500 0.0000
v 0.4330 0.0500 0.2500
v 0.2500 0.0500 0.4330
v 0.0000 0.0500 0.5000
v -0.2500 0.0500 0.4330
v -0.4330 0.0500 0.2500
v -0.5000 0.0500 0.0000
v -0.4330 0.0500 -0.2500
v -0.2500 0.0500 -0.4330
v -0.0000 0.0500 -0.5000
v 0.2500 0.0500 -0.4330
v 0.4330 0.0500 -0.2500
v 0.8000 0.2800 0.0000
v 0.6928 0.2800 0.4000
v 0.4000 0.2800 0.6928
v 0.0000 0.2800 0.8000
v -0.4000 0.2800 0.6928
v -0.6928 0.2800 0.4000
v -0.8000 0.2800 0.0000
v -0.6928 0.2800 -0.4000
v -0.4000 0.2800 -0.6928
v -0.0000 0.2800 -0.8000
v 0.4000 0.2800 -0.6928
v 0.6928 0.2800 -0.4000
v 1.0000 0.7000 0.0000
v 0.8660 0.7000 0.5000
v 0.5000 0.7000 0.8660
v 0.0000 0.7000 1.0000
v -0.5000 0.7000 0.8660
v -0.8660 0.7000 0.5000
v -1.0000 0.7000 0.0000
v -0.8660 0.7000 -0.5000
v -0.5000 0.7000 -0.8660
v -0.0000 0.7000 -1.0000
v 0.5000 0.7000 -0.8660
v 0.8660 0.7000 -0.5000
v 0.9300 0.6800 0.0000
v 0.8054 0.6800 0.4650
v 0.4650 0.6800 0.8054
v 0.0000 0.6800 0.9300
v -0.4650 0.6800 0.8054
v -0.8054 0.6800 0.4650
v -0.9300 0.6800 0.0000
v -0.8054 0.6800 -0.4650
v -0.4650 0.6800 -0.8054
v -0.0000 0.6800 -0.9300
v 0.4650 0.6800 -0.8054
v 0.8054 0.6800 -0.4650
v 1.0200 0.6800 0.0000
v 0.8833 0.6800 0.5100
v 0.5100 0.6800 0.8833
v 0.0000 0.6800 1.0200
v -0.5100 0.6800 0.8833
v -0.8833 0.6800 0.5100
v -1.0200 0.6800 0.0000
v -0.8833 0.6800 -0.5100
v -0.5100 0.6800 -0.8833
v -0.0000 0.6800 -1.0200
v 0.5100 0.6800 -0.8833
v 0.8833 0.6800 -0.5100
v 1.0200 0.7500 0.0000
v 0.8833 0.7500 0.5100
v 0.5100 0.7500 0.8833
v 0.0000 0.7500 1.0200
v -0.5100 0.7500 0.8833
v -0.8833 0.7500 0.5100
v -1.0200 0.7500 0.0000
v -0.8833 0.7500 -0.5100
v -0.5100 0.7500 -0.8833
v -0.0000 0.7500 -1.0200
v 0.5100 0.7500 -0.8833
v 0.8833 0.7500 -0.5100
v 0.9300 0.7500 0.0000
v 0.8054 0.7500 0.4650
v 0.4650 0.7500 0.8054
v 0.0000 0.7500 0.9300
v -0.4650 0.7500 0.8054
v -0.8054 0.7500 0.4650
v -0.9300 0.7500 0.0000
v -0.8054 0.7500 -0.4650
v -0.4650 0.7500 -0.8054
v -0.0000 0.7500 -0.9300
v 0.4650 0.7500 -0.8054
v 0.8054 0.7500 -0.4650
v 0.9400 0.7000 0.0000
v 0.8141 0.7000 0.4700
v 0.4700 0.7000 0.8141
v 0.0000 0.7000 0.9400
v -0.4700 0.7000 0.8141
v -0.8141 0.7000 0.4700
v -0.9400 0.7000 0.0000
v -0.8141 0.7000 -0.4700
v -0.4700 0.7000 -0.8141
v -0.0000 0.7000 -0.9400
v 0.4700 0.7000 -0.8141
v 0.8141 0.7000 -0.4700
v 0.7000 0.2780 0.0000
v 0.6062 0.2780 0.3500
v 0.3500 0.2780 0.6062
v 0.0000 0.2780 0.7000
v -0.3500 0.2780 0.6062
v -0.6062 0.2780 0.3500
v -0.7000 0.2780 0.0000
v -0.6062 0.2780 -0.3500
v -0.3500 0.2780 -0.6062
v -0.0000 0.2780 -0.7000
v 0.3500 0.2780 -0.6062
v 0.6062 0.2780 -0.3500
v 0.0000 0.2100 0.0000
v 0.0000 0.2100 0.0000
v 0.0000 0.2100 0.0000
v 0.0000 0.2100 0.0000
v 0.0000 0.2100 0.0000
v 0.0000 0.2100 0.0000
v 0.0000 0.2100 0.0000
v 0.0000 0.2100 0.0000
v 0.0000 0.2100 0.0000
v 0.0000 0.2100 0.0000
v 0.0000 0.2100 0.0000
v 0.0000 0.2100 0.0000
v 0.0000 -0.1240 0.0000
v 0.0000 -0.1240 0.0000
v 0.0000 -0.1240 0.0000
v 0.0000 -0.1240 0.0000
v 0.0000 -0.1240 0.0000
v 0.0000 -0.1240 0.0000
v 0.0000 -0.1240 0.0000
v 0.0000 -0.1240 0.0000
v 0.0000 -0.1240 0.0000
v 0.0000 -0.1240 0.0000
v 0.6364 0.0576 0.0000
v 0.5149 0.0576 0.3741
v 0.1967 0.0576 0.6052
v -0.1967 0.0576 0.6052
v -0.5149 0.0576 0.3741
v -0.6364 0.0576 0.0000
v -0.5149 0.0576 -0.3741
v -0.1967 0.0576 -0.6052
v 0.1967 0.0576 -0.6052
v 0.5149 0.0576 -0.3741
v 0.9000 0.4960 0.0000
v 0.7281 0.4960 0.5290
v 0.2781 0.4960 0.8560
v -0.2781 0.4960 0.8560
v -0.7281 0.4960 0.5290
v -0.9000 0.4960 0.0000
v -0.7281 0.4960 -0.5290
v -0.2781 0.4960 -0.8560
v 0.2781 0.4960 -0.8560
v 0.7281 0.4960 -0.5290
v 0.6364 0.9344 0.0000
v 0.5149 0.9344 0.3741
v 0.1967 0.9344 0.6052
v -0.1967 0.9344 0.6052
v -0.5149 0.9344 0.3741
v -0.6364 0.9344 0.0000
v -0.5149 0.9344 -0.3741
v -0.1967 0.9344 -0.6052
v 0.1967 0.9344 -0.6052
v 0.5149 0.9344 -0.3741
v 0.0000 1.1160 0.0000
v 0.0000 1.1160 0.0000
v 0.0000 1.1160 0.0000
v -0.0000 1.1160 0.0000
v -0.0000 1.1160 0.0000
v -0.0000 1.1160 0.0000
v -0.0000 1.1160 -0.0000
v -0.0000 1.1160 -0.0000
v 0.0000 1.1160 -0.0000
v 0.0000 1.1160 -0.0000
v -0.4692 0.8258 -0.9157
v -0.5054 0.8071 -0.8922
v -0.5341 0.8422 -0.8795
v -0.5156 0.8825 -0.8951
v -0.4755 0.8724 -0.9175
v 0.5308 1.0258 0.7843
v 0.4946 1.0071 0.8078
v 0.4659 1.0422 0.8205
v 0.4844 1.0825 0.8049
v 0.5245 1.0724 0.7825
v -0.5000 0.8460 -0.9000
v 0.5000 1.0460 0.8000
v -0.2692 0.8258 -0.9657
v -0.3054 0.8071 -0.9422
v -0.3341 0.8422 -0.9295
v -0.3156 0.8825 -0.9451
v -0.2755 0.8724 -0.9675
v 0.7308 1.0258 0.7343
v 0.6946 1.0071 0.7578
v 0.6659 1.0422 0.7705
v 0.6844 1.0825 0.7549
v 0.7245 1.0724 0.7325
v -0.3000 0.8460 -0.9500
v 0.7000 1.0460 0.7500
vn 0.0000 1.0000 0.0000
vn 0.0000 1.0000 0.0000
vn 0.0000 1.0000 0.0000
vn 0.0000 1.0000 -0.0000
vn 0.0000 1.0000 0.0000
vn 0.0000 1.0000 0.0000
vn 0.0000 1.0000 0.0000
vn 0.0000 1.0000 0.0000
vn 0.0000 1.0000 0.0000
vn 0.0000 1.0000 0.0000
vn 0.0000 1.0000 0.0000
vn -0.0000 1.0000 0.0000
vn -0.5247 0.8396 -0.1406
vn -0.5247 0.8396 -0.1406
vn -0.3841 0.8396 -0.3841
vn -0.3841 0.8396 -0.3841
vn -0.1406 0.8396 -0.5247
vn -0.1406 0.8396 -0.5247
vn 0.1406 0.8396 -0.5247
vn 0.1406 0.8396 -0.5247
vn 0.3841 0.8396 -0.3841
vn 0.3841 0.8396 -0.3841
vn 0.5247 0.8396 -0.1406
vn 0.5247 0.8396 -0.1406
vn 0.5247 0.8396 0.1406
vn 0.5247 0.8396 0.1406
vn 0.3841 0.8396 0.3841
vn 0.3841 0.8396 0.3841
vn 0.1406 0.8396 0.5247
vn 0.1406 0.8396 0.5247
vn -0.1406 0.8396 0.5247
vn -0.1406 0.8396 0.5247
vn -0.3841 0.8396 0.3841
vn -0.3841 0.8396 0.3841
vn -0.5247 0.8396 0.1406
vn -0.5247 0.8396 0.1406
vn -0.6005 0.7833 -0.1609
vn -0.6005 0.7833 -0.1609
vn -0.4396 0.7833 -0.4396
vn -0.4396 0.7833 -0.4396
vn -0.1609 0.7833 -0.6005
vn -0.1609 0.7833 -0.6005
vn 0.1609 0.7833 -0.6005
vn 0.1609 0.7833 -0.6005
vn 0.4396 0.7833 -0.4396
vn 0.4396 0.7833 -0.4396
vn 0.6005 0.7833 -0.1609
vn 0.6005 0.7833 -0.1609
vn 0.6005 0.7833 0.1609
vn 0.6005 0.7833 0.1609
vn 0.4396 0.7833 0.4396
vn 0.4396 0.7833 0.4396
vn 0.1609 0.7833 0.6005
vn 0.1609 0.7833 0.6005
vn -0.1609 0.7833 0.6005
vn -0.1609 0.7833 0.6005
vn -0.4396 0.7833 0.4396
vn -0.4396 0.7833 0.4396
vn -0.6005 0.7833 0.1609
vn -0.6005 0.7833 0.1609
vn -0.8775 0.4179 -0.2351
vn -0.8775 0.4179 -0.2351
vn -0.6424 0.4179 -0.6424
vn -0.6424 0.4179 -0.6424
vn -0.2351 0.4179 -0.8775
vn -0.2351 0.4179 -0.8775
vn 0.2351 0.4179 -0.8775
vn 0.2351 0.4179 -0.8775
vn 0.6424 0.4179 -0.6424
vn 0.6424 0.4179 -0.6424
vn 0.8775 0.4179 -0.2351
vn 0.8775 0.4179 -0.2351
vn 0.8775 0.4179 0.2351
vn 0.8775 0.4179 0.2351
vn 0.6424 0.4179 0.6424
vn 0.6424 0.4179 0.6424
vn 0.2351 0.4179 0.8775
vn 0.2351 0.4179 0.8775
vn -0.2351 0.4179 0.8775
vn -0.2351 0.4179 0.8775
vn -0.6424 0.4179 0.6424
vn -0.6424 0.4179 0.6424
vn -0.8775 0.4179 0.2351
vn -0.8775 0.4179 0.2351
vn 0.0000 1.0000 0.0000
vn 0.0000 1.0000 -0.0000
vn 0.0000 1.0000 0.0000
vn 0.0000 1.0000 -0.0000
vn 0.0000 1.0000 0.0000
vn 0.0000 1.0000 -0.0000
vn 0.0000 1.0000 0.0000
vn 0.0000 1.0000 -0.0000
vn 0.0000 1.0000 0.0000
vn 0.0000 1.0000 0.0000
vn 0.0000 1.0000 0.0000
vn 0.0000 1.0000 0.0000
vn 0.0000 1.0000 0.0000
vn 0.0000 1.0000 0.0000
vn 0.0000 1.0000 0.0000
vn 0.0000 1.0000 0.0000
vn 0.0000 1.0000 0.0000
vn 0.0000 1.0000 0.0000
vn 0.0000 1.0000 0.0000
vn -0.0000 1.0000 0.0000
vn 0.0000 1.0000 0.0000
vn -0.0000 1.0000 0.0000
vn 0.0000 1.0000 0.0000
vn -0.0000 1.0000 0.0000
vn -0.9659 0.0000 -0.2588
vn -0.9659 0.0000 -0.2588
vn -0.7071 0.0000 -0.7071
vn -0.7071 0.0000 -0.7071
vn -0.2588 0.0000 -0.9659
vn -0.2588 0.0000 -0.9659
vn 0.2588 0.0000 -0.9659
vn 0.2588 0.0000 -0.9659
vn 0.7071 0.0000 -0.7071
vn 0.7071 0.0000 -0.7071
vn 0.9659 0.0000 -0.2588
vn 0.9659 0.0000 -0.2588
vn 0.9659 0.0000 0.2588
vn 0.9659 -0.0000 0.2588
vn 0.7071 0.0000 0.7071
vn 0.7071 -0.0000 0.7071
vn 0.2588 0.0000 0.9659
vn 0.2588 -0.0000 0.9659
vn -0.2588 0.0000 0.9659
vn -0.2588 0.0000 0.9659
vn -0.7071 0.0000 0.7071
vn -0.7071 0.0000 0.7071
vn -0.9659 0.0000 0.2588
vn -0.9659 0.0000 0.2588
vn 0.0000 -1.0000 0.0000
vn 0.0000 -1.0000 0.0000
vn 0.0000 -1.0000 0.0000
vn -0.0000 -1.0000 0.0000
vn 0.0000 -1.0000 0.0000
vn -0.0000 -1.0000 0.0000
vn 0.0000 -1.0000 0.0000
vn 0.0000 -1.0000 0.0000
vn 0.0000 -1.0000 0.0000
vn 0.0000 -1.0000 -0.0000
vn 0.0000 -1.0000 0.0000
vn 0.0000 -1.0000 -0.0000
vn 0.0000 -1.0000 0.0000
vn 0.0000 -1.0000 0.0000
vn 0.0000 -1.0000 0.0000
vn 0.0000 -1.0000 0.0000
vn 0.0000 -1.0000 0.0000
vn 0.0000 -1.0000 0.0000
vn 0.0000 -1.0000 0.0000
vn 0.0000 -1.0000 0.0000
vn 0.0000 -1.0000 0.0000
vn 0.0000 -1.0000 0.0000
vn 0.0000 -1.0000 0.0000
vn 0.0000 -1.0000 0.0000
vn 0.9659 0.0000 0.2588
vn 0.9659 0.0000 0.2588
vn 0.7071 0.0000 0.7071
vn 0.7071 0.0000 0.7071
vn 0.2588 0.0000 0.9659
vn 0.2588 0.0000 0.9659
vn -0.2588 0.0000 0.9659
vn -0.2588 0.0000 0.9659
vn -0.7071 0.0000 0.7071
vn -0.7071 0.0000 0.7071
vn -0.9659 0.0000 0.2588
vn -0.9659 0.0000 0.2588
vn -0.9659 0.0000 -0.2588
vn -0.9659 -0.0000 -0.2588
vn -0.7071 0.0000 -0.7071
vn -0.7071 -0.0000 -0.7071
vn -0.2588 0.0000 -0.9659
vn -0.2588 -0.0000 -0.9659
vn 0.2588 0.0000 -0.9659
vn 0.2588 0.0000 -0.9659
vn 0.7071 0.0000 -0.7071
vn 0.7071 0.0000 -0.7071
vn 0.9659 0.0000 -0.2588
vn 0.9659 0.0000 -0.2588
vn 0.8466 -0.4815 0.2268
vn 0.8466 -0.4815 0.2268
vn 0.6198 -0.4815 0.6198
vn 0.6198 -0.4815 0.6198
vn 0.2268 -0.4815 0.8466
vn 0.2268 -0.4815 0.8466
vn -0.2268 -0.4815 0.8466
vn -0.2268 -0.4815 0.8466
vn -0.6198 -0.4815 0.6198
vn -0.6198 -0.4815 0.6198
vn -0.8466 -0.4815 0.2268
vn -0.8466 -0.4815 0.2268
vn -0.8466 -0.4815 -0.2268
vn -0.8466 -0.4815 -0.2268
vn -0.6198 -0.4815 -0.6198
vn -0.6198 -0.4815 -0.6198
vn -0.2268 -0.4815 -0.8466
vn -0.2268 -0.4815 -0.8466
vn 0.2268 -0.4815 -0.8466
vn 0.2268 -0.4815 -0.8466
vn 0.6198 -0.4815 -0.6198
vn 0.6198 -0.4815 -0.6198
vn 0.8466 -0.4815 -0.2268
vn 0.8466 -0.4815 -0.2268
vn 0.0967 -0.9950 0.0259
vn 0.0708 -0.9950 0.0708
vn 0.0259 -0.9950 0.0967
vn -0.0259 -0.9950 0.0967
vn -0.0708 -0.9950 0.0708
vn -0.0967 -0.9950 0.0259
vn -0.0967 -0.9950 -0.0259
vn -0.0708 -0.9950 -0.0708
vn -0.0259 -0.9950 -0.0967
vn 0.0259 -0.9950 -0.0967
vn 0.0708 -0.9950 -0.0708
vn 0.0967 -0.9950 -0.0259
vn -0.2733 0.9578 -0.0888
vn -0.1689 0.9578 -0.2325
vn 0.0000 0.9578 -0.2874
vn 0.1689 0.9578 -0.2325
vn 0.2733 0.9578 -0.0888
vn 0.2733 0.9578 0.0888
vn 0.1689 0.9578 0.2325
vn 0.0000 0.9578 0.2874
vn -0.1689 0.9578 0.2325
vn -0.2733 0.9578 0.0888
vn -0.8256 0.4964 -0.2683
vn -0.8256 0.4964 -0.2683
vn -0.5102 0.4964 -0.7023
vn -0.5102 0.4964 -0.7023
vn 0.0000 0.4964 -0.8681
vn -0.0000 0.4964 -0.8681
vn 0.5102 0.4964 -0.7023
vn 0.5102 0.4964 -0.7023
vn 0.8256 0.4964 -0.2683
vn 0.8256 0.4964 -0.2683
vn 0.8256 0.4964 0.2683
vn 0.8256 0.4964 0.2683
vn 0.5102 0.4964 0.7023
vn 0.5102 0.4964 0.7023
vn -0.0000 0.4964 0.8681
vn 0.0000 0.4964 0.8681
vn -0.5102 0.4964 0.7023
vn -0.5102 0.4964 0.7023
vn -0.8256 0.4964 0.2683
vn -0.8256 0.4964 0.2683
vn -0.8256 -0.4964 -0.2683
vn -0.8256 -0.4964 -0.2683
vn -0.5102 -0.4964 -0.7023
vn -0.5102 -0.4964 -0.7023
vn -0.0000 -0.4964 -0.8681
vn 0.0000 -0.4964 -0.8681
vn 0.5102 -0.4964 -0.7023
vn 0.5102 -0.4964 -0.7023
vn 0.8256 -0.4964 -0.2683
vn 0.8256 -0.4964 -0.2683
vn 0.8256 -0.4964 0.2683
vn 0.8256 -0.4964 0.2683
vn 0.5102 -0.4964 0.7023
vn 0.5102 -0.4964 0.7023
vn 0.0000 -0.4964 0.8681
vn 0.0000 -0.4964 0.8681
vn -0.5102 -0.4964 0.7023
vn -0.5102 -0.4964 0.7023
vn -0.8256 -0.4964 0.2683
vn -0.8256 -0.4964 0.2683
vn -0.2733 -0.9578 -0.0888
vn -0.1689 -0.9578 -0.2325
vn -0.0000 -0.9578 -0.2874
vn 0.1689 -0.9578 -0.2325
vn 0.2733 -0.9578 -0.0888
vn 0.2733 -0.9578 0.0888
vn 0.1689 -0.9578 0.2325
vn 0.0000 -0.9578 0.2874
vn -0.1689 -0.9578 0.2325
vn -0.2733 -0.9578 0.0888
vn -0.3911 0.9121 0.1227
vn -0.3911 0.9121 0.1227
vn 0.6113 0.6597 -0.4372
vn 0.6113 0.6597 -0.4372
vn 0.7689 -0.5044 -0.3929
vn 0.7689 -0.5044 -0.3929
vn -0.1361 -0.9714 0.1943
vn -0.1361 -0.9714 0.1943
vn -0.8530 -0.0960 0.5130
vn -0.8530 -0.0960 0.5130
vn -0.5044 -0.1009 -0.8575
vn -0.5044 -0.1009 -0.8575
vn -0.5044 -0.1009 -0.8575
vn -0.5044 -0.1009 -0.8575
vn -0.5044 -0.1009 -0.8575
vn -0.5044 -0.1009 -0.8575
vn -0.5044 -0.1009 -0.8575
vn -0.5044 -0.1009 -0.8575
vn -0.5044 -0.1009 -0.8575
vn -0.5044 -0.1009 -0.8575
vn -0.3911 0.9121 0.1227
vn -0.3911 0.9121 0.1227
vn 0.6113 0.6597 -0.4372
vn 0.6113 0.6597 -0.4372
vn 0.7689 -0.5044 -0.3929
vn 0.7689 -0.5044 -0.3929
vn -0.1361 -0.9714 0.1943
vn -0.1361 -0.9714 0.1943
vn -0.8530 -0.0960 0.5130
vn -0.8530 -0.0960 0.5130
vn -0.5044 -0.1009 -0.8575
vn -0.5044 -0.1009 -0.8575
vn -0.5044 -0.1009 -0.8575
vn -0.5044 -0.1009 -0.8575
vn -0.5044 -0.1009 -0.8575
vn -0.5044 -0.1009 -0.8575
vn -0.5044 -0.1009 -0.8575
vn -0.5044 -0.1009 -0.8575
vn -0.5044 -0.1009 -0.8575
vn -0.5044 -0.1009 -0.8575
usemtl c0
f 1//1 14//1 13//1
f 2//2 15//2 14//2
f 3//3 16//3 15//3
f 4//4 17//4 16//4
f 5//5 18//5 17//5
f 6//6 19//6 18//6
f 7//7 20//7 19//7
f 8//8 21//8 20//8
f 9//9 22//9 21//9
f 10//10 23//10 22//10
f 11//11 24//11 23//11
f 12//12 13//12 24//12
f 13//13 14//13 26//13
f 13//14 26//14 25//14
f 14//15 15//15 27//15
f 14//16 27//16 26//16
f 15//17 16//17 28//17
f 15//18 28//18 27//18
f 16//19 17//19 29//19
f 16//20 29//20 28//20
f 17//21 18//21 30//21
f 17//22 30//22 29//22
f 18//23 19//23 31//23
f 18//24 31//24 30//24
f 19//25 20//25 32//25
f 19//26 32//26 31//26
f 20//27 21//27 33//27
f 20//28 33//28 32//28
f 21//29 22//29 34//29
f 21//30 34//30 33//30
f 22//31 23//31 35//31
f 22//32 35//32 34//32
f 23//33 24//33 36//33
f 23//34 36//34 35//34
f 24//35 13//35 25//35
f 24//36 25//36 36//36
f 25//37 26//37 38//37
f 25//38 38//38 37//38
f 26//39 27//39 39//39
f 26//40 39//40 38//40
f 27//41 28//41 40//41
f 27//42 40//42 39//42
f 28//43 29//43 41//43
f 28//44 41//44 40//44
f 29//45 30//45 42//45
f 29//46 42//46 41//46
f 30//47 31//47 43//47
f 30//48 43//48 42//48
f 31//49 32//49 44//49
f 31//50 44//50 43//50
f 32//51 33//51 45//51
f 32//52 45//52 44//52
f 33//53 34//53 46//53
f 33//54 46//54 45//54
f 34//55 35//55 47//55
f 34//56 47//56 46//56
f 35//57 36//57 48//57
f 35//58 48//58 47//58
f 36//59 25//59 37//59
f 36//60 37//60 48//60
f 37//61 38//61 50//61
f 37//62 50//62 49//62
f 38//63 39//63 51//63
f 38//64 51//64 50//64
f 39//65 40//65 52//65
f 39//66 52//66 51//66
f 40//67 41//67 53//67
f 40//68 53//68 52//68
f 41//69 42//69 54//69
f 41//70 54//70 53//70
f 42//71 43//71 55//71
f 42//72 55//72 54//72
f 43//73 44//73 56//73
f 43//74 56//74 55//74
f 44//75 45//75 57//75
f 44//76 57//76 56//76
f 45//77 46//77 58//77
f 45//78 58//78 57//78
f 46//79 47//79 59//79
f 46//80 59//80 58//80
f 47//81 48//81 60//81
f 47//82 60//82 59//82
f 48//83 37//83 49//83
f 48//84 49//84 60//84
usemtl c1
f 61//85 62//85 74//85
f 61//86 74//86 73//86
f 62//87 63//87 75//87
f 62//88 75//88 74//88
f 63//89 64//89 76//89
f 63//90 76//90 75//90
f 64//91 65//91 77//91
f 64//92 77//92 76//92
f 65//93 66//93 78//93
f 65//94 78//94 77//94
f 66//95 67//95 79//95
f 66//96 79//96 78//96
f 67//97 68//97 80//97
f 67//98 80//98 79//98
f 68//99 69//99 81//99
f 68//100 81//100 80//100
f 69//101 70//101 82//101
f 69//102 82//102 81//102
f 70//103 71//103 83//103
f 70//104 83//104 82//104
f 71//105 72//105 84//105
f 71//106 84//106 83//106
f 72//107 61//107 73//107
f 72//108 73//108 84//108
f 73//109 74//109 86//109
f 73//110 86//110 85//110
f 74//111 75//111 87//111
f 74//112 87//112 86//112
f 75//113 76//113 88//113
f 75//114 88//114 87//114
f 76//115 77//115 89//115
f 76//116 89//116 88//116
f 77//117 78//117 90//117
f 77//118 90//118 89//118
f 78//119 79//119 91//119
f 78//120 91//120 90//120
f 79//121 80//121 92//121
f 79//122 92//122 91//122
f 80//123 81//123 93//123
f 80//124 93//124 92//124
f 81//125 82//125 94//125
f 81//126 94//126 93//126
f 82//127 83//127 95//127
f 82//128 95//128 94//128
f 83//129 84//129 96//129
f 83//130 96//130 95//130
f 84//131 73//131 85//131
f 84//132 85//132 96//132
f 85//133 86//133 98//133
f 85//134 98//134 97//134
f 86//135 87//135 99//135
f 86//136 99//136 98//136
f 87//137 88//137 100//137
f 87//138 100//138 99//138
f 88//139 89//139 101//139
f 88//140 101//140 100//140
f 89//141 90//141 102//141
f 89//142 102//142 101//142
f 90//143 91//143 103//143
f 90//144 103//144 102//144
f 91//145 92//145 104//145
f 91//146 104//146 103//146
f 92//147 93//147 105//147
f 92//148 105//148 104//148
f 93//149 94//149 106//149
f 93//150 106//150 105//150
f 94//151 95//151 107//151
f 94//152 107//152 106//152
f 95//153 96//153 108//153
f 95//154 108//154 107//154
f 96//155 85//155 97//155
f 96//156 97//156 108//156
f 97//157 98//157 62//157
f 97//158 62//158 61//158
f 98//159 99//159 63//159
f 98//160 63//160 62//160
f 99//161 100//161 64//161
f 99//162 64//162 63//162
f 100//163 101//163 65//163
f 100//164 65//164 64//164
f 101//165 102//165 66//165
f 101//166 66//166 65//166
f 102//167 103//167 67//167
f 102//168 67//168 66//168
f 103//169 104//169 68//169
f 103//170 68//170 67//170
f 104//171 105//171 69//171
f 104//172 69//172 68//172
f 105//173 106//173 70//173
f 105//174 70//174 69//174
f 106//175 107//175 71//175
f 106//176 71//176 70//176
f 107//177 108//177 72//177
f 107//178 72//178 71//178
f 108//179 97//179 61//179
f 108//180 61//180 72//180
usemtl c2
f 109//181 110//181 122//181
f 109//182 122//182 121//182
f 110//183 111//183 123//183
f 110//184 123//184 122//184
f 111//185 112//185 124//185
f 111//186 124//186 123//186
f 112//187 113//187 125//187
f 112//188 125//188 124//188
f 113//189 114//189 126//189
f 113//190 126//190 125//190
f 114//191 115//191 127//191
f 114//192 127//192 126//192
f 115//193 116//193 128//193
f 115//194 128//194 127//194
f 116//195 117//195 129//195
f 116//196 129//196 128//196
f 117//197 118//197 130//197
f 117//198 130//198 129//198
f 118//199 119//199 131//199
f 118//200 131//200 130//200
f 119//201 120//201 132//201
f 119//202 132//202 131//202
f 120//203 109//203 121//203
f 120//204 121//204 132//204
f 121//205 122//205 134//205
f 122//206 123//206 135//206
f 123//207 124//207 136//207
f 124//208 125//208 137//208
f 125//209 126//209 138//209
f 126//210 127//210 139//210
f 127//211 128//211 140//211
f 128//212 129//212 141//212
f 129//213 130//213 142//213
f 130//214 131//214 143//214
f 131//215 132//215 144//215
f 132//216 121//216 133//216
usemtl c3
f 145//217 156//217 155//217
f 146//218 157//218 156//218
f 147//219 158//219 157//219
f 148//220 159//220 158//220
f 149//221 160//221 159//221
f 150//222 161//222 160//222
f 151//223 162//223 161//223
f 152//224 163//224 162//224
f 153//225 164//225 163//225
f 154//226 155//226 164//226
f 155//227 156//227 166//227
f 155//228 166//228 165//228
f 156//229 157//229 167//229
f 156//230 167//230 166//230
f 157//231 158//231 168//231
f 157//232 168//232 167//232
f 158//233 159//233 169//233
f 158//234 169//234 168//234
f 159//235 160//235 170//235
f 159//236 170//236 169//236
f 160//237 161//237 171//237
f 160//238 171//238 170//238
f 161//239 162//239 172//239
f 161//240 172//240 171//240
f 162//241 163//241 173//241
f 162//242 173//242 172//242
f 163//243 164//243 174//243
f 163//244 174//244 173//244
f 164//245 155//245 165//245
f 164//246 165//246 174//246
f 165//247 166//247 176//247
f 165//248 176//248 175//248
f 166//249 167//249 177//249
f 166//250 177//250 176//250
f 167//251 168//251 178//251
f 167//252 178//252 177//252
f 168//253 169//253 179//253
f 168//254 179//254 178//254
f 169//255 170//255 180//255
f 169//256 180//256 179//256
f 170//257 171//257 181//257
f 170//258 181//258 180//258
f 171//259 172//259 182//259
f 171//260 182//260 181//260
f 172//261 173//261 183//261
f 172//262 183//262 182//262
f 173//263 174//263 184//263
f 173//264 184//264 183//264
f 174//265 165//265 175//265
f 174//266 175//266 184//266
f 175//267 176//267 186//267
f 176//268 177//268 187//268
f 177//269 178//269 188//269
f 178//270 179//270 189//270
f 179//271 180//271 190//271
f 180//272 181//272 191//272
f 181//273 182//273 192//273
f 182//274 183//274 193//274
f 183//275 184//275 194//275
f 184//276 175//276 185//276
usemtl c4
f 195//277 196//277 201//277
f 195//278 201//278 200//278
f 196//279 197//279 202//279
f 196//280 202//280 201//280
f 197//281 198//281 203//281
f 197//282 203//282 202//282
f 198//283 199//283 204//283
f 198//284 204//284 203//284
f 199//285 195//285 200//285
f 199//286 200//286 204//286
f 205//287 195//287 196//287
f 205//288 196//288 197//288
f 205//289 197//289 198//289
f 205//290 198//290 199//290
f 205//291 199//291 195//291
f 206//292 200//292 201//292
f 206//293 201//293 202//293
f 206//294 202//294 203//294
f 206//295 203//295 204//295
f 206//296 204//296 200//296
f 207//297 208//297 213//297
f 207//298 213//298 212//298
f 208//299 209//299 214//299
f 208//300 214//300 213//300
f 209//301 210//301 215//301
f 209//302 215//302 214//302
f 210//303 211//303 216//303
f 210//304 216//304 215//304
f 211//305 207//305 212//305
f 211//306 212//306 216//306
f 217//307 207//307 208//307
f 217//308 208//308 209//308
f 217//309 209//309 210//309
f 217//310 210//310 211//310
f 217//311 211//311 207//311
f 218//312 212//312 213//312
f 218//313 213//313 214//313
f 218//314 214//314 215//314
f 218//315 215//315 216//315
f 218//316 216//316 212//316
