mtllib Food_Orange.mtl
v 0.0000 -0.9250 0.0000
v 0.0000 -0.9250 0.0000
v 0.0000 -0.9250 0.0000
v 0.0000 -0.9250 0.0000
v 0.0000 -0.9250 0.0000
v 0.0000 -0.9250 0.0000
v 0.0000 -0.9250 0.0000
v 0.0000 -0.9250 0.0000
v 0.0000 -0.9250 0.0000
v 0.3827 -0.8745 0.0000
v 0.2932 -0.8745 0.2460
v 0.0665 -0.8745 0.3769
v -0.1913 -0.8745 0.3314
v -0.3596 -0.8745 0.1309
v -0.3596 -0.8745 -0.1309
v -0.1913 -0.8745 -0.3314
v 0.0665 -0.8745 -0.3769
v 0.2932 -0.8745 -0.2460
v 0.7071 -0.6718 0.0000
v 0.5417 -0.6718 0.4545
v 0.1228 -0.6718 0.6964
v -0.3536 -0.6718 0.6124
v -0.6645 -0.6718 0.2418
v -0.6645 -0.6718 -0.2418
v -0.3536 -0.6718 -0.6124
v 0.1228 -0.6718 -0.6964
v 0.5417 -0.6718 -0.4545
v 0.9239 -0.3635 0.0000
v 0.7077 -0.3635 0.5939
v 0.1604 -0.3635 0.9098
v -0.4619 -0.3635 0.8001
v -0.8682 -0.3635 0.3160
v -0.8682 -0.3635 -0.3160
v -0.4619 -0.3635 -0.8001
v 0.1604 -0.3635 -0.9098
v 0.7077 -0.3635 -0.5939
v 1.0000 -0.0000 0.0000
v 0.7660 -0.0000 0.6428
v 0.1736 -0.0000 0.9848
v -0.5000 -0.0000 0.8660
v -0.9397 -0.0000 0.3420
v -0.9397 -0.0000 -0.3420
v -0.5000 -0.0000 -0.8660
v 0.1736 -0.0000 -0.9848
v 0.7660 -0.0000 -0.6428
v 0.9239 0.3635 0.0000
v 0.7077 0.3635 0.5939
v 0.1604 0.3635 0.9098
v -0.4619 0.3635 0.8001
v -0.8682 0.3635 0.3160
v -0.8682 0.3635 -0.3160
v -0.4619 0.3635 -0.8001
v 0.1604 0.3635 -0.9098
v 0.7077 0.3635 -0.5939
v 0.7071 0.6718 0.0000
v 0.5417 0.6718 0.4545
v 0.1228 0.6718 0.6964
v -0.3536 0.6718 0.6124
v -0.6645 0.6718 0.2418
v -0.6645 0.6718 -0.2418
v -0.3536 0.6718 -0.6124
v 0.1228 0.6718 -0.6964
v 0.5417 0.6718 -0.4545
v 0.3827 0.8634 0.0000
v 0.2932 0.8634 0.2460
v 0.0665 0.8634 0.3769
v -0.1913 0.8634 0.3314
v -0.3596 0.8634 0.1309
v -0.3596 0.8634 -0.1309
v -0.1913 0.8634 -0.3314
v 0.0665 0.8634 -0.3769
v 0.2932 0.8634 -0.2460
v 0.0000 0.9000 0.0000
v 0.0000 0.9000 0.0000
v 0.0000 0.9000 0.0000
v -0.0000 0.9000 0.0000
v -0.0000 0.9000 0.0000
v -0.0000 0.9000 -0.0000
v -0.0000 0.9000 -0.0000
v 0.0000 0.9000 -0.0000
v 0.0000 0.9000 -0.0000
v 0.2000 0.8500 0.0000
v 0.1414 0.8500 0.1414
v 0.0000 0.8500 0.2000
v -0.1414 0.8500 0.1414
v -0.2000 0.8500 0.0000
v -0.1414 0.8500 -0.1414
v -0.0000 0.8500 -0.2000
v 0.1414 0.8500 -0.1414
v 0.2000 0.8900 0.0000
v 0.1414 0.8900 0.1414
v 0.0000 0.8900 0.2000
v -0.1414 0.8900 0.1414
v -0.2000 0.8900 0.0000
v -0.1414 0.8900 -0.1414
v -0.0000 0.8900 -0.2000
v 0.1414 0.8900 -0.1414
v 0.0000 0.8500 0.0000
v 0.0000 0.8900 0.0000
vn -0.1307 0.9903 -0.0476
vn -0.0695 0.9903 -0.1204
vn 0.0241 0.9903 -0.1369
vn 0.1065 0.9903 -0.0894
vn 0.1391 0.9903 0.0000
vn 0.1065 0.9903 0.0894
vn 0.0241 0.9903 0.1369
vn -0.0695 0.9903 0.1204
vn -0.1307 0.9903 0.0476
vn -0.5204 0.8327 -0.1894
vn -0.5204 0.8327 -0.1894
vn -0.2769 0.8327 -0.4796
vn -0.2769 0.8327 -0.4796
vn 0.0962 0.8327 -0.5454
vn 0.0962 0.8327 -0.5454
vn 0.4242 0.8327 -0.3560
vn 0.4242 0.8327 -0.3560
vn 0.5538 0.8327 -0.0000
vn 0.5538 0.8327 -0.0000
vn 0.4242 0.8327 0.3560
vn 0.4242 0.8327 0.3560
vn 0.0962 0.8327 0.5454
vn 0.0962 0.8327 0.5454
vn -0.2769 0.8327 0.4796
vn -0.2769 0.8327 0.4796
vn -0.5204 0.8327 0.1894
vn -0.5204 0.8327 0.1894
vn -0.7839 0.5514 -0.2853
vn -0.7839 0.5514 -0.2853
vn -0.4171 0.5514 -0.7225
vn -0.4171 0.5514 -0.7225
vn 0.1449 0.5514 -0.8216
vn 0.1449 0.5514 -0.8216
vn 0.6391 0.5514 -0.5362
vn 0.6391 0.5514 -0.5362
vn 0.8343 0.5514 -0.0000
vn 0.8343 0.5514 -0.0000
vn 0.6391 0.5514 0.5362
vn 0.6391 0.5514 0.5362
vn 0.1449 0.5514 0.8216
vn 0.1449 0.5514 0.8216
vn -0.4171 0.5514 0.7225
vn -0.4171 0.5514 0.7225
vn -0.7839 0.5514 0.2853
vn -0.7839 0.5514 0.2853
vn -0.9220 0.1931 -0.3356
vn -0.9220 0.1931 -0.3356
vn -0.4906 0.1931 -0.8497
vn -0.4906 0.1931 -0.8497
vn 0.1704 0.1931 -0.9663
vn 0.1704 0.1931 -0.9663
vn 0.7516 0.1931 -0.6307
vn 0.7516 0.1931 -0.6307
vn 0.9812 0.1931 -0.0000
vn 0.9812 0.1931 -0.0000
vn 0.7516 0.1931 0.6307
vn 0.7516 0.1931 0.6307
vn 0.1704 0.1931 0.9663
vn 0.1704 0.1931 0.9663
vn -0.4906 0.1931 0.8497
vn -0.4906 0.1931 0.8497
vn -0.9220 0.1931 0.3356
vn -0.9220 0.1931 0.3356
vn -0.9220 -0.1931 -0.3356
vn -0.9220 -0.1931 -0.3356
vn -0.4906 -0.1931 -0.8497
vn -0.4906 -0.1931 -0.8497
vn 0.1704 -0.1931 -0.9663
vn 0.1704 -0.1931 -0.9663
vn 0.7516 -0.1931 -0.6307
vn 0.7516 -0.1931 -0.6307
vn 0.9812 -0.1931 -0.0000
vn 0.9812 -0.1931 -0.0000
vn 0.7516 -0.1931 0.6307
vn 0.7516 -0.1931 0.6307
vn 0.1704 -0.1931 0.9663
vn 0.1704 -0.1931 0.9663
vn -0.4906 -0.1931 0.8497
vn -0.4906 -0.1931 0.8497
vn -0.9220 -0.1931 0.3356
vn -0.9220 -0.1931 0.3356
vn -0.7839 -0.5514 -0.2853
vn -0.7839 -0.5514 -0.2853
vn -0.4171 -0.5514 -0.7225
vn -0.4171 -0.5514 -0.7225
vn 0.1449 -0.5514 -0.8216
vn 0.1449 -0.5514 -0.8216
vn 0.6391 -0.5514 -0.5362
vn 0.6391 -0.5514 -0.5362
vn 0.8343 -0.5514 -0.0000
vn 0.8343 -0.5514 -0.0000
vn 0.6391 -0.5514 0.5362
vn 0.6391 -0.5514 0.5362
vn 0.1449 -0.5514 0.8216
vn 0.1449 -0.5514 0.8216
vn -0.4171 -0.5514 0.7225
vn -0.4171 -0.5514 0.7225
vn -0.7839 -0.5514 0.2853
vn -0.7839 -0.5514 0.2853
vn -0.5001 -0.8466 -0.1820
vn -0.5001 -0.8466 -0.1820
vn -0.2661 -0.8466 -0.4609
vn -0.2661 -0.8466 -0.4609
vn 0.0924 -0.8466 -0.5241
vn 0.0924 -0.8466 -0.5241
vn 0.4077 -0.8466 -0.3421
vn 0.4077 -0.8466 -0.3421
vn 0.5322 -0.8466 -0.0000
vn 0.5322 -0.8466 0.0000
vn 0.4077 -0.8466 0.3421
vn 0.4077 -0.8466 0.3421
vn 0.0924 -0.8466 0.5241
vn 0.0924 -0.8466 0.5241
vn -0.2661 -0.8466 0.4609
vn -0.2661 -0.8466 0.4609
vn -0.5001 -0.8466 0.1820
vn -0.5001 -0.8466 0.1820
vn -0.0952 -0.9949 -0.0346
vn -0.0506 -0.9949 -0.0877
vn 0.0176 -0.9949 -0.0998
vn 0.0776 -0.9949 -0.0651
vn 0.1013 -0.9949 0.0000
vn 0.0776 -0.9949 0.0651
vn 0.0176 -0.9949 0.0998
vn -0.0506 -0.9949 0.0877
vn -0.0952 -0.9949 0.0346
vn -0.9239 0.0000 -0.3827
vn -0.9239 0.0000 -0.3827
vn -0.3827 0.0000 -0.9239
vn -0.3827 0.0000 -0.9239
vn 0.3827 0.0000 -0.9239
vn 0.3827 0.0000 -0.9239
vn 0.9239 0.0000 -0.3827
vn 0.9239 0.0000 -0.3827
vn 0.9239 0.0000 0.3827
vn 0.9239 -0.0000 0.3827
vn 0.3827 0.0000 0.9239
vn 0.3827 -0.0000 0.9239
vn -0.3827 0.0000 0.9239
vn -0.3827 0.0000 0.9239
vn -0.9239 0.0000 0.3827
vn -0.9239 0.0000 0.3827
vn 0.0000 -1.0000 0.0000
vn 0.0000 -1.0000 0.0000
vn 0.0000 -1.0000 0.0000
vn 0.0000 -1.0000 0.0000
vn -0.0000 -1.0000 0.0000
vn 0.0000 -1.0000 0.0000
vn 0.0000 -1.0000 -0.0000
vn 0.0000 -1.0000 0.0000
vn 0.0000 -1.0000 0.0000
vn 0.0000 -1.0000 0.0000
vn 0.0000 -1.0000 0.0000
vn 0.0000 -1.0000 0.0000
vn -0.0000 -1.0000 0.0000
vn 0.0000 -1.0000 0.0000
vn 0.0000 -1.0000 -0.0000
vn 0.0000 -1.0000 0.0000
usemtl c0
f 1//1 11//1 10//1
f 2//2 12//2 11//2
f 3//3 13//3 12//3
f 4//4 14//4 13//4
f 5//5 15//5 14//5
f 6//6 16//6 15//6
f 7//7 17//7 16//7
f 8//8 18//8 17//8
f 9//9 10//9 18//9
f 10//10 11//10 20//10
f 10//11 20//11 19//11
f 11//12 12//12 21//12
f 11//13 21//13 20//13
f 12//14 13//14 22//14
f 12//15 22//15 21//15
f 13//16 14//16 23//16
f 13//17 23//17 22//17
f 14//18 15//18 24//18
f 14//19 24//19 23//19
f 15//20 16//20 25//20
f 15//21 25//21 24//21
f 16//22 17//22 26//22
f 16//23 26//23 25//23
f 17//24 18//24 27//24
f 17//25 27//25 26//25
f 18//26 10//26 19//26
f 18//27 19//27 27//27
f 19//28 20//28 29//28
f 19//29 29//29 28//29
f 20//30 21//30 30//30
f 20//31 30//31 29//31
f 21//32 22//32 31//32
f 21//33 31//33 30//33
f 22//34 23//34 32//34
f 22//35 32//35 31//35
f 23//36 24//36 33//36
f 23//37 33//37 32//37
f 24//38 25//38 34//38
f 24//39 34//39 33//39
f 25//40 26//40 35//40
f 25//41 35//41 34//41
f 26//42 27//42 36//42
f 26//43 36//43 35//43
f 27//44 19//44 28//44
f 27//45 28//45 36//45
f 28//46 29//46 38//46
f 28//47 38//47 37//47
f 29//48 30//48 39//48
f 29//49 39//49 38//49
f 30//50 31//50 40//50
f 30//51 40//51 39//51
f 31//52 32//52 41//52
f 31//53 41//53 40//53
f 32//54 33//54 42//54
f 32//55 42//55 41//55
f 33//56 34//56 43//56
f 33//57 43//57 42//57
f 34//58 35//58 44//58
f 34//59 44//59 43//59
f 35//60 36//60 45//60
f 35//61 45//61 44//61
f 36//62 28//62 37//62
f 36//63 37//63 45//63
f 37//64 38//64 47//64
f 37//65 47//65 46//65
f 38//66 39//66 48//66
f 38//67 48//67 47//67
f 39//68 40//68 49//68
f 39//69 49//69 48//69
f 40//70 41//70 50//70
f 40//71 50//71 49//71
f 41//72 42//72 51//72
f 41//73 51//73 50//73
f 42//74 43//74 52//74
f 42//75 52//75 51//75
f 43//76 44//76 53//76
f 43//77 53//77 52//77
f 44//78 45//78 54//78
f 44//79 54//79 53//79
f 45//80 37//80 46//80
f 45//81 46//81 54//81
f 46//82 47//82 56//82
f 46//83 56//83 55//83
f 47//84 48//84 57//84
f 47//85 57//85 56//85
f 48//86 49//86 58//86
f 48//87 58//87 57//87
f 49//88 50//88 59//88
f 49//89 59//89 58//89
f 50//90 51//90 60//90
f 50//91 60//91 59//91
f 51//92 52//92 61//92
f 51//93 61//93 60//93
f 52//94 53//94 62//94
f 52//95 62//95 61//95
f 53//96 54//96 63//96
f 53//97 63//97 62//97
f 54//98 46//98 55//98
f 54//99 55//99 63//99
f 55//100 56//100 65//100
f 55//101 65//101 64//101
f 56//102 57//102 66//102
f 56//103 66//103 65//103
f 57//104 58//104 67//104
f 57//105 67//105 66//105
f 58//106 59//106 68//106
f 58//107 68//107 67//107
f 59//108 60//108 69//108
f 59//109 69//109 68//109
f 60//110 61//110 70//110
f 60//111 70//111 69//111
f 61//112 62//112 71//112
f 61//113 71//113 70//113
f 62//114 63//114 72//114
f 62//115 72//115 71//115
f 63//116 55//116 64//116
f 63//117 64//117 72//117
f 64//118 65//118 74//118
f 65//119 66//119 75//119
f 66//120 67//120 76//120
f 67//121 68//121 77//121
f 68//122 69//122 78//122
f 69//123 70//123 79//123
f 70//124 71//124 80//124
f 71//125 72//125 81//125
f 72//126 64//126 73//126
usemtl c1
f 82//127 83//127 91//127
f 82//128 91//128 90//128
f 83//129 84//129 92//129
f 83//130 92//130 91//130
f 84//131 85//131 93//131
f 84//132 93//132 92//132
f 85//133 86//133 94//133
f 85//134 94//134 93//134
f 86//135 87//135 95//135
f 86//136 95//136 94//136
f 87//137 88//137 96//137
f 87//138 96//138 95//138
f 88//139 89//139 97//139
f 88//140 97//140 96//140
f 89//141 82//141 90//141
f 89//142 90//142 97//142
f 98//143 82//143 83//143
f 98//144 83//144 84//144
f 98//145 84//145 85//145
f 98//146 85//146 86//146
f 98//147 86//147 87//147
f 98//148 87//148 88//148
f 98//149 88//149 89//149
f 98//150 89//150 82//150
f 99//151 90//151 91//151
f 99//152 91//152 92//152
f 99//153 92//153 93//153
f 99//154 93//154 94//154
f 99//155 94//155 95//155
f 99//156 95//156 96//156
f 99//157 96//157 97//157
f 99//158 97//158 90//158
