mtllib Food_Pie.mtl
v 1.1000 0.0000 0.0000
v 0.9526 0.0000 0.5500
v 0.5500 0.0000 0.9526
v 0.0000 0.0000 1.1000
v -0.5500 0.0000 0.9526
v -0.9526 0.0000 0.5500
v -1.1000 0.0000 0.0000
v -0.9526 0.0000 -0.5500
v -0.5500 0.0000 -0.9526
v -0.0000 0.0000 -1.1000
v 0.5500 0.0000 -0.9526
v 0.9526 0.0000 -0.5500
v 1.1000 0.5500 0.0000
v 0.9526 0.5500 0.5500
v 0.5500 0.5500 0.9526
v 0.0000 0.5500 1.1000
v -0.5500 0.5500 0.9526
v -0.9526 0.5500 0.5500
v -1.1000 0.5500 0.0000
v -0.9526 0.5500 -0.5500
v -0.5500 0.5500 -0.9526
v -0.0000 0.5500 -1.1000
v 0.5500 0.5500 -0.9526
v 0.9526 0.5500 -0.5500
v 0.0000 0.0000 0.0000
v 0.0000 0.5500 0.0000
v 0.9000 0.5000 0.0000
v 0.7794 0.5000 0.4500
v 0.4500 0.5000 0.7794
v 0.0000 0.5000 0.9000
v -0.4500 0.5000 0.7794
v -0.7794 0.5000 0.4500
v -0.9000 0.5000 0.0000
v -0.7794 0.5000 -0.4500
v -0.4500 0.5000 -0.7794
v -0.0000 0.5000 -0.9000
v 0.4500 0.5000 -0.7794
v 0.7794 0.5000 -0.4500
v 0.9000 0.6000 0.0000
v 0.7794 0.6000 0.4500
v 0.4500 0.6000 0.7794
v 0.0000 0.6000 0.9000
v -0.4500 0.6000 0.7794
v -0.7794 0.6000 0.4500
v -0.9000 0.6000 0.0000
v -0.7794 0.6000 -0.4500
v -0.4500 0.6000 -0.7794
v -0.0000 0.6000 -0.9000
v 0.4500 0.6000 -0.7794
v 0.7794 0.6000 -0.4500
v 0.0000 0.5000 0.0000
v 0.0000 0.6000 0.0000
v -0.9446 0.5900 -0.0041
v -0.8526 0.5900 -0.0960
v 0.0960 0.5900 0.8526
v 0.0041 0.5900 0.9446
v -0.9446 0.6500 -0.0041
v -0.8526 0.6500 -0.0960
v 0.0960 0.6500 0.8526
v 0.0041 0.6500 0.9446
v -0.4243 0.5900 0.4243
v -0.4243 0.6500 0.4243
v -0.8581 0.5900 -0.3419
v -0.7662 0.5900 -0.4338
v 0.4338 0.5900 0.7662
v 0.3419 0.5900 0.8581
v -0.8581 0.6500 -0.3419
v -0.7662 0.6500 -0.4338
v 0.4338 0.6500 0.7662
v 0.3419 0.6500 0.8581
v -0.2121 0.5900 0.2121
v -0.2121 0.6500 0.2121
v -0.6824 0.5900 -0.5904
v -0.5904 0.5900 -0.6824
v 0.6824 0.5900 0.5904
v 0.5904 0.5900 0.6824
v -0.6824 0.6500 -0.5904
v -0.5904 0.6500 -0.6824
v 0.6824 0.6500 0.5904
v 0.5904 0.6500 0.6824
v 0.0000 0.5900 0.0000
v 0.0000 0.6500 0.0000
v -0.4338 0.5900 -0.7662
v -0.3419 0.5900 -0.8581
v 0.8581 0.5900 0.3419
v 0.7662 0.5900 0.4338
v -0.4338 0.6500 -0.7662
v -0.3419 0.6500 -0.8581
v 0.8581 0.6500 0.3419
v 0.7662 0.6500 0.4338
v 0.2121 0.5900 -0.2121
v 0.2121 0.6500 -0.2121
v -0.0960 0.5900 -0.8526
v -0.0041 0.5900 -0.9446
v 0.9446 0.5900 0.0041
v 0.8526 0.5900 0.0960
v -0.0960 0.6500 -0.8526
v -0.0041 0.6500 -0.9446
v 0.9446 0.6500 0.0041
v 0.8526 0.6500 0.0960
v 0.4243 0.5900 -0.4243
v 0.4243 0.6500 -0.4243
v 0.0041 0.5900 -0.9446
v 0.0960 0.5900 -0.8526
v -0.8526 0.5900 0.0960
v -0.9446 0.5900 0.0041
v 0.0041 0.6500 -0.9446
v 0.0960 0.6500 -0.8526
v -0.8526 0.6500 0.0960
v -0.9446 0.6500 0.0041
v -0.4243 0.5900 -0.4243
v -0.4243 0.6500 -0.4243
v 0.3419 0.5900 -0.8581
v 0.4338 0.5900 -0.7662
v -0.7662 0.5900 0.4338
v -0.8581 0.5900 0.3419
v 0.3419 0.6500 -0.8581
v 0.4338 0.6500 -0.7662
v -0.7662 0.6500 0.4338
v -0.8581 0.6500 0.3419
v -0.2121 0.5900 -0.2121
v -0.2121 0.6500 -0.2121
v 0.5904 0.5900 -0.6824
v 0.6824 0.5900 -0.5904
v -0.5904 0.5900 0.6824
v -0.6824 0.5900 0.5904
v 0.5904 0.6500 -0.6824
v 0.6824 0.6500 -0.5904
v -0.5904 0.6500 0.6824
v -0.6824 0.6500 0.5904
v 0.0000 0.5900 0.0000
v 0.0000 0.6500 0.0000
v 0.7662 0.5900 -0.4338
v 0.8581 0.5900 -0.3419
v -0.3419 0.5900 0.8581
v -0.4338 0.5900 0.7662
v 0.7662 0.6500 -0.4338
v 0.8581 0.6500 -0.3419
v -0.3419 0.6500 0.8581
v -0.4338 0.6500 0.7662
v 0.2121 0.5900 0.2121
v 0.2121 0.6500 0.2121
v 0.8526 0.5900 -0.0960
v 0.9446 0.5900 -0.0041
v -0.0041 0.5900 0.9446
v -0.0960 0.5900 0.8526
v 0.8526 0.6500 -0.0960
v 0.9446 0.6500 -0.0041
v -0.0041 0.6500 0.9446
v -0.0960 0.6500 0.8526
v 0.4243 0.5900 0.4243
v 0.4243 0.6500 0.4243
v 1.1000 0.5800 0.0000
v 0.9526 0.5800 0.5500
v 0.5500 0.5800 0.9526
v 0.0000 0.5800 1.1000
v -0.5500 0.5800 0.9526
v -0.9526 0.5800 0.5500
v -1.1000 0.5800 0.0000
v -0.9526 0.5800 -0.5500
v -0.5500 0.5800 -0.9526
v -0.0000 0.5800 -1.1000
v 0.5500 0.5800 -0.9526
v 0.9526 0.5800 -0.5500
v 1.0000 0.6800 0.0000
v 0.8660 0.6800 0.5000
v 0.5000 0.6800 0.8660
v 0.0000 0.6800 1.0000
v -0.5000 0.6800 0.8660
v -0.8660 0.6800 0.5000
v -1.0000 0.6800 0.0000
v -0.8660 0.6800 -0.5000
v -0.5000 0.6800 -0.8660
v -0.0000 0.6800 -1.0000
v 0.5000 0.6800 -0.8660
v 0.8660 0.6800 -0.5000
v 0.9000 0.5800 0.0000
v 0.7794 0.5800 0.4500
v 0.4500 0.5800 0.7794
v 0.0000 0.5800 0.9000
v -0.4500 0.5800 0.7794
v -0.7794 0.5800 0.4500
v -0.9000 0.5800 0.0000
v -0.7794 0.5800 -0.4500
v -0.4500 0.5800 -0.7794
v -0.0000 0.5800 -0.9000
v 0.4500 0.5800 -0.7794
v 0.7794 0.5800 -0.4500
v 1.0000 0.4800 0.0000
v 0.8660 0.4800 0.5000
v 0.5000 0.4800 0.8660
v 0.0000 0.4800 1.0000
v -0.5000 0.4800 0.8660
v -0.8660 0.4800 0.5000
v -1.0000 0.4800 0.0000
v -0.8660 0.4800 -0.5000
v -0.5000 0.4800 -0.8660
v -0.0000 0.4800 -1.0000
v 0.5000 0.4800 -0.8660
v 0.8660 0.4800 -0.5000
vn -0.9659 0.0000 -0.2588
vn -0.9659 0.0000 -0.2588
vn -0.7071 0.0000 -0.7071
vn -0.7071 0.0000 -0.7071
vn -0.2588 0.0000 -0.9659
vn -0.2588 0.0000 -0.9659
vn 0.2588 0.0000 -0.9659
vn 0.2588 0.0000 -0.9659
vn 0.7071 0.0000 -0.7071
vn 0.7071 0.0000 -0.7071
vn 0.9659 0.0000 -0.2588
vn 0.9659 0.0000 -0.2588
vn 0.9659 0.0000 0.2588
vn 0.9659 -0.0000 0.2588
vn 0.7071 0.0000 0.7071
vn 0.7071 -0.0000 0.7071
vn 0.2588 0.0000 0.9659
vn 0.2588 -0.0000 0.9659
vn -0.2588 0.0000 0.9659
vn -0.2588 0.0000 0.9659
vn -0.7071 0.0000 0.7071
vn -0.7071 0.0000 0.7071
vn -0.9659 0.0000 0.2588
vn -0.9659 0.0000 0.2588
vn 0.0000 -1.0000 0.0000
vn 0.0000 -1.0000 0.0000
vn 0.0000 -1.0000 0.0000
vn 0.0000 -1.0000 0.0000
vn 0.0000 -1.0000 0.0000
vn 0.0000 -1.0000 0.0000
vn -0.0000 -1.0000 0.0000
vn 0.0000 -1.0000 0.0000
vn 0.0000 -1.0000 0.0000
vn 0.0000 -1.0000 -0.0000
vn 0.0000 -1.0000 0.0000
vn 0.0000 -1.0000 0.0000
vn 0.0000 -1.0000 0.0000
vn 0.0000 -1.0000 0.0000
vn 0.0000 -1.0000 0.0000
vn 0.0000 -1.0000 0.0000
vn 0.0000 -1.0000 0.0000
vn 0.0000 -1.0000 0.0000
vn -0.0000 -1.0000 0.0000
vn 0.0000 -1.0000 0.0000
vn 0.0000 -1.0000 0.0000
vn 0.0000 -1.0000 -0.0000
vn 0.0000 -1.0000 0.0000
vn 0.0000 -1.0000 0.0000
vn -0.9659 0.0000 -0.2588
vn -0.9659 0.0000 -0.2588
vn -0.7071 0.0000 -0.7071
vn -0.7071 0.0000 -0.7071
vn -0.2588 0.0000 -0.9659
vn -0.2588 0.0000 -0.9659
vn 0.2588 0.0000 -0.9659
vn 0.2588 0.0000 -0.9659
vn 0.7071 0.0000 -0.7071
vn 0.7071 0.0000 -0.7071
vn 0.9659 0.0000 -0.2588
vn 0.9659 0.0000 -0.2588
vn 0.9659 0.0000 0.2588
vn 0.9659 -0.0000 0.2588
vn 0.7071 0.0000 0.7071
vn 0.7071 -0.0000 0.7071
vn 0.2588 0.0000 0.9659
vn 0.2588 -0.0000 0.9659
vn -0.2588 0.0000 0.9659
vn -0.2588 0.0000 0.9659
vn -0.7071 0.0000 0.7071
vn -0.7071 0.0000 0.7071
vn -0.9659 0.0000 0.2588
vn -0.9659 0.0000 0.2588
vn 0.0000 -1.0000 0.0000
vn 0.0000 -1.0000 0.0000
vn 0.0000 -1.0000 0.0000
vn 0.0000 -1.0000 0.0000
vn 0.0000 -1.0000 0.0000
vn 0.0000 -1.0000 0.0000
vn -0.0000 -1.0000 0.0000
vn 0.0000 -1.0000 0.0000
vn 0.0000 -1.0000 0.0000
vn 0.0000 -1.0000 -0.0000
vn 0.0000 -1.0000 0.0000
vn 0.0000 -1.0000 0.0000
vn 0.0000 -1.0000 0.0000
vn 0.0000 -1.0000 0.0000
vn 0.0000 -1.0000 0.0000
vn 0.0000 -1.0000 0.0000
vn 0.0000 -1.0000 0.0000
vn 0.0000 -1.0000 0.0000
vn -0.0000 -1.0000 0.0000
vn 0.0000 -1.0000 0.0000
vn 0.0000 -1.0000 0.0000
vn 0.0000 -1.0000 -0.0000
vn 0.0000 -1.0000 0.0000
vn 0.0000 -1.0000 0.0000
vn 0.7071 0.0000 0.7071
vn 0.7071 -0.0000 0.7071
vn 0.0000 1.0000 0.0000
vn 0.0000 -1.0000 0.0000
vn -0.7071 0.0000 0.7071
vn -0.7071 0.0000 0.7071
vn -0.0000 1.0000 0.0000
vn 0.0000 -1.0000 -0.0000
vn -0.7071 0.0000 -0.7071
vn -0.7071 0.0000 -0.7071
vn 0.0000 1.0000 0.0000
vn 0.0000 -1.0000 0.0000
vn 0.7071 0.0000 -0.7071
vn 0.7071 0.0000 -0.7071
vn 0.0000 1.0000 -0.0000
vn -0.0000 -1.0000 0.0000
vn 0.7071 0.0000 0.7071
vn 0.7071 -0.0000 0.7071
vn 0.0000 1.0000 0.0000
vn 0.0000 -1.0000 0.0000
vn -0.7071 0.0000 0.7071
vn -0.7071 0.0000 0.7071
vn -0.0000 1.0000 0.0000
vn 0.0000 -1.0000 -0.0000
vn -0.7071 0.0000 -0.7071
vn -0.7071 0.0000 -0.7071
vn 0.0000 1.0000 0.0000
vn 0.0000 -1.0000 0.0000
vn 0.7071 0.0000 -0.7071
vn 0.7071 0.0000 -0.7071
vn 0.0000 1.0000 -0.0000
vn -0.0000 -1.0000 0.0000
vn 0.7071 0.0000 0.7071
vn 0.7071 -0.0000 0.7071
vn 0.0000 1.0000 0.0000
vn 0.0000 -1.0000 0.0000
vn -0.7071 0.0000 0.7071
vn -0.7071 0.0000 0.7071
vn -0.0000 1.0000 0.0000
vn 0.0000 -1.0000 -0.0000
vn -0.7071 0.0000 -0.7071
vn -0.7071 0.0000 -0.7071
vn 0.0000 1.0000 0.0000
vn 0.0000 -1.0000 0.0000
vn 0.7071 0.0000 -0.7071
vn 0.7071 0.0000 -0.7071
vn 0.0000 1.0000 -0.0000
vn -0.0000 -1.0000 0.0000
vn 0.7071 0.0000 0.7071
vn 0.7071 -0.0000 0.7071
vn 0.0000 1.0000 0.0000
vn 0.0000 -1.0000 0.0000
vn -0.7071 0.0000 0.7071
vn -0.7071 0.0000 0.7071
vn -0.0000 1.0000 0.0000
vn 0.0000 -1.0000 -0.0000
vn -0.7071 0.0000 -0.7071
vn -0.7071 0.0000 -0.7071
vn 0.0000 1.0000 0.0000
vn 0.0000 -1.0000 0.0000
vn 0.7071 0.0000 -0.7071
vn 0.7071 0.0000 -0.7071
vn 0.0000 1.0000 -0.0000
vn -0.0000 -1.0000 0.0000
vn 0.7071 0.0000 0.7071
vn 0.7071 -0.0000 0.7071
vn 0.0000 1.0000 0.0000
vn 0.0000 -1.0000 0.0000
vn -0.7071 0.0000 0.7071
vn -0.7071 0.0000 0.7071
vn -0.0000 1.0000 0.0000
vn 0.0000 -1.0000 -0.0000
vn -0.7071 0.0000 -0.7071
vn -0.7071 0.0000 -0.7071
vn 0.0000 1.0000 0.0000
vn 0.0000 -1.0000 0.0000
vn 0.7071 0.0000 -0.7071
vn 0.7071 0.0000 -0.7071
vn 0.0000 1.0000 -0.0000
vn -0.0000 -1.0000 0.0000
vn -0.7071 0.0000 0.7071
vn -0.7071 0.0000 0.7071
vn 0.0000 1.0000 0.0000
vn 0.0000 -1.0000 0.0000
vn -0.7071 0.0000 -0.7071
vn -0.7071 0.0000 -0.7071
vn -0.0000 1.0000 -0.0000
vn 0.0000 -1.0000 0.0000
vn 0.7071 0.0000 -0.7071
vn 0.7071 0.0000 -0.7071
vn 0.0000 1.0000 0.0000
vn 0.0000 -1.0000 0.0000
vn 0.7071 0.0000 0.7071
vn 0.7071 -0.0000 0.7071
vn 0.0000 1.0000 0.0000
vn -0.0000 -1.0000 -0.0000
vn -0.7071 0.0000 0.7071
vn -0.7071 0.0000 0.7071
vn 0.0000 1.0000 0.0000
vn 0.0000 -1.0000 0.0000
vn -0.7071 0.0000 -0.7071
vn -0.7071 0.0000 -0.7071
vn -0.0000 1.0000 -0.0000
vn 0.0000 -1.0000 0.0000
vn 0.7071 0.0000 -0.7071
vn 0.7071 0.0000 -0.7071
vn 0.0000 1.0000 0.0000
vn 0.0000 -1.0000 0.0000
vn 0.7071 0.0000 0.7071
vn 0.7071 -0.0000 0.7071
vn 0.0000 1.0000 0.0000
vn -0.0000 -1.0000 -0.0000
vn -0.7071 0.0000 0.7071
vn -0.7071 0.0000 0.7071
vn 0.0000 1.0000 0.0000
vn 0.0000 -1.0000 0.0000
vn -0.7071 0.0000 -0.7071
vn -0.7071 0.0000 -0.7071
vn -0.0000 1.0000 -0.0000
vn 0.0000 -1.0000 0.0000
vn 0.7071 0.0000 -0.7071
vn 0.7071 0.0000 -0.7071
vn 0.0000 1.0000 0.0000
vn 0.0000 -1.0000 0.0000
vn 0.7071 0.0000 0.7071
vn 0.7071 -0.0000 0.7071
vn 0.0000 1.0000 0.0000
vn -0.0000 -1.0000 -0.0000
vn -0.7071 0.0000 0.7071
vn -0.7071 0.0000 0.7071
vn 0.0000 1.0000 0.0000
vn 0.0000 -1.0000 0.0000
vn -0.7071 0.0000 -0.7071
vn -0.7071 0.0000 -0.7071
vn -0.0000 1.0000 -0.0000
vn 0.0000 -1.0000 0.0000
vn 0.7071 0.0000 -0.7071
vn 0.7071 0.0000 -0.7071
vn 0.0000 1.0000 0.0000
vn 0.0000 -1.0000 0.0000
vn 0.7071 0.0000 0.7071
vn 0.7071 -0.0000 0.7071
vn 0.0000 1.0000 0.0000
vn -0.0000 -1.0000 -0.0000
vn -0.7071 0.0000 0.7071
vn -0.7071 0.0000 0.7071
vn 0.0000 1.0000 0.0000
vn 0.0000 -1.0000 0.0000
vn -0.7071 0.0000 -0.7071
vn -0.7071 0.0000 -0.7071
vn -0.0000 1.0000 -0.0000
vn 0.0000 -1.0000 0.0000
vn 0.7071 0.0000 -0.7071
vn 0.7071 0.0000 -0.7071
vn 0.0000 1.0000 0.0000
vn 0.0000 -1.0000 0.0000
vn 0.7071 0.0000 0.7071
vn 0.7071 -0.0000 0.7071
vn 0.0000 1.0000 0.0000
vn -0.0000 -1.0000 -0.0000
vn -0.6947 -0.6947 -0.1862
vn -0.6947 -0.6947 -0.1862
vn -0.5086 -0.6947 -0.5086
vn -0.5086 -0.6947 -0.5086
vn -0.1862 -0.6947 -0.6947
vn -0.1862 -0.6947 -0.6947
vn 0.1862 -0.6947 -0.6947
vn 0.1862 -0.6947 -0.6947
vn 0.5086 -0.6947 -0.5086
vn 0.5086 -0.6947 -0.5086
vn 0.6947 -0.6947 -0.1862
vn 0.6947 -0.6947 -0.1862
vn 0.6947 -0.6947 0.1862
vn 0.6947 -0.6947 0.1862
vn 0.5086 -0.6947 0.5086
vn 0.5086 -0.6947 0.5086
vn 0.1862 -0.6947 0.6947
vn 0.1862 -0.6947 0.6947
vn -0.1862 -0.6947 0.6947
vn -0.1862 -0.6947 0.6947
vn -0.5086 -0.6947 0.5086
vn -0.5086 -0.6947 0.5086
vn -0.6947 -0.6947 0.1862
vn -0.6947 -0.6947 0.1862
vn 0.6947 -0.6947 0.1862
vn 0.6947 -0.6947 0.1862
vn 0.5086 -0.6947 0.5086
vn 0.5086 -0.6947 0.5086
vn 0.1862 -0.6947 0.6947
vn 0.1862 -0.6947 0.6947
vn -0.1862 -0.6947 0.6947
vn -0.1862 -0.6947 0.6947
vn -0.5086 -0.6947 0.5086
vn -0.5086 -0.6947 0.5086
vn -0.6947 -0.6947 0.1862
vn -0.6947 -0.6947 0.1862
vn -0.6947 -0.6947 -0.1862
vn -0.6947 -0.6947 -0.1862
vn -0.5086 -0.6947 -0.5086
vn -0.5086 -0.6947 -0.5086
vn -0.1862 -0.6947 -0.6947
vn -0.1862 -0.6947 -0.6947
vn 0.1862 -0.6947 -0.6947
vn 0.1862 -0.6947 -0.6947
vn 0.5086 -0.6947 -0.5086
vn 0.5086 -0.6947 -0.5086
vn 0.6947 -0.6947 -0.1862
vn 0.6947 -0.6947 -0.1862
vn 0.6947 0.6947 0.1862
vn 0.6947 0.6947 0.1862
vn 0.5086 0.6947 0.5086
vn 0.5086 0.6947 0.5086
vn 0.1862 0.6947 0.6947
vn 0.1862 0.6947 0.6947
vn -0.1862 0.6947 0.6947
vn -0.1862 0.6947 0.6947
vn -0.5086 0.6947 0.5086
vn -0.5086 0.6947 0.5086
vn -0.6947 0.6947 0.1862
vn -0.6947 0.6947 0.1862
vn -0.6947 0.6947 -0.1862
vn -0.6947 0.6947 -0.1862
vn -0.5086 0.6947 -0.5086
vn -0.5086 0.6947 -0.5086
vn -0.1862 0.6947 -0.6947
vn -0.1862 0.6947 -0.6947
vn 0.1862 0.6947 -0.6947
vn 0.1862 0.6947 -0.6947
vn 0.5086 0.6947 -0.5086
vn 0.5086 0.6947 -0.5086
vn 0.6947 0.6947 -0.1862
vn 0.6947 0.6947 -0.1862
vn -0.6947 0.6947 -0.1862
vn -0.6947 0.6947 -0.1862
vn -0.5086 0.6947 -0.5086
vn -0.5086 0.6947 -0.5086
vn -0.1862 0.6947 -0.6947
vn -0.1862 0.6947 -0.6947
vn 0.1862 0.6947 -0.6947
vn 0.1862 0.6947 -0.6947
vn 0.5086 0.6947 -0.5086
vn 0.5086 0.6947 -0.5086
vn 0.6947 0.6947 -0.1862
vn 0.6947 0.6947 -0.1862
vn 0.6947 0.6947 0.1862
vn 0.6947 0.6947 0.1862
vn 0.5086 0.6947 0.5086
vn 0.5086 0.6947 0.5086
vn 0.1862 0.6947 0.6947
vn 0.1862 0.6947 0.6947
vn -0.1862 0.6947 0.6947
vn -0.1862 0.6947 0.6947
vn -0.5086 0.6947 0.5086
vn -0.5086 0.6947 0.5086
vn -0.6947 0.6947 0.1862
vn -0.6947 0.6947 0.1862
usemtl c0
f 1//1 2//1 14//1
f 1//2 14//2 13//2
f 2//3 3//3 15//3
f 2//4 15//4 14//4
f 3//5 4//5 16//5
f 3//6 16//6 15//6
f 4//7 5//7 17//7
f 4//8 17//8 16//8
f 5//9 6//9 18//9
f 5//10 18//10 17//10
f 6//11 7//11 19//11
f 6//12 19//12 18//12
f 7//13 8//13 20//13
f 7//14 20//14 19//14
f 8//15 9//15 21//15
f 8//16 21//16 20//16
f 9//17 10//17 22//17
f 9//18 22//18 21//18
f 10//19 11//19 23//19
f 10//20 23//20 22//20
f 11//21 12//21 24//21
f 11//22 24//22 23//22
f 12//23 1//23 13//23
f 12//24 13//24 24//24
f 25//25 1//25 2//25
f 25//26 2//26 3//26
f 25//27 3//27 4//27
f 25//28 4//28 5//28
f 25//29 5//29 6//29
f 25//30 6//30 7//30
f 25//31 7//31 8//31
f 25//32 8//32 9//32
f 25//33 9//33 10//33
f 25//34 10//34 11//34
f 25//35 11//35 12//35
f 25//36 12//36 1//36
f 26//37 13//37 14//37
f 26//38 14//38 15//38
f 26//39 15//39 16//39
f 26//40 16//40 17//40
f 26//41 17//41 18//41
f 26//42 18//42 19//42
f 26//43 19//43 20//43
f 26//44 20//44 21//44
f 26//45 21//45 22//45
f 26//46 22//46 23//46
f 26//47 23//47 24//47
f 26//48 24//48 13//48
usemtl c1
f 27//49 28//49 40//49
f 27//50 40//50 39//50
f 28//51 29//51 41//51
f 28//52 41//52 40//52
f 29//53 30//53 42//53
f 29//54 42//54 41//54
f 30//55 31//55 43//55
f 30//56 43//56 42//56
f 31//57 32//57 44//57
f 31//58 44//58 43//58
f 32//59 33//59 45//59
f 32//60 45//60 44//60
f 33//61 34//61 46//61
f 33//62 46//62 45//62
f 34//63 35//63 47//63
f 34//64 47//64 46//64
f 35//65 36//65 48//65
f 35//66 48//66 47//66
f 36//67 37//67 49//67
f 36//68 49//68 48//68
f 37//69 38//69 50//69
f 37//70 50//70 49//70
f 38//71 27//71 39//71
f 38//72 39//72 50//72
f 51//73 27//73 28//73
f 51//74 28//74 29//74
f 51//75 29//75 30//75
f 51//76 30//76 31//76
f 51//77 31//77 32//77
f 51//78 32//78 33//78
f 51//79 33//79 34//79
f 51//80 34//80 35//80
f 51//81 35//81 36//81
f 51//82 36//82 37//82
f 51//83 37//83 38//83
f 51//84 38//84 27//84
f 52//85 39//85 40//85
f 52//86 40//86 41//86
f 52//87 41//87 42//87
f 52//88 42//88 43//88
f 52//89 43//89 44//89
f 52//90 44//90 45//90
f 52//91 45//91 46//91
f 52//92 46//92 47//92
f 52//93 47//93 48//93
f 52//94 48//94 49//94
f 52//95 49//95 50//95
f 52//96 50//96 39//96
usemtl c2
f 53//97 54//97 58//97
f 53//98 58//98 57//98
f 61//99 54//99 53//99
f 62//100 57//100 58//100
f 54//101 55//101 59//101
f 54//102 59//102 58//102
f 61//103 55//103 54//103
f 62//104 58//104 59//104
f 55//105 56//105 60//105
f 55//106 60//106 59//106
f 61//107 56//107 55//107
f 62//108 59//108 60//108
f 56//109 53//109 57//109
f 56//110 57//110 60//110
f 61//111 53//111 56//111
f 62//112 60//112 57//112
f 63//113 64//113 68//113
f 63//114 68//114 67//114
f 71//115 64//115 63//115
f 72//116 67//116 68//116
f 64//117 65//117 69//117
f 64//118 69//118 68//118
f 71//119 65//119 64//119
f 72//120 68//120 69//120
f 65//121 66//121 70//121
f 65//122 70//122 69//122
f 71//123 66//123 65//123
f 72//124 69//124 70//124
f 66//125 63//125 67//125
f 66//126 67//126 70//126
f 71//127 63//127 66//127
f 72//128 70//128 67//128
f 73//129 74//129 78//129
f 73//130 78//130 77//130
f 81//131 74//131 73//131
f 82//132 77//132 78//132
f 74//133 75//133 79//133
f 74//134 79//134 78//134
f 81//135 75//135 74//135
f 82//136 78//136 79//136
f 75//137 76//137 80//137
f 75//138 80//138 79//138
f 81//139 76//139 75//139
f 82//140 79//140 80//140
f 76//141 73//141 77//141
f 76//142 77//142 80//142
f 81//143 73//143 76//143
f 82//144 80//144 77//144
f 83//145 84//145 88//145
f 83//146 88//146 87//146
f 91//147 84//147 83//147
f 92//148 87//148 88//148
f 84//149 85//149 89//149
f 84//150 89//150 88//150
f 91//151 85//151 84//151
f 92//152 88//152 89//152
f 85//153 86//153 90//153
f 85//154 90//154 89//154
f 91//155 86//155 85//155
f 92//156 89//156 90//156
f 86//157 83//157 87//157
f 86//158 87//158 90//158
f 91//159 83//159 86//159
f 92//160 90//160 87//160
f 93//161 94//161 98//161
f 93//162 98//162 97//162
f 101//163 94//163 93//163
f 102//164 97//164 98//164
f 94//165 95//165 99//165
f 94//166 99//166 98//166
f 101//167 95//167 94//167
f 102//168 98//168 99//168
f 95//169 96//169 100//169
f 95//170 100//170 99//170
f 101//171 96//171 95//171
f 102//172 99//172 100//172
f 96//173 93//173 97//173
f 96//174 97//174 100//174
f 101//175 93//175 96//175
f 102//176 100//176 97//176
f 103//177 104//177 108//177
f 103//178 108//178 107//178
f 111//179 104//179 103//179
f 112//180 107//180 108//180
f 104//181 105//181 109//181
f 104//182 109//182 108//182
f 111//183 105//183 104//183
f 112//184 108//184 109//184
f 105//185 106//185 110//185
f 105//186 110//186 109//186
f 111//187 106//187 105//187
f 112//188 109//188 110//188
f 106//189 103//189 107//189
f 106//190 107//190 110//190
f 111//191 103//191 106//191
f 112//192 110//192 107//192
f 113//193 114//193 118//193
f 113//194 118//194 117//194
f 121//195 114//195 113//195
f 122//196 117//196 118//196
f 114//197 115//197 119//197
f 114//198 119//198 118//198
f 121//199 115//199 114//199
f 122//200 118//200 119//200
f 115//201 116//201 120//201
f 115//202 120//202 119//202
f 121//203 116//203 115//203
f 122//204 119//204 120//204
f 116//205 113//205 117//205
f 116//206 117//206 120//206
f 121//207 113//207 116//207
f 122//208 120//208 117//208
f 123//209 124//209 128//209
f 123//210 128//210 127//210
f 131//211 124//211 123//211
f 132//212 127//212 128//212
f 124//213 125//213 129//213
f 124//214 129//214 128//214
f 131//215 125//215 124//215
f 132//216 128//216 129//216
f 125//217 126//217 130//217
f 125//218 130//218 129//218
f 131//219 126//219 125//219
f 132//220 129//220 130//220
f 126//221 123//221 127//221
f 126//222 127//222 130//222
f 131//223 123//223 126//223
f 132//224 130//224 127//224
f 133//225 134//225 138//225
f 133//226 138//226 137//226
f 141//227 134//227 133//227
f 142//228 137//228 138//228
f 134//229 135//229 139//229
f 134//230 139//230 138//230
f 141//231 135//231 134//231
f 142//232 138//232 139//232
f 135//233 136//233 140//233
f 135//234 140//234 139//234
f 141//235 136//235 135//235
f 142//236 139//236 140//236
f 136//237 133//237 137//237
f 136//238 137//238 140//238
f 141//239 133//239 136//239
f 142//240 140//240 137//240
f 143//241 144//241 148//241
f 143//242 148//242 147//242
f 151//243 144//243 143//243
f 152//244 147//244 148//244
f 144//245 145//245 149//245
f 144//246 149//246 148//246
f 151//247 145//247 144//247
f 152//248 148//248 149//248
f 145//249 146//249 150//249
f 145//250 150//250 149//250
f 151//251 146//251 145//251
f 152//252 149//252 150//252
f 146//253 143//253 147//253
f 146//254 147//254 150//254
f 151//255 143//255 146//255
f 152//256 150//256 147//256
usemtl c0
f 153//257 154//257 166//257
f 153//258 166//258 165//258
f 154//259 155//259 167//259
f 154//260 167//260 166//260
f 155//261 156//261 168//261
f 155//262 168//262 167//262
f 156//263 157//263 169//263
f 156//264 169//264 168//264
f 157//265 158//265 170//265
f 157//266 170//266 169//266
f 158//267 159//267 171//267
f 158//268 171//268 170//268
f 159//269 160//269 172//269
f 159//270 172//270 171//270
f 160//271 161//271 173//271
f 160//272 173//272 172//272
f 161//273 162//273 174//273
f 161//274 174//274 173//274
f 162//275 163//275 175//275
f 162//276 175//276 174//276
f 163//277 164//277 176//277
f 163//278 176//278 175//278
f 164//279 153//279 165//279
f 164//280 165//280 176//280
f 165//281 166//281 178//281
f 165//282 178//282 177//282
f 166//283 167//283 179//283
f 166//284 179//284 178//284
f 167//285 168//285 180//285
f 167//286 180//286 179//286
f 168//287 169//287 181//287
f 168//288 181//288 180//288
f 169//289 170//289 182//289
f 169//290 182//290 181//290
f 170//291 171//291 183//291
f 170//292 183//292 182//292
f 171//293 172//293 184//293
f 171//294 184//294 183//294
f 172//295 173//295 185//295
f 172//296 185//296 184//296
f 173//297 174//297 186//297
f 173//298 186//298 185//298
f 174//299 175//299 187//299
f 174//300 187//300 186//300
f 175//301 176//301 188//301
f 175//302 188//302 187//302
f 176//303 165//303 177//303
f 176//304 177//304 188//304
f 177//305 178//305 190//305
f 177//306 190//306 189//306
f 178//307 179//307 191//307
f 178//308 191//308 190//308
f 179//309 180//309 192//309
f 179//310 192//310 191//310
f 180//311 181//311 193//311
f 180//312 193//312 192//312
f 181//313 182//313 194//313
f 181//314 194//314 193//314
f 182//315 183//315 195//315
f 182//316 195//316 194//316
f 183//317 184//317 196//317
f 183//318 196//318 195//318
f 184//319 185//319 197//319
f 184//320 197//320 196//320
f 185//321 186//321 198//321
f 185//322 198//322 197//322
f 186//323 187//323 199//323
f 186//324 199//324 198//324
f 187//325 188//325 200//325
f 187//326 200//326 199//326
f 188//327 177//327 189//327
f 188//328 189//328 200//328
f 189//329 190//329 154//329
f 189//330 154//330 153//330
f 190//331 191//331 155//331
f 190//332 155//332 154//332
f 191//333 192//333 156//333
f 191//334 156//334 155//334
f 192//335 193//335 157//335
f 192//336 157//336 156//336
f 193//337 194//337 158//337
f 193//338 158//338 157//338
f 194//339 195//339 159//339
f 194//340 159//340 158//340
f 195//341 196//341 160//341
f 195//342 160//342 159//342
f 196//343 197//343 161//343
f 196//344 161//344 160//344
f 197//345 198//345 162//345
f 197//346 162//346 161//346
f 198//347 199//347 163//347
f 198//348 163//348 162//348
f 199//349 200//349 164//349
f 199//350 164//350 163//350
f 200//351 189//351 153//351
f 200//352 153//352 164//352
