mtllib Food_Pumpkin.mtl
v 0.0000 0.0500 0.0000
v 0.0000 0.0500 0.0000
v 0.0000 0.0500 0.0000
v 0.0000 0.0500 0.0000
v 0.0000 0.0500 0.0000
v 0.0000 0.0500 0.0000
v 0.0000 0.0500 0.0000
v 0.3889 0.2697 0.0000
v 0.2425 0.2697 0.3041
v -0.0865 0.2697 0.3792
v -0.3504 0.2697 0.1687
v -0.3504 0.2697 -0.1687
v -0.0865 0.2697 -0.3792
v 0.2425 0.2697 -0.3041
v 0.5500 0.8000 0.0000
v 0.3429 0.8000 0.4300
v -0.1224 0.8000 0.5362
v -0.4955 0.8000 0.2386
v -0.4955 0.8000 -0.2386
v -0.1224 0.8000 -0.5362
v 0.3429 0.8000 -0.4300
v 0.3889 1.3303 0.0000
v 0.2425 1.3303 0.3041
v -0.0865 1.3303 0.3792
v -0.3504 1.3303 0.1687
v -0.3504 1.3303 -0.1687
v -0.0865 1.3303 -0.3792
v 0.2425 1.3303 -0.3041
v 0.0000 1.5500 0.0000
v 0.0000 1.5500 0.0000
v -0.0000 1.5500 0.0000
v -0.0000 1.5500 0.0000
v -0.0000 1.5500 -0.0000
v -0.0000 1.5500 -0.0000
v 0.0000 1.5500 -0.0000
v 0.4500 0.0500 0.0000
v 0.4500 0.0500 0.0000
v 0.4500 0.0500 0.0000
v 0.4500 0.0500 0.0000
v 0.4500 0.0500 0.0000
v 0.4500 0.0500 0.0000
v 0.4500 0.0500 0.0000
v 0.8036 0.2697 0.0000
v 0.6704 0.2697 0.2764
v 0.3713 0.2697 0.3447
v 0.1315 0.2697 0.1534
v 0.1315 0.2697 -0.1534
v 0.3713 0.2697 -0.3447
v 0.6704 0.2697 -0.2764
v 0.9500 0.8000 0.0000
v 0.7617 0.8000 0.3909
v 0.3387 0.8000 0.4875
v -0.0005 0.8000 0.2169
v -0.0005 0.8000 -0.2169
v 0.3387 0.8000 -0.4875
v 0.7617 0.8000 -0.3909
v 0.8036 1.3303 0.0000
v 0.6704 1.3303 0.2764
v 0.3713 1.3303 0.3447
v 0.1315 1.3303 0.1534
v 0.1315 1.3303 -0.1534
v 0.3713 1.3303 -0.3447
v 0.6704 1.3303 -0.2764
v 0.4500 1.5500 0.0000
v 0.4500 1.5500 0.0000
v 0.4500 1.5500 0.0000
v 0.4500 1.5500 0.0000
v 0.4500 1.5500 -0.0000
v 0.4500 1.5500 -0.0000
v 0.4500 1.5500 -0.0000
v 0.1391 0.0500 0.4280
v 0.1391 0.0500 0.4280
v 0.1391 0.0500 0.4280
v 0.1391 0.0500 0.4280
v 0.1391 0.0500 0.4280
v 0.1391 0.0500 0.4280
v 0.1391 0.0500 0.4280
v 0.4926 0.2697 0.4280
v 0.3595 0.2697 0.7044
v 0.0604 0.2697 0.7727
v -0.1795 0.2697 0.5814
v -0.1795 0.2697 0.2746
v 0.0604 0.2697 0.0833
v 0.3595 0.2697 0.1516
v 0.6391 0.8000 0.4280
v 0.4508 0.8000 0.8189
v 0.0278 0.8000 0.9154
v -0.3114 0.8000 0.6449
v -0.3114 0.8000 0.2110
v 0.0278 0.8000 -0.0595
v 0.4508 0.8000 0.0371
v 0.4926 1.3303 0.4280
v 0.3595 1.3303 0.7044
v 0.0604 1.3303 0.7727
v -0.1795 1.3303 0.5814
v -0.1795 1.3303 0.2746
v 0.0604 1.3303 0.0833
v 0.3595 1.3303 0.1516
v 0.1391 1.5500 0.4280
v 0.1391 1.5500 0.4280
v 0.1391 1.5500 0.4280
v 0.1391 1.5500 0.4280
v 0.1391 1.5500 0.4280
v 0.1391 1.5500 0.4280
v 0.1391 1.5500 0.4280
v -0.3641 0.0500 0.2645
v -0.3641 0.0500 0.2645
v -0.3641 0.0500 0.2645
v -0.3641 0.0500 0.2645
v -0.3641 0.0500 0.2645
v -0.3641 0.0500 0.2645
v -0.3641 0.0500 0.2645
v -0.0105 0.2697 0.2645
v -0.1436 0.2697 0.5409
v -0.4427 0.2697 0.6092
v -0.6826 0.2697 0.4179
v -0.6826 0.2697 0.1111
v -0.4427 0.2697 -0.0802
v -0.1436 0.2697 -0.0119
v 0.1359 0.8000 0.2645
v -0.0523 0.8000 0.6554
v -0.4753 0.8000 0.7520
v -0.8145 0.8000 0.4814
v -0.8145 0.8000 0.0476
v -0.4753 0.8000 -0.2230
v -0.0523 0.8000 -0.1264
v -0.0105 1.3303 0.2645
v -0.1436 1.3303 0.5409
v -0.4427 1.3303 0.6092
v -0.6826 1.3303 0.4179
v -0.6826 1.3303 0.1111
v -0.4427 1.3303 -0.0802
v -0.1436 1.3303 -0.0119
v -0.3641 1.5500 0.2645
v -0.3641 1.5500 0.2645
v -0.3641 1.5500 0.2645
v -0.3641 1.5500 0.2645
v -0.3641 1.5500 0.2645
v -0.3641 1.5500 0.2645
v -0.3641 1.5500 0.2645
v -0.3641 0.0500 -0.2645
v -0.3641 0.0500 -0.2645
v -0.3641 0.0500 -0.2645
v -0.3641 0.0500 -0.2645
v -0.3641 0.0500 -0.2645
v -0.3641 0.0500 -0.2645
v -0.3641 0.0500 -0.2645
v -0.0105 0.2697 -0.2645
v -0.1436 0.2697 0.0119
v -0.4427 0.2697 0.0802
v -0.6826 0.2697 -0.1111
v -0.6826 0.2697 -0.4179
v -0.4427 0.2697 -0.6092
v -0.1436 0.2697 -0.5409
v 0.1359 0.8000 -0.2645
v -0.0523 0.8000 0.1264
v -0.4753 0.8000 0.2230
v -0.8145 0.8000 -0.0476
v -0.8145 0.8000 -0.4814
v -0.4753 0.8000 -0.7520
v -0.0523 0.8000 -0.6554
v -0.0105 1.3303 -0.2645
v -0.1436 1.3303 0.0119
v -0.4427 1.3303 0.0802
v -0.6826 1.3303 -0.1111
v -0.6826 1.3303 -0.4179
v -0.4427 1.3303 -0.6092
v -0.1436 1.3303 -0.5409
v -0.3641 1.5500 -0.2645
v -0.3641 1.5500 -0.2645
v -0.3641 1.5500 -0.2645
v -0.3641 1.5500 -0.2645
v -0.3641 1.5500 -0.2645
v -0.3641 1.5500 -0.2645
v -0.3641 1.5500 -0.2645
v 0.1391 0.0500 -0.4280
v 0.1391 0.0500 -0.4280
v 0.1391 0.0500 -0.4280
v 0.1391 0.0500 -0.4280
v 0.1391 0.0500 -0.4280
v 0.1391 0.0500 -0.4280
v 0.1391 0.0500 -0.4280
v 0.4926 0.2697 -0.4280
v 0.3595 0.2697 -0.1516
v 0.0604 0.2697 -0.0833
v -0.1795 0.2697 -0.2746
v -0.1795 0.2697 -0.5814
v 0.0604 0.2697 -0.7727
v 0.3595 0.2697 -0.7044
v 0.6391 0.8000 -0.4280
v 0.4508 0.8000 -0.0371
v 0.0278 0.8000 0.0595
v -0.3114 0.8000 -0.2110
v -0.3114 0.8000 -0.6449
v 0.0278 0.8000 -0.9154
v 0.4508 0.8000 -0.8189
v 0.4926 1.3303 -0.4280
v 0.3595 1.3303 -0.1516
v 0.0604 1.3303 -0.0833
v -0.1795 1.3303 -0.2746
v -0.1795 1.3303 -0.5814
v 0.0604 1.3303 -0.7727
v 0.3595 1.3303 -0.7044
v 0.1391 1.5500 -0.4280
v 0.1391 1.5500 -0.4280
v 0.1391 1.5500 -0.4280
v 0.1391 1.5500 -0.4280
v 0.1391 1.5500 -0.4280
v 0.1391 1.5500 -0.4280
v 0.1391 1.5500 -0.4280
v 0.0970 1.4257 0.0000
v 0.0300 1.4425 0.0951
v -0.0785 1.4696 0.0588
v -0.0785 1.4696 -0.0588
v 0.0300 1.4425 -0.0951
v 0.1970 1.8257 0.0000
v 0.1300 1.8425 0.0951
v 0.0215 1.8696 0.0588
v 0.0215 1.8696 -0.0588
v 0.1300 1.8425 -0.0951
v 0.0000 1.4500 0.0000
v 0.1000 1.8500 0.0000
vn -0.4786 0.8473 -0.2305
vn -0.1182 0.8473 -0.5179
vn 0.3312 0.8473 -0.4153
vn 0.5312 0.8473 -0.0000
vn 0.3312 0.8473 0.4153
vn -0.1182 0.8473 0.5179
vn -0.4786 0.8473 0.2305
vn -0.8690 0.2640 -0.4185
vn -0.8690 0.2640 -0.4185
vn -0.2146 0.2640 -0.9403
vn -0.2146 0.2640 -0.9403
vn 0.6014 0.2640 -0.7541
vn 0.6014 0.2640 -0.7541
vn 0.9645 0.2640 -0.0000
vn 0.9645 0.2640 -0.0000
vn 0.6014 0.2640 0.7541
vn 0.6014 0.2640 0.7541
vn -0.2146 0.2640 0.9403
vn -0.2146 0.2640 0.9403
vn -0.8690 0.2640 0.4185
vn -0.8690 0.2640 0.4185
vn -0.8690 -0.2640 -0.4185
vn -0.8690 -0.2640 -0.4185
vn -0.2146 -0.2640 -0.9403
vn -0.2146 -0.2640 -0.9403
vn 0.6014 -0.2640 -0.7541
vn 0.6014 -0.2640 -0.7541
vn 0.9645 -0.2640 -0.0000
vn 0.9645 -0.2640 -0.0000
vn 0.6014 -0.2640 0.7541
vn 0.6014 -0.2640 0.7541
vn -0.2146 -0.2640 0.9403
vn -0.2146 -0.2640 0.9403
vn -0.8690 -0.2640 0.4185
vn -0.8690 -0.2640 0.4185
vn -0.4786 -0.8473 -0.2305
vn -0.1182 -0.8473 -0.5179
vn 0.3312 -0.8473 -0.4153
vn 0.5312 -0.8473 -0.0000
vn 0.3312 -0.8473 0.4153
vn -0.1182 -0.8473 0.5179
vn -0.4786 -0.8473 0.2305
vn -0.5115 0.8232 -0.2463
vn -0.1263 0.8232 -0.5535
vn 0.3540 0.8232 -0.4439
vn 0.5677 0.8232 -0.0000
vn 0.3540 0.8232 0.4439
vn -0.1263 0.8232 0.5535
vn -0.5115 0.8232 0.2463
vn -0.8743 0.2414 -0.4210
vn -0.8743 0.2414 -0.4210
vn -0.2159 0.2414 -0.9461
vn -0.2159 0.2414 -0.9461
vn 0.6050 0.2414 -0.7587
vn 0.6050 0.2414 -0.7587
vn 0.9704 0.2414 -0.0000
vn 0.9704 0.2414 -0.0000
vn 0.6050 0.2414 0.7587
vn 0.6050 0.2414 0.7587
vn -0.2159 0.2414 0.9461
vn -0.2159 0.2414 0.9461
vn -0.8743 0.2414 0.4210
vn -0.8743 0.2414 0.4210
vn -0.8743 -0.2414 -0.4210
vn -0.8743 -0.2414 -0.4210
vn -0.2159 -0.2414 -0.9461
vn -0.2159 -0.2414 -0.9461
vn 0.6050 -0.2414 -0.7587
vn 0.6050 -0.2414 -0.7587
vn 0.9704 -0.2414 -0.0000
vn 0.9704 -0.2414 -0.0000
vn 0.6050 -0.2414 0.7587
vn 0.6050 -0.2414 0.7587
vn -0.2159 -0.2414 0.9461
vn -0.2159 -0.2414 0.9461
vn -0.8743 -0.2414 0.4210
vn -0.8743 -0.2414 0.4210
vn -0.5115 -0.8232 -0.2463
vn -0.1263 -0.8232 -0.5535
vn 0.3540 -0.8232 -0.4439
vn 0.5677 -0.8232 -0.0000
vn 0.3540 -0.8232 0.4439
vn -0.1263 -0.8232 0.5535
vn -0.5115 -0.8232 0.2463
vn -0.5115 0.8232 -0.2463
vn -0.1263 0.8232 -0.5535
vn 0.3540 0.8232 -0.4439
vn 0.5677 0.8232 -0.0000
vn 0.3540 0.8232 0.4439
vn -0.1263 0.8232 0.5535
vn -0.5115 0.8232 0.2463
vn -0.8743 0.2414 -0.4210
vn -0.8743 0.2414 -0.4210
vn -0.2159 0.2414 -0.9461
vn -0.2159 0.2414 -0.9461
vn 0.6050 0.2414 -0.7587
vn 0.6050 0.2414 -0.7587
vn 0.9704 0.2414 -0.0000
vn 0.9704 0.2414 -0.0000
vn 0.6050 0.2414 0.7587
vn 0.6050 0.2414 0.7587
vn -0.2159 0.2414 0.9461
vn -0.2159 0.2414 0.9461
vn -0.8743 0.2414 0.4210
vn -0.8743 0.2414 0.4210
vn -0.8743 -0.2414 -0.4210
vn -0.8743 -0.2414 -0.4210
vn -0.2159 -0.2414 -0.9461
vn -0.2159 -0.2414 -0.9461
vn 0.6050 -0.2414 -0.7587
vn 0.6050 -0.2414 -0.7587
vn 0.9704 -0.2414 -0.0000
vn 0.9704 -0.2414 -0.0000
vn 0.6050 -0.2414 0.7587
vn 0.6050 -0.2414 0.7587
vn -0.2159 -0.2414 0.9461
vn -0.2159 -0.2414 0.9461
vn -0.8743 -0.2414 0.4210
vn -0.8743 -0.2414 0.4210
vn -0.5115 -0.8232 -0.2463
vn -0.1263 -0.8232 -0.5535
vn 0.3540 -0.8232 -0.4439
vn 0.5677 -0.8232 -0.0000
vn 0.3540 -0.8232 0.4439
vn -0.1263 -0.8232 0.5535
vn -0.5115 -0.8232 0.2463
vn -0.5115 0.8232 -0.2463
vn -0.1263 0.8232 -0.5535
vn 0.3540 0.8232 -0.4439
vn 0.5677 0.8232 0.0000
vn 0.3540 0.8232 0.4439
vn -0.1263 0.8232 0.5535
vn -0.5115 0.8232 0.2463
vn -0.8743 0.2414 -0.4210
vn -0.8743 0.2414 -0.4210
vn -0.2159 0.2414 -0.9461
vn -0.2159 0.2414 -0.9461
vn 0.6050 0.2414 -0.7587
vn 0.6050 0.2414 -0.7587
vn 0.9704 0.2414 0.0000
vn 0.9704 0.2414 -0.0000
vn 0.6050 0.2414 0.7587
vn 0.6050 0.2414 0.7587
vn -0.2159 0.2414 0.9461
vn -0.2159 0.2414 0.9461
vn -0.8743 0.2414 0.4210
vn -0.8743 0.2414 0.4210
vn -0.8743 -0.2414 -0.4210
vn -0.8743 -0.2414 -0.4210
vn -0.2159 -0.2414 -0.9461
vn -0.2159 -0.2414 -0.9461
vn 0.6050 -0.2414 -0.7587
vn 0.6050 -0.2414 -0.7587
vn 0.9704 -0.2414 -0.0000
vn 0.9704 -0.2414 0.0000
vn 0.6050 -0.2414 0.7587
vn 0.6050 -0.2414 0.7587
vn -0.2159 -0.2414 0.9461
vn -0.2159 -0.2414 0.9461
vn -0.8743 -0.2414 0.4210
vn -0.8743 -0.2414 0.4210
vn -0.5115 -0.8232 -0.2463
vn -0.1263 -0.8232 -0.5535
vn 0.3540 -0.8232 -0.4439
vn 0.5677 -0.8232 0.0000
vn 0.3540 -0.8232 0.4439
vn -0.1263 -0.8232 0.5535
vn -0.5115 -0.8232 0.2463
vn -0.5115 0.8232 -0.2463
vn -0.1263 0.8232 -0.5535
vn 0.3540 0.8232 -0.4439
vn 0.5677 0.8232 0.0000
vn 0.3540 0.8232 0.4439
vn -0.1263 0.8232 0.5535
vn -0.5115 0.8232 0.2463
vn -0.8743 0.2414 -0.4210
vn -0.8743 0.2414 -0.4210
vn -0.2159 0.2414 -0.9461
vn -0.2159 0.2414 -0.9461
vn 0.6050 0.2414 -0.7587
vn 0.6050 0.2414 -0.7587
vn 0.9704 0.2414 0.0000
vn 0.9704 0.2414 -0.0000
vn 0.6050 0.2414 0.7587
vn 0.6050 0.2414 0.7587
vn -0.2159 0.2414 0.9461
vn -0.2159 0.2414 0.9461
vn -0.8743 0.2414 0.4210
vn -0.8743 0.2414 0.4210
vn -0.8743 -0.2414 -0.4210
vn -0.8743 -0.2414 -0.4210
vn -0.2159 -0.2414 -0.9461
vn -0.2159 -0.2414 -0.9461
vn 0.6050 -0.2414 -0.7587
vn 0.6050 -0.2414 -0.7587
vn 0.9704 -0.2414 -0.0000
vn 0.9704 -0.2414 0.0000
vn 0.6050 -0.2414 0.7587
vn 0.6050 -0.2414 0.7587
vn -0.2159 -0.2414 0.9461
vn -0.2159 -0.2414 0.9461
vn -0.8743 -0.2414 0.4210
vn -0.8743 -0.2414 0.4210
vn -0.5115 -0.8232 -0.2463
vn -0.1263 -0.8232 -0.5535
vn 0.3540 -0.8232 -0.4439
vn 0.5677 -0.8232 0.0000
vn 0.3540 -0.8232 0.4439
vn -0.1263 -0.8232 0.5535
vn -0.5115 -0.8232 0.2463
vn -0.5115 0.8232 -0.2463
vn -0.1263 0.8232 -0.5535
vn 0.3540 0.8232 -0.4439
vn 0.5677 0.8232 -0.0000
vn 0.3540 0.8232 0.4439
vn -0.1263 0.8232 0.5535
vn -0.5115 0.8232 0.2463
vn -0.8743 0.2414 -0.4210
vn -0.8743 0.2414 -0.4210
vn -0.2159 0.2414 -0.9461
vn -0.2159 0.2414 -0.9461
vn 0.6050 0.2414 -0.7587
vn 0.6050 0.2414 -0.7587
vn 0.9704 0.2414 -0.0000
vn 0.9704 0.2414 -0.0000
vn 0.6050 0.2414 0.7587
vn 0.6050 0.2414 0.7587
vn -0.2159 0.2414 0.9461
vn -0.2159 0.2414 0.9461
vn -0.8743 0.2414 0.4210
vn -0.8743 0.2414 0.4210
vn -0.8743 -0.2414 -0.4210
vn -0.8743 -0.2414 -0.4210
vn -0.2159 -0.2414 -0.9461
vn -0.2159 -0.2414 -0.9461
vn 0.6050 -0.2414 -0.7587
vn 0.6050 -0.2414 -0.7587
vn 0.9704 -0.2414 -0.0000
vn 0.9704 -0.2414 -0.0000
vn 0.6050 -0.2414 0.7587
vn 0.6050 -0.2414 0.7587
vn -0.2159 -0.2414 0.9461
vn -0.2159 -0.2414 0.9461
vn -0.8743 -0.2414 0.4210
vn -0.8743 -0.2414 0.4210
vn -0.5115 -0.8232 -0.2463
vn -0.1263 -0.8232 -0.5535
vn 0.3540 -0.8232 -0.4439
vn 0.5677 -0.8232 -0.0000
vn 0.3540 -0.8232 0.4439
vn -0.1263 -0.8232 0.5535
vn -0.5115 -0.8232 0.2463
vn -0.7849 0.1962 -0.5878
vn -0.7849 0.1962 -0.5878
vn 0.2998 -0.0749 -0.9511
vn 0.2998 -0.0749 -0.9511
vn 0.9701 -0.2425 -0.0000
vn 0.9701 -0.2425 -0.0000
vn 0.2998 -0.0749 0.9511
vn 0.2998 -0.0749 0.9511
vn -0.7849 0.1962 0.5878
vn -0.7849 0.1962 0.5878
vn -0.2425 -0.9701 -0.0000
vn -0.2425 -0.9701 -0.0000
vn -0.2425 -0.9701 0.0000
vn -0.2425 -0.9701 0.0000
vn -0.2425 -0.9701 0.0000
vn -0.2425 -0.9701 -0.0000
vn -0.2425 -0.9701 -0.0000
vn -0.2425 -0.9701 0.0000
vn -0.2425 -0.9701 0.0000
vn -0.2425 -0.9701 0.0000
usemtl c0
f 1//1 9//1 8//1
f 2//2 10//2 9//2
f 3//3 11//3 10//3
f 4//4 12//4 11//4
f 5//5 13//5 12//5
f 6//6 14//6 13//6
f 7//7 8//7 14//7
f 8//8 9//8 16//8
f 8//9 16//9 15//9
f 9//10 10//10 17//10
f 9//11 17//11 16//11
f 10//12 11//12 18//12
f 10//13 18//13 17//13
f 11//14 12//14 19//14
f 11//15 19//15 18//15
f 12//16 13//16 20//16
f 12//17 20//17 19//17
f 13//18 14//18 21//18
f 13//19 21//19 20//19
f 14//20 8//20 15//20
f 14//21 15//21 21//21
f 15//22 16//22 23//22
f 15//23 23//23 22//23
f 16//24 17//24 24//24
f 16//25 24//25 23//25
f 17//26 18//26 25//26
f 17//27 25//27 24//27
f 18//28 19//28 26//28
f 18//29 26//29 25//29
f 19//30 20//30 27//30
f 19//31 27//31 26//31
f 20//32 21//32 28//32
f 20//33 28//33 27//33
f 21//34 15//34 22//34
f 21//35 22//35 28//35
f 22//36 23//36 30//36
f 23//37 24//37 31//37
f 24//38 25//38 32//38
f 25//39 26//39 33//39
f 26//40 27//40 34//40
f 27//41 28//41 35//41
f 28//42 22//42 29//42
f 36//43 44//43 43//43
f 37//44 45//44 44//44
f 38//45 46//45 45//45
f 39//46 47//46 46//46
f 40//47 48//47 47//47
f 41//48 49//48 48//48
f 42//49 43//49 49//49
f 43//50 44//50 51//50
f 43//51 51//51 50//51
f 44//52 45//52 52//52
f 44//53 52//53 51//53
f 45//54 46//54 53//54
f 45//55 53//55 52//55
f 46//56 47//56 54//56
f 46//57 54//57 53//57
f 47//58 48//58 55//58
f 47//59 55//59 54//59
f 48//60 49//60 56//60
f 48//61 56//61 55//61
f 49//62 43//62 50//62
f 49//63 50//63 56//63
f 50//64 51//64 58//64
f 50//65 58//65 57//65
f 51//66 52//66 59//66
f 51//67 59//67 58//67
f 52//68 53//68 60//68
f 52//69 60//69 59//69
f 53//70 54//70 61//70
f 53//71 61//71 60//71
f 54//72 55//72 62//72
f 54//73 62//73 61//73
f 55//74 56//74 63//74
f 55//75 63//75 62//75
f 56//76 50//76 57//76
f 56//77 57//77 63//77
f 57//78 58//78 65//78
f 58//79 59//79 66//79
f 59//80 60//80 67//80
f 60//81 61//81 68//81
f 61//82 62//82 69//82
f 62//83 63//83 70//83
f 63//84 57//84 64//84
f 71//85 79//85 78//85
f 72//86 80//86 79//86
f 73//87 81//87 80//87
f 74//88 82//88 81//88
f 75//89 83//89 82//89
f 76//90 84//90 83//90
f 77//91 78//91 84//91
f 78//92 79//92 86//92
f 78//93 86//93 85//93
f 79//94 80//94 87//94
f 79//95 87//95 86//95
f 80//96 81//96 88//96
f 80//97 88//97 87//97
f 81//98 82//98 89//98
f 81//99 89//99 88//99
f 82//100 83//100 90//100
f 82//101 90//101 89//101
f 83//102 84//102 91//102
f 83//103 91//103 90//103
f 84//104 78//104 85//104
f 84//105 85//105 91//105
f 85//106 86//106 93//106
f 85//107 93//107 92//107
f 86//108 87//108 94//108
f 86//109 94//109 93//109
f 87//110 88//110 95//110
f 87//111 95//111 94//111
f 88//112 89//112 96//112
f 88//113 96//113 95//113
f 89//114 90//114 97//114
f 89//115 97//115 96//115
f 90//116 91//116 98//116
f 90//117 98//117 97//117
f 91//118 85//118 92//118
f 91//119 92//119 98//119
f 92//120 93//120 100//120
f 93//121 94//121 101//121
f 94//122 95//122 102//122
f 95//123 96//123 103//123
f 96//124 97//124 104//124
f 97//125 98//125 105//125
f 98//126 92//126 99//126
f 106//127 114//127 113//127
f 107//128 115//128 114//128
f 108//129 116//129 115//129
f 109//130 117//130 116//130
f 110//131 118//131 117//131
f 111//132 119//132 118//132
f 112//133 113//133 119//133
f 113//134 114//134 121//134
f 113//135 121//135 120//135
f 114//136 115//136 122//136
f 114//137 122//137 121//137
f 115//138 116//138 123//138
f 115//139 123//139 122//139
f 116//140 117//140 124//140
f 116//141 124//141 123//141
f 117//142 118//142 125//142
f 117//143 125//143 124//143
f 118//144 119//144 126//144
f 118//145 126//145 125//145
f 119//146 113//146 120//146
f 119//147 120//147 126//147
f 120//148 121//148 128//148
f 120//149 128//149 127//149
f 121//150 122//150 129//150
f 121//151 129//151 128//151
f 122//152 123//152 130//152
f 122//153 130//153 129//153
f 123//154 124//154 131//154
f 123//155 131//155 130//155
f 124//156 125//156 132//156
f 124//157 132//157 131//157
f 125//158 126//158 133//158
f 125//159 133//159 132//159
f 126//160 120//160 127//160
f 126//161 127//161 133//161
f 127//162 128//162 135//162
f 128//163 129//163 136//163
f 129//164 130//164 137//164
f 130//165 131//165 138//165
f 131//166 132//166 139//166
f 132//167 133//167 140//167
f 133//168 127//168 134//168
f 141//169 149//169 148//169
f 142//170 150//170 149//170
f 143//171 151//171 150//171
f 144//172 152//172 151//172
f 145//173 153//173 152//173
f 146//174 154//174 153//174
f 147//175 148//175 154//175
f 148//176 149//176 156//176
f 148//177 156//177 155//177
f 149//178 150//178 157//178
f 149//179 157//179 156//179
f 150//180 151//180 158//180
f 150//181 158//181 157//181
f 151//182 152//182 159//182
f 151//183 159//183 158//183
f 152//184 153//184 160//184
f 152//185 160//185 159//185
f 153//186 154//186 161//186
f 153//187 161//187 160//187
f 154//188 148//188 155//188
f 154//189 155//189 161//189
f 155//190 156//190 163//190
f 155//191 163//191 162//191
f 156//192 157//192 164//192
f 156//193 164//193 163//193
f 157//194 158//194 165//194
f 157//195 165//195 164//195
f 158//196 159//196 166//196
f 158//197 166//197 165//197
f 159//198 160//198 167//198
f 159//199 167//199 166//199
f 160//200 161//200 168//200
f 160//201 168//201 167//201
f 161//202 155//202 162//202
f 161//203 162//203 168//203
f 162//204 163//204 170//204
f 163//205 164//205 171//205
f 164//206 165//206 172//206
f 165//207 166//207 173//207
f 166//208 167//208 174//208
f 167//209 168//209 175//209
f 168//210 162//210 169//210
f 176//211 184//211 183//211
f 177//212 185//212 184//212
f 178//213 186//213 185//213
f 179//214 187//214 186//214
f 180//215 188//215 187//215
f 181//216 189//216 188//216
f 182//217 183//217 189//217
f 183//218 184//218 191//218
f 183//219 191//219 190//219
f 184//220 185//220 192//220
f 184//221 192//221 191//221
f 185//222 186//222 193//222
f 185//223 193//223 192//223
f 186//224 187//224 194//224
f 186//225 194//225 193//225
f 187//226 188//226 195//226
f 187//227 195//227 194//227
f 188//228 189//228 196//228
f 188//229 196//229 195//229
f 189//230 183//230 190//230
f 189//231 190//231 196//231
f 190//232 191//232 198//232
f 190//233 198//233 197//233
f 191//234 192//234 199//234
f 191//235 199//235 198//235
f 192//236 193//236 200//236
f 192//237 200//237 199//237
f 193//238 194//238 201//238
f 193//239 201//239 200//239
f 194//240 195//240 202//240
f 194//241 202//241 201//241
f 195//242 196//242 203//242
f 195//243 203//243 202//243
f 196//244 190//244 197//244
f 196//245 197//245 203//245
f 197//246 198//246 205//246
f 198//247 199//247 206//247
f 199//248 200//248 207//248
f 200//249 201//249 208//249
f 201//250 202//250 209//250
f 202//251 203//251 210//251
f 203//252 197//252 204//252
usemtl c1
f 211//253 212//253 217//253
f 211//254 217//254 216//254
f 212//255 213//255 218//255
f 212//256 218//256 217//256
f 213//257 214//257 219//257
f 213//258 219//258 218//258
f 214//259 215//259 220//259
f 214//260 220//260 219//260
f 215//261 211//261 216//261
f 215//262 216//262 220//262
f 221//263 211//263 212//263
f 221//264 212//264 213//264
f 221//265 213//265 214//265
f 221//266 214//266 215//266
f 221//267 215//267 211//267
f 222//268 216//268 217//268
f 222//269 217//269 218//269
f 222//270 218//270 219//270
f 222//271 219//271 220//271
f 222//272 220//272 216//272
