mtllib Food_TeaCup.mtl
v 1.1000 0.0000 0.0000
v 0.9526 0.0000 0.5500
v 0.5500 0.0000 0.9526
v 0.0000 0.0000 1.1000
v -0.5500 0.0000 0.9526
v -0.9526 0.0000 0.5500
v -1.1000 0.0000 0.0000
v -0.9526 0.0000 -0.5500
v -0.5500 0.0000 -0.9526
v -0.0000 0.0000 -1.1000
v 0.5500 0.0000 -0.9526
v 0.9526 0.0000 -0.5500
v 1.1000 0.0800 0.0000
v 0.9526 0.0800 0.5500
v 0.5500 0.0800 0.9526
v 0.0000 0.0800 1.1000
v -0.5500 0.0800 0.9526
v -0.9526 0.0800 0.5500
v -1.1000 0.0800 0.0000
v -0.9526 0.0800 -0.5500
v -0.5500 0.0800 -0.9526
v -0.0000 0.0800 -1.1000
v 0.5500 0.0800 -0.9526
v 0.9526 0.0800 -0.5500
v 0.0000 0.0000 0.0000
v 0.0000 0.0800 0.0000
v 0.0000 0.0800 0.0000
v 0.0000 0.0800 0.0000
v 0.0000 0.0800 0.0000
v 0.0000 0.0800 0.0000
v 0.0000 0.0800 0.0000
v 0.0000 0.0800 0.0000
v 0.0000 0.0800 0.0000
v 0.0000 0.0800 0.0000
v 0.0000 0.0800 0.0000
v 0.0000 0.0800 0.0000
v 0.4500 0.0800 0.0000
v 0.3641 0.0800 0.2645
v 0.1391 0.0800 0.4280
v -0.1391 0.0800 0.4280
v -0.3641 0.0800 0.2645
v -0.4500 0.0800 0.0000
v -0.3641 0.0800 -0.2645
v -0.1391 0.0800 -0.4280
v 0.1391 0.0800 -0.4280
v 0.3641 0.0800 -0.2645
v 0.7200 0.3000 0.0000
v 0.5825 0.3000 0.4232
v 0.2225 0.3000 0.6848
v -0.2225 0.3000 0.6848
v -0.5825 0.3000 0.4232
v -0.7200 0.3000 0.0000
v -0.5825 0.3000 -0.4232
v -0.2225 0.3000 -0.6848
v 0.2225 0.3000 -0.6848
v 0.5825 0.3000 -0.4232
v 0.7600 0.8500 0.0000
v 0.6149 0.8500 0.4467
v 0.2349 0.8500 0.7228
v -0.2349 0.8500 0.7228
v -0.6149 0.8500 0.4467
v -0.7600 0.8500 0.0000
v -0.6149 0.8500 -0.4467
v -0.2349 0.8500 -0.7228
v 0.2349 0.8500 -0.7228
v 0.6149 0.8500 -0.4467
v 0.7200 0.7600 0.0000
v 0.5825 0.7600 0.4232
v 0.2225 0.7600 0.6848
v -0.2225 0.7600 0.6848
v -0.5825 0.7600 0.4232
v -0.7200 0.7600 0.0000
v -0.5825 0.7600 -0.4232
v -0.2225 0.7600 -0.6848
v 0.2225 0.7600 -0.6848
v 0.5825 0.7600 -0.4232
v 0.7200 0.7800 0.0000
v 0.5825 0.7800 0.4232
v 0.2225 0.7800 0.6848
v -0.2225 0.7800 0.6848
v -0.5825 0.7800 0.4232
v -0.7200 0.7800 0.0000
v -0.5825 0.7800 -0.4232
v -0.2225 0.7800 -0.6848
v 0.2225 0.7800 -0.6848
v 0.5825 0.7800 -0.4232
v 0.0000 0.7600 0.0000
v 0.0000 0.7800 0.0000
v 1.1800 0.5000 0.0000
v 1.0980 0.3020 0.0000
v 0.9000 0.2200 0.0000
v 0.7020 0.3020 0.0000
v 0.6200 0.5000 0.0000
v 0.7020 0.6980 -0.0000
v 0.9000 0.7800 -0.0000
v 1.0980 0.6980 -0.0000
v 1.1200 0.5000 0.0600
v 1.0556 0.3444 0.0600
v 0.9000 0.2800 0.0600
v 0.7444 0.3444 0.0600
v 0.6800 0.5000 0.0600
v 0.7444 0.6556 0.0600
v 0.9000 0.7200 0.0600
v 1.0556 0.6556 0.0600
v 1.0600 0.5000 0.0000
v 1.0131 0.3869 0.0000
v 0.9000 0.3400 0.0000
v 0.7869 0.3869 0.0000
v 0.7400 0.5000 0.0000
v 0.7869 0.6131 0.0000
v 0.9000 0.6600 -0.0000
v 1.0131 0.6131 0.0000
v 1.1200 0.5000 -0.0600
v 1.0556 0.3444 -0.0600
v 0.9000 0.2800 -0.0600
v 0.7444 0.3444 -0.0600
v 0.6800 0.5000 -0.0600
v 0.7444 0.6556 -0.0600
v 0.9000 0.7200 -0.0600
v 1.0556 0.6556 -0.0600
vn -0.9659 0.0000 -0.2588
vn -0.9659 0.0000 -0.2588
vn -0.7071 0.0000 -0.7071
vn -0.7071 0.0000 -0.7071
vn -0.2588 0.0000 -0.9659
vn -0.2588 0.0000 -0.9659
vn 0.2588 0.0000 -0.9659
vn 0.2588 0.0000 -0.9659
vn 0.7071 0.0000 -0.7071
vn 0.7071 0.0000 -0.7071
vn 0.9659 0.0000 -0.2588
vn 0.9659 0.0000 -0.2588
vn 0.9659 0.0000 0.2588
vn 0.9659 -0.0000 0.2588
vn 0.7071 0.0000 0.7071
vn 0.7071 -0.0000 0.7071
vn 0.2588 0.0000 0.9659
vn 0.2588 -0.0000 0.9659
vn -0.2588 0.0000 0.9659
vn -0.2588 0.0000 0.9659
vn -0.7071 0.0000 0.7071
vn -0.7071 0.0000 0.7071
vn -0.9659 0.0000 0.2588
vn -0.9659 0.0000 0.2588
vn 0.0000 -1.0000 0.0000
vn 0.0000 -1.0000 0.0000
vn 0.0000 -1.0000 0.0000
vn 0.0000 -1.0000 0.0000
vn 0.0000 -1.0000 0.0000
vn 0.0000 -1.0000 0.0000
vn -0.0000 -1.0000 0.0000
vn 0.0000 -1.0000 0.0000
vn 0.0000 -1.0000 0.0000
vn 0.0000 -1.0000 -0.0000
vn 0.0000 -1.0000 0.0000
vn 0.0000 -1.0000 0.0000
vn 0.0000 -1.0000 0.0000
vn 0.0000 -1.0000 0.0000
vn 0.0000 -1.0000 0.0000
vn 0.0000 -1.0000 0.0000
vn 0.0000 -1.0000 0.0000
vn 0.0000 -1.0000 0.0000
vn -0.0000 -1.0000 0.0000
vn 0.0000 -1.0000 0.0000
vn 0.0000 -1.0000 0.0000
vn 0.0000 -1.0000 -0.0000
vn 0.0000 -1.0000 0.0000
vn 0.0000 -1.0000 0.0000
vn 0.0000 1.0000 0.0000
vn 0.0000 1.0000 0.0000
vn 0.0000 1.0000 -0.0000
vn 0.0000 1.0000 0.0000
vn 0.0000 1.0000 0.0000
vn 0.0000 1.0000 0.0000
vn 0.0000 1.0000 0.0000
vn 0.0000 1.0000 0.0000
vn 0.0000 1.0000 0.0000
vn -0.0000 1.0000 0.0000
vn -0.6188 0.7594 -0.2011
vn -0.6188 0.7594 -0.2011
vn -0.3824 0.7594 -0.5264
vn -0.3824 0.7594 -0.5264
vn -0.0000 0.7594 -0.6506
vn -0.0000 0.7594 -0.6506
vn 0.3824 0.7594 -0.5264
vn 0.3824 0.7594 -0.5264
vn 0.6188 0.7594 -0.2011
vn 0.6188 0.7594 -0.2011
vn 0.6188 0.7594 0.2011
vn 0.6188 0.7594 0.2011
vn 0.3824 0.7594 0.5264
vn 0.3824 0.7594 0.5264
vn 0.0000 0.7594 0.6506
vn 0.0000 0.7594 0.6506
vn -0.3824 0.7594 0.5264
vn -0.3824 0.7594 0.5264
vn -0.6188 0.7594 0.2011
vn -0.6188 0.7594 0.2011
vn -0.9488 0.0690 -0.3083
vn -0.9488 0.0690 -0.3083
vn -0.5864 0.0690 -0.8071
vn -0.5864 0.0690 -0.8071
vn -0.0000 0.0690 -0.9976
vn -0.0000 0.0690 -0.9976
vn 0.5864 0.0690 -0.8071
vn 0.5864 0.0690 -0.8071
vn 0.9488 0.0690 -0.3083
vn 0.9488 0.0690 -0.3083
vn 0.9488 0.0690 0.3083
vn 0.9488 0.0690 0.3083
vn 0.5864 0.0690 0.8071
vn 0.5864 0.0690 0.8071
vn 0.0000 0.0690 0.9976
vn 0.0000 0.0690 0.9976
vn -0.5864 0.0690 0.8071
vn -0.5864 0.0690 0.8071
vn -0.9488 0.0690 0.3083
vn -0.9488 0.0690 0.3083
vn -0.9511 0.0000 -0.3090
vn -0.9511 0.0000 -0.3090
vn -0.5878 0.0000 -0.8090
vn -0.5878 0.0000 -0.8090
vn -0.0000 0.0000 -1.0000
vn -0.0000 0.0000 -1.0000
vn 0.5878 0.0000 -0.8090
vn 0.5878 0.0000 -0.8090
vn 0.9511 0.0000 -0.3090
vn 0.9511 0.0000 -0.3090
vn 0.9511 0.0000 0.3090
vn 0.9511 -0.0000 0.3090
vn 0.5878 0.0000 0.8090
vn 0.5878 -0.0000 0.8090
vn 0.0000 0.0000 1.0000
vn 0.0000 -0.0000 1.0000
vn -0.5878 0.0000 0.8090
vn -0.5878 0.0000 0.8090
vn -0.9511 0.0000 0.3090
vn -0.9511 0.0000 0.3090
vn 0.0000 -1.0000 0.0000
vn 0.0000 -1.0000 0.0000
vn 0.0000 -1.0000 0.0000
vn 0.0000 -1.0000 0.0000
vn 0.0000 -1.0000 0.0000
vn -0.0000 -1.0000 0.0000
vn 0.0000 -1.0000 0.0000
vn 0.0000 -1.0000 -0.0000
vn 0.0000 -1.0000 0.0000
vn 0.0000 -1.0000 0.0000
vn 0.0000 -1.0000 0.0000
vn 0.0000 -1.0000 0.0000
vn 0.0000 -1.0000 0.0000
vn 0.0000 -1.0000 0.0000
vn 0.0000 -1.0000 0.0000
vn -0.0000 -1.0000 0.0000
vn 0.0000 -1.0000 0.0000
vn 0.0000 -1.0000 -0.0000
vn 0.0000 -1.0000 0.0000
vn 0.0000 -1.0000 0.0000
vn -0.6786 0.2811 -0.6786
vn -0.6786 0.2811 -0.6786
vn -0.2811 0.6786 -0.6786
vn -0.2811 0.6786 -0.6786
vn 0.2811 0.6786 -0.6786
vn 0.2811 0.6786 -0.6786
vn 0.6786 0.2811 -0.6786
vn 0.6786 0.2811 -0.6786
vn 0.6786 -0.2811 -0.6786
vn 0.6786 -0.2811 -0.6786
vn 0.2811 -0.6786 -0.6786
vn 0.2811 -0.6786 -0.6786
vn -0.2811 -0.6786 -0.6786
vn -0.2811 -0.6786 -0.6786
vn -0.6786 -0.2811 -0.6786
vn -0.6786 -0.2811 -0.6786
vn 0.6786 -0.2811 -0.6786
vn 0.6786 -0.2811 -0.6786
vn 0.2811 -0.6786 -0.6786
vn 0.2811 -0.6786 -0.6786
vn -0.2811 -0.6786 -0.6786
vn -0.2811 -0.6786 -0.6786
vn -0.6786 -0.2811 -0.6786
vn -0.6786 -0.2811 -0.6786
vn -0.6786 0.2811 -0.6786
vn -0.6786 0.2811 -0.6786
vn -0.2811 0.6786 -0.6786
vn -0.2811 0.6786 -0.6786
vn 0.2811 0.6786 -0.6786
vn 0.2811 0.6786 -0.6786
vn 0.6786 0.2811 -0.6786
vn 0.6786 0.2811 -0.6786
vn 0.6786 -0.2811 0.6786
vn 0.6786 -0.2811 0.6786
vn 0.2811 -0.6786 0.6786
vn 0.2811 -0.6786 0.6786
vn -0.2811 -0.6786 0.6786
vn -0.2811 -0.6786 0.6786
vn -0.6786 -0.2811 0.6786
vn -0.6786 -0.2811 0.6786
vn -0.6786 0.2811 0.6786
vn -0.6786 0.2811 0.6786
vn -0.2811 0.6786 0.6786
vn -0.2811 0.6786 0.6786
vn 0.2811 0.6786 0.6786
vn 0.2811 0.6786 0.6786
vn 0.6786 0.2811 0.6786
vn 0.6786 0.2811 0.6786
vn -0.6786 0.2811 0.6786
vn -0.6786 0.2811 0.6786
vn -0.2811 0.6786 0.6786
vn -0.2811 0.6786 0.6786
vn 0.2811 0.6786 0.6786
vn 0.2811 0.6786 0.6786
vn 0.6786 0.2811 0.6786
vn 0.6786 0.2811 0.6786
vn 0.6786 -0.2811 0.6786
vn 0.6786 -0.2811 0.6786
vn 0.2811 -0.6786 0.6786
vn 0.2811 -0.6786 0.6786
vn -0.2811 -0.6786 0.6786
vn -0.2811 -0.6786 0.6786
vn -0.6786 -0.2811 0.6786
vn -0.6786 -0.2811 0.6786
usemtl c0
f 1//1 2//1 14//1
f 1//2 14//2 13//2
f 2//3 3//3 15//3
f 2//4 15//4 14//4
f 3//5 4//5 16//5
f 3//6 16//6 15//6
f 4//7 5//7 17//7
f 4//8 17//8 16//8
f 5//9 6//9 18//9
f 5//10 18//10 17//10
f 6//11 7//11 19//11
f 6//12 19//12 18//12
f 7//13 8//13 20//13
f 7//14 20//14 19//14
f 8//15 9//15 21//15
f 8//16 21//16 20//16
f 9//17 10//17 22//17
f 9//18 22//18 21//18
f 10//19 11//19 23//19
f 10//20 23//20 22//20
f 11//21 12//21 24//21
f 11//22 24//22 23//22
f 12//23 1//23 13//23
f 12//24 13//24 24//24
f 25//25 1//25 2//25
f 25//26 2//26 3//26
f 25//27 3//27 4//27
f 25//28 4//28 5//28
f 25//29 5//29 6//29
f 25//30 6//30 7//30
f 25//31 7//31 8//31
f 25//32 8//32 9//32
f 25//33 9//33 10//33
f 25//34 10//34 11//34
f 25//35 11//35 12//35
f 25//36 12//36 1//36
f 26//37 13//37 14//37
f 26//38 14//38 15//38
f 26//39 15//39 16//39
f 26//40 16//40 17//40
f 26//41 17//41 18//41
f 26//42 18//42 19//42
f 26//43 19//43 20//43
f 26//44 20//44 21//44
f 26//45 21//45 22//45
f 26//46 22//46 23//46
f 26//47 23//47 24//47
f 26//48 24//48 13//48
f 27//49 38//49 37//49
f 28//50 39//50 38//50
f 29//51 40//51 39//51
f 30//52 41//52 40//52
f 31//53 42//53 41//53
f 32//54 43//54 42//54
f 33//55 44//55 43//55
f 34//56 45//56 44//56
f 35//57 46//57 45//57
f 36//58 37//58 46//58
f 37//59 38//59 48//59
f 37//60 48//60 47//60
f 38//61 39//61 49//61
f 38//62 49//62 48//62
f 39//63 40//63 50//63
f 39//64 50//64 49//64
f 40//65 41//65 51//65
f 40//66 51//66 50//66
f 41//67 42//67 52//67
f 41//68 52//68 51//68
f 42//69 43//69 53//69
f 42//70 53//70 52//70
f 43//71 44//71 54//71
f 43//72 54//72 53//72
f 44//73 45//73 55//73
f 44//74 55//74 54//74
f 45//75 46//75 56//75
f 45//76 56//76 55//76
f 46//77 37//77 47//77
f 46//78 47//78 56//78
f 47//79 48//79 58//79
f 47//80 58//80 57//80
f 48//81 49//81 59//81
f 48//82 59//82 58//82
f 49//83 50//83 60//83
f 49//84 60//84 59//84
f 50//85 51//85 61//85
f 50//86 61//86 60//86
f 51//87 52//87 62//87
f 51//88 62//88 61//88
f 52//89 53//89 63//89
f 52//90 63//90 62//90
f 53//91 54//91 64//91
f 53//92 64//92 63//92
f 54//93 55//93 65//93
f 54//94 65//94 64//94
f 55//95 56//95 66//95
f 55//96 66//96 65//96
f 56//97 47//97 57//97
f 56//98 57//98 66//98
usemtl c1
f 67//99 68//99 78//99
f 67//100 78//100 77//100
f 68//101 69//101 79//101
f 68//102 79//102 78//102
f 69//103 70//103 80//103
f 69//104 80//104 79//104
f 70//105 71//105 81//105
f 70//106 81//106 80//106
f 71//107 72//107 82//107
f 71//108 82//108 81//108
f 72//109 73//109 83//109
f 72//110 83//110 82//110
f 73//111 74//111 84//111
f 73//112 84//112 83//112
f 74//113 75//113 85//113
f 74//114 85//114 84//114
f 75//115 76//115 86//115
f 75//116 86//116 85//116
f 76//117 67//117 77//117
f 76//118 77//118 86//118
f 87//119 67//119 68//119
f 87//120 68//120 69//120
f 87//121 69//121 70//121
f 87//122 70//122 71//122
f 87//123 71//123 72//123
f 87//124 72//124 73//124
f 87//125 73//125 74//125
f 87//126 74//126 75//126
f 87//127 75//127 76//127
f 87//128 76//128 67//128
f 88//129 77//129 78//129
f 88//130 78//130 79//130
f 88//131 79//131 80//131
f 88//132 80//132 81//132
f 88//133 81//133 82//133
f 88//134 82//134 83//134
f 88//135 83//135 84//135
f 88//136 84//136 85//136
f 88//137 85//137 86//137
f 88//138 86//138 77//138
usemtl c0
f 89//139 90//139 98//139
f 89//140 98//140 97//140
f 90//141 91//141 99//141
f 90//142 99//142 98//142
f 91//143 92//143 100//143
f 91//144 100//144 99//144
f 92//145 93//145 101//145
f 92//146 101//146 100//146
f 93//147 94//147 102//147
f 93//148 102//148 101//148
f 94//149 95//149 103//149
f 94//150 103//150 102//150
f 95//151 96//151 104//151
f 95//152 104//152 103//152
f 96//153 89//153 97//153
f 96//154 97//154 104//154
f 97//155 98//155 106//155
f 97//156 106//156 105//156
f 98//157 99//157 107//157
f 98//158 107//158 106//158
f 99//159 100//159 108//159
f 99//160 108//160 107//160
f 100//161 101//161 109//161
f 100//162 109//162 108//162
f 101//163 102//163 110//163
f 101//164 110//164 109//164
f 102//165 103//165 111//165
f 102//166 111//166 110//166
f 103//167 104//167 112//167
f 103//168 112//168 111//168
f 104//169 97//169 105//169
f 104//170 105//170 112//170
f 105//171 106//171 114//171
f 105//172 114//172 113//172
f 106//173 107//173 115//173
f 106//174 115//174 114//174
f 107//175 108//175 116//175
f 107//176 116//176 115//176
f 108//177 109//177 117//177
f 108//178 117//178 116//178
f 109//179 110//179 118//179
f 109//180 118//180 117//180
f 110//181 111//181 119//181
f 110//182 119//182 118//182
f 111//183 112//183 120//183
f 111//184 120//184 119//184
f 112//185 105//185 113//185
f 112//186 113//186 120//186
f 113//187 114//187 90//187
f 113//188 90//188 89//188
f 114//189 115//189 91//189
f 114//190 91//190 90//190
f 115//191 116//191 92//191
f 115//192 92//192 91//192
f 116//193 117//193 93//193
f 116//194 93//194 92//194
f 117//195 118//195 94//195
f 117//196 94//196 93//196
f 118//197 119//197 95//197
f 118//198 95//198 94//198
f 119//199 120//199 96//199
f 119//200 96//200 95//200
f 120//201 113//201 89//201
f 120//202 89//202 96//202
