mtllib Food_Fries.mtl
v -0.5380 0.3110 -0.5009
v -0.3680 0.3103 -0.5009
v -0.3681 0.2950 -0.3316
v -0.5381 0.2957 -0.3316
v -0.5319 1.7810 -0.3684
v -0.3619 1.7803 -0.3684
v -0.3620 1.7650 -0.1991
v -0.5320 1.7657 -0.1991
v -0.4531 0.3030 -0.4163
v -0.4469 1.7730 -0.2837
v -0.5083 0.2905 -0.0037
v -0.3385 0.2983 -0.0037
v -0.3396 0.3219 0.1646
v -0.5094 0.3142 0.1646
v -0.5604 1.4351 -0.1646
v -0.3906 1.4428 -0.1646
v -0.3917 1.4664 0.0037
v -0.5615 1.4587 0.0037
v -0.4240 0.3062 0.0804
v -0.4760 1.4508 -0.0804
v -0.5574 0.3113 0.2188
v -0.3875 0.3052 0.2188
v -0.3879 0.2929 0.3883
v -0.5578 0.2989 0.3883
v -0.5121 1.5892 0.3117
v -0.3422 1.5832 0.3117
v -0.3426 1.5709 0.4812
v -0.5125 1.5769 0.4812
v -0.4726 0.3021 0.3035
v -0.4274 1.5801 0.3965
v -0.1728 0.2915 -0.3885
v -0.0034 0.3058 -0.3885
v -0.0043 0.3166 -0.2188
v -0.1737 0.3023 -0.2188
v -0.2957 1.7455 -0.4812
v -0.1263 1.7598 -0.4812
v -0.1272 1.7706 -0.3115
v -0.2966 1.7562 -0.3115
v -0.0886 0.3041 -0.3036
v -0.2114 1.7580 -0.3964
v -0.2273 0.2973 -0.0677
v -0.0573 0.2991 -0.0677
v -0.0573 0.3032 0.1022
v -0.2273 0.3014 0.1022
v -0.2427 1.7347 -0.1022
v -0.0727 1.7365 -0.1022
v -0.0727 1.7406 0.0677
v -0.2427 1.7388 0.0677
v -0.1423 0.3002 0.0173
v -0.1577 1.7376 -0.0173
v -0.2244 0.2941 0.3256
v -0.0544 0.2967 0.3256
v -0.0546 0.3112 0.4950
v -0.2246 0.3087 0.4950
v -0.2454 1.6980 0.2050
v -0.0754 1.7006 0.2050
v -0.0756 1.7151 0.3744
v -0.2456 1.7126 0.3744
v -0.1395 0.3027 0.4103
v -0.1605 1.7066 0.2897
v 0.1284 0.2915 -0.3863
v 0.2978 0.3059 -0.3863
v 0.2968 0.3170 -0.2167
v 0.1274 0.3026 -0.2167
v 0.0032 1.7661 -0.4833
v 0.1726 1.7805 -0.4833
v 0.1716 1.7916 -0.3137
v 0.0022 1.7772 -0.3137
v 0.2126 0.3042 -0.3015
v 0.0874 1.7788 -0.3985
v 0.0332 0.3161 -0.1524
v 0.2030 0.3082 -0.1524
v 0.2023 0.2919 0.0169
v 0.0325 0.2997 0.0169
v 0.0977 1.7195 -0.0169
v 0.2675 1.7117 -0.0169
v 0.2668 1.6954 0.1524
v 0.0970 1.7032 0.1524
v 0.1178 0.3040 -0.0677
v 0.1822 1.7074 0.0677
v 0.1094 0.3036 0.2211
v 0.2788 0.3181 0.2211
v 0.2800 0.3039 0.3905
v 0.1106 0.2894 0.3905
v 0.0200 1.3520 0.3095
v 0.1894 1.3664 0.3095
v 0.1906 1.3523 0.4789
v 0.0212 1.3378 0.4789
v 0.1947 0.3038 0.3058
v 0.1053 1.3521 0.3942
v 0.3113 0.3039 -0.3627
v 0.4807 0.2896 -0.3627
v 0.4823 0.3087 -0.1938
v 0.3129 0.3231 -0.1938
v 0.4177 1.5584 -0.5062
v 0.5871 1.5440 -0.5062
v 0.5887 1.5632 -0.3373
v 0.4193 1.5776 -0.3373
v 0.3968 0.3063 -0.2783
v 0.5032 1.5608 -0.4217
v 0.4530 0.2910 -0.0446
v 0.6216 0.3124 -0.0446
v 0.6204 0.3222 0.1251
v 0.4517 0.3009 0.1251
v 0.2796 1.6587 -0.1251
v 0.4483 1.6801 -0.1251
v 0.4470 1.6899 0.0446
v 0.2784 1.6685 0.0446
v 0.5367 0.3066 0.0402
v 0.3633 1.6743 -0.0402
v 0.3946 0.2922 0.3217
v 0.5645 0.2996 0.3217
v 0.5639 0.3138 0.4912
v 0.3940 0.3064 0.4912
v 0.3361 1.6394 0.2088
v 0.5060 1.6468 0.2088
v 0.5054 1.6609 0.3783
v 0.3355 1.6535 0.3783
v 0.4792 0.3030 0.4064
v 0.4208 1.6501 0.2936
v 0.0000 0.0000 0.0000
v 0.0000 0.0000 0.0000
v 0.0000 0.0000 0.0000
v 0.0000 0.0000 0.0000
v 0.4384 0.0000 -0.4384
v 0.4384 0.0000 0.4384
v -0.4384 0.0000 0.4384
v -0.4384 0.0000 -0.4384
v 0.6718 1.0000 -0.6718
v 0.6718 1.0000 0.6718
v -0.6718 1.0000 0.6718
v -0.6718 1.0000 -0.6718
v 0.0000 1.0000 0.0000
v -0.5000 0.3500 0.6600
v 0.5000 0.3500 0.6600
v 0.5000 0.3500 0.7000
v -0.5000 0.3500 0.7000
v -0.5000 0.6500 0.6600
v 0.5000 0.6500 0.6600
v 0.5000 0.6500 0.7000
v -0.5000 0.6500 0.7000
v 0.0000 0.3500 0.6800
v 0.0000 0.6500 0.6800
vn -0.0004 -0.0898 0.9960
vn -0.0004 -0.0898 0.9960
vn 0.0042 0.9960 0.0898
vn -0.0042 -0.9960 -0.0898
vn -1.0000 0.0042 0.0000
vn -1.0000 0.0042 0.0000
vn 0.0042 0.9960 0.0898
vn -0.0042 -0.9960 -0.0898
vn 0.0004 0.0898 -0.9960
vn 0.0004 0.0898 -0.9960
vn 0.0042 0.9960 0.0898
vn -0.0042 -0.9960 -0.0898
vn 1.0000 -0.0042 0.0000
vn 1.0000 -0.0042 0.0000
vn 0.0042 0.9960 0.0898
vn -0.0042 -0.9960 -0.0898
vn -0.0063 0.1389 0.9903
vn -0.0063 0.1389 0.9903
vn -0.0450 0.9893 -0.1390
vn 0.0450 -0.9893 0.1390
vn -0.9990 -0.0455 -0.0000
vn -0.9990 -0.0455 0.0000
vn -0.0450 0.9893 -0.1390
vn 0.0450 -0.9893 0.1390
vn 0.0063 -0.1389 -0.9903
vn 0.0063 -0.1389 -0.9903
vn -0.0450 0.9893 -0.1390
vn 0.0450 -0.9893 0.1390
vn 0.9990 0.0455 0.0000
vn 0.9990 0.0455 -0.0000
vn -0.0450 0.9893 -0.1390
vn 0.0450 -0.9893 0.1390
vn -0.0026 -0.0724 0.9974
vn -0.0026 -0.0724 0.9974
vn 0.0353 0.9967 0.0725
vn -0.0353 -0.9967 -0.0725
vn -0.9994 0.0354 0.0000
vn -0.9994 0.0354 -0.0000
vn 0.0353 0.9967 0.0725
vn -0.0353 -0.9967 -0.0725
vn 0.0026 0.0724 -0.9974
vn 0.0026 0.0724 -0.9974
vn 0.0353 0.9967 0.0725
vn -0.0353 -0.9967 -0.0725
vn 0.9994 -0.0354 0.0000
vn 0.9994 -0.0354 0.0000
vn 0.0353 0.9967 0.0725
vn -0.0353 -0.9967 -0.0725
vn -0.0053 0.0632 0.9980
vn -0.0053 0.0632 0.9980
vn -0.0840 0.9944 -0.0634
vn 0.0840 -0.9944 0.0634
vn -0.9964 -0.0842 -0.0000
vn -0.9964 -0.0842 -0.0000
vn -0.0840 0.9944 -0.0634
vn 0.0840 -0.9944 0.0634
vn 0.0053 -0.0632 -0.9980
vn 0.0053 -0.0632 -0.9980
vn -0.0840 0.9944 -0.0634
vn 0.0840 -0.9944 0.0634
vn 0.9964 0.0842 0.0000
vn 0.9964 0.0842 0.0000
vn -0.0840 0.9944 -0.0634
vn 0.0840 -0.9944 0.0634
vn -0.0003 0.0240 0.9997
vn -0.0003 0.0240 0.9997
vn -0.0107 0.9997 -0.0240
vn 0.0107 -0.9997 0.0240
vn -0.9999 -0.0107 0.0000
vn -0.9999 -0.0107 0.0000
vn -0.0107 0.9997 -0.0240
vn 0.0107 -0.9997 0.0240
vn 0.0003 -0.0240 -0.9997
vn 0.0003 -0.0240 -0.9997
vn -0.0107 0.9997 -0.0240
vn 0.0107 -0.9997 0.0240
vn 0.9999 0.0107 -0.0000
vn 0.9999 0.0107 -0.0000
vn -0.0107 0.9997 -0.0240
vn 0.0107 -0.9997 0.0240
vn -0.0013 0.0856 0.9963
vn -0.0013 0.0856 0.9963
vn -0.0149 0.9962 -0.0856
vn 0.0149 -0.9962 0.0856
vn -0.9999 -0.0150 0.0000
vn -0.9999 -0.0150 0.0000
vn -0.0149 0.9962 -0.0856
vn 0.0149 -0.9962 0.0856
vn 0.0013 -0.0856 -0.9963
vn 0.0013 -0.0856 -0.9963
vn -0.0149 0.9962 -0.0856
vn 0.0149 -0.9962 0.0856
vn 0.9999 0.0150 -0.0000
vn 0.9999 0.0150 -0.0000
vn -0.0149 0.9962 -0.0856
vn 0.0149 -0.9962 0.0856
vn -0.0055 0.0652 0.9979
vn -0.0055 0.0652 0.9979
vn -0.0844 0.9943 -0.0654
vn 0.0844 -0.9943 0.0654
vn -0.9964 -0.0846 -0.0000
vn -0.9964 -0.0846 0.0000
vn -0.0844 0.9943 -0.0654
vn 0.0844 -0.9943 0.0654
vn 0.0055 -0.0652 -0.9979
vn 0.0055 -0.0652 -0.9979
vn -0.0844 0.9943 -0.0654
vn 0.0844 -0.9943 0.0654
vn 0.9964 0.0846 -0.0000
vn 0.9964 0.0846 0.0000
vn -0.0844 0.9943 -0.0654
vn 0.0844 -0.9943 0.0654
vn -0.0044 -0.0959 0.9954
vn -0.0044 -0.0959 0.9954
vn 0.0457 0.9943 0.0960
vn -0.0457 -0.9943 -0.0960
vn -0.9989 0.0459 0.0000
vn -0.9989 0.0459 0.0000
vn 0.0457 0.9943 0.0960
vn -0.0457 -0.9943 -0.0960
vn 0.0044 0.0959 -0.9954
vn 0.0044 0.0959 -0.9954
vn 0.0457 0.9943 0.0960
vn -0.0457 -0.9943 -0.0960
vn 0.9989 -0.0459 0.0000
vn 0.9989 -0.0459 -0.0000
vn 0.0457 0.9943 0.0960
vn -0.0457 -0.9943 -0.0960
vn 0.0071 -0.0835 0.9965
vn 0.0071 -0.0835 0.9965
vn -0.0847 0.9929 0.0838
vn 0.0847 -0.9929 -0.0838
vn -0.9964 -0.0850 -0.0000
vn -0.9964 -0.0850 0.0000
vn -0.0847 0.9929 0.0838
vn 0.0847 -0.9929 -0.0838
vn -0.0071 0.0835 -0.9965
vn -0.0071 0.0835 -0.9965
vn -0.0847 0.9929 0.0838
vn 0.0847 -0.9929 -0.0838
vn 0.9964 0.0850 0.0000
vn 0.9964 0.0850 0.0000
vn -0.0847 0.9929 0.0838
vn 0.0847 -0.9929 -0.0838
vn 0.0096 0.1128 0.9936
vn 0.0096 0.1128 0.9936
vn 0.0839 0.9900 -0.1132
vn -0.0839 -0.9900 0.1132
vn -0.9964 0.0845 -0.0000
vn -0.9964 0.0845 -0.0000
vn 0.0839 0.9900 -0.1132
vn -0.0839 -0.9900 0.1132
vn -0.0096 -0.1128 -0.9936
vn -0.0096 -0.1128 -0.9936
vn 0.0839 0.9900 -0.1132
vn -0.0839 -0.9900 0.1132
vn 0.9964 -0.0845 0.0000
vn 0.9964 -0.0845 0.0000
vn 0.0839 0.9900 -0.1132
vn -0.0839 -0.9900 0.1132
vn -0.0073 0.0578 0.9983
vn -0.0073 0.0578 0.9983
vn -0.1255 0.9904 -0.0583
vn 0.1255 -0.9904 0.0583
vn -0.9921 -0.1257 0.0000
vn -0.9921 -0.1257 0.0000
vn -0.1255 0.9904 -0.0583
vn 0.1255 -0.9904 0.0583
vn 0.0073 -0.0578 -0.9983
vn 0.0073 -0.0578 -0.9983
vn -0.1255 0.9904 -0.0583
vn 0.1255 -0.9904 0.0583
vn 0.9921 0.1257 -0.0000
vn 0.9921 0.1257 -0.0000
vn -0.1255 0.9904 -0.0583
vn 0.1255 -0.9904 0.0583
vn -0.0036 0.0834 0.9965
vn -0.0036 0.0834 0.9965
vn -0.0432 0.9956 -0.0834
vn 0.0432 -0.9956 0.0834
vn -0.9991 -0.0434 0.0000
vn -0.9991 -0.0434 0.0000
vn -0.0432 0.9956 -0.0834
vn 0.0432 -0.9956 0.0834
vn 0.0036 -0.0834 -0.9965
vn 0.0036 -0.0834 -0.9965
vn -0.0432 0.9956 -0.0834
vn 0.0432 -0.9956 0.0834
vn 0.9991 0.0434 0.0000
vn 0.9991 0.0434 -0.0000
vn -0.0432 0.9956 -0.0834
vn 0.0432 -0.9956 0.0834
vn -0.0000 1.0000 0.0000
vn 0.0000 1.0000 -0.0000
vn 0.0000 1.0000 0.0000
vn 0.0000 1.0000 0.0000
vn -0.9738 0.2272 0.0000
vn -0.9738 0.2272 0.0000
vn -0.0000 0.2272 -0.9738
vn -0.0000 0.2272 -0.9738
vn 0.9738 0.2272 -0.0000
vn 0.9738 0.2272 -0.0000
vn 0.0000 0.2272 0.9738
vn 0.0000 0.2272 0.9738
vn 0.0000 -1.0000 0.0000
vn 0.0000 -1.0000 0.0000
vn -0.0000 -1.0000 0.0000
vn 0.0000 -1.0000 -0.0000
vn 0.0000 0.0000 1.0000
vn 0.0000 0.0000 1.0000
vn 0.0000 1.0000 0.0000
vn 0.0000 -1.0000 -0.0000
vn -1.0000 0.0000 0.0000
vn -1.0000 0.0000 0.0000
vn -0.0000 1.0000 0.0000
vn 0.0000 -1.0000 0.0000
vn 0.0000 0.0000 -1.0000
vn 0.0000 0.0000 -1.0000
vn 0.0000 1.0000 -0.0000
vn 0.0000 -1.0000 0.0000
vn 1.0000 0.0000 0.0000
vn 1.0000 -0.0000 0.0000
vn 0.0000 1.0000 0.0000
vn -0.0000 -1.0000 0.0000
usemtl c0
f 1//1 2//1 6//1
f 1//2 6//2 5//2
f 9//3 2//3 1//3
f 10//4 5//4 6//4
f 2//5 3//5 7//5
f 2//6 7//6 6//6
f 9//7 3//7 2//7
f 10//8 6//8 7//8
f 3//9 4//9 8//9
f 3//10 8//10 7//10
f 9//11 4//11 3//11
f 10//12 7//12 8//12
f 4//13 1//13 5//13
f 4//14 5//14 8//14
f 9//15 1//15 4//15
f 10//16 8//16 5//16
f 11//17 12//17 16//17
f 11//18 16//18 15//18
f 19//19 12//19 11//19
f 20//20 15//20 16//20
f 12//21 13//21 17//21
f 12//22 17//22 16//22
f 19//23 13//23 12//23
f 20//24 16//24 17//24
f 13//25 14//25 18//25
f 13//26 18//26 17//26
f 19//27 14//27 13//27
f 20//28 17//28 18//28
f 14//29 11//29 15//29
f 14//30 15//30 18//30
f 19//31 11//31 14//31
f 20//32 18//32 15//32
f 21//33 22//33 26//33
f 21//34 26//34 25//34
f 29//35 22//35 21//35
f 30//36 25//36 26//36
f 22//37 23//37 27//37
f 22//38 27//38 26//38
f 29//39 23//39 22//39
f 30//40 26//40 27//40
f 23//41 24//41 28//41
f 23//42 28//42 27//42
f 29//43 24//43 23//43
f 30//44 27//44 28//44
f 24//45 21//45 25//45
f 24//46 25//46 28//46
f 29//47 21//47 24//47
f 30//48 28//48 25//48
f 31//49 32//49 36//49
f 31//50 36//50 35//50
f 39//51 32//51 31//51
f 40//52 35//52 36//52
f 32//53 33//53 37//53
f 32//54 37//54 36//54
f 39//55 33//55 32//55
f 40//56 36//56 37//56
f 33//57 34//57 38//57
f 33//58 38//58 37//58
f 39//59 34//59 33//59
f 40//60 37//60 38//60
f 34//61 31//61 35//61
f 34//62 35//62 38//62
f 39//63 31//63 34//63
f 40//64 38//64 35//64
f 41//65 42//65 46//65
f 41//66 46//66 45//66
f 49//67 42//67 41//67
f 50//68 45//68 46//68
f 42//69 43//69 47//69
f 42//70 47//70 46//70
f 49//71 43//71 42//71
f 50//72 46//72 47//72
f 43//73 44//73 48//73
f 43//74 48//74 47//74
f 49//75 44//75 43//75
f 50//76 47//76 48//76
f 44//77 41//77 45//77
f 44//78 45//78 48//78
f 49//79 41//79 44//79
f 50//80 48//80 45//80
f 51//81 52//81 56//81
f 51//82 56//82 55//82
f 59//83 52//83 51//83
f 60//84 55//84 56//84
f 52//85 53//85 57//85
f 52//86 57//86 56//86
f 59//87 53//87 52//87
f 60//88 56//88 57//88
f 53//89 54//89 58//89
f 53//90 58//90 57//90
f 59//91 54//91 53//91
f 60//92 57//92 58//92
f 54//93 51//93 55//93
f 54//94 55//94 58//94
f 59//95 51//95 54//95
f 60//96 58//96 55//96
f 61//97 62//97 66//97
f 61//98 66//98 65//98
f 69//99 62//99 61//99
f 70//100 65//100 66//100
f 62//101 63//101 67//101
f 62//102 67//102 66//102
f 69//103 63//103 62//103
f 70//104 66//104 67//104
f 63//105 64//105 68//105
f 63//106 68//106 67//106
f 69//107 64//107 63//107
f 70//108 67//108 68//108
f 64//109 61//109 65//109
f 64//110 65//110 68//110
f 69//111 61//111 64//111
f 70//112 68//112 65//112
f 71//113 72//113 76//113
f 71//114 76//114 75//114
f 79//115 72//115 71//115
f 80//116 75//116 76//116
f 72//117 73//117 77//117
f 72//118 77//118 76//118
f 79//119 73//119 72//119
f 80//120 76//120 77//120
f 73//121 74//121 78//121
f 73//122 78//122 77//122
f 79//123 74//123 73//123
f 80//124 77//124 78//124
f 74//125 71//125 75//125
f 74//126 75//126 78//126
f 79//127 71//127 74//127
f 80//128 78//128 75//128
f 81//129 82//129 86//129
f 81//130 86//130 85//130
f 89//131 82//131 81//131
f 90//132 85//132 86//132
f 82//133 83//133 87//133
f 82//134 87//134 86//134
f 89//135 83//135 82//135
f 90//136 86//136 87//136
f 83//137 84//137 88//137
f 83//138 88//138 87//138
f 89//139 84//139 83//139
f 90//140 87//140 88//140
f 84//141 81//141 85//141
f 84//142 85//142 88//142
f 89//143 81//143 84//143
f 90//144 88//144 85//144
f 91//145 92//145 96//145
f 91//146 96//146 95//146
f 99//147 92//147 91//147
f 100//148 95//148 96//148
f 92//149 93//149 97//149
f 92//150 97//150 96//150
f 99//151 93//151 92//151
f 100//152 96//152 97//152
f 93//153 94//153 98//153
f 93//154 98//154 97//154
f 99//155 94//155 93//155
f 100//156 97//156 98//156
f 94//157 91//157 95//157
f 94//158 95//158 98//158
f 99//159 91//159 94//159
f 100//160 98//160 95//160
f 101//161 102//161 106//161
f 101//162 106//162 105//162
f 109//163 102//163 101//163
f 110//164 105//164 106//164
f 102//165 103//165 107//165
f 102//166 107//166 106//166
f 109//167 103//167 102//167
f 110//168 106//168 107//168
f 103//169 104//169 108//169
f 103//170 108//170 107//170
f 109//171 104//171 103//171
f 110//172 107//172 108//172
f 104//173 101//173 105//173
f 104//174 105//174 108//174
f 109//175 101//175 104//175
f 110//176 108//176 105//176
f 111//177 112//177 116//177
f 111//178 116//178 115//178
f 119//179 112//179 111//179
f 120//180 115//180 116//180
f 112//181 113//181 117//181
f 112//182 117//182 116//182
f 119//183 113//183 112//183
f 120//184 116//184 117//184
f 113//185 114//185 118//185
f 113//186 118//186 117//186
f 119//187 114//187 113//187
f 120//188 117//188 118//188
f 114//189 111//189 115//189
f 114//190 115//190 118//190
f 119//191 111//191 114//191
f 120//192 118//192 115//192
usemtl c1
f 121//193 126//193 125//193
f 122//194 127//194 126//194
f 123//195 128//195 127//195
f 124//196 125//196 128//196
f 125//197 126//197 130//197
f 125//198 130//198 129//198
f 126//199 127//199 131//199
f 126//200 131//200 130//200
f 127//201 128//201 132//201
f 127//202 132//202 131//202
f 128//203 125//203 129//203
f 128//204 129//204 132//204
f 133//205 129//205 130//205
f 133//206 130//206 131//206
f 133//207 131//207 132//207
f 133//208 132//208 129//208
usemtl c2
f 134//209 135//209 139//209
f 134//210 139//210 138//210
f 142//211 135//211 134//211
f 143//212 138//212 139//212
f 135//213 136//213 140//213
f 135//214 140//214 139//214
f 142//215 136//215 135//215
f 143//216 139//216 140//216
f 136//217 137//217 141//217
f 136//218 141//218 140//218
f 142//219 137//219 136//219
f 143//220 140//220 141//220
f 137//221 134//221 138//221
f 137//222 138//222 141//222
f 142//223 134//223 137//223
f 143//224 141//224 138//224
