mtllib Food_Baguette.mtl
v -1.1746 0.4275 0.0000
v -1.1746 0.4275 0.0000
v -1.1746 0.4275 0.0000
v -1.1746 0.4275 0.0000
v -1.1746 0.4275 0.0000
v -1.1746 0.4275 0.0000
v -1.1746 0.4275 0.0000
v -1.1746 0.4275 0.0000
v -0.8827 0.4987 0.0000
v -0.8994 0.4528 0.1179
v -0.9397 0.3420 0.1668
v -0.9800 0.2312 0.1179
v -0.9967 0.1853 0.0000
v -0.9800 0.2312 -0.1179
v -0.9397 0.3420 -0.1668
v -0.8994 0.4528 -0.1179
v -0.6261 0.4726 0.0000
v -0.6491 0.4093 0.1626
v -0.7048 0.2565 0.2300
v -0.7604 0.1037 0.1626
v -0.7834 0.0404 0.0000
v -0.7604 0.1037 -0.1626
v -0.7048 0.2565 -0.2300
v -0.6491 0.4093 -0.1626
v -0.3776 0.4246 0.0000
v -0.4046 0.3503 0.1908
v -0.4698 0.1710 0.2698
v -0.5351 -0.0083 0.1908
v -0.5621 -0.0826 0.0000
v -0.5351 -0.0083 -0.1908
v -0.4698 0.1710 -0.2698
v -0.4046 0.3503 -0.1908
v -0.1349 0.3604 0.0000
v -0.1642 0.2799 0.2069
v -0.2349 0.0855 0.2926
v -0.3057 -0.1089 0.2069
v -0.3350 -0.1894 0.0000
v -0.3057 -0.1089 -0.2069
v -0.2349 0.0855 -0.2926
v -0.1642 0.2799 -0.2069
v 0.1026 0.2819 0.0000
v 0.0726 0.1993 0.2121
v 0.0000 0.0000 0.3000
v -0.0726 -0.1993 0.2121
v -0.1026 -0.2819 0.0000
v -0.0726 -0.1993 -0.2121
v -0.0000 -0.0000 -0.3000
v 0.0726 0.1993 -0.2121
v 0.3350 0.1894 0.0000
v 0.3057 0.1089 0.2069
v 0.2349 -0.0855 0.2926
v 0.1642 -0.2799 0.2069
v 0.1349 -0.3604 0.0000
v 0.1642 -0.2799 -0.2069
v 0.2349 -0.0855 -0.2926
v 0.3057 0.1089 -0.2069
v 0.5621 0.0826 0.0000
v 0.5351 0.0083 0.1908
v 0.4698 -0.1710 0.2698
v 0.4046 -0.3503 0.1908
v 0.3776 -0.4246 0.0000
v 0.4046 -0.3503 -0.1908
v 0.4698 -0.1710 -0.2698
v 0.5351 0.0083 -0.1908
v 0.7834 -0.0404 0.0000
v 0.7604 -0.1037 0.1626
v 0.7048 -0.2565 0.2300
v 0.6491 -0.4093 0.1626
v 0.6261 -0.4726 0.0000
v 0.6491 -0.4093 -0.1626
v 0.7048 -0.2565 -0.2300
v 0.7604 -0.1037 -0.1626
v 0.9967 -0.1853 0.0000
v 0.9800 -0.2312 0.1179
v 0.9397 -0.3420 0.1668
v 0.8994 -0.4528 0.1179
v 0.8827 -0.4987 0.0000
v 0.8994 -0.4528 -0.1179
v 0.9397 -0.3420 -0.1668
v 0.9800 -0.2312 -0.1179
v 1.1746 -0.4275 0.0000
v 1.1746 -0.4275 0.0000
v 1.1746 -0.4275 0.0000
v 1.1746 -0.4275 0.0000
v 1.1746 -0.4275 0.0000
v 1.1746 -0.4275 -0.0000
v 1.1746 -0.4275 -0.0000
v 1.1746 -0.4275 -0.0000
v -0.5757 0.4649 0.0000
v -0.5757 0.4649 0.0000
v -0.5757 0.4649 0.0000
v -0.5757 0.4649 0.0000
v -0.5757 0.4649 0.0000
v -0.5757 0.4649 0.0000
v -0.4044 0.4292 0.0000
v -0.4858 0.4588 0.0675
v -0.6485 0.5181 0.0675
v -0.7299 0.5477 0.0000
v -0.6485 0.5181 -0.0675
v -0.4858 0.4588 -0.0675
v -0.3873 0.4762 0.0000
v -0.4687 0.5058 0.0675
v -0.6314 0.5650 0.0675
v -0.7128 0.5947 0.0000
v -0.6314 0.5650 -0.0675
v -0.4687 0.5058 -0.0675
v -0.5415 0.5589 0.0000
v -0.5415 0.5589 0.0000
v -0.5415 0.5589 0.0000
v -0.5415 0.5589 0.0000
v -0.5415 0.5589 -0.0000
v -0.5415 0.5589 -0.0000
v -0.1528 0.3110 0.0000
v -0.1528 0.3110 0.0000
v -0.1528 0.3110 0.0000
v -0.1528 0.3110 0.0000
v -0.1528 0.3110 0.0000
v -0.1528 0.3110 0.0000
v 0.0185 0.2753 0.0000
v -0.0629 0.3049 0.0675
v -0.2257 0.3641 0.0675
v -0.3070 0.3938 0.0000
v -0.2257 0.3641 -0.0675
v -0.0629 0.3049 -0.0675
v 0.0356 0.3223 0.0000
v -0.0458 0.3519 0.0675
v -0.2086 0.4111 0.0675
v -0.2899 0.4407 0.0000
v -0.2086 0.4111 -0.0675
v -0.0458 0.3519 -0.0675
v -0.1186 0.4050 0.0000
v -0.1186 0.4050 0.0000
v -0.1186 0.4050 0.0000
v -0.1186 0.4050 0.0000
v -0.1186 0.4050 -0.0000
v -0.1186 0.4050 -0.0000
v 0.2700 0.1571 0.0000
v 0.2700 0.1571 0.0000
v 0.2700 0.1571 0.0000
v 0.2700 0.1571 0.0000
v 0.2700 0.1571 0.0000
v 0.2700 0.1571 0.0000
v 0.4413 0.1214 0.0000
v 0.3600 0.1510 0.0675
v 0.1972 0.2102 0.0675
v 0.1158 0.2399 0.0000
v 0.1972 0.2102 -0.0675
v 0.3600 0.1510 -0.0675
v 0.4584 0.1684 0.0000
v 0.3771 0.1980 0.0675
v 0.2143 0.2572 0.0675
v 0.1329 0.2868 0.0000
v 0.2143 0.2572 -0.0675
v 0.3771 0.1980 -0.0675
v 0.3042 0.2511 0.0000
v 0.3042 0.2511 0.0000
v 0.3042 0.2511 0.0000
v 0.3042 0.2511 0.0000
v 0.3042 0.2511 -0.0000
v 0.3042 0.2511 -0.0000
v 0.6929 0.0032 0.0000
v 0.6929 0.0032 0.0000
v 0.6929 0.0032 0.0000
v 0.6929 0.0032 0.0000
v 0.6929 0.0032 0.0000
v 0.6929 0.0032 0.0000
v 0.8642 -0.0325 0.0000
v 0.7828 -0.0029 0.0675
v 0.6201 0.0563 0.0675
v 0.5387 0.0859 0.0000
v 0.6201 0.0563 -0.0675
v 0.7828 -0.0029 -0.0675
v 0.8813 0.0145 0.0000
v 0.7999 0.0441 0.0675
v 0.6372 0.1033 0.0675
v 0.5558 0.1329 0.0000
v 0.6372 0.1033 -0.0675
v 0.7999 0.0441 -0.0675
v 0.7271 0.0972 0.0000
v 0.7271 0.0972 0.0000
v 0.7271 0.0972 0.0000
v 0.7271 0.0972 0.0000
v 0.7271 0.0972 -0.0000
v 0.7271 0.0972 -0.0000
vn -0.2240 0.9185 0.3258
vn -0.3816 0.4856 0.7865
vn -0.6044 -0.1267 0.7865
vn -0.7620 -0.5596 0.3258
vn -0.7620 -0.5596 -0.3258
vn -0.6044 -0.1267 -0.7865
vn -0.3816 0.4856 -0.7865
vn -0.2240 0.9185 -0.3258
vn 0.0939 0.9232 0.3726
vn 0.0939 0.9232 0.3726
vn -0.0864 0.4280 0.8996
vn -0.0864 0.4280 0.8996
vn -0.3413 -0.2723 0.8996
vn -0.3413 -0.2723 0.8996
vn -0.5215 -0.7676 0.3726
vn -0.5215 -0.7676 0.3726
vn -0.5215 -0.7676 -0.3726
vn -0.5215 -0.7676 -0.3726
vn -0.3413 -0.2723 -0.8996
vn -0.3413 -0.2723 -0.8996
vn -0.0864 0.4280 -0.8996
vn -0.0864 0.4280 -0.8996
vn 0.0939 0.9232 -0.3726
vn 0.0939 0.9232 -0.3726
vn 0.1758 0.9087 0.3786
vn 0.1758 0.9087 0.3786
vn -0.0074 0.4056 0.9140
vn -0.0074 0.4056 0.9140
vn -0.2663 -0.3060 0.9140
vn -0.2663 -0.3060 0.9140
vn -0.4495 -0.8091 0.3786
vn -0.4495 -0.8091 0.3786
vn -0.4495 -0.8091 -0.3786
vn -0.4495 -0.8091 -0.3786
vn -0.2663 -0.3060 -0.9140
vn -0.2663 -0.3060 -0.9140
vn -0.0074 0.4056 -0.9140
vn -0.0074 0.4056 -0.9140
vn 0.1758 0.9087 -0.3786
vn 0.1758 0.9087 -0.3786
vn 0.2362 0.8937 0.3813
vn 0.2362 0.8937 0.3813
vn 0.0518 0.3870 0.9206
vn 0.0518 0.3870 0.9206
vn -0.2091 -0.3297 0.9206
vn -0.2091 -0.3297 0.9206
vn -0.3935 -0.8365 0.3813
vn -0.3935 -0.8365 0.3813
vn -0.3935 -0.8365 -0.3813
vn -0.3935 -0.8365 -0.3813
vn -0.2091 -0.3297 -0.9206
vn -0.2091 -0.3297 -0.9206
vn 0.0518 0.3870 -0.9206
vn 0.0518 0.3870 -0.9206
vn 0.2362 0.8937 -0.3813
vn 0.2362 0.8937 -0.3813
vn 0.2901 0.8772 0.3825
vn 0.2901 0.8772 0.3825
vn 0.1050 0.3689 0.9235
vn 0.1050 0.3689 0.9235
vn -0.1566 -0.3501 0.9235
vn -0.1566 -0.3501 0.9235
vn -0.3417 -0.8584 0.3825
vn -0.3417 -0.8584 0.3825
vn -0.3417 -0.8584 -0.3825
vn -0.3417 -0.8584 -0.3825
vn -0.1566 -0.3501 -0.9235
vn -0.1566 -0.3501 -0.9235
vn 0.1050 0.3689 -0.9235
vn 0.1050 0.3689 -0.9235
vn 0.2901 0.8772 -0.3825
vn 0.2901 0.8772 -0.3825
vn 0.3417 0.8584 0.3825
vn 0.3417 0.8584 0.3825
vn 0.1566 0.3501 0.9235
vn 0.1566 0.3501 0.9235
vn -0.1050 -0.3689 0.9235
vn -0.1050 -0.3689 0.9235
vn -0.2901 -0.8772 0.3825
vn -0.2901 -0.8772 0.3825
vn -0.2901 -0.8772 -0.3825
vn -0.2901 -0.8772 -0.3825
vn -0.1050 -0.3689 -0.9235
vn -0.1050 -0.3689 -0.9235
vn 0.1566 0.3501 -0.9235
vn 0.1566 0.3501 -0.9235
vn 0.3417 0.8584 -0.3825
vn 0.3417 0.8584 -0.3825
vn 0.3935 0.8365 0.3813
vn 0.3935 0.8365 0.3813
vn 0.2091 0.3297 0.9206
vn 0.2091 0.3297 0.9206
vn -0.0518 -0.3870 0.9206
vn -0.0518 -0.3870 0.9206
vn -0.2362 -0.8937 0.3813
vn -0.2362 -0.8937 0.3813
vn -0.2362 -0.8937 -0.3813
vn -0.2362 -0.8937 -0.3813
vn -0.0518 -0.3870 -0.9206
vn -0.0518 -0.3870 -0.9206
vn 0.2091 0.3297 -0.9206
vn 0.2091 0.3297 -0.9206
vn 0.3935 0.8365 -0.3813
vn 0.3935 0.8365 -0.3813
vn 0.4495 0.8091 0.3786
vn 0.4495 0.8091 0.3786
vn 0.2663 0.3060 0.9140
vn 0.2663 0.3060 0.9140
vn 0.0074 -0.4056 0.9140
vn 0.0074 -0.4056 0.9140
vn -0.1758 -0.9087 0.3786
vn -0.1758 -0.9087 0.3786
vn -0.1758 -0.9087 -0.3786
vn -0.1758 -0.9087 -0.3786
vn 0.0074 -0.4056 -0.9140
vn 0.0074 -0.4056 -0.9140
vn 0.2663 0.3060 -0.9140
vn 0.2663 0.3060 -0.9140
vn 0.4495 0.8091 -0.3786
vn 0.4495 0.8091 -0.3786
vn 0.5215 0.7676 0.3726
vn 0.5215 0.7676 0.3726
vn 0.3413 0.2723 0.8996
vn 0.3413 0.2723 0.8996
vn 0.0864 -0.4280 0.8996
vn 0.0864 -0.4280 0.8996
vn -0.0939 -0.9232 0.3726
vn -0.0939 -0.9232 0.3726
vn -0.0939 -0.9232 -0.3726
vn -0.0939 -0.9232 -0.3726
vn 0.0864 -0.4280 -0.8996
vn 0.0864 -0.4280 -0.8996
vn 0.3413 0.2723 -0.8996
vn 0.3413 0.2723 -0.8996
vn 0.5215 0.7676 -0.3726
vn 0.5215 0.7676 -0.3726
vn 0.7620 0.5596 0.3258
vn 0.6044 0.1267 0.7865
vn 0.3816 -0.4856 0.7865
vn 0.2240 -0.9185 0.3258
vn 0.2240 -0.9185 -0.3258
vn 0.3816 -0.4856 -0.7865
vn 0.6044 0.1267 -0.7865
vn 0.7620 0.5596 -0.3258
vn 0.2009 0.9629 -0.1803
vn 0.3207 0.8812 -0.3473
vn 0.4650 0.8668 -0.1803
vn 0.4650 0.8668 0.1803
vn 0.3207 0.8812 0.3473
vn 0.2009 0.9629 0.1803
vn -0.5777 0.2103 -0.7887
vn -0.5777 0.2103 -0.7887
vn -0.0000 0.0000 -1.0000
vn 0.0000 0.0000 -1.0000
vn 0.5777 -0.2103 -0.7887
vn 0.5777 -0.2103 -0.7887
vn 0.5777 -0.2103 0.7887
vn 0.5777 -0.2103 0.7887
vn 0.0000 0.0000 1.0000
vn 0.0000 0.0000 1.0000
vn -0.5777 0.2103 0.7887
vn -0.5777 0.2103 0.7887
vn -0.4650 -0.8668 -0.1803
vn -0.3207 -0.8812 -0.3473
vn -0.2009 -0.9629 -0.1803
vn -0.2009 -0.9629 0.1803
vn -0.3207 -0.8812 0.3473
vn -0.4650 -0.8668 0.1803
vn 0.2009 0.9629 -0.1803
vn 0.3207 0.8812 -0.3473
vn 0.4650 0.8668 -0.1803
vn 0.4650 0.8668 0.1803
vn 0.3207 0.8812 0.3473
vn 0.2009 0.9629 0.1803
vn -0.5777 0.2103 -0.7887
vn -0.5777 0.2103 -0.7887
vn -0.0000 0.0000 -1.0000
vn 0.0000 0.0000 -1.0000
vn 0.5777 -0.2103 -0.7887
vn 0.5777 -0.2103 -0.7887
vn 0.5777 -0.2103 0.7887
vn 0.5777 -0.2103 0.7887
vn 0.0000 0.0000 1.0000
vn 0.0000 0.0000 1.0000
vn -0.5777 0.2103 0.7887
vn -0.5777 0.2103 0.7887
vn -0.4650 -0.8668 -0.1803
vn -0.3207 -0.8812 -0.3473
vn -0.2009 -0.9629 -0.1803
vn -0.2009 -0.9629 0.1803
vn -0.3207 -0.8812 0.3473
vn -0.4650 -0.8668 0.1803
vn 0.2009 0.9629 -0.1803
vn 0.3207 0.8812 -0.3473
vn 0.4650 0.8668 -0.1803
vn 0.4650 0.8668 0.1803
vn 0.3207 0.8812 0.3473
vn 0.2009 0.9629 0.1803
vn -0.5777 0.2103 -0.7887
vn -0.5777 0.2103 -0.7887
vn -0.0000 0.0000 -1.0000
vn 0.0000 0.0000 -1.0000
vn 0.5777 -0.2103 -0.7887
vn 0.5777 -0.2103 -0.7887
vn 0.5777 -0.2103 0.7887
vn 0.5777 -0.2103 0.7887
vn 0.0000 0.0000 1.0000
vn 0.0000 0.0000 1.0000
vn -0.5777 0.2103 0.7887
vn -0.5777 0.2103 0.7887
vn -0.4650 -0.8668 -0.1803
vn -0.3207 -0.8812 -0.3473
vn -0.2009 -0.9629 -0.1803
vn -0.2009 -0.9629 0.1803
vn -0.3207 -0.8812 0.3473
vn -0.4650 -0.8668 0.1803
vn 0.2009 0.9629 -0.1803
vn 0.3207 0.8812 -0.3473
vn 0.4650 0.8668 -0.1803
vn 0.4650 0.8668 0.1803
vn 0.3207 0.8812 0.3473
vn 0.2009 0.9629 0.1803
vn -0.5777 0.2103 -0.7887
vn -0.5777 0.2103 -0.7887
vn -0.0000 0.0000 -1.0000
vn 0.0000 0.0000 -1.0000
vn 0.5777 -0.2103 -0.7887
vn 0.5777 -0.2103 -0.7887
vn 0.5777 -0.2103 0.7887
vn 0.5777 -0.2103 0.7887
vn 0.0000 0.0000 1.0000
vn 0.0000 0.0000 1.0000
vn -0.5777 0.2103 0.7887
vn -0.5777 0.2103 0.7887
vn -0.4650 -0.8668 -0.1803
vn -0.3207 -0.8812 -0.3473
vn -0.2009 -0.9629 -0.1803
vn -0.2009 -0.9629 0.1803
vn -0.3207 -0.8812 0.3473
vn -0.4650 -0.8668 0.1803
usemtl c0
f 1//1 10//1 9//1
f 2//2 11//2 10//2
f 3//3 12//3 11//3
f 4//4 13//4 12//4
f 5//5 14//5 13//5
f 6//6 15//6 14//6
f 7//7 16//7 15//7
f 8//8 9//8 16//8
f 9//9 10//9 18//9
f 9//10 18//10 17//10
f 10//11 11//11 19//11
f 10//12 19//12 18//12
f 11//13 12//13 20//13
f 11//14 20//14 19//14
f 12//15 13//15 21//15
f 12//16 21//16 20//16
f 13//17 14//17 22//17
f 13//18 22//18 21//18
f 14//19 15//19 23//19
f 14//20 23//20 22//20
f 15//21 16//21 24//21
f 15//22 24//22 23//22
f 16//23 9//23 17//23
f 16//24 17//24 24//24
f 17//25 18//25 26//25
f 17//26 26//26 25//26
f 18//27 19//27 27//27
f 18//28 27//28 26//28
f 19//29 20//29 28//29
f 19//30 28//30 27//30
f 20//31 21//31 29//31
f 20//32 29//32 28//32
f 21//33 22//33 30//33
f 21//34 30//34 29//34
f 22//35 23//35 31//35
f 22//36 31//36 30//36
f 23//37 24//37 32//37
f 23//38 32//38 31//38
f 24//39 17//39 25//39
f 24//40 25//40 32//40
f 25//41 26//41 34//41
f 25//42 34//42 33//42
f 26//43 27//43 35//43
f 26//44 35//44 34//44
f 27//45 28//45 36//45
f 27//46 36//46 35//46
f 28//47 29//47 37//47
f 28//48 37//48 36//48
f 29//49 30//49 38//49
f 29//50 38//50 37//50
f 30//51 31//51 39//51
f 30//52 39//52 38//52
f 31//53 32//53 40//53
f 31//54 40//54 39//54
f 32//55 25//55 33//55
f 32//56 33//56 40//56
f 33//57 34//57 42//57
f 33//58 42//58 41//58
f 34//59 35//59 43//59
f 34//60 43//60 42//60
f 35//61 36//61 44//61
f 35//62 44//62 43//62
f 36//63 37//63 45//63
f 36//64 45//64 44//64
f 37//65 38//65 46//65
f 37//66 46//66 45//66
f 38//67 39//67 47//67
f 38//68 47//68 46//68
f 39//69 40//69 48//69
f 39//70 48//70 47//70
f 40//71 33//71 41//71
f 40//72 41//72 48//72
f 41//73 42//73 50//73
f 41//74 50//74 49//74
f 42//75 43//75 51//75
f 42//76 51//76 50//76
f 43//77 44//77 52//77
f 43//78 52//78 51//78
f 44//79 45//79 53//79
f 44//80 53//80 52//80
f 45//81 46//81 54//81
f 45//82 54//82 53//82
f 46//83 47//83 55//83
f 46//84 55//84 54//84
f 47//85 48//85 56//85
f 47//86 56//86 55//86
f 48//87 41//87 49//87
f 48//88 49//88 56//88
f 49//89 50//89 58//89
f 49//90 58//90 57//90
f 50//91 51//91 59//91
f 50//92 59//92 58//92
f 51//93 52//93 60//93
f 51//94 60//94 59//94
f 52//95 53//95 61//95
f 52//96 61//96 60//96
f 53//97 54//97 62//97
f 53//98 62//98 61//98
f 54//99 55//99 63//99
f 54//100 63//100 62//100
f 55//101 56//101 64//101
f 55//102 64//102 63//102
f 56//103 49//103 57//103
f 56//104 57//104 64//104
f 57//105 58//105 66//105
f 57//106 66//106 65//106
f 58//107 59//107 67//107
f 58//108 67//108 66//108
f 59//109 60//109 68//109
f 59//110 68//110 67//110
f 60//111 61//111 69//111
f 60//112 69//112 68//112
f 61//113 62//113 70//113
f 61//114 70//114 69//114
f 62//115 63//115 71//115
f 62//116 71//116 70//116
f 63//117 64//117 72//117
f 63//118 72//118 71//118
f 64//119 57//119 65//119
f 64//120 65//120 72//120
f 65//121 66//121 74//121
f 65//122 74//122 73//122
f 66//123 67//123 75//123
f 66//124 75//124 74//124
f 67//125 68//125 76//125
f 67//126 76//126 75//126
f 68//127 69//127 77//127
f 68//128 77//128 76//128
f 69//129 70//129 78//129
f 69//130 78//130 77//130
f 70//131 71//131 79//131
f 70//132 79//132 78//132
f 71//133 72//133 80//133
f 71//134 80//134 79//134
f 72//135 65//135 73//135
f 72//136 73//136 80//136
f 73//137 74//137 82//137
f 74//138 75//138 83//138
f 75//139 76//139 84//139
f 76//140 77//140 85//140
f 77//141 78//141 86//141
f 78//142 79//142 87//142
f 79//143 80//143 88//143
f 80//144 73//144 81//144
usemtl c1
f 89//145 96//145 95//145
f 90//146 97//146 96//146
f 91//147 98//147 97//147
f 92//148 99//148 98//148
f 93//149 100//149 99//149
f 94//150 95//150 100//150
f 95//151 96//151 102//151
f 95//152 102//152 101//152
f 96//153 97//153 103//153
f 96//154 103//154 102//154
f 97//155 98//155 104//155
f 97//156 104//156 103//156
f 98//157 99//157 105//157
f 98//158 105//158 104//158
f 99//159 100//159 106//159
f 99//160 106//160 105//160
f 100//161 95//161 101//161
f 100//162 101//162 106//162
f 101//163 102//163 108//163
f 102//164 103//164 109//164
f 103//165 104//165 110//165
f 104//166 105//166 111//166
f 105//167 106//167 112//167
f 106//168 101//168 107//168
f 113//169 120//169 119//169
f 114//170 121//170 120//170
f 115//171 122//171 121//171
f 116//172 123//172 122//172
f 117//173 124//173 123//173
f 118//174 119//174 124//174
f 119//175 120//175 126//175
f 119//176 126//176 125//176
f 120//177 121//177 127//177
f 120//178 127//178 126//178
f 121//179 122//179 128//179
f 121//180 128//180 127//180
f 122//181 123//181 129//181
f 122//182 129//182 128//182
f 123//183 124//183 130//183
f 123//184 130//184 129//184
f 124//185 119//185 125//185
f 124//186 125//186 130//186
f 125//187 126//187 132//187
f 126//188 127//188 133//188
f 127//189 128//189 134//189
f 128//190 129//190 135//190
f 129//191 130//191 136//191
f 130//192 125//192 131//192
f 137//193 144//193 143//193
f 138//194 145//194 144//194
f 139//195 146//195 145//195
f 140//196 147//196 146//196
f 141//197 148//197 147//197
f 142//198 143//198 148//198
f 143//199 144//199 150//199
f 143//200 150//200 149//200
f 144//201 145//201 151//201
f 144//202 151//202 150//202
f 145//203 146//203 152//203
f 145//204 152//204 151//204
f 146//205 147//205 153//205
f 146//206 153//206 152//206
f 147//207 148//207 154//207
f 147//208 154//208 153//208
f 148//209 143//209 149//209
f 148//210 149//210 154//210
f 149//211 150//211 156//211
f 150//212 151//212 157//212
f 151//213 152//213 158//213
f 152//214 153//214 159//214
f 153//215 154//215 160//215
f 154//216 149//216 155//216
f 161//217 168//217 167//217
f 162//218 169//218 168//218
f 163//219 170//219 169//219
f 164//220 171//220 170//220
f 165//221 172//221 171//221
f 166//222 167//222 172//222
f 167//223 168//223 174//223
f 167//224 174//224 173//224
f 168//225 169//225 175//225
f 168//226 175//226 174//226
f 169//227 170//227 176//227
f 169//228 176//228 175//228
f 170//229 171//229 177//229
f 170//230 177//230 176//230
f 171//231 172//231 178//231
f 171//232 178//232 177//232
f 172//233 167//233 173//233
f 172//234 173//234 178//234
f 173//235 174//235 180//235
f 174//236 175//236 181//236
f 175//237 176//237 182//237
f 176//238 177//238 183//238
f 177//239 178//239 184//239
f 178//240 173//240 179//240
