mtllib Food_Jam.mtl
v 0.0000 0.0000 0.0000
v 0.0000 0.0000 0.0000
v 0.0000 0.0000 0.0000
v 0.0000 0.0000 0.0000
v 0.0000 0.0000 0.0000
v 0.0000 0.0000 0.0000
v 0.0000 0.0000 0.0000
v 0.0000 0.0000 0.0000
v 0.0000 0.0000 0.0000
v 0.0000 0.0000 0.0000
v 0.7200 0.0000 0.0000
v 0.5825 0.0000 0.4232
v 0.2225 0.0000 0.6848
v -0.2225 0.0000 0.6848
v -0.5825 0.0000 0.4232
v -0.7200 0.0000 0.0000
v -0.5825 0.0000 -0.4232
v -0.2225 0.0000 -0.6848
v 0.2225 0.0000 -0.6848
v 0.5825 0.0000 -0.4232
v 0.7800 0.1000 0.0000
v 0.6310 0.1000 0.4585
v 0.2410 0.1000 0.7418
v -0.2410 0.1000 0.7418
v -0.6310 0.1000 0.4585
v -0.7800 0.1000 0.0000
v -0.6310 0.1000 -0.4585
v -0.2410 0.1000 -0.7418
v 0.2410 0.1000 -0.7418
v 0.6310 0.1000 -0.4585
v 0.7800 1.0000 0.0000
v 0.6310 1.0000 0.4585
v 0.2410 1.0000 0.7418
v -0.2410 1.0000 0.7418
v -0.6310 1.0000 0.4585
v -0.7800 1.0000 0.0000
v -0.6310 1.0000 -0.4585
v -0.2410 1.0000 -0.7418
v 0.2410 1.0000 -0.7418
v 0.6310 1.0000 -0.4585
v 0.6200 1.1800 0.0000
v 0.5016 1.1800 0.3644
v 0.1916 1.1800 0.5897
v -0.1916 1.1800 0.5897
v -0.5016 1.1800 0.3644
v -0.6200 1.1800 0.0000
v -0.5016 1.1800 -0.3644
v -0.1916 1.1800 -0.5897
v 0.1916 1.1800 -0.5897
v 0.5016 1.1800 -0.3644
v 0.6200 1.2800 0.0000
v 0.5016 1.2800 0.3644
v 0.1916 1.2800 0.5897
v -0.1916 1.2800 0.5897
v -0.5016 1.2800 0.3644
v -0.6200 1.2800 0.0000
v -0.5016 1.2800 -0.3644
v -0.1916 1.2800 -0.5897
v 0.1916 1.2800 -0.5897
v 0.5016 1.2800 -0.3644
v 0.0000 1.2800 0.0000
v 0.6800 1.2600 0.0000
v 0.5501 1.2600 0.3997
v 0.2101 1.2600 0.6467
v -0.2101 1.2600 0.6467
v -0.5501 1.2600 0.3997
v -0.6800 1.2600 0.0000
v -0.5501 1.2600 -0.3997
v -0.2101 1.2600 -0.6467
v 0.2101 1.2600 -0.6467
v 0.5501 1.2600 -0.3997
v 0.6800 1.4200 0.0000
v 0.5501 1.4200 0.3997
v 0.2101 1.4200 0.6467
v -0.2101 1.4200 0.6467
v -0.5501 1.4200 0.3997
v -0.6800 1.4200 0.0000
v -0.5501 1.4200 -0.3997
v -0.2101 1.4200 -0.6467
v 0.2101 1.4200 -0.6467
v 0.5501 1.4200 -0.3997
v 0.0000 1.2600 0.0000
v 0.0000 1.4200 0.0000
v 0.8000 0.3500 0.0000
v 0.6472 0.3500 0.4702
v 0.2472 0.3500 0.7608
v -0.2472 0.3500 0.7608
v -0.6472 0.3500 0.4702
v -0.8000 0.3500 0.0000
v -0.6472 0.3500 -0.4702
v -0.2472 0.3500 -0.7608
v 0.2472 0.3500 -0.7608
v 0.6472 0.3500 -0.4702
v 0.8000 0.9000 0.0000
v 0.6472 0.9000 0.4702
v 0.2472 0.9000 0.7608
v -0.2472 0.9000 0.7608
v -0.6472 0.9000 0.4702
v -0.8000 0.9000 0.0000
v -0.6472 0.9000 -0.4702
v -0.2472 0.9000 -0.7608
v 0.2472 0.9000 -0.7608
v 0.6472 0.9000 -0.4702
v 0.7300 1.3600 0.0000
v 0.5906 1.3600 0.4291
v 0.2256 1.3600 0.6943
v -0.2256 1.3600 0.6943
v -0.5906 1.3600 0.4291
v -0.7300 1.3600 0.0000
v -0.5906 1.3600 -0.4291
v -0.2256 1.3600 -0.6943
v 0.2256 1.3600 -0.6943
v 0.5906 1.3600 -0.4291
v 0.6800 1.4100 0.0000
v 0.5501 1.4100 0.3997
v 0.2101 1.4100 0.6467
v -0.2101 1.4100 0.6467
v -0.5501 1.4100 0.3997
v -0.6800 1.4100 0.0000
v -0.5501 1.4100 -0.3997
v -0.2101 1.4100 -0.6467
v 0.2101 1.4100 -0.6467
v 0.5501 1.4100 -0.3997
v 0.6300 1.3600 0.0000
v 0.5097 1.3600 0.3703
v 0.1947 1.3600 0.5992
v -0.1947 1.3600 0.5992
v -0.5097 1.3600 0.3703
v -0.6300 1.3600 0.0000
v -0.5097 1.3600 -0.3703
v -0.1947 1.3600 -0.5992
v 0.1947 1.3600 -0.5992
v 0.5097 1.3600 -0.3703
v 0.6800 1.3100 0.0000
v 0.5501 1.3100 0.3997
v 0.2101 1.3100 0.6467
v -0.2101 1.3100 0.6467
v -0.5501 1.3100 0.3997
v -0.6800 1.3100 0.0000
v -0.5501 1.3100 -0.3997
v -0.2101 1.3100 -0.6467
v 0.2101 1.3100 -0.6467
v 0.5501 1.3100 -0.3997
vn 0.0000 1.0000 0.0000
vn 0.0000 1.0000 0.0000
vn 0.0000 1.0000 -0.0000
vn 0.0000 1.0000 0.0000
vn 0.0000 1.0000 0.0000
vn 0.0000 1.0000 0.0000
vn 0.0000 1.0000 0.0000
vn 0.0000 1.0000 0.0000
vn 0.0000 1.0000 0.0000
vn -0.0000 1.0000 0.0000
vn -0.8260 0.4956 -0.2684
vn -0.8260 0.4956 -0.2684
vn -0.5105 0.4956 -0.7027
vn -0.5105 0.4956 -0.7027
vn -0.0000 0.4956 -0.8685
vn 0.0000 0.4956 -0.8685
vn 0.5105 0.4956 -0.7027
vn 0.5105 0.4956 -0.7027
vn 0.8260 0.4956 -0.2684
vn 0.8260 0.4956 -0.2684
vn 0.8260 0.4956 0.2684
vn 0.8260 0.4956 0.2684
vn 0.5105 0.4956 0.7027
vn 0.5105 0.4956 0.7027
vn 0.0000 0.4956 0.8685
vn 0.0000 0.4956 0.8685
vn -0.5105 0.4956 0.7027
vn -0.5105 0.4956 0.7027
vn -0.8260 0.4956 0.2684
vn -0.8260 0.4956 0.2684
vn -0.9511 0.0000 -0.3090
vn -0.9511 0.0000 -0.3090
vn -0.5878 0.0000 -0.8090
vn -0.5878 0.0000 -0.8090
vn 0.0000 0.0000 -1.0000
vn 0.0000 0.0000 -1.0000
vn 0.5878 0.0000 -0.8090
vn 0.5878 0.0000 -0.8090
vn 0.9511 0.0000 -0.3090
vn 0.9511 0.0000 -0.3090
vn 0.9511 0.0000 0.3090
vn 0.9511 -0.0000 0.3090
vn 0.5878 0.0000 0.8090
vn 0.5878 -0.0000 0.8090
vn 0.0000 0.0000 1.0000
vn 0.0000 0.0000 1.0000
vn -0.5878 0.0000 0.8090
vn -0.5878 0.0000 0.8090
vn -0.9511 0.0000 0.3090
vn -0.9511 0.0000 0.3090
vn -0.7263 -0.6456 -0.2360
vn -0.7263 -0.6456 -0.2360
vn -0.4489 -0.6456 -0.6178
vn -0.4489 -0.6456 -0.6178
vn -0.0000 -0.6456 -0.7637
vn -0.0000 -0.6456 -0.7637
vn 0.4489 -0.6456 -0.6178
vn 0.4489 -0.6456 -0.6178
vn 0.7263 -0.6456 -0.2360
vn 0.7263 -0.6456 -0.2360
vn 0.7263 -0.6456 0.2360
vn 0.7263 -0.6456 0.2360
vn 0.4489 -0.6456 0.6178
vn 0.4489 -0.6456 0.6178
vn 0.0000 -0.6456 0.7637
vn 0.0000 -0.6456 0.7637
vn -0.4489 -0.6456 0.6178
vn -0.4489 -0.6456 0.6178
vn -0.7263 -0.6456 0.2360
vn -0.7263 -0.6456 0.2360
vn -0.9511 0.0000 -0.3090
vn -0.9511 0.0000 -0.3090
vn -0.5878 0.0000 -0.8090
vn -0.5878 0.0000 -0.8090
vn -0.0000 0.0000 -1.0000
vn -0.0000 0.0000 -1.0000
vn 0.5878 0.0000 -0.8090
vn 0.5878 0.0000 -0.8090
vn 0.9511 0.0000 -0.3090
vn 0.9511 0.0000 -0.3090
vn 0.9511 0.0000 0.3090
vn 0.9511 -0.0000 0.3090
vn 0.5878 0.0000 0.8090
vn 0.5878 -0.0000 0.8090
vn 0.0000 0.0000 1.0000
vn 0.0000 -0.0000 1.0000
vn -0.5878 0.0000 0.8090
vn -0.5878 0.0000 0.8090
vn -0.9511 0.0000 0.3090
vn -0.9511 0.0000 0.3090
vn 0.0000 -1.0000 0.0000
vn 0.0000 -1.0000 0.0000
vn 0.0000 -1.0000 0.0000
vn 0.0000 -1.0000 0.0000
vn 0.0000 -1.0000 0.0000
vn -0.0000 -1.0000 0.0000
vn 0.0000 -1.0000 0.0000
vn 0.0000 -1.0000 -0.0000
vn 0.0000 -1.0000 0.0000
vn 0.0000 -1.0000 0.0000
vn -0.9511 0.0000 -0.3090
vn -0.9511 0.0000 -0.3090
vn -0.5878 0.0000 -0.8090
vn -0.5878 0.0000 -0.8090
vn 0.0000 0.0000 -1.0000
vn 0.0000 0.0000 -1.0000
vn 0.5878 0.0000 -0.8090
vn 0.5878 0.0000 -0.8090
vn 0.9511 0.0000 -0.3090
vn 0.9511 0.0000 -0.3090
vn 0.9511 0.0000 0.3090
vn 0.9511 -0.0000 0.3090
vn 0.5878 0.0000 0.8090
vn 0.5878 -0.0000 0.8090
vn 0.0000 0.0000 1.0000
vn 0.0000 0.0000 1.0000
vn -0.5878 0.0000 0.8090
vn -0.5878 0.0000 0.8090
vn -0.9511 0.0000 0.3090
vn -0.9511 0.0000 0.3090
vn 0.0000 -1.0000 0.0000
vn 0.0000 -1.0000 0.0000
vn 0.0000 -1.0000 0.0000
vn 0.0000 -1.0000 0.0000
vn 0.0000 -1.0000 0.0000
vn -0.0000 -1.0000 0.0000
vn 0.0000 -1.0000 0.0000
vn 0.0000 -1.0000 -0.0000
vn 0.0000 -1.0000 0.0000
vn 0.0000 -1.0000 0.0000
vn 0.0000 -1.0000 0.0000
vn 0.0000 -1.0000 0.0000
vn 0.0000 -1.0000 0.0000
vn 0.0000 -1.0000 0.0000
vn 0.0000 -1.0000 0.0000
vn -0.0000 -1.0000 0.0000
vn 0.0000 -1.0000 0.0000
vn 0.0000 -1.0000 -0.0000
vn 0.0000 -1.0000 0.0000
vn 0.0000 -1.0000 0.0000
vn -0.9511 0.0000 -0.3090
vn -0.9511 0.0000 -0.3090
vn -0.5878 0.0000 -0.8090
vn -0.5878 0.0000 -0.8090
vn -0.0000 0.0000 -1.0000
vn -0.0000 0.0000 -1.0000
vn 0.5878 0.0000 -0.8090
vn 0.5878 0.0000 -0.8090
vn 0.9511 0.0000 -0.3090
vn 0.9511 0.0000 -0.3090
vn 0.9511 0.0000 0.3090
vn 0.9511 -0.0000 0.3090
vn 0.5878 0.0000 0.8090
vn 0.5878 -0.0000 0.8090
vn 0.0000 0.0000 1.0000
vn 0.0000 -0.0000 1.0000
vn -0.5878 0.0000 0.8090
vn -0.5878 0.0000 0.8090
vn -0.9511 0.0000 0.3090
vn -0.9511 0.0000 0.3090
vn -0.6892 -0.6892 -0.2239
vn -0.6892 -0.6892 -0.2239
vn -0.4259 -0.6892 -0.5862
vn -0.4259 -0.6892 -0.5862
vn -0.0000 -0.6892 -0.7246
vn 0.0000 -0.6892 -0.7246
vn 0.4259 -0.6892 -0.5862
vn 0.4259 -0.6892 -0.5862
vn 0.6892 -0.6892 -0.2239
vn 0.6892 -0.6892 -0.2239
vn 0.6892 -0.6892 0.2239
vn 0.6892 -0.6892 0.2239
vn 0.4259 -0.6892 0.5862
vn 0.4259 -0.6892 0.5862
vn 0.0000 -0.6892 0.7246
vn 0.0000 -0.6892 0.7246
vn -0.4259 -0.6892 0.5862
vn -0.4259 -0.6892 0.5862
vn -0.6892 -0.6892 0.2239
vn -0.6892 -0.6892 0.2239
vn 0.6892 -0.6892 0.2239
vn 0.6892 -0.6892 0.2239
vn 0.4259 -0.6892 0.5862
vn 0.4259 -0.6892 0.5862
vn 0.0000 -0.6892 0.7246
vn 0.0000 -0.6892 0.7246
vn -0.4259 -0.6892 0.5862
vn -0.4259 -0.6892 0.5862
vn -0.6892 -0.6892 0.2239
vn -0.6892 -0.6892 0.2239
vn -0.6892 -0.6892 -0.2239
vn -0.6892 -0.6892 -0.2239
vn -0.4259 -0.6892 -0.5862
vn -0.4259 -0.6892 -0.5862
vn 0.0000 -0.6892 -0.7246
vn 0.0000 -0.6892 -0.7246
vn 0.4259 -0.6892 -0.5862
vn 0.4259 -0.6892 -0.5862
vn 0.6892 -0.6892 -0.2239
vn 0.6892 -0.6892 -0.2239
vn 0.6892 0.6892 0.2239
vn 0.6892 0.6892 0.2239
vn 0.4259 0.6892 0.5862
vn 0.4259 0.6892 0.5862
vn 0.0000 0.6892 0.7246
vn 0.0000 0.6892 0.7246
vn -0.4259 0.6892 0.5862
vn -0.4259 0.6892 0.5862
vn -0.6892 0.6892 0.2239
vn -0.6892 0.6892 0.2239
vn -0.6892 0.6892 -0.2239
vn -0.6892 0.6892 -0.2239
vn -0.4259 0.6892 -0.5862
vn -0.4259 0.6892 -0.5862
vn 0.0000 0.6892 -0.7246
vn 0.0000 0.6892 -0.7246
vn 0.4259 0.6892 -0.5862
vn 0.4259 0.6892 -0.5862
vn 0.6892 0.6892 -0.2239
vn 0.6892 0.6892 -0.2239
vn -0.6892 0.6892 -0.2239
vn -0.6892 0.6892 -0.2239
vn -0.4259 0.6892 -0.5862
vn -0.4259 0.6892 -0.5862
vn 0.0000 0.6892 -0.7246
vn 0.0000 0.6892 -0.7246
vn 0.4259 0.6892 -0.5862
vn 0.4259 0.6892 -0.5862
vn 0.6892 0.6892 -0.2239
vn 0.6892 0.6892 -0.2239
vn 0.6892 0.6892 0.2239
vn 0.6892 0.6892 0.2239
vn 0.4259 0.6892 0.5862
vn 0.4259 0.6892 0.5862
vn -0.0000 0.6892 0.7246
vn 0.0000 0.6892 0.7246
vn -0.4259 0.6892 0.5862
vn -0.4259 0.6892 0.5862
vn -0.6892 0.6892 0.2239
vn -0.6892 0.6892 0.2239
usemtl c0
f 1//1 12//1 11//1
f 2//2 13//2 12//2
f 3//3 14//3 13//3
f 4//4 15//4 14//4
f 5//5 16//5 15//5
f 6//6 17//6 16//6
f 7//7 18//7 17//7
f 8//8 19//8 18//8
f 9//9 20//9 19//9
f 10//10 11//10 20//10
f 11//11 12//11 22//11
f 11//12 22//12 21//12
f 12//13 13//13 23//13
f 12//14 23//14 22//14
f 13//15 14//15 24//15
f 13//16 24//16 23//16
f 14//17 15//17 25//17
f 14//18 25//18 24//18
f 15//19 16//19 26//19
f 15//20 26//20 25//20
f 16//21 17//21 27//21
f 16//22 27//22 26//22
f 17//23 18//23 28//23
f 17//24 28//24 27//24
f 18//25 19//25 29//25
f 18//26 29//26 28//26
f 19//27 20//27 30//27
f 19//28 30//28 29//28
f 20//29 11//29 21//29
f 20//30 21//30 30//30
f 21//31 22//31 32//31
f 21//32 32//32 31//32
f 22//33 23//33 33//33
f 22//34 33//34 32//34
f 23//35 24//35 34//35
f 23//36 34//36 33//36
f 24//37 25//37 35//37
f 24//38 35//38 34//38
f 25//39 26//39 36//39
f 25//40 36//40 35//40
f 26//41 27//41 37//41
f 26//42 37//42 36//42
f 27//43 28//43 38//43
f 27//44 38//44 37//44
f 28//45 29//45 39//45
f 28//46 39//46 38//46
f 29//47 30//47 40//47
f 29//48 40//48 39//48
f 30//49 21//49 31//49
f 30//50 31//50 40//50
f 31//51 32//51 42//51
f 31//52 42//52 41//52
f 32//53 33//53 43//53
f 32//54 43//54 42//54
f 33//55 34//55 44//55
f 33//56 44//56 43//56
f 34//57 35//57 45//57
f 34//58 45//58 44//58
f 35//59 36//59 46//59
f 35//60 46//60 45//60
f 36//61 37//61 47//61
f 36//62 47//62 46//62
f 37//63 38//63 48//63
f 37//64 48//64 47//64
f 38//65 39//65 49//65
f 38//66 49//66 48//66
f 39//67 40//67 50//67
f 39//68 50//68 49//68
f 40//69 31//69 41//69
f 40//70 41//70 50//70
f 41//71 42//71 52//71
f 41//72 52//72 51//72
f 42//73 43//73 53//73
f 42//74 53//74 52//74
f 43//75 44//75 54//75
f 43//76 54//76 53//76
f 44//77 45//77 55//77
f 44//78 55//78 54//78
f 45//79 46//79 56//79
f 45//80 56//80 55//80
f 46//81 47//81 57//81
f 46//82 57//82 56//82
f 47//83 48//83 58//83
f 47//84 58//84 57//84
f 48//85 49//85 59//85
f 48//86 59//86 58//86
f 49//87 50//87 60//87
f 49//88 60//88 59//88
f 50//89 41//89 51//89
f 50//90 51//90 60//90
f 61//91 51//91 52//91
f 61//92 52//92 53//92
f 61//93 53//93 54//93
f 61//94 54//94 55//94
f 61//95 55//95 56//95
f 61//96 56//96 57//96
f 61//97 57//97 58//97
f 61//98 58//98 59//98
f 61//99 59//99 60//99
f 61//100 60//100 51//100
usemtl c1
f 62//101 63//101 73//101
f 62//102 73//102 72//102
f 63//103 64//103 74//103
f 63//104 74//104 73//104
f 64//105 65//105 75//105
f 64//106 75//106 74//106
f 65//107 66//107 76//107
f 65//108 76//108 75//108
f 66//109 67//109 77//109
f 66//110 77//110 76//110
f 67//111 68//111 78//111
f 67//112 78//112 77//112
f 68//113 69//113 79//113
f 68//114 79//114 78//114
f 69//115 70//115 80//115
f 69//116 80//116 79//116
f 70//117 71//117 81//117
f 70//118 81//118 80//118
f 71//119 62//119 72//119
f 71//120 72//120 81//120
f 82//121 62//121 63//121
f 82//122 63//122 64//122
f 82//123 64//123 65//123
f 82//124 65//124 66//124
f 82//125 66//125 67//125
f 82//126 67//126 68//126
f 82//127 68//127 69//127
f 82//128 69//128 70//128
f 82//129 70//129 71//129
f 82//130 71//130 62//130
f 83//131 72//131 73//131
f 83//132 73//132 74//132
f 83//133 74//133 75//133
f 83//134 75//134 76//134
f 83//135 76//135 77//135
f 83//136 77//136 78//136
f 83//137 78//137 79//137
f 83//138 79//138 80//138
f 83//139 80//139 81//139
f 83//140 81//140 72//140
usemtl c2
f 84//141 85//141 95//141
f 84//142 95//142 94//142
f 85//143 86//143 96//143
f 85//144 96//144 95//144
f 86//145 87//145 97//145
f 86//146 97//146 96//146
f 87//147 88//147 98//147
f 87//148 98//148 97//148
f 88//149 89//149 99//149
f 88//150 99//150 98//150
f 89//151 90//151 100//151
f 89//152 100//152 99//152
f 90//153 91//153 101//153
f 90//154 101//154 100//154
f 91//155 92//155 102//155
f 91//156 102//156 101//156
f 92//157 93//157 103//157
f 92//158 103//158 102//158
f 93//159 84//159 94//159
f 93//160 94//160 103//160
usemtl c3
f 104//161 105//161 115//161
f 104//162 115//162 114//162
f 105//163 106//163 116//163
f 105//164 116//164 115//164
f 106//165 107//165 117//165
f 106//166 117//166 116//166
f 107//167 108//167 118//167
f 107//168 118//168 117//168
f 108//169 109//169 119//169
f 108//170 119//170 118//170
f 109//171 110//171 120//171
f 109//172 120//172 119//172
f 110//173 111//173 121//173
f 110//174 121//174 120//174
f 111//175 112//175 122//175
f 111//176 122//176 121//176
f 112//177 113//177 123//177
f 112//178 123//178 122//178
f 113//179 104//179 114//179
f 113//180 114//180 123//180
f 114//181 115//181 125//181
f 114//182 125//182 124//182
f 115//183 116//183 126//183
f 115//184 126//184 125//184
f 116//185 117//185 127//185
f 116//186 127//186 126//186
f 117//187 118//187 128//187
f 117//188 128//188 127//188
f 118//189 119//189 129//189
f 118//190 129//190 128//190
f 119//191 120//191 130//191
f 119//192 130//192 129//192
f 120//193 121//193 131//193
f 120//194 131//194 130//194
f 121//195 122//195 132//195
f 121//196 132//196 131//196
f 122//197 123//197 133//197
f 122//198 133//198 132//198
f 123//199 114//199 124//199
f 123//200 124//200 133//200
f 124//201 125//201 135//201
f 124//202 135//202 134//202
f 125//203 126//203 136//203
f 125//204 136//204 135//204
f 126//205 127//205 137//205
f 126//206 137//206 136//206
f 127//207 128//207 138//207
f 127//208 138//208 137//208
f 128//209 129//209 139//209
f 128//210 139//210 138//210
f 129//211 130//211 140//211
f 129//212 140//212 139//212
f 130//213 131//213 141//213
f 130//214 141//214 140//214
f 131//215 132//215 142//215
f 131//216 142//216 141//216
f 132//217 133//217 143//217
f 132//218 143//218 142//218
f 133//219 124//219 134//219
f 133//220 134//220 143//220
f 134//221 135//221 105//221
f 134//222 105//222 104//222
f 135//223 136//223 106//223
f 135//224 106//224 105//224
f 136//225 137//225 107//225
f 136//226 107//226 106//226
f 137//227 138//227 108//227
f 137//228 108//228 107//228
f 138//229 139//229 109//229
f 138//230 109//230 108//230
f 139//231 140//231 110//231
f 139//232 110//232 109//232
f 140//233 141//233 111//233
f 140//234 111//234 110//234
f 141//235 142//235 112//235
f 141//236 112//236 111//236
f 142//237 143//237 113//237
f 142//238 113//238 112//238
f 143//239 134//239 104//239
f 143//240 104//240 113//240
