mtllib Food_HotDog.mtl
v -1.2500 0.4000 -0.3000
v -1.2500 0.4000 -0.3000
v -1.2500 0.4000 -0.3000
v -1.2500 0.4000 -0.3000
v -1.2500 0.4000 -0.3000
v -1.2500 0.4000 -0.3000
v -1.2500 0.4000 -0.3000
v -1.2500 0.4000 -0.3000
v -0.9375 0.6858 -0.3000
v -0.9375 0.6021 -0.0474
v -0.9375 0.4000 0.0572
v -0.9375 0.1979 -0.0474
v -0.9375 0.1142 -0.3000
v -0.9375 0.1979 -0.5526
v -0.9375 0.4000 -0.6572
v -0.9375 0.6021 -0.5526
v -0.6250 0.7543 -0.3000
v -0.6250 0.6505 0.0132
v -0.6250 0.4000 0.1429
v -0.6250 0.1495 0.0132
v -0.6250 0.0457 -0.3000
v -0.6250 0.1495 -0.6132
v -0.6250 0.4000 -0.7429
v -0.6250 0.6505 -0.6132
v -0.3125 0.7891 -0.3000
v -0.3125 0.6751 0.0439
v -0.3125 0.4000 0.1863
v -0.3125 0.1249 0.0439
v -0.3125 0.0109 -0.3000
v -0.3125 0.1249 -0.6439
v -0.3125 0.4000 -0.7863
v -0.3125 0.6751 -0.6439
v 0.0000 0.8000 -0.3000
v 0.0000 0.6828 0.0536
v 0.0000 0.4000 0.2000
v 0.0000 0.1172 0.0536
v 0.0000 0.0000 -0.3000
v 0.0000 0.1172 -0.6536
v 0.0000 0.4000 -0.8000
v 0.0000 0.6828 -0.6536
v 0.3125 0.7891 -0.3000
v 0.3125 0.6751 0.0439
v 0.3125 0.4000 0.1863
v 0.3125 0.1249 0.0439
v 0.3125 0.0109 -0.3000
v 0.3125 0.1249 -0.6439
v 0.3125 0.4000 -0.7863
v 0.3125 0.6751 -0.6439
v 0.6250 0.7543 -0.3000
v 0.6250 0.6505 0.0132
v 0.6250 0.4000 0.1429
v 0.6250 0.1495 0.0132
v 0.6250 0.0457 -0.3000
v 0.6250 0.1495 -0.6132
v 0.6250 0.4000 -0.7429
v 0.6250 0.6505 -0.6132
v 0.9375 0.6858 -0.3000
v 0.9375 0.6021 -0.0474
v 0.9375 0.4000 0.0572
v 0.9375 0.1979 -0.0474
v 0.9375 0.1142 -0.3000
v 0.9375 0.1979 -0.5526
v 0.9375 0.4000 -0.6572
v 0.9375 0.6021 -0.5526
v 1.2500 0.4000 -0.3000
v 1.2500 0.4000 -0.3000
v 1.2500 0.4000 -0.3000
v 1.2500 0.4000 -0.3000
v 1.2500 0.4000 -0.3000
v 1.2500 0.4000 -0.3000
v 1.2500 0.4000 -0.3000
v 1.2500 0.4000 -0.3000
v -1.2500 0.3200 0.3200
v -1.2500 0.3200 0.3200
v -1.2500 0.3200 0.3200
v -1.2500 0.3200 0.3200
v -1.2500 0.3200 0.3200
v -1.2500 0.3200 0.3200
v -1.2500 0.3200 0.3200
v -1.2500 0.3200 0.3200
v -0.9375 0.5772 0.3200
v -0.9375 0.5019 0.5726
v -0.9375 0.3200 0.6772
v -0.9375 0.1381 0.5726
v -0.9375 0.0628 0.3200
v -0.9375 0.1381 0.0674
v -0.9375 0.3200 -0.0372
v -0.9375 0.5019 0.0674
v -0.6250 0.6389 0.3200
v -0.6250 0.5455 0.6332
v -0.6250 0.3200 0.7629
v -0.6250 0.0945 0.6332
v -0.6250 0.0011 0.3200
v -0.6250 0.0945 0.0068
v -0.6250 0.3200 -0.1229
v -0.6250 0.5455 0.0068
v -0.3125 0.6702 0.3200
v -0.3125 0.5676 0.6639
v -0.3125 0.3200 0.8063
v -0.3125 0.0724 0.6639
v -0.3125 -0.0302 0.3200
v -0.3125 0.0724 -0.0239
v -0.3125 0.3200 -0.1663
v -0.3125 0.5676 -0.0239
v 0.0000 0.6800 0.3200
v 0.0000 0.5746 0.6736
v 0.0000 0.3200 0.8200
v 0.0000 0.0654 0.6736
v 0.0000 -0.0400 0.3200
v 0.0000 0.0654 -0.0336
v 0.0000 0.3200 -0.1800
v 0.0000 0.5746 -0.0336
v 0.3125 0.6702 0.3200
v 0.3125 0.5676 0.6639
v 0.3125 0.3200 0.8063
v 0.3125 0.0724 0.6639
v 0.3125 -0.0302 0.3200
v 0.3125 0.0724 -0.0239
v 0.3125 0.3200 -0.1663
v 0.3125 0.5676 -0.0239
v 0.6250 0.6389 0.3200
v 0.6250 0.5455 0.6332
v 0.6250 0.3200 0.7629
v 0.6250 0.0945 0.6332
v 0.6250 0.0011 0.3200
v 0.6250 0.0945 0.0068
v 0.6250 0.3200 -0.1229
v 0.6250 0.5455 0.0068
v 0.9375 0.5772 0.3200
v 0.9375 0.5019 0.5726
v 0.9375 0.3200 0.6772
v 0.9375 0.1381 0.5726
v 0.9375 0.0628 0.3200
v 0.9375 0.1381 0.0674
v 0.9375 0.3200 -0.0372
v 0.9375 0.5019 0.0674
v 1.2500 0.3200 0.3200
v 1.2500 0.3200 0.3200
v 1.2500 0.3200 0.3200
v 1.2500 0.3200 0.3200
v 1.2500 0.3200 0.3200
v 1.2500 0.3200 0.3200
v 1.2500 0.3200 0.3200
v 1.2500 0.3200 0.3200
v -1.4000 0.6000 0.0000
v -1.4000 0.6000 0.0000
v -1.4000 0.6000 0.0000
v -1.4000 0.6000 0.0000
v -1.4000 0.6000 0.0000
v -1.4000 0.6000 0.0000
v -1.4000 0.6000 0.0000
v -1.4000 0.6000 0.0000
v -1.0500 0.8249 0.0000
v -1.0500 0.7590 0.1590
v -1.0500 0.6000 0.2249
v -1.0500 0.4410 0.1590
v -1.0500 0.3751 0.0000
v -1.0500 0.4410 -0.1590
v -1.0500 0.6000 -0.2249
v -1.0500 0.7590 -0.1590
v -0.7000 0.8704 0.0000
v -0.7000 0.7912 0.1912
v -0.7000 0.6000 0.2704
v -0.7000 0.4088 0.1912
v -0.7000 0.3296 0.0000
v -0.7000 0.4088 -0.1912
v -0.7000 0.6000 -0.2704
v -0.7000 0.7912 -0.1912
v -0.3500 0.8930 0.0000
v -0.3500 0.8072 0.2072
v -0.3500 0.6000 0.2930
v -0.3500 0.3928 0.2072
v -0.3500 0.3070 0.0000
v -0.3500 0.3928 -0.2072
v -0.3500 0.6000 -0.2930
v -0.3500 0.8072 -0.2072
v 0.0000 0.9000 0.0000
v 0.0000 0.8121 0.2121
v 0.0000 0.6000 0.3000
v 0.0000 0.3879 0.2121
v 0.0000 0.3000 0.0000
v 0.0000 0.3879 -0.2121
v 0.0000 0.6000 -0.3000
v 0.0000 0.8121 -0.2121
v 0.3500 0.8930 0.0000
v 0.3500 0.8072 0.2072
v 0.3500 0.6000 0.2930
v 0.3500 0.3928 0.2072
v 0.3500 0.3070 0.0000
v 0.3500 0.3928 -0.2072
v 0.3500 0.6000 -0.2930
v 0.3500 0.8072 -0.2072
v 0.7000 0.8704 0.0000
v 0.7000 0.7912 0.1912
v 0.7000 0.6000 0.2704
v 0.7000 0.4088 0.1912
v 0.7000 0.3296 0.0000
v 0.7000 0.4088 -0.1912
v 0.7000 0.6000 -0.2704
v 0.7000 0.7912 -0.1912
v 1.0500 0.8249 0.0000
v 1.0500 0.7590 0.1590
v 1.0500 0.6000 0.2249
v 1.0500 0.4410 0.1590
v 1.0500 0.3751 0.0000
v 1.0500 0.4410 -0.1590
v 1.0500 0.6000 -0.2249
v 1.0500 0.7590 -0.1590
v 1.4000 0.6000 0.0000
v 1.4000 0.6000 0.0000
v 1.4000 0.6000 0.0000
v 1.4000 0.6000 0.0000
v 1.4000 0.6000 0.0000
v 1.4000 0.6000 -0.0000
v 1.4000 0.6000 -0.0000
v 1.4000 0.6000 -0.0000
v -0.8877 0.8667 -0.1185
v -0.9185 0.8778 -0.0723
v -0.9123 0.9333 -0.0815
v -0.8815 0.9222 -0.1277
v -0.5877 0.8667 0.0815
v -0.6185 0.8778 0.1277
v -0.6123 0.9333 0.1185
v -0.5815 0.9222 0.0723
v -0.9000 0.9000 -0.1000
v -0.6000 0.9000 0.1000
v -0.5877 0.8667 0.1185
v -0.5815 0.9222 0.1277
v -0.6123 0.9333 0.0815
v -0.6185 0.8778 0.0723
v -0.2877 0.8667 -0.0815
v -0.2815 0.9222 -0.0723
v -0.3123 0.9333 -0.1185
v -0.3185 0.8778 -0.1277
v -0.6000 0.9000 0.1000
v -0.3000 0.9000 -0.1000
v -0.2877 0.8667 -0.1185
v -0.3185 0.8778 -0.0723
v -0.3123 0.9333 -0.0815
v -0.2815 0.9222 -0.1277
v 0.0123 0.8667 0.0815
v -0.0185 0.8778 0.1277
v -0.0123 0.9333 0.1185
v 0.0185 0.9222 0.0723
v -0.3000 0.9000 -0.1000
v -0.0000 0.9000 0.1000
v 0.0123 0.8667 0.1185
v 0.0185 0.9222 0.1277
v -0.0123 0.9333 0.0815
v -0.0185 0.8778 0.0723
v 0.3123 0.8667 -0.0815
v 0.3185 0.9222 -0.0723
v 0.2877 0.9333 -0.1185
v 0.2815 0.8778 -0.1277
v -0.0000 0.9000 0.1000
v 0.3000 0.9000 -0.1000
v 0.3123 0.8667 -0.1185
v 0.2815 0.8778 -0.0723
v 0.2877 0.9333 -0.0815
v 0.3185 0.9222 -0.1277
v 0.6123 0.8667 0.0815
v 0.5815 0.8778 0.1277
v 0.5877 0.9333 0.1185
v 0.6185 0.9222 0.0723
v 0.3000 0.9000 -0.1000
v 0.6000 0.9000 0.1000
v 0.6123 0.8667 0.1185
v 0.6185 0.9222 0.1277
v 0.5877 0.9333 0.0815
v 0.5815 0.8778 0.0723
v 0.9123 0.8667 -0.0815
v 0.9185 0.9222 -0.0723
v 0.8877 0.9333 -0.1185
v 0.8815 0.8778 -0.1277
v 0.6000 0.9000 0.1000
v 0.9000 0.9000 -0.1000
vn -0.6556 0.7168 0.2375
vn -0.7124 0.3227 0.6232
vn -0.7124 -0.3227 0.6232
vn -0.6556 -0.7168 0.2375
vn -0.6556 -0.7168 -0.2375
vn -0.7124 -0.3227 -0.6232
vn -0.7124 0.3227 -0.6232
vn -0.6556 0.7168 -0.2375
vn -0.2037 0.9293 0.3080
vn -0.2037 0.9293 0.3080
vn -0.2365 0.4468 0.8628
vn -0.2365 0.4468 0.8628
vn -0.2365 -0.4468 0.8628
vn -0.2365 -0.4468 0.8628
vn -0.2037 -0.9293 0.3080
vn -0.2037 -0.9293 0.3080
vn -0.2037 -0.9293 -0.3080
vn -0.2037 -0.9293 -0.3080
vn -0.2365 -0.4468 -0.8628
vn -0.2365 -0.4468 -0.8628
vn -0.2365 0.4468 -0.8628
vn -0.2365 0.4468 -0.8628
vn -0.2037 0.9293 -0.3080
vn -0.2037 0.9293 -0.3080
vn -0.1050 0.9440 0.3128
vn -0.1050 0.9440 0.3128
vn -0.1225 0.4563 0.8813
vn -0.1225 0.4563 0.8813
vn -0.1225 -0.4563 0.8813
vn -0.1225 -0.4563 0.8813
vn -0.1050 -0.9440 0.3128
vn -0.1050 -0.9440 0.3128
vn -0.1050 -0.9440 -0.3128
vn -0.1050 -0.9440 -0.3128
vn -0.1225 -0.4563 -0.8813
vn -0.1225 -0.4563 -0.8813
vn -0.1225 0.4563 -0.8813
vn -0.1225 0.4563 -0.8813
vn -0.1050 0.9440 -0.3128
vn -0.1050 0.9440 -0.3128
vn -0.0332 0.9487 0.3144
vn -0.0332 0.9487 0.3144
vn -0.0388 0.4594 0.8874
vn -0.0388 0.4594 0.8874
vn -0.0388 -0.4594 0.8874
vn -0.0388 -0.4594 0.8874
vn -0.0332 -0.9487 0.3144
vn -0.0332 -0.9487 0.3144
vn -0.0332 -0.9487 -0.3144
vn -0.0332 -0.9487 -0.3144
vn -0.0388 -0.4594 -0.8874
vn -0.0388 -0.4594 -0.8874
vn -0.0388 0.4594 -0.8874
vn -0.0388 0.4594 -0.8874
vn -0.0332 0.9487 -0.3144
vn -0.0332 0.9487 -0.3144
vn 0.0332 0.9487 0.3144
vn 0.0332 0.9487 0.3144
vn 0.0388 0.4594 0.8874
vn 0.0388 0.4594 0.8874
vn 0.0388 -0.4594 0.8874
vn 0.0388 -0.4594 0.8874
vn 0.0332 -0.9487 0.3144
vn 0.0332 -0.9487 0.3144
vn 0.0332 -0.9487 -0.3144
vn 0.0332 -0.9487 -0.3144
vn 0.0388 -0.4594 -0.8874
vn 0.0388 -0.4594 -0.8874
vn 0.0388 0.4594 -0.8874
vn 0.0388 0.4594 -0.8874
vn 0.0332 0.9487 -0.3144
vn 0.0332 0.9487 -0.3144
vn 0.1050 0.9440 0.3128
vn 0.1050 0.9440 0.3128
vn 0.1225 0.4563 0.8813
vn 0.1225 0.4563 0.8813
vn 0.1225 -0.4563 0.8813
vn 0.1225 -0.4563 0.8813
vn 0.1050 -0.9440 0.3128
vn 0.1050 -0.9440 0.3128
vn 0.1050 -0.9440 -0.3128
vn 0.1050 -0.9440 -0.3128
vn 0.1225 -0.4563 -0.8813
vn 0.1225 -0.4563 -0.8813
vn 0.1225 0.4563 -0.8813
vn 0.1225 0.4563 -0.8813
vn 0.1050 0.9440 -0.3128
vn 0.1050 0.9440 -0.3128
vn 0.2037 0.9293 0.3080
vn 0.2037 0.9293 0.3080
vn 0.2365 0.4468 0.8628
vn 0.2365 0.4468 0.8628
vn 0.2365 -0.4468 0.8628
vn 0.2365 -0.4468 0.8628
vn 0.2037 -0.9293 0.3080
vn 0.2037 -0.9293 0.3080
vn 0.2037 -0.9293 -0.3080
vn 0.2037 -0.9293 -0.3080
vn 0.2365 -0.4468 -0.8628
vn 0.2365 -0.4468 -0.8628
vn 0.2365 0.4468 -0.8628
vn 0.2365 0.4468 -0.8628
vn 0.2037 0.9293 -0.3080
vn 0.2037 0.9293 -0.3080
vn 0.6556 0.7168 0.2375
vn 0.6556 0.7168 0.2375
vn 0.7124 0.3227 0.6232
vn 0.7124 0.3227 0.6232
vn 0.7124 -0.3227 0.6232
vn 0.7124 -0.3227 0.6232
vn 0.6556 -0.7168 0.2375
vn 0.6556 -0.7168 0.2375
vn 0.6556 -0.7168 -0.2375
vn 0.6556 -0.7168 -0.2375
vn 0.7124 -0.3227 -0.6232
vn 0.7124 -0.3227 -0.6232
vn 0.7124 0.3227 -0.6232
vn 0.7124 0.3227 -0.6232
vn 0.6556 0.7168 -0.2375
vn 0.6556 0.7168 -0.2375
vn -0.6193 0.7524 0.2244
vn -0.7039 0.3542 0.6157
vn -0.7039 -0.3542 0.6157
vn -0.6193 -0.7524 0.2244
vn -0.6193 -0.7524 -0.2244
vn -0.7039 -0.3542 -0.6157
vn -0.7039 0.3542 -0.6157
vn -0.6193 0.7524 -0.2244
vn -0.1858 0.9416 0.2808
vn -0.1858 0.9416 0.2808
vn -0.2311 0.4852 0.8433
vn -0.2311 0.4852 0.8433
vn -0.2311 -0.4852 0.8433
vn -0.2311 -0.4852 0.8433
vn -0.1858 -0.9416 0.2808
vn -0.1858 -0.9416 0.2808
vn -0.1858 -0.9416 -0.2808
vn -0.1858 -0.9416 -0.2808
vn -0.2311 -0.4852 -0.8433
vn -0.2311 -0.4852 -0.8433
vn -0.2311 0.4852 -0.8433
vn -0.2311 0.4852 -0.8433
vn -0.1858 0.9416 -0.2808
vn -0.1858 0.9416 -0.2808
vn -0.0955 0.9539 0.2845
vn -0.0955 0.9539 0.2845
vn -0.1197 0.4951 0.8606
vn -0.1197 0.4951 0.8606
vn -0.1197 -0.4951 0.8606
vn -0.1197 -0.4951 0.8606
vn -0.0955 -0.9539 0.2845
vn -0.0955 -0.9539 0.2845
vn -0.0955 -0.9539 -0.2845
vn -0.0955 -0.9539 -0.2845
vn -0.1197 -0.4951 -0.8606
vn -0.1197 -0.4951 -0.8606
vn -0.1197 0.4951 -0.8606
vn -0.1197 0.4951 -0.8606
vn -0.0955 0.9539 -0.2845
vn -0.0955 0.9539 -0.2845
vn -0.0302 0.9579 0.2857
vn -0.0302 0.9579 0.2857
vn -0.0379 0.4983 0.8662
vn -0.0379 0.4983 0.8662
vn -0.0379 -0.4983 0.8662
vn -0.0379 -0.4983 0.8662
vn -0.0302 -0.9579 0.2857
vn -0.0302 -0.9579 0.2857
vn -0.0302 -0.9579 -0.2857
vn -0.0302 -0.9579 -0.2857
vn -0.0379 -0.4983 -0.8662
vn -0.0379 -0.4983 -0.8662
vn -0.0379 0.4983 -0.8662
vn -0.0379 0.4983 -0.8662
vn -0.0302 0.9579 -0.2857
vn -0.0302 0.9579 -0.2857
vn 0.0302 0.9579 0.2857
vn 0.0302 0.9579 0.2857
vn 0.0379 0.4983 0.8662
vn 0.0379 0.4983 0.8662
vn 0.0379 -0.4983 0.8662
vn 0.0379 -0.4983 0.8662
vn 0.0302 -0.9579 0.2857
vn 0.0302 -0.9579 0.2857
vn 0.0302 -0.9579 -0.2857
vn 0.0302 -0.9579 -0.2857
vn 0.0379 -0.4983 -0.8662
vn 0.0379 -0.4983 -0.8662
vn 0.0379 0.4983 -0.8662
vn 0.0379 0.4983 -0.8662
vn 0.0302 0.9579 -0.2857
vn 0.0302 0.9579 -0.2857
vn 0.0955 0.9539 0.2845
vn 0.0955 0.9539 0.2845
vn 0.1197 0.4951 0.8606
vn 0.1197 0.4951 0.8606
vn 0.1197 -0.4951 0.8606
vn 0.1197 -0.4951 0.8606
vn 0.0955 -0.9539 0.2845
vn 0.0955 -0.9539 0.2845
vn 0.0955 -0.9539 -0.2845
vn 0.0955 -0.9539 -0.2845
vn 0.1197 -0.4951 -0.8606
vn 0.1197 -0.4951 -0.8606
vn 0.1197 0.4951 -0.8606
vn 0.1197 0.4951 -0.8606
vn 0.0955 0.9539 -0.2845
vn 0.0955 0.9539 -0.2845
vn 0.1858 0.9416 0.2808
vn 0.1858 0.9416 0.2808
vn 0.2311 0.4852 0.8433
vn 0.2311 0.4852 0.8433
vn 0.2311 -0.4852 0.8433
vn 0.2311 -0.4852 0.8433
vn 0.1858 -0.9416 0.2808
vn 0.1858 -0.9416 0.2808
vn 0.1858 -0.9416 -0.2808
vn 0.1858 -0.9416 -0.2808
vn 0.2311 -0.4852 -0.8433
vn 0.2311 -0.4852 -0.8433
vn 0.2311 0.4852 -0.8433
vn 0.2311 0.4852 -0.8433
vn 0.1858 0.9416 -0.2808
vn 0.1858 0.9416 -0.2808
vn 0.6193 0.7524 0.2244
vn 0.6193 0.7524 0.2244
vn 0.7039 0.3542 0.6157
vn 0.7039 0.3542 0.6157
vn 0.7039 -0.3542 0.6157
vn 0.7039 -0.3542 0.6157
vn 0.6193 -0.7524 0.2244
vn 0.6193 -0.7524 0.2244
vn 0.6193 -0.7524 -0.2244
vn 0.6193 -0.7524 -0.2244
vn 0.7039 -0.3542 -0.6157
vn 0.7039 -0.3542 -0.6157
vn 0.7039 0.3542 -0.6157
vn 0.7039 0.3542 -0.6157
vn 0.6193 0.7524 -0.2244
vn 0.6193 0.7524 -0.2244
vn -0.5105 0.7944 0.3291
vn -0.5105 0.3291 0.7944
vn -0.5105 -0.3291 0.7944
vn -0.5105 -0.7944 0.3291
vn -0.5105 -0.7944 -0.3291
vn -0.5105 -0.3291 -0.7944
vn -0.5105 0.3291 -0.7944
vn -0.5105 0.7944 -0.3291
vn -0.1192 0.9173 0.3800
vn -0.1192 0.9173 0.3800
vn -0.1192 0.3800 0.9173
vn -0.1192 0.3800 0.9173
vn -0.1192 -0.3800 0.9173
vn -0.1192 -0.3800 0.9173
vn -0.1192 -0.9173 0.3800
vn -0.1192 -0.9173 0.3800
vn -0.1192 -0.9173 -0.3800
vn -0.1192 -0.9173 -0.3800
vn -0.1192 -0.3800 -0.9173
vn -0.1192 -0.3800 -0.9173
vn -0.1192 0.3800 -0.9173
vn -0.1192 0.3800 -0.9173
vn -0.1192 0.9173 -0.3800
vn -0.1192 0.9173 -0.3800
vn -0.0595 0.9222 0.3820
vn -0.0595 0.9222 0.3820
vn -0.0595 0.3820 0.9222
vn -0.0595 0.3820 0.9222
vn -0.0595 -0.3820 0.9222
vn -0.0595 -0.3820 0.9222
vn -0.0595 -0.9222 0.3820
vn -0.0595 -0.9222 0.3820
vn -0.0595 -0.9222 -0.3820
vn -0.0595 -0.9222 -0.3820
vn -0.0595 -0.3820 -0.9222
vn -0.0595 -0.3820 -0.9222
vn -0.0595 0.3820 -0.9222
vn -0.0595 0.3820 -0.9222
vn -0.0595 0.9222 -0.3820
vn -0.0595 0.9222 -0.3820
vn -0.0186 0.9237 0.3826
vn -0.0186 0.9237 0.3826
vn -0.0186 0.3826 0.9237
vn -0.0186 0.3826 0.9237
vn -0.0186 -0.3826 0.9237
vn -0.0186 -0.3826 0.9237
vn -0.0186 -0.9237 0.3826
vn -0.0186 -0.9237 0.3826
vn -0.0186 -0.9237 -0.3826
vn -0.0186 -0.9237 -0.3826
vn -0.0186 -0.3826 -0.9237
vn -0.0186 -0.3826 -0.9237
vn -0.0186 0.3826 -0.9237
vn -0.0186 0.3826 -0.9237
vn -0.0186 0.9237 -0.3826
vn -0.0186 0.9237 -0.3826
vn 0.0186 0.9237 0.3826
vn 0.0186 0.9237 0.3826
vn 0.0186 0.3826 0.9237
vn 0.0186 0.3826 0.9237
vn 0.0186 -0.3826 0.9237
vn 0.0186 -0.3826 0.9237
vn 0.0186 -0.9237 0.3826
vn 0.0186 -0.9237 0.3826
vn 0.0186 -0.9237 -0.3826
vn 0.0186 -0.9237 -0.3826
vn 0.0186 -0.3826 -0.9237
vn 0.0186 -0.3826 -0.9237
vn 0.0186 0.3826 -0.9237
vn 0.0186 0.3826 -0.9237
vn 0.0186 0.9237 -0.3826
vn 0.0186 0.9237 -0.3826
vn 0.0595 0.9222 0.3820
vn 0.0595 0.9222 0.3820
vn 0.0595 0.3820 0.9222
vn 0.0595 0.3820 0.9222
vn 0.0595 -0.3820 0.9222
vn 0.0595 -0.3820 0.9222
vn 0.0595 -0.9222 0.3820
vn 0.0595 -0.9222 0.3820
vn 0.0595 -0.9222 -0.3820
vn 0.0595 -0.9222 -0.3820
vn 0.0595 -0.3820 -0.9222
vn 0.0595 -0.3820 -0.9222
vn 0.0595 0.3820 -0.9222
vn 0.0595 0.3820 -0.9222
vn 0.0595 0.9222 -0.3820
vn 0.0595 0.9222 -0.3820
vn 0.1192 0.9173 0.3800
vn 0.1192 0.9173 0.3800
vn 0.1192 0.3800 0.9173
vn 0.1192 0.3800 0.9173
vn 0.1192 -0.3800 0.9173
vn 0.1192 -0.3800 0.9173
vn 0.1192 -0.9173 0.3800
vn 0.1192 -0.9173 0.3800
vn 0.1192 -0.9173 -0.3800
vn 0.1192 -0.9173 -0.3800
vn 0.1192 -0.3800 -0.9173
vn 0.1192 -0.3800 -0.9173
vn 0.1192 0.3800 -0.9173
vn 0.1192 0.3800 -0.9173
vn 0.1192 0.9173 -0.3800
vn 0.1192 0.9173 -0.3800
vn 0.5105 0.7944 0.3291
vn 0.5105 0.7944 0.3291
vn 0.5105 0.3291 0.7944
vn 0.5105 0.3291 0.7944
vn 0.5105 -0.3291 0.7944
vn 0.5105 -0.3291 0.7944
vn 0.5105 -0.7944 0.3291
vn 0.5105 -0.7944 0.3291
vn 0.5105 -0.7944 -0.3291
vn 0.5105 -0.7944 -0.3291
vn 0.5105 -0.3291 -0.7944
vn 0.5105 -0.3291 -0.7944
vn 0.5105 0.3291 -0.7944
vn 0.5105 0.3291 -0.7944
vn 0.5105 0.7944 -0.3291
vn 0.5105 0.7944 -0.3291
vn 0.1088 0.9806 -0.1632
vn 0.1088 0.9806 -0.1632
vn 0.5439 -0.1961 -0.8159
vn 0.5439 -0.1961 -0.8159
vn -0.1088 -0.9806 0.1632
vn -0.1088 -0.9806 0.1632
vn -0.5439 0.1961 0.8159
vn -0.5439 0.1961 0.8159
vn -0.8321 -0.0000 -0.5547
vn -0.8321 -0.0000 -0.5547
vn -0.8321 -0.0000 -0.5547
vn -0.8321 -0.0000 -0.5547
vn -0.8321 0.0000 -0.5547
vn -0.8321 -0.0000 -0.5547
vn -0.8321 -0.0000 -0.5547
vn -0.8321 0.0000 -0.5547
vn -0.5439 0.1961 -0.8159
vn -0.5439 0.1961 -0.8159
vn -0.1088 -0.9806 -0.1632
vn -0.1088 -0.9806 -0.1632
vn 0.5439 -0.1961 0.8159
vn 0.5439 -0.1961 0.8159
vn 0.1088 0.9806 0.1632
vn 0.1088 0.9806 0.1632
vn -0.8321 -0.0000 0.5547
vn -0.8321 -0.0000 0.5547
vn -0.8321 -0.0000 0.5547
vn -0.8321 -0.0000 0.5547
vn -0.8321 0.0000 0.5547
vn -0.8321 0.0000 0.5547
vn -0.8321 0.0000 0.5547
vn -0.8321 0.0000 0.5547
vn 0.1088 0.9806 -0.1632
vn 0.1088 0.9806 -0.1632
vn 0.5439 -0.1961 -0.8159
vn 0.5439 -0.1961 -0.8159
vn -0.1088 -0.9806 0.1632
vn -0.1088 -0.9806 0.1632
vn -0.5439 0.1961 0.8159
vn -0.5439 0.1961 0.8159
vn -0.8321 0.0000 -0.5547
vn -0.8321 0.0000 -0.5547
vn -0.8321 0.0000 -0.5547
vn -0.8321 0.0000 -0.5547
vn -0.8321 0.0000 -0.5547
vn -0.8321 0.0000 -0.5547
vn -0.8321 0.0000 -0.5547
vn -0.8321 0.0000 -0.5547
vn -0.5439 0.1961 -0.8159
vn -0.5439 0.1961 -0.8159
vn -0.1088 -0.9806 -0.1632
vn -0.1088 -0.9806 -0.1632
vn 0.5439 -0.1961 0.8159
vn 0.5439 -0.1961 0.8159
vn 0.1088 0.9806 0.1632
vn 0.1088 0.9806 0.1632
vn -0.8321 0.0000 0.5547
vn -0.8321 0.0000 0.5547
vn -0.8321 0.0000 0.5547
vn -0.8321 0.0000 0.5547
vn -0.8321 0.0000 0.5547
vn -0.8321 0.0000 0.5547
vn -0.8321 0.0000 0.5547
vn -0.8321 0.0000 0.5547
vn 0.1088 0.9806 -0.1632
vn 0.1088 0.9806 -0.1632
vn 0.5439 -0.1961 -0.8159
vn 0.5439 -0.1961 -0.8159
vn -0.1088 -0.9806 0.1632
vn -0.1088 -0.9806 0.1632
vn -0.5439 0.1961 0.8159
vn -0.5439 0.1961 0.8159
vn -0.8321 0.0000 -0.5547
vn -0.8321 0.0000 -0.5547
vn -0.8321 0.0000 -0.5547
vn -0.8321 0.0000 -0.5547
vn -0.8321 0.0000 -0.5547
vn -0.8321 0.0000 -0.5547
vn -0.8321 0.0000 -0.5547
vn -0.8321 0.0000 -0.5547
vn -0.5439 0.1961 -0.8159
vn -0.5439 0.1961 -0.8159
vn -0.1088 -0.9806 -0.1632
vn -0.1088 -0.9806 -0.1632
vn 0.5439 -0.1961 0.8159
vn 0.5439 -0.1961 0.8159
vn 0.1088 0.9806 0.1632
vn 0.1088 0.9806 0.1632
vn -0.8321 -0.0000 0.5547
vn -0.8321 -0.0000 0.5547
vn -0.8321 -0.0000 0.5547
vn -0.8321 -0.0000 0.5547
vn -0.8321 0.0000 0.5547
vn -0.8321 -0.0000 0.5547
vn -0.8321 -0.0000 0.5547
vn -0.8321 0.0000 0.5547
usemtl c0
f 1//1 10//1 9//1
f 2//2 11//2 10//2
f 3//3 12//3 11//3
f 4//4 13//4 12//4
f 5//5 14//5 13//5
f 6//6 15//6 14//6
f 7//7 16//7 15//7
f 8//8 9//8 16//8
f 9//9 10//9 18//9
f 9//10 18//10 17//10
f 10//11 11//11 19//11
f 10//12 19//12 18//12
f 11//13 12//13 20//13
f 11//14 20//14 19//14
f 12//15 13//15 21//15
f 12//16 21//16 20//16
f 13//17 14//17 22//17
f 13//18 22//18 21//18
f 14//19 15//19 23//19
f 14//20 23//20 22//20
f 15//21 16//21 24//21
f 15//22 24//22 23//22
f 16//23 9//23 17//23
f 16//24 17//24 24//24
f 17//25 18//25 26//25
f 17//26 26//26 25//26
f 18//27 19//27 27//27
f 18//28 27//28 26//28
f 19//29 20//29 28//29
f 19//30 28//30 27//30
f 20//31 21//31 29//31
f 20//32 29//32 28//32
f 21//33 22//33 30//33
f 21//34 30//34 29//34
f 22//35 23//35 31//35
f 22//36 31//36 30//36
f 23//37 24//37 32//37
f 23//38 32//38 31//38
f 24//39 17//39 25//39
f 24//40 25//40 32//40
f 25//41 26//41 34//41
f 25//42 34//42 33//42
f 26//43 27//43 35//43
f 26//44 35//44 34//44
f 27//45 28//45 36//45
f 27//46 36//46 35//46
f 28//47 29//47 37//47
f 28//48 37//48 36//48
f 29//49 30//49 38//49
f 29//50 38//50 37//50
f 30//51 31//51 39//51
f 30//52 39//52 38//52
f 31//53 32//53 40//53
f 31//54 40//54 39//54
f 32//55 25//55 33//55
f 32//56 33//56 40//56
f 33//57 34//57 42//57
f 33//58 42//58 41//58
f 34//59 35//59 43//59
f 34//60 43//60 42//60
f 35//61 36//61 44//61
f 35//62 44//62 43//62
f 36//63 37//63 45//63
f 36//64 45//64 44//64
f 37//65 38//65 46//65
f 37//66 46//66 45//66
f 38//67 39//67 47//67
f 38//68 47//68 46//68
f 39//69 40//69 48//69
f 39//70 48//70 47//70
f 40//71 33//71 41//71
f 40//72 41//72 48//72
f 41//73 42//73 50//73
f 41//74 50//74 49//74
f 42//75 43//75 51//75
f 42//76 51//76 50//76
f 43//77 44//77 52//77
f 43//78 52//78 51//78
f 44//79 45//79 53//79
f 44//80 53//80 52//80
f 45//81 46//81 54//81
f 45//82 54//82 53//82
f 46//83 47//83 55//83
f 46//84 55//84 54//84
f 47//85 48//85 56//85
f 47//86 56//86 55//86
f 48//87 41//87 49//87
f 48//88 49//88 56//88
f 49//89 50//89 58//89
f 49//90 58//90 57//90
f 50//91 51//91 59//91
f 50//92 59//92 58//92
f 51//93 52//93 60//93
f 51//94 60//94 59//94
f 52//95 53//95 61//95
f 52//96 61//96 60//96
f 53//97 54//97 62//97
f 53//98 62//98 61//98
f 54//99 55//99 63//99
f 54//100 63//100 62//100
f 55//101 56//101 64//101
f 55//102 64//102 63//102
f 56//103 49//103 57//103
f 56//104 57//104 64//104
f 57//105 58//105 66//105
f 57//106 66//106 65//106
f 58//107 59//107 67//107
f 58//108 67//108 66//108
f 59//109 60//109 68//109
f 59//110 68//110 67//110
f 60//111 61//111 69//111
f 60//112 69//112 68//112
f 61//113 62//113 70//113
f 61//114 70//114 69//114
f 62//115 63//115 71//115
f 62//116 71//116 70//116
f 63//117 64//117 72//117
f 63//118 72//118 71//118
f 64//119 57//119 65//119
f 64//120 65//120 72//120
f 73//121 82//121 81//121
f 74//122 83//122 82//122
f 75//123 84//123 83//123
f 76//124 85//124 84//124
f 77//125 86//125 85//125
f 78//126 87//126 86//126
f 79//127 88//127 87//127
f 80//128 81//128 88//128
f 81//129 82//129 90//129
f 81//130 90//130 89//130
f 82//131 83//131 91//131
f 82//132 91//132 90//132
f 83//133 84//133 92//133
f 83//134 92//134 91//134
f 84//135 85//135 93//135
f 84//136 93//136 92//136
f 85//137 86//137 94//137
f 85//138 94//138 93//138
f 86//139 87//139 95//139
f 86//140 95//140 94//140
f 87//141 88//141 96//141
f 87//142 96//142 95//142
f 88//143 81//143 89//143
f 88//144 89//144 96//144
f 89//145 90//145 98//145
f 89//146 98//146 97//146
f 90//147 91//147 99//147
f 90//148 99//148 98//148
f 91//149 92//149 100//149
f 91//150 100//150 99//150
f 92//151 93//151 101//151
f 92//152 101//152 100//152
f 93//153 94//153 102//153
f 93//154 102//154 101//154
f 94//155 95//155 103//155
f 94//156 103//156 102//156
f 95//157 96//157 104//157
f 95//158 104//158 103//158
f 96//159 89//159 97//159
f 96//160 97//160 104//160
f 97//161 98//161 106//161
f 97//162 106//162 105//162
f 98//163 99//163 107//163
f 98//164 107//164 106//164
f 99//165 100//165 108//165
f 99//166 108//166 107//166
f 100//167 101//167 109//167
f 100//168 109//168 108//168
f 101//169 102//169 110//169
f 101//170 110//170 109//170
f 102//171 103//171 111//171
f 102//172 111//172 110//172
f 103//173 104//173 112//173
f 103//174 112//174 111//174
f 104//175 97//175 105//175
f 104//176 105//176 112//176
f 105//177 106//177 114//177
f 105//178 114//178 113//178
f 106//179 107//179 115//179
f 106//180 115//180 114//180
f 107//181 108//181 116//181
f 107//182 116//182 115//182
f 108//183 109//183 117//183
f 108//184 117//184 116//184
f 109//185 110//185 118//185
f 109//186 118//186 117//186
f 110//187 111//187 119//187
f 110//188 119//188 118//188
f 111//189 112//189 120//189
f 111//190 120//190 119//190
f 112//191 105//191 113//191
f 112//192 113//192 120//192
f 113//193 114//193 122//193
f 113//194 122//194 121//194
f 114//195 115//195 123//195
f 114//196 123//196 122//196
f 115//197 116//197 124//197
f 115//198 124//198 123//198
f 116//199 117//199 125//199
f 116//200 125//200 124//200
f 117//201 118//201 126//201
f 117//202 126//202 125//202
f 118//203 119//203 127//203
f 118//204 127//204 126//204
f 119//205 120//205 128//205
f 119//206 128//206 127//206
f 120//207 113//207 121//207
f 120//208 121//208 128//208
f 121//209 122//209 130//209
f 121//210 130//210 129//210
f 122//211 123//211 131//211
f 122//212 131//212 130//212
f 123//213 124//213 132//213
f 123//214 132//214 131//214
f 124//215 125//215 133//215
f 124//216 133//216 132//216
f 125//217 126//217 134//217
f 125//218 134//218 133//218
f 126//219 127//219 135//219
f 126//220 135//220 134//220
f 127//221 128//221 136//221
f 127//222 136//222 135//222
f 128//223 121//223 129//223
f 128//224 129//224 136//224
f 129//225 130//225 138//225
f 129//226 138//226 137//226
f 130//227 131//227 139//227
f 130//228 139//228 138//228
f 131//229 132//229 140//229
f 131//230 140//230 139//230
f 132//231 133//231 141//231
f 132//232 141//232 140//232
f 133//233 134//233 142//233
f 133//234 142//234 141//234
f 134//235 135//235 143//235
f 134//236 143//236 142//236
f 135//237 136//237 144//237
f 135//238 144//238 143//238
f 136//239 129//239 137//239
f 136//240 137//240 144//240
usemtl c1
f 145//241 154//241 153//241
f 146//242 155//242 154//242
f 147//243 156//243 155//243
f 148//244 157//244 156//244
f 149//245 158//245 157//245
f 150//246 159//246 158//246
f 151//247 160//247 159//247
f 152//248 153//248 160//248
f 153//249 154//249 162//249
f 153//250 162//250 161//250
f 154//251 155//251 163//251
f 154//252 163//252 162//252
f 155//253 156//253 164//253
f 155//254 164//254 163//254
f 156//255 157//255 165//255
f 156//256 165//256 164//256
f 157//257 158//257 166//257
f 157//258 166//258 165//258
f 158//259 159//259 167//259
f 158//260 167//260 166//260
f 159//261 160//261 168//261
f 159//262 168//262 167//262
f 160//263 153//263 161//263
f 160//264 161//264 168//264
f 161//265 162//265 170//265
f 161//266 170//266 169//266
f 162//267 163//267 171//267
f 162//268 171//268 170//268
f 163//269 164//269 172//269
f 163//270 172//270 171//270
f 164//271 165//271 173//271
f 164//272 173//272 172//272
f 165//273 166//273 174//273
f 165//274 174//274 173//274
f 166//275 167//275 175//275
f 166//276 175//276 174//276
f 167//277 168//277 176//277
f 167//278 176//278 175//278
f 168//279 161//279 169//279
f 168//280 169//280 176//280
f 169//281 170//281 178//281
f 169//282 178//282 177//282
f 170//283 171//283 179//283
f 170//284 179//284 178//284
f 171//285 172//285 180//285
f 171//286 180//286 179//286
f 172//287 173//287 181//287
f 172//288 181//288 180//288
f 173//289 174//289 182//289
f 173//290 182//290 181//290
f 174//291 175//291 183//291
f 174//292 183//292 182//292
f 175//293 176//293 184//293
f 175//294 184//294 183//294
f 176//295 169//295 177//295
f 176//296 177//296 184//296
f 177//297 178//297 186//297
f 177//298 186//298 185//298
f 178//299 179//299 187//299
f 178//300 187//300 186//300
f 179//301 180//301 188//301
f 179//302 188//302 187//302
f 180//303 181//303 189//303
f 180//304 189//304 188//304
f 181//305 182//305 190//305
f 181//306 190//306 189//306
f 182//307 183//307 191//307
f 182//308 191//308 190//308
f 183//309 184//309 192//309
f 183//310 192//310 191//310
f 184//311 177//311 185//311
f 184//312 185//312 192//312
f 185//313 186//313 194//313
f 185//314 194//314 193//314
f 186//315 187//315 195//315
f 186//316 195//316 194//316
f 187//317 188//317 196//317
f 187//318 196//318 195//318
f 188//319 189//319 197//319
f 188//320 197//320 196//320
f 189//321 190//321 198//321
f 189//322 198//322 197//322
f 190//323 191//323 199//323
f 190//324 199//324 198//324
f 191//325 192//325 200//325
f 191//326 200//326 199//326
f 192//327 185//327 193//327
f 192//328 193//328 200//328
f 193//329 194//329 202//329
f 193//330 202//330 201//330
f 194//331 195//331 203//331
f 194//332 203//332 202//332
f 195//333 196//333 204//333
f 195//334 204//334 203//334
f 196//335 197//335 205//335
f 196//336 205//336 204//336
f 197//337 198//337 206//337
f 197//338 206//338 205//338
f 198//339 199//339 207//339
f 198//340 207//340 206//340
f 199//341 200//341 208//341
f 199//342 208//342 207//342
f 200//343 193//343 201//343
f 200//344 201//344 208//344
f 201//345 202//345 210//345
f 201//346 210//346 209//346
f 202//347 203//347 211//347
f 202//348 211//348 210//348
f 203//349 204//349 212//349
f 203//350 212//350 211//350
f 204//351 205//351 213//351
f 204//352 213//352 212//352
f 205//353 206//353 214//353
f 205//354 214//354 213//354
f 206//355 207//355 215//355
f 206//356 215//356 214//356
f 207//357 208//357 216//357
f 207//358 216//358 215//358
f 208//359 201//359 209//359
f 208//360 209//360 216//360
usemtl c2
f 217//361 218//361 222//361
f 217//362 222//362 221//362
f 218//363 219//363 223//363
f 218//364 223//364 222//364
f 219//365 220//365 224//365
f 219//366 224//366 223//366
f 220//367 217//367 221//367
f 220//368 221//368 224//368
f 225//369 217//369 218//369
f 225//370 218//370 219//370
f 225//371 219//371 220//371
f 225//372 220//372 217//372
f 226//373 221//373 222//373
f 226//374 222//374 223//374
f 226//375 223//375 224//375
f 226//376 224//376 221//376
f 227//377 228//377 232//377
f 227//378 232//378 231//378
f 228//379 229//379 233//379
f 228//380 233//380 232//380
f 229//381 230//381 234//381
f 229//382 234//382 233//382
f 230//383 227//383 231//383
f 230//384 231//384 234//384
f 235//385 227//385 228//385
f 235//386 228//386 229//386
f 235//387 229//387 230//387
f 235//388 230//388 227//388
f 236//389 231//389 232//389
f 236//390 232//390 233//390
f 236//391 233//391 234//391
f 236//392 234//392 231//392
f 237//393 238//393 242//393
f 237//394 242//394 241//394
f 238//395 239//395 243//395
f 238//396 243//396 242//396
f 239//397 240//397 244//397
f 239//398 244//398 243//398
f 240//399 237//399 241//399
f 240//400 241//400 244//400
f 245//401 237//401 238//401
f 245//402 238//402 239//402
f 245//403 239//403 240//403
f 245//404 240//404 237//404
f 246//405 241//405 242//405
f 246//406 242//406 243//406
f 246//407 243//407 244//407
f 246//408 244//408 241//408
f 247//409 248//409 252//409
f 247//410 252//410 251//410
f 248//411 249//411 253//411
f 248//412 253//412 252//412
f 249//413 250//413 254//413
f 249//414 254//414 253//414
f 250//415 247//415 251//415
f 250//416 251//416 254//416
f 255//417 247//417 248//417
f 255//418 248//418 249//418
f 255//419 249//419 250//419
f 255//420 250//420 247//420
f 256//421 251//421 252//421
f 256//422 252//422 253//422
f 256//423 253//423 254//423
f 256//424 254//424 251//424
f 257//425 258//425 262//425
f 257//426 262//426 261//426
f 258//427 259//427 263//427
f 258//428 263//428 262//428
f 259//429 260//429 264//429
f 259//430 264//430 263//430
f 260//431 257//431 261//431
f 260//432 261//432 264//432
f 265//433 257//433 258//433
f 265//434 258//434 259//434
f 265//435 259//435 260//435
f 265//436 260//436 257//436
f 266//437 261//437 262//437
f 266//438 262//438 263//438
f 266//439 263//439 264//439
f 266//440 264//440 261//440
f 267//441 268//441 272//441
f 267//442 272//442 271//442
f 268//443 269//443 273//443
f 268//444 273//444 272//444
f 269//445 270//445 274//445
f 269//446 274//446 273//446
f 270//447 267//447 271//447
f 270//448 271//448 274//448
f 275//449 267//449 268//449
f 275//450 268//450 269//450
f 275//451 269//451 270//451
f 275//452 270//452 267//452
f 276//453 271//453 272//453
f 276//454 272//454 273//454
f 276//455 273//455 274//455
f 276//456 274//456 271//456
