mtllib Food_Chocolate.mtl
v -0.4405 0.0000 -1.1287
v 0.0293 0.0000 -0.9577
v -0.1143 0.0000 -0.5631
v -0.5842 0.0000 -0.7341
v -0.4405 0.2000 -1.1287
v 0.0293 0.2000 -0.9577
v -0.1143 0.2000 -0.5631
v -0.5842 0.2000 -0.7341
v -0.2774 0.0000 -0.8459
v -0.2774 0.2000 -0.8459
v -0.4106 0.1850 -1.0647
v -0.0348 0.1850 -0.9278
v -0.1442 0.1850 -0.6271
v -0.5201 0.1850 -0.7639
v -0.4106 0.2350 -1.0647
v -0.0348 0.2350 -0.9278
v -0.1442 0.2350 -0.6271
v -0.5201 0.2350 -0.7639
v -0.2774 0.1850 -0.8459
v -0.2774 0.2350 -0.8459
v -0.6013 0.0000 -0.6871
v -0.1314 0.0000 -0.5161
v -0.2751 0.0000 -0.1214
v -0.7449 0.0000 -0.2924
v -0.6013 0.2000 -0.6871
v -0.1314 0.2000 -0.5161
v -0.2751 0.2000 -0.1214
v -0.7449 0.2000 -0.2924
v -0.4382 0.0000 -0.4042
v -0.4382 0.2000 -0.4042
v -0.5714 0.1850 -0.6230
v -0.1955 0.1850 -0.4862
v -0.3050 0.1850 -0.1855
v -0.6808 0.1850 -0.3223
v -0.5714 0.2350 -0.6230
v -0.1955 0.2350 -0.4862
v -0.3050 0.2350 -0.1855
v -0.6808 0.2350 -0.3223
v -0.4382 0.1850 -0.4042
v -0.4382 0.2350 -0.4042
v -0.7620 0.0000 -0.2454
v -0.2922 0.0000 -0.0744
v -0.4358 0.0000 0.3203
v -0.9057 0.0000 0.1492
v -0.7620 0.2000 -0.2454
v -0.2922 0.2000 -0.0744
v -0.4358 0.2000 0.3203
v -0.9057 0.2000 0.1492
v -0.5989 0.0000 0.0374
v -0.5989 0.2000 0.0374
v -0.7321 0.1850 -0.1813
v -0.3563 0.1850 -0.0445
v -0.4657 0.1850 0.2562
v -0.8416 0.1850 0.1194
v -0.7321 0.2350 -0.1813
v -0.3563 0.2350 -0.0445
v -0.4657 0.2350 0.2562
v -0.8416 0.2350 0.1194
v -0.5989 0.1850 0.0374
v -0.5989 0.2350 0.0374
v -0.9228 0.0000 0.1962
v -0.4529 0.0000 0.3672
v -0.5966 0.0000 0.7619
v -1.0664 0.0000 0.5909
v -0.9228 0.2000 0.1962
v -0.4529 0.2000 0.3672
v -0.5966 0.2000 0.7619
v -1.0664 0.2000 0.5909
v -0.7597 0.0000 0.4791
v -0.7597 0.2000 0.4791
v -0.8929 0.1850 0.2603
v -0.5170 0.1850 0.3971
v -0.6264 0.1850 0.6978
v -1.0023 0.1850 0.5610
v -0.8929 0.2350 0.2603
v -0.5170 0.2350 0.3971
v -0.6264 0.2350 0.6978
v -1.0023 0.2350 0.5610
v -0.7597 0.1850 0.4791
v -0.7597 0.2350 0.4791
v 0.0763 0.0000 -0.9406
v 0.5462 0.0000 -0.7696
v 0.4025 0.0000 -0.3749
v -0.0673 0.0000 -0.5460
v 0.0763 0.2000 -0.9406
v 0.5462 0.2000 -0.7696
v 0.4025 0.2000 -0.3749
v -0.0673 0.2000 -0.5460
v 0.2394 0.0000 -0.6578
v 0.2394 0.2000 -0.6578
v 0.1062 0.1850 -0.8765
v 0.4821 0.1850 -0.7397
v 0.3726 0.1850 -0.4390
v -0.0032 0.1850 -0.5758
v 0.1062 0.2350 -0.8765
v 0.4821 0.2350 -0.7397
v 0.3726 0.2350 -0.4390
v -0.0032 0.2350 -0.5758
v 0.2394 0.1850 -0.6578
v 0.2394 0.2350 -0.6578
v -0.0844 0.0000 -0.4990
v 0.3854 0.0000 -0.3280
v 0.2418 0.0000 0.0667
v -0.2281 0.0000 -0.1043
v -0.0844 0.2000 -0.4990
v 0.3854 0.2000 -0.3280
v 0.2418 0.2000 0.0667
v -0.2281 0.2000 -0.1043
v 0.0787 0.0000 -0.2161
v 0.0787 0.2000 -0.2161
v -0.0546 0.1850 -0.4349
v 0.3213 0.1850 -0.2981
v 0.2119 0.1850 0.0026
v -0.1640 0.1850 -0.1342
v -0.0546 0.2350 -0.4349
v 0.3213 0.2350 -0.2981
v 0.2119 0.2350 0.0026
v -0.1640 0.2350 -0.1342
v 0.0787 0.1850 -0.2161
v 0.0787 0.2350 -0.2161
v -0.2452 0.0000 -0.0573
v 0.2247 0.0000 0.1137
v 0.0810 0.0000 0.5084
v -0.3888 0.0000 0.3374
v -0.2452 0.2000 -0.0573
v 0.2247 0.2000 0.1137
v 0.0810 0.2000 0.5084
v -0.3888 0.2000 0.3374
v -0.0821 0.0000 0.2255
v -0.0821 0.2000 0.2255
v -0.2153 0.1850 0.0068
v 0.1606 0.1850 0.1436
v 0.0511 0.1850 0.4443
v -0.3247 0.1850 0.3075
v -0.2153 0.2350 0.0068
v 0.1606 0.2350 0.1436
v 0.0511 0.2350 0.4443
v -0.3247 0.2350 0.3075
v -0.0821 0.1850 0.2255
v -0.0821 0.2350 0.2255
v -0.4059 0.0000 0.3843
v 0.0639 0.0000 0.5554
v -0.0797 0.0000 0.9500
v -0.5496 0.0000 0.7790
v -0.4059 0.2000 0.3843
v 0.0639 0.2000 0.5554
v -0.0797 0.2000 0.9500
v -0.5496 0.2000 0.7790
v -0.2428 0.0000 0.6672
v -0.2428 0.2000 0.6672
v -0.3760 0.1850 0.4484
v -0.0002 0.1850 0.5852
v -0.1096 0.1850 0.8859
v -0.4855 0.1850 0.7491
v -0.3760 0.2350 0.4484
v -0.0002 0.2350 0.5852
v -0.1096 0.2350 0.8859
v -0.4855 0.2350 0.7491
v -0.2428 0.1850 0.6672
v -0.2428 0.2350 0.6672
v 0.5931 0.0000 -0.7525
v 1.0630 0.0000 -0.5815
v 0.9193 0.0000 -0.1868
v 0.4495 0.0000 -0.3578
v 0.5931 0.2000 -0.7525
v 1.0630 0.2000 -0.5815
v 0.9193 0.2000 -0.1868
v 0.4495 0.2000 -0.3578
v 0.7562 0.0000 -0.4697
v 0.7562 0.2000 -0.4697
v 0.6230 0.1850 -0.6884
v 0.9989 0.1850 -0.5516
v 0.8895 0.1850 -0.2509
v 0.5136 0.1850 -0.3877
v 0.6230 0.2350 -0.6884
v 0.9989 0.2350 -0.5516
v 0.8895 0.2350 -0.2509
v 0.5136 0.2350 -0.3877
v 0.7562 0.1850 -0.4697
v 0.7562 0.2350 -0.4697
v 0.4324 0.0000 -0.3109
v 0.9022 0.0000 -0.1398
v 0.7586 0.0000 0.2548
v 0.2887 0.0000 0.0838
v 0.4324 0.2000 -0.3109
v 0.9022 0.2000 -0.1398
v 0.7586 0.2000 0.2548
v 0.2887 0.2000 0.0838
v 0.5955 0.0000 -0.0280
v 0.5955 0.2000 -0.0280
v 0.4623 0.1850 -0.2468
v 0.8382 0.1850 -0.1100
v 0.7287 0.1850 0.1907
v 0.3528 0.1850 0.0539
v 0.4623 0.2350 -0.2468
v 0.8382 0.2350 -0.1100
v 0.7287 0.2350 0.1907
v 0.3528 0.2350 0.0539
v 0.5955 0.1850 -0.0280
v 0.5955 0.2350 -0.0280
v 0.2716 0.0000 0.1308
v 0.7415 0.0000 0.3018
v 0.5978 0.0000 0.6965
v 0.1280 0.0000 0.5255
v 0.2716 0.2000 0.1308
v 0.7415 0.2000 0.3018
v 0.5978 0.2000 0.6965
v 0.1280 0.2000 0.5255
v 0.4347 0.0000 0.4136
v 0.4347 0.2000 0.4136
v 0.3015 0.1850 0.1949
v 0.6774 0.1850 0.3317
v 0.5680 0.1850 0.6324
v 0.1921 0.1850 0.4956
v 0.3015 0.2350 0.1949
v 0.6774 0.2350 0.3317
v 0.5680 0.2350 0.6324
v 0.1921 0.2350 0.4956
v 0.4347 0.1850 0.4136
v 0.4347 0.2350 0.4136
v 0.1109 0.0000 0.5725
v 0.5807 0.0000 0.7435
v 0.4371 0.0000 1.1381
v -0.0328 0.0000 0.9671
v 0.1109 0.2000 0.5725
v 0.5807 0.2000 0.7435
v 0.4371 0.2000 1.1381
v -0.0328 0.2000 0.9671
v 0.2740 0.0000 0.8553
v 0.2740 0.2000 0.8553
v 0.1408 0.1850 0.6365
v 0.5167 0.1850 0.7733
v 0.4072 0.1850 1.0740
v 0.0313 0.1850 0.9372
v 0.1408 0.2350 0.6365
v 0.5167 0.2350 0.7733
v 0.4072 0.2350 1.0740
v 0.0313 0.2350 0.9372
v 0.2740 0.1850 0.8553
v 0.2740 0.2350 0.8553
v -0.9612 0.0000 0.1556
v 0.6363 0.0000 0.7371
v 0.3114 0.0000 1.6298
v -1.2861 0.0000 1.0483
v -0.9612 0.2400 0.1556
v 0.6363 0.2400 0.7371
v 0.3114 0.2400 1.6298
v -1.2861 0.2400 1.0483
v -0.3249 0.0000 0.8927
v -0.3249 0.2400 0.8927
v -0.9184 0.0000 0.0382
v 0.6790 0.0000 0.6196
v 0.5764 0.0000 0.9015
v -1.0211 0.0000 0.3201
v -0.9184 0.2600 0.0382
v 0.6790 0.2600 0.6196
v 0.5764 0.2600 0.9015
v -1.0211 0.2600 0.3201
v -0.1710 0.0000 0.4698
v -0.1710 0.2600 0.4698
vn -0.3420 0.0000 0.9397
vn -0.3420 0.0000 0.9397
vn 0.0000 1.0000 0.0000
vn 0.0000 -1.0000 -0.0000
vn -0.9397 0.0000 -0.3420
vn -0.9397 0.0000 -0.3420
vn -0.0000 1.0000 0.0000
vn 0.0000 -1.0000 0.0000
vn 0.3420 0.0000 -0.9397
vn 0.3420 0.0000 -0.9397
vn 0.0000 1.0000 -0.0000
vn 0.0000 -1.0000 0.0000
vn 0.9397 0.0000 0.3420
vn 0.9397 -0.0000 0.3420
vn 0.0000 1.0000 0.0000
vn -0.0000 -1.0000 0.0000
vn -0.3420 0.0000 0.9397
vn -0.3420 0.0000 0.9397
vn 0.0000 1.0000 0.0000
vn 0.0000 -1.0000 -0.0000
vn -0.9397 0.0000 -0.3420
vn -0.9397 0.0000 -0.3420
vn -0.0000 1.0000 0.0000
vn 0.0000 -1.0000 0.0000
vn 0.3420 0.0000 -0.9397
vn 0.3420 0.0000 -0.9397
vn 0.0000 1.0000 -0.0000
vn 0.0000 -1.0000 0.0000
vn 0.9397 0.0000 0.3420
vn 0.9397 -0.0000 0.3420
vn 0.0000 1.0000 0.0000
vn -0.0000 -1.0000 0.0000
vn -0.3420 0.0000 0.9397
vn -0.3420 0.0000 0.9397
vn 0.0000 1.0000 0.0000
vn 0.0000 -1.0000 -0.0000
vn -0.9397 0.0000 -0.3420
vn -0.9397 0.0000 -0.3420
vn -0.0000 1.0000 0.0000
vn 0.0000 -1.0000 0.0000
vn 0.3420 0.0000 -0.9397
vn 0.3420 0.0000 -0.9397
vn 0.0000 1.0000 -0.0000
vn 0.0000 -1.0000 0.0000
vn 0.9397 0.0000 0.3420
vn 0.9397 -0.0000 0.3420
vn 0.0000 1.0000 0.0000
vn -0.0000 -1.0000 0.0000
vn -0.3420 0.0000 0.9397
vn -0.3420 0.0000 0.9397
vn 0.0000 1.0000 0.0000
vn 0.0000 -1.0000 -0.0000
vn -0.9397 0.0000 -0.3420
vn -0.9397 0.0000 -0.3420
vn -0.0000 1.0000 0.0000
vn 0.0000 -1.0000 0.0000
vn 0.3420 0.0000 -0.9397
vn 0.3420 0.0000 -0.9397
vn 0.0000 1.0000 -0.0000
vn 0.0000 -1.0000 0.0000
vn 0.9397 0.0000 0.3420
vn 0.9397 -0.0000 0.3420
vn 0.0000 1.0000 0.0000
vn -0.0000 -1.0000 0.0000
vn -0.3420 0.0000 0.9397
vn -0.3420 0.0000 0.9397
vn 0.0000 1.0000 0.0000
vn 0.0000 -1.0000 -0.0000
vn -0.9397 0.0000 -0.3420
vn -0.9397 0.0000 -0.3420
vn -0.0000 1.0000 0.0000
vn 0.0000 -1.0000 0.0000
vn 0.3420 0.0000 -0.9397
vn 0.3420 0.0000 -0.9397
vn 0.0000 1.0000 -0.0000
vn 0.0000 -1.0000 0.0000
vn 0.9397 0.0000 0.3420
vn 0.9397 -0.0000 0.3420
vn 0.0000 1.0000 0.0000
vn -0.0000 -1.0000 0.0000
vn -0.3420 0.0000 0.9397
vn -0.3420 0.0000 0.9397
vn 0.0000 1.0000 0.0000
vn 0.0000 -1.0000 -0.0000
vn -0.9397 0.0000 -0.3420
vn -0.9397 0.0000 -0.3420
vn -0.0000 1.0000 0.0000
vn 0.0000 -1.0000 0.0000
vn 0.3420 0.0000 -0.9397
vn 0.3420 0.0000 -0.9397
vn 0.0000 1.0000 -0.0000
vn 0.0000 -1.0000 0.0000
vn 0.9397 0.0000 0.3420
vn 0.9397 -0.0000 0.3420
vn 0.0000 1.0000 0.0000
vn -0.0000 -1.0000 0.0000
vn -0.3420 0.0000 0.9397
vn -0.3420 0.0000 0.9397
vn 0.0000 1.0000 0.0000
vn 0.0000 -1.0000 -0.0000
vn -0.9397 0.0000 -0.3420
vn -0.9397 0.0000 -0.3420
vn -0.0000 1.0000 0.0000
vn 0.0000 -1.0000 0.0000
vn 0.3420 0.0000 -0.9397
vn 0.3420 0.0000 -0.9397
vn 0.0000 1.0000 -0.0000
vn 0.0000 -1.0000 0.0000
vn 0.9397 0.0000 0.3420
vn 0.9397 -0.0000 0.3420
vn 0.0000 1.0000 0.0000
vn -0.0000 -1.0000 0.0000
vn -0.3420 0.0000 0.9397
vn -0.3420 0.0000 0.9397
vn 0.0000 1.0000 0.0000
vn 0.0000 -1.0000 -0.0000
vn -0.9397 0.0000 -0.3420
vn -0.9397 0.0000 -0.3420
vn -0.0000 1.0000 0.0000
vn 0.0000 -1.0000 0.0000
vn 0.3420 0.0000 -0.9397
vn 0.3420 0.0000 -0.9397
vn 0.0000 1.0000 -0.0000
vn 0.0000 -1.0000 0.0000
vn 0.9397 0.0000 0.3420
vn 0.9397 -0.0000 0.3420
vn 0.0000 1.0000 0.0000
vn -0.0000 -1.0000 0.0000
vn -0.3420 0.0000 0.9397
vn -0.3420 0.0000 0.9397
vn 0.0000 1.0000 0.0000
vn 0.0000 -1.0000 -0.0000
vn -0.9397 0.0000 -0.3420
vn -0.9397 0.0000 -0.3420
vn -0.0000 1.0000 0.0000
vn 0.0000 -1.0000 0.0000
vn 0.3420 0.0000 -0.9397
vn 0.3420 0.0000 -0.9397
vn 0.0000 1.0000 -0.0000
vn 0.0000 -1.0000 0.0000
vn 0.9397 0.0000 0.3420
vn 0.9397 -0.0000 0.3420
vn 0.0000 1.0000 0.0000
vn -0.0000 -1.0000 0.0000
vn -0.3420 0.0000 0.9397
vn -0.3420 0.0000 0.9397
vn 0.0000 1.0000 0.0000
vn 0.0000 -1.0000 -0.0000
vn -0.9397 0.0000 -0.3420
vn -0.9397 0.0000 -0.3420
vn -0.0000 1.0000 0.0000
vn 0.0000 -1.0000 0.0000
vn 0.3420 0.0000 -0.9397
vn 0.3420 0.0000 -0.9397
vn 0.0000 1.0000 -0.0000
vn 0.0000 -1.0000 0.0000
vn 0.9397 0.0000 0.3420
vn 0.9397 -0.0000 0.3420
vn 0.0000 1.0000 0.0000
vn -0.0000 -1.0000 0.0000
vn -0.3420 0.0000 0.9397
vn -0.3420 0.0000 0.9397
vn 0.0000 1.0000 0.0000
vn 0.0000 -1.0000 -0.0000
vn -0.9397 0.0000 -0.3420
vn -0.9397 0.0000 -0.3420
vn -0.0000 1.0000 0.0000
vn 0.0000 -1.0000 0.0000
vn 0.3420 0.0000 -0.9397
vn 0.3420 0.0000 -0.9397
vn 0.0000 1.0000 -0.0000
vn 0.0000 -1.0000 0.0000
vn 0.9397 0.0000 0.3420
vn 0.9397 -0.0000 0.3420
vn 0.0000 1.0000 0.0000
vn -0.0000 -1.0000 0.0000
vn -0.3420 0.0000 0.9397
vn -0.3420 0.0000 0.9397
vn 0.0000 1.0000 0.0000
vn 0.0000 -1.0000 -0.0000
vn -0.9397 0.0000 -0.3420
vn -0.9397 0.0000 -0.3420
vn -0.0000 1.0000 0.0000
vn 0.0000 -1.0000 0.0000
vn 0.3420 0.0000 -0.9397
vn 0.3420 0.0000 -0.9397
vn 0.0000 1.0000 -0.0000
vn 0.0000 -1.0000 0.0000
vn 0.9397 0.0000 0.3420
vn 0.9397 -0.0000 0.3420
vn 0.0000 1.0000 0.0000
vn -0.0000 -1.0000 0.0000
vn -0.3420 0.0000 0.9397
vn -0.3420 0.0000 0.9397
vn 0.0000 1.0000 0.0000
vn 0.0000 -1.0000 -0.0000
vn -0.9397 0.0000 -0.3420
vn -0.9397 0.0000 -0.3420
vn -0.0000 1.0000 0.0000
vn 0.0000 -1.0000 0.0000
vn 0.3420 0.0000 -0.9397
vn 0.3420 0.0000 -0.9397
vn 0.0000 1.0000 -0.0000
vn 0.0000 -1.0000 0.0000
vn 0.9397 0.0000 0.3420
vn 0.9397 -0.0000 0.3420
vn 0.0000 1.0000 0.0000
vn -0.0000 -1.0000 0.0000
vn -0.3420 0.0000 0.9397
vn -0.3420 0.0000 0.9397
vn 0.0000 1.0000 0.0000
vn 0.0000 -1.0000 -0.0000
vn -0.9397 0.0000 -0.3420
vn -0.9397 0.0000 -0.3420
vn -0.0000 1.0000 0.0000
vn 0.0000 -1.0000 0.0000
vn 0.3420 0.0000 -0.9397
vn 0.3420 0.0000 -0.9397
vn 0.0000 1.0000 -0.0000
vn 0.0000 -1.0000 0.0000
vn 0.9397 0.0000 0.3420
vn 0.9397 -0.0000 0.3420
vn 0.0000 1.0000 0.0000
vn -0.0000 -1.0000 0.0000
vn -0.3420 0.0000 0.9397
vn -0.3420 0.0000 0.9397
vn 0.0000 1.0000 0.0000
vn 0.0000 -1.0000 -0.0000
vn -0.9397 0.0000 -0.3420
vn -0.9397 0.0000 -0.3420
vn -0.0000 1.0000 0.0000
vn 0.0000 -1.0000 0.0000
vn 0.3420 0.0000 -0.9397
vn 0.3420 0.0000 -0.9397
vn 0.0000 1.0000 -0.0000
vn 0.0000 -1.0000 0.0000
vn 0.9397 0.0000 0.3420
vn 0.9397 -0.0000 0.3420
vn 0.0000 1.0000 0.0000
vn -0.0000 -1.0000 0.0000
vn -0.3420 0.0000 0.9397
vn -0.3420 0.0000 0.9397
vn 0.0000 1.0000 0.0000
vn 0.0000 -1.0000 -0.0000
vn -0.9397 0.0000 -0.3420
vn -0.9397 0.0000 -0.3420
vn -0.0000 1.0000 0.0000
vn 0.0000 -1.0000 0.0000
vn 0.3420 0.0000 -0.9397
vn 0.3420 0.0000 -0.9397
vn 0.0000 1.0000 -0.0000
vn 0.0000 -1.0000 0.0000
vn 0.9397 0.0000 0.3420
vn 0.9397 -0.0000 0.3420
vn 0.0000 1.0000 0.0000
vn -0.0000 -1.0000 0.0000
vn -0.3420 0.0000 0.9397
vn -0.3420 0.0000 0.9397
vn 0.0000 1.0000 0.0000
vn 0.0000 -1.0000 -0.0000
vn -0.9397 0.0000 -0.3420
vn -0.9397 0.0000 -0.3420
vn -0.0000 1.0000 0.0000
vn 0.0000 -1.0000 0.0000
vn 0.3420 0.0000 -0.9397
vn 0.3420 0.0000 -0.9397
vn 0.0000 1.0000 -0.0000
vn 0.0000 -1.0000 0.0000
vn 0.9397 0.0000 0.3420
vn 0.9397 -0.0000 0.3420
vn 0.0000 1.0000 0.0000
vn -0.0000 -1.0000 0.0000
vn -0.3420 0.0000 0.9397
vn -0.3420 0.0000 0.9397
vn 0.0000 1.0000 0.0000
vn 0.0000 -1.0000 -0.0000
vn -0.9397 0.0000 -0.3420
vn -0.9397 0.0000 -0.3420
vn -0.0000 1.0000 0.0000
vn 0.0000 -1.0000 0.0000
vn 0.3420 0.0000 -0.9397
vn 0.3420 0.0000 -0.9397
vn 0.0000 1.0000 -0.0000
vn 0.0000 -1.0000 0.0000
vn 0.9397 0.0000 0.3420
vn 0.9397 -0.0000 0.3420
vn 0.0000 1.0000 0.0000
vn -0.0000 -1.0000 0.0000
vn -0.3420 0.0000 0.9397
vn -0.3420 0.0000 0.9397
vn 0.0000 1.0000 0.0000
vn 0.0000 -1.0000 -0.0000
vn -0.9397 0.0000 -0.3420
vn -0.9397 0.0000 -0.3420
vn -0.0000 1.0000 0.0000
vn 0.0000 -1.0000 0.0000
vn 0.3420 0.0000 -0.9397
vn 0.3420 0.0000 -0.9397
vn 0.0000 1.0000 -0.0000
vn 0.0000 -1.0000 0.0000
vn 0.9397 0.0000 0.3420
vn 0.9397 -0.0000 0.3420
vn 0.0000 1.0000 0.0000
vn -0.0000 -1.0000 0.0000
vn -0.3420 0.0000 0.9397
vn -0.3420 0.0000 0.9397
vn 0.0000 1.0000 0.0000
vn 0.0000 -1.0000 -0.0000
vn -0.9397 0.0000 -0.3420
vn -0.9397 0.0000 -0.3420
vn -0.0000 1.0000 0.0000
vn 0.0000 -1.0000 0.0000
vn 0.3420 0.0000 -0.9397
vn 0.3420 0.0000 -0.9397
vn 0.0000 1.0000 -0.0000
vn 0.0000 -1.0000 0.0000
vn 0.9397 0.0000 0.3420
vn 0.9397 -0.0000 0.3420
vn 0.0000 1.0000 0.0000
vn -0.0000 -1.0000 0.0000
vn -0.3420 0.0000 0.9397
vn -0.3420 0.0000 0.9397
vn 0.0000 1.0000 0.0000
vn 0.0000 -1.0000 -0.0000
vn -0.9397 0.0000 -0.3420
vn -0.9397 0.0000 -0.3420
vn -0.0000 1.0000 0.0000
vn 0.0000 -1.0000 0.0000
vn 0.3420 0.0000 -0.9397
vn 0.3420 0.0000 -0.9397
vn 0.0000 1.0000 -0.0000
vn 0.0000 -1.0000 0.0000
vn 0.9397 0.0000 0.3420
vn 0.9397 -0.0000 0.3420
vn 0.0000 1.0000 0.0000
vn -0.0000 -1.0000 0.0000
vn -0.3420 0.0000 0.9397
vn -0.3420 0.0000 0.9397
vn 0.0000 1.0000 0.0000
vn 0.0000 -1.0000 -0.0000
vn -0.9397 0.0000 -0.3420
vn -0.9397 0.0000 -0.3420
vn -0.0000 1.0000 0.0000
vn 0.0000 -1.0000 0.0000
vn 0.3420 0.0000 -0.9397
vn 0.3420 0.0000 -0.9397
vn 0.0000 1.0000 -0.0000
vn 0.0000 -1.0000 0.0000
vn 0.9397 0.0000 0.3420
vn 0.9397 -0.0000 0.3420
vn 0.0000 1.0000 0.0000
vn -0.0000 -1.0000 0.0000
vn -0.3420 0.0000 0.9397
vn -0.3420 0.0000 0.9397
vn 0.0000 1.0000 0.0000
vn 0.0000 -1.0000 -0.0000
vn -0.9397 0.0000 -0.3420
vn -0.9397 0.0000 -0.3420
vn -0.0000 1.0000 0.0000
vn 0.0000 -1.0000 0.0000
vn 0.3420 0.0000 -0.9397
vn 0.3420 0.0000 -0.9397
vn 0.0000 1.0000 -0.0000
vn 0.0000 -1.0000 0.0000
vn 0.9397 0.0000 0.3420
vn 0.9397 -0.0000 0.3420
vn 0.0000 1.0000 0.0000
vn -0.0000 -1.0000 0.0000
vn -0.3420 0.0000 0.9397
vn -0.3420 0.0000 0.9397
vn 0.0000 1.0000 0.0000
vn 0.0000 -1.0000 -0.0000
vn -0.9397 0.0000 -0.3420
vn -0.9397 0.0000 -0.3420
vn -0.0000 1.0000 0.0000
vn 0.0000 -1.0000 0.0000
vn 0.3420 0.0000 -0.9397
vn 0.3420 0.0000 -0.9397
vn 0.0000 1.0000 -0.0000
vn 0.0000 -1.0000 0.0000
vn 0.9397 0.0000 0.3420
vn 0.9397 -0.0000 0.3420
vn 0.0000 1.0000 0.0000
vn -0.0000 -1.0000 0.0000
vn -0.3420 0.0000 0.9397
vn -0.3420 0.0000 0.9397
vn 0.0000 1.0000 0.0000
vn 0.0000 -1.0000 -0.0000
vn -0.9397 0.0000 -0.3420
vn -0.9397 0.0000 -0.3420
vn -0.0000 1.0000 0.0000
vn 0.0000 -1.0000 0.0000
vn 0.3420 0.0000 -0.9397
vn 0.3420 0.0000 -0.9397
vn 0.0000 1.0000 -0.0000
vn 0.0000 -1.0000 0.0000
vn 0.9397 0.0000 0.3420
vn 0.9397 -0.0000 0.3420
vn 0.0000 1.0000 0.0000
vn -0.0000 -1.0000 0.0000
vn -0.3420 0.0000 0.9397
vn -0.3420 0.0000 0.9397
vn -0.0000 1.0000 0.0000
vn 0.0000 -1.0000 -0.0000
vn -0.9397 0.0000 -0.3420
vn -0.9397 0.0000 -0.3420
vn 0.0000 1.0000 0.0000
vn 0.0000 -1.0000 0.0000
vn 0.3420 0.0000 -0.9397
vn 0.3420 0.0000 -0.9397
vn 0.0000 1.0000 -0.0000
vn -0.0000 -1.0000 0.0000
vn 0.9397 0.0000 0.3420
vn 0.9397 -0.0000 0.3420
vn 0.0000 1.0000 0.0000
vn 0.0000 -1.0000 0.0000
usemtl c0
f 1//1 2//1 6//1
f 1//2 6//2 5//2
f 9//3 2//3 1//3
f 10//4 5//4 6//4
f 2//5 3//5 7//5
f 2//6 7//6 6//6
f 9//7 3//7 2//7
f 10//8 6//8 7//8
f 3//9 4//9 8//9
f 3//10 8//10 7//10
f 9//11 4//11 3//11
f 10//12 7//12 8//12
f 4//13 1//13 5//13
f 4//14 5//14 8//14
f 9//15 1//15 4//15
f 10//16 8//16 5//16
usemtl c1
f 11//17 12//17 16//17
f 11//18 16//18 15//18
f 19//19 12//19 11//19
f 20//20 15//20 16//20
f 12//21 13//21 17//21
f 12//22 17//22 16//22
f 19//23 13//23 12//23
f 20//24 16//24 17//24
f 13//25 14//25 18//25
f 13//26 18//26 17//26
f 19//27 14//27 13//27
f 20//28 17//28 18//28
f 14//29 11//29 15//29
f 14//30 15//30 18//30
f 19//31 11//31 14//31
f 20//32 18//32 15//32
usemtl c0
f 21//33 22//33 26//33
f 21//34 26//34 25//34
f 29//35 22//35 21//35
f 30//36 25//36 26//36
f 22//37 23//37 27//37
f 22//38 27//38 26//38
f 29//39 23//39 22//39
f 30//40 26//40 27//40
f 23//41 24//41 28//41
f 23//42 28//42 27//42
f 29//43 24//43 23//43
f 30//44 27//44 28//44
f 24//45 21//45 25//45
f 24//46 25//46 28//46
f 29//47 21//47 24//47
f 30//48 28//48 25//48
usemtl c1
f 31//49 32//49 36//49
f 31//50 36//50 35//50
f 39//51 32//51 31//51
f 40//52 35//52 36//52
f 32//53 33//53 37//53
f 32//54 37//54 36//54
f 39//55 33//55 32//55
f 40//56 36//56 37//56
f 33//57 34//57 38//57
f 33//58 38//58 37//58
f 39//59 34//59 33//59
f 40//60 37//60 38//60
f 34//61 31//61 35//61
f 34//62 35//62 38//62
f 39//63 31//63 34//63
f 40//64 38//64 35//64
usemtl c0
f 41//65 42//65 46//65
f 41//66 46//66 45//66
f 49//67 42//67 41//67
f 50//68 45//68 46//68
f 42//69 43//69 47//69
f 42//70 47//70 46//70
f 49//71 43//71 42//71
f 50//72 46//72 47//72
f 43//73 44//73 48//73
f 43//74 48//74 47//74
f 49//75 44//75 43//75
f 50//76 47//76 48//76
f 44//77 41//77 45//77
f 44//78 45//78 48//78
f 49//79 41//79 44//79
f 50//80 48//80 45//80
usemtl c1
f 51//81 52//81 56//81
f 51//82 56//82 55//82
f 59//83 52//83 51//83
f 60//84 55//84 56//84
f 52//85 53//85 57//85
f 52//86 57//86 56//86
f 59//87 53//87 52//87
f 60//88 56//88 57//88
f 53//89 54//89 58//89
f 53//90 58//90 57//90
f 59//91 54//91 53//91
f 60//92 57//92 58//92
f 54//93 51//93 55//93
f 54//94 55//94 58//94
f 59//95 51//95 54//95
f 60//96 58//96 55//96
usemtl c0
f 61//97 62//97 66//97
f 61//98 66//98 65//98
f 69//99 62//99 61//99
f 70//100 65//100 66//100
f 62//101 63//101 67//101
f 62//102 67//102 66//102
f 69//103 63//103 62//103
f 70//104 66//104 67//104
f 63//105 64//105 68//105
f 63//106 68//106 67//106
f 69//107 64//107 63//107
f 70//108 67//108 68//108
f 64//109 61//109 65//109
f 64//110 65//110 68//110
f 69//111 61//111 64//111
f 70//112 68//112 65//112
usemtl c1
f 71//113 72//113 76//113
f 71//114 76//114 75//114
f 79//115 72//115 71//115
f 80//116 75//116 76//116
f 72//117 73//117 77//117
f 72//118 77//118 76//118
f 79//119 73//119 72//119
f 80//120 76//120 77//120
f 73//121 74//121 78//121
f 73//122 78//122 77//122
f 79//123 74//123 73//123
f 80//124 77//124 78//124
f 74//125 71//125 75//125
f 74//126 75//126 78//126
f 79//127 71//127 74//127
f 80//128 78//128 75//128
usemtl c0
f 81//129 82//129 86//129
f 81//130 86//130 85//130
f 89//131 82//131 81//131
f 90//132 85//132 86//132
f 82//133 83//133 87//133
f 82//134 87//134 86//134
f 89//135 83//135 82//135
f 90//136 86//136 87//136
f 83//137 84//137 88//137
f 83//138 88//138 87//138
f 89//139 84//139 83//139
f 90//140 87//140 88//140
f 84//141 81//141 85//141
f 84//142 85//142 88//142
f 89//143 81//143 84//143
f 90//144 88//144 85//144
usemtl c1
f 91//145 92//145 96//145
f 91//146 96//146 95//146
f 99//147 92//147 91//147
f 100//148 95//148 96//148
f 92//149 93//149 97//149
f 92//150 97//150 96//150
f 99//151 93//151 92//151
f 100//152 96//152 97//152
f 93//153 94//153 98//153
f 93//154 98//154 97//154
f 99//155 94//155 93//155
f 100//156 97//156 98//156
f 94//157 91//157 95//157
f 94//158 95//158 98//158
f 99//159 91//159 94//159
f 100//160 98//160 95//160
usemtl c0
f 101//161 102//161 106//161
f 101//162 106//162 105//162
f 109//163 102//163 101//163
f 110//164 105//164 106//164
f 102//165 103//165 107//165
f 102//166 107//166 106//166
f 109//167 103//167 102//167
f 110//168 106//168 107//168
f 103//169 104//169 108//169
f 103//170 108//170 107//170
f 109//171 104//171 103//171
f 110//172 107//172 108//172
f 104//173 101//173 105//173
f 104//174 105//174 108//174
f 109//175 101//175 104//175
f 110//176 108//176 105//176
usemtl c1
f 111//177 112//177 116//177
f 111//178 116//178 115//178
f 119//179 112//179 111//179
f 120//180 115//180 116//180
f 112//181 113//181 117//181
f 112//182 117//182 116//182
f 119//183 113//183 112//183
f 120//184 116//184 117//184
f 113//185 114//185 118//185
f 113//186 118//186 117//186
f 119//187 114//187 113//187
f 120//188 117//188 118//188
f 114//189 111//189 115//189
f 114//190 115//190 118//190
f 119//191 111//191 114//191
f 120//192 118//192 115//192
usemtl c0
f 121//193 122//193 126//193
f 121//194 126//194 125//194
f 129//195 122//195 121//195
f 130//196 125//196 126//196
f 122//197 123//197 127//197
f 122//198 127//198 126//198
f 129//199 123//199 122//199
f 130//200 126//200 127//200
f 123//201 124//201 128//201
f 123//202 128//202 127//202
f 129//203 124//203 123//203
f 130//204 127//204 128//204
f 124//205 121//205 125//205
f 124//206 125//206 128//206
f 129//207 121//207 124//207
f 130//208 128//208 125//208
usemtl c1
f 131//209 132//209 136//209
f 131//210 136//210 135//210
f 139//211 132//211 131//211
f 140//212 135//212 136//212
f 132//213 133//213 137//213
f 132//214 137//214 136//214
f 139//215 133//215 132//215
f 140//216 136//216 137//216
f 133//217 134//217 138//217
f 133//218 138//218 137//218
f 139//219 134//219 133//219
f 140//220 137//220 138//220
f 134//221 131//221 135//221
f 134//222 135//222 138//222
f 139//223 131//223 134//223
f 140//224 138//224 135//224
usemtl c0
f 141//225 142//225 146//225
f 141//226 146//226 145//226
f 149//227 142//227 141//227
f 150//228 145//228 146//228
f 142//229 143//229 147//229
f 142//230 147//230 146//230
f 149//231 143//231 142//231
f 150//232 146//232 147//232
f 143//233 144//233 148//233
f 143//234 148//234 147//234
f 149//235 144//235 143//235
f 150//236 147//236 148//236
f 144//237 141//237 145//237
f 144//238 145//238 148//238
f 149//239 141//239 144//239
f 150//240 148//240 145//240
usemtl c1
f 151//241 152//241 156//241
f 151//242 156//242 155//242
f 159//243 152//243 151//243
f 160//244 155//244 156//244
f 152//245 153//245 157//245
f 152//246 157//246 156//246
f 159//247 153//247 152//247
f 160//248 156//248 157//248
f 153//249 154//249 158//249
f 153//250 158//250 157//250
f 159//251 154//251 153//251
f 160//252 157//252 158//252
f 154//253 151//253 155//253
f 154//254 155//254 158//254
f 159//255 151//255 154//255
f 160//256 158//256 155//256
usemtl c0
f 161//257 162//257 166//257
f 161//258 166//258 165//258
f 169//259 162//259 161//259
f 170//260 165//260 166//260
f 162//261 163//261 167//261
f 162//262 167//262 166//262
f 169//263 163//263 162//263
f 170//264 166//264 167//264
f 163//265 164//265 168//265
f 163//266 168//266 167//266
f 169//267 164//267 163//267
f 170//268 167//268 168//268
f 164//269 161//269 165//269
f 164//270 165//270 168//270
f 169//271 161//271 164//271
f 170//272 168//272 165//272
usemtl c1
f 171//273 172//273 176//273
f 171//274 176//274 175//274
f 179//275 172//275 171//275
f 180//276 175//276 176//276
f 172//277 173//277 177//277
f 172//278 177//278 176//278
f 179//279 173//279 172//279
f 180//280 176//280 177//280
f 173//281 174//281 178//281
f 173//282 178//282 177//282
f 179//283 174//283 173//283
f 180//284 177//284 178//284
f 174//285 171//285 175//285
f 174//286 175//286 178//286
f 179//287 171//287 174//287
f 180//288 178//288 175//288
usemtl c0
f 181//289 182//289 186//289
f 181//290 186//290 185//290
f 189//291 182//291 181//291
f 190//292 185//292 186//292
f 182//293 183//293 187//293
f 182//294 187//294 186//294
f 189//295 183//295 182//295
f 190//296 186//296 187//296
f 183//297 184//297 188//297
f 183//298 188//298 187//298
f 189//299 184//299 183//299
f 190//300 187//300 188//300
f 184//301 181//301 185//301
f 184//302 185//302 188//302
f 189//303 181//303 184//303
f 190//304 188//304 185//304
usemtl c1
f 191//305 192//305 196//305
f 191//306 196//306 195//306
f 199//307 192//307 191//307
f 200//308 195//308 196//308
f 192//309 193//309 197//309
f 192//310 197//310 196//310
f 199//311 193//311 192//311
f 200//312 196//312 197//312
f 193//313 194//313 198//313
f 193//314 198//314 197//314
f 199//315 194//315 193//315
f 200//316 197//316 198//316
f 194//317 191//317 195//317
f 194//318 195//318 198//318
f 199//319 191//319 194//319
f 200//320 198//320 195//320
usemtl c0
f 201//321 202//321 206//321
f 201//322 206//322 205//322
f 209//323 202//323 201//323
f 210//324 205//324 206//324
f 202//325 203//325 207//325
f 202//326 207//326 206//326
f 209//327 203//327 202//327
f 210//328 206//328 207//328
f 203//329 204//329 208//329
f 203//330 208//330 207//330
f 209//331 204//331 203//331
f 210//332 207//332 208//332
f 204//333 201//333 205//333
f 204//334 205//334 208//334
f 209//335 201//335 204//335
f 210//336 208//336 205//336
usemtl c1
f 211//337 212//337 216//337
f 211//338 216//338 215//338
f 219//339 212//339 211//339
f 220//340 215//340 216//340
f 212//341 213//341 217//341
f 212//342 217//342 216//342
f 219//343 213//343 212//343
f 220//344 216//344 217//344
f 213//345 214//345 218//345
f 213//346 218//346 217//346
f 219//347 214//347 213//347
f 220//348 217//348 218//348
f 214//349 211//349 215//349
f 214//350 215//350 218//350
f 219//351 211//351 214//351
f 220//352 218//352 215//352
usemtl c0
f 221//353 222//353 226//353
f 221//354 226//354 225//354
f 229//355 222//355 221//355
f 230//356 225//356 226//356
f 222//357 223//357 227//357
f 222//358 227//358 226//358
f 229//359 223//359 222//359
f 230//360 226//360 227//360
f 223//361 224//361 228//361
f 223//362 228//362 227//362
f 229//363 224//363 223//363
f 230//364 227//364 228//364
f 224//365 221//365 225//365
f 224//366 225//366 228//366
f 229//367 221//367 224//367
f 230//368 228//368 225//368
usemtl c1
f 231//369 232//369 236//369
f 231//370 236//370 235//370
f 239//371 232//371 231//371
f 240//372 235//372 236//372
f 232//373 233//373 237//373
f 232//374 237//374 236//374
f 239//375 233//375 232//375
f 240//376 236//376 237//376
f 233//377 234//377 238//377
f 233//378 238//378 237//378
f 239//379 234//379 233//379
f 240//380 237//380 238//380
f 234//381 231//381 235//381
f 234//382 235//382 238//382
f 239//383 231//383 234//383
f 240//384 238//384 235//384
usemtl c2
f 241//385 242//385 246//385
f 241//386 246//386 245//386
f 249//387 242//387 241//387
f 250//388 245//388 246//388
f 242//389 243//389 247//389
f 242//390 247//390 246//390
f 249//391 243//391 242//391
f 250//392 246//392 247//392
f 243//393 244//393 248//393
f 243//394 248//394 247//394
f 249//395 244//395 243//395
f 250//396 247//396 248//396
f 244//397 241//397 245//397
f 244//398 245//398 248//398
f 249//399 241//399 244//399
f 250//400 248//400 245//400
usemtl c3
f 251//401 252//401 256//401
f 251//402 256//402 255//402
f 259//403 252//403 251//403
f 260//404 255//404 256//404
f 252//405 253//405 257//405
f 252//406 257//406 256//406
f 259//407 253//407 252//407
f 260//408 256//408 257//408
f 253//409 254//409 258//409
f 253//410 258//410 257//410
f 259//411 254//411 253//411
f 260//412 257//412 258//412
f 254//413 251//413 255//413
f 254//414 255//414 258//414
f 259//415 251//415 254//415
f 260//416 258//416 255//416
