mtllib Food_Udon.mtl
v 0.0000 0.0000 0.0000
v 0.0000 0.0000 0.0000
v 0.0000 0.0000 0.0000
v 0.0000 0.0000 0.0000
v 0.0000 0.0000 0.0000
v 0.0000 0.0000 0.0000
v 0.0000 0.0000 0.0000
v 0.0000 0.0000 0.0000
v 0.0000 0.0000 0.0000
v 0.0000 0.0000 0.0000
v 0.0000 0.0000 0.0000
v 0.0000 0.0000 0.0000
v 0.4200 0.0000 0.0000
v 0.3637 0.0000 0.2100
v 0.2100 0.0000 0.3637
v 0.0000 0.0000 0.4200
v -0.2100 0.0000 0.3637
v -0.3637 0.0000 0.2100
v -0.4200 0.0000 0.0000
v -0.3637 0.0000 -0.2100
v -0.2100 0.0000 -0.3637
v -0.0000 0.0000 -0.4200
v 0.2100 0.0000 -0.3637
v 0.3637 0.0000 -0.2100
v 0.5000 0.0500 0.0000
v 0.4330 0.0500 0.2500
v 0.2500 0.0500 0.4330
v 0.0000 0.0500 0.5000
v -0.2500 0.0500 0.4330
v -0.4330 0.0500 0.2500
v -0.5000 0.0500 0.0000
v -0.4330 0.0500 -0.2500
v -0.2500 0.0500 -0.4330
v -0.0000 0.0500 -0.5000
v 0.2500 0.0500 -0.4330
v 0.4330 0.0500 -0.2500
v 0.8000 0.2800 0.0000
v 0.6928 0.2800 0.4000
v 0.4000 0.2800 0.6928
v 0.0000 0.2800 0.8000
v -0.4000 0.2800 0.6928
v -0.6928 0.2800 0.4000
v -0.8000 0.2800 0.0000
v -0.6928 0.2800 -0.4000
v -0.4000 0.2800 -0.6928
v -0.0000 0.2800 -0.8000
v 0.4000 0.2800 -0.6928
v 0.6928 0.2800 -0.4000
v 1.0000 0.7000 0.0000
v 0.8660 0.7000 0.5000
v 0.5000 0.7000 0.8660
v 0.0000 0.7000 1.0000
v -0.5000 0.7000 0.8660
v -0.8660 0.7000 0.5000
v -1.0000 0.7000 0.0000
v -0.8660 0.7000 -0.5000
v -0.5000 0.7000 -0.8660
v -0.0000 0.7000 -1.0000
v 0.5000 0.7000 -0.8660
v 0.8660 0.7000 -0.5000
v 0.9300 0.6800 0.0000
v 0.8054 0.6800 0.4650
v 0.4650 0.6800 0.8054
v 0.0000 0.6800 0.9300
v -0.4650 0.6800 0.8054
v -0.8054 0.6800 0.4650
v -0.9300 0.6800 0.0000
v -0.8054 0.6800 -0.4650
v -0.4650 0.6800 -0.8054
v -0.0000 0.6800 -0.9300
v 0.4650 0.6800 -0.8054
v 0.8054 0.6800 -0.4650
v 1.0200 0.6800 0.0000
v 0.8833 0.6800 0.5100
v 0.5100 0.6800 0.8833
v 0.0000 0.6800 1.0200
v -0.5100 0.6800 0.8833
v -0.8833 0.6800 0.5100
v -1.0200 0.6800 0.0000
v -0.8833 0.6800 -0.5100
v -0.5100 0.6800 -0.8833
v -0.0000 0.6800 -1.0200
v 0.5100 0.6800 -0.8833
v 0.8833 0.6800 -0.5100
v 1.0200 0.7500 0.0000
v 0.8833 0.7500 0.5100
v 0.5100 0.7500 0.8833
v 0.0000 0.7500 1.0200
v -0.5100 0.7500 0.8833
v -0.8833 0.7500 0.5100
v -1.0200 0.7500 0.0000
v -0.8833 0.7500 -0.5100
v -0.5100 0.7500 -0.8833
v -0.0000 0.7500 -1.0200
v 0.5100 0.7500 -0.8833
v 0.8833 0.7500 -0.5100
v 0.9300 0.7500 0.0000
v 0.8054 0.7500 0.4650
v 0.4650 0.7500 0.8054
v 0.0000 0.7500 0.9300
v -0.4650 0.7500 0.8054
v -0.8054 0.7500 0.4650
v -0.9300 0.7500 0.0000
v -0.8054 0.7500 -0.4650
v -0.4650 0.7500 -0.8054
v -0.0000 0.7500 -0.9300
v 0.4650 0.7500 -0.8054
v 0.8054 0.7500 -0.4650
v 0.9400 0.7000 0.0000
v 0.8141 0.7000 0.4700
v 0.4700 0.7000 0.8141
v 0.0000 0.7000 0.9400
v -0.4700 0.7000 0.8141
v -0.8141 0.7000 0.4700
v -0.9400 0.7000 0.0000
v -0.8141 0.7000 -0.4700
v -0.4700 0.7000 -0.8141
v -0.0000 0.7000 -0.9400
v 0.4700 0.7000 -0.8141
v 0.8141 0.7000 -0.4700
v 0.7000 0.2780 0.0000
v 0.6062 0.2780 0.3500
v 0.3500 0.2780 0.6062
v 0.0000 0.2780 0.7000
v -0.3500 0.2780 0.6062
v -0.6062 0.2780 0.3500
v -0.7000 0.2780 0.0000
v -0.6062 0.2780 -0.3500
v -0.3500 0.2780 -0.6062
v -0.0000 0.2780 -0.7000
v 0.3500 0.2780 -0.6062
v 0.6062 0.2780 -0.3500
v 0.0000 0.2100 0.0000
v 0.0000 0.2100 0.0000
v 0.0000 0.2100 0.0000
v 0.0000 0.2100 0.0000
v 0.0000 0.2100 0.0000
v 0.0000 0.2100 0.0000
v 0.0000 0.2100 0.0000
v 0.0000 0.2100 0.0000
v 0.0000 0.2100 0.0000
v 0.0000 0.2100 0.0000
v 0.0000 0.2100 0.0000
v 0.0000 0.2100 0.0000
v 0.8600 0.4660 0.0000
v 0.7448 0.4660 0.4300
v 0.4300 0.4660 0.7448
v 0.0000 0.4660 0.8600
v -0.4300 0.4660 0.7448
v -0.7448 0.4660 0.4300
v -0.8600 0.4660 0.0000
v -0.7448 0.4660 -0.4300
v -0.4300 0.4660 -0.7448
v -0.0000 0.4660 -0.8600
v 0.4300 0.4660 -0.7448
v 0.7448 0.4660 -0.4300
v 0.8600 0.5160 0.0000
v 0.7448 0.5160 0.4300
v 0.4300 0.5160 0.7448
v 0.0000 0.5160 0.8600
v -0.4300 0.5160 0.7448
v -0.7448 0.5160 0.4300
v -0.8600 0.5160 0.0000
v -0.7448 0.5160 -0.4300
v -0.4300 0.5160 -0.7448
v -0.0000 0.5160 -0.8600
v 0.4300 0.5160 -0.7448
v 0.7448 0.5160 -0.4300
v 0.0000 0.4660 0.0000
v 0.0000 0.5160 0.0000
v 0.4124 0.5724 -0.4855
v 0.3936 0.4925 -0.4916
v 0.3175 0.4866 -0.5224
v 0.2894 0.5628 -0.5354
v 0.3480 0.6158 -0.5126
v -0.0018 0.5924 0.5335
v -0.0206 0.5125 0.5274
v -0.0967 0.5066 0.4966
v -0.1249 0.5828 0.4836
v -0.0662 0.6358 0.5064
v 0.3522 0.5460 -0.5095
v -0.0620 0.5660 0.5095
v 0.7315 0.6020 -0.2970
v 0.7449 0.5234 -0.2767
v 0.7038 0.4760 -0.3300
v 0.6651 0.5254 -0.3833
v 0.6822 0.6032 -0.3628
v -0.1485 0.6220 0.3630
v -0.1351 0.5434 0.3832
v -0.1762 0.4960 0.3299
v -0.2150 0.5454 0.2767
v -0.1979 0.6232 0.2971
v 0.7055 0.5460 -0.3300
v -0.1746 0.5660 0.3300
v 0.6676 0.5939 -0.3668
v 0.6741 0.5123 -0.3586
v 0.6193 0.4773 -0.4091
v 0.5790 0.5373 -0.4485
v 0.6088 0.6093 -0.4223
v -0.0852 0.6139 0.4353
v -0.0787 0.5323 0.4435
v -0.1334 0.4973 0.3930
v -0.1737 0.5573 0.3536
v -0.1439 0.6293 0.3798
v 0.6298 0.5460 -0.4011
v -0.1230 0.5660 0.4011
v -0.5665 0.4763 -0.0563
v -0.5737 0.5184 0.0141
v -0.5735 0.5986 -0.0042
v -0.5662 0.6061 -0.0858
v -0.5619 0.5305 -0.1180
v 0.5289 0.4963 0.0438
v 0.5217 0.5384 0.1142
v 0.5219 0.6186 0.0959
v 0.5293 0.6261 0.0143
v 0.5336 0.5505 -0.0179
v -0.5683 0.5460 -0.0500
v 0.5271 0.5660 0.0500
v 0.6341 0.6149 -0.0854
v 0.6431 0.5555 -0.0291
v 0.6350 0.4830 -0.0672
v 0.6209 0.4976 -0.1469
v 0.6204 0.5791 -0.1582
v -0.4485 0.6349 0.1093
v -0.4395 0.5755 0.1656
v -0.4477 0.5030 0.1275
v -0.4617 0.5176 0.0478
v -0.4623 0.5991 0.0365
v 0.6307 0.5460 -0.0974
v -0.4519 0.5660 0.0974
v 0.2992 0.6126 -0.1484
v 0.3129 0.5462 -0.1018
v 0.2970 0.4795 -0.1473
v 0.2735 0.5047 -0.2220
v 0.2748 0.5870 -0.2227
v -0.7479 0.6326 0.1885
v -0.7342 0.5662 0.2351
v -0.7501 0.4995 0.1896
v -0.7737 0.5247 0.1149
v -0.7723 0.6070 0.1142
v 0.2915 0.5460 -0.1685
v -0.7556 0.5660 0.1685
v -0.1361 0.5392 -0.5540
v -0.1903 0.4777 -0.5476
v -0.2654 0.5105 -0.5409
v -0.2576 0.5924 -0.5432
v -0.1777 0.6102 -0.5513
v -0.0293 0.5592 0.5408
v -0.0836 0.4977 0.5472
v -0.1587 0.5305 0.5539
v -0.1509 0.6124 0.5516
v -0.0710 0.6302 0.5435
v -0.2054 0.5460 -0.5474
v -0.0987 0.5660 0.5474
v 0.5400 0.6460 0.3500
v 0.4697 0.6460 0.5197
v 0.3000 0.6460 0.5900
v 0.1303 0.6460 0.5197
v 0.0600 0.6460 0.3500
v 0.1303 0.6460 0.1803
v 0.3000 0.6460 0.1100
v 0.4697 0.6460 0.1803
v 0.5400 0.7160 0.3500
v 0.4697 0.7160 0.5197
v 0.3000 0.7160 0.5900
v 0.1303 0.7160 0.5197
v 0.0600 0.7160 0.3500
v 0.1303 0.7160 0.1803
v 0.3000 0.7160 0.1100
v 0.4697 0.7160 0.1803
v 0.3000 0.6460 0.3500
v 0.3000 0.7160 0.3500
v 0.3900 0.6460 0.3500
v 0.3450 0.6460 0.4279
v 0.2550 0.6460 0.4279
v 0.2100 0.6460 0.3500
v 0.2550 0.6460 0.2721
v 0.3450 0.6460 0.2721
v 0.3900 0.7260 0.3500
v 0.3450 0.7260 0.4279
v 0.2550 0.7260 0.4279
v 0.2100 0.7260 0.3500
v 0.2550 0.7260 0.2721
v 0.3450 0.7260 0.2721
v 0.3000 0.6460 0.3500
v 0.3000 0.7260 0.3500
v -0.6500 0.5860 0.0000
v -0.1500 0.5860 0.0000
v -0.4000 0.5860 0.4800
v -0.6500 0.7060 0.0000
v -0.1500 0.7060 0.0000
v -0.4000 0.7060 0.4800
v -0.4000 0.5860 0.1600
v -0.4000 0.7060 0.1600
v 0.0500 0.6960 -0.3000
v 0.0155 0.6960 -0.2524
v -0.0405 0.6960 -0.2706
v -0.0405 0.6960 -0.3294
v 0.0155 0.6960 -0.3476
v 0.0500 0.7760 -0.3000
v 0.0155 0.7760 -0.2524
v -0.0405 0.7760 -0.2706
v -0.0405 0.7760 -0.3294
v 0.0155 0.7760 -0.3476
v 0.0000 0.6960 -0.3000
v 0.0000 0.7760 -0.3000
v 0.2500 0.6960 0.0000
v 0.2155 0.6960 0.0476
v 0.1595 0.6960 0.0294
v 0.1595 0.6960 -0.0294
v 0.2155 0.6960 -0.0476
v 0.2500 0.7760 0.0000
v 0.2155 0.7760 0.0476
v 0.1595 0.7760 0.0294
v 0.1595 0.7760 -0.0294
v 0.2155 0.7760 -0.0476
v 0.2000 0.6960 0.0000
v 0.2000 0.7760 0.0000
v -0.0500 0.6960 0.0500
v -0.0845 0.6960 0.0976
v -0.1405 0.6960 0.0794
v -0.1405 0.6960 0.0206
v -0.0845 0.6960 0.0024
v -0.0500 0.7760 0.0500
v -0.0845 0.7760 0.0976
v -0.1405 0.7760 0.0794
v -0.1405 0.7760 0.0206
v -0.0845 0.7760 0.0024
v -0.1000 0.6960 0.0500
v -0.1000 0.7760 0.0500
vn 0.0000 1.0000 0.0000
vn 0.0000 1.0000 0.0000
vn 0.0000 1.0000 0.0000
vn 0.0000 1.0000 -0.0000
vn 0.0000 1.0000 0.0000
vn 0.0000 1.0000 0.0000
vn 0.0000 1.0000 0.0000
vn 0.0000 1.0000 0.0000
vn 0.0000 1.0000 0.0000
vn 0.0000 1.0000 0.0000
vn 0.0000 1.0000 0.0000
vn -0.0000 1.0000 0.0000
vn -0.5247 0.8396 -0.1406
vn -0.5247 0.8396 -0.1406
vn -0.3841 0.8396 -0.3841
vn -0.3841 0.8396 -0.3841
vn -0.1406 0.8396 -0.5247
vn -0.1406 0.8396 -0.5247
vn 0.1406 0.8396 -0.5247
vn 0.1406 0.8396 -0.5247
vn 0.3841 0.8396 -0.3841
vn 0.3841 0.8396 -0.3841
vn 0.5247 0.8396 -0.1406
vn 0.5247 0.8396 -0.1406
vn 0.5247 0.8396 0.1406
vn 0.5247 0.8396 0.1406
vn 0.3841 0.8396 0.3841
vn 0.3841 0.8396 0.3841
vn 0.1406 0.8396 0.5247
vn 0.1406 0.8396 0.5247
vn -0.1406 0.8396 0.5247
vn -0.1406 0.8396 0.5247
vn -0.3841 0.8396 0.3841
vn -0.3841 0.8396 0.3841
vn -0.5247 0.8396 0.1406
vn -0.5247 0.8396 0.1406
vn -0.6005 0.7833 -0.1609
vn -0.6005 0.7833 -0.1609
vn -0.4396 0.7833 -0.4396
vn -0.4396 0.7833 -0.4396
vn -0.1609 0.7833 -0.6005
vn -0.1609 0.7833 -0.6005
vn 0.1609 0.7833 -0.6005
vn 0.1609 0.7833 -0.6005
vn 0.4396 0.7833 -0.4396
vn 0.4396 0.7833 -0.4396
vn 0.6005 0.7833 -0.1609
vn 0.6005 0.7833 -0.1609
vn 0.6005 0.7833 0.1609
vn 0.6005 0.7833 0.1609
vn 0.4396 0.7833 0.4396
vn 0.4396 0.7833 0.4396
vn 0.1609 0.7833 0.6005
vn 0.1609 0.7833 0.6005
vn -0.1609 0.7833 0.6005
vn -0.1609 0.7833 0.6005
vn -0.4396 0.7833 0.4396
vn -0.4396 0.7833 0.4396
vn -0.6005 0.7833 0.1609
vn -0.6005 0.7833 0.1609
vn -0.8775 0.4179 -0.2351
vn -0.8775 0.4179 -0.2351
vn -0.6424 0.4179 -0.6424
vn -0.6424 0.4179 -0.6424
vn -0.2351 0.4179 -0.8775
vn -0.2351 0.4179 -0.8775
vn 0.2351 0.4179 -0.8775
vn 0.2351 0.4179 -0.8775
vn 0.6424 0.4179 -0.6424
vn 0.6424 0.4179 -0.6424
vn 0.8775 0.4179 -0.2351
vn 0.8775 0.4179 -0.2351
vn 0.8775 0.4179 0.2351
vn 0.8775 0.4179 0.2351
vn 0.6424 0.4179 0.6424
vn 0.6424 0.4179 0.6424
vn 0.2351 0.4179 0.8775
vn 0.2351 0.4179 0.8775
vn -0.2351 0.4179 0.8775
vn -0.2351 0.4179 0.8775
vn -0.6424 0.4179 0.6424
vn -0.6424 0.4179 0.6424
vn -0.8775 0.4179 0.2351
vn -0.8775 0.4179 0.2351
vn 0.0000 1.0000 0.0000
vn 0.0000 1.0000 -0.0000
vn 0.0000 1.0000 0.0000
vn 0.0000 1.0000 -0.0000
vn 0.0000 1.0000 0.0000
vn 0.0000 1.0000 -0.0000
vn 0.0000 1.0000 0.0000
vn 0.0000 1.0000 -0.0000
vn 0.0000 1.0000 0.0000
vn 0.0000 1.0000 0.0000
vn 0.0000 1.0000 0.0000
vn 0.0000 1.0000 0.0000
vn 0.0000 1.0000 0.0000
vn 0.0000 1.0000 0.0000
vn 0.0000 1.0000 0.0000
vn 0.0000 1.0000 0.0000
vn 0.0000 1.0000 0.0000
vn 0.0000 1.0000 0.0000
vn 0.0000 1.0000 0.0000
vn -0.0000 1.0000 0.0000
vn 0.0000 1.0000 0.0000
vn -0.0000 1.0000 0.0000
vn 0.0000 1.0000 0.0000
vn -0.0000 1.0000 0.0000
vn -0.9659 0.0000 -0.2588
vn -0.9659 0.0000 -0.2588
vn -0.7071 0.0000 -0.7071
vn -0.7071 0.0000 -0.7071
vn -0.2588 0.0000 -0.9659
vn -0.2588 0.0000 -0.9659
vn 0.2588 0.0000 -0.9659
vn 0.2588 0.0000 -0.9659
vn 0.7071 0.0000 -0.7071
vn 0.7071 0.0000 -0.7071
vn 0.9659 0.0000 -0.2588
vn 0.9659 0.0000 -0.2588
vn 0.9659 0.0000 0.2588
vn 0.9659 -0.0000 0.2588
vn 0.7071 0.0000 0.7071
vn 0.7071 -0.0000 0.7071
vn 0.2588 0.0000 0.9659
vn 0.2588 -0.0000 0.9659
vn -0.2588 0.0000 0.9659
vn -0.2588 0.0000 0.9659
vn -0.7071 0.0000 0.7071
vn -0.7071 0.0000 0.7071
vn -0.9659 0.0000 0.2588
vn -0.9659 0.0000 0.2588
vn 0.0000 -1.0000 0.0000
vn 0.0000 -1.0000 0.0000
vn 0.0000 -1.0000 0.0000
vn -0.0000 -1.0000 0.0000
vn 0.0000 -1.0000 0.0000
vn -0.0000 -1.0000 0.0000
vn 0.0000 -1.0000 0.0000
vn 0.0000 -1.0000 0.0000
vn 0.0000 -1.0000 0.0000
vn 0.0000 -1.0000 -0.0000
vn 0.0000 -1.0000 0.0000
vn 0.0000 -1.0000 -0.0000
vn 0.0000 -1.0000 0.0000
vn 0.0000 -1.0000 0.0000
vn 0.0000 -1.0000 0.0000
vn 0.0000 -1.0000 0.0000
vn 0.0000 -1.0000 0.0000
vn 0.0000 -1.0000 0.0000
vn 0.0000 -1.0000 0.0000
vn 0.0000 -1.0000 0.0000
vn 0.0000 -1.0000 0.0000
vn 0.0000 -1.0000 0.0000
vn 0.0000 -1.0000 0.0000
vn 0.0000 -1.0000 0.0000
vn 0.9659 0.0000 0.2588
vn 0.9659 0.0000 0.2588
vn 0.7071 0.0000 0.7071
vn 0.7071 0.0000 0.7071
vn 0.2588 0.0000 0.9659
vn 0.2588 0.0000 0.9659
vn -0.2588 0.0000 0.9659
vn -0.2588 0.0000 0.9659
vn -0.7071 0.0000 0.7071
vn -0.7071 0.0000 0.7071
vn -0.9659 0.0000 0.2588
vn -0.9659 0.0000 0.2588
vn -0.9659 0.0000 -0.2588
vn -0.9659 -0.0000 -0.2588
vn -0.7071 0.0000 -0.7071
vn -0.7071 -0.0000 -0.7071
vn -0.2588 0.0000 -0.9659
vn -0.2588 -0.0000 -0.9659
vn 0.2588 0.0000 -0.9659
vn 0.2588 0.0000 -0.9659
vn 0.7071 0.0000 -0.7071
vn 0.7071 0.0000 -0.7071
vn 0.9659 0.0000 -0.2588
vn 0.9659 0.0000 -0.2588
vn 0.8466 -0.4815 0.2268
vn 0.8466 -0.4815 0.2268
vn 0.6198 -0.4815 0.6198
vn 0.6198 -0.4815 0.6198
vn 0.2268 -0.4815 0.8466
vn 0.2268 -0.4815 0.8466
vn -0.2268 -0.4815 0.8466
vn -0.2268 -0.4815 0.8466
vn -0.6198 -0.4815 0.6198
vn -0.6198 -0.4815 0.6198
vn -0.8466 -0.4815 0.2268
vn -0.8466 -0.4815 0.2268
vn -0.8466 -0.4815 -0.2268
vn -0.8466 -0.4815 -0.2268
vn -0.6198 -0.4815 -0.6198
vn -0.6198 -0.4815 -0.6198
vn -0.2268 -0.4815 -0.8466
vn -0.2268 -0.4815 -0.8466
vn 0.2268 -0.4815 -0.8466
vn 0.2268 -0.4815 -0.8466
vn 0.6198 -0.4815 -0.6198
vn 0.6198 -0.4815 -0.6198
vn 0.8466 -0.4815 -0.2268
vn 0.8466 -0.4815 -0.2268
vn 0.0967 -0.9950 0.0259
vn 0.0708 -0.9950 0.0708
vn 0.0259 -0.9950 0.0967
vn -0.0259 -0.9950 0.0967
vn -0.0708 -0.9950 0.0708
vn -0.0967 -0.9950 0.0259
vn -0.0967 -0.9950 -0.0259
vn -0.0708 -0.9950 -0.0708
vn -0.0259 -0.9950 -0.0967
vn 0.0259 -0.9950 -0.0967
vn 0.0708 -0.9950 -0.0708
vn 0.0967 -0.9950 -0.0259
vn -0.9659 0.0000 -0.2588
vn -0.9659 0.0000 -0.2588
vn -0.7071 0.0000 -0.7071
vn -0.7071 0.0000 -0.7071
vn -0.2588 0.0000 -0.9659
vn -0.2588 0.0000 -0.9659
vn 0.2588 0.0000 -0.9659
vn 0.2588 0.0000 -0.9659
vn 0.7071 0.0000 -0.7071
vn 0.7071 0.0000 -0.7071
vn 0.9659 0.0000 -0.2588
vn 0.9659 0.0000 -0.2588
vn 0.9659 0.0000 0.2588
vn 0.9659 -0.0000 0.2588
vn 0.7071 0.0000 0.7071
vn 0.7071 -0.0000 0.7071
vn 0.2588 0.0000 0.9659
vn 0.2588 -0.0000 0.9659
vn -0.2588 0.0000 0.9659
vn -0.2588 0.0000 0.9659
vn -0.7071 0.0000 0.7071
vn -0.7071 0.0000 0.7071
vn -0.9659 0.0000 0.2588
vn -0.9659 0.0000 0.2588
vn 0.0000 -1.0000 0.0000
vn 0.0000 -1.0000 0.0000
vn 0.0000 -1.0000 0.0000
vn 0.0000 -1.0000 0.0000
vn 0.0000 -1.0000 0.0000
vn 0.0000 -1.0000 0.0000
vn -0.0000 -1.0000 0.0000
vn 0.0000 -1.0000 0.0000
vn 0.0000 -1.0000 0.0000
vn 0.0000 -1.0000 -0.0000
vn 0.0000 -1.0000 0.0000
vn 0.0000 -1.0000 0.0000
vn 0.0000 -1.0000 0.0000
vn 0.0000 -1.0000 0.0000
vn 0.0000 -1.0000 0.0000
vn 0.0000 -1.0000 0.0000
vn 0.0000 -1.0000 0.0000
vn 0.0000 -1.0000 0.0000
vn -0.0000 -1.0000 0.0000
vn 0.0000 -1.0000 0.0000
vn 0.0000 -1.0000 0.0000
vn 0.0000 -1.0000 -0.0000
vn 0.0000 -1.0000 0.0000
vn 0.0000 -1.0000 0.0000
vn -0.8977 0.2398 -0.3696
vn -0.8977 0.2398 -0.3696
vn -0.0598 0.9972 -0.0439
vn -0.0598 0.9972 -0.0439
vn 0.8608 0.3765 0.3425
vn 0.8608 0.3765 0.3425
vn 0.5917 -0.7645 0.2556
vn 0.5917 -0.7645 0.2556
vn -0.4950 -0.8490 -0.1846
vn -0.4950 -0.8490 -0.1846
vn 0.3765 -0.0182 -0.9262
vn 0.3765 -0.0182 -0.9262
vn 0.3765 -0.0182 -0.9262
vn 0.3765 -0.0182 -0.9262
vn 0.3765 -0.0182 -0.9262
vn 0.3765 -0.0182 -0.9262
vn 0.3765 -0.0182 -0.9262
vn 0.3765 -0.0182 -0.9262
vn 0.3765 -0.0182 -0.9262
vn 0.3765 -0.0182 -0.9262
vn -0.5776 -0.2946 -0.7613
vn -0.5776 -0.2946 -0.7613
vn -0.3334 0.8177 -0.4693
vn -0.3334 0.8177 -0.4693
vn 0.3716 0.7999 0.4713
vn 0.3716 0.7999 0.4713
vn 0.5630 -0.3233 0.7606
vn 0.5630 -0.3233 0.7606
vn -0.0236 -0.9997 -0.0012
vn -0.0236 -0.9997 -0.0012
vn 0.7999 -0.0182 -0.5998
vn 0.7999 -0.0182 -0.5998
vn 0.7999 -0.0182 -0.5998
vn 0.7999 -0.0182 -0.5998
vn 0.7999 -0.0182 -0.5998
vn 0.7999 -0.0182 -0.5998
vn 0.7999 -0.0182 -0.5998
vn 0.7999 -0.0182 -0.5998
vn 0.7999 -0.0182 -0.5998
vn 0.7999 -0.0182 -0.5998
vn -0.7250 -0.1250 -0.6773
vn -0.7250 -0.1250 -0.6773
vn -0.2990 0.9048 -0.3032
vn -0.2990 0.9048 -0.3032
vn 0.5402 0.6842 0.4899
vn 0.5402 0.6842 0.4899
vn 0.6329 -0.4820 0.6060
vn 0.6329 -0.4820 0.6060
vn -0.1491 -0.9821 -0.1154
vn -0.1491 -0.9821 -0.1154
vn 0.6842 -0.0182 -0.7291
vn 0.6842 -0.0182 -0.7291
vn 0.6842 -0.0182 -0.7291
vn 0.6842 -0.0182 -0.7291
vn 0.6842 -0.0182 -0.7291
vn 0.6842 -0.0182 -0.7291
vn 0.6842 -0.0182 -0.7291
vn 0.6842 -0.0182 -0.7291
vn 0.6842 -0.0182 -0.7291
vn 0.6842 -0.0182 -0.7291
vn 0.0310 0.8590 -0.5110
vn 0.0310 0.8590 -0.5110
vn 0.0927 -0.2212 -0.9708
vn 0.0927 -0.2212 -0.9708
vn 0.0263 -0.9957 -0.0890
vn 0.0263 -0.9957 -0.0890
vn -0.0765 -0.3942 0.9158
vn -0.0765 -0.3942 0.9158
vn -0.0736 0.7520 0.6550
vn -0.0736 0.7520 0.6550
vn -0.9957 -0.0182 -0.0910
vn -0.9957 -0.0182 -0.0910
vn -0.9957 -0.0182 -0.0910
vn -0.9957 -0.0182 -0.0910
vn -0.9957 -0.0182 -0.0910
vn -0.9957 -0.0182 -0.0910
vn -0.9957 -0.0182 -0.0910
vn -0.9957 -0.0182 -0.0910
vn -0.9957 -0.0182 -0.0910
vn -0.9957 -0.0182 -0.0910
vn -0.1401 -0.6921 -0.7081
vn -0.1401 -0.6921 -0.7081
vn -0.1476 0.4724 -0.8689
vn -0.1476 0.4724 -0.8689
vn 0.0489 0.9840 0.1711
vn 0.0489 0.9840 0.1711
vn 0.1778 0.1358 0.9747
vn 0.1778 0.1358 0.9747
vn 0.0609 -0.9001 0.4313
vn 0.0609 -0.9001 0.4313
vn 0.9840 -0.0182 -0.1770
vn 0.9840 -0.0182 -0.1770
vn 0.9840 -0.0182 -0.1770
vn 0.9840 -0.0182 -0.1770
vn 0.9840 -0.0182 -0.1770
vn 0.9840 -0.0182 -0.1770
vn 0.9840 -0.0182 -0.1770
vn 0.9840 -0.0182 -0.1770
vn 0.9840 -0.0182 -0.1770
vn 0.9840 -0.0182 -0.1770
vn -0.2575 -0.5900 -0.7653
vn -0.2575 -0.5900 -0.7653
vn -0.2382 0.5854 -0.7750
vn -0.2382 0.5854 -0.7750
vn 0.1103 0.9518 0.2863
vn 0.1103 0.9518 0.2863
vn 0.3064 0.0028 0.9519
vn 0.3064 0.0028 0.9519
vn 0.0790 -0.9500 0.3020
vn 0.0790 -0.9500 0.3020
vn 0.9518 -0.0182 -0.3063
vn 0.9518 -0.0182 -0.3063
vn 0.9518 -0.0182 -0.3063
vn 0.9518 -0.0182 -0.3063
vn 0.9518 -0.0182 -0.3063
vn 0.9518 -0.0182 -0.3063
vn 0.9518 -0.0182 -0.3063
vn 0.9518 -0.0182 -0.3063
vn 0.9518 -0.0182 -0.3063
vn 0.9518 -0.0182 -0.3063
vn -0.7458 0.6634 0.0606
vn -0.7458 0.6634 0.0606
vn 0.3963 0.9164 -0.0554
vn 0.3963 0.9164 -0.0554
vn 0.9908 -0.0970 -0.0948
vn 0.9908 -0.0970 -0.0948
vn 0.2160 -0.9764 -0.0032
vn 0.2160 -0.9764 -0.0032
vn -0.8573 -0.5064 0.0928
vn -0.8573 -0.5064 0.0928
vn -0.0970 -0.0182 -0.9951
vn -0.0970 -0.0182 -0.9951
vn -0.0970 -0.0182 -0.9951
vn -0.0970 -0.0182 -0.9951
vn -0.0970 -0.0182 -0.9951
vn -0.0970 -0.0182 -0.9951
vn -0.0970 -0.0182 -0.9951
vn -0.0970 -0.0182 -0.9951
vn -0.0970 -0.0182 -0.9951
vn -0.0970 -0.0182 -0.9951
vn -0.9239 0.0000 -0.3827
vn -0.9239 0.0000 -0.3827
vn -0.3827 0.0000 -0.9239
vn -0.3827 0.0000 -0.9239
vn 0.3827 0.0000 -0.9239
vn 0.3827 0.0000 -0.9239
vn 0.9239 0.0000 -0.3827
vn 0.9239 0.0000 -0.3827
vn 0.9239 0.0000 0.3827
vn 0.9239 -0.0000 0.3827
vn 0.3827 0.0000 0.9239
vn 0.3827 -0.0000 0.9239
vn -0.3827 0.0000 0.9239
vn -0.3827 0.0000 0.9239
vn -0.9239 0.0000 0.3827
vn -0.9239 0.0000 0.3827
vn 0.0000 -1.0000 0.0000
vn 0.0000 -1.0000 0.0000
vn 0.0000 -1.0000 0.0000
vn 0.0000 -1.0000 0.0000
vn -0.0000 -1.0000 0.0000
vn 0.0000 -1.0000 0.0000
vn 0.0000 -1.0000 -0.0000
vn 0.0000 -1.0000 0.0000
vn 0.0000 -1.0000 0.0000
vn 0.0000 -1.0000 0.0000
vn 0.0000 -1.0000 0.0000
vn 0.0000 -1.0000 0.0000
vn -0.0000 -1.0000 0.0000
vn 0.0000 -1.0000 0.0000
vn 0.0000 -1.0000 -0.0000
vn 0.0000 -1.0000 0.0000
vn -0.8660 0.0000 -0.5000
vn -0.8660 0.0000 -0.5000
vn 0.0000 0.0000 -1.0000
vn 0.0000 0.0000 -1.0000
vn 0.8660 0.0000 -0.5000
vn 0.8660 0.0000 -0.5000
vn 0.8660 0.0000 0.5000
vn 0.8660 -0.0000 0.5000
vn 0.0000 0.0000 1.0000
vn 0.0000 0.0000 1.0000
vn -0.8660 0.0000 0.5000
vn -0.8660 0.0000 0.5000
vn 0.0000 -1.0000 0.0000
vn 0.0000 -1.0000 0.0000
vn 0.0000 -1.0000 0.0000
vn -0.0000 -1.0000 0.0000
vn 0.0000 -1.0000 -0.0000
vn 0.0000 -1.0000 0.0000
vn 0.0000 -1.0000 0.0000
vn 0.0000 -1.0000 0.0000
vn 0.0000 -1.0000 0.0000
vn -0.0000 -1.0000 0.0000
vn 0.0000 -1.0000 -0.0000
vn 0.0000 -1.0000 0.0000
vn 0.0000 0.0000 1.0000
vn 0.0000 0.0000 1.0000
vn 0.0000 1.0000 0.0000
vn 0.0000 -1.0000 -0.0000
vn -0.8869 0.0000 -0.4619
vn -0.8869 0.0000 -0.4619
vn -0.0000 1.0000 0.0000
vn 0.0000 -1.0000 0.0000
vn 0.8869 0.0000 -0.4619
vn 0.8869 0.0000 -0.4619
vn 0.0000 1.0000 -0.0000
vn -0.0000 -1.0000 0.0000
vn -0.8090 0.0000 -0.5878
vn -0.8090 0.0000 -0.5878
vn 0.3090 0.0000 -0.9511
vn 0.3090 0.0000 -0.9511
vn 1.0000 0.0000 -0.0000
vn 1.0000 0.0000 -0.0000
vn 0.3090 0.0000 0.9511
vn 0.3090 -0.0000 0.9511
vn -0.8090 0.0000 0.5878
vn -0.8090 0.0000 0.5878
vn 0.0000 -1.0000 0.0000
vn 0.0000 -1.0000 0.0000
vn -0.0000 -1.0000 0.0000
vn 0.0000 -1.0000 -0.0000
vn 0.0000 -1.0000 0.0000
vn 0.0000 -1.0000 0.0000
vn 0.0000 -1.0000 0.0000
vn -0.0000 -1.0000 0.0000
vn 0.0000 -1.0000 -0.0000
vn 0.0000 -1.0000 0.0000
vn -0.8090 0.0000 -0.5878
vn -0.8090 0.0000 -0.5878
vn 0.3090 0.0000 -0.9511
vn 0.3090 0.0000 -0.9511
vn 1.0000 0.0000 0.0000
vn 1.0000 -0.0000 0.0000
vn 0.3090 0.0000 0.9511
vn 0.3090 -0.0000 0.9511
vn -0.8090 0.0000 0.5878
vn -0.8090 0.0000 0.5878
vn 0.0000 -1.0000 0.0000
vn 0.0000 -1.0000 0.0000
vn -0.0000 -1.0000 0.0000
vn 0.0000 -1.0000 -0.0000
vn 0.0000 -1.0000 0.0000
vn 0.0000 -1.0000 0.0000
vn 0.0000 -1.0000 0.0000
vn -0.0000 -1.0000 0.0000
vn 0.0000 -1.0000 -0.0000
vn 0.0000 -1.0000 0.0000
vn -0.8090 0.0000 -0.5878
vn -0.8090 0.0000 -0.5878
vn 0.3090 0.0000 -0.9511
vn 0.3090 0.0000 -0.9511
vn 1.0000 0.0000 0.0000
vn 1.0000 -0.0000 0.0000
vn 0.3090 0.0000 0.9511
vn 0.3090 -0.0000 0.9511
vn -0.8090 0.0000 0.5878
vn -0.8090 0.0000 0.5878
vn 0.0000 -1.0000 0.0000
vn 0.0000 -1.0000 0.0000
vn -0.0000 -1.0000 0.0000
vn 0.0000 -1.0000 -0.0000
vn 0.0000 -1.0000 0.0000
vn 0.0000 -1.0000 0.0000
vn 0.0000 -1.0000 0.0000
vn -0.0000 -1.0000 0.0000
vn 0.0000 -1.0000 -0.0000
vn 0.0000 -1.0000 0.0000
usemtl c0
f 1//1 14//1 13//1
f 2//2 15//2 14//2
f 3//3 16//3 15//3
f 4//4 17//4 16//4
f 5//5 18//5 17//5
f 6//6 19//6 18//6
f 7//7 20//7 19//7
f 8//8 21//8 20//8
f 9//9 22//9 21//9
f 10//10 23//10 22//10
f 11//11 24//11 23//11
f 12//12 13//12 24//12
f 13//13 14//13 26//13
f 13//14 26//14 25//14
f 14//15 15//15 27//15
f 14//16 27//16 26//16
f 15//17 16//17 28//17
f 15//18 28//18 27//18
f 16//19 17//19 29//19
f 16//20 29//20 28//20
f 17//21 18//21 30//21
f 17//22 30//22 29//22
f 18//23 19//23 31//23
f 18//24 31//24 30//24
f 19//25 20//25 32//25
f 19//26 32//26 31//26
f 20//27 21//27 33//27
f 20//28 33//28 32//28
f 21//29 22//29 34//29
f 21//30 34//30 33//30
f 22//31 23//31 35//31
f 22//32 35//32 34//32
f 23//33 24//33 36//33
f 23//34 36//34 35//34
f 24//35 13//35 25//35
f 24//36 25//36 36//36
f 25//37 26//37 38//37
f 25//38 38//38 37//38
f 26//39 27//39 39//39
f 26//40 39//40 38//40
f 27//41 28//41 40//41
f 27//42 40//42 39//42
f 28//43 29//43 41//43
f 28//44 41//44 40//44
f 29//45 30//45 42//45
f 29//46 42//46 41//46
f 30//47 31//47 43//47
f 30//48 43//48 42//48
f 31//49 32//49 44//49
f 31//50 44//50 43//50
f 32//51 33//51 45//51
f 32//52 45//52 44//52
f 33//53 34//53 46//53
f 33//54 46//54 45//54
f 34//55 35//55 47//55
f 34//56 47//56 46//56
f 35//57 36//57 48//57
f 35//58 48//58 47//58
f 36//59 25//59 37//59
f 36//60 37//60 48//60
f 37//61 38//61 50//61
f 37//62 50//62 49//62
f 38//63 39//63 51//63
f 38//64 51//64 50//64
f 39//65 40//65 52//65
f 39//66 52//66 51//66
f 40//67 41//67 53//67
f 40//68 53//68 52//68
f 41//69 42//69 54//69
f 41//70 54//70 53//70
f 42//71 43//71 55//71
f 42//72 55//72 54//72
f 43//73 44//73 56//73
f 43//74 56//74 55//74
f 44//75 45//75 57//75
f 44//76 57//76 56//76
f 45//77 46//77 58//77
f 45//78 58//78 57//78
f 46//79 47//79 59//79
f 46//80 59//80 58//80
f 47//81 48//81 60//81
f 47//82 60//82 59//82
f 48//83 37//83 49//83
f 48//84 49//84 60//84
usemtl c1
f 61//85 62//85 74//85
f 61//86 74//86 73//86
f 62//87 63//87 75//87
f 62//88 75//88 74//88
f 63//89 64//89 76//89
f 63//90 76//90 75//90
f 64//91 65//91 77//91
f 64//92 77//92 76//92
f 65//93 66//93 78//93
f 65//94 78//94 77//94
f 66//95 67//95 79//95
f 66//96 79//96 78//96
f 67//97 68//97 80//97
f 67//98 80//98 79//98
f 68//99 69//99 81//99
f 68//100 81//100 80//100
f 69//101 70//101 82//101
f 69//102 82//102 81//102
f 70//103 71//103 83//103
f 70//104 83//104 82//104
f 71//105 72//105 84//105
f 71//106 84//106 83//106
f 72//107 61//107 73//107
f 72//108 73//108 84//108
f 73//109 74//109 86//109
f 73//110 86//110 85//110
f 74//111 75//111 87//111
f 74//112 87//112 86//112
f 75//113 76//113 88//113
f 75//114 88//114 87//114
f 76//115 77//115 89//115
f 76//116 89//116 88//116
f 77//117 78//117 90//117
f 77//118 90//118 89//118
f 78//119 79//119 91//119
f 78//120 91//120 90//120
f 79//121 80//121 92//121
f 79//122 92//122 91//122
f 80//123 81//123 93//123
f 80//124 93//124 92//124
f 81//125 82//125 94//125
f 81//126 94//126 93//126
f 82//127 83//127 95//127
f 82//128 95//128 94//128
f 83//129 84//129 96//129
f 83//130 96//130 95//130
f 84//131 73//131 85//131
f 84//132 85//132 96//132
f 85//133 86//133 98//133
f 85//134 98//134 97//134
f 86//135 87//135 99//135
f 86//136 99//136 98//136
f 87//137 88//137 100//137
f 87//138 100//138 99//138
f 88//139 89//139 101//139
f 88//140 101//140 100//140
f 89//141 90//141 102//141
f 89//142 102//142 101//142
f 90//143 91//143 103//143
f 90//144 103//144 102//144
f 91//145 92//145 104//145
f 91//146 104//146 103//146
f 92//147 93//147 105//147
f 92//148 105//148 104//148
f 93//149 94//149 106//149
f 93//150 106//150 105//150
f 94//151 95//151 107//151
f 94//152 107//152 106//152
f 95//153 96//153 108//153
f 95//154 108//154 107//154
f 96//155 85//155 97//155
f 96//156 97//156 108//156
f 97//157 98//157 62//157
f 97//158 62//158 61//158
f 98//159 99//159 63//159
f 98//160 63//160 62//160
f 99//161 100//161 64//161
f 99//162 64//162 63//162
f 100//163 101//163 65//163
f 100//164 65//164 64//164
f 101//165 102//165 66//165
f 101//166 66//166 65//166
f 102//167 103//167 67//167
f 102//168 67//168 66//168
f 103//169 104//169 68//169
f 103//170 68//170 67//170
f 104//171 105//171 69//171
f 104//172 69//172 68//172
f 105//173 106//173 70//173
f 105//174 70//174 69//174
f 106//175 107//175 71//175
f 106//176 71//176 70//176
f 107//177 108//177 72//177
f 107//178 72//178 71//178
f 108//179 97//179 61//179
f 108//180 61//180 72//180
usemtl c2
f 109//181 110//181 122//181
f 109//182 122//182 121//182
f 110//183 111//183 123//183
f 110//184 123//184 122//184
f 111//185 112//185 124//185
f 111//186 124//186 123//186
f 112//187 113//187 125//187
f 112//188 125//188 124//188
f 113//189 114//189 126//189
f 113//190 126//190 125//190
f 114//191 115//191 127//191
f 114//192 127//192 126//192
f 115//193 116//193 128//193
f 115//194 128//194 127//194
f 116//195 117//195 129//195
f 116//196 129//196 128//196
f 117//197 118//197 130//197
f 117//198 130//198 129//198
f 118//199 119//199 131//199
f 118//200 131//200 130//200
f 119//201 120//201 132//201
f 119//202 132//202 131//202
f 120//203 109//203 121//203
f 120//204 121//204 132//204
f 121//205 122//205 134//205
f 122//206 123//206 135//206
f 123//207 124//207 136//207
f 124//208 125//208 137//208
f 125//209 126//209 138//209
f 126//210 127//210 139//210
f 127//211 128//211 140//211
f 128//212 129//212 141//212
f 129//213 130//213 142//213
f 130//214 131//214 143//214
f 131//215 132//215 144//215
f 132//216 121//216 133//216
usemtl c3
f 145//217 146//217 158//217
f 145//218 158//218 157//218
f 146//219 147//219 159//219
f 146//220 159//220 158//220
f 147//221 148//221 160//221
f 147//222 160//222 159//222
f 148//223 149//223 161//223
f 148//224 161//224 160//224
f 149//225 150//225 162//225
f 149//226 162//226 161//226
f 150//227 151//227 163//227
f 150//228 163//228 162//228
f 151//229 152//229 164//229
f 151//230 164//230 163//230
f 152//231 153//231 165//231
f 152//232 165//232 164//232
f 153//233 154//233 166//233
f 153//234 166//234 165//234
f 154//235 155//235 167//235
f 154//236 167//236 166//236
f 155//237 156//237 168//237
f 155//238 168//238 167//238
f 156//239 145//239 157//239
f 156//240 157//240 168//240
f 169//241 145//241 146//241
f 169//242 146//242 147//242
f 169//243 147//243 148//243
f 169//244 148//244 149//244
f 169//245 149//245 150//245
f 169//246 150//246 151//246
f 169//247 151//247 152//247
f 169//248 152//248 153//248
f 169//249 153//249 154//249
f 169//250 154//250 155//250
f 169//251 155//251 156//251
f 169//252 156//252 145//252
f 170//253 157//253 158//253
f 170//254 158//254 159//254
f 170//255 159//255 160//255
f 170//256 160//256 161//256
f 170//257 161//257 162//257
f 170//258 162//258 163//258
f 170//259 163//259 164//259
f 170//260 164//260 165//260
f 170//261 165//261 166//261
f 170//262 166//262 167//262
f 170//263 167//263 168//263
f 170//264 168//264 157//264
usemtl c4
f 171//265 172//265 177//265
f 171//266 177//266 176//266
f 172//267 173//267 178//267
f 172//268 178//268 177//268
f 173//269 174//269 179//269
f 173//270 179//270 178//270
f 174//271 175//271 180//271
f 174//272 180//272 179//272
f 175//273 171//273 176//273
f 175//274 176//274 180//274
f 181//275 171//275 172//275
f 181//276 172//276 173//276
f 181//277 173//277 174//277
f 181//278 174//278 175//278
f 181//279 175//279 171//279
f 182//280 176//280 177//280
f 182//281 177//281 178//281
f 182//282 178//282 179//282
f 182//283 179//283 180//283
f 182//284 180//284 176//284
f 183//285 184//285 189//285
f 183//286 189//286 188//286
f 184//287 185//287 190//287
f 184//288 190//288 189//288
f 185//289 186//289 191//289
f 185//290 191//290 190//290
f 186//291 187//291 192//291
f 186//292 192//292 191//292
f 187//293 183//293 188//293
f 187//294 188//294 192//294
f 193//295 183//295 184//295
f 193//296 184//296 185//296
f 193//297 185//297 186//297
f 193//298 186//298 187//298
f 193//299 187//299 183//299
f 194//300 188//300 189//300
f 194//301 189//301 190//301
f 194//302 190//302 191//302
f 194//303 191//303 192//303
f 194//304 192//304 188//304
f 195//305 196//305 201//305
f 195//306 201//306 200//306
f 196//307 197//307 202//307
f 196//308 202//308 201//308
f 197//309 198//309 203//309
f 197//310 203//310 202//310
f 198//311 199//311 204//311
f 198//312 204//312 203//312
f 199//313 195//313 200//313
f 199//314 200//314 204//314
f 205//315 195//315 196//315
f 205//316 196//316 197//316
f 205//317 197//317 198//317
f 205//318 198//318 199//318
f 205//319 199//319 195//319
f 206//320 200//320 201//320
f 206//321 201//321 202//321
f 206//322 202//322 203//322
f 206//323 203//323 204//323
f 206//324 204//324 200//324
f 207//325 208//325 213//325
f 207//326 213//326 212//326
f 208//327 209//327 214//327
f 208//328 214//328 213//328
f 209//329 210//329 215//329
f 209//330 215//330 214//330
f 210//331 211//331 216//331
f 210//332 216//332 215//332
f 211//333 207//333 212//333
f 211//334 212//334 216//334
f 217//335 207//335 208//335
f 217//336 208//336 209//336
f 217//337 209//337 210//337
f 217//338 210//338 211//338
f 217//339 211//339 207//339
f 218//340 212//340 213//340
f 218//341 213//341 214//341
f 218//342 214//342 215//342
f 218//343 215//343 216//343
f 218//344 216//344 212//344
f 219//345 220//345 225//345
f 219//346 225//346 224//346
f 220//347 221//347 226//347
f 220//348 226//348 225//348
f 221//349 222//349 227//349
f 221//350 227//350 226//350
f 222//351 223//351 228//351
f 222//352 228//352 227//352
f 223//353 219//353 224//353
f 223//354 224//354 228//354
f 229//355 219//355 220//355
f 229//356 220//356 221//356
f 229//357 221//357 222//357
f 229//358 222//358 223//358
f 229//359 223//359 219//359
f 230//360 224//360 225//360
f 230//361 225//361 226//361
f 230//362 226//362 227//362
f 230//363 227//363 228//363
f 230//364 228//364 224//364
f 231//365 232//365 237//365
f 231//366 237//366 236//366
f 232//367 233//367 238//367
f 232//368 238//368 237//368
f 233//369 234//369 239//369
f 233//370 239//370 238//370
f 234//371 235//371 240//371
f 234//372 240//372 239//372
f 235//373 231//373 236//373
f 235//374 236//374 240//374
f 241//375 231//375 232//375
f 241//376 232//376 233//376
f 241//377 233//377 234//377
f 241//378 234//378 235//378
f 241//379 235//379 231//379
f 242//380 236//380 237//380
f 242//381 237//381 238//381
f 242//382 238//382 239//382
f 242//383 239//383 240//383
f 242//384 240//384 236//384
f 243//385 244//385 249//385
f 243//386 249//386 248//386
f 244//387 245//387 250//387
f 244//388 250//388 249//388
f 245//389 246//389 251//389
f 245//390 251//390 250//390
f 246//391 247//391 252//391
f 246//392 252//392 251//392
f 247//393 243//393 248//393
f 247//394 248//394 252//394
f 253//395 243//395 244//395
f 253//396 244//396 245//396
f 253//397 245//397 246//397
f 253//398 246//398 247//398
f 253//399 247//399 243//399
f 254//400 248//400 249//400
f 254//401 249//401 250//401
f 254//402 250//402 251//402
f 254//403 251//403 252//403
f 254//404 252//404 248//404
usemtl c5
f 255//405 256//405 264//405
f 255//406 264//406 263//406
f 256//407 257//407 265//407
f 256//408 265//408 264//408
f 257//409 258//409 266//409
f 257//410 266//410 265//410
f 258//411 259//411 267//411
f 258//412 267//412 266//412
f 259//413 260//413 268//413
f 259//414 268//414 267//414
f 260//415 261//415 269//415
f 260//416 269//416 268//416
f 261//417 262//417 270//417
f 261//418 270//418 269//418
f 262//419 255//419 263//419
f 262//420 263//420 270//420
f 271//421 255//421 256//421
f 271//422 256//422 257//422
f 271//423 257//423 258//423
f 271//424 258//424 259//424
f 271//425 259//425 260//425
f 271//426 260//426 261//426
f 271//427 261//427 262//427
f 271//428 262//428 255//428
f 272//429 263//429 264//429
f 272//430 264//430 265//430
f 272//431 265//431 266//431
f 272//432 266//432 267//432
f 272//433 267//433 268//433
f 272//434 268//434 269//434
f 272//435 269//435 270//435
f 272//436 270//436 263//436
usemtl c6
f 273//437 274//437 280//437
f 273//438 280//438 279//438
f 274//439 275//439 281//439
f 274//440 281//440 280//440
f 275//441 276//441 282//441
f 275//442 282//442 281//442
f 276//443 277//443 283//443
f 276//444 283//444 282//444
f 277//445 278//445 284//445
f 277//446 284//446 283//446
f 278//447 273//447 279//447
f 278//448 279//448 284//448
f 285//449 273//449 274//449
f 285//450 274//450 275//450
f 285//451 275//451 276//451
f 285//452 276//452 277//452
f 285//453 277//453 278//453
f 285//454 278//454 273//454
f 286//455 279//455 280//455
f 286//456 280//456 281//456
f 286//457 281//457 282//457
f 286//458 282//458 283//458
f 286//459 283//459 284//459
f 286//460 284//460 279//460
usemtl c7
f 287//461 288//461 291//461
f 287//462 291//462 290//462
f 293//463 288//463 287//463
f 294//464 290//464 291//464
f 288//465 289//465 292//465
f 288//466 292//466 291//466
f 293//467 289//467 288//467
f 294//468 291//468 292//468
f 289//469 287//469 290//469
f 289//470 290//470 292//470
f 293//471 287//471 289//471
f 294//472 292//472 290//472
usemtl c8
f 295//473 296//473 301//473
f 295//474 301//474 300//474
f 296//475 297//475 302//475
f 296//476 302//476 301//476
f 297//477 298//477 303//477
f 297//478 303//478 302//478
f 298//479 299//479 304//479
f 298//480 304//480 303//480
f 299//481 295//481 300//481
f 299//482 300//482 304//482
f 305//483 295//483 296//483
f 305//484 296//484 297//484
f 305//485 297//485 298//485
f 305//486 298//486 299//486
f 305//487 299//487 295//487
f 306//488 300//488 301//488
f 306//489 301//489 302//489
f 306//490 302//490 303//490
f 306//491 303//491 304//491
f 306//492 304//492 300//492
f 307//493 308//493 313//493
f 307//494 313//494 312//494
f 308//495 309//495 314//495
f 308//496 314//496 313//496
f 309//497 310//497 315//497
f 309//498 315//498 314//498
f 310//499 311//499 316//499
f 310//500 316//500 315//500
f 311//501 307//501 312//501
f 311//502 312//502 316//502
f 317//503 307//503 308//503
f 317//504 308//504 309//504
f 317//505 309//505 310//505
f 317//506 310//506 311//506
f 317//507 311//507 307//507
f 318//508 312//508 313//508
f 318//509 313//509 314//509
f 318//510 314//510 315//510
f 318//511 315//511 316//511
f 318//512 316//512 312//512
f 319//513 320//513 325//513
f 319//514 325//514 324//514
f 320//515 321//515 326//515
f 320//516 326//516 325//516
f 321//517 322//517 327//517
f 321//518 327//518 326//518
f 322//519 323//519 328//519
f 322//520 328//520 327//520
f 323//521 319//521 324//521
f 323//522 324//522 328//522
f 329//523 319//523 320//523
f 329//524 320//524 321//524
f 329//525 321//525 322//525
f 329//526 322//526 323//526
f 329//527 323//527 319//527
f 330//528 324//528 325//528
f 330//529 325//529 326//529
f 330//530 326//530 327//530
f 330//531 327//531 328//531
f 330//532 328//532 324//532
