mtllib Food_ChickenLeg.mtl
v 0.4353 -0.4945 0.0000
v 0.4353 -0.4945 0.0000
v 0.4353 -0.4945 0.0000
v 0.4353 -0.4945 0.0000
v 0.4353 -0.4945 0.0000
v 0.4353 -0.4945 0.0000
v 0.4353 -0.4945 0.0000
v 0.4353 -0.4945 0.0000
v 0.5913 -0.2195 0.0000
v 0.5260 -0.2783 0.2121
v 0.3684 -0.4202 0.3000
v 0.2107 -0.5621 0.2121
v 0.1454 -0.6209 0.0000
v 0.2107 -0.5621 -0.2121
v 0.3684 -0.4202 -0.3000
v 0.5260 -0.2783 -0.2121
v 0.5466 0.2785 0.0000
v 0.4160 0.1609 0.4243
v 0.1007 -0.1229 0.6000
v -0.2146 -0.4068 0.4243
v -0.3451 -0.5244 0.0000
v -0.2146 -0.4068 -0.4243
v 0.1007 -0.1229 -0.6000
v 0.4160 0.1609 -0.4243
v 0.3458 0.7706 0.0000
v 0.1761 0.6177 0.5515
v -0.2338 0.2486 0.7800
v -0.6437 -0.1204 0.5515
v -0.8135 -0.2733 0.0000
v -0.6437 -0.1204 -0.5515
v -0.2338 0.2486 -0.7800
v 0.1761 0.6177 -0.5515
v -0.0779 1.0618 0.0000
v -0.2216 0.9325 0.4667
v -0.5684 0.6202 0.6600
v -0.9152 0.3079 0.4667
v -1.0589 0.1786 0.0000
v -0.9152 0.3079 -0.4667
v -0.5684 0.6202 -0.6600
v -0.2216 0.9325 -0.4667
v -0.4979 1.0201 0.0000
v -0.5675 0.9574 0.2263
v -0.7357 0.8060 0.3200
v -0.9038 0.6546 0.2263
v -0.9735 0.5919 0.0000
v -0.9038 0.6546 -0.2263
v -0.7357 0.8060 -0.3200
v -0.5675 0.9574 -0.2263
v -0.7691 0.8431 0.0000
v -0.7691 0.8431 0.0000
v -0.7691 0.8431 0.0000
v -0.7691 0.8431 0.0000
v -0.7691 0.8431 0.0000
v -0.7691 0.8431 0.0000
v -0.7691 0.8431 0.0000
v -0.7691 0.8431 0.0000
v 0.5096 -0.4276 0.0000
v 0.4583 -0.4738 -0.0951
v 0.3752 -0.5486 -0.0588
v 0.3752 -0.5486 0.0588
v 0.4583 -0.4738 0.0951
v 1.0115 -0.9850 0.0000
v 0.9601 -1.0312 -0.0951
v 0.8770 -1.1060 -0.0588
v 0.8770 -1.1060 0.0588
v 0.9601 -1.0312 0.0951
v 0.4353 -0.4945 0.0000
v 0.9372 -1.0519 0.0000
v 0.9878 -1.3024 0.0000
v 0.9878 -1.3024 0.0000
v 0.9878 -1.3024 0.0000
v 0.9878 -1.3024 0.0000
v 0.9878 -1.3024 0.0000
v 0.9878 -1.3024 0.0000
v 1.0403 -1.1407 0.0000
v 0.9856 -1.1899 0.1275
v 0.8762 -1.2884 0.1275
v 0.8215 -1.3377 0.0000
v 0.8762 -1.2884 -0.1275
v 0.9856 -1.1899 -0.1275
v 0.9265 -1.0143 0.0000
v 0.8718 -1.0636 0.1275
v 0.7624 -1.1621 0.1275
v 0.7077 -1.2114 0.0000
v 0.7624 -1.1621 -0.1275
v 0.8718 -1.0636 -0.1275
v 0.7602 -1.0497 0.0000
v 0.7602 -1.0497 0.0000
v 0.7602 -1.0497 0.0000
v 0.7602 -1.0497 0.0000
v 0.7602 -1.0497 -0.0000
v 0.7602 -1.0497 -0.0000
v 1.1810 -1.1284 0.0000
v 1.1810 -1.1284 0.0000
v 1.1810 -1.1284 0.0000
v 1.1810 -1.1284 0.0000
v 1.1810 -1.1284 0.0000
v 1.1810 -1.1284 0.0000
v 1.2335 -0.9667 0.0000
v 1.1788 -1.0160 0.1275
v 1.0694 -1.1145 0.1275
v 1.0147 -1.1637 0.0000
v 1.0694 -1.1145 -0.1275
v 1.1788 -1.0160 -0.1275
v 1.1198 -0.8404 0.0000
v 1.0650 -0.8896 0.1275
v 0.9556 -0.9881 0.1275
v 0.9009 -1.0374 0.0000
v 0.9556 -0.9881 -0.1275
v 1.0650 -0.8896 -0.1275
v 0.9535 -0.8757 0.0000
v 0.9535 -0.8757 0.0000
v 0.9535 -0.8757 0.0000
v 0.9535 -0.8757 0.0000
v 0.9535 -0.8757 -0.0000
v 0.9535 -0.8757 -0.0000
vn -0.8624 0.4892 -0.1299
vn -0.7259 0.6121 -0.3135
vn -0.5329 0.7859 -0.3135
vn -0.3964 0.9088 -0.1299
vn -0.3964 0.9088 0.1299
vn -0.5329 0.7859 0.3135
vn -0.7259 0.6121 0.3135
vn -0.8624 0.4892 0.1299
vn -0.9454 -0.0849 -0.3146
vn -0.9454 -0.0849 -0.3146
vn -0.6149 0.2128 -0.7594
vn -0.6149 0.2128 -0.7594
vn -0.1473 0.6337 -0.7594
vn -0.1473 0.6337 -0.7594
vn 0.1832 0.9314 -0.3146
vn 0.1832 0.9314 -0.3146
vn 0.1832 0.9314 0.3146
vn 0.1832 0.9314 0.3146
vn -0.1473 0.6337 0.7594
vn -0.1473 0.6337 0.7594
vn -0.6149 0.2128 0.7594
vn -0.6149 0.2128 0.7594
vn -0.9454 -0.0849 0.3146
vn -0.9454 -0.0849 0.3146
vn -0.8627 -0.3521 -0.3631
vn -0.8627 -0.3521 -0.3631
vn -0.4810 -0.0084 -0.8767
vn -0.4810 -0.0084 -0.8767
vn 0.0587 0.4775 -0.8767
vn 0.0587 0.4775 -0.8767
vn 0.4403 0.8211 -0.3631
vn 0.4403 0.8211 -0.3631
vn 0.4403 0.8211 0.3631
vn 0.4403 0.8211 0.3631
vn 0.0587 0.4775 0.8767
vn 0.0587 0.4775 0.8767
vn -0.4810 -0.0084 0.8767
vn -0.4810 -0.0084 0.8767
vn -0.8627 -0.3521 0.3631
vn -0.8627 -0.3521 0.3631
vn -0.5254 -0.7644 -0.3736
vn -0.5254 -0.7644 -0.3736
vn -0.1328 -0.4109 -0.9020
vn -0.1328 -0.4109 -0.9020
vn 0.4225 0.0891 -0.9020
vn 0.4225 0.0891 -0.9020
vn 0.8151 0.4427 -0.3736
vn 0.8151 0.4427 -0.3736
vn 0.8151 0.4427 0.3736
vn 0.8151 0.4427 0.3736
vn 0.4225 0.0891 0.9020
vn 0.4225 0.0891 0.9020
vn -0.1328 -0.4109 0.9020
vn -0.1328 -0.4109 0.9020
vn -0.5254 -0.7644 0.3736
vn -0.5254 -0.7644 0.3736
vn 0.0960 -0.9664 -0.2383
vn 0.0960 -0.9664 -0.2383
vn 0.3465 -0.7409 -0.5753
vn 0.3465 -0.7409 -0.5753
vn 0.7007 -0.4220 -0.5753
vn 0.7007 -0.4220 -0.5753
vn 0.9511 -0.1965 -0.2383
vn 0.9511 -0.1965 -0.2383
vn 0.9511 -0.1965 0.2383
vn 0.9511 -0.1965 0.2383
vn 0.7007 -0.4220 0.5753
vn 0.7007 -0.4220 0.5753
vn 0.3465 -0.7409 0.5753
vn 0.3465 -0.7409 0.5753
vn 0.0960 -0.9664 0.2383
vn 0.0960 -0.9664 0.2383
vn 0.5453 -0.8358 -0.0638
vn 0.6123 -0.7754 -0.1541
vn 0.7072 -0.6900 -0.1541
vn 0.7743 -0.6297 -0.0638
vn 0.7743 -0.6297 0.0638
vn 0.7072 -0.6900 0.1541
vn 0.6123 -0.7754 0.1541
vn 0.5453 -0.8358 0.0638
vn -0.6012 -0.5413 0.5878
vn -0.6012 -0.5413 0.5878
vn 0.2296 0.2068 0.9511
vn 0.2296 0.2068 0.9511
vn 0.7431 0.6691 -0.0000
vn 0.7431 0.6691 0.0000
vn 0.2296 0.2068 -0.9511
vn 0.2296 0.2068 -0.9511
vn -0.6012 -0.5413 -0.5878
vn -0.6012 -0.5413 -0.5878
vn -0.6691 0.7431 0.0000
vn -0.6691 0.7431 0.0000
vn -0.6691 0.7431 0.0000
vn -0.6691 0.7431 0.0000
vn -0.6691 0.7431 0.0000
vn -0.6691 0.7431 -0.0000
vn -0.6691 0.7431 0.0000
vn -0.6691 0.7431 0.0000
vn -0.6691 0.7431 -0.0000
vn -0.6691 0.7431 0.0000
vn -0.9137 0.2969 -0.2774
vn -0.5568 0.6183 -0.5547
vn -0.1998 0.9398 -0.2774
vn -0.1998 0.9398 0.2774
vn -0.5568 0.6183 0.5547
vn -0.9137 0.2969 0.2774
vn -0.6436 -0.5795 -0.5000
vn -0.6436 -0.5795 -0.5000
vn -0.0000 0.0000 -1.0000
vn -0.0000 -0.0000 -1.0000
vn 0.6436 0.5795 -0.5000
vn 0.6436 0.5795 -0.5000
vn 0.6436 0.5795 0.5000
vn 0.6436 0.5795 0.5000
vn 0.0000 0.0000 1.0000
vn -0.0000 0.0000 1.0000
vn -0.6436 -0.5795 0.5000
vn -0.6436 -0.5795 0.5000
vn 0.1998 -0.9398 -0.2774
vn 0.5568 -0.6183 -0.5547
vn 0.9137 -0.2969 -0.2774
vn 0.9137 -0.2969 0.2774
vn 0.5568 -0.6183 0.5547
vn 0.1998 -0.9398 0.2774
vn -0.9137 0.2969 -0.2774
vn -0.5568 0.6183 -0.5547
vn -0.1998 0.9398 -0.2774
vn -0.1998 0.9398 0.2774
vn -0.5568 0.6183 0.5547
vn -0.9137 0.2969 0.2774
vn -0.6436 -0.5795 -0.5000
vn -0.6436 -0.5795 -0.5000
vn -0.0000 0.0000 -1.0000
vn -0.0000 -0.0000 -1.0000
vn 0.6436 0.5795 -0.5000
vn 0.6436 0.5795 -0.5000
vn 0.6436 0.5795 0.5000
vn 0.6436 0.5795 0.5000
vn 0.0000 0.0000 1.0000
vn -0.0000 0.0000 1.0000
vn -0.6436 -0.5795 0.5000
vn -0.6436 -0.5795 0.5000
vn 0.1998 -0.9398 -0.2774
vn 0.5568 -0.6183 -0.5547
vn 0.9137 -0.2969 -0.2774
vn 0.9137 -0.2969 0.2774
vn 0.5568 -0.6183 0.5547
vn 0.1998 -0.9398 0.2774
usemtl c0
f 1//1 10//1 9//1
f 2//2 11//2 10//2
f 3//3 12//3 11//3
f 4//4 13//4 12//4
f 5//5 14//5 13//5
f 6//6 15//6 14//6
f 7//7 16//7 15//7
f 8//8 9//8 16//8
f 9//9 10//9 18//9
f 9//10 18//10 17//10
f 10//11 11//11 19//11
f 10//12 19//12 18//12
f 11//13 12//13 20//13
f 11//14 20//14 19//14
f 12//15 13//15 21//15
f 12//16 21//16 20//16
f 13//17 14//17 22//17
f 13//18 22//18 21//18
f 14//19 15//19 23//19
f 14//20 23//20 22//20
f 15//21 16//21 24//21
f 15//22 24//22 23//22
f 16//23 9//23 17//23
f 16//24 17//24 24//24
f 17//25 18//25 26//25
f 17//26 26//26 25//26
f 18//27 19//27 27//27
f 18//28 27//28 26//28
f 19//29 20//29 28//29
f 19//30 28//30 27//30
f 20//31 21//31 29//31
f 20//32 29//32 28//32
f 21//33 22//33 30//33
f 21//34 30//34 29//34
f 22//35 23//35 31//35
f 22//36 31//36 30//36
f 23//37 24//37 32//37
f 23//38 32//38 31//38
f 24//39 17//39 25//39
f 24//40 25//40 32//40
f 25//41 26//41 34//41
f 25//42 34//42 33//42
f 26//43 27//43 35//43
f 26//44 35//44 34//44
f 27//45 28//45 36//45
f 27//46 36//46 35//46
f 28//47 29//47 37//47
f 28//48 37//48 36//48
f 29//49 30//49 38//49
f 29//50 38//50 37//50
f 30//51 31//51 39//51
f 30//52 39//52 38//52
f 31//53 32//53 40//53
f 31//54 40//54 39//54
f 32//55 25//55 33//55
f 32//56 33//56 40//56
f 33//57 34//57 42//57
f 33//58 42//58 41//58
f 34//59 35//59 43//59
f 34//60 43//60 42//60
f 35//61 36//61 44//61
f 35//62 44//62 43//62
f 36//63 37//63 45//63
f 36//64 45//64 44//64
f 37//65 38//65 46//65
f 37//66 46//66 45//66
f 38//67 39//67 47//67
f 38//68 47//68 46//68
f 39//69 40//69 48//69
f 39//70 48//70 47//70
f 40//71 33//71 41//71
f 40//72 41//72 48//72
f 41//73 42//73 50//73
f 42//74 43//74 51//74
f 43//75 44//75 52//75
f 44//76 45//76 53//76
f 45//77 46//77 54//77
f 46//78 47//78 55//78
f 47//79 48//79 56//79
f 48//80 41//80 49//80
usemtl c1
f 57//81 58//81 63//81
f 57//82 63//82 62//82
f 58//83 59//83 64//83
f 58//84 64//84 63//84
f 59//85 60//85 65//85
f 59//86 65//86 64//86
f 60//87 61//87 66//87
f 60//88 66//88 65//88
f 61//89 57//89 62//89
f 61//90 62//90 66//90
f 67//91 57//91 58//91
f 67//92 58//92 59//92
f 67//93 59//93 60//93
f 67//94 60//94 61//94
f 67//95 61//95 57//95
f 68//96 62//96 63//96
f 68//97 63//97 64//97
f 68//98 64//98 65//98
f 68//99 65//99 66//99
f 68//100 66//100 62//100
f 69//101 76//101 75//101
f 70//102 77//102 76//102
f 71//103 78//103 77//103
f 72//104 79//104 78//104
f 73//105 80//105 79//105
f 74//106 75//106 80//106
f 75//107 76//107 82//107
f 75//108 82//108 81//108
f 76//109 77//109 83//109
f 76//110 83//110 82//110
f 77//111 78//111 84//111
f 77//112 84//112 83//112
f 78//113 79//113 85//113
f 78//114 85//114 84//114
f 79//115 80//115 86//115
f 79//116 86//116 85//116
f 80//117 75//117 81//117
f 80//118 81//118 86//118
f 81//119 82//119 88//119
f 82//120 83//120 89//120
f 83//121 84//121 90//121
f 84//122 85//122 91//122
f 85//123 86//123 92//123
f 86//124 81//124 87//124
f 93//125 100//125 99//125
f 94//126 101//126 100//126
f 95//127 102//127 101//127
f 96//128 103//128 102//128
f 97//129 104//129 103//129
f 98//130 99//130 104//130
f 99//131 100//131 106//131
f 99//132 106//132 105//132
f 100//133 101//133 107//133
f 100//134 107//134 106//134
f 101//135 102//135 108//135
f 101//136 108//136 107//136
f 102//137 103//137 109//137
f 102//138 109//138 108//138
f 103//139 104//139 110//139
f 103//140 110//140 109//140
f 104//141 99//141 105//141
f 104//142 105//142 110//142
f 105//143 106//143 112//143
f 106//144 107//144 113//144
f 107//145 108//145 114//145
f 108//146 109//146 115//146
f 109//147 110//147 116//147
f 110//148 105//148 111//148
