mtllib Food_Tteokbokki.mtl
v 0.0000 0.0000 0.0000
v 0.0000 0.0000 0.0000
v 0.0000 0.0000 0.0000
v 0.0000 0.0000 0.0000
v 0.0000 0.0000 0.0000
v 0.0000 0.0000 0.0000
v 0.0000 0.0000 0.0000
v 0.0000 0.0000 0.0000
v 0.0000 0.0000 0.0000
v 0.0000 0.0000 0.0000
v 0.0000 0.0000 0.0000
v 0.0000 0.0000 0.0000
v 0.4200 0.0000 0.0000
v 0.3637 0.0000 0.2100
v 0.2100 0.0000 0.3637
v 0.0000 0.0000 0.4200
v -0.2100 0.0000 0.3637
v -0.3637 0.0000 0.2100
v -0.4200 0.0000 0.0000
v -0.3637 0.0000 -0.2100
v -0.2100 0.0000 -0.3637
v -0.0000 0.0000 -0.4200
v 0.2100 0.0000 -0.3637
v 0.3637 0.0000 -0.2100
v 0.5000 0.0500 0.0000
v 0.4330 0.0500 0.2500
v 0.2500 0.0500 0.4330
v 0.0000 0.0500 0.5000
v -0.2500 0.0500 0.4330
v -0.4330 0.0500 0.2500
v -0.5000 0.0500 0.0000
v -0.4330 0.0500 -0.2500
v -0.2500 0.0500 -0.4330
v -0.0000 0.0500 -0.5000
v 0.2500 0.0500 -0.4330
v 0.4330 0.0500 -0.2500
v 0.8000 0.2480 0.0000
v 0.6928 0.2480 0.4000
v 0.4000 0.2480 0.6928
v 0.0000 0.2480 0.8000
v -0.4000 0.2480 0.6928
v -0.6928 0.2480 0.4000
v -0.8000 0.2480 0.0000
v -0.6928 0.2480 -0.4000
v -0.4000 0.2480 -0.6928
v -0.0000 0.2480 -0.8000
v 0.4000 0.2480 -0.6928
v 0.6928 0.2480 -0.4000
v 1.0000 0.6200 0.0000
v 0.8660 0.6200 0.5000
v 0.5000 0.6200 0.8660
v 0.0000 0.6200 1.0000
v -0.5000 0.6200 0.8660
v -0.8660 0.6200 0.5000
v -1.0000 0.6200 0.0000
v -0.8660 0.6200 -0.5000
v -0.5000 0.6200 -0.8660
v -0.0000 0.6200 -1.0000
v 0.5000 0.6200 -0.8660
v 0.8660 0.6200 -0.5000
v 0.9300 0.6000 0.0000
v 0.8054 0.6000 0.4650
v 0.4650 0.6000 0.8054
v 0.0000 0.6000 0.9300
v -0.4650 0.6000 0.8054
v -0.8054 0.6000 0.4650
v -0.9300 0.6000 0.0000
v -0.8054 0.6000 -0.4650
v -0.4650 0.6000 -0.8054
v -0.0000 0.6000 -0.9300
v 0.4650 0.6000 -0.8054
v 0.8054 0.6000 -0.4650
v 1.0200 0.6000 0.0000
v 0.8833 0.6000 0.5100
v 0.5100 0.6000 0.8833
v 0.0000 0.6000 1.0200
v -0.5100 0.6000 0.8833
v -0.8833 0.6000 0.5100
v -1.0200 0.6000 0.0000
v -0.8833 0.6000 -0.5100
v -0.5100 0.6000 -0.8833
v -0.0000 0.6000 -1.0200
v 0.5100 0.6000 -0.8833
v 0.8833 0.6000 -0.5100
v 1.0200 0.6700 0.0000
v 0.8833 0.6700 0.5100
v 0.5100 0.6700 0.8833
v 0.0000 0.6700 1.0200
v -0.5100 0.6700 0.8833
v -0.8833 0.6700 0.5100
v -1.0200 0.6700 0.0000
v -0.8833 0.6700 -0.5100
v -0.5100 0.6700 -0.8833
v -0.0000 0.6700 -1.0200
v 0.5100 0.6700 -0.8833
v 0.8833 0.6700 -0.5100
v 0.9300 0.6700 0.0000
v 0.8054 0.6700 0.4650
v 0.4650 0.6700 0.8054
v 0.0000 0.6700 0.9300
v -0.4650 0.6700 0.8054
v -0.8054 0.6700 0.4650
v -0.9300 0.6700 0.0000
v -0.8054 0.6700 -0.4650
v -0.4650 0.6700 -0.8054
v -0.0000 0.6700 -0.9300
v 0.4650 0.6700 -0.8054
v 0.8054 0.6700 -0.4650
v 0.9400 0.6200 0.0000
v 0.8141 0.6200 0.4700
v 0.4700 0.6200 0.8141
v 0.0000 0.6200 0.9400
v -0.4700 0.6200 0.8141
v -0.8141 0.6200 0.4700
v -0.9400 0.6200 0.0000
v -0.8141 0.6200 -0.4700
v -0.4700 0.6200 -0.8141
v -0.0000 0.6200 -0.9400
v 0.4700 0.6200 -0.8141
v 0.8141 0.6200 -0.4700
v 0.7000 0.2508 0.0000
v 0.6062 0.2508 0.3500
v 0.3500 0.2508 0.6062
v 0.0000 0.2508 0.7000
v -0.3500 0.2508 0.6062
v -0.6062 0.2508 0.3500
v -0.7000 0.2508 0.0000
v -0.6062 0.2508 -0.3500
v -0.3500 0.2508 -0.6062
v -0.0000 0.2508 -0.7000
v 0.3500 0.2508 -0.6062
v 0.6062 0.2508 -0.3500
v 0.0000 0.1860 0.0000
v 0.0000 0.1860 0.0000
v 0.0000 0.1860 0.0000
v 0.0000 0.1860 0.0000
v 0.0000 0.1860 0.0000
v 0.0000 0.1860 0.0000
v 0.0000 0.1860 0.0000
v 0.0000 0.1860 0.0000
v 0.0000 0.1860 0.0000
v 0.0000 0.1860 0.0000
v 0.0000 0.1860 0.0000
v 0.0000 0.1860 0.0000
v 0.8600 0.4236 0.0000
v 0.7448 0.4236 0.4300
v 0.4300 0.4236 0.7448
v 0.0000 0.4236 0.8600
v -0.4300 0.4236 0.7448
v -0.7448 0.4236 0.4300
v -0.8600 0.4236 0.0000
v -0.7448 0.4236 -0.4300
v -0.4300 0.4236 -0.7448
v -0.0000 0.4236 -0.8600
v 0.4300 0.4236 -0.7448
v 0.7448 0.4236 -0.4300
v 0.8600 0.4636 0.0000
v 0.7448 0.4636 0.4300
v 0.4300 0.4636 0.7448
v 0.0000 0.4636 0.8600
v -0.4300 0.4636 0.7448
v -0.7448 0.4636 0.4300
v -0.8600 0.4636 0.0000
v -0.7448 0.4636 -0.4300
v -0.4300 0.4636 -0.7448
v -0.0000 0.4636 -0.8600
v 0.4300 0.4636 -0.7448
v 0.7448 0.4636 -0.4300
v 0.0000 0.4236 0.0000
v 0.0000 0.4636 0.0000
v -0.7024 0.5636 0.0283
v -0.7024 0.5636 0.0283
v -0.7024 0.5636 0.0283
v -0.7024 0.5636 0.0283
v -0.7024 0.5636 0.0283
v -0.7024 0.5636 0.0283
v -0.5262 0.7230 -0.0359
v -0.4790 0.6433 0.0939
v -0.4790 0.4839 0.0939
v -0.5262 0.4042 -0.0359
v -0.5734 0.4839 -0.1656
v -0.5734 0.6433 -0.1656
v -0.3500 0.7436 -0.1000
v -0.2967 0.6536 0.0465
v -0.2967 0.4736 0.0465
v -0.3500 0.3836 -0.1000
v -0.4033 0.4736 -0.2465
v -0.4033 0.6536 -0.2465
v -0.1738 0.7230 -0.1641
v -0.1266 0.6433 -0.0344
v -0.1266 0.4839 -0.0344
v -0.1738 0.4042 -0.1641
v -0.2210 0.4839 -0.2939
v -0.2210 0.6433 -0.2939
v 0.0024 0.5636 -0.2283
v 0.0024 0.5636 -0.2283
v 0.0024 0.5636 -0.2283
v 0.0024 0.5636 -0.2283
v 0.0024 0.5636 -0.2283
v 0.0024 0.5636 -0.2283
v 0.0349 0.5636 0.0693
v 0.0349 0.5636 0.0693
v 0.0349 0.5636 0.0693
v 0.0349 0.5636 0.0693
v 0.0349 0.5636 0.0693
v 0.0349 0.5636 0.0693
v 0.0674 0.7230 -0.1153
v 0.2034 0.6433 -0.0914
v 0.2034 0.4839 -0.0914
v 0.0674 0.4042 -0.1153
v -0.0685 0.4839 -0.1393
v -0.0685 0.6433 -0.1393
v 0.1000 0.7436 -0.3000
v 0.2535 0.6536 -0.2729
v 0.2535 0.4736 -0.2729
v 0.1000 0.3836 -0.3000
v -0.0535 0.4736 -0.3271
v -0.0535 0.6536 -0.3271
v 0.1326 0.7230 -0.4847
v 0.2685 0.6433 -0.4607
v 0.2685 0.4839 -0.4607
v 0.1326 0.4042 -0.4847
v -0.0034 0.4839 -0.5086
v -0.0034 0.6433 -0.5086
v 0.1651 0.5636 -0.6693
v 0.1651 0.5636 -0.6693
v 0.1651 0.5636 -0.6693
v 0.1651 0.5636 -0.6693
v 0.1651 0.5636 -0.6693
v 0.1651 0.5636 -0.6693
v 0.0752 0.5636 -0.0875
v 0.0752 0.5636 -0.0875
v 0.0752 0.5636 -0.0875
v 0.0752 0.5636 -0.0875
v 0.0752 0.5636 -0.0875
v 0.0752 0.5636 -0.0875
v 0.2376 0.7230 0.0063
v 0.1686 0.6433 0.1258
v 0.1686 0.4839 0.1258
v 0.2376 0.4042 0.0063
v 0.3067 0.4839 -0.1133
v 0.3067 0.6433 -0.1133
v 0.4000 0.7436 0.1000
v 0.3221 0.6536 0.2350
v 0.3221 0.4736 0.2350
v 0.4000 0.3836 0.1000
v 0.4779 0.4736 -0.0350
v 0.4779 0.6536 -0.0350
v 0.5624 0.7230 0.1937
v 0.4933 0.6433 0.3133
v 0.4933 0.4839 0.3133
v 0.5624 0.4042 0.1938
v 0.6314 0.4839 0.0742
v 0.6314 0.6433 0.0742
v 0.7248 0.5636 0.2875
v 0.7248 0.5636 0.2875
v 0.7248 0.5636 0.2875
v 0.7248 0.5636 0.2875
v 0.7248 0.5636 0.2875
v 0.7248 0.5636 0.2875
v -0.2375 0.5636 0.5748
v -0.2375 0.5636 0.5748
v -0.2375 0.5636 0.5748
v -0.2375 0.5636 0.5748
v -0.2375 0.5636 0.5748
v -0.2375 0.5636 0.5748
v -0.1438 0.7230 0.4124
v -0.0242 0.6433 0.4814
v -0.0242 0.4839 0.4814
v -0.1438 0.4042 0.4124
v -0.2633 0.4839 0.3433
v -0.2633 0.6433 0.3433
v -0.0500 0.7436 0.2500
v 0.0850 0.6536 0.3279
v 0.0850 0.4736 0.3279
v -0.0500 0.3836 0.2500
v -0.1850 0.4736 0.1721
v -0.1850 0.6536 0.1721
v 0.0438 0.7230 0.0876
v 0.1633 0.6433 0.1567
v 0.1633 0.4839 0.1567
v 0.0438 0.4042 0.0876
v -0.0758 0.4839 0.0186
v -0.0758 0.6433 0.0186
v 0.1375 0.5636 -0.0748
v 0.1375 0.5636 -0.0748
v 0.1375 0.5636 -0.0748
v 0.1375 0.5636 -0.0748
v 0.1375 0.5636 -0.0748
v 0.1375 0.5636 -0.0748
v -0.1193 0.5636 0.4651
v -0.1193 0.5636 0.4651
v -0.1193 0.5636 0.4651
v -0.1193 0.5636 0.4651
v -0.1193 0.5636 0.4651
v -0.1193 0.5636 0.4651
v 0.0653 0.7230 0.4326
v 0.0893 0.6433 0.5685
v 0.0893 0.4839 0.5685
v 0.0653 0.4042 0.4326
v 0.0414 0.4839 0.2966
v 0.0414 0.6433 0.2966
v 0.2500 0.7436 0.4000
v 0.2771 0.6536 0.5535
v 0.2771 0.4736 0.5535
v 0.2500 0.3836 0.4000
v 0.2229 0.4736 0.2465
v 0.2229 0.6536 0.2465
v 0.4347 0.7230 0.3674
v 0.4586 0.6433 0.5034
v 0.4586 0.4839 0.5034
v 0.4347 0.4042 0.3674
v 0.4107 0.4839 0.2315
v 0.4107 0.6433 0.2315
v 0.6193 0.5636 0.3349
v 0.6193 0.5636 0.3349
v 0.6193 0.5636 0.3349
v 0.6193 0.5636 0.3349
v 0.6193 0.5636 0.3349
v 0.6193 0.5636 0.3349
v -0.4400 0.6036 0.3000
v -0.4815 0.6036 0.3571
v -0.5485 0.6036 0.3353
v -0.5485 0.6036 0.2647
v -0.4815 0.6036 0.2429
v -0.4400 0.7036 0.3000
v -0.4815 0.7036 0.3571
v -0.5485 0.7036 0.3353
v -0.5485 0.7036 0.2647
v -0.4815 0.7036 0.2429
v -0.5000 0.6036 0.3000
v -0.5000 0.7036 0.3000
v 0.2600 0.6036 -0.0500
v 0.2185 0.6036 0.0071
v 0.1515 0.6036 -0.0147
v 0.1515 0.6036 -0.0853
v 0.2185 0.6036 -0.1071
v 0.2600 0.7036 -0.0500
v 0.2185 0.7036 0.0071
v 0.1515 0.7036 -0.0147
v 0.1515 0.7036 -0.0853
v 0.2185 0.7036 -0.1071
v 0.2000 0.6036 -0.0500
v 0.2000 0.7036 -0.0500
v 0.6100 0.6036 -0.3000
v 0.5685 0.6036 -0.2429
v 0.5015 0.6036 -0.2647
v 0.5015 0.6036 -0.3353
v 0.5685 0.6036 -0.3571
v 0.6100 0.7036 -0.3000
v 0.5685 0.7036 -0.2429
v 0.5015 0.7036 -0.2647
v 0.5015 0.7036 -0.3353
v 0.5685 0.7036 -0.3571
v 0.5500 0.6036 -0.3000
v 0.5500 0.7036 -0.3000
vn 0.0000 1.0000 0.0000
vn 0.0000 1.0000 0.0000
vn 0.0000 1.0000 0.0000
vn 0.0000 1.0000 -0.0000
vn 0.0000 1.0000 0.0000
vn 0.0000 1.0000 0.0000
vn 0.0000 1.0000 0.0000
vn 0.0000 1.0000 0.0000
vn 0.0000 1.0000 0.0000
vn 0.0000 1.0000 0.0000
vn 0.0000 1.0000 0.0000
vn -0.0000 1.0000 0.0000
vn -0.5247 0.8396 -0.1406
vn -0.5247 0.8396 -0.1406
vn -0.3841 0.8396 -0.3841
vn -0.3841 0.8396 -0.3841
vn -0.1406 0.8396 -0.5247
vn -0.1406 0.8396 -0.5247
vn 0.1406 0.8396 -0.5247
vn 0.1406 0.8396 -0.5247
vn 0.3841 0.8396 -0.3841
vn 0.3841 0.8396 -0.3841
vn 0.5247 0.8396 -0.1406
vn 0.5247 0.8396 -0.1406
vn 0.5247 0.8396 0.1406
vn 0.5247 0.8396 0.1406
vn 0.3841 0.8396 0.3841
vn 0.3841 0.8396 0.3841
vn 0.1406 0.8396 0.5247
vn 0.1406 0.8396 0.5247
vn -0.1406 0.8396 0.5247
vn -0.1406 0.8396 0.5247
vn -0.3841 0.8396 0.3841
vn -0.3841 0.8396 0.3841
vn -0.5247 0.8396 0.1406
vn -0.5247 0.8396 0.1406
vn -0.5449 0.8257 -0.1460
vn -0.5449 0.8257 -0.1460
vn -0.3989 0.8257 -0.3989
vn -0.3989 0.8257 -0.3989
vn -0.1460 0.8257 -0.5449
vn -0.1460 0.8257 -0.5449
vn 0.1460 0.8257 -0.5449
vn 0.1460 0.8257 -0.5449
vn 0.3989 0.8257 -0.3989
vn 0.3989 0.8257 -0.3989
vn 0.5449 0.8257 -0.1460
vn 0.5449 0.8257 -0.1460
vn 0.5449 0.8257 0.1460
vn 0.5449 0.8257 0.1460
vn 0.3989 0.8257 0.3989
vn 0.3989 0.8257 0.3989
vn 0.1460 0.8257 0.5449
vn 0.1460 0.8257 0.5449
vn -0.1460 0.8257 0.5449
vn -0.1460 0.8257 0.5449
vn -0.3989 0.8257 0.3989
vn -0.3989 0.8257 0.3989
vn -0.5449 0.8257 0.1460
vn -0.5449 0.8257 0.1460
vn -0.8572 0.4609 -0.2297
vn -0.8572 0.4609 -0.2297
vn -0.6275 0.4609 -0.6275
vn -0.6275 0.4609 -0.6275
vn -0.2297 0.4609 -0.8572
vn -0.2297 0.4609 -0.8572
vn 0.2297 0.4609 -0.8572
vn 0.2297 0.4609 -0.8572
vn 0.6275 0.4609 -0.6275
vn 0.6275 0.4609 -0.6275
vn 0.8572 0.4609 -0.2297
vn 0.8572 0.4609 -0.2297
vn 0.8572 0.4609 0.2297
vn 0.8572 0.4609 0.2297
vn 0.6275 0.4609 0.6275
vn 0.6275 0.4609 0.6275
vn 0.2297 0.4609 0.8572
vn 0.2297 0.4609 0.8572
vn -0.2297 0.4609 0.8572
vn -0.2297 0.4609 0.8572
vn -0.6275 0.4609 0.6275
vn -0.6275 0.4609 0.6275
vn -0.8572 0.4609 0.2297
vn -0.8572 0.4609 0.2297
vn 0.0000 1.0000 0.0000
vn 0.0000 1.0000 -0.0000
vn 0.0000 1.0000 0.0000
vn 0.0000 1.0000 -0.0000
vn 0.0000 1.0000 0.0000
vn 0.0000 1.0000 -0.0000
vn 0.0000 1.0000 0.0000
vn 0.0000 1.0000 -0.0000
vn 0.0000 1.0000 0.0000
vn 0.0000 1.0000 0.0000
vn 0.0000 1.0000 0.0000
vn 0.0000 1.0000 0.0000
vn 0.0000 1.0000 0.0000
vn 0.0000 1.0000 0.0000
vn 0.0000 1.0000 0.0000
vn 0.0000 1.0000 0.0000
vn 0.0000 1.0000 0.0000
vn 0.0000 1.0000 0.0000
vn 0.0000 1.0000 0.0000
vn -0.0000 1.0000 0.0000
vn 0.0000 1.0000 0.0000
vn -0.0000 1.0000 0.0000
vn 0.0000 1.0000 0.0000
vn -0.0000 1.0000 0.0000
vn -0.9659 0.0000 -0.2588
vn -0.9659 0.0000 -0.2588
vn -0.7071 0.0000 -0.7071
vn -0.7071 0.0000 -0.7071
vn -0.2588 0.0000 -0.9659
vn -0.2588 0.0000 -0.9659
vn 0.2588 0.0000 -0.9659
vn 0.2588 0.0000 -0.9659
vn 0.7071 0.0000 -0.7071
vn 0.7071 0.0000 -0.7071
vn 0.9659 0.0000 -0.2588
vn 0.9659 0.0000 -0.2588
vn 0.9659 0.0000 0.2588
vn 0.9659 -0.0000 0.2588
vn 0.7071 0.0000 0.7071
vn 0.7071 -0.0000 0.7071
vn 0.2588 0.0000 0.9659
vn 0.2588 -0.0000 0.9659
vn -0.2588 0.0000 0.9659
vn -0.2588 0.0000 0.9659
vn -0.7071 0.0000 0.7071
vn -0.7071 0.0000 0.7071
vn -0.9659 0.0000 0.2588
vn -0.9659 0.0000 0.2588
vn 0.0000 -1.0000 0.0000
vn 0.0000 -1.0000 0.0000
vn 0.0000 -1.0000 0.0000
vn -0.0000 -1.0000 0.0000
vn 0.0000 -1.0000 0.0000
vn -0.0000 -1.0000 0.0000
vn 0.0000 -1.0000 0.0000
vn 0.0000 -1.0000 0.0000
vn 0.0000 -1.0000 0.0000
vn 0.0000 -1.0000 -0.0000
vn 0.0000 -1.0000 0.0000
vn 0.0000 -1.0000 -0.0000
vn 0.0000 -1.0000 0.0000
vn 0.0000 -1.0000 0.0000
vn 0.0000 -1.0000 0.0000
vn 0.0000 -1.0000 0.0000
vn 0.0000 -1.0000 0.0000
vn 0.0000 -1.0000 0.0000
vn 0.0000 -1.0000 0.0000
vn 0.0000 -1.0000 0.0000
vn 0.0000 -1.0000 0.0000
vn 0.0000 -1.0000 0.0000
vn 0.0000 -1.0000 0.0000
vn 0.0000 -1.0000 0.0000
vn 0.9659 0.0000 0.2588
vn 0.9659 0.0000 0.2588
vn 0.7071 0.0000 0.7071
vn 0.7071 0.0000 0.7071
vn 0.2588 0.0000 0.9659
vn 0.2588 0.0000 0.9659
vn -0.2588 0.0000 0.9659
vn -0.2588 0.0000 0.9659
vn -0.7071 0.0000 0.7071
vn -0.7071 0.0000 0.7071
vn -0.9659 0.0000 0.2588
vn -0.9659 0.0000 0.2588
vn -0.9659 0.0000 -0.2588
vn -0.9659 -0.0000 -0.2588
vn -0.7071 0.0000 -0.7071
vn -0.7071 -0.0000 -0.7071
vn -0.2588 0.0000 -0.9659
vn -0.2588 -0.0000 -0.9659
vn 0.2588 0.0000 -0.9659
vn 0.2588 0.0000 -0.9659
vn 0.7071 0.0000 -0.7071
vn 0.7071 0.0000 -0.7071
vn 0.9659 0.0000 -0.2588
vn 0.9659 0.0000 -0.2588
vn 0.8180 -0.5318 0.2192
vn 0.8180 -0.5318 0.2192
vn 0.5988 -0.5318 0.5988
vn 0.5988 -0.5318 0.5988
vn 0.2192 -0.5318 0.8180
vn 0.2192 -0.5318 0.8180
vn -0.2192 -0.5318 0.8180
vn -0.2192 -0.5318 0.8180
vn -0.5988 -0.5318 0.5988
vn -0.5988 -0.5318 0.5988
vn -0.8180 -0.5318 0.2192
vn -0.8180 -0.5318 0.2192
vn -0.8180 -0.5318 -0.2192
vn -0.8180 -0.5318 -0.2192
vn -0.5988 -0.5318 -0.5988
vn -0.5988 -0.5318 -0.5988
vn -0.2192 -0.5318 -0.8180
vn -0.2192 -0.5318 -0.8180
vn 0.2192 -0.5318 -0.8180
vn 0.2192 -0.5318 -0.8180
vn 0.5988 -0.5318 -0.5988
vn 0.5988 -0.5318 -0.5988
vn 0.8180 -0.5318 -0.2192
vn 0.8180 -0.5318 -0.2192
vn 0.0921 -0.9954 0.0247
vn 0.0675 -0.9954 0.0675
vn 0.0247 -0.9954 0.0921
vn -0.0247 -0.9954 0.0921
vn -0.0675 -0.9954 0.0675
vn -0.0921 -0.9954 0.0247
vn -0.0921 -0.9954 -0.0247
vn -0.0675 -0.9954 -0.0675
vn -0.0247 -0.9954 -0.0921
vn 0.0247 -0.9954 -0.0921
vn 0.0675 -0.9954 -0.0675
vn 0.0921 -0.9954 -0.0247
vn -0.9659 0.0000 -0.2588
vn -0.9659 0.0000 -0.2588
vn -0.7071 0.0000 -0.7071
vn -0.7071 0.0000 -0.7071
vn -0.2588 0.0000 -0.9659
vn -0.2588 0.0000 -0.9659
vn 0.2588 0.0000 -0.9659
vn 0.2588 0.0000 -0.9659
vn 0.7071 0.0000 -0.7071
vn 0.7071 0.0000 -0.7071
vn 0.9659 0.0000 -0.2588
vn 0.9659 0.0000 -0.2588
vn 0.9659 0.0000 0.2588
vn 0.9659 -0.0000 0.2588
vn 0.7071 0.0000 0.7071
vn 0.7071 -0.0000 0.7071
vn 0.2588 0.0000 0.9659
vn 0.2588 -0.0000 0.9659
vn -0.2588 0.0000 0.9659
vn -0.2588 0.0000 0.9659
vn -0.7071 0.0000 0.7071
vn -0.7071 0.0000 0.7071
vn -0.9659 0.0000 0.2588
vn -0.9659 0.0000 0.2588
vn 0.0000 -1.0000 0.0000
vn 0.0000 -1.0000 0.0000
vn 0.0000 -1.0000 0.0000
vn 0.0000 -1.0000 0.0000
vn 0.0000 -1.0000 0.0000
vn 0.0000 -1.0000 0.0000
vn -0.0000 -1.0000 0.0000
vn 0.0000 -1.0000 0.0000
vn 0.0000 -1.0000 0.0000
vn 0.0000 -1.0000 -0.0000
vn 0.0000 -1.0000 0.0000
vn 0.0000 -1.0000 0.0000
vn 0.0000 -1.0000 0.0000
vn 0.0000 -1.0000 0.0000
vn 0.0000 -1.0000 0.0000
vn 0.0000 -1.0000 0.0000
vn 0.0000 -1.0000 0.0000
vn 0.0000 -1.0000 0.0000
vn -0.0000 -1.0000 0.0000
vn 0.0000 -1.0000 0.0000
vn 0.0000 -1.0000 0.0000
vn 0.0000 -1.0000 -0.0000
vn 0.0000 -1.0000 0.0000
vn 0.0000 -1.0000 0.0000
vn -0.4195 0.6973 0.5811
vn -0.2818 0.0000 0.9595
vn -0.4195 -0.6973 0.5811
vn -0.6949 -0.6973 -0.1755
vn -0.8326 0.0000 -0.5539
vn -0.6949 0.6973 -0.1755
vn 0.0814 0.8621 0.5001
vn 0.0814 0.8621 0.5001
vn 0.2516 0.0000 0.9678
vn 0.2516 0.0000 0.9678
vn 0.0814 -0.8621 0.5001
vn 0.0814 -0.8621 0.5001
vn -0.2591 -0.8621 -0.4354
vn -0.2591 -0.8621 -0.4354
vn -0.4293 0.0000 -0.9031
vn -0.4293 0.0000 -0.9031
vn -0.2591 0.8621 -0.4354
vn -0.2591 0.8621 -0.4354
vn 0.2591 0.8621 0.4354
vn 0.2591 0.8621 0.4354
vn 0.4293 0.0000 0.9031
vn 0.4293 0.0000 0.9031
vn 0.2591 -0.8621 0.4354
vn 0.2591 -0.8621 0.4354
vn -0.0814 -0.8621 -0.5001
vn -0.0814 -0.8621 -0.5001
vn -0.2516 0.0000 -0.9678
vn -0.2516 0.0000 -0.9678
vn -0.0814 0.8621 -0.5001
vn -0.0814 0.8621 -0.5001
vn 0.6949 0.6973 0.1755
vn 0.6949 0.6973 0.1755
vn 0.8326 0.0000 0.5539
vn 0.8326 0.0000 0.5539
vn 0.6949 -0.6973 0.1755
vn 0.6949 -0.6973 0.1755
vn 0.4195 -0.6973 -0.5811
vn 0.4195 -0.6973 -0.5811
vn 0.2818 0.0000 -0.9595
vn 0.2818 0.0000 -0.9595
vn 0.4195 0.6973 -0.5811
vn 0.4195 0.6973 -0.5811
vn 0.2935 0.6973 0.6539
vn 0.6900 0.0000 0.7238
vn 0.2935 -0.6973 0.6539
vn -0.4995 -0.6973 0.5141
vn -0.8960 0.0000 0.4441
vn -0.4995 0.6973 0.5141
vn 0.4738 0.8621 0.1795
vn 0.4738 0.8621 0.1795
vn 0.9640 0.0000 0.2660
vn 0.9640 0.0000 0.2660
vn 0.4738 -0.8621 0.1795
vn 0.4738 -0.8621 0.1795
vn -0.5066 -0.8621 0.0067
vn -0.5066 -0.8621 0.0067
vn -0.9968 0.0000 -0.0798
vn -0.9968 0.0000 -0.0798
vn -0.5066 0.8621 0.0067
vn -0.5066 0.8621 0.0067
vn 0.5066 0.8621 -0.0067
vn 0.5066 0.8621 -0.0067
vn 0.9968 0.0000 0.0798
vn 0.9968 0.0000 0.0798
vn 0.5066 -0.8621 -0.0067
vn 0.5066 -0.8621 -0.0067
vn -0.4738 -0.8621 -0.1795
vn -0.4738 -0.8621 -0.1795
vn -0.9640 0.0000 -0.2660
vn -0.9640 0.0000 -0.2660
vn -0.4738 0.8621 -0.1795
vn -0.4738 0.8621 -0.1795
vn 0.4995 0.6973 -0.5141
vn 0.4995 0.6973 -0.5141
vn 0.8960 0.0000 -0.4441
vn 0.8960 0.0000 -0.4441
vn 0.4995 -0.6973 -0.5141
vn 0.4995 -0.6973 -0.5141
vn -0.2935 -0.6973 -0.6539
vn -0.2935 -0.6973 -0.6539
vn -0.6900 0.0000 -0.7238
vn -0.6900 0.0000 -0.7238
vn -0.2935 0.6973 -0.6539
vn -0.2935 0.6973 -0.6539
vn -0.7148 0.6973 0.0522
vn -0.9161 0.0000 0.4009
vn -0.7148 -0.6973 0.0522
vn -0.3122 -0.6973 -0.6452
vn -0.1109 0.0000 -0.9938
vn -0.3122 0.6973 -0.6452
vn -0.3308 0.8621 0.3838
vn -0.3308 0.8621 0.3838
vn -0.5796 0.0000 0.8149
vn -0.5796 0.0000 0.8149
vn -0.3308 -0.8621 0.3838
vn -0.3308 -0.8621 0.3838
vn 0.1670 -0.8621 -0.4783
vn 0.1670 -0.8621 -0.4783
vn 0.4159 0.0000 -0.9094
vn 0.4159 0.0000 -0.9094
vn 0.1670 0.8621 -0.4783
vn 0.1670 0.8621 -0.4783
vn -0.1670 0.8621 0.4783
vn -0.1670 0.8621 0.4783
vn -0.4159 0.0000 0.9094
vn -0.4159 0.0000 0.9094
vn -0.1670 -0.8621 0.4783
vn -0.1670 -0.8621 0.4783
vn 0.3308 -0.8621 -0.3838
vn 0.3308 -0.8621 -0.3838
vn 0.5796 0.0000 -0.8149
vn 0.5796 0.0000 -0.8149
vn 0.3308 0.8621 -0.3838
vn 0.3308 0.8621 -0.3838
vn 0.3122 0.6973 0.6452
vn 0.3122 0.6973 0.6452
vn 0.1109 0.0000 0.9938
vn 0.1109 0.0000 0.9938
vn 0.3122 -0.6973 0.6452
vn 0.3122 -0.6973 0.6452
vn 0.7148 -0.6973 -0.0522
vn 0.7148 -0.6973 -0.0522
vn 0.9161 0.0000 -0.4009
vn 0.9161 0.0000 -0.4009
vn 0.7148 0.6973 -0.0522
vn 0.7148 0.6973 -0.0522
vn 0.0522 0.6973 0.7148
vn 0.4009 0.0000 0.9161
vn 0.0522 -0.6973 0.7148
vn -0.6452 -0.6973 0.3122
vn -0.9938 0.0000 0.1109
vn -0.6452 0.6973 0.3122
vn 0.3838 0.8621 0.3308
vn 0.3838 0.8621 0.3308
vn 0.8149 0.0000 0.5796
vn 0.8149 0.0000 0.5796
vn 0.3838 -0.8621 0.3308
vn 0.3838 -0.8621 0.3308
vn -0.4783 -0.8621 -0.1670
vn -0.4783 -0.8621 -0.1670
vn -0.9094 0.0000 -0.4159
vn -0.9094 0.0000 -0.4159
vn -0.4783 0.8621 -0.1670
vn -0.4783 0.8621 -0.1670
vn 0.4783 0.8621 0.1670
vn 0.4783 0.8621 0.1670
vn 0.9094 0.0000 0.4159
vn 0.9094 0.0000 0.4159
vn 0.4783 -0.8621 0.1670
vn 0.4783 -0.8621 0.1670
vn -0.3838 -0.8621 -0.3308
vn -0.3838 -0.8621 -0.3308
vn -0.8149 0.0000 -0.5796
vn -0.8149 0.0000 -0.5796
vn -0.3838 0.8621 -0.3308
vn -0.3838 0.8621 -0.3308
vn 0.6452 0.6973 -0.3122
vn 0.6452 0.6973 -0.3122
vn 0.9938 0.0000 -0.1109
vn 0.9938 0.0000 -0.1109
vn 0.6452 -0.6973 -0.3122
vn 0.6452 -0.6973 -0.3122
vn -0.0522 -0.6973 -0.7148
vn -0.0522 -0.6973 -0.7148
vn -0.4009 0.0000 -0.9161
vn -0.4009 0.0000 -0.9161
vn -0.0522 0.6973 -0.7148
vn -0.0522 0.6973 -0.7148
vn -0.5141 0.6973 0.4995
vn -0.4441 0.0000 0.8960
vn -0.5141 -0.6973 0.4995
vn -0.6539 -0.6973 -0.2935
vn -0.7238 0.0000 -0.6900
vn -0.6539 0.6973 -0.2935
vn -0.0067 0.8621 0.5066
vn -0.0067 0.8621 0.5066
vn 0.0798 0.0000 0.9968
vn 0.0798 0.0000 0.9968
vn -0.0067 -0.8621 0.5066
vn -0.0067 -0.8621 0.5066
vn -0.1795 -0.8621 -0.4738
vn -0.1795 -0.8621 -0.4738
vn -0.2660 0.0000 -0.9640
vn -0.2660 0.0000 -0.9640
vn -0.1795 0.8621 -0.4738
vn -0.1795 0.8621 -0.4738
vn 0.1795 0.8621 0.4738
vn 0.1795 0.8621 0.4738
vn 0.2660 0.0000 0.9640
vn 0.2660 0.0000 0.9640
vn 0.1795 -0.8621 0.4738
vn 0.1795 -0.8621 0.4738
vn 0.0067 -0.8621 -0.5066
vn 0.0067 -0.8621 -0.5066
vn -0.0798 0.0000 -0.9968
vn -0.0798 0.0000 -0.9968
vn 0.0067 0.8621 -0.5066
vn 0.0067 0.8621 -0.5066
vn 0.6539 0.6973 0.2935
vn 0.6539 0.6973 0.2935
vn 0.7238 0.0000 0.6900
vn 0.7238 0.0000 0.6900
vn 0.6539 -0.6973 0.2935
vn 0.6539 -0.6973 0.2935
vn 0.5141 -0.6973 -0.4995
vn 0.5141 -0.6973 -0.4995
vn 0.4441 0.0000 -0.8960
vn 0.4441 0.0000 -0.8960
vn 0.5141 0.6973 -0.4995
vn 0.5141 0.6973 -0.4995
vn -0.8090 0.0000 -0.5878
vn -0.8090 0.0000 -0.5878
vn 0.3090 0.0000 -0.9511
vn 0.3090 0.0000 -0.9511
vn 1.0000 0.0000 0.0000
vn 1.0000 -0.0000 0.0000
vn 0.3090 0.0000 0.9511
vn 0.3090 -0.0000 0.9511
vn -0.8090 0.0000 0.5878
vn -0.8090 0.0000 0.5878
vn 0.0000 -1.0000 0.0000
vn 0.0000 -1.0000 0.0000
vn -0.0000 -1.0000 0.0000
vn 0.0000 -1.0000 -0.0000
vn 0.0000 -1.0000 0.0000
vn 0.0000 -1.0000 0.0000
vn 0.0000 -1.0000 0.0000
vn -0.0000 -1.0000 0.0000
vn 0.0000 -1.0000 -0.0000
vn 0.0000 -1.0000 0.0000
vn -0.8090 0.0000 -0.5878
vn -0.8090 0.0000 -0.5878
vn 0.3090 0.0000 -0.9511
vn 0.3090 0.0000 -0.9511
vn 1.0000 0.0000 0.0000
vn 1.0000 -0.0000 0.0000
vn 0.3090 0.0000 0.9511
vn 0.3090 -0.0000 0.9511
vn -0.8090 0.0000 0.5878
vn -0.8090 0.0000 0.5878
vn 0.0000 -1.0000 0.0000
vn 0.0000 -1.0000 0.0000
vn -0.0000 -1.0000 0.0000
vn 0.0000 -1.0000 -0.0000
vn 0.0000 -1.0000 0.0000
vn 0.0000 -1.0000 0.0000
vn 0.0000 -1.0000 0.0000
vn -0.0000 -1.0000 0.0000
vn 0.0000 -1.0000 -0.0000
vn 0.0000 -1.0000 0.0000
vn -0.8090 0.0000 -0.5878
vn -0.8090 0.0000 -0.5878
vn 0.3090 0.0000 -0.9511
vn 0.3090 0.0000 -0.9511
vn 1.0000 0.0000 0.0000
vn 1.0000 -0.0000 0.0000
vn 0.3090 0.0000 0.9511
vn 0.3090 -0.0000 0.9511
vn -0.8090 0.0000 0.5878
vn -0.8090 0.0000 0.5878
vn 0.0000 -1.0000 0.0000
vn 0.0000 -1.0000 0.0000
vn -0.0000 -1.0000 0.0000
vn 0.0000 -1.0000 -0.0000
vn 0.0000 -1.0000 0.0000
vn 0.0000 -1.0000 0.0000
vn 0.0000 -1.0000 0.0000
vn -0.0000 -1.0000 0.0000
vn 0.0000 -1.0000 -0.0000
vn 0.0000 -1.0000 0.0000
usemtl c0
f 1//1 14//1 13//1
f 2//2 15//2 14//2
f 3//3 16//3 15//3
f 4//4 17//4 16//4
f 5//5 18//5 17//5
f 6//6 19//6 18//6
f 7//7 20//7 19//7
f 8//8 21//8 20//8
f 9//9 22//9 21//9
f 10//10 23//10 22//10
f 11//11 24//11 23//11
f 12//12 13//12 24//12
f 13//13 14//13 26//13
f 13//14 26//14 25//14
f 14//15 15//15 27//15
f 14//16 27//16 26//16
f 15//17 16//17 28//17
f 15//18 28//18 27//18
f 16//19 17//19 29//19
f 16//20 29//20 28//20
f 17//21 18//21 30//21
f 17//22 30//22 29//22
f 18//23 19//23 31//23
f 18//24 31//24 30//24
f 19//25 20//25 32//25
f 19//26 32//26 31//26
f 20//27 21//27 33//27
f 20//28 33//28 32//28
f 21//29 22//29 34//29
f 21//30 34//30 33//30
f 22//31 23//31 35//31
f 22//32 35//32 34//32
f 23//33 24//33 36//33
f 23//34 36//34 35//34
f 24//35 13//35 25//35
f 24//36 25//36 36//36
f 25//37 26//37 38//37
f 25//38 38//38 37//38
f 26//39 27//39 39//39
f 26//40 39//40 38//40
f 27//41 28//41 40//41
f 27//42 40//42 39//42
f 28//43 29//43 41//43
f 28//44 41//44 40//44
f 29//45 30//45 42//45
f 29//46 42//46 41//46
f 30//47 31//47 43//47
f 30//48 43//48 42//48
f 31//49 32//49 44//49
f 31//50 44//50 43//50
f 32//51 33//51 45//51
f 32//52 45//52 44//52
f 33//53 34//53 46//53
f 33//54 46//54 45//54
f 34//55 35//55 47//55
f 34//56 47//56 46//56
f 35//57 36//57 48//57
f 35//58 48//58 47//58
f 36//59 25//59 37//59
f 36//60 37//60 48//60
f 37//61 38//61 50//61
f 37//62 50//62 49//62
f 38//63 39//63 51//63
f 38//64 51//64 50//64
f 39//65 40//65 52//65
f 39//66 52//66 51//66
f 40//67 41//67 53//67
f 40//68 53//68 52//68
f 41//69 42//69 54//69
f 41//70 54//70 53//70
f 42//71 43//71 55//71
f 42//72 55//72 54//72
f 43//73 44//73 56//73
f 43//74 56//74 55//74
f 44//75 45//75 57//75
f 44//76 57//76 56//76
f 45//77 46//77 58//77
f 45//78 58//78 57//78
f 46//79 47//79 59//79
f 46//80 59//80 58//80
f 47//81 48//81 60//81
f 47//82 60//82 59//82
f 48//83 37//83 49//83
f 48//84 49//84 60//84
usemtl c1
f 61//85 62//85 74//85
f 61//86 74//86 73//86
f 62//87 63//87 75//87
f 62//88 75//88 74//88
f 63//89 64//89 76//89
f 63//90 76//90 75//90
f 64//91 65//91 77//91
f 64//92 77//92 76//92
f 65//93 66//93 78//93
f 65//94 78//94 77//94
f 66//95 67//95 79//95
f 66//96 79//96 78//96
f 67//97 68//97 80//97
f 67//98 80//98 79//98
f 68//99 69//99 81//99
f 68//100 81//100 80//100
f 69//101 70//101 82//101
f 69//102 82//102 81//102
f 70//103 71//103 83//103
f 70//104 83//104 82//104
f 71//105 72//105 84//105
f 71//106 84//106 83//106
f 72//107 61//107 73//107
f 72//108 73//108 84//108
f 73//109 74//109 86//109
f 73//110 86//110 85//110
f 74//111 75//111 87//111
f 74//112 87//112 86//112
f 75//113 76//113 88//113
f 75//114 88//114 87//114
f 76//115 77//115 89//115
f 76//116 89//116 88//116
f 77//117 78//117 90//117
f 77//118 90//118 89//118
f 78//119 79//119 91//119
f 78//120 91//120 90//120
f 79//121 80//121 92//121
f 79//122 92//122 91//122
f 80//123 81//123 93//123
f 80//124 93//124 92//124
f 81//125 82//125 94//125
f 81//126 94//126 93//126
f 82//127 83//127 95//127
f 82//128 95//128 94//128
f 83//129 84//129 96//129
f 83//130 96//130 95//130
f 84//131 73//131 85//131
f 84//132 85//132 96//132
f 85//133 86//133 98//133
f 85//134 98//134 97//134
f 86//135 87//135 99//135
f 86//136 99//136 98//136
f 87//137 88//137 100//137
f 87//138 100//138 99//138
f 88//139 89//139 101//139
f 88//140 101//140 100//140
f 89//141 90//141 102//141
f 89//142 102//142 101//142
f 90//143 91//143 103//143
f 90//144 103//144 102//144
f 91//145 92//145 104//145
f 91//146 104//146 103//146
f 92//147 93//147 105//147
f 92//148 105//148 104//148
f 93//149 94//149 106//149
f 93//150 106//150 105//150
f 94//151 95//151 107//151
f 94//152 107//152 106//152
f 95//153 96//153 108//153
f 95//154 108//154 107//154
f 96//155 85//155 97//155
f 96//156 97//156 108//156
f 97//157 98//157 62//157
f 97//158 62//158 61//158
f 98//159 99//159 63//159
f 98//160 63//160 62//160
f 99//161 100//161 64//161
f 99//162 64//162 63//162
f 100//163 101//163 65//163
f 100//164 65//164 64//164
f 101//165 102//165 66//165
f 101//166 66//166 65//166
f 102//167 103//167 67//167
f 102//168 67//168 66//168
f 103//169 104//169 68//169
f 103//170 68//170 67//170
f 104//171 105//171 69//171
f 104//172 69//172 68//172
f 105//173 106//173 70//173
f 105//174 70//174 69//174
f 106//175 107//175 71//175
f 106//176 71//176 70//176
f 107//177 108//177 72//177
f 107//178 72//178 71//178
f 108//179 97//179 61//179
f 108//180 61//180 72//180
f 109//181 110//181 122//181
f 109//182 122//182 121//182
f 110//183 111//183 123//183
f 110//184 123//184 122//184
f 111//185 112//185 124//185
f 111//186 124//186 123//186
f 112//187 113//187 125//187
f 112//188 125//188 124//188
f 113//189 114//189 126//189
f 113//190 126//190 125//190
f 114//191 115//191 127//191
f 114//192 127//192 126//192
f 115//193 116//193 128//193
f 115//194 128//194 127//194
f 116//195 117//195 129//195
f 116//196 129//196 128//196
f 117//197 118//197 130//197
f 117//198 130//198 129//198
f 118//199 119//199 131//199
f 118//200 131//200 130//200
f 119//201 120//201 132//201
f 119//202 132//202 131//202
f 120//203 109//203 121//203
f 120//204 121//204 132//204
f 121//205 122//205 134//205
f 122//206 123//206 135//206
f 123//207 124//207 136//207
f 124//208 125//208 137//208
f 125//209 126//209 138//209
f 126//210 127//210 139//210
f 127//211 128//211 140//211
f 128//212 129//212 141//212
f 129//213 130//213 142//213
f 130//214 131//214 143//214
f 131//215 132//215 144//215
f 132//216 121//216 133//216
usemtl c2
f 145//217 146//217 158//217
f 145//218 158//218 157//218
f 146//219 147//219 159//219
f 146//220 159//220 158//220
f 147//221 148//221 160//221
f 147//222 160//222 159//222
f 148//223 149//223 161//223
f 148//224 161//224 160//224
f 149//225 150//225 162//225
f 149//226 162//226 161//226
f 150//227 151//227 163//227
f 150//228 163//228 162//228
f 151//229 152//229 164//229
f 151//230 164//230 163//230
f 152//231 153//231 165//231
f 152//232 165//232 164//232
f 153//233 154//233 166//233
f 153//234 166//234 165//234
f 154//235 155//235 167//235
f 154//236 167//236 166//236
f 155//237 156//237 168//237
f 155//238 168//238 167//238
f 156//239 145//239 157//239
f 156//240 157//240 168//240
f 169//241 145//241 146//241
f 169//242 146//242 147//242
f 169//243 147//243 148//243
f 169//244 148//244 149//244
f 169//245 149//245 150//245
f 169//246 150//246 151//246
f 169//247 151//247 152//247
f 169//248 152//248 153//248
f 169//249 153//249 154//249
f 169//250 154//250 155//250
f 169//251 155//251 156//251
f 169//252 156//252 145//252
f 170//253 157//253 158//253
f 170//254 158//254 159//254
f 170//255 159//255 160//255
f 170//256 160//256 161//256
f 170//257 161//257 162//257
f 170//258 162//258 163//258
f 170//259 163//259 164//259
f 170//260 164//260 165//260
f 170//261 165//261 166//261
f 170//262 166//262 167//262
f 170//263 167//263 168//263
f 170//264 168//264 157//264
usemtl c3
f 171//265 178//265 177//265
f 172//266 179//266 178//266
f 173//267 180//267 179//267
f 174//268 181//268 180//268
f 175//269 182//269 181//269
f 176//270 177//270 182//270
f 177//271 178//271 184//271
f 177//272 184//272 183//272
f 178//273 179//273 185//273
f 178//274 185//274 184//274
f 179//275 180//275 186//275
f 179//276 186//276 185//276
f 180//277 181//277 187//277
f 180//278 187//278 186//278
f 181//279 182//279 188//279
f 181//280 188//280 187//280
f 182//281 177//281 183//281
f 182//282 183//282 188//282
f 183//283 184//283 190//283
f 183//284 190//284 189//284
f 184//285 185//285 191//285
f 184//286 191//286 190//286
f 185//287 186//287 192//287
f 185//288 192//288 191//288
f 186//289 187//289 193//289
f 186//290 193//290 192//290
f 187//291 188//291 194//291
f 187//292 194//292 193//292
f 188//293 183//293 189//293
f 188//294 189//294 194//294
f 189//295 190//295 196//295
f 189//296 196//296 195//296
f 190//297 191//297 197//297
f 190//298 197//298 196//298
f 191//299 192//299 198//299
f 191//300 198//300 197//300
f 192//301 193//301 199//301
f 192//302 199//302 198//302
f 193//303 194//303 200//303
f 193//304 200//304 199//304
f 194//305 189//305 195//305
f 194//306 195//306 200//306
f 201//307 208//307 207//307
f 202//308 209//308 208//308
f 203//309 210//309 209//309
f 204//310 211//310 210//310
f 205//311 212//311 211//311
f 206//312 207//312 212//312
f 207//313 208//313 214//313
f 207//314 214//314 213//314
f 208//315 209//315 215//315
f 208//316 215//316 214//316
f 209//317 210//317 216//317
f 209//318 216//318 215//318
f 210//319 211//319 217//319
f 210//320 217//320 216//320
f 211//321 212//321 218//321
f 211//322 218//322 217//322
f 212//323 207//323 213//323
f 212//324 213//324 218//324
f 213//325 214//325 220//325
f 213//326 220//326 219//326
f 214//327 215//327 221//327
f 214//328 221//328 220//328
f 215//329 216//329 222//329
f 215//330 222//330 221//330
f 216//331 217//331 223//331
f 216//332 223//332 222//332
f 217//333 218//333 224//333
f 217//334 224//334 223//334
f 218//335 213//335 219//335
f 218//336 219//336 224//336
f 219//337 220//337 226//337
f 219//338 226//338 225//338
f 220//339 221//339 227//339
f 220//340 227//340 226//340
f 221//341 222//341 228//341
f 221//342 228//342 227//342
f 222//343 223//343 229//343
f 222//344 229//344 228//344
f 223//345 224//345 230//345
f 223//346 230//346 229//346
f 224//347 219//347 225//347
f 224//348 225//348 230//348
f 231//349 238//349 237//349
f 232//350 239//350 238//350
f 233//351 240//351 239//351
f 234//352 241//352 240//352
f 235//353 242//353 241//353
f 236//354 237//354 242//354
f 237//355 238//355 244//355
f 237//356 244//356 243//356
f 238//357 239//357 245//357
f 238//358 245//358 244//358
f 239//359 240//359 246//359
f 239//360 246//360 245//360
f 240//361 241//361 247//361
f 240//362 247//362 246//362
f 241//363 242//363 248//363
f 241//364 248//364 247//364
f 242//365 237//365 243//365
f 242//366 243//366 248//366
f 243//367 244//367 250//367
f 243//368 250//368 249//368
f 244//369 245//369 251//369
f 244//370 251//370 250//370
f 245//371 246//371 252//371
f 245//372 252//372 251//372
f 246//373 247//373 253//373
f 246//374 253//374 252//374
f 247//375 248//375 254//375
f 247//376 254//376 253//376
f 248//377 243//377 249//377
f 248//378 249//378 254//378
f 249//379 250//379 256//379
f 249//380 256//380 255//380
f 250//381 251//381 257//381
f 250//382 257//382 256//382
f 251//383 252//383 258//383
f 251//384 258//384 257//384
f 252//385 253//385 259//385
f 252//386 259//386 258//386
f 253//387 254//387 260//387
f 253//388 260//388 259//388
f 254//389 249//389 255//389
f 254//390 255//390 260//390
f 261//391 268//391 267//391
f 262//392 269//392 268//392
f 263//393 270//393 269//393
f 264//394 271//394 270//394
f 265//395 272//395 271//395
f 266//396 267//396 272//396
f 267//397 268//397 274//397
f 267//398 274//398 273//398
f 268//399 269//399 275//399
f 268//400 275//400 274//400
f 269//401 270//401 276//401
f 269//402 276//402 275//402
f 270//403 271//403 277//403
f 270//404 277//404 276//404
f 271//405 272//405 278//405
f 271//406 278//406 277//406
f 272//407 267//407 273//407
f 272//408 273//408 278//408
f 273//409 274//409 280//409
f 273//410 280//410 279//410
f 274//411 275//411 281//411
f 274//412 281//412 280//412
f 275//413 276//413 282//413
f 275//414 282//414 281//414
f 276//415 277//415 283//415
f 276//416 283//416 282//416
f 277//417 278//417 284//417
f 277//418 284//418 283//418
f 278//419 273//419 279//419
f 278//420 279//420 284//420
f 279//421 280//421 286//421
f 279//422 286//422 285//422
f 280//423 281//423 287//423
f 280//424 287//424 286//424
f 281//425 282//425 288//425
f 281//426 288//426 287//426
f 282//427 283//427 289//427
f 282//428 289//428 288//428
f 283//429 284//429 290//429
f 283//430 290//430 289//430
f 284//431 279//431 285//431
f 284//432 285//432 290//432
f 291//433 298//433 297//433
f 292//434 299//434 298//434
f 293//435 300//435 299//435
f 294//436 301//436 300//436
f 295//437 302//437 301//437
f 296//438 297//438 302//438
f 297//439 298//439 304//439
f 297//440 304//440 303//440
f 298//441 299//441 305//441
f 298//442 305//442 304//442
f 299//443 300//443 306//443
f 299//444 306//444 305//444
f 300//445 301//445 307//445
f 300//446 307//446 306//446
f 301//447 302//447 308//447
f 301//448 308//448 307//448
f 302//449 297//449 303//449
f 302//450 303//450 308//450
f 303//451 304//451 310//451
f 303//452 310//452 309//452
f 304//453 305//453 311//453
f 304//454 311//454 310//454
f 305//455 306//455 312//455
f 305//456 312//456 311//456
f 306//457 307//457 313//457
f 306//458 313//458 312//458
f 307//459 308//459 314//459
f 307//460 314//460 313//460
f 308//461 303//461 309//461
f 308//462 309//462 314//462
f 309//463 310//463 316//463
f 309//464 316//464 315//464
f 310//465 311//465 317//465
f 310//466 317//466 316//466
f 311//467 312//467 318//467
f 311//468 318//468 317//468
f 312//469 313//469 319//469
f 312//470 319//470 318//470
f 313//471 314//471 320//471
f 313//472 320//472 319//472
f 314//473 309//473 315//473
f 314//474 315//474 320//474
usemtl c4
f 321//475 322//475 327//475
f 321//476 327//476 326//476
f 322//477 323//477 328//477
f 322//478 328//478 327//478
f 323//479 324//479 329//479
f 323//480 329//480 328//480
f 324//481 325//481 330//481
f 324//482 330//482 329//482
f 325//483 321//483 326//483
f 325//484 326//484 330//484
f 331//485 321//485 322//485
f 331//486 322//486 323//486
f 331//487 323//487 324//487
f 331//488 324//488 325//488
f 331//489 325//489 321//489
f 332//490 326//490 327//490
f 332//491 327//491 328//491
f 332//492 328//492 329//492
f 332//493 329//493 330//493
f 332//494 330//494 326//494
f 333//495 334//495 339//495
f 333//496 339//496 338//496
f 334//497 335//497 340//497
f 334//498 340//498 339//498
f 335//499 336//499 341//499
f 335//500 341//500 340//500
f 336//501 337//501 342//501
f 336//502 342//502 341//502
f 337//503 333//503 338//503
f 337//504 338//504 342//504
f 343//505 333//505 334//505
f 343//506 334//506 335//506
f 343//507 335//507 336//507
f 343//508 336//508 337//508
f 343//509 337//509 333//509
f 344//510 338//510 339//510
f 344//511 339//511 340//511
f 344//512 340//512 341//512
f 344//513 341//513 342//513
f 344//514 342//514 338//514
f 345//515 346//515 351//515
f 345//516 351//516 350//516
f 346//517 347//517 352//517
f 346//518 352//518 351//518
f 347//519 348//519 353//519
f 347//520 353//520 352//520
f 348//521 349//521 354//521
f 348//522 354//522 353//522
f 349//523 345//523 350//523
f 349//524 350//524 354//524
f 355//525 345//525 346//525
f 355//526 346//526 347//526
f 355//527 347//527 348//527
f 355//528 348//528 349//528
f 355//529 349//529 345//529
f 356//530 350//530 351//530
f 356//531 351//531 352//531
f 356//532 352//532 353//532
f 356//533 353//533 354//533
f 356//534 354//534 350//534
