mtllib Food_Odeng.mtl
v 0.0450 -1.3000 0.0000
v 0.0139 -1.3000 0.0428
v -0.0364 -1.3000 0.0265
v -0.0364 -1.3000 -0.0265
v 0.0139 -1.3000 -0.0428
v 0.0450 1.5000 0.0000
v 0.0139 1.5000 0.0428
v -0.0364 1.5000 0.0265
v -0.0364 1.5000 -0.0265
v 0.0139 1.5000 -0.0428
v 0.0000 -1.3000 0.0000
v 0.0000 1.5000 0.0000
v 0.0000 -1.0400 0.0000
v 0.0000 -1.0400 0.0000
v 0.0000 -1.0400 0.0000
v 0.0000 -1.0400 0.0000
v 0.0000 -1.0400 0.0000
v 0.0000 -1.0400 0.0000
v 0.0000 -1.0400 0.0000
v 0.0000 -1.0400 0.0000
v 0.4384 -0.9404 0.0000
v 0.3100 -0.9404 0.3100
v 0.0000 -0.9404 0.4384
v -0.3100 -0.9404 0.3100
v -0.4384 -0.9404 0.0000
v -0.3100 -0.9404 -0.3100
v -0.0000 -0.9404 -0.4384
v 0.3100 -0.9404 -0.3100
v 0.6200 -0.7000 0.0000
v 0.4384 -0.7000 0.4384
v 0.0000 -0.7000 0.6200
v -0.4384 -0.7000 0.4384
v -0.6200 -0.7000 0.0000
v -0.4384 -0.7000 -0.4384
v -0.0000 -0.7000 -0.6200
v 0.4384 -0.7000 -0.4384
v 0.4384 -0.4596 0.0000
v 0.3100 -0.4596 0.3100
v 0.0000 -0.4596 0.4384
v -0.3100 -0.4596 0.3100
v -0.4384 -0.4596 0.0000
v -0.3100 -0.4596 -0.3100
v -0.0000 -0.4596 -0.4384
v 0.3100 -0.4596 -0.3100
v 0.0000 -0.3600 0.0000
v 0.0000 -0.3600 0.0000
v 0.0000 -0.3600 0.0000
v -0.0000 -0.3600 0.0000
v -0.0000 -0.3600 0.0000
v -0.0000 -0.3600 -0.0000
v -0.0000 -0.3600 -0.0000
v 0.0000 -0.3600 -0.0000
v 0.2000 -0.3700 0.0000
v 0.1000 -0.3700 0.1732
v -0.1000 -0.3700 0.1732
v -0.2000 -0.3700 0.0000
v -0.1000 -0.3700 -0.1732
v 0.1000 -0.3700 -0.1732
v 0.2000 -0.3300 0.0000
v 0.1000 -0.3300 0.1732
v -0.1000 -0.3300 0.1732
v -0.2000 -0.3300 0.0000
v -0.1000 -0.3300 -0.1732
v 0.1000 -0.3300 -0.1732
v 0.0000 -0.3700 0.0000
v 0.0000 -0.3300 0.0000
v 0.0000 -0.2900 0.0000
v 0.0000 -0.2900 0.0000
v 0.0000 -0.2900 0.0000
v 0.0000 -0.2900 0.0000
v 0.0000 -0.2900 0.0000
v 0.0000 -0.2900 0.0000
v 0.0000 -0.2900 0.0000
v 0.0000 -0.2900 0.0000
v 0.3358 -0.1904 -0.2818
v 0.4367 -0.1904 0.0382
v 0.2818 -0.1904 0.3358
v -0.0382 -0.1904 0.4367
v -0.3358 -0.1904 0.2818
v -0.4367 -0.1904 -0.0382
v -0.2818 -0.1904 -0.3358
v 0.0382 -0.1904 -0.4367
v 0.4749 0.0500 -0.3985
v 0.6176 0.0500 0.0540
v 0.3985 0.0500 0.4749
v -0.0540 0.0500 0.6176
v -0.4749 0.0500 0.3985
v -0.6176 0.0500 -0.0540
v -0.3985 0.0500 -0.4749
v 0.0540 0.0500 -0.6176
v 0.3358 0.2904 -0.2818
v 0.4367 0.2904 0.0382
v 0.2818 0.2904 0.3358
v -0.0382 0.2904 0.4367
v -0.3358 0.2904 0.2818
v -0.4367 0.2904 -0.0382
v -0.2818 0.2904 -0.3358
v 0.0382 0.2904 -0.4367
v 0.0000 0.3900 -0.0000
v 0.0000 0.3900 0.0000
v 0.0000 0.3900 0.0000
v -0.0000 0.3900 0.0000
v -0.0000 0.3900 0.0000
v -0.0000 0.3900 -0.0000
v -0.0000 0.3900 -0.0000
v 0.0000 0.3900 -0.0000
v 0.2000 0.3800 0.0000
v 0.1000 0.3800 0.1732
v -0.1000 0.3800 0.1732
v -0.2000 0.3800 0.0000
v -0.1000 0.3800 -0.1732
v 0.1000 0.3800 -0.1732
v 0.2000 0.4200 0.0000
v 0.1000 0.4200 0.1732
v -0.1000 0.4200 0.1732
v -0.2000 0.4200 0.0000
v -0.1000 0.4200 -0.1732
v 0.1000 0.4200 -0.1732
v 0.0000 0.3800 0.0000
v 0.0000 0.4200 0.0000
v 0.0000 0.4600 0.0000
v 0.0000 0.4600 0.0000
v 0.0000 0.4600 0.0000
v 0.0000 0.4600 0.0000
v 0.0000 0.4600 0.0000
v 0.0000 0.4600 0.0000
v 0.0000 0.4600 0.0000
v 0.0000 0.4600 0.0000
v 0.3973 0.5596 0.1853
v 0.1499 0.5596 0.4120
v -0.1853 0.5596 0.3973
v -0.4120 0.5596 0.1499
v -0.3973 0.5596 -0.1853
v -0.1499 0.5596 -0.4120
v 0.1853 0.5596 -0.3973
v 0.4120 0.5596 -0.1499
v 0.5619 0.8000 0.2620
v 0.2121 0.8000 0.5826
v -0.2620 0.8000 0.5619
v -0.5826 0.8000 0.2121
v -0.5619 0.8000 -0.2620
v -0.2121 0.8000 -0.5826
v 0.2620 0.8000 -0.5619
v 0.5826 0.8000 -0.2121
v 0.3973 1.0404 0.1853
v 0.1499 1.0404 0.4120
v -0.1853 1.0404 0.3973
v -0.4120 1.0404 0.1499
v -0.3973 1.0404 -0.1853
v -0.1499 1.0404 -0.4120
v 0.1853 1.0404 -0.3973
v 0.4120 1.0404 -0.1499
v 0.0000 1.1400 0.0000
v 0.0000 1.1400 0.0000
v -0.0000 1.1400 0.0000
v -0.0000 1.1400 0.0000
v -0.0000 1.1400 -0.0000
v -0.0000 1.1400 -0.0000
v 0.0000 1.1400 -0.0000
v 0.0000 1.1400 -0.0000
v 0.2000 1.1300 0.0000
v 0.1000 1.1300 0.1732
v -0.1000 1.1300 0.1732
v -0.2000 1.1300 0.0000
v -0.1000 1.1300 -0.1732
v 0.1000 1.1300 -0.1732
v 0.2000 1.1700 0.0000
v 0.1000 1.1700 0.1732
v -0.1000 1.1700 0.1732
v -0.2000 1.1700 0.0000
v -0.1000 1.1700 -0.1732
v 0.1000 1.1700 -0.1732
v 0.0000 1.1300 0.0000
v 0.0000 1.1700 0.0000
vn -0.8090 0.0000 -0.5878
vn -0.8090 0.0000 -0.5878
vn 0.3090 0.0000 -0.9511
vn 0.3090 0.0000 -0.9511
vn 1.0000 0.0000 -0.0000
vn 1.0000 0.0000 -0.0000
vn 0.3090 0.0000 0.9511
vn 0.3090 -0.0000 0.9511
vn -0.8090 0.0000 0.5878
vn -0.8090 0.0000 0.5878
vn 0.0000 -1.0000 0.0000
vn 0.0000 -1.0000 0.0000
vn -0.0000 -1.0000 0.0000
vn 0.0000 -1.0000 -0.0000
vn 0.0000 -1.0000 0.0000
vn 0.0000 -1.0000 0.0000
vn 0.0000 -1.0000 0.0000
vn -0.0000 -1.0000 0.0000
vn 0.0000 -1.0000 -0.0000
vn 0.0000 -1.0000 0.0000
vn -0.2206 0.9711 -0.0914
vn -0.0914 0.9711 -0.2206
vn 0.0914 0.9711 -0.2206
vn 0.2206 0.9711 -0.0914
vn 0.2206 0.9711 0.0914
vn 0.0914 0.9711 0.2206
vn -0.0914 0.9711 0.2206
vn -0.2206 0.9711 0.0914
vn -0.7576 0.5723 -0.3138
vn -0.7576 0.5723 -0.3138
vn -0.3138 0.5723 -0.7576
vn -0.3138 0.5723 -0.7576
vn 0.3138 0.5723 -0.7576
vn 0.3138 0.5723 -0.7576
vn 0.7576 0.5723 -0.3138
vn 0.7576 0.5723 -0.3138
vn 0.7576 0.5723 0.3138
vn 0.7576 0.5723 0.3138
vn 0.3138 0.5723 0.7576
vn 0.3138 0.5723 0.7576
vn -0.3138 0.5723 0.7576
vn -0.3138 0.5723 0.7576
vn -0.7576 0.5723 0.3138
vn -0.7576 0.5723 0.3138
vn -0.7576 -0.5723 -0.3138
vn -0.7576 -0.5723 -0.3138
vn -0.3138 -0.5723 -0.7576
vn -0.3138 -0.5723 -0.7576
vn 0.3138 -0.5723 -0.7576
vn 0.3138 -0.5723 -0.7576
vn 0.7576 -0.5723 -0.3138
vn 0.7576 -0.5723 -0.3138
vn 0.7576 -0.5723 0.3138
vn 0.7576 -0.5723 0.3138
vn 0.3138 -0.5723 0.7576
vn 0.3138 -0.5723 0.7576
vn -0.3138 -0.5723 0.7576
vn -0.3138 -0.5723 0.7576
vn -0.7576 -0.5723 0.3138
vn -0.7576 -0.5723 0.3138
vn -0.2206 -0.9711 -0.0914
vn -0.0914 -0.9711 -0.2206
vn 0.0914 -0.9711 -0.2206
vn 0.2206 -0.9711 -0.0914
vn 0.2206 -0.9711 0.0914
vn 0.0914 -0.9711 0.2206
vn -0.0914 -0.9711 0.2206
vn -0.2206 -0.9711 0.0914
vn -0.8660 0.0000 -0.5000
vn -0.8660 0.0000 -0.5000
vn -0.0000 0.0000 -1.0000
vn -0.0000 0.0000 -1.0000
vn 0.8660 0.0000 -0.5000
vn 0.8660 0.0000 -0.5000
vn 0.8660 0.0000 0.5000
vn 0.8660 -0.0000 0.5000
vn 0.0000 0.0000 1.0000
vn 0.0000 -0.0000 1.0000
vn -0.8660 0.0000 0.5000
vn -0.8660 0.0000 0.5000
vn 0.0000 -1.0000 0.0000
vn 0.0000 -1.0000 0.0000
vn 0.0000 -1.0000 0.0000
vn -0.0000 -1.0000 0.0000
vn 0.0000 -1.0000 -0.0000
vn 0.0000 -1.0000 0.0000
vn 0.0000 -1.0000 0.0000
vn 0.0000 -1.0000 0.0000
vn 0.0000 -1.0000 0.0000
vn -0.0000 -1.0000 0.0000
vn 0.0000 -1.0000 -0.0000
vn 0.0000 -1.0000 0.0000
vn -0.2277 0.9711 0.0718
vn -0.2118 0.9711 -0.1102
vn -0.0718 0.9711 -0.2277
vn 0.1102 0.9711 -0.2118
vn 0.2277 0.9711 -0.0718
vn 0.2118 0.9711 0.1102
vn 0.0718 0.9711 0.2277
vn -0.1102 0.9711 0.2118
vn -0.7821 0.5723 0.2466
vn -0.7821 0.5723 0.2466
vn -0.7274 0.5723 -0.3787
vn -0.7274 0.5723 -0.3787
vn -0.2466 0.5723 -0.7821
vn -0.2466 0.5723 -0.7821
vn 0.3787 0.5723 -0.7274
vn 0.3787 0.5723 -0.7274
vn 0.7821 0.5723 -0.2466
vn 0.7821 0.5723 -0.2466
vn 0.7274 0.5723 0.3787
vn 0.7274 0.5723 0.3787
vn 0.2466 0.5723 0.7821
vn 0.2466 0.5723 0.7821
vn -0.3787 0.5723 0.7274
vn -0.3787 0.5723 0.7274
vn -0.7821 -0.5723 0.2466
vn -0.7821 -0.5723 0.2466
vn -0.7274 -0.5723 -0.3787
vn -0.7274 -0.5723 -0.3787
vn -0.2466 -0.5723 -0.7821
vn -0.2466 -0.5723 -0.7821
vn 0.3787 -0.5723 -0.7274
vn 0.3787 -0.5723 -0.7274
vn 0.7821 -0.5723 -0.2466
vn 0.7821 -0.5723 -0.2466
vn 0.7274 -0.5723 0.3787
vn 0.7274 -0.5723 0.3787
vn 0.2466 -0.5723 0.7821
vn 0.2466 -0.5723 0.7821
vn -0.3787 -0.5723 0.7274
vn -0.3787 -0.5723 0.7274
vn -0.2277 -0.9711 0.0718
vn -0.2118 -0.9711 -0.1102
vn -0.0718 -0.9711 -0.2277
vn 0.1102 -0.9711 -0.2118
vn 0.2277 -0.9711 -0.0718
vn 0.2118 -0.9711 0.1102
vn 0.0718 -0.9711 0.2277
vn -0.1102 -0.9711 0.2118
vn -0.8660 0.0000 -0.5000
vn -0.8660 0.0000 -0.5000
vn -0.0000 0.0000 -1.0000
vn -0.0000 0.0000 -1.0000
vn 0.8660 0.0000 -0.5000
vn 0.8660 0.0000 -0.5000
vn 0.8660 0.0000 0.5000
vn 0.8660 -0.0000 0.5000
vn 0.0000 0.0000 1.0000
vn 0.0000 -0.0000 1.0000
vn -0.8660 0.0000 0.5000
vn -0.8660 0.0000 0.5000
vn 0.0000 -1.0000 0.0000
vn 0.0000 -1.0000 0.0000
vn 0.0000 -1.0000 0.0000
vn -0.0000 -1.0000 0.0000
vn 0.0000 -1.0000 -0.0000
vn 0.0000 -1.0000 0.0000
vn 0.0000 -1.0000 0.0000
vn 0.0000 -1.0000 0.0000
vn 0.0000 -1.0000 0.0000
vn -0.0000 -1.0000 0.0000
vn 0.0000 -1.0000 -0.0000
vn 0.0000 -1.0000 0.0000
vn -0.1613 0.9711 -0.1760
vn 0.0104 0.9711 -0.2385
vn 0.1760 0.9711 -0.1613
vn 0.2385 0.9711 0.0104
vn 0.1613 0.9711 0.1760
vn -0.0104 0.9711 0.2385
vn -0.1760 0.9711 0.1613
vn -0.2385 0.9711 -0.0104
vn -0.5540 0.5723 -0.6046
vn -0.5540 0.5723 -0.6046
vn 0.0358 0.5723 -0.8193
vn 0.0358 0.5723 -0.8193
vn 0.6046 0.5723 -0.5540
vn 0.6046 0.5723 -0.5540
vn 0.8193 0.5723 0.0358
vn 0.8193 0.5723 0.0358
vn 0.5540 0.5723 0.6046
vn 0.5540 0.5723 0.6046
vn -0.0358 0.5723 0.8193
vn -0.0358 0.5723 0.8193
vn -0.6046 0.5723 0.5540
vn -0.6046 0.5723 0.5540
vn -0.8193 0.5723 -0.0358
vn -0.8193 0.5723 -0.0358
vn -0.5540 -0.5723 -0.6046
vn -0.5540 -0.5723 -0.6046
vn 0.0358 -0.5723 -0.8193
vn 0.0358 -0.5723 -0.8193
vn 0.6046 -0.5723 -0.5540
vn 0.6046 -0.5723 -0.5540
vn 0.8193 -0.5723 0.0358
vn 0.8193 -0.5723 0.0358
vn 0.5540 -0.5723 0.6046
vn 0.5540 -0.5723 0.6046
vn -0.0358 -0.5723 0.8193
vn -0.0358 -0.5723 0.8193
vn -0.6046 -0.5723 0.5540
vn -0.6046 -0.5723 0.5540
vn -0.8193 -0.5723 -0.0358
vn -0.8193 -0.5723 -0.0358
vn -0.1613 -0.9711 -0.1760
vn 0.0104 -0.9711 -0.2385
vn 0.1760 -0.9711 -0.1613
vn 0.2385 -0.9711 0.0104
vn 0.1613 -0.9711 0.1760
vn -0.0104 -0.9711 0.2385
vn -0.1760 -0.9711 0.1613
vn -0.2385 -0.9711 -0.0104
vn -0.8660 0.0000 -0.5000
vn -0.8660 0.0000 -0.5000
vn -0.0000 0.0000 -1.0000
vn -0.0000 0.0000 -1.0000
vn 0.8660 0.0000 -0.5000
vn 0.8660 0.0000 -0.5000
vn 0.8660 0.0000 0.5000
vn 0.8660 -0.0000 0.5000
vn 0.0000 0.0000 1.0000
vn 0.0000 -0.0000 1.0000
vn -0.8660 0.0000 0.5000
vn -0.8660 0.0000 0.5000
vn 0.0000 -1.0000 0.0000
vn 0.0000 -1.0000 0.0000
vn 0.0000 -1.0000 0.0000
vn -0.0000 -1.0000 0.0000
vn 0.0000 -1.0000 -0.0000
vn 0.0000 -1.0000 0.0000
vn 0.0000 -1.0000 0.0000
vn 0.0000 -1.0000 0.0000
vn 0.0000 -1.0000 0.0000
vn -0.0000 -1.0000 0.0000
vn 0.0000 -1.0000 -0.0000
vn 0.0000 -1.0000 0.0000
usemtl c0
f 1//1 2//1 7//1
f 1//2 7//2 6//2
f 2//3 3//3 8//3
f 2//4 8//4 7//4
f 3//5 4//5 9//5
f 3//6 9//6 8//6
f 4//7 5//7 10//7
f 4//8 10//8 9//8
f 5//9 1//9 6//9
f 5//10 6//10 10//10
f 11//11 1//11 2//11
f 11//12 2//12 3//12
f 11//13 3//13 4//13
f 11//14 4//14 5//14
f 11//15 5//15 1//15
f 12//16 6//16 7//16
f 12//17 7//17 8//17
f 12//18 8//18 9//18
f 12//19 9//19 10//19
f 12//20 10//20 6//20
usemtl c1
f 13//21 22//21 21//21
f 14//22 23//22 22//22
f 15//23 24//23 23//23
f 16//24 25//24 24//24
f 17//25 26//25 25//25
f 18//26 27//26 26//26
f 19//27 28//27 27//27
f 20//28 21//28 28//28
f 21//29 22//29 30//29
f 21//30 30//30 29//30
f 22//31 23//31 31//31
f 22//32 31//32 30//32
f 23//33 24//33 32//33
f 23//34 32//34 31//34
f 24//35 25//35 33//35
f 24//36 33//36 32//36
f 25//37 26//37 34//37
f 25//38 34//38 33//38
f 26//39 27//39 35//39
f 26//40 35//40 34//40
f 27//41 28//41 36//41
f 27//42 36//42 35//42
f 28//43 21//43 29//43
f 28//44 29//44 36//44
f 29//45 30//45 38//45
f 29//46 38//46 37//46
f 30//47 31//47 39//47
f 30//48 39//48 38//48
f 31//49 32//49 40//49
f 31//50 40//50 39//50
f 32//51 33//51 41//51
f 32//52 41//52 40//52
f 33//53 34//53 42//53
f 33//54 42//54 41//54
f 34//55 35//55 43//55
f 34//56 43//56 42//56
f 35//57 36//57 44//57
f 35//58 44//58 43//58
f 36//59 29//59 37//59
f 36//60 37//60 44//60
f 37//61 38//61 46//61
f 38//62 39//62 47//62
f 39//63 40//63 48//63
f 40//64 41//64 49//64
f 41//65 42//65 50//65
f 42//66 43//66 51//66
f 43//67 44//67 52//67
f 44//68 37//68 45//68
usemtl c2
f 53//69 54//69 60//69
f 53//70 60//70 59//70
f 54//71 55//71 61//71
f 54//72 61//72 60//72
f 55//73 56//73 62//73
f 55//74 62//74 61//74
f 56//75 57//75 63//75
f 56//76 63//76 62//76
f 57//77 58//77 64//77
f 57//78 64//78 63//78
f 58//79 53//79 59//79
f 58//80 59//80 64//80
f 65//81 53//81 54//81
f 65//82 54//82 55//82
f 65//83 55//83 56//83
f 65//84 56//84 57//84
f 65//85 57//85 58//85
f 65//86 58//86 53//86
f 66//87 59//87 60//87
f 66//88 60//88 61//88
f 66//89 61//89 62//89
f 66//90 62//90 63//90
f 66//91 63//91 64//91
f 66//92 64//92 59//92
usemtl c1
f 67//93 76//93 75//93
f 68//94 77//94 76//94
f 69//95 78//95 77//95
f 70//96 79//96 78//96
f 71//97 80//97 79//97
f 72//98 81//98 80//98
f 73//99 82//99 81//99
f 74//100 75//100 82//100
f 75//101 76//101 84//101
f 75//102 84//102 83//102
f 76//103 77//103 85//103
f 76//104 85//104 84//104
f 77//105 78//105 86//105
f 77//106 86//106 85//106
f 78//107 79//107 87//107
f 78//108 87//108 86//108
f 79//109 80//109 88//109
f 79//110 88//110 87//110
f 80//111 81//111 89//111
f 80//112 89//112 88//112
f 81//113 82//113 90//113
f 81//114 90//114 89//114
f 82//115 75//115 83//115
f 82//116 83//116 90//116
f 83//117 84//117 92//117
f 83//118 92//118 91//118
f 84//119 85//119 93//119
f 84//120 93//120 92//120
f 85//121 86//121 94//121
f 85//122 94//122 93//122
f 86//123 87//123 95//123
f 86//124 95//124 94//124
f 87//125 88//125 96//125
f 87//126 96//126 95//126
f 88//127 89//127 97//127
f 88//128 97//128 96//128
f 89//129 90//129 98//129
f 89//130 98//130 97//130
f 90//131 83//131 91//131
f 90//132 91//132 98//132
f 91//133 92//133 100//133
f 92//134 93//134 101//134
f 93//135 94//135 102//135
f 94//136 95//136 103//136
f 95//137 96//137 104//137
f 96//138 97//138 105//138
f 97//139 98//139 106//139
f 98//140 91//140 99//140
usemtl c2
f 107//141 108//141 114//141
f 107//142 114//142 113//142
f 108//143 109//143 115//143
f 108//144 115//144 114//144
f 109//145 110//145 116//145
f 109//146 116//146 115//146
f 110//147 111//147 117//147
f 110//148 117//148 116//148
f 111//149 112//149 118//149
f 111//150 118//150 117//150
f 112//151 107//151 113//151
f 112//152 113//152 118//152
f 119//153 107//153 108//153
f 119//154 108//154 109//154
f 119//155 109//155 110//155
f 119//156 110//156 111//156
f 119//157 111//157 112//157
f 119//158 112//158 107//158
f 120//159 113//159 114//159
f 120//160 114//160 115//160
f 120//161 115//161 116//161
f 120//162 116//162 117//162
f 120//163 117//163 118//163
f 120//164 118//164 113//164
usemtl c1
f 121//165 130//165 129//165
f 122//166 131//166 130//166
f 123//167 132//167 131//167
f 124//168 133//168 132//168
f 125//169 134//169 133//169
f 126//170 135//170 134//170
f 127//171 136//171 135//171
f 128//172 129//172 136//172
f 129//173 130//173 138//173
f 129//174 138//174 137//174
f 130//175 131//175 139//175
f 130//176 139//176 138//176
f 131//177 132//177 140//177
f 131//178 140//178 139//178
f 132//179 133//179 141//179
f 132//180 141//180 140//180
f 133//181 134//181 142//181
f 133//182 142//182 141//182
f 134//183 135//183 143//183
f 134//184 143//184 142//184
f 135//185 136//185 144//185
f 135//186 144//186 143//186
f 136//187 129//187 137//187
f 136//188 137//188 144//188
f 137//189 138//189 146//189
f 137//190 146//190 145//190
f 138//191 139//191 147//191
f 138//192 147//192 146//192
f 139//193 140//193 148//193
f 139//194 148//194 147//194
f 140//195 141//195 149//195
f 140//196 149//196 148//196
f 141//197 142//197 150//197
f 141//198 150//198 149//198
f 142//199 143//199 151//199
f 142//200 151//200 150//200
f 143//201 144//201 152//201
f 143//202 152//202 151//202
f 144//203 137//203 145//203
f 144//204 145//204 152//204
f 145//205 146//205 154//205
f 146//206 147//206 155//206
f 147//207 148//207 156//207
f 148//208 149//208 157//208
f 149//209 150//209 158//209
f 150//210 151//210 159//210
f 151//211 152//211 160//211
f 152//212 145//212 153//212
usemtl c2
f 161//213 162//213 168//213
f 161//214 168//214 167//214
f 162//215 163//215 169//215
f 162//216 169//216 168//216
f 163//217 164//217 170//217
f 163//218 170//218 169//218
f 164//219 165//219 171//219
f 164//220 171//220 170//220
f 165//221 166//221 172//221
f 165//222 172//222 171//222
f 166//223 161//223 167//223
f 166//224 167//224 172//224
f 173//225 161//225 162//225
f 173//226 162//226 163//226
f 173//227 163//227 164//227
f 173//228 164//228 165//228
f 173//229 165//229 166//229
f 173//230 166//230 161//230
f 174//231 167//231 168//231
f 174//232 168//232 169//232
f 174//233 169//233 170//233
f 174//234 170//234 171//234
f 174//235 171//235 172//235
f 174//236 172//236 167//236
