mtllib Food_Steak.mtl
v 1.2434 0.0000 0.0000
v 1.0565 0.0000 0.4508
v 0.5982 0.0000 0.7659
v 0.0000 0.0000 0.8670
v -0.5748 0.0000 0.7358
v -0.9752 0.0000 0.4162
v -1.1026 0.0000 0.0000
v -0.9346 0.0000 -0.3988
v -0.6334 0.0000 -0.8109
v -0.0000 0.0000 -0.9190
v 0.6100 0.0000 -0.7809
v 1.0362 0.0000 -0.4422
v 1.2434 0.2800 0.0000
v 1.0565 0.2800 0.4508
v 0.5982 0.2800 0.7659
v 0.0000 0.2800 0.8670
v -0.5748 0.2800 0.7358
v -0.9752 0.2800 0.4162
v -1.1026 0.2800 0.0000
v -0.9346 0.2800 -0.3988
v -0.6334 0.2800 -0.8109
v -0.0000 0.2800 -0.9190
v 0.6100 0.2800 -0.7809
v 1.0362 0.2800 -0.4422
v 0.0270 0.0000 -0.0097
v 0.0270 0.2800 -0.0097
v 1.1215 0.0000 0.0000
v 0.9529 0.0000 0.4066
v 0.5396 0.0000 0.6908
v 0.0000 0.0000 0.7820
v -0.5184 0.0000 0.6637
v -0.8796 0.0000 0.3754
v -0.9945 0.0000 0.0000
v -0.8430 0.0000 -0.3597
v -0.5713 0.0000 -0.7314
v -0.0000 0.0000 -0.8289
v 0.5502 0.0000 -0.7043
v 0.9346 0.0000 -0.3988
v 1.1215 0.3400 0.0000
v 0.9529 0.3400 0.4066
v 0.5396 0.3400 0.6908
v 0.0000 0.3400 0.7820
v -0.5184 0.3400 0.6637
v -0.8796 0.3400 0.3754
v -0.9945 0.3400 0.0000
v -0.8430 0.3400 -0.3597
v -0.5713 0.3400 -0.7314
v -0.0000 0.3400 -0.8289
v 0.5502 0.3400 -0.7043
v 0.9346 0.3400 -0.3988
v 0.0243 0.0000 -0.0087
v 0.0243 0.3400 -0.0087
v -0.5525 0.3250 0.0442
v 0.5124 0.3250 -0.7015
v 0.5525 0.3250 -0.6442
v -0.5124 0.3250 0.1015
v -0.5525 0.3550 0.0442
v 0.5124 0.3550 -0.7015
v 0.5525 0.3550 -0.6442
v -0.5124 0.3550 0.1015
v 0.0000 0.3250 -0.3000
v 0.0000 0.3550 -0.3000
v -0.5525 0.3250 0.3442
v 0.5124 0.3250 -0.4015
v 0.5525 0.3250 -0.3442
v -0.5124 0.3250 0.4015
v -0.5525 0.3550 0.3442
v 0.5124 0.3550 -0.4015
v 0.5525 0.3550 -0.3442
v -0.5124 0.3550 0.4015
v 0.0000 0.3250 0.0000
v 0.0000 0.3550 0.0000
v -0.5525 0.3250 0.6442
v 0.5124 0.3250 -0.1015
v 0.5525 0.3250 -0.0442
v -0.5124 0.3250 0.7015
v -0.5525 0.3550 0.6442
v 0.5124 0.3550 -0.1015
v 0.5525 0.3550 -0.0442
v -0.5124 0.3550 0.7015
v 0.0000 0.3250 0.3000
v 0.0000 0.3550 0.3000
v 0.5161 0.3173 0.0889
v 0.4944 0.3157 0.1167
v 0.4804 0.3477 0.1214
v 0.4935 0.3691 0.0965
v 0.5155 0.3503 0.0765
v 1.0161 0.4773 0.4889
v 0.9944 0.4757 0.5167
v 0.9804 0.5077 0.5214
v 0.9935 0.5291 0.4965
v 1.0155 0.5103 0.4765
v 0.5000 0.3400 0.1000
v 1.0000 0.5000 0.5000
v 0.9000 0.4600 0.4000
v 0.9000 0.4600 0.4000
v 0.9000 0.4600 0.4000
v 0.9000 0.4600 0.4000
v 0.9000 0.4600 0.4000
v 1.0386 0.4800 0.4000
v 0.9428 0.4800 0.4659
v 0.7879 0.4800 0.4407
v 0.7879 0.4800 0.3593
v 0.9428 0.4800 0.3341
v 1.0386 0.5200 0.4000
v 0.9428 0.5200 0.4659
v 0.7879 0.5200 0.4407
v 0.7879 0.5200 0.3593
v 0.9428 0.5200 0.3341
v 0.9000 0.5400 0.4000
v 0.9000 0.5400 0.4000
v 0.9000 0.5400 0.4000
v 0.9000 0.5400 0.4000
v 0.9000 0.5400 0.4000
vn -0.9238 0.0000 -0.3830
vn -0.9238 0.0000 -0.3830
vn 0.0000 1.0000 0.0000
vn 0.0000 -1.0000 0.0000
vn -0.5665 0.0000 -0.8241
vn -0.5665 0.0000 -0.8241
vn 0.0000 1.0000 0.0000
vn 0.0000 -1.0000 0.0000
vn -0.1667 0.0000 -0.9860
vn -0.1667 0.0000 -0.9860
vn 0.0000 1.0000 -0.0000
vn 0.0000 -1.0000 0.0000
vn 0.2225 0.0000 -0.9749
vn 0.2225 0.0000 -0.9749
vn 0.0000 1.0000 0.0000
vn 0.0000 -1.0000 0.0000
vn 0.6239 0.0000 -0.7815
vn 0.6239 0.0000 -0.7815
vn 0.0000 1.0000 0.0000
vn 0.0000 -1.0000 0.0000
vn 0.9562 0.0000 -0.2927
vn 0.9562 0.0000 -0.2927
vn 0.0000 1.0000 0.0000
vn 0.0000 -1.0000 0.0000
vn 0.9215 0.0000 0.3883
vn 0.9215 -0.0000 0.3883
vn 0.0000 1.0000 0.0000
vn -0.0000 -1.0000 0.0000
vn 0.8074 0.0000 0.5900
vn 0.8074 -0.0000 0.5900
vn 0.0000 1.0000 0.0000
vn 0.0000 -1.0000 0.0000
vn 0.1682 0.0000 0.9857
vn 0.1682 -0.0000 0.9857
vn 0.0000 1.0000 0.0000
vn 0.0000 -1.0000 0.0000
vn -0.2209 0.0000 0.9753
vn -0.2209 0.0000 0.9753
vn 0.0000 1.0000 0.0000
vn 0.0000 -1.0000 -0.0000
vn -0.6222 0.0000 0.7829
vn -0.6222 0.0000 0.7829
vn 0.0000 1.0000 0.0000
vn 0.0000 -1.0000 0.0000
vn -0.9055 0.0000 0.4243
vn -0.9055 0.0000 0.4243
vn -0.0000 1.0000 0.0000
vn 0.0000 -1.0000 0.0000
vn -0.9238 0.0000 -0.3830
vn -0.9238 0.0000 -0.3830
vn 0.0000 1.0000 0.0000
vn 0.0000 -1.0000 0.0000
vn -0.5665 0.0000 -0.8241
vn -0.5665 0.0000 -0.8241
vn 0.0000 1.0000 0.0000
vn 0.0000 -1.0000 0.0000
vn -0.1667 0.0000 -0.9860
vn -0.1667 0.0000 -0.9860
vn 0.0000 1.0000 -0.0000
vn 0.0000 -1.0000 0.0000
vn 0.2225 0.0000 -0.9749
vn 0.2225 0.0000 -0.9749
vn 0.0000 1.0000 0.0000
vn 0.0000 -1.0000 0.0000
vn 0.6239 0.0000 -0.7815
vn 0.6239 0.0000 -0.7815
vn 0.0000 1.0000 0.0000
vn 0.0000 -1.0000 0.0000
vn 0.9562 0.0000 -0.2927
vn 0.9562 0.0000 -0.2927
vn 0.0000 1.0000 0.0000
vn 0.0000 -1.0000 0.0000
vn 0.9215 0.0000 0.3883
vn 0.9215 -0.0000 0.3883
vn 0.0000 1.0000 0.0000
vn -0.0000 -1.0000 0.0000
vn 0.8074 0.0000 0.5900
vn 0.8074 -0.0000 0.5900
vn 0.0000 1.0000 0.0000
vn 0.0000 -1.0000 0.0000
vn 0.1682 0.0000 0.9857
vn 0.1682 -0.0000 0.9857
vn 0.0000 1.0000 0.0000
vn 0.0000 -1.0000 0.0000
vn -0.2209 0.0000 0.9753
vn -0.2209 0.0000 0.9753
vn 0.0000 1.0000 0.0000
vn 0.0000 -1.0000 -0.0000
vn -0.6222 0.0000 0.7829
vn -0.6222 0.0000 0.7829
vn 0.0000 1.0000 0.0000
vn 0.0000 -1.0000 0.0000
vn -0.9055 0.0000 0.4243
vn -0.9055 0.0000 0.4243
vn -0.0000 1.0000 0.0000
vn 0.0000 -1.0000 0.0000
vn 0.5736 0.0000 0.8192
vn 0.5736 -0.0000 0.8192
vn 0.0000 1.0000 0.0000
vn -0.0000 -1.0000 -0.0000
vn -0.8192 0.0000 0.5736
vn -0.8192 0.0000 0.5736
vn 0.0000 1.0000 0.0000
vn 0.0000 -1.0000 0.0000
vn -0.5736 0.0000 -0.8192
vn -0.5736 0.0000 -0.8192
vn -0.0000 1.0000 -0.0000
vn 0.0000 -1.0000 0.0000
vn 0.8192 0.0000 -0.5736
vn 0.8192 0.0000 -0.5736
vn 0.0000 1.0000 0.0000
vn 0.0000 -1.0000 0.0000
vn 0.5736 0.0000 0.8192
vn 0.5736 -0.0000 0.8192
vn 0.0000 1.0000 0.0000
vn -0.0000 -1.0000 -0.0000
vn -0.8192 0.0000 0.5736
vn -0.8192 0.0000 0.5736
vn 0.0000 1.0000 0.0000
vn 0.0000 -1.0000 0.0000
vn -0.5736 0.0000 -0.8192
vn -0.5736 0.0000 -0.8192
vn -0.0000 1.0000 -0.0000
vn 0.0000 -1.0000 0.0000
vn 0.8192 0.0000 -0.5736
vn 0.8192 0.0000 -0.5736
vn 0.0000 1.0000 0.0000
vn 0.0000 -1.0000 0.0000
vn 0.5736 0.0000 0.8192
vn 0.5736 -0.0000 0.8192
vn 0.0000 1.0000 0.0000
vn -0.0000 -1.0000 -0.0000
vn -0.8192 0.0000 0.5736
vn -0.8192 0.0000 0.5736
vn 0.0000 1.0000 0.0000
vn 0.0000 -1.0000 0.0000
vn -0.5736 0.0000 -0.8192
vn -0.5736 0.0000 -0.8192
vn -0.0000 1.0000 -0.0000
vn 0.0000 -1.0000 0.0000
vn 0.8192 0.0000 -0.5736
vn 0.8192 0.0000 -0.5736
vn 0.0000 1.0000 0.0000
vn 0.0000 -1.0000 0.0000
vn -0.2181 0.9691 -0.1150
vn -0.2181 0.9691 -0.1150
vn 0.5177 0.3423 -0.7841
vn 0.5177 0.3423 -0.7841
vn 0.5381 -0.7576 -0.3695
vn 0.5381 -0.7576 -0.3695
vn -0.1852 -0.8105 0.5557
vn -0.1852 -0.8105 0.5557
vn -0.6525 0.2567 0.7130
vn -0.6525 0.2567 0.7130
vn -0.7576 -0.2424 -0.6061
vn -0.7576 -0.2424 -0.6061
vn -0.7576 -0.2424 -0.6061
vn -0.7576 -0.2424 -0.6061
vn -0.7576 -0.2424 -0.6061
vn -0.7576 -0.2424 -0.6061
vn -0.7576 -0.2424 -0.6061
vn -0.7576 -0.2424 -0.6061
vn -0.7576 -0.2424 -0.6061
vn -0.7576 -0.2424 -0.6061
vn -0.1399 0.9691 -0.2033
vn 0.0521 0.9457 -0.3209
vn 0.1756 0.9845 0.0000
vn 0.0521 0.9457 0.3209
vn -0.1399 0.9691 0.2033
vn -0.5669 0.0000 -0.8238
vn -0.5669 0.0000 -0.8238
vn 0.1604 0.0000 -0.9871
vn 0.1604 0.0000 -0.9871
vn 1.0000 0.0000 0.0000
vn 1.0000 -0.0000 0.0000
vn 0.1604 0.0000 0.9871
vn 0.1604 0.0000 0.9871
vn -0.5669 0.0000 0.8238
vn -0.5669 0.0000 0.8238
vn -0.1399 -0.9691 -0.2033
vn 0.0521 -0.9457 -0.3209
vn 0.1756 -0.9845 0.0000
vn 0.0521 -0.9457 0.3209
vn -0.1399 -0.9691 0.2033
usemtl c0
f 1//1 2//1 14//1
f 1//2 14//2 13//2
f 25//3 2//3 1//3
f 26//4 13//4 14//4
f 2//5 3//5 15//5
f 2//6 15//6 14//6
f 25//7 3//7 2//7
f 26//8 14//8 15//8
f 3//9 4//9 16//9
f 3//10 16//10 15//10
f 25//11 4//11 3//11
f 26//12 15//12 16//12
f 4//13 5//13 17//13
f 4//14 17//14 16//14
f 25//15 5//15 4//15
f 26//16 16//16 17//16
f 5//17 6//17 18//17
f 5//18 18//18 17//18
f 25//19 6//19 5//19
f 26//20 17//20 18//20
f 6//21 7//21 19//21
f 6//22 19//22 18//22
f 25//23 7//23 6//23
f 26//24 18//24 19//24
f 7//25 8//25 20//25
f 7//26 20//26 19//26
f 25//27 8//27 7//27
f 26//28 19//28 20//28
f 8//29 9//29 21//29
f 8//30 21//30 20//30
f 25//31 9//31 8//31
f 26//32 20//32 21//32
f 9//33 10//33 22//33
f 9//34 22//34 21//34
f 25//35 10//35 9//35
f 26//36 21//36 22//36
f 10//37 11//37 23//37
f 10//38 23//38 22//38
f 25//39 11//39 10//39
f 26//40 22//40 23//40
f 11//41 12//41 24//41
f 11//42 24//42 23//42
f 25//43 12//43 11//43
f 26//44 23//44 24//44
f 12//45 1//45 13//45
f 12//46 13//46 24//46
f 25//47 1//47 12//47
f 26//48 24//48 13//48
usemtl c1
f 27//49 28//49 40//49
f 27//50 40//50 39//50
f 51//51 28//51 27//51
f 52//52 39//52 40//52
f 28//53 29//53 41//53
f 28//54 41//54 40//54
f 51//55 29//55 28//55
f 52//56 40//56 41//56
f 29//57 30//57 42//57
f 29//58 42//58 41//58
f 51//59 30//59 29//59
f 52//60 41//60 42//60
f 30//61 31//61 43//61
f 30//62 43//62 42//62
f 51//63 31//63 30//63
f 52//64 42//64 43//64
f 31//65 32//65 44//65
f 31//66 44//66 43//66
f 51//67 32//67 31//67
f 52//68 43//68 44//68
f 32//69 33//69 45//69
f 32//70 45//70 44//70
f 51//71 33//71 32//71
f 52//72 44//72 45//72
f 33//73 34//73 46//73
f 33//74 46//74 45//74
f 51//75 34//75 33//75
f 52//76 45//76 46//76
f 34//77 35//77 47//77
f 34//78 47//78 46//78
f 51//79 35//79 34//79
f 52//80 46//80 47//80
f 35//81 36//81 48//81
f 35//82 48//82 47//82
f 51//83 36//83 35//83
f 52//84 47//84 48//84
f 36//85 37//85 49//85
f 36//86 49//86 48//86
f 51//87 37//87 36//87
f 52//88 48//88 49//88
f 37//89 38//89 50//89
f 37//90 50//90 49//90
f 51//91 38//91 37//91
f 52//92 49//92 50//92
f 38//93 27//93 39//93
f 38//94 39//94 50//94
f 51//95 27//95 38//95
f 52//96 50//96 39//96
usemtl c2
f 53//97 54//97 58//97
f 53//98 58//98 57//98
f 61//99 54//99 53//99
f 62//100 57//100 58//100
f 54//101 55//101 59//101
f 54//102 59//102 58//102
f 61//103 55//103 54//103
f 62//104 58//104 59//104
f 55//105 56//105 60//105
f 55//106 60//106 59//106
f 61//107 56//107 55//107
f 62//108 59//108 60//108
f 56//109 53//109 57//109
f 56//110 57//110 60//110
f 61//111 53//111 56//111
f 62//112 60//112 57//112
f 63//113 64//113 68//113
f 63//114 68//114 67//114
f 71//115 64//115 63//115
f 72//116 67//116 68//116
f 64//117 65//117 69//117
f 64//118 69//118 68//118
f 71//119 65//119 64//119
f 72//120 68//120 69//120
f 65//121 66//121 70//121
f 65//122 70//122 69//122
f 71//123 66//123 65//123
f 72//124 69//124 70//124
f 66//125 63//125 67//125
f 66//126 67//126 70//126
f 71//127 63//127 66//127
f 72//128 70//128 67//128
f 73//129 74//129 78//129
f 73//130 78//130 77//130
f 81//131 74//131 73//131
f 82//132 77//132 78//132
f 74//133 75//133 79//133
f 74//134 79//134 78//134
f 81//135 75//135 74//135
f 82//136 78//136 79//136
f 75//137 76//137 80//137
f 75//138 80//138 79//138
f 81//139 76//139 75//139
f 82//140 79//140 80//140
f 76//141 73//141 77//141
f 76//142 77//142 80//142
f 81//143 73//143 76//143
f 82//144 80//144 77//144
usemtl c3
f 83//145 84//145 89//145
f 83//146 89//146 88//146
f 84//147 85//147 90//147
f 84//148 90//148 89//148
f 85//149 86//149 91//149
f 85//150 91//150 90//150
f 86//151 87//151 92//151
f 86//152 92//152 91//152
f 87//153 83//153 88//153
f 87//154 88//154 92//154
f 93//155 83//155 84//155
f 93//156 84//156 85//156
f 93//157 85//157 86//157
f 93//158 86//158 87//158
f 93//159 87//159 83//159
f 94//160 88//160 89//160
f 94//161 89//161 90//161
f 94//162 90//162 91//162
f 94//163 91//163 92//163
f 94//164 92//164 88//164
f 95//165 101//165 100//165
f 96//166 102//166 101//166
f 97//167 103//167 102//167
f 98//168 104//168 103//168
f 99//169 100//169 104//169
f 100//170 101//170 106//170
f 100//171 106//171 105//171
f 101//172 102//172 107//172
f 101//173 107//173 106//173
f 102//174 103//174 108//174
f 102//175 108//175 107//175
f 103//176 104//176 109//176
f 103//177 109//177 108//177
f 104//178 100//178 105//178
f 104//179 105//179 109//179
f 105//180 106//180 111//180
f 106//181 107//181 112//181
f 107//182 108//182 113//182
f 108//183 109//183 114//183
f 109//184 105//184 110//184
